<svg xmlns="http://www.w3.org/2000/svg" width="1" height="1" viewBox="371.0848693847656 34.63199996948242 1 1" fill="none">
  <path d="M 371.505615234375 34.63199996948242 C 371.6167602539062 34.63961410522461 371.6141967773438 34.75974655151367 371.6069030761719 34.88496017456055 C 371.4867248535156 34.77948760986328 371.3412170410156 34.9554557800293 371.3042907714844 35.08716201782227 C 371.4393920898438 35.12240600585938 371.4015502929688 34.98309707641602 371.4557189941406 34.93572235107422 C 371.496337890625 34.9625129699707 371.5372619628906 34.98873519897461 371.6069030761719 34.98563766479492 C 371.6062927246094 35.06318283081055 371.4695739746094 35.15258407592773 371.505615234375 34.98563766479492 C 371.441650390625 34.99776077270508 371.4393920898438 35.13679504394531 371.505615234375 35.13791656494141 C 371.496337890625 35.19488143920898 371.4548645019531 35.16640090942383 371.4557189941406 35.13791656494141 C 371.300048828125 35.10013198852539 371.3584289550781 35.27666091918945 371.2027282714844 35.23859786987305 C 371.1638793945312 34.99070739746094 371.0848693847656 35.04655075073242 371.2027282714844 34.83419418334961 C 371.2930297851562 34.82827377319336 371.3093566894531 34.89652252197266 371.4049377441406 34.88496017456055 C 371.2992248535156 34.78428649902344 371.441650390625 34.70813751220703 371.505615234375 34.63199996948242" fill="#2777df" stroke="none" stroke-width="0"/>
</svg>