<svg xmlns="http://www.w3.org/2000/svg" width="14" height="4" viewBox="18.56828117370605 43.17201614379883 13.880495071411136 3.6673622131347585" fill="none">
  <path d="M 31.46479225158691 44.13681793212891 C 30.47840690612793 43.54290771484375 29.11713600158691 43.46537780761719 27.99646759033203 43.36865615844727 C 26.88298988342285 43.27272796630859 25.76711273193359 43.21438217163086 24.64963912963867 43.19280242919922 C 23.56813812255859 43.17201614379883 22.48823356628418 43.18721389770508 21.40832710266113 43.25034713745117 C 20.78884315490723 43.28632736206055 20.13178443908691 43.27592849731445 19.57384872436523 43.58687210083008 C 18.79049682617188 44.0233154296875 18.56828117370605 44.78427886962891 18.70097160339355 45.61399459838867 C 18.83606147766113 46.45809555053711 19.80645561218262 46.76743316650391 20.520263671875 46.64753341674805 C 19.88159370422363 46.7546501159668 20.72169876098633 46.58358383178711 20.89915084838867 46.55961608886719 C 20.99427032470703 46.530029296875 20.9838809967041 46.53163528442383 20.86877632141113 46.56520462036133 C 21.01265335083008 46.55721282958984 21.15653800964355 46.55001831054688 21.30041694641113 46.54282379150391 C 21.73206329345703 46.52204895019531 22.16450309753418 46.50925445556641 22.59614372253418 46.49726104736328 C 23.53296852111816 46.47087860107422 24.4689884185791 46.45969390869141 25.4066162109375 46.48127746582031 C 26.34343719482422 46.50205993652344 27.27706336975098 46.55561447143555 28.21148490905762 46.62276077270508 C 29.15710258483887 46.69070053100586 30.22182273864746 46.83937835693359 31.14505958557129 46.58039093017578 C 32.26092910766602 46.26785278320312 32.44877624511719 44.72912979125977 31.46479225158691 44.13681793212891" fill="#2473d8" stroke="none" stroke-width="0"/>
</svg>