<svg xmlns="http://www.w3.org/2000/svg" width="5" height="4" viewBox="27.7313060760498 97.82122039794922 4.543432235717777 3.681755065917983" fill="none">
  <path d="M 28.34279823303223 101.4494400024414 C 28.56101417541504 101.3846893310547 28.7184886932373 101.2631759643555 28.89834022521973 101.1296920776367 C 29.07819175720215 100.9954071044922 29.26443672180176 100.8675079345703 29.43389320373535 100.7204284667969 C 29.73684120178223 100.4598541259766 30.0341968536377 100.1896820068359 30.32835578918457 99.918701171875 C 30.60652351379395 99.662109375 30.88069343566895 99.40072631835938 31.16206169128418 99.14652252197266 C 31.41385841369629 98.92031860351562 31.65525245666504 98.79322814941406 31.95980262756348 98.64376068115234 C 32.27473831176758 98.48948669433594 32.21478652954102 97.92754364013672 31.85828590393066 97.86598968505859 C 31.59850120544434 97.82122039794922 31.40506172180176 97.83560943603516 31.1612606048584 97.94113922119141 C 30.99660301208496 98.01146697998047 30.84552955627441 98.10179901123047 30.70004081726074 98.20571899414062 C 30.3563289642334 98.45191955566406 30.0325984954834 98.72928619384766 29.70327186584473 98.99465179443359 C 29.38113594055176 99.25364685058594 29.06459999084473 99.51983642578125 28.74726676940918 99.78440856933594 C 28.58340263366699 99.92108154296875 28.43392753601074 100.0673751831055 28.28285026550293 100.2176513671875 C 28.11179161071777 100.3886947631836 27.92234992980957 100.5461654663086 27.81923484802246 100.7684020996094 C 27.73929786682129 100.9402542114258 27.7313060760498 101.1272888183594 27.85519981384277 101.2831649780273 C 27.96870994567871 101.4254531860352 28.16134834289551 101.5029754638672 28.34279823303223 101.4494400024414" fill="#2473d8" stroke="none" stroke-width="0"/>
</svg>