<svg xmlns="http://www.w3.org/2000/svg" width="3" height="3" viewBox="176.2520751953125 93.57133483886719 2.9340515136719034 2.55645751953125" fill="none">
  <path d="M 178.8765716552734 93.88367462158203 C 179.094970703125 93.93557739257812 179.0653991699219 94.14496612548828 179.0789031982422 94.46398162841797 C 179.0965270996094 94.88052368164062 179.1861267089844 95.54811096191406 178.9980621337891 95.84049987792969 C 179.094970703125 96.10249328613281 178.7720031738281 96.12779235839844 178.5390014648438 96.12399291992188 C 177.9244079589844 96.11405944824219 177.0302734375 96.10630798339844 176.5687561035156 95.98930358886719 C 176.5179443359375 95.91847229003906 176.4093322753906 95.90559387207031 176.3662719726562 95.82708740234375 C 176.419189453125 95.21784973144531 176.2520751953125 94.5810546875 176.3662719726562 94.072509765625 C 176.3801574707031 94.010986328125 176.3800048828125 93.88623046875 176.4608459472656 93.87017822265625 C 176.4886932373047 93.90516662597656 176.4646301269531 93.99848937988281 176.4741058349609 94.05939483642578 C 176.4945068359375 94.18896484375 176.5599060058594 94.32488250732422 176.58203125 94.47747802734375 C 176.64501953125 94.90713500976562 176.6947479248047 95.451904296875 176.58203125 95.867431640625 C 176.6980895996094 95.89566040039062 176.7978515625 95.80303955078125 176.9331665039062 95.78666687011719 C 177.0518493652344 95.77223205566406 177.1816558837891 95.81614685058594 177.3244781494141 95.82708740234375 C 177.6911315917969 95.85525512695312 178.2808990478516 95.87968444824219 178.5256042480469 95.78666687011719 C 178.6324157714844 95.74594116210938 178.6918487548828 95.66191101074219 178.8089294433594 95.65167236328125 C 178.8625183105469 95.21435546875 178.8399505615234 94.64164733886719 178.79541015625 94.20750427246094 C 178.790771484375 94.16133880615234 178.7655487060547 94.10299682617188 178.7684936523438 94.05939483642578 C 178.7746276855469 93.96894073486328 178.8179931640625 93.95645141601562 178.8224945068359 93.8970947265625 C 178.2137908935547 93.86892700195312 177.5472869873047 93.95512390136719 176.9737243652344 93.8970947265625 C 176.8233032226562 93.88204956054688 176.6660461425781 93.81253051757812 176.5281829833984 93.85675811767578 C 176.651611328125 93.72525787353516 176.9551086425781 93.64704895019531 177.2704772949219 93.62750244140625 C 177.7498474121094 93.59762573242188 178.3173522949219 93.57133483886719 178.687744140625 93.58677673339844 C 178.8830871582031 93.59507751464844 179.0370025634766 93.73355102539062 178.8765716552734 93.88367462158203" fill="#ff4d16" stroke="none" stroke-width="0"/>
</svg>