<svg xmlns="http://www.w3.org/2000/svg" width="1" height="1" viewBox="167.3694152832031 256.1600036621094 1.0431213378907103 1" fill="none">
  <path d="M 167.9497833251953 256.7158508300781 C 167.8612213134766 256.6726379394531 167.7740936279297 256.5280456542969 167.7977752685547 256.7671813964844 C 167.6240539550781 256.7296447753906 167.7644958496094 256.6145935058594 167.7977752685547 256.5138854980469 C 167.5578002929688 256.5096740722656 167.6705780029297 256.8576965332031 167.5453796386719 256.9687805175781 C 167.5008087158203 256.9371948242188 167.4551391601562 256.9078674316406 167.4444122314453 256.9687805175781 C 167.3694152832031 256.9470520019531 167.4638824462891 256.9044799804688 167.4444122314453 256.8170776367188 C 167.4855804443359 256.8272399902344 167.4951782226562 256.8678283691406 167.5453796386719 256.8675537109375 C 167.5140686035156 256.8229675292969 167.4847412109375 256.7767333984375 167.5453796386719 256.7671813964844 C 167.5304260253906 256.6794738769531 167.3702392578125 256.8326110839844 167.3939361572266 256.6148681640625 C 167.6167297363281 256.7110290527344 167.6956634521484 256.2807006835938 167.8488006591797 256.5138854980469 C 167.9176330566406 256.4987182617188 167.89111328125 256.3878479003906 167.8995666503906 256.3114318847656 C 168.0095520019531 256.2792663574219 168.0600280761719 256.4546813964844 168.0510101318359 256.2612915039062 C 168.1739654541016 256.2933959960938 168.3110198974609 256.3627624511719 168.3036956787109 256.1600036621094 C 168.3789978027344 256.203125 168.4125366210938 256.2872009277344 168.4046478271484 256.4126586914062 C 168.1189727783203 256.2640686035156 167.8685455322266 256.6007690429688 167.9497833251953 256.7158508300781" fill="#2777df" stroke="none" stroke-width="0"/>
</svg>