<svg xmlns="http://www.w3.org/2000/svg" width="4" height="5" viewBox="47.16166305541992 100.1665191650391 3.9231452941894602 4.966285705566392" fill="none">
  <path d="M 47.3231315612793 100.6924743652344 C 47.71001052856445 101.2600021362305 48.04253387451172 101.8763122558594 48.36706924438477 102.4806137084961 C 48.69799041748047 103.0976943969727 49.08486938476562 103.6971893310547 49.49253082275391 104.2655258178711 C 49.59084701538086 104.4037933349609 49.68757629394531 104.5444869995117 49.78908538818359 104.6803741455078 C 49.99531555175781 104.9561614990234 50.33823013305664 105.1328048706055 50.67955017089844 104.9881286621094 C 50.91934585571289 104.8874130249023 51.07202529907227 104.6595993041992 51.07841110229492 104.396598815918 C 51.08480834960938 104.0936660766602 50.89856338500977 103.8842239379883 50.72271347045898 103.6628341674805 C 50.50449752807617 103.3870468139648 50.29426574707031 103.101676940918 50.05366897583008 102.845085144043 C 49.82265472412109 102.5980911254883 49.59164428710938 102.3519058227539 49.36143493652344 102.1049118041992 C 49.09445571899414 101.8203506469727 48.79550933837891 101.5685729980469 48.53572463989258 101.2783889770508 C 48.2679443359375 100.9794387817383 47.97538375854492 100.6924743652344 47.72039794921875 100.3863296508789 C 47.53815460205078 100.1665191650391 47.16166305541992 100.4550857543945 47.3231315612793 100.6924743652344" fill="#2473d8" stroke="none" stroke-width="0"/>
</svg>