<svg xmlns="http://www.w3.org/2000/svg" width="16" height="11" viewBox="1069.978149414062 700.5439453125 16.357055664062955 10.51812744140625" fill="none">
  <path d="M 1070.084716796875 700.6638793945312 C 1069.978149414062 700.8505859375 1070.511474609375 701.1838989257812 1072.950805664062 702.4769897460938 C 1074.1640625 703.11669921875 1075.630615234375 703.929931640625 1076.217041015625 704.2766723632812 C 1076.803588867188 704.6231689453125 1077.736694335938 705.1431884765625 1078.283203125 705.4097290039062 C 1079.736328125 706.1430053710938 1080.269653320312 706.5427856445312 1081.629272460938 707.942626953125 C 1082.7890625 709.1422729492188 1084.06884765625 710.1021118164062 1085.455322265625 710.7954711914062 C 1085.775146484375 710.9553833007812 1086.081665039062 711.0620727539062 1086.121704101562 711.0220336914062 C 1086.215209960938 710.9285888671875 1086.335205078125 711.0086669921875 1084.748657226562 710.075439453125 C 1083.708984375 709.4622802734375 1083.082275390625 708.9557495117188 1081.909057617188 707.78271484375 C 1080.202880859375 706.089599609375 1079.883056640625 705.849609375 1077.816772460938 704.7164306640625 C 1077.016845703125 704.2766723632812 1075.937133789062 703.6766967773438 1075.417114257812 703.3834228515625 C 1074.07080078125 702.6102905273438 1070.298095703125 700.5439453125 1070.231323242188 700.5439453125 C 1070.191284179688 700.5439453125 1070.138061523438 700.5972900390625 1070.084716796875 700.6638793945312" fill="#337ddc" stroke="none" stroke-width="0"/>
</svg>