<svg xmlns="http://www.w3.org/2000/svg" width="7" height="9" viewBox="98.76823425292969 209.0870056152344 7.299621582031207 9.251113891601506" fill="none">
  <path d="M 105.8348541259766 212.3233032226562 C 105.3426818847656 211.7929077148438 104.8505172729492 211.2626953125 104.358154296875 210.7324829101562 C 104.0469818115234 210.3972473144531 103.708869934082 209.9014282226562 103.3157043457031 209.5921936035156 C 103.3029022216797 209.3282165527344 102.9286575317383 209.0870056152344 102.6440582275391 209.3125610351562 C 101.4563446044922 210.2538909912109 100.346435546875 211.2797088623047 99.3106689453125 212.3852386474609 C 99.23479461669922 212.4198303222656 99.17401123046875 212.4792785644531 99.14610290527344 212.5654754638672 C 99.04060363769531 212.7122650146484 99.06200408935547 212.8798980712891 99.14839172363281 213.0037536621094 C 99.1944580078125 214.3059387207031 98.76823425292969 215.5712585449219 98.83493804931641 216.8793792724609 C 98.83914184570312 216.9619445800781 98.86570739746094 217.0296173095703 98.90470123291016 217.08447265625 C 98.86895751953125 217.2928161621094 98.98861694335938 217.5519714355469 99.26231384277344 217.5842895507812 C 101.0463714599609 217.7951049804688 102.833854675293 217.9642639160156 104.6259307861328 218.0917510986328 C 104.6461944580078 218.09326171875 104.6643524169922 218.0913696289062 104.6828918457031 218.0902099609375 C 104.8721160888672 218.3381195068359 105.3748016357422 218.2631988525391 105.3761291503906 217.8637237548828 C 105.3826293945312 216.1370239257812 106.0678558349609 214.5093078613281 105.8776702880859 212.7837524414062 C 105.9608154296875 212.6495666503906 105.9724731445312 212.471435546875 105.8348541259766 212.3233032226562 M 104.6698913574219 216.349365234375 C 104.7077331542969 216.322021484375 104.7457733154297 216.2947082519531 104.7836227416992 216.2673645019531 C 104.7761688232422 216.3097991943359 104.769287109375 216.3522338867188 104.7620239257812 216.3948516845703 C 104.7513198852539 216.4005889892578 104.7406158447266 216.4065246582031 104.7299118041992 216.4122467041016 C 104.7096481323242 216.3916015625 104.6897735595703 216.3703918457031 104.6698913574219 216.349365234375 M 104.1484832763672 212.619384765625 C 104.1232452392578 212.5605010986328 104.10546875 212.4964752197266 104.0921020507812 212.4301452636719 C 104.2381210327148 212.3083953857422 104.3864440917969 212.1895141601562 104.5347595214844 212.0706329345703 C 104.5452728271484 212.1660003662109 104.5513916015625 212.2617645263672 104.5555953979492 212.3575134277344 C 104.4112854003906 212.4712371826172 104.2717590332031 212.5905151367188 104.1377716064453 212.7164611816406 C 104.1559295654297 212.6899108886719 104.1641540527344 212.6558837890625 104.1484832763672 212.619384765625 M 104.0355224609375 211.7890930175781 C 104.0336151123047 211.7695922851562 104.0315093994141 211.7499084472656 104.0295944213867 211.7304077148438 C 104.0704956054688 211.6981201171875 104.1119689941406 211.6665649414062 104.1532592773438 211.6348419189453 C 104.2417526245117 211.7300262451172 104.3300552368164 211.8252105712891 104.4183654785156 211.9203948974609 C 104.2994766235352 212.0155792236328 104.1796340942383 212.1098022460938 104.0622787475586 212.2069091796875 C 104.050422668457 212.0637512207031 104.0481338500977 211.9186706542969 104.0355224609375 211.7890930175781 M 103.5876922607422 211.8420257568359 C 103.6742706298828 211.7527770996094 103.6526794433594 211.5102233886719 103.6276397705078 211.3236694335938 C 103.6740798950195 211.2883148193359 103.7224426269531 211.2556304931641 103.7698364257812 211.2216186523438 C 103.7772979736328 211.2298278808594 103.7849426269531 211.2378540039062 103.7923965454102 211.2460784912109 C 103.8011932373047 211.3804321289062 103.8137969970703 211.5148010253906 103.8279418945312 211.6489868164062 C 103.7476654052734 211.7128295898438 103.6668167114258 211.7764739990234 103.5876922607422 211.8420257568359 M 103.2539672851562 210.6634826660156 C 103.269645690918 210.6814575195312 103.2853164672852 210.6996154785156 103.3007965087891 210.7164459228516 C 103.3225860595703 210.73974609375 103.3443756103516 210.7632751464844 103.3659744262695 210.7867736816406 C 103.3663558959961 210.7894592285156 103.3669281005859 210.7923278808594 103.3671264648438 210.7951812744141 C 103.3053817749023 210.841064453125 103.2446060180664 210.8882751464844 103.1857299804688 210.9379577636719 C 103.1866912841797 210.8596038818359 103.1876525878906 210.7814331054688 103.1905059814453 210.7030639648438 C 103.2113494873047 210.6894836425781 103.2329406738281 210.6766815185547 103.2539672851562 210.6634826660156 M 103.1866912841797 211.1927490234375 C 103.2526245117188 211.1310119628906 103.3195266723633 211.0704193115234 103.3898620605469 211.0144195556641 C 103.3967437744141 211.0941162109375 103.4038238525391 211.1740112304688 103.4091644287109 211.2537231445312 C 103.3363494873047 211.3110656738281 103.264289855957 211.3695373535156 103.1933822631836 211.4297637939453 C 103.18994140625 211.3508148193359 103.1882171630859 211.2716827392578 103.1866912841797 211.1927490234375 M 103.5909423828125 211.0289459228516 C 103.6069946289062 211.0463256835938 103.6232452392578 211.063720703125 103.6392974853516 211.0811157226562 C 103.6262969970703 211.0904846191406 103.6131134033203 211.0996704101562 103.6001129150391 211.1092224121094 C 103.5974426269531 211.0824584960938 103.5938110351562 211.0556945800781 103.5909423828125 211.0289459228516 M 104.0034027099609 211.4733276367188 C 104.0101013183594 211.4804077148438 104.0167846679688 211.4876708984375 104.0232849121094 211.4947357177734 C 104.0179290771484 211.4989318847656 104.0123901367188 211.5029602050781 104.0068511962891 211.5071716308594 L 104.0034027099609 211.4733276367188 M 104.841911315918 212.3766326904297 C 104.8852996826172 212.4232788085938 104.9286880493164 212.4699096679688 104.9720764160156 212.5167388916016 C 104.9214248657227 212.5580139160156 104.8707733154297 212.59912109375 104.8201293945312 212.6404113769531 C 104.8231811523438 212.6157379150391 104.81591796875 212.5899353027344 104.7914581298828 212.5675659179688 C 104.7625961303711 212.5413818359375 104.752082824707 212.4970397949219 104.7471160888672 212.4498291015625 C 104.7788391113281 212.4255676269531 104.8096160888672 212.400146484375 104.841911315918 212.3766326904297 M 104.702766418457 212.7252807617188 C 104.7065887451172 212.7260284423828 104.7106094360352 212.7262268066406 104.7144317626953 212.7265930175781 C 104.7121353149414 212.7283325195312 104.7100372314453 212.7302398681641 104.7077331542969 212.7319641113281 C 104.7060165405273 212.7296447753906 104.7042999267578 212.7275543212891 104.702766418457 212.7252807617188 M 105.1003265380859 212.6574096679688 C 105.1012802124023 212.6744079589844 105.1009063720703 212.6910552978516 105.1037673950195 212.7088317871094 C 105.131103515625 212.8726196289062 105.1461944580078 213.0358581542969 105.1559524536133 213.1990814208984 C 105.1374053955078 213.2113342285156 105.1186828613281 213.2237548828125 105.1001358032227 213.2361755371094 C 105.00341796875 213.1224365234375 104.9103393554688 213.0052795410156 104.8205108642578 212.8854370117188 C 104.9137878417969 212.8093566894531 105.0070495605469 212.7332916259766 105.1003265380859 212.6574096679688 M 105.1656951904297 213.5966491699219 C 105.1637878417969 213.7489776611328 105.1567153930664 213.9009399414062 105.144287109375 214.0528869628906 C 105.0966949462891 214.0853881835938 105.0498657226562 214.1192016601562 105.0028457641602 214.1524658203125 C 104.8852996826172 214.0244140625 104.7748260498047 213.8896484375 104.6624450683594 213.7568054199219 C 104.7969970703125 213.6673583984375 104.9313659667969 213.5779113769531 105.0657348632812 213.48828125 C 105.0984191894531 213.5251617431641 105.1324462890625 213.5605163574219 105.1656951904297 213.5966491699219 M 105.0928726196289 214.518310546875 C 105.0787353515625 214.6226501464844 105.0634460449219 214.7270202636719 105.0466156005859 214.8313751220703 C 105.0041885375977 214.8545074462891 104.9608001708984 214.8762817382812 104.9183654785156 214.8992309570312 C 104.8352203369141 214.8124542236328 104.7553329467773 214.7228088378906 104.6771545410156 214.6312561035156 C 104.7767333984375 214.553466796875 104.8768920898438 214.4762573242188 104.9791488647461 214.4018859863281 C 105.0162353515625 214.4412689208984 105.0552215576172 214.4793090820312 105.0928726196289 214.518310546875 M 104.9778137207031 215.2316131591797 C 104.9608001708984 215.3246917724609 104.9434051513672 215.4177703857422 104.9256286621094 215.5108642578125 C 104.8776550292969 215.5412445068359 104.8296813964844 215.5718383789062 104.782470703125 215.6035614013672 C 104.6964569091797 215.5110473632812 104.6119766235352 215.4172058105469 104.529411315918 215.3216247558594 C 104.6475296020508 215.2600860595703 104.7650756835938 215.1972045898438 104.8826217651367 215.1343231201172 C 104.91455078125 215.1666259765625 104.9451293945312 215.2000732421875 104.9778137207031 215.2316131591797 M 102.7998352050781 210.1703796386719 C 102.8772430419922 210.2328643798828 102.9491119384766 210.3072204589844 103.0175323486328 210.3852081298828 C 103.012565612793 210.4557189941406 103.0064544677734 210.5264587402344 103.0030059814453 210.5969848632812 C 102.9087829589844 210.6615905761719 102.816650390625 210.7298278808594 102.7268218994141 210.8016815185547 C 102.6308746337891 210.8785247802734 102.7669525146484 211.0128784179688 102.8621368408203 210.9368133544922 C 102.9057235717773 210.9020385742188 102.9517822265625 210.8708801269531 102.9967041015625 210.8380126953125 C 102.9947891235352 210.9285888671875 102.9924926757812 211.0191955566406 102.9932632446289 211.109619140625 C 102.9902038574219 211.1126708984375 102.9867630004883 211.1151428222656 102.9837036132812 211.1182098388672 C 102.9353485107422 211.1659851074219 102.9556121826172 211.2273406982422 102.9974670410156 211.25927734375 C 103.0032043457031 211.4888153076172 103.0152435302734 211.7183685302734 103.0383682250977 211.9483032226562 C 103.0505981445312 212.0694885253906 103.2419281005859 212.0706329345703 103.2295074462891 211.9483032226562 C 103.2191772460938 211.8456726074219 103.2128753662109 211.7432250976562 103.2058029174805 211.6405639648438 C 103.2254867553711 211.6394348144531 103.2453689575195 211.6338806152344 103.2637176513672 211.6180114746094 C 103.3158950805664 211.5725402832031 103.3709411621094 211.5306701660156 103.4244613647461 211.4869079589844 C 103.4315338134766 211.599853515625 103.4387969970703 211.7133941650391 103.4479675292969 211.8274993896484 C 103.4508361816406 211.8636322021484 103.4579086303711 211.9043579101562 103.4697570800781 211.9420013427734 C 103.2534027099609 212.1241455078125 103.0404663085938 212.3108825683594 102.8332824707031 212.5043182373047 C 102.7432556152344 212.5884094238281 102.8785858154297 212.7233581542969 102.9684143066406 212.6394500732422 C 103.1929931640625 212.4297790527344 103.4233169555664 212.2271728515625 103.6587829589844 212.0306701660156 C 103.6616592407227 212.0289611816406 103.6639556884766 212.0287780761719 103.6670150756836 212.0266723632812 C 103.6784820556641 212.0194091796875 103.6865081787109 212.0104217529297 103.6933898925781 212.0010528564453 C 103.7453765869141 211.9578552246094 103.7988891601562 211.9163818359375 103.8516540527344 211.8737640380859 C 103.8571929931641 211.9268951416016 103.8631134033203 211.9800262451172 103.8682708740234 212.0331726074219 C 103.8784027099609 212.1377105712891 103.8847122192383 212.2426452636719 103.8963775634766 212.346435546875 C 103.7186126708984 212.4955139160156 103.5412445068359 212.6451721191406 103.3669281005859 212.7982788085938 C 103.2742309570312 212.8795166015625 103.4099273681641 213.0142517089844 103.5020599365234 212.9334106445312 C 103.6444549560547 212.8084106445312 103.7895278930664 212.6870422363281 103.9342193603516 212.5647125244141 C 103.9472122192383 212.6157379150391 103.9623107910156 212.6663970947266 103.983528137207 212.7158966064453 C 104.006462097168 212.7696075439453 104.0555877685547 212.7747650146484 104.0959167480469 212.7543182373047 C 104.0798645019531 212.7698059082031 104.0622787475586 212.7835693359375 104.0462188720703 212.7992248535156 C 103.9581146240234 212.8852386474609 104.0932388305664 213.0203704833984 104.1813507080078 212.9343566894531 C 104.3094177246094 212.8091735839844 104.4434051513672 212.6914367675781 104.5812072753906 212.5780944824219 C 104.5865631103516 212.5953063964844 104.5907592773438 212.6126861572266 104.5991744995117 212.6287384033203 C 104.5257797241211 212.6157379150391 104.4432067871094 212.6889343261719 104.4965362548828 212.7657775878906 C 104.5169830322266 212.79541015625 104.5393524169922 212.8231201171875 104.5601806640625 212.8523712158203 C 104.5341873168945 212.8735961914062 104.5081939697266 212.8946228027344 104.4821929931641 212.9158325195312 C 104.3868255615234 212.9936218261719 104.5227203369141 213.128173828125 104.6173324584961 213.0509643554688 C 104.6356811523438 213.0358581542969 104.6542205810547 213.0209503173828 104.6727600097656 213.005859375 C 104.7589569091797 213.1205291748047 104.8482208251953 213.2327270507812 104.9407348632812 213.3424377441406 C 104.8063659667969 213.431884765625 104.6718063354492 213.5213317871094 104.5374374389648 213.6107940673828 C 104.5024566650391 213.5681610107422 104.4642333984375 213.5280303955078 104.4296417236328 213.4848327636719 C 104.3527984619141 213.3888854980469 104.2184295654297 213.5249786376953 104.2945098876953 213.6199645996094 C 104.3212661743164 213.6534118652344 104.350700378418 213.6841888427734 104.3776473999023 213.7172546386719 L 104.2922134399414 213.7740173339844 C 104.1903381347656 213.8418884277344 104.2859039306641 214.0075988769531 104.3887329101562 213.9391479492188 C 104.4267730712891 213.9139404296875 104.4648132324219 213.8885192871094 104.5026550292969 213.86328125 C 104.6157989501953 213.9976501464844 104.7270431518555 214.1339111328125 104.8453598022461 214.2635192871094 C 104.7463531494141 214.3359680175781 104.6496353149414 214.4112548828125 104.5532989501953 214.4869537353516 C 104.4648132324219 214.3772277832031 104.3797454833984 214.2644653320312 104.2983245849609 214.1484375 C 104.2281799316406 214.0484924316406 104.0624694824219 214.1438598632812 104.1333770751953 214.2449645996094 C 104.2199630737305 214.3684539794922 104.3103637695312 214.4884796142578 104.4042205810547 214.6052551269531 C 104.3512725830078 214.6482696533203 104.2962265014648 214.6885986328125 104.2440490722656 214.7325744628906 C 104.1498107910156 214.8120727539062 104.2855224609375 214.9466247558594 104.3791809082031 214.8678894042969 C 104.427734375 214.8269805908203 104.4789505004883 214.7895202636719 104.528076171875 214.7495727539062 C 104.5982208251953 214.8319549560547 104.6691284179688 214.9133758544922 104.7431030273438 214.9921264648438 C 104.629753112793 215.0525207519531 104.5167922973633 215.1133117675781 104.4030685424805 215.17236328125 C 104.2654571533203 215.0068359375 104.1308898925781 214.8384399414062 104.0034027099609 214.6637420654297 C 103.9317321777344 214.5655059814453 103.7656402587891 214.6606903076172 103.8384552001953 214.7602691650391 C 103.9642181396484 214.9324798583984 104.0962982177734 215.0993347167969 104.2314300537109 215.2633361816406 C 104.1903381347656 215.2843627929688 104.150390625 215.3072967529297 104.1092987060547 215.328125 C 103.9995880126953 215.3837585449219 104.0962982177734 215.5487060546875 104.2058181762695 215.4930725097656 C 104.2568511962891 215.46728515625 104.3065490722656 215.4387969970703 104.3573913574219 215.4126129150391 C 104.4449310302734 215.5150604248047 104.5341873168945 215.6156005859375 104.6253662109375 215.7144165039062 C 104.5901947021484 215.7400207519531 104.5534896850586 215.7633514404297 104.5187072753906 215.7897338867188 C 104.4219970703125 215.8631134033203 104.5169830322266 216.0292205810547 104.6150360107422 215.9548645019531 C 104.6611022949219 215.9198913574219 104.7092666625977 215.8887329101562 104.7562866210938 215.8552856445312 C 104.7853393554688 215.8856811523438 104.8134307861328 215.9168243408203 104.8426818847656 215.9468383789062 L 104.8335037231445 215.9971008300781 C 104.7360229492188 216.0672607421875 104.6387329101562 216.13720703125 104.541259765625 216.2073516845703 C 104.5068511962891 216.1673889160156 104.4718780517578 216.1280212402344 104.4388122558594 216.0867462158203 C 104.3617858886719 215.9907989501953 104.2274169921875 216.1268920898438 104.3036804199219 216.2218780517578 C 104.3835754394531 216.3216552734375 104.4690093994141 216.4153137207031 104.55712890625 216.5062866210938 C 104.5183258056641 216.5274963378906 104.4795227050781 216.5487213134766 104.4407272338867 216.5697479248047 C 104.3327331542969 216.6286010742188 104.4290618896484 216.7937622070312 104.5372467041016 216.7348937988281 C 104.5911483764648 216.7054443359375 104.6450500488281 216.6762084960938 104.6987533569336 216.6467742919922 C 104.7050628662109 216.6526947021484 104.7117462158203 216.6584320068359 104.7180633544922 216.6643524169922 C 104.6840362548828 216.885498046875 104.6565093994141 217.1072082519531 104.6377868652344 217.3293151855469 C 104.6335754394531 217.3289184570312 104.6301422119141 217.3275909423828 104.6259307861328 217.3272094726562 C 102.9466247558594 217.2077484130859 101.2713317871094 217.0502624511719 99.59890747070312 216.8575897216797 C 99.53582763671875 215.5123901367188 99.98748016357422 214.2134399414062 99.90548706054688 212.869384765625 C 100.8120346069336 211.9070129394531 101.7774505615234 211.0079193115234 102.7998352050781 210.1703796386719" fill="#231f20" stroke="#ffffff" stroke-width="1"/>
</svg>