<svg xmlns="http://www.w3.org/2000/svg" width="1" height="1" viewBox="148.2209930419922 75.07353210449219 1 1" fill="none">
  <path d="M 148.8275909423828 75.11526489257812 C 148.8095397949219 75.18181610107422 148.7390594482422 75.19479370117188 148.7268981933594 75.26670074462891 C 148.6211700439453 75.23877716064453 148.8013763427734 75.11497497558594 148.6253967285156 75.21649932861328 C 148.5991668701172 75.53150177001953 148.7793884277344 75.32310485839844 148.8275909423828 75.62090301513672 C 148.7018280029297 75.42040252685547 148.5966491699219 75.61216735839844 148.5746307373047 75.46889495849609 C 148.4209442138672 75.53094482421875 148.6485290527344 75.66179656982422 148.5247192382812 75.72185516357422 C 148.4325103759766 75.81801605224609 148.5464324951172 75.60906219482422 148.4739532470703 75.51993560791016 C 148.4076843261719 75.58425140380859 148.2875671386719 75.58425140380859 148.2209930419922 75.51993560791016 C 148.3007965087891 75.48130035400391 148.2965698242188 75.35919952392578 148.4232177734375 75.36849975585938 C 148.3963928222656 75.40882873535156 148.3704681396484 75.45000457763672 148.3724365234375 75.51993560791016 C 148.4841003417969 75.44549560546875 148.6095886230469 75.38542175292969 148.5746307373047 75.16602325439453 C 148.6967468261719 75.18660736083984 148.6849060058594 75.07353210449219 148.8275909423828 75.11526489257812" fill="#2777df" stroke="none" stroke-width="0"/>
</svg>