<svg xmlns="http://www.w3.org/2000/svg" width="8" height="3" viewBox="36.8829231262207 7.420220851898193 8.4210205078125 3.047073841094967" fill="none">
  <path d="M 37.83413314819336 9.906160354614258 C 37.69744491577148 9.882980346679688 37.53277969360352 9.87498664855957 37.41527938842773 9.793455123901367 C 37.34094619750977 9.970108032226562 37.26580047607422 10.14676094055176 37.19147109985352 10.3226146697998 C 37.7725830078125 10.42413139343262 38.39607238769531 10.26666259765625 38.96998977661133 10.16354942321777 C 39.56629943847656 10.05563735961914 40.16580200195312 9.966110229492188 40.75891494750977 9.840614318847656 C 41.93153381347656 9.593620300292969 43.1137580871582 9.401779174804688 44.30477142333984 9.272285461425781 L 44.06496429443359 7.502552509307861 C 43.67808532714844 7.592079639434814 43.29840469360352 7.717574596405029 42.92031860351562 7.838274478912354 C 42.50625991821289 7.970964908599854 42.02985000610352 8.078874588012695 41.65336990356445 8.29869270324707 C 41.31364822387695 8.496929168701172 40.94675445556641 8.634414672851562 40.58545303344727 8.793483734130859 C 40.17859268188477 8.9725341796875 39.84127044677734 9.144392013549805 39.49755477905273 9.43055534362793 C 39.11946868896484 9.746292114257812 39.42002487182617 10.46729469299316 39.91001129150391 10.42652893066406 C 40.33126449584961 10.39135932922363 40.69016265869141 10.28824424743652 41.09143447875977 10.16274833679199 C 41.43594741821289 10.05483627319336 41.78686141967773 9.921346664428711 42.14496231079102 9.876585006713867 C 42.54782485961914 9.825428009033203 42.93710327148438 9.673551559448242 43.32797622680664 9.564842224121094 C 43.73164367675781 9.452136993408203 44.14170074462891 9.359415054321289 44.54457473754883 9.240310668945312 C 45.01058578491211 9.102027893066406 45.3039436340332 8.60723876953125 45.17365264892578 8.132429122924805 C 45.03377151489258 7.62405252456665 44.54616546630859 7.420220851898193 44.06496429443359 7.502552509307861 C 42.83319473266602 7.713578701019287 41.61260223388672 7.982155323028564 40.40719604492188 8.312282562255859 C 39.79970932006836 8.479343414306641 39.21619033813477 8.705556869506836 38.63506698608398 8.94775390625 C 38.09711074829102 9.17156982421875 37.46564102172852 9.400178909301758 37.06437301635742 9.839017868041992 C 36.8829231262207 10.03645324707031 37.05638122558594 10.42652893066406 37.34574508666992 10.3226146697998 C 37.48082733154297 10.27465629577637 37.63989639282227 10.30742645263672 37.7781867980957 10.32021713256836 C 38.01239013671875 10.34179878234863 38.06914138793945 9.945327758789062 37.83413314819336 9.906160354614258" fill="#2473d8" stroke="none" stroke-width="0"/>
</svg>