<svg xmlns="http://www.w3.org/2000/svg" width="10" height="7" viewBox="65.00115966796875 185.0963592529297 9.913192749023438 7.102752685546903" fill="none">
  <path d="M 74.54527282714844 188.8510131835938 C 73.53761291503906 187.6724700927734 72.52975463867188 186.4937438964844 71.52190399169922 185.3152160644531 C 71.33477783203125 185.0963592529297 71.07407379150391 185.1915435791016 70.9525146484375 185.3821105957031 C 69.27224731445312 185.4067687988281 67.45761871337891 185.2657165527344 65.8134765625 185.6366882324219 C 65.59844970703125 185.5722808837891 65.30296325683594 185.6881103515625 65.27199554443359 185.9836120605469 C 65.08506774902344 187.7674560546875 65.57704162597656 189.5538024902344 65.26664733886719 191.3288726806641 C 65.26262664794922 191.3512420654297 65.26225280761719 191.3724670410156 65.26167297363281 191.3934783935547 C 65.00115966796875 191.5633850097656 65.07302856445312 192.0836486816406 65.476318359375 192.1048889160156 C 67.26399993896484 192.1991119384766 69.04518127441406 192.1547546386719 70.82426452636719 191.9752960205078 C 70.92958068847656 192.1043090820312 71.10542297363281 192.1660461425781 71.28738403320312 192.0477294921875 C 72.48311614990234 191.2713317871094 73.61329650878906 190.4075927734375 74.67733764648438 189.4588165283203 C 74.91435241699219 189.2474212646484 74.77329254150391 188.9498291015625 74.54527282714844 188.8510131835938 M 71.16658020019531 186.1432037353516 C 71.18608093261719 186.1426239013672 71.20347595214844 186.1391906738281 71.22124481201172 186.1365051269531 C 72.08995819091797 187.1521911621094 72.95846557617188 188.1680908203125 73.82698822021484 189.1837768554688 C 73.49383544921875 189.4720001220703 73.15438079833984 189.7520141601562 72.80804443359375 190.0226593017578 C 72.78932189941406 190.0102386474609 72.77077484130859 189.997802734375 72.75204467773438 189.9851989746094 C 72.80231475830078 189.7755279541016 72.85736083984375 189.5669860839844 72.91909790039062 189.3598022460938 C 72.95426940917969 189.2416839599609 72.76982116699219 189.1912231445312 72.73464965820312 189.3089599609375 C 72.67922210693359 189.4955139160156 72.62876892089844 189.6831970214844 72.58250427246094 189.8716735839844 C 72.51026153564453 189.8235015869141 72.43820190429688 189.775146484375 72.36595153808594 189.7269744873047 C 72.37034606933594 189.69677734375 72.37474822998047 189.6661987304688 72.37895202636719 189.6363830566406 C 72.39558410644531 189.5159606933594 72.21151733398438 189.4639892578125 72.19469451904297 189.5855407714844 L 72.19125366210938 189.6100006103516 C 72.13583374023438 189.5729217529297 72.08058929443359 189.5358428955078 72.02535247802734 189.4989471435547 C 71.92271423339844 189.4303283691406 71.82695770263672 189.5958557128906 71.9288330078125 189.6639099121094 C 72.00604248046875 189.7156982421875 72.08345031738281 189.7673034667969 72.16067504882812 189.819091796875 C 72.14270782470703 189.9364624023438 72.1220703125 190.0551452636719 72.09645080566406 190.1732788085938 C 71.93914794921875 190.0507507324219 71.79140472412109 189.9163818359375 71.65512084960938 189.7675018310547 C 71.57179260253906 189.6767120361328 71.43704223632812 189.8120422363281 71.51998901367188 189.9026184082031 C 71.57522583007812 189.9630279541016 71.63333129882812 190.0203704833984 71.6920166015625 190.0765686035156 C 71.65570068359375 190.0779113769531 71.62091064453125 190.0981597900391 71.60887145996094 190.1438446044922 C 71.59320068359375 190.2026977539062 71.58039093017578 190.2613830566406 71.56834411621094 190.3202514648438 C 71.45997619628906 190.2415161132812 71.35160827636719 190.1627807617188 71.2430419921875 190.0841979980469 C 71.14346313476562 190.0117797851562 71.04788970947266 190.177490234375 71.14670562744141 190.2491607666016 C 71.27457427978516 190.342041015625 71.40263366699219 190.4349365234375 71.53069305419922 190.52783203125 C 71.520751953125 190.5880432128906 71.51081848144531 190.6480407714844 71.50087738037109 190.7080688476562 C 71.43437194824219 190.6711730957031 71.36842346191406 190.6333312988281 71.30343627929688 190.5939636230469 C 71.30668640136719 190.5859375 71.30897521972656 190.5775299072266 71.31222534179688 190.5696868896484 C 71.35427856445312 190.4659118652344 71.20614624023438 190.4169616699219 71.14460754394531 190.4936218261719 C 70.99073791503906 190.3921203613281 70.84222412109375 190.2831726074219 70.69944763183594 190.1648559570312 C 70.60540771484375 190.0870666503906 70.46951293945312 190.221435546875 70.56431579589844 190.2999877929688 C 70.72697448730469 190.4347534179688 70.89689636230469 190.55859375 71.07273864746094 190.6732788085938 C 71.01864624023438 190.8435821533203 70.98194885253906 191.0188598632812 70.9393310546875 191.1924133300781 C 70.77705383300781 191.0803985595703 70.61745452880859 190.9647521972656 70.45957946777344 190.8472290039062 C 70.50889587402344 190.72412109375 70.55877685546875 190.6014099121094 70.60293579101562 190.4762268066406 C 70.64364624023438 190.3598327636719 70.45919799804688 190.3099365234375 70.41848754882812 190.4253845214844 C 70.38235473632812 190.5281982421875 70.34088134765625 190.6285552978516 70.30093383789062 190.7296600341797 C 70.26806640625 190.7046203613281 70.23690795898438 190.677490234375 70.2042236328125 190.6520690917969 C 70.22390747070312 190.6000823974609 70.24493408203125 190.5484771728516 70.26423645019531 190.4963073730469 C 70.30705261230469 190.3806610107422 70.12242126464844 190.3309631347656 70.07998657226562 190.4454498291016 C 70.06985473632812 190.4727783203125 70.05876922607422 190.4997253417969 70.04844665527344 190.5270690917969 C 69.92803192138672 190.4311218261719 69.80570983886719 190.3374633789062 69.68797302246094 190.2378845214844 C 69.59469604492188 190.1587524414062 69.45880126953125 190.2933044433594 69.55284118652344 190.3730163574219 C 69.69140625 190.4901733398438 69.83475494384766 190.6010284423828 69.97677612304688 190.7134246826172 C 69.92019653320312 190.8604125976562 69.86190795898438 191.0068054199219 69.8018798828125 191.1524658203125 C 69.73766326904297 191.1046752929688 69.67401123046875 191.0561218261719 69.61036682128906 191.0077667236328 C 69.64993286132812 190.9041748046875 69.69216918945312 190.8017272949219 69.72792053222656 190.6965942382812 C 69.76766967773438 190.5798187255859 69.58303833007812 190.5297546386719 69.54347229003906 190.6457672119141 C 69.51576232910156 190.7275695800781 69.48249816894531 190.8072662353516 69.45210266113281 190.8881225585938 C 69.40605163574219 190.8525695800781 69.3599853515625 190.8170166015625 69.31410980224609 190.7810821533203 C 69.30455017089844 190.7516479492188 69.27760314941406 190.7321472167969 69.24510955810547 190.7260437011719 C 69.14247131347656 190.6453857421875 69.04020690917969 190.5643310546875 68.938720703125 190.4819641113281 C 69.00466156005859 190.3642272949219 69.07423400878906 190.2485656738281 69.1376953125 190.1293029785156 C 69.17094421386719 190.0671997070312 69.13023376464844 189.9840393066406 69.05531311035156 189.985595703125 C 68.93795776367188 189.9878845214844 68.87162780761719 190.0134887695312 68.7947998046875 190.1069488525391 C 68.744140625 190.1686859130859 68.78446960449219 190.2470550537109 68.84009552001953 190.2680816650391 C 68.813720703125 190.315673828125 68.78638458251953 190.3628845214844 68.75981903076172 190.4102783203125 C 68.71853637695312 190.4290161132812 68.69139099121094 190.4718322753906 68.70171356201172 190.5133056640625 C 68.63920593261719 190.6231994628906 68.57977294921875 190.7348327636719 68.51554870605469 190.8433837890625 C 68.43928527832031 190.7824249267578 68.36474609375 190.7191467285156 68.2921142578125 190.6534118652344 C 68.33531188964844 190.5889892578125 68.3779296875 190.5243835449219 68.42247009277344 190.4609375 C 68.49318695068359 190.3600158691406 68.32766723632812 190.2642517089844 68.25751495361328 190.3644104003906 C 68.22062683105469 190.4169616699219 68.18659973144531 190.4712524414062 68.15067291259766 190.5243835449219 L 68.148193359375 190.5219116210938 C 68.06027221679688 190.4356994628906 67.92494201660156 190.5708312988281 68.0130615234375 190.6570434570312 C 68.02280426025391 190.6667785644531 68.03350830078125 190.6753845214844 68.04344177246094 190.6849365234375 C 67.99298095703125 190.7627410888672 67.94386291503906 190.8414764404297 67.8955078125 190.9206237792969 C 67.83224487304688 190.8735961914062 67.7705078125 190.8246612548828 67.70780944824219 190.7766723632812 L 67.86378479003906 190.4859619140625 C 67.90927124023438 190.4014892578125 67.81809997558594 190.3087921142578 67.73304748535156 190.355224609375 C 67.71259307861328 190.3665161132812 67.692138671875 190.3775939941406 67.67169189453125 190.3888854980469 C 67.62123107910156 190.4164123535156 67.616455078125 190.4668579101562 67.63575744628906 190.5071868896484 C 67.60881042480469 190.5572509765625 67.58204650878906 190.6071472167969 67.55509948730469 190.6572265625 C 67.45417785644531 190.5780944824219 67.35153961181641 190.5010681152344 67.25215148925781 190.4198455810547 C 67.15773010253906 190.3424377441406 67.02163696289062 190.4769897460938 67.11701965332031 190.5549621582031 C 67.23074340820312 190.6480407714844 67.34809875488281 190.7367553710938 67.464111328125 190.8269500732422 C 67.42951965332031 190.8911743164062 67.39511108398438 190.9553833007812 67.3607177734375 191.0196228027344 C 67.30413818359375 190.9762268066406 67.24813842773438 190.931884765625 67.19136810302734 190.8888854980469 C 67.19691467285156 190.8795166015625 67.20149230957031 190.8699645996094 67.20704650878906 190.860595703125 C 67.27088165283203 190.7550964355469 67.10574340820312 190.6589508056641 67.04209136962891 190.7640686035156 C 67.03998565673828 190.7675170898438 67.03845977783203 190.7711486816406 67.03636169433594 190.7745819091797 C 67.02718353271484 190.7677001953125 67.01800537109375 190.7611999511719 67.00902557373047 190.7543334960938 C 67.03482818603516 190.7097778320312 67.05948638916016 190.6644897460938 67.08567047119141 190.6201477050781 C 67.14797973632812 190.5138854980469 66.98284149169922 190.4175415039062 66.9205322265625 190.5236206054688 C 66.89797973632812 190.5622253417969 66.87657165527344 190.6014099121094 66.85401916503906 190.6400146484375 C 66.76226806640625 190.57275390625 66.67186737060547 190.5035552978516 66.57916259765625 190.4374237060547 C 66.47900390625 190.3657531738281 66.38343811035156 190.5314636230469 66.48283386230469 190.6023712158203 C 66.57591247558594 190.6690673828125 66.66689300537109 190.7384643554688 66.75921630859375 190.8061218261719 C 66.65217590332031 190.9947814941406 66.5472412109375 191.1845703125 66.44575500488281 191.3762817382812 C 66.30679321289062 191.3728332519531 66.1678466796875 191.3688354492188 66.02888488769531 191.3636627197266 C 66.27678680419922 189.701171875 65.91057586669922 188.0430908203125 66.00576782226562 186.3767700195312 C 67.63957214355469 186.0111236572266 69.51307678222656 186.1827697753906 71.16658020019531 186.1432037353516 M 72.36518859863281 190.3619232177734 C 72.33116149902344 190.34033203125 72.29637908935547 190.3193054199219 72.26332092285156 190.2965698242188 C 72.29160308837891 190.1767120361328 72.31434631347656 190.0555419921875 72.334228515625 189.9351196289062 C 72.40208435058594 189.9806213378906 72.47012329101562 190.0260925292969 72.53797912597656 190.0715942382812 C 72.52325439453125 190.1363830566406 72.50949859619141 190.201171875 72.49592590332031 190.2661743164062 C 72.45291900634766 190.2988433837891 72.40838623046875 190.3296203613281 72.36518859863281 190.3619232177734 M 69.95077514648438 191.2885437011719 C 70.01289367675781 191.1390686035156 70.073486328125 190.9890441894531 70.13235473632812 190.8382263183594 C 70.1650390625 190.8634643554688 70.19638061523438 190.8905944824219 70.22926330566406 190.9156494140625 C 70.17784118652344 191.0383453369141 70.12088775634766 191.1587677001953 70.06373596191406 191.2791748046875 C 70.02608489990234 191.2822265625 69.98843383789062 191.2856750488281 69.95077514648438 191.2885437011719 M 68.49758148193359 191.3680572509766 C 68.49069976806641 191.3533325195312 68.48114013671875 191.3395843505859 68.46489715576172 191.3284912109375 C 68.45896911621094 191.324462890625 68.45343017578125 191.3200988769531 68.447509765625 191.3158874511719 C 68.48687744140625 191.2524108886719 68.52796936035156 191.1899108886719 68.5667724609375 191.1260681152344 C 68.66902923583984 191.2008056640625 68.7745361328125 191.2711486816406 68.88233184814453 191.3380432128906 C 68.88004302978516 191.343017578125 68.87755584716797 191.3478088378906 68.87507629394531 191.3527679443359 C 68.74930572509766 191.3583068847656 68.62353515625 191.3638610839844 68.49758148193359 191.3680572509766 M 67.84428405761719 191.383544921875 C 67.87925720214844 191.3202819824219 67.91595458984375 191.2577667236328 67.9522705078125 191.1950836181641 C 68.03140258789062 191.2526092529297 68.11053466796875 191.3097534179688 68.19061279296875 191.365966796875 C 68.18813323974609 191.3695831298828 68.18603515625 191.3732147216797 68.18354797363281 191.3768463134766 C 68.07058715820312 191.3797149658203 67.95742797851562 191.3818206787109 67.84428405761719 191.383544921875 M 66.660400390625 191.380859375 C 66.74315643310547 191.2264251708984 66.82763671875 191.0729370117188 66.91403198242188 190.9204254150391 C 66.92396545410156 190.9276733398438 66.93391418457031 190.9347534179688 66.94366455078125 190.9421997070312 C 66.86280822753906 191.0861358642578 66.78749847412109 191.2327270507812 66.71754455566406 191.3822021484375 C 66.69843292236328 191.3818206787109 66.6793212890625 191.3812408447266 66.660400390625 191.380859375 M 67.09809875488281 191.0561218261719 C 67.15562438964844 191.0997009277344 67.21200561523438 191.1452026367188 67.2691650390625 191.1893463134766 C 67.23380279541016 191.254150390625 67.19346618652344 191.3197021484375 67.15562438964844 191.3869934082031 C 67.07859802246094 191.3865966796875 67.00176239013672 191.3875427246094 66.92473602294922 191.3865966796875 C 66.97901916503906 191.2747802734375 67.03731536865234 191.1646881103516 67.09809875488281 191.0561218261719 M 67.41326904296875 191.302490234375 C 67.44921112060547 191.3307800292969 67.48513793945312 191.35888671875 67.52107238769531 191.3873596191406 C 67.46870422363281 191.3875427246094 67.41633605957031 191.3869934082031 67.36396789550781 191.3871765136719 C 67.38021087646484 191.3583068847656 67.39645385742188 191.3302154541016 67.41326904296875 191.302490234375 M 67.61663818359375 190.9466094970703 C 67.67684936523438 190.99267578125 67.73667907714844 191.0389404296875 67.79764556884766 191.084228515625 C 67.76936340332031 191.1322021484375 67.73916625976562 191.1790313720703 67.71182250976562 191.2275695800781 C 67.70379638671875 191.2417297363281 67.69386291503906 191.257568359375 67.68353271484375 191.2736358642578 C 67.62657928466797 191.2283325195312 67.56924438476562 191.1834106445312 67.51190185546875 191.1385040283203 C 67.52203369140625 191.1211090087891 67.53254699707031 191.1033325195312 67.54095458984375 191.0876617431641 L 67.61663818359375 190.9466094970703 M 68.04937744140625 191.0308990478516 C 68.09371948242188 190.9580688476562 68.13900756835938 190.8860168457031 68.18527221679688 190.8145294189453 C 68.26000213623047 190.8814392089844 68.33683776855469 190.9456481933594 68.41539001464844 191.0077667236328 C 68.37525939941406 191.0740966796875 68.33263397216797 191.1387023925781 68.29192352294922 191.2044372558594 C 68.21049499511719 191.1472930908203 68.12983703613281 191.0893859863281 68.04937744140625 191.0308990478516 M 68.84429931640625 190.6495819091797 C 68.92877960205078 190.7178192138672 69.01383972167969 190.7852783203125 69.09908294677734 190.8525695800781 C 69.05550384521484 190.9573059082031 69.00981903076172 191.0608978271484 68.96299743652344 191.1641235351562 C 68.86187744140625 191.1006622314453 68.7630615234375 191.0339660644531 68.6671142578125 190.9634246826172 C 68.72846984863281 190.8602142333984 68.78466796875 190.7539367675781 68.84429931640625 190.6495819091797 M 69.38234710693359 191.0733337402344 C 69.34717559814453 191.1606750488281 69.30952453613281 191.2468872070312 69.27168273925781 191.3330688476562 L 69.25103759765625 191.334228515625 C 69.2481689453125 191.3323059082031 69.24664306640625 191.329833984375 69.24339294433594 191.3279113769531 C 69.20420837402344 191.3067016601562 69.16693115234375 191.2828063964844 69.12813568115234 191.2606353759766 C 69.171142578125 191.1660308837891 69.21204376220703 191.0704650878906 69.25237274169922 190.9747009277344 C 69.29537963867188 191.0081481933594 69.33914184570312 191.0402526855469 69.38234710693359 191.0733337402344 M 69.5404052734375 191.1929779052734 C 69.59086608886719 191.2310180664062 69.64094543457031 191.2694396972656 69.69159698486328 191.3070983886719 C 69.62336730957031 191.3118591308594 69.55493927001953 191.3154907226562 69.48670196533203 191.3197021484375 C 69.50466918945312 191.2774658203125 69.52302551269531 191.2354125976562 69.5404052734375 191.1929779052734 M 70.38751983642578 191.0293731689453 C 70.47811889648438 191.0966491699219 70.5704345703125 191.1622009277344 70.66256713867188 191.2275695800781 C 70.53546142578125 191.2398071289062 70.40835571289062 191.2505187988281 70.28125 191.2614135742188 C 70.31660461425781 191.1839904785156 70.35426330566406 191.1077270507812 70.38751983642578 191.0293731689453 M 71.13619995117188 191.1786499023438 C 71.16849517822266 191.0450439453125 71.20041656494141 190.9112548828125 71.23997497558594 190.7797393798828 C 71.31375122070312 190.8240966796875 71.38887786865234 190.8663330078125 71.46494293212891 190.9070434570312 C 71.45730590820312 190.9458465576172 71.44908142089844 190.9846343994141 71.43991088867188 191.0232543945312 C 71.36822509765625 191.0723724365234 71.29617309570312 191.1211090087891 71.22373962402344 191.1694641113281 C 71.19468688964844 191.1727294921875 71.16543579101562 191.1753845214844 71.13619995117188 191.1786499023438 M 71.70271301269531 190.6526489257812 C 71.74725341796875 190.6851348876953 71.79197692871094 190.7174377441406 71.83650970458984 190.7499389648438 C 71.77974700927734 190.7902526855469 71.72297668457031 190.8305969238281 71.66583251953125 190.8705444335938 C 71.67882537841797 190.7979125976562 71.69086456298828 190.7254638671875 71.70271301269531 190.6526489257812 M 71.79312133789062 190.1946716308594 C 71.79541778564453 190.1856994628906 71.79446411132812 190.1778564453125 71.79464721679688 190.1696472167969 C 71.87588500976562 190.2418823242188 71.96017456054688 190.3101196289062 72.04752349853516 190.3747253417969 C 72.02516174316406 190.4555816650391 71.99840545654297 190.533935546875 71.96877288818359 190.6107788085938 C 71.89213562011719 190.5551605224609 71.81549072265625 190.4995422363281 71.7386474609375 190.4437255859375 C 71.75413513183594 190.3609619140625 71.77114105224609 190.2780151367188 71.79312133789062 190.1946716308594" fill="#231f20" stroke="#ffffff" stroke-width="1"/>
</svg>