<svg xmlns="http://www.w3.org/2000/svg" width="5" height="5" viewBox="27.30857086181641 6.344180583953857 5.21327972412109 5.2732291221618635" fill="none">
  <path d="M 32.03105926513672 6.747846126556396 C 31.75608825683594 6.689494132995605 31.5594482421875 6.691892623901367 31.29726409912109 6.817387104034424 C 31.1541862487793 6.886132717132568 31.01430511474609 6.960470676422119 30.87442016601562 7.03480863571167 C 30.60583877563477 7.178688526153564 30.35005569458008 7.340155124664307 30.09666061401367 7.50961446762085 C 29.54272079467773 7.882106304168701 29.00956344604492 8.288168907165527 28.49958419799805 8.718212127685547 C 28.1502799987793 9.013169288635254 28.17265701293945 9.650240898132324 28.49958419799805 9.949991226196289 C 28.86328887939453 10.2841157913208 29.36846542358398 10.27532196044922 29.73136520385742 9.949991226196289 C 30.10065841674805 9.619864463806152 30.44517517089844 9.266558647155762 30.80487442016602 8.926040649414062 C 30.97593307495117 8.764575004577637 31.14379501342773 8.599111557006836 31.30925750732422 8.431251525878906 C 31.39558029174805 8.342524528503418 31.48191452026367 8.252998352050781 31.56664276123047 8.162672996520996 C 31.60901260375977 8.118710517883301 31.65616989135742 8.075545310974121 31.6937370300293 8.026785850524902 C 31.71052551269531 8.008399963378906 31.72731399536133 7.99081563949585 31.74409866333008 7.97243070602417 C 31.67934799194336 8.017993927001953 31.68414688110352 8.016395568847656 31.75768661499023 7.965237140655518 C 31.48191452026367 7.492828845977783 31.20534133911133 7.020420551300049 30.92957305908203 6.548011779785156 C 30.54829025268555 6.816589832305908 30.25173568725586 7.168297290802002 29.93119812011719 7.504819393157959 C 29.66182327270508 7.789382457733154 29.39004898071289 8.071548461914062 29.11747741699219 8.35291576385498 C 28.84489822387695 8.635082244873047 28.58431625366211 8.928439140319824 28.32133483886719 9.219398498535156 C 27.93125915527344 9.650240898132324 27.31336975097656 10.13463973999023 27.52679061889648 10.78849697113037 L 27.52679061889648 10.34166812896729 C 27.57395172119141 10.26652908325195 27.5755500793457 10.27292537689209 27.53159332275391 10.36005210876465 C 27.52119445800781 10.38403224945068 27.51080703735352 10.40721321105957 27.50041580200195 10.43039226531982 C 27.46044540405273 10.52391529083252 27.39730072021484 10.63502502441406 27.37092208862305 10.73014545440674 C 27.30857086181641 10.95715618133545 27.34614181518555 11.23692512512207 27.518798828125 11.40798282623291 C 27.68585968017578 11.5766429901123 27.96882629394531 11.61740970611572 28.19024276733398 11.54946708679199 C 28.27976608276367 11.52148914337158 28.36689758300781 11.4735279083252 28.45002746582031 11.4311637878418 C 28.48439788818359 11.41357898712158 28.51797103881836 11.3967924118042 28.55154418945312 11.38000583648682 C 28.63787460327148 11.33604335784912 28.64106750488281 11.33444595336914 28.56033325195312 11.37521076202393 L 28.11350631713867 11.37521076202393 C 28.80253219604492 11.55745792388916 29.22218322753906 10.97314262390137 29.63784027099609 10.53590679168701 C 29.9088134765625 10.25134181976318 30.17899703979492 9.967577934265137 30.43398284912109 9.669425010681152 C 30.68976974487305 9.371272087097168 30.9439582824707 9.070720672607422 31.19655227661133 8.770170211791992 C 31.48910903930664 8.421658515930176 31.84081649780273 8.073947906494141 32.05264282226562 7.670281887054443 C 32.25167846679688 7.290595531463623 32.16215133666992 6.761435031890869 31.75768661499023 6.548011779785156 C 31.37240600585938 6.344180583953857 30.85683441162109 6.440899848937988 30.63541412353516 6.84216833114624 C 30.53150177001953 7.030011653900146 30.69376754760742 6.801400661468506 30.61543273925781 6.89572286605835 C 30.57546615600586 6.942883968353271 30.52910614013672 6.98524808883667 30.48593902587891 7.029213428497314 C 30.39961242675781 7.118738651275635 30.31248474121094 7.206665515899658 30.22375869750977 7.293793201446533 C 30.05669784545898 7.459255695343018 29.88563537597656 7.621521472930908 29.71218109130859 7.780589580535889 C 29.62904739379883 7.856527805328369 29.54592132568359 7.930066585540771 29.45878982543945 8.000408172607422 C 29.41003036499023 8.038776397705078 29.3604736328125 8.077145576477051 29.31171417236328 8.116312026977539 C 29.23976898193359 8.173864364624023 29.39165115356445 8.057160377502441 29.27175140380859 8.146688461303711 C 29.07590866088867 8.294565200805664 28.8776741027832 8.44084358215332 28.67623519897461 8.582326889038086 C 29.02794647216797 9.037947654724121 29.37965774536133 9.494370460510254 29.73136520385742 9.949991226196289 C 30.15741348266602 9.534337043762207 30.60264205932617 9.139463424682617 31.07025527954102 8.770968437194824 C 31.09823226928711 8.748587608337402 31.12701034545898 8.726205825805664 31.15578079223633 8.703824996948242 C 31.10062789916992 8.746190071105957 31.09503555297852 8.750986099243164 31.13979339599609 8.716614723205566 C 31.19894790649414 8.673449516296387 31.25650024414062 8.628686904907227 31.31565475463867 8.584724426269531 C 31.40837478637695 8.516778945922852 31.4995002746582 8.446438789367676 31.58982467651367 8.375297546386719 C 31.61140441894531 8.358510971069336 31.76008224487305 8.242607116699219 31.71292114257812 8.27857780456543 C 31.66655731201172 8.313748359680176 31.81843566894531 8.198643684387207 31.84081649780273 8.181858062744141 C 31.89996337890625 8.137894630432129 31.9591178894043 8.095529556274414 32.01827621459961 8.051565170288086 C 32.24848175048828 7.881306171417236 32.35079193115234 7.724635601043701 32.43392944335938 7.456858158111572 C 32.5218505859375 7.173093318939209 32.32921600341797 6.810993671417236 32.03105926513672 6.747846126556396" fill="#2473d8" stroke="none" stroke-width="0"/>
</svg>