<svg xmlns="http://www.w3.org/2000/svg" width="6" height="9" viewBox="63.96178817749023 53.05419158935547 5.511432647705085 9.458549499511719" fill="none">
  <path d="M 66.6915283203125 60.18108367919922 C 66.72910308837891 59.86294555664062 66.83380126953125 59.51442718505859 66.92015075683594 59.2034912109375 C 67.01446533203125 58.87017059326172 67.10399627685547 58.60798645019531 67.30381774902344 58.32342529296875 C 67.17753601074219 58.44971466064453 67.05204010009766 58.57521820068359 66.92734527587891 58.70070648193359 L 67.01925659179688 58.65514373779297 C 66.47012329101562 58.23149871826172 65.9185791015625 57.80864715576172 65.36782836914062 57.38580322265625 C 65.03050231933594 58.46730041503906 64.72037506103516 59.69827270507812 64.30070495605469 60.60312652587891 L 66.48451232910156 61.52396392822266 C 66.89936065673828 60.4312744140625 67.36936187744141 59.36255645751953 67.88494873046875 58.25068664550781 C 68.43088531494141 57.07725524902344 69.08235931396484 55.81829833984375 69.36370849609375 54.66005706787109 C 69.47322082519531 54.20842742919922 69.29178619384766 53.72803497314453 68.88651275634766 53.48823547363281 L 68.88011169433594 53.48343658447266 C 69.01679992675781 53.82154846191406 69.15428161621094 54.15887451171875 69.29178619384766 54.49699401855469 C 69.311767578125 54.35870361328125 69.33013916015625 54.22122192382812 69.35012817382812 54.08373260498047 C 69.39889526367188 53.7440185546875 69.31735229492188 53.41149139404297 69.00241088867188 53.22684478759766 C 68.70665740966797 53.05419158935547 68.32618713378906 53.11174011230469 68.08238220214844 53.34514617919922 C 67.98564910888672 53.43787384033203 67.88893127441406 53.53059387207031 67.79301452636719 53.62412261962891 L 68.66509246826172 53.39310455322266 L 68.63871765136719 53.38351440429688 C 68.32456970214844 53.26602172851562 67.844970703125 53.39070892333984 67.62915802001953 53.65048980712891 C 67.39174652099609 53.93824768066406 67.13196563720703 54.18125915527344 66.95932006835938 54.5401611328125 C 66.89216613769531 54.67765045166016 66.80744934082031 54.76156616210938 66.69393920898438 54.95501708984375 C 66.61160278320312 55.09569549560547 66.54285430908203 55.24756622314453 66.47332000732422 55.39545440673828 C 66.20073699951172 55.96856689453125 65.9521484375 56.55449676513672 65.704345703125 57.13800811767578 C 65.17439270019531 58.37937164306641 64.67800140380859 59.63433837890625 64.18001556396484 60.88849639892578 C 63.96178817749023 61.44004058837891 64.37586212158203 62.08909606933594 64.87303924560547 62.2977294921875 C 65.3822021484375 62.51274108886719 66.10561370849609 62.34648132324219 66.36380767822266 61.80933380126953 C 66.98569488525391 60.51920318603516 67.51004791259766 59.12835693359375 67.57639312744141 57.68474578857422 C 67.60677337646484 57.00371551513672 66.93931579589844 56.49453735351562 66.30305480957031 56.58007049560547 C 65.59243011474609 56.67598724365234 65.25193023681641 57.31704711914062 65.36782836914062 57.98289489746094 C 65.37342834472656 58.01328277587891 65.37821960449219 58.0428466796875 65.38381958007812 58.07321929931641 L 65.38381958007812 57.51449584960938 C 65.25193023681641 58.00608825683594 65.11763000488281 58.50646209716797 65.12403106689453 59.021240234375 C 65.13201904296875 59.56800079345703 65.27830505371094 60.01322174072266 65.49971771240234 60.50401306152344 C 65.61482238769531 60.75740814208984 65.97054290771484 60.86691284179688 66.22153472900391 60.79736328125 C 66.51488494873047 60.71743774414062 66.65636444091797 60.46405029296875 66.6915283203125 60.18108367919922" fill="#2473d8" stroke="none" stroke-width="0"/>
</svg>