<svg xmlns="http://www.w3.org/2000/svg" width="2" height="2" viewBox="251.6988830566406 261.7170104980469 1.8144073486328125 1.9201354980469318" fill="none">
  <path d="M 252.8556823730469 262.32275390625 C 252.9986267089844 262.2697448730469 252.9194030761719 262.122802734375 253.1083374023438 262.2220764160156 C 253.0776062011719 262.1645202636719 253.2789306640625 261.8052673339844 253.5132904052734 261.7170104980469 C 253.3237915039062 261.8075256347656 253.4639434814453 261.91357421875 253.2603302001953 261.9691162109375 C 253.3003845214844 262.0198974609375 253.4371337890625 261.9505004882812 253.5132904052734 262.0706787109375 C 253.5036926269531 262.1278991699219 253.4622497558594 262.0986022949219 253.4622497558594 262.0706787109375 C 253.3401184082031 262.1854553222656 253.4013214111328 262.2491455078125 253.4117584228516 262.4242553710938 C 253.3443756103516 262.37353515625 253.3125152587891 262.2880554199219 253.2092742919922 262.2728271484375 C 253.2919158935547 262.2742614746094 253.3737030029297 262.1871337890625 253.4117584228516 262.0198974609375 C 253.2428283691406 262.0943603515625 253.0829315185547 262.2965393066406 253.1593780517578 262.5249328613281 C 253.1269226074219 262.6106567382812 253.0423431396484 262.5574035644531 253.057861328125 262.475341796875 C 252.9098052978516 262.8439331054688 252.7016754150391 262.7931518554688 252.7549743652344 263.2333068847656 C 252.5595245361328 263.1896362304688 252.5750732421875 263.3568725585938 252.4509582519531 263.3848266601562 C 252.5381164550781 263.5635986328125 252.5535888671875 263.2195739746094 252.6534576416016 263.3848266601562 C 252.6320343017578 263.4637145996094 252.4952392578125 263.4279174804688 252.5527648925781 263.5870056152344 C 252.4667510986328 263.3915710449219 252.3125 263.6174621582031 252.1481018066406 263.6371459960938 C 252.3237762451172 263.5511474609375 252.3570556640625 263.2962341308594 252.4509582519531 263.3848266601562 C 252.4656677246094 263.302978515625 252.4036102294922 263.29736328125 252.4013061523438 263.2333068847656 C 252.1765747070312 263.3004760742188 252.1974639892578 263.2265930175781 252.0973510742188 263.0810546875 C 252.0527648925781 263.1761169433594 252.1387634277344 263.299072265625 251.9456329345703 263.2832641601562 C 252.0217590332031 263.3433227539062 252.0888824462891 263.4101867675781 252.1481018066406 263.4854736328125 C 251.8863677978516 263.5424194335938 251.6988830566406 263.1343383789062 252.0468597412109 262.8797302246094 C 252.2047729492188 262.9702453613281 252.0733489990234 262.8636169433594 252.1481018066406 262.7271728515625 C 252.1954498291016 262.7562255859375 252.2250671386719 262.8678588867188 252.2490539550781 262.7781982421875 C 252.31787109375 262.7940368652344 252.2910614013672 262.9048461914062 252.2998199462891 262.9804077148438 L 252.0973510742188 262.9804077148438 C 252.3632507324219 263.1425476074219 252.3643951416016 262.835693359375 252.4509582519531 262.7271728515625 C 252.2772521972656 262.8472900390625 252.4174346923828 262.664306640625 252.4509582519531 262.57568359375 C 252.4295349121094 262.5007019042969 252.3874969482422 262.5954895019531 252.2998199462891 262.57568359375 C 252.3683471679688 262.9031372070312 252.1111602783203 262.489990234375 252.4509582519531 262.475341796875 C 252.5389556884766 262.5052185058594 252.4478759765625 262.7141723632812 252.5527648925781 262.7271728515625 C 252.5302124023438 262.789794921875 252.4878997802734 262.8312377929688 252.4013061523438 262.8286743164062 C 252.4089813232422 262.8876342773438 252.4932708740234 262.8715209960938 252.5527648925781 262.8797302246094 C 252.6458282470703 262.7412719726562 252.5587005615234 263.0139770507812 252.4013061523438 262.9293823242188 C 252.4504241943359 262.9857482910156 252.6929168701172 263.102783203125 252.7549743652344 262.9804077148438 C 252.5372619628906 262.9911499023438 252.7411651611328 262.7051696777344 252.8048706054688 262.475341796875 C 252.7496032714844 262.5091857910156 252.54345703125 262.6428527832031 252.6534576416016 262.67724609375 C 252.5183563232422 262.7942810058594 252.5809783935547 262.5066528320312 252.7042236328125 262.475341796875 C 252.6819458007812 262.4011535644531 252.6602325439453 262.4795532226562 252.6024017333984 262.475341796875 C 252.507080078125 262.4104614257812 252.7163238525391 262.3639526367188 252.8048706054688 262.4242553710938 C 252.7357940673828 262.2043151855469 252.8203887939453 262.1425476074219 252.8048706054688 261.8681640625 L 253.0070953369141 261.8681640625 C 252.9994659423828 261.9273986816406 252.9151306152344 261.9110107421875 252.8556823730469 261.9192199707031 C 252.8082580566406 262.04443359375 253.0364074707031 262.224365234375 252.8048706054688 262.2220764160156 C 252.8150329589844 262.2629699707031 252.8556823730469 262.2720031738281 252.8556823730469 262.32275390625 M 252.8556823730469 262.4242553710938 C 253.0330505371094 262.4380798339844 252.7293243408203 262.6129455566406 252.9066925048828 262.6267395019531 C 252.8666534423828 262.4487915039062 253.1672668457031 262.3526306152344 253.057861328125 262.2728271484375 C 253.0476989746094 262.3337707519531 253.0020294189453 262.3032836914062 252.9571838378906 262.2728271484375 C 252.9718322753906 262.3721008300781 252.888916015625 262.3724060058594 252.8556823730469 262.4242553710938" fill="#2777df" stroke="none" stroke-width="0"/>
</svg>