<svg xmlns="http://www.w3.org/2000/svg" width="9" height="9" viewBox="13.59200096130371 35.78899765014648 9.41653633117676 8.608207702636726" fill="none">
  <path d="M 19.57769203186035 39.33810806274414 C 18.33044242858887 38.26947402954102 17.06551933288574 37.22217559814453 15.8054666519165 36.16939163208008 C 15.53175830841064 35.94017791748047 15.25621795654297 35.78899765014648 14.88862705230713 35.78899765014648 C 14.54541969299316 35.78899765014648 14.21379566192627 35.9267692565918 13.97178363800049 36.16939163208008 C 13.72977066040039 36.41140747070312 13.59200096130371 36.7436408996582 13.59200096130371 37.08623123168945 C 13.59200096130371 37.40262603759766 13.72001552581787 37.79276275634766 13.97178363800049 38.00308227539062 C 15.20500946044922 39.03513717651367 16.43945693969727 40.06597518920898 17.67207145690918 41.0998649597168 C 18.77362632751465 42.02463150024414 19.9068775177002 42.92623519897461 20.94320297241211 43.92414855957031 C 21.41869354248047 44.38074493408203 22.18130683898926 44.3972053527832 22.65496826171875 43.92414855957031 C 22.88052368164062 43.69799041748047 23.00853729248047 43.38830947875977 23.00853729248047 43.06887817382812 C 23.00853729248047 42.73116302490234 22.87076568603516 42.46110534667969 22.65496826171875 42.21360778808594 C 21.72959136962891 41.15533065795898 20.64084053039551 40.25068664550781 19.57769203186035 39.33810806274414" fill="#fc4d16" stroke="none" stroke-width="0"/>
</svg>