<svg xmlns="http://www.w3.org/2000/svg" width="6" height="3" viewBox="46.24396896362305 72.50621032714844 6.175571441650391 2.7771453857421875" fill="none">
  <path d="M 51.95478820800781 74.3240966796875 C 51.574951171875 74.63861083984375 51.18544006347656 74.86408996582031 50.80367279052734 75.01651000976562 C 50.32682037353516 75.20424652099609 49.85408782958984 75.28335571289062 49.40118789672852 75.28335571289062 C 48.84329223632812 75.28335571289062 48.32894134521484 75.166748046875 47.87604522705078 74.99061584472656 C 47.39145660400391 74.80287933349609 46.98379898071289 74.551513671875 46.70896148681641 74.32022094726562 C 46.29743576049805 73.98200225830078 46.24396896362305 73.374755859375 46.5863037109375 72.96322631835938 C 46.90879821777344 72.57952117919922 47.46451950073242 72.50621032714844 47.8699951171875 72.78322601318359 C 47.89370727539062 72.7989501953125 47.91741561889648 72.81685638427734 47.93918991088867 72.83451843261719 C 48.0855598449707 72.95523834228516 49.39320373535156 73.93845367431641 50.72431945800781 72.83863067626953 C 50.74826812744141 72.81878662109375 50.7739143371582 72.7989501953125 50.799560546875 72.78322601318359 C 51.20503997802734 72.50621032714844 51.7609977722168 72.58145141601562 52.08131408691406 72.96709442138672 C 52.41954040527344 73.37862396240234 52.36631393432617 73.98587036132812 51.95478820800781 74.3240966796875" fill="#4f1c18" stroke="none" stroke-width="0"/>
</svg>