<svg xmlns="http://www.w3.org/2000/svg" width="39" height="18" viewBox="208.9961853027344 128.4160461425781 38.76608276367179 18.11172485351571" fill="none">
  <path d="M 247.008056640625 146.1095581054688 C 247.1475830078125 146.2852172851562 247.5149536132812 146.2261505126953 247.5281372070312 145.9319915771484 C 247.7622680664062 140.6429290771484 247.5371246337891 135.3509826660156 246.8568878173828 130.1007080078125 C 246.9650573730469 129.952392578125 246.9273986816406 129.70849609375 246.7423858642578 129.6542205810547 C 246.6114501953125 129.5150756835938 246.3622131347656 129.5171661376953 246.2760162353516 129.6637725830078 C 240.0589752197266 130.0479431152344 233.8241729736328 130.0972595214844 227.6025543212891 129.7861022949219 C 221.7568969726562 129.4940490722656 215.7132263183594 128.4160461425781 209.9352264404297 129.7901153564453 C 209.794921875 129.6094970703125 209.4227905273438 129.6670227050781 209.4147644042969 129.9638519287109 C 209.2767639160156 135.1242980957031 209.1385803222656 140.2849273681641 209.0005798339844 145.4451751708984 C 208.9961853027344 145.6059112548828 209.1357116699219 145.7240447998047 209.2872619628906 145.7318878173828 C 221.8136596679688 146.3939666748047 234.3637542724609 146.5277709960938 246.9013977050781 146.1330718994141 C 246.9415588378906 146.1315460205078 246.9765167236328 146.1227569580078 247.008056640625 146.1095581054688 M 209.5812377929688 145.1731872558594 C 209.7133178710938 140.2388610839844 209.8451995849609 135.3041534423828 209.9772644042969 130.3694458007812 C 215.8470153808594 128.9420471191406 222.0372924804688 130.0945892333984 227.9794769287109 130.3780517578125 C 234.0843048095703 130.6691436767578 240.2009887695312 130.6139068603516 246.3006744384766 130.2356567382812 C 246.9516906738281 135.3200225830078 247.1751098632812 140.4428100585938 246.9688720703125 145.5646362304688 C 246.9480590820312 145.5608215332031 246.9254913330078 145.5588989257812 246.9013977050781 145.5596771240234 C 234.4617919921875 145.950927734375 222.0101470947266 145.8217163085938 209.5812377929688 145.1731872558594" fill="#231f20" stroke="#ffffff" stroke-width="1"/>
</svg>