<svg xmlns="http://www.w3.org/2000/svg" width="168" height="143" viewBox="15.89605236053467 0.4549306631088257 168.30634021759033 143.20867407321927" fill="none">
  <path d="M 70.8358154296875 141.3092193603516 C 70.40880584716797 141.1490936279297 70.07669830322266 140.9296569824219 69.60820007324219 140.4789428710938 C 68.96178436279297 139.8384704589844 68.28570556640625 139.1742706298828 67.75788116455078 138.385498046875 C 67.56219482421875 138.0711822509766 67.38426971435547 137.7746734619141 67.28345489501953 137.4603576660156 C 66.64296722412109 135.8887786865234 66.37609100341797 134.7560424804688 66.88019561767578 133.5818328857422 L 67.02252197265625 133.1844787597656 C 67.50288391113281 131.9687652587891 68.29756927490234 130.0413513183594 68.8609619140625 128.6773376464844 L 69.05667114257812 128.1317291259766 C 71.12047576904297 123.3162078857422 73.41555023193359 117.8542556762695 74.2991943359375 112.3330001831055 C 74.25766754150391 112.3507919311523 74.1865234375 112.3507919311523 74.12721252441406 112.362663269043 L 73.96709442138672 112.7066192626953 L 73.93148803710938 112.70068359375 C 72.05155944824219 112.9378967285156 70.38509368896484 112.7896423339844 68.95585632324219 112.2381286621094 C 67.4554443359375 111.6628646850586 66.21598815917969 110.6546859741211 65.29676055908203 109.2610321044922 L 65.09511566162109 108.9229888916016 L 65.08326721191406 108.9051895141602 C 64.77489471435547 108.3418045043945 64.65035247802734 107.7843399047852 64.51985168457031 107.1557159423828 C 64.41905212402344 106.681282043457 64.32416534423828 106.2186889648438 64.08694458007812 105.8391571044922 C 63.83786773681641 105.4951858520508 63.47611618041992 105.2105178833008 62.9423713684082 104.9733047485352 C 62.82376861572266 104.9139938354492 62.52130126953125 104.9436416625977 62.23663711547852 104.9377136230469 C 61.77999496459961 104.991096496582 61.52499389648438 104.9673767089844 61.32928848266602 104.8843460083008 C 61.21067810058594 104.8368988037109 61.1217155456543 104.7953872680664 61.01496505737305 104.7242202758789 C 60.84298706054688 104.5581817626953 60.70657730102539 104.3684005737305 60.62948226928711 104.2557144165039 L 60.38039779663086 103.769416809082 L 60.45157623291016 103.4966125488281 C 60.55832672119141 103.1526412963867 60.90821838378906 102.9984588623047 61.57242584228516 102.7197189331055 C 61.79777526855469 102.6248397827148 62.04094696044922 102.5240249633789 62.28409576416016 102.3994827270508 C 62.96609497070312 101.9962158203125 63.57099151611328 101.9131851196289 64.10472869873047 102.1088943481445 C 64.64440155029297 102.3283233642578 65.01209259033203 102.8027496337891 65.26118469238281 103.188232421875 C 65.46874237060547 103.4906921386719 65.62886810302734 103.8109283447266 65.87793731689453 104.267578125 C 66.03807067871094 104.5996780395508 66.23970794677734 104.9614334106445 66.44727325439453 105.2876129150391 C 66.66668701171875 105.6256637573242 67.00472259521484 106.0941696166992 67.51476287841797 106.2898712158203 C 67.87651062011719 106.4322052001953 68.35093688964844 106.3906936645508 68.79573059082031 106.2364959716797 C 69.29388427734375 105.7323989868164 68.97958374023438 104.3921203613281 68.07221984863281 103.0103225708008 C 67.5977783203125 102.2690200805664 67.01065826416016 101.6107406616211 66.59552764892578 101.3794326782227 L 66.31678771972656 101.2252502441406 L 66.28121185302734 100.8931427001953 C 66.27527618408203 100.5788269042969 66.26342010498047 100.2526702880859 66.26935577392578 99.92648315429688 C 66.25750732421875 99.15552520751953 66.26935577392578 98.61585235595703 65.86015319824219 97.9931640625 C 65.67037200927734 97.72035217285156 65.44501495361328 97.46534729003906 65.36199188232422 97.24592590332031 C 61.77407073974609 97.93385314941406 58.96302032470703 100.2882385253906 56.00965881347656 102.7968215942383 C 53.95771026611328 104.5107116699219 51.82868194580078 106.2898712158203 49.3675422668457 107.5945663452148 L 49.03543472290039 107.7961959838867 L 48.59065246582031 107.8851623535156 L 48.28820037841797 107.7784042358398 C 47.45794677734375 107.4463043212891 46.40231704711914 107.7250442504883 45.34076690673828 107.9800491333008 C 45.15692138671875 108.0393447875977 44.96714782714844 108.0749435424805 44.80110168457031 108.1045837402344 L 44.41561508178711 108.0808792114258 L 44.24363327026367 108.0274887084961 C 43.86407470703125 107.8732986450195 43.46082305908203 107.5827102661133 42.98043441772461 107.2328109741211 C 42.61868667602539 106.9600143432617 42.26879119873047 106.7109375 42.00192642211914 106.6101150512695 L 41.66388320922852 106.3847503662109 C 41.9011116027832 106.8651123046875 41.94854736328125 107.2387390136719 41.78249359130859 107.6004867553711 C 41.52155303955078 108.0274887084961 40.98780822753906 108.0334243774414 40.28800964355469 108.0512161254883 C 39.91439056396484 108.0571441650391 39.40438842773438 108.0571441650391 39.32136154174805 108.1935424804688 C 39.2561149597168 108.3003005981445 39.25018310546875 108.4663543701172 39.36287307739258 108.7035598754883 C 39.41030502319336 108.9051895141602 39.51705169677734 109.1068420410156 39.63567733764648 109.2906951904297 C 39.9262580871582 109.7354736328125 40.31174850463867 110.0438461303711 40.82175445556641 110.2395629882812 C 42.95672988891602 111.0638961791992 46.82337951660156 109.7236022949219 49.94873428344727 108.454475402832 C 50.71969223022461 108.1579742431641 51.49657821655273 107.8377075195312 52.2200927734375 107.5293426513672 L 52.89616775512695 107.2268829345703 C 56.59083938598633 105.6731109619141 58.34032821655273 105.0029449462891 59.11129760742188 105.2994842529297 L 59.57385635375977 105.4951858520508 L 59.54421234130859 105.9458999633789 C 59.40781021118164 107.618278503418 57.80658721923828 107.7665557861328 56.29432678222656 107.9207458496094 C 55.89697647094727 107.9681930541992 55.48778533935547 108.0156478881836 55.10823440551758 108.0808792114258 C 51.03993606567383 109.0297393798828 49.47430419921875 110.6784210205078 48.23482513427734 111.9949722290039 C 46.27778244018555 114.0469131469727 44.87225341796875 115.0965881347656 38.46736145019531 112.647331237793 C 38.03444671630859 112.4812545776367 37.5955924987793 112.3033599853516 37.13894653320312 112.1254425048828 L 36.71788024902344 111.9237976074219 L 36.58148193359375 111.8526306152344 C 35.66819763183594 111.3722839355469 34.86757659912109 110.6665420532227 34.07289886474609 109.5575561523438 C 31.96758651733398 110.5597839355469 29.79110717773438 111.2299423217773 27.86371040344238 111.8051910400391 C 25.65758514404297 112.4634780883789 23.59378433227539 113.0980224609375 21.78499031066895 114.0884246826172 L 21.28683853149414 114.3552856445312 L 20.96659088134766 113.8808441162109 L 20.13632965087891 112.6058044433594 L 19.94061851501465 112.2974319458008 L 20.10074615478516 111.977180480957 C 21.10892295837402 109.9904861450195 21.29276657104492 107.7606201171875 21.47660827636719 105.5841598510742 C 21.77312850952148 101.6818923950195 22.09930229187012 97.64918518066406 27.19950675964355 94.68989562988281 L 28.39151763916016 93.61647796630859 C 28.9667797088623 92.48968505859375 29.70215034484863 92.10420989990234 30.2714786529541 91.79582214355469 C 30.88232421875 91.46964263916016 31.39233016967773 91.19684600830078 31.81340026855469 90.39030456542969 C 32.16921997070312 89.66086578369141 33.39683151245117 88.10708618164062 33.64590072631836 87.76311492919922 C 37.47698593139648 83.77192687988281 40.55488204956055 79.51979064941406 42.82031631469727 75.04821014404297 C 41.99005508422852 73.43513488769531 41.5986442565918 71.78645324707031 41.63423919677734 70.00140380859375 C 41.01153564453125 68.32307434082031 42.28658676147461 67.14291381835938 43.22359848022461 66.28892517089844 C 44.00640487670898 65.57134246826172 44.33258819580078 65.20958709716797 44.05384826660156 64.89527893066406 C 43.53790664672852 64.69956207275391 42.31031036376953 64.47420501708984 39.07820510864258 64.39711761474609 C 38.4317741394043 64.38526153564453 37.75570297241211 64.37339019775391 37.12115859985352 64.39711761474609 L 36.48659896850586 64.40304565429688 L 36.07146453857422 64.42677307128906 C 34.71931457519531 64.45048522949219 33.17739486694336 64.48013305664062 31.71850967407227 64.33187103271484 C 30.77555847167969 64.24292755126953 29.14468383789062 64.16582489013672 27.16391181945801 64.07093811035156 C 24.17496681213379 63.93454360961914 21.07333564758301 63.79220962524414 19.63817405700684 63.44824981689453 C 19.06292152404785 63.22288513183594 18.52917861938477 62.74251556396484 18.00728988647461 61.97155380249023 C 17.79379463195801 61.60979461669922 17.58030319213867 61.22432327270508 17.26005744934082 60.61348342895508 L 16.99318504333496 60.0678825378418 C 16.2162914276123 58.76318359375 15.89605236053467 57.42289733886719 15.98500919342041 56.10041046142578 C 16.24002456665039 52.44131851196289 19.05105400085449 49.83784484863281 21.36986541748047 47.69101715087891 C 24.43591117858887 44.85626220703125 36.25531387329102 36.00209045410156 39.06040954589844 34.55506134033203 C 48.21704483032227 29.81662178039551 57.4151725769043 25.8254222869873 66.40575408935547 22.69414138793945 C 67.23009490966797 22.39761734008789 68.12557220458984 22.01213836669922 68.97958374023438 21.63258934020996 C 70.03520202636719 21.18187522888184 71.04929351806641 20.74895095825195 71.95072174072266 20.50580215454102 L 74.73210906982422 19.73484420776367 L 75.95972442626953 19.40867042541504 C 79.83823394775391 18.36490821838379 85.15785217285156 16.92380714416504 87.34026336669922 16.46716499328613 C 88.75764465332031 16.16471099853516 90.02677154541016 16.04610061645508 91.39076232910156 15.91562843322754 C 93.58505249023438 15.69027137756348 95.64290618896484 15.46491527557373 98.21078491210938 14.27289581298828 C 105.2561721801758 10.89253616333008 110.789306640625 9.160842895507812 116.749397277832 7.286816596984863 C 118.9970245361328 6.604814529418945 121.3277130126953 5.857576847076416 123.7473449707031 5.051034927368164 C 136.0352325439453 0.8463408946990967 151.1697540283203 -0.9090743064880371 163.2500610351562 0.4549306631088257 C 165.8120269775391 0.7395926117897034 168.6764526367188 1.451247572898865 171.2976989746094 2.447564125061035 C 174.1206359863281 3.526906967163086 177.9991302490234 5.472096920013428 180.4602813720703 8.478837966918945 C 180.5848236083984 8.60338020324707 180.9702758789062 9.208286285400391 181.4150695800781 9.878426551818848 C 181.7708892822266 10.44182109832764 182.0496215820312 10.88660526275635 182.1207733154297 11.03486633300781 C 184.202392578125 15.21583461761475 183.8228149414062 19.02911949157715 183.4076843261719 23.39393424987793 C 183.1467742919922 26.08043098449707 182.3520812988281 28.12051200866699 181.474365234375 30.36222267150879 C 181.1126251220703 31.32295799255371 180.7330474853516 32.28962707519531 180.4306335449219 33.35117721557617 C 180.3119964599609 33.77816772460938 180.3179321289062 34.27039337158203 180.3179321289062 34.87530517578125 C 180.3357391357422 35.55137634277344 180.3238372802734 36.13848876953125 180.1400299072266 36.66629791259766 C 179.3512420654297 38.92580413818359 178.5506591796875 40.59226608276367 177.073974609375 43.32027053833008 C 173.5157012939453 49.84376907348633 167.8046722412109 57.77279663085938 160.1188049316406 66.90569305419922 C 158.8793334960938 68.37644195556641 156.3826141357422 70.94434356689453 153.5122528076172 73.91548919677734 C 151.5730133056641 75.91405487060547 149.4321441650391 78.12612152099609 147.2615966796875 80.42120361328125 C 142.58837890625 85.3553466796875 137.7610015869141 90.47926330566406 136.4859313964844 92.25246429443359 C 134.8847198486328 94.45266723632812 130.4428253173828 99.83158874511719 127.8215408325195 102.9806594848633 L 126.4634780883789 104.5996780395508 C 125.3129653930664 106.0526504516602 119.4774017333984 112.0186920166016 118.0422286987305 113.1810531616211 C 116.9747619628906 114.0528411865234 115.3735198974609 115.4998626708984 113.6477737426758 117.0655059814453 L 113.1140213012695 117.5814514160156 C 110.4571838378906 119.9655075073242 107.4682464599609 122.6994400024414 105.8432846069336 123.8321533203125 L 105.463737487793 124.087158203125 C 95.16846466064453 131.5180206298828 76.96196746826172 143.6636047363281 70.8358154296875 141.3092193603516 M 131.0299530029297 93.48007202148438 L 130.5080413818359 93.81810760498047 C 128.3908843994141 95.25920867919922 126.5702209472656 96.52833557128906 124.0912933349609 97.35858917236328 L 123.4389572143555 97.50684356689453 L 123.1720809936523 97.06800079345703 C 122.697639465332 96.24959564208984 124.1921234130859 95.06944274902344 124.3581695556641 94.93302154541016 C 126.8726959228516 92.9937744140625 129.6422119140625 91.19091796875 131.8898620605469 89.68457794189453 C 133.8053894042969 88.40360260009766 135.4837188720703 87.30054473876953 136.4147796630859 86.51772308349609 C 146.6744537353516 78.10240936279297 165.2723541259766 55.14560317993164 167.3539733886719 52.54806518554688 C 173.3852386474609 45.08161926269531 175.2473907470703 39.79164886474609 176.0361480712891 37.47284317016602 C 176.2199859619141 36.88572692871094 176.3741912841797 36.51210784912109 176.4987335205078 36.25116729736328 C 176.8782653808594 35.58102416992188 177.0561676025391 34.85750961303711 177.1155090332031 34.40679550170898 L 176.8130340576172 34.13399505615234 L 176.7537384033203 34.015380859375 C 176.6113891601562 33.78409957885742 176.4335021972656 33.39268493652344 176.1844177246094 32.87080764770508 C 175.9886932373047 32.36671829223633 175.7099609375 31.74402046203613 175.3660125732422 31.1746997833252 L 175.3600616455078 30.97306060791016 L 175.0635681152344 30.86038589477539 C 174.2332916259766 30.54013824462891 173.4979095458984 30.00639724731445 172.7922058105469 29.19985198974609 C 171.4933929443359 27.68758964538574 165.9958953857422 19.62809562683105 162.164794921875 13.72729396820068 C 159.638427734375 9.80726146697998 158.2862701416016 7.571478843688965 158.1913909912109 7.097042083740234 C 157.6042785644531 5.673732757568359 158.1499176025391 4.564736843109131 158.333740234375 4.262283802032471 C 158.6183624267578 3.781916379928589 159.0335388183594 3.485393762588501 159.5139007568359 3.432019710540771 C 160.3619537353516 3.343062877655029 161.2633819580078 3.402367830276489 162.2359771728516 3.497254371643066 L 162.3486480712891 3.503185033798218 C 162.0165252685547 3.449811220169067 161.6962890625 3.360854148864746 161.3760681152344 3.254106521606445 C 161.0676574707031 3.141427278518677 160.80078125 2.993166446685791 160.7059020996094 2.856765747070312 C 154.9771118164062 2.856765747070312 147.2556610107422 3.117705821990967 138.1939239501953 5.080687522888184 L 137.5652618408203 5.240809440612793 C 127.0565185546875 7.500314235687256 109.4786682128906 11.31952857971191 86.37953948974609 25.17307090759277 C 81.89610290527344 27.84770965576172 73.37403869628906 35.17775726318359 68.26792144775391 39.5544319152832 L 67.77568054199219 39.98142242431641 C 66.44727325439453 41.07855987548828 65.44501495361328 41.97406005859375 64.89348602294922 42.38918685913086 C 61.86894607543945 44.83847045898438 59.60350799560547 47.67322540283203 57.1305046081543 51.17812728881836 C 55.22683334350586 53.87648773193359 49.69965744018555 62.81962203979492 48.65589904785156 65.28668975830078 C 49.06509780883789 65.29261779785156 49.42684936523438 65.18586730957031 49.83605575561523 65.0672607421875 C 50.48839950561523 64.91306304931641 51.20004653930664 64.71736145019531 51.98287200927734 65.01388549804688 C 52.3624267578125 65.16214752197266 52.72418212890625 65.40529632568359 53.05035781860352 65.78485107421875 C 53.2875862121582 66.02799224853516 53.84503936767578 66.77523040771484 54.45587158203125 67.73596954345703 C 56.04523849487305 70.19116973876953 60.44564437866211 77.42040252685547 60.51680755615234 78.99790954589844 L 60.47528839111328 79.10465240478516 C 66.74972534179688 75.17276000976562 75.32516479492188 70.33943939208984 78.444580078125 70.95619964599609 L 78.78855133056641 71.02142333984375 L 78.90122985839844 71.35352325439453 C 79.11471557617188 71.92286682128906 78.94866943359375 72.32613372802734 78.70552825927734 72.62265777587891 C 79.25112915039062 72.5633544921875 79.79079437255859 72.54556274414062 80.33638763427734 72.53964233398438 C 80.78711700439453 72.54556274414062 81.3267822265625 72.4921875 81.86051940917969 72.45067596435547 C 82.98139190673828 72.34392547607422 83.9539794921875 72.28462982177734 84.51736450195312 72.4921875 L 85.24088287353516 72.80651092529297 L 85.03925323486328 73.3876953125 C 84.64190673828125 74.50260925292969 80.22963714599609 77.69914245605469 78.69367218017578 78.80219268798828 C 74.20432281494141 81.99277496337891 68.77200317382812 85.59850311279297 62.53316116333008 89.50074005126953 C 57.94891738891602 92.34735870361328 52.77162551879883 95.57351684570312 48.00947189331055 98.87679290771484 C 47.70108032226562 99.14365386962891 47.55876922607422 99.67146301269531 47.44014358520508 100.1577682495117 C 47.38085174560547 100.4365081787109 47.30374526977539 100.7152252197266 47.06653594970703 101.1718826293945 C 47.05466842651367 101.1956024169922 47.05466842651367 101.3438720703125 47.18513107299805 101.5395584106445 C 47.32154083251953 101.7530746459961 47.54689025878906 101.925048828125 47.98574066162109 102.1029586791992 C 48.0450553894043 102.1266860961914 48.08657073974609 102.1385345458984 48.16366195678711 102.1741256713867 C 48.76263809204102 102.2867965698242 49.46835327148438 102.0910949707031 50.23932266235352 101.5870056152344 C 55.86732482910156 97.81522369384766 62.74666595458984 93.78845977783203 69.62599945068359 89.76760864257812 C 71.90328216552734 88.43325805664062 79.87975311279297 83.08991241455078 86.2965087890625 78.78439331054688 L 87.92145538330078 77.69914245605469 C 92.65988922119141 74.52633666992188 96.91796112060547 71.66785430908203 98.69117736816406 70.57072448730469 L 99.45024871826172 71.60262298583984 L 98.28195953369141 72.65230560302734 C 95.07952117919922 75.45741271972656 74.26359558105469 90.97148895263672 69.77424621582031 94.10871124267578 C 70.28427886962891 94.79664611816406 70.81208801269531 95.56758880615234 71.36953735351562 96.43936920166016 C 71.89142608642578 97.23405456542969 72.02782440185547 97.47720336914062 72.28875732421875 97.96943664550781 L 72.97077941894531 99.10807800292969 C 73.77137756347656 100.4542922973633 74.58978271484375 101.8183059692383 75.41410827636719 103.0814819335938 C 75.64539337158203 103.4313888549805 75.87074279785156 103.7812728881836 76.06646728515625 104.083740234375 L 76.65952301025391 103.5322036743164 C 78.17770385742188 102.0733032226562 79.9627685546875 101.6759719848633 81.72412109375 101.314208984375 C 82.55438995361328 101.1244354248047 83.47954559326172 100.9227905273438 84.40470123291016 100.5847625732422 C 84.77237701416016 100.4602203369141 85.09855651855469 100.2585906982422 85.60264587402344 99.92055511474609 C 85.66193389892578 99.90868377685547 85.72718048095703 99.8671875 85.7568359375 99.85530853271484 C 84.87319946289062 99.93833923339844 83.88280487060547 100.2823181152344 82.88056945800781 100.6203536987305 C 81.17258453369141 101.201530456543 79.38753509521484 101.7945861816406 77.90491485595703 101.2311706542969 C 77.59653472900391 101.1125717163086 77.31778717041016 100.9583740234375 77.06871795654297 100.7448883056641 L 76.26811218261719 100.0925369262695 L 77.24069976806641 99.69519805908203 C 79.12064361572266 98.9005126953125 82.99916839599609 97.26369476318359 85.67974090576172 98.28968048095703 C 85.95846557617188 98.39048767089844 86.21347045898438 98.51503753662109 86.42697906494141 98.65143585205078 L 87.28689575195312 99.20889282226562 C 88.36030578613281 99.01319122314453 89.61162567138672 99.23261260986328 90.71468353271484 99.44611358642578 C 92.11428070068359 99.70705413818359 93.86971282958984 100.0332260131836 95.60733032226562 99.6240234375 C 96.66889190673828 99.34529876708984 97.74229431152344 99.01319122314453 98.71488189697266 98.68701934814453 C 101.2412719726562 97.88640594482422 103.4533157348633 97.18660736083984 105.1612930297852 97.83895874023438 L 106.145751953125 98.22443389892578 L 105.362922668457 98.89457702636719 C 103.8862380981445 100.1696319580078 101.6385879516602 100.661865234375 99.21898651123047 101.1778106689453 L 98.82162475585938 101.2608413696289 L 97.41612243652344 101.569221496582 C 93.43083953857422 102.5299530029297 88.4552001953125 103.727897644043 83.74048614501953 104.1074600219727 C 83.09406280517578 104.1726913452148 82.40613555908203 104.2794342041016 81.50469207763672 104.4158401489258 C 79.92127227783203 104.6589965820312 78.45645141601562 104.87841796875 76.95011901855469 104.581901550293 L 76.32740783691406 104.4514389038086 C 76.57647705078125 104.8250427246094 76.83148956298828 105.1808624267578 77.02127075195312 105.459602355957 C 77.2110595703125 105.5722808837891 77.39488983154297 105.6612396240234 77.59060668945312 105.7383422851562 C 77.75665283203125 105.8035736083984 77.92270660400391 105.845085144043 78.15991973876953 105.9221878051758 L 78.66993713378906 106.10009765625 C 79.03170013427734 106.242431640625 79.54765319824219 106.4618453979492 79.72556304931641 106.8117446899414 C 80.93537139892578 106.4915084838867 82.11553955078125 106.5508041381836 83.31349945068359 107.007453918457 C 83.5269775390625 107.0845413208008 83.75233459472656 107.1853713989258 83.81165313720703 107.2861785888672 C 91.88300323486328 105.6909027099609 99.80014038085938 103.9888458251953 108.4230270385742 100.8397674560547 C 111.4594268798828 101.385383605957 116.9451065063477 99.02505493164062 118.7538833618164 98.24223327636719 C 120.0230026245117 97.71441650390625 120.4144439697266 97.86861419677734 120.5508270263672 97.91605377197266 L 121.0845794677734 98.22443389892578 L 120.9718551635742 98.74632263183594 C 120.9303741455078 98.97762298583984 120.7702407836914 99.26227569580078 120.0645141601562 99.65961456298828 C 113.1555557250977 103.5499954223633 103.2635269165039 106.212776184082 94.5457763671875 108.5908889770508 L 93.27666473388672 108.9467239379883 C 92.88523864746094 109.0534515380859 92.50569915771484 109.1661529541016 92.13800048828125 109.266960144043 C 92.29220581054688 109.2847366333008 92.458251953125 109.3262634277344 92.61243438720703 109.3914947509766 L 93.15805053710938 109.6049880981445 L 92.99791717529297 110.17431640625 C 92.458251953125 111.8763580322266 90.79179382324219 112.0957870483398 89.321044921875 112.2677688598633 C 87.70201873779297 112.4634780883789 86.69384765625 112.6710357666016 86.34395599365234 113.7741012573242 L 86.23127746582031 114.0824966430664 L 85.94660186767578 114.1892395019531 C 85.34170532226562 114.3671569824219 84.76052093505859 114.4383087158203 84.03108215332031 114.5094833374023 C 83.38465118408203 114.5747146606445 82.84497833251953 114.6518096923828 82.31718444824219 114.9127578735352 C 82.44171142578125 115.2152099609375 82.64928436279297 115.8853454589844 81.83087921142578 116.4724502563477 C 78.64622497558594 117.1366806030273 77.76851654052734 118.0143890380859 77.52537536621094 118.4591674804688 C 77.31778717041016 118.9098815917969 72.68611145019531 131.7611846923828 72.19387817382812 133.6529998779297 C 71.81433868408203 135.2067565917969 71.80839538574219 136.4758911132812 72.211669921875 137.0926666259766 C 72.30655670166016 137.2468414306641 72.43109130859375 137.3476867675781 72.59714508056641 137.4306793212891 C 73.55788421630859 137.4722137451172 83.04660797119141 134.5603485107422 85.84579467773438 133.1133270263672 C 94.56355285644531 128.4816436767578 101.6623382568359 123.2035369873047 108.0019683837891 118.1745071411133 C 113.4520797729492 113.8986358642578 119.5129928588867 107.3276901245117 124.7377395629883 101.5158386230469 C 125.1765747070312 101.0532608032227 125.6332168579102 100.5788269042969 126.0542755126953 100.1340484619141 L 126.6354675292969 99.5113525390625 C 127.8334197998047 98.28968048095703 129.0610198974609 97.03241729736328 129.6599731445312 95.98272705078125 C 129.8734893798828 95.59725189208984 130.1047973632812 95.18804168701172 130.3360595703125 94.73139190673828 L 130.5554962158203 94.34000396728516 L 130.5614318847656 94.328125 C 130.7037658691406 94.05533599853516 130.8401641845703 93.75881958007812 131.0299530029297 93.48007202148438 M 27.67394256591797 97.43569183349609 C 23.70646095275879 99.74856567382812 23.75983810424805 102.8502044677734 23.80727577209473 106.1297454833984 C 23.83100128173828 106.8829116821289 23.84879493713379 107.6420135498047 23.78948593139648 108.3951873779297 C 24.57230949401855 107.6004867553711 25.60420417785645 106.8414077758789 26.72506523132324 106.0230026245117 C 28.17208671569824 104.9555130004883 29.67250633239746 103.8405914306641 30.41380882263184 102.8146133422852 C 30.23589706420898 101.1185150146484 30.01647567749023 100.0095062255859 29.45307159423828 99.13772583007812 C 29.09132194519043 98.58618927001953 28.5812931060791 98.10582733154297 27.67394256591797 97.43569183349609 M 40.26429748535156 105.8035736083984 L 40.13382339477539 105.6256637573242 C 39.81951522827148 105.1215667724609 39.66532135009766 104.7598190307617 39.80765151977539 104.083740234375 C 40.12196350097656 103.6745376586914 40.394775390625 103.229736328125 40.70314788818359 102.7315826416016 C 40.87512969970703 102.2986679077148 41.11234664916992 101.8479385375977 41.46224975585938 101.2964096069336 C 42.17390441894531 99.90276336669922 42.74322509765625 98.46166229248047 43.30661773681641 97.06800079345703 C 44.24956512451172 94.70767211914062 45.19843673706055 92.28211975097656 46.83523559570312 89.99889373779297 C 46.44976806640625 90.34286499023438 46.04648971557617 90.70462036132812 45.64916229248047 91.07823944091797 C 43.70988464355469 92.84552001953125 41.50969696044922 94.86780548095703 39.49333953857422 96.02424621582031 L 38.929931640625 96.34449005126953 L 38.63341903686523 95.75144195556641 C 38.51481246948242 95.53200531005859 38.40806579589844 95.27107238769531 38.38433456420898 94.87373352050781 C 38.18863677978516 93.27843475341797 39.62972640991211 92.08049011230469 40.98187255859375 90.93590545654297 C 41.43851852416992 90.53263092041016 41.8714485168457 90.15901947021484 42.22727966308594 89.75574493408203 C 43.05754089355469 88.83060455322266 43.55570220947266 87.37763214111328 44.05979919433594 85.81793212890625 C 44.54015350341797 84.47764587402344 44.96714782714844 83.226318359375 45.69659805297852 82.43163299560547 L 45.89229965209961 82.01650238037109 L 45.99905395507812 81.96312713623047 C 46.01091003417969 81.78522491455078 45.97532272338867 81.63694763183594 45.86264038085938 81.47683715820312 C 45.74996948242188 81.29891967773438 45.56612014770508 81.12100219726562 45.31110763549805 80.86599731445312 C 45.03831100463867 80.61098480224609 44.77144241333008 80.35597991943359 44.55794525146484 80.02386474609375 C 44.51643753051758 79.92897796630859 44.45121002197266 79.84001922607422 44.39189910888672 79.73921203613281 C 43.68616104125977 80.20771026611328 43.55570220947266 80.77704620361328 43.44302749633789 81.47683715820312 C 43.37185668945312 81.83265686035156 43.30068206787109 82.19441986083984 43.12277603149414 82.56804656982422 L 43.05162048339844 82.74002075195312 L 42.85589981079102 82.82897186279297 C 41.59272384643555 83.552490234375 40.9047737121582 84.35903930664062 40.1397590637207 85.25452423095703 C 39.60007858276367 85.93653869628906 39.06040954589844 86.58295440673828 38.34875869750977 87.06331634521484 C 38.19456481933594 87.40729522705078 38.43772506713867 88.36208343505859 38.65120697021484 89.25758361816406 C 38.78761672973633 89.87435913085938 38.93587112426758 90.44960021972656 38.929931640625 90.84696960449219 L 38.92400360107422 91.16719818115234 L 38.65120697021484 91.33917999267578 C 37.5955924987793 92.08049011230469 37.08557510375977 93.37332916259766 36.53996276855469 94.71954345703125 C 36.24937438964844 95.45491790771484 35.97064971923828 96.15471649169922 35.57923889160156 96.76554107666016 C 35.22339248657227 97.27557373046875 34.49988174438477 97.51872253417969 33.65776443481445 97.76186370849609 C 33.17739486694336 97.88640594482422 32.49539566040039 98.07025909423828 32.41237258911133 98.33119201660156 C 32.36493682861328 98.44387054443359 32.44795989990234 98.62178039550781 32.53098297119141 98.75225067138672 L 32.614013671875 98.84121704101562 C 33.92463302612305 98.17699432373047 35.6504020690918 98.53875732421875 37.02626419067383 98.83528137207031 C 37.48884582519531 98.94795227050781 37.91582489013672 99.03691864013672 38.30723571777344 99.09027862548828 L 38.79354095458984 99.14365386962891 L 38.85877227783203 99.64775085449219 C 39.10784912109375 102.0258636474609 36.34426879882812 103.4847564697266 33.40276336669922 105.0563201904297 C 31.40419578552246 106.0941696166992 29.35819053649902 107.1794357299805 28.28478240966797 108.5493698120117 C 31.68292427062988 108.3003005981445 36.45694351196289 107.2031555175781 40.26429748535156 105.8035736083984 M 77.78629302978516 76.18093872070312 C 74.61350250244141 76.68502044677734 70.5511474609375 78.15578460693359 66.87425994873047 80.13654327392578 C 65.30268096923828 80.94309234619141 56.45444488525391 85.58664703369141 55.03113174438477 86.79644775390625 C 54.59227752685547 87.18785095214844 54.17713928222656 87.53182983398438 53.75608062744141 87.84021759033203 C 52.24974060058594 88.99665832519531 51.43135452270508 90.15901947021484 51.20599365234375 91.78990173339844 C 52.95547866821289 91.52301788330078 60.04237365722656 87.71567535400391 68.93806457519531 82.21814727783203 L 68.94991302490234 82.21220397949219 L 68.95585632324219 82.20034790039062 C 71.74909973144531 80.57540130615234 75.58016204833984 78.08460998535156 77.89305877685547 76.32918548583984 L 77.78629302978516 76.18093872070312 Z M 58.97488784790039 80.05352020263672 C 58.6665153503418 80.13060760498047 58.34032821655273 80.15433502197266 58.00822830200195 80.04165649414062 L 57.65240097045898 79.83409881591797 L 57.57529830932617 79.75699615478516 C 55.53522109985352 77.79401397705078 51.46100234985352 71.98217010498047 50.19187164306641 70.01325988769531 C 49.64035034179688 69.18891906738281 49.45650100708008 68.80937194824219 49.480224609375 68.75007629394531 C 49.26078796386719 68.61960601806641 49.06509780883789 68.51878356933594 48.88717269897461 68.44760894775391 C 48.18146133422852 68.1748046875 47.91458892822266 68.40017700195312 47.35118103027344 68.87460327148438 C 46.83523559570312 69.30753326416016 46.11172103881836 69.90650939941406 45.15692138671875 69.72267150878906 C 45.05018615722656 70.16745758056641 45.0086669921875 70.4046630859375 45.33484649658203 70.90282440185547 L 45.60763931274414 71.18747711181641 L 45.38228225708008 70.72491455078125 C 45.63136291503906 70.434326171875 46.10580062866211 69.8946533203125 46.69883728027344 70.12001800537109 L 47.0368766784668 70.27419281005859 L 47.13769149780273 70.49362182617188 C 47.87899398803711 72.08298492431641 47.47574234008789 72.65824890136719 46.5565071105957 73.12081909179688 C 46.3845329284668 73.20977783203125 46.18882369995117 73.30466461181641 45.96346664428711 73.51222991943359 L 46.61581039428711 74.74575805664062 C 47.25037384033203 75.91405487060547 47.99167633056641 77.30178833007812 48.79227828979492 78.57089996337891 C 50.20374298095703 80.72959899902344 52.29126358032227 83.25003814697266 53.43583297729492 83.77784729003906 C 53.90434265136719 83.42202758789062 56.07489013671875 81.92161560058594 58.97488784790039 80.05352020263672 M 87.10897064208984 19.83566284179688 C 82.93986511230469 20.40498352050781 72.01002502441406 23.72011184692383 66.86832427978516 25.56447982788086 C 60.52865982055664 27.82991981506348 55.71906280517578 29.79883193969727 52.21417236328125 31.58390045166016 C 43.8166389465332 35.85383224487305 34.64222717285156 41.61230850219727 28.24918937683105 46.63539505004883 L 27.92301940917969 46.89040756225586 C 21.69604110717773 51.72965621948242 19.07477188110352 55.31758880615234 20.30830955505371 57.23312377929688 C 20.64635467529297 57.73720932006836 21.28090476989746 58.17606735229492 22.17047500610352 58.51409912109375 C 22.35432624816895 58.59120178222656 22.53815650939941 58.64457321166992 22.74573135375977 58.70980453491211 C 25.94224548339844 59.68240737915039 38.04036331176758 60.05008316040039 40.62605667114258 59.85438537597656 C 41.86551666259766 59.01819229125977 47.21478652954102 53.41391372680664 51.64484405517578 48.4560432434082 C 58.16835403442383 41.73684310913086 79.85011291503906 25.34505844116211 86.96072387695312 19.94833946228027 L 87.10897064208984 19.83566284179688 Z M 172.8692626953125 6.498065948486328 C 172.4363555908203 6.587022304534912 171.5882873535156 6.539578914642334 169.7676544189453 6.409109115600586 C 167.2887115478516 6.237125873565674 163.6237030029297 5.988047122955322 161.2515258789062 6.450622081756592 C 161.4768981933594 6.759006500244141 161.6844329833984 7.061460018157959 161.9216461181641 7.429147720336914 C 162.4020233154297 8.188247680664062 162.8942260742188 9.018511772155762 163.4635620117188 9.985176086425781 L 164.0744018554688 10.9992847442627 C 164.5369873046875 11.7524528503418 165.1478271484375 12.74876880645752 165.9721527099609 14.02381610870361 C 166.9091644287109 15.44712543487549 167.9292297363281 17.0186939239502 168.8840026855469 18.45386695861816 L 169.3584594726562 19.14772987365723 L 169.7676544189453 19.76449584960938 L 171.3451232910156 22.17226219177246 L 171.8373870849609 22.93728828430176 L 172.0746002197266 23.29904747009277 L 172.8159027099609 24.42583465576172 L 173.3199768066406 25.17307090759277 L 174.3518676757812 26.69719696044922 C 175.2295989990234 28.04341506958008 175.7811279296875 29.06938362121582 176.1310424804688 30.00639724731445 C 177.0205688476562 29.38369750976562 178.5625152587891 28.0967903137207 178.7345275878906 27.7113094329834 C 180.6026000976562 22.78902816772461 181.474365234375 15.80888175964355 178.3312377929688 10.93997859954834 C 177.032470703125 8.953275680541992 175.1525115966797 7.458800792694092 172.8692626953125 6.498065948486328 M 118.3387603759766 64.50979614257812 C 114.7271270751953 63.12800216674805 111.8033981323242 60.78547668457031 109.7218170166016 57.56523132324219 C 104.3666000366211 49.31596755981445 105.8788909912109 37.78122711181641 110.5757904052734 32.59800338745117 C 116.4173202514648 26.16345977783203 123.450813293457 23.88616371154785 129.8675537109375 26.33544158935547 C 131.3145751953125 26.88697242736816 132.7319488525391 27.70537948608398 134.0544738769531 28.72541809082031 C 135.9522094726562 30.20210266113281 137.6364440917969 32.03461074829102 139.0182647705078 34.17550659179688 C 140.1628265380859 35.95464706420898 141.1116943359375 37.92355346679688 141.9004516601562 40.18306350708008 C 142.0843048095703 40.64563751220703 142.2740936279297 41.27426910400391 142.4460754394531 42.09267044067383 C 143.4008483886719 45.97118377685547 143.4304962158203 49.81412506103516 142.5112609863281 52.8149299621582 C 141.9419708251953 54.60000228881836 140.9041290283203 57.90327072143555 138.5260314941406 58.19978713989258 L 138.0516052246094 58.19978713989258 C 137.8618011474609 58.1938591003418 137.6661071777344 58.16419982910156 137.5000610351562 58.12862777709961 L 137.1264343261719 58.02780532836914 L 137.0434112548828 57.6541862487793 C 136.9959411621094 57.39324951171875 136.9900054931641 57.12638092041016 137.0434112548828 56.87729263305664 C 136.7528228759766 57.12638092041016 136.4147796630859 57.33987426757812 135.9522094726562 57.44069671630859 L 135.4659118652344 57.55930328369141 L 135.2524108886719 57.11451721191406 C 134.2442626953125 55.11594772338867 134.8372955322266 53.47914505004883 135.4421997070312 51.91350173950195 C 135.6497650146484 51.34418487548828 135.8513641357422 50.74520874023438 136.0530395507812 49.90901184082031 L 136.6342315673828 49.45829391479492 L 137.1560821533203 49.58283615112305 C 137.6067810058594 49.70143890380859 137.7550354003906 49.69551467895508 137.8558807373047 49.31596755981445 C 137.9329681396484 48.74071502685547 138.1108856201172 48.11207962036133 138.2888031005859 47.44194412231445 C 138.6920776367188 45.96525955200195 139.1605682373047 44.29879379272461 138.454833984375 42.91107559204102 L 138.2828521728516 42.61454772949219 C 137.4526062011719 41.33356857299805 135.7624206542969 40.55667877197266 134.2620391845703 39.82723236083984 C 133.9358367919922 39.66711044311523 133.6630401611328 39.52477645874023 133.4376983642578 39.38838195800781 C 132.8446197509766 39.03848266601562 132.3701934814453 38.52846527099609 131.8779602050781 37.98286056518555 C 131.3145751953125 37.32458114624023 130.8638916015625 36.86200332641602 130.3064117431641 36.63664627075195 C 129.3694000244141 36.29267883300781 125.9534606933594 35.8775520324707 124.4767532348633 36.00802230834961 C 122.4485626220703 36.18593978881836 120.4025573730469 37.27120590209961 117.9236297607422 39.4832649230957 C 120.2958068847656 39.97549819946289 122.8043823242188 40.1356201171875 125.3248443603516 40.32539367675781 C 128.2248077392578 40.50923538208008 131.2434539794922 40.69901275634766 134.1137542724609 41.46997833251953 L 135.4066162109375 41.81394195556641 L 134.3331909179688 42.57896423339844 C 132.4176483154297 43.94296646118164 129.8675537109375 43.52191162109375 127.3589553833008 43.08898162841797 C 126.3685913085938 42.9051399230957 125.2892608642578 42.73908615112305 124.2810897827148 42.67978668212891 C 123.4923248291016 42.63827133178711 122.6620635986328 42.53745269775391 121.8555068969727 42.44849395751953 L 121.3395614624023 42.37732696533203 C 120.4677886962891 42.27058410644531 119.578239440918 42.14011001586914 118.6115417480469 42.10453414916992 L 117.9592208862305 42.06301116943359 C 116.280876159668 41.9384765625 114.7567443847656 41.93254470825195 114.0688400268555 42.88734817504883 C 116.7849884033203 43.69982528686523 119.6790313720703 43.94890213012695 122.5908966064453 44.20390701293945 C 125.9238128662109 44.51822280883789 129.3694000244141 44.82068252563477 132.6192779541016 46.06607818603516 C 133.6986236572266 46.48120498657227 134.7127380371094 46.9793586730957 135.6556854248047 47.55461883544922 L 136.4918670654297 48.08243179321289 L 135.6616058349609 48.61023712158203 C 135.2761077880859 48.84152984619141 134.908447265625 48.95420455932617 134.5704193115234 49.06095504760742 C 133.9951629638672 49.22107696533203 133.5740814208984 49.33376312255859 133.2479095458984 50.187744140625 L 133.0699768066406 50.65032196044922 L 132.5777587890625 50.57915496826172 C 129.043212890625 50.1580924987793 125.5146331787109 49.47015762329102 121.9919128417969 48.77629470825195 C 120.3373336791992 48.4560432434082 118.6530609130859 48.11207962036133 116.9688262939453 47.82148742675781 L 116.4944000244141 47.53681945800781 L 116.3579864501953 47.31147003173828 C 116.1622848510742 46.99715805053711 116.0673828125 46.71249389648438 115.9428558349609 46.23212814331055 C 115.9250793457031 46.16096115112305 115.8954086303711 46.08979415893555 115.8598251342773 45.98304748535156 C 115.2608795166016 46.1135139465332 114.733024597168 45.98897933959961 114.2111663818359 45.85257720947266 C 113.6062622070312 45.72211074829102 113.0310211181641 45.57977676391602 112.4616851806641 45.88222885131836 C 110.4690475463867 47.94602966308594 110.4868392944336 50.91719055175781 112.5210037231445 54.03068161010742 C 113.3986740112305 55.40061187744141 114.6559448242188 56.73497009277344 116.0496139526367 57.85581970214844 C 119.0385513305664 59.59938430786133 121.4878311157227 60.91593551635742 123.6227874755859 61.74027633666992 C 127.3115158081055 63.1517219543457 129.9150085449219 62.95600891113281 132.9098815917969 61.02862548828125 C 133.8706207275391 60.41777801513672 134.6237945556641 60.23986434936523 135.2642669677734 60.49488067626953 C 135.5370788574219 60.58976364135742 135.7980041503906 60.78547668457031 136.0115203857422 61.0641975402832 L 136.1241760253906 61.71654510498047 L 135.7268676757812 62.09608840942383 L 135.3117218017578 62.49344635009766 C 132.8565216064453 64.59282684326172 129.1321716308594 66.03392791748047 126.2499923706055 65.96275329589844 C 123.349967956543 65.90345001220703 120.7050094604492 65.41716003417969 118.3387603759766 64.50979614257812 M 139.0360260009766 53.34274291992188 C 138.6149749755859 53.78159713745117 138.3836822509766 54.36871337890625 138.1701812744141 54.97954940795898 L 138.1405487060547 55.03886032104492 C 138.1761169433594 55.01514434814453 138.1939239501953 54.97954940795898 138.2176361083984 54.95582962036133 C 138.7751159667969 54.23823928833008 139.1605682373047 53.71636199951172 139.0360260009766 53.34274291992188 M 126.7659378051758 32.88859558105469 C 126.5227813720703 32.71661376953125 126.2381286621094 32.5802116394043 125.9534606933594 32.47939682006836 C 123.4982604980469 31.53052520751953 119.9636993408203 32.72847366333008 117.4907073974609 34.16958236694336 C 114.2704849243164 36.05546188354492 111.1569671630859 39.24604415893555 110.7952117919922 42.05709075927734 C 113.7960357666016 37.97100448608398 121.3929443359375 32.7937126159668 126.7659378051758 32.88859558105469 M 138.5734558105469 38.25566101074219 C 138.4311218261719 37.68633651733398 138.1939239501953 37.14666748046875 137.8262176513672 36.6010627746582 C 136.4206848144531 34.41272735595703 133.7460784912109 33.09616470336914 132.9395294189453 32.7225456237793 L 132.5896453857422 32.43788528442383 L 132.4888153076172 32.28368759155273 C 132.0796356201172 31.64320182800293 132.3108978271484 31.11539649963379 132.4472961425781 30.7951488494873 L 132.4532318115234 30.72398567199707 C 131.5814514160156 30.10128593444824 130.3241882324219 29.23543357849121 128.8949737548828 28.69576835632324 C 127.0387573242188 27.97817802429199 125.2595748901367 27.90108489990234 123.4685897827148 28.45261573791504 C 124.1031494140625 28.62460136413574 124.7614212036133 28.69576835632324 125.5264663696289 28.77286338806152 C 126.4516296386719 28.87367820739746 127.5131759643555 28.96856880187988 128.5272674560547 29.35404205322266 C 128.717041015625 29.43114280700684 128.8890533447266 29.5023078918457 129.3101196289062 29.81662178039551 C 132.2930908203125 34.28818893432617 135.0389099121094 37.02805709838867 137.4822692871094 37.95320892333984 C 137.8440246582031 38.09553909301758 138.2176361083984 38.1904296875 138.5734558105469 38.25566101074219 M 123.2847671508789 52.54212951660156 C 122.9111480712891 52.39980316162109 122.5256652832031 52.22782135009766 122.1638870239258 52.00246429443359 L 121.3810729980469 51.56360244750977 L 122.0749206542969 50.982421875 C 122.7865829467773 50.40716934204102 123.6998977661133 50.12843704223633 124.7970199584961 50.17588424682617 C 125.4612350463867 50.20553207397461 126.1728973388672 50.34786224365234 126.8548889160156 50.60881042480469 C 127.8274917602539 50.98834609985352 128.717041015625 51.58140182495117 129.2270812988281 52.19817352294922 L 129.9743194580078 53.29530334472656 L 128.6577758789062 53.28936767578125 C 127.0802383422852 53.26565170288086 125.1231842041016 53.24785232543945 123.2847671508789 52.54212951660156" fill="#2574da" stroke="none" stroke-width="0"/>
</svg>