<svg xmlns="http://www.w3.org/2000/svg" width="2" height="2" viewBox="0.4967584013938904 57.5697021484375 2.0590148568153386 1.675872802734382" fill="none">
  <path d="M 0.7277265191078186 59.21184539794922 C 0.7998733520507812 59.09931182861328 0.7666316032409668 58.96043395996094 0.8336074352264404 58.84593963623047 C 0.9232368469238281 58.69203948974609 1.140415906906128 58.60069274902344 1.298498511314392 58.54725646972656 C 1.664649367332458 58.42314910888672 2.071429252624512 58.51351928710938 2.425268411636353 58.4024658203125 C 2.499877691268921 58.37932586669922 2.521546363830566 58.28969573974609 2.533612012863159 58.22074890136719 C 2.555773258209229 58.09122467041016 2.552325963973999 57.98461151123047 2.524501323699951 57.85607147216797 C 2.509480714797974 57.78589630126953 2.482887506484985 57.70217895507812 2.40753960609436 57.68001556396484 C 2.034001588821411 57.5697021484375 1.461998224258423 57.72384643554688 1.112345099449158 57.86518859863281 C 0.6511475443840027 58.05182647705078 0.4967584013938904 58.55094909667969 0.5602869391441345 59.01313018798828 C 0.5708750486373901 59.08773803710938 0.58835768699646 59.22292327880859 0.6782333254814148 59.24409484863281 L 0.6841430068016052 59.24557495117188 L 0.7277265191078186 59.21184539794922 Z" fill="#2777df" stroke="none" stroke-width="0"/>
</svg>