<svg xmlns="http://www.w3.org/2000/svg" width="4" height="5" viewBox="32.57255935668945 70.1241683959961 4.330280303955078 4.70062255859375" fill="none">
  <path d="M 34.12162399291992 74.36876678466797 C 33.68012237548828 74.03881072998047 33.25364685058594 73.54978942871094 33.01972198486328 73.04722595214844 C 32.59275054931641 72.12851715087891 33.33243942260742 71.3701171875 34.14255142211914 71.13201141357422 C 34.7054443359375 70.96678161621094 35.34885787963867 71.02292633056641 35.87112045288086 71.28221130371094 C 36.80902481079102 71.74759674072266 36.30449295043945 72.80049133300781 35.96123886108398 73.49980163574219 C 35.90928649902344 73.60494232177734 35.95730209350586 74.17916870117188 36.06983184814453 74.01197052001953 C 36.62336730957031 73.19200897216797 36.90283966064453 72.29448699951172 36.58692169189453 71.32456207275391 C 36.21560287475586 70.18326568603516 34.72711181640625 70.12416839599609 33.79511642456055 70.47801208496094 C 32.93058395385742 70.80648803710938 32.57255935668945 71.83427429199219 32.6658821105957 72.69165802001953 C 32.73704528808594 73.35009002685547 33.24108505249023 74.82479095458984 34.12260437011719 74.40594482421875 L 34.12162399291992 74.36876678466797 Z" fill="#2777df" stroke="none" stroke-width="0"/>
</svg>