<svg xmlns="http://www.w3.org/2000/svg" width="2" height="20" viewBox="32.03189086914062 180.5330200195312 1.9383621215820455 19.919021606445398" fill="none">
  <path d="M 33.97025299072266 180.5330200195312 L 33.10050582885742 182.1271057128906 C 32.8109130859375 182.6586303710938 32.51599884033203 183.187255859375 32.21938705444336 183.7149047851562 L 32.22930908203125 183.6781311035156 L 32.25664520263672 185.7749633789062 L 32.26632308959961 187.8715515136719 C 32.27406692504883 189.2694396972656 32.27962875366211 190.6673278808594 32.26898574829102 192.0652160644531 C 32.26317977905273 193.4628601074219 32.26027679443359 194.8607482910156 32.2370491027832 196.2586364746094 C 32.2213249206543 197.6565093994141 32.19543838500977 199.0543975830078 32.15576171875 200.4520416259766 C 32.11608505249023 199.0543975830078 32.09019470214844 197.6565093994141 32.07447052001953 196.2586364746094 C 32.05124664306641 194.8607482910156 32.04834365844727 193.4628601074219 32.04253768920898 192.0652160644531 C 32.03189086914062 190.6673278808594 32.03745651245117 189.2694396972656 32.04519653320312 187.8715515136719 L 32.05511474609375 185.7749633789062 L 32.08221435546875 183.6781311035156 L 32.08245468139648 183.6575622558594 L 32.09213256835938 183.641357421875 C 32.40059661865234 183.1207275390625 32.71026992797852 182.6008148193359 33.02550888061523 182.0838012695312 L 33.97025299072266 180.5330200195312 Z" fill="#0d315c" stroke="none" stroke-width="0"/>
</svg>