<svg xmlns="http://www.w3.org/2000/svg" width="1" height="1" viewBox="308.7566833496094 161.7062835693359 1 1" fill="none">
  <path d="M 309.4063720703125 161.7079925537109 C 309.5234375 161.7252044677734 309.6429748535156 161.7398681640625 309.6086120605469 161.9093475341797 C 309.5121765136719 161.8882141113281 309.5166625976562 161.7657928466797 309.3556213378906 161.8086700439453 C 309.3212585449219 161.9440307617188 309.4596862792969 161.9068145751953 309.5068054199219 161.9601135253906 C 309.5062561035156 162.1019439697266 309.3694763183594 161.8399810791016 309.4063720703125 162.0616455078125 C 309.3246459960938 162.075439453125 309.3192443847656 162.0134124755859 309.2549438476562 162.0108642578125 C 309.103515625 162.0435638427734 309.3031921386719 162.1191558837891 309.2549438476562 162.2130584716797 C 309.0897521972656 162.1123809814453 309.1275024414062 162.0745849609375 309.1534423828125 162.3137512207031 C 309.085205078125 162.2491455078125 309.0527954101562 162.1603393554688 309.0017395019531 162.3137512207031 C 309.0448608398438 162.1890869140625 308.7566833496094 162.2658081054688 308.7997741699219 162.0108642578125 C 308.9751892089844 162.0511932373047 308.9941101074219 161.9355621337891 309.1534423828125 161.9601135253906 C 309.1455383300781 161.9011688232422 309.0612487792969 161.9175262451172 309.0017395019531 161.9093475341797 C 309.0011291503906 161.7062835693359 309.4072265625 161.9107666015625 309.4063720703125 161.7079925537109" fill="#2777df" stroke="none" stroke-width="0"/>
</svg>