<svg xmlns="http://www.w3.org/2000/svg" width="1" height="1" viewBox="461.115966796875 175.6539611816406 1 1.4991455078125" fill="none">
  <path d="M 461.861572265625 175.9903869628906 C 461.95263671875 175.8931274414062 461.8460083007812 176.1099700927734 461.7101440429688 175.9903869628906 C 461.7323303222656 176.0352478027344 461.7549438476562 176.0806274414062 461.8108215332031 176.0910797119141 C 461.820068359375 176.1345062255859 461.791015625 176.1392974853516 461.7605590820312 176.1418151855469 C 461.7177124023438 176.1333618164062 461.7135009765625 176.1615447998047 461.7101440429688 176.1926116943359 C 461.650634765625 176.1844024658203 461.6678466796875 176.1009521484375 461.6590881347656 176.0411529541016 C 461.4576721191406 176.3251495361328 461.6678466796875 176.4232635498047 461.4568481445312 176.6976470947266 C 461.5432434082031 176.7162933349609 461.5524597167969 176.6590423583984 461.5586547851562 176.5970001220703 C 461.6878662109375 176.4354248046875 461.5113220214844 176.8034210205078 461.6083374023438 176.7484283447266 C 461.6032409667969 176.8719177246094 461.441650390625 176.7588653564453 461.4568481445312 176.6976470947266 C 461.4123229980469 176.7204895019531 461.3666381835938 176.7424926757812 461.3565063476562 176.7991943359375 C 461.4018859863281 176.8561401367188 461.4690551757812 176.7957916259766 461.5586547851562 176.9001617431641 C 461.549072265625 176.9576873779297 461.5079040527344 176.9283599853516 461.5079040527344 176.9001617431641 C 461.3657836914062 176.9495086669922 461.5820922851562 177.0352325439453 461.4568481445312 177.1023406982422 C 461.3889465332031 177.0868225097656 461.4157104492188 176.9757232666016 461.4064331054688 176.9001617431641 C 461.3124694824219 176.9573974609375 461.1632995605469 176.9599151611328 461.2047729492188 177.1531066894531 C 461.1359252929688 177.1375732421875 461.1624145507812 177.0264587402344 461.1540222167969 176.950927734375 C 461.2659606933594 176.978271484375 461.2264709472656 176.8544616699219 461.3054504394531 176.8491058349609 C 461.2876586914062 176.7785949707031 461.2171630859375 176.8454284667969 461.2047729492188 176.9001617431641 C 461.115966796875 176.8491058349609 461.352783203125 176.5149230957031 461.4568481445312 176.6471710205078 C 461.4777526855469 176.5053405761719 461.3245849609375 176.3355560302734 461.5079040527344 176.4446868896484 C 461.5708312988281 176.2817230224609 461.3443908691406 176.4066467285156 461.4064331054688 176.2433319091797 C 461.5663146972656 176.2343139648438 461.5440368652344 176.0431365966797 461.5586547851562 175.8897094726562 C 461.5894470214844 175.8192291259766 461.7529907226562 175.8815155029297 461.7605590820312 175.7882080078125 C 461.8883666992188 175.6539611816406 461.6543579101562 176.0123901367188 461.861572265625 175.9903869628906" fill="#2777df" stroke="none" stroke-width="0"/>
</svg>