<svg xmlns="http://www.w3.org/2000/svg" width="1" height="1" viewBox="246.8763275146484 296.4869995117188 1 1" fill="none">
  <path d="M 247.1789093017578 296.4869995117188 C 247.3097686767578 296.5515441894531 247.3314666748047 296.59814453125 247.4817962646484 296.5377502441406 C 247.4611968994141 296.634765625 247.2866668701172 296.5769348144531 247.3306427001953 296.7402038574219 C 247.2412414550781 296.7029724121094 247.3236083984375 296.6477661132812 247.3306427001953 296.58740234375 C 247.1927490234375 296.5515441894531 247.2288360595703 296.6883239746094 247.1281585693359 296.689208984375 C 247.2161254882812 296.9598999023438 247.4406433105469 297.002197265625 247.3306427001953 297.2960815429688 C 247.2141571044922 297.0851440429688 247.1859893798828 297.2001953125 246.9770355224609 297.2449951171875 C 247.0328674316406 297.1496887207031 247.0412902832031 297.0064392089844 247.0777130126953 296.8913879394531 C 247.1213836669922 296.8812255859375 247.1256256103516 296.9111022949219 247.1281585693359 296.9412841796875 C 247.1188659667969 296.9844360351562 247.1479034423828 296.9892578125 247.1789093017578 296.9920349121094 C 247.1575164794922 297.0907897949219 247.0342712402344 296.9096984863281 247.0777130126953 297.1443786621094 C 247.1188659667969 297.11669921875 247.1603088378906 297.0907897949219 247.2299652099609 297.0936279296875 C 247.2711486816406 296.9505920410156 247.1583404541016 296.9624633789062 247.1789093017578 296.8406066894531 C 247.0777130126953 296.8233947753906 247.0204315185547 296.85107421875 247.0274963378906 296.9412841796875 C 246.8763275146484 296.7873229980469 247.1411285400391 296.6198120117188 247.1789093017578 296.4869995117188" fill="#2777df" stroke="none" stroke-width="0"/>
</svg>