<svg xmlns="http://www.w3.org/2000/svg" width="7" height="7" viewBox="7.458445072174072 20.0447826385498 7.4234461784362775 6.941448211669929" fill="none">
  <path d="M 13.31918716430664 23.37562370300293 C 13.15452194213867 22.67859840393066 12.80281448364258 22.03273582458496 12.49347019195557 21.38926696777344 C 12.26406002044678 20.91206169128418 11.53826236724854 20.85770988464355 11.19374656677246 21.22140884399414 C 10.92916679382324 21.50197601318359 10.6334114074707 21.74817276000977 10.3688325881958 22.02793884277344 C 10.10424995422363 22.30770492553711 9.83967113494873 22.58747673034668 9.575090408325195 22.86644172668457 C 9.046727180480957 23.42597961425781 8.518365859985352 23.98471641540527 7.989204883575439 24.54425430297852 C 8.489590644836426 24.8352108001709 8.990775108337402 25.12696838378906 9.491159439086914 25.41792678833008 C 9.57109260559082 25.19811248779297 9.620651245117188 24.96789932250977 9.692592620849609 24.7448844909668 C 9.712575912475586 24.6833381652832 9.733358383178711 24.62258911132812 9.754940032958984 24.56183624267578 C 9.76373291015625 24.53705787658691 9.833274841308594 24.3963737487793 9.779719352722168 24.49629402160645 C 9.835674285888672 24.39237785339355 9.897221565246582 24.29086112976074 9.95957088470459 24.19094467163086 C 10.22575092315674 23.76489639282227 10.41759014129639 23.52030372619629 10.78768634796143 23.14221572875977 C 10.95234870910645 22.97275733947754 11.12580394744873 22.81208801269531 11.30645370483398 22.66021537780762 C 11.34722137451172 22.62664413452148 11.38718795776367 22.59307098388672 11.42795276641846 22.56029510498047 C 11.6237907409668 22.40202713012695 11.37759590148926 22.59546661376953 11.49349880218506 22.50994110107422 C 11.58862018585205 22.44039916992188 11.68534088134766 22.37165260314941 11.78365802764893 22.30610847473145 C 11.99068546295166 22.16861915588379 12.20570850372314 22.04152870178223 12.42632579803467 21.92642211914062 C 12.65653419494629 21.80652236938477 12.83958435058594 21.72898864746094 13.00584506988525 21.67463493347168 C 12.69650363922119 21.3660888671875 12.38795852661133 21.05754470825195 12.07941436767578 20.74900054931641 C 11.76767253875732 22.35166931152344 11.49669456481934 23.96073913574219 11.22252368927002 25.57060432434082 C 11.11221504211426 26.21806335449219 11.60460758209229 26.81437110900879 12.29363632202148 26.64171600341797 C 13.20168399810791 26.41549873352051 13.92268466949463 25.86795425415039 14.5341796875 25.17812728881836 C 14.01860618591309 24.96550559997559 13.50383281707764 24.75207710266113 12.98826122283936 24.53865814208984 C 13.01144123077393 24.33242607116699 12.96188259124756 24.67694282531738 12.95468807220459 24.71211433410645 C 12.93550491333008 24.8104305267334 12.91232299804688 24.90635108947754 12.88194847106934 25.00147438049316 C 12.8691577911377 25.04223823547363 12.85477066040039 25.08220863342285 12.83878421783447 25.1221752166748 C 12.88035011291504 25.02545166015625 12.87635326385498 25.02785110473633 12.82919216156006 25.12696838378906 C 12.76844215393066 25.2244873046875 12.71488571166992 25.32280921936035 12.64774322509766 25.41632652282715 C 13.2328577041626 25.49226951599121 13.81797218322754 25.56900215148926 14.40308666229248 25.64573860168457 C 14.25281143188477 24.98069190979004 13.99462604522705 24.33402633666992 13.70526599884033 23.71853828430176 C 13.41910362243652 23.11023902893066 13.03222274780273 22.20379257202148 12.32161140441895 22.01435089111328 C 11.43434810638428 21.77854537963867 10.82285499572754 22.52752494812012 10.42478561401367 23.21175956726074 C 10.07467555999756 23.81365776062012 9.872443199157715 24.48270225524902 9.829278945922852 25.17572784423828 C 9.805299758911133 25.55941009521484 10.12982940673828 25.97587013244629 10.50312042236328 26.06059455871582 C 10.93556213378906 26.15971374511719 11.28167533874512 25.97906303405762 11.53985977172852 25.63934516906738 C 11.82602310180664 25.26205825805664 12.0626277923584 24.96950149536133 12.37436771392822 24.58661460876465 C 12.66852569580078 24.22691535949707 12.75325489044189 23.67537117004395 12.37436771392822 23.32765769958496 C 12.01546764373779 22.99833297729492 11.47191715240479 22.98075103759766 11.11541271209717 23.32765769958496 C 10.42958164215088 23.99590492248535 9.866847991943359 24.84240341186523 9.580685615539551 25.76164627075195 C 9.47197437286377 26.11015319824219 9.647829055786133 26.58815765380859 9.985149383544922 26.75521850585938 C 10.37202930450439 26.94706153869629 10.81246376037598 26.98623085021973 11.17296409606934 26.7072582244873 C 11.42475605010986 26.51302146911621 11.60780429840088 26.17730140686035 11.57582950592041 25.85036849975586 C 11.55025100708008 25.59458160400391 11.45592975616455 25.37396621704102 11.22412300109863 25.23807716369629 C 11.01949214935303 25.11817741394043 10.7093505859375 25.09499549865723 10.50791549682617 25.23807716369629 C 10.60943126678467 25.16613388061523 11.09942531585693 25.23727607727051 10.76690196990967 25.1925163269043 C 10.71974086761475 25.18452072143555 10.67178058624268 25.17892646789551 10.62382030487061 25.17413330078125 C 10.50072383880615 25.16054344177246 10.58385276794434 25.1805248260498 10.87321376800537 25.23488235473633 C 11.00830078125 25.56660270690918 11.14338970184326 25.89752960205078 11.27767944335938 26.22925758361816 C 11.30085849761963 26.17569923400879 11.3224401473999 26.1213436126709 11.34402275085449 26.06699180603027 C 11.37919425964355 25.97666358947754 11.38718795776367 25.95828247070312 11.36640453338623 26.01103782653809 C 11.3392276763916 26.07178688049316 11.43514728546143 25.86955070495605 11.4503345489502 25.83917808532715 C 11.53586483001709 25.67051887512207 11.63018608093262 25.50585556030273 11.73330116271973 25.34678649902344 C 11.78126049041748 25.27324867248535 11.83162021636963 25.20210838317871 11.88117694854736 25.13016510009766 C 11.99228572845459 24.97189712524414 11.84041213989258 25.16693687438965 11.95711517333984 25.033447265625 C 12.09140396118164 24.87917518615723 12.22729206085205 24.72969818115234 12.37436771392822 24.58661460876465 L 11.11541271209717 23.32765769958496 C 10.78208923339844 23.7329273223877 10.4455680847168 24.13339233398438 10.09785461425781 24.52666664123535 C 10.60943126678467 24.82482147216797 11.12100791931152 25.1221752166748 11.63258457183838 25.41952705383301 C 11.6629581451416 25.19411277770996 11.70292472839355 24.96870040893555 11.76447486877441 24.74968147277832 C 11.79165172576904 24.65376091003418 11.83081912994385 24.56023979187012 11.85719776153564 24.46511840820312 C 11.88117694854736 24.40356826782227 11.87638282775879 24.41076469421387 11.84440803527832 24.48750305175781 C 11.86758995056152 24.43474388122559 11.89156913757324 24.38278579711914 11.91714763641357 24.33162879943848 C 11.96750640869141 24.23011207580566 12.02345848083496 24.13019752502441 12.08340930938721 24.03267669677734 C 12.10099601745605 24.00469779968262 12.29523372650146 23.73132705688477 12.18572616577148 23.86960983276367 C 12.23448467254639 23.80886077880859 12.31921577453613 23.74811363220215 12.35278606414795 23.6817684173584 C 12.14495944976807 23.864013671875 11.88117694854736 23.85842132568359 11.56304168701172 23.66578102111816 C 11.49669456481934 23.5754566192627 11.49190044403076 23.57305908203125 11.54865264892578 23.6585865020752 C 11.64697170257568 23.8568229675293 11.77086925506592 24.04386711120605 11.8707857131958 24.24130630493164 C 11.92833805084229 24.35480880737305 11.98269367218018 24.46911430358887 12.03544998168945 24.58421897888184 C 12.06182765960693 24.64257049560547 12.08740615844727 24.70012474060059 12.11298561096191 24.75847625732422 C 12.07941436767578 24.67853927612305 12.08340930938721 24.69132995605469 12.12657451629639 24.79604530334473 C 12.29523372650146 25.24287223815918 12.43032360076904 25.69370079040527 12.55102252960205 26.15571784973145 C 12.64774322509766 26.52501487731934 12.98026752471924 26.79438972473145 13.34956169128418 26.84394645690918 C 13.74283504486084 26.89670181274414 14.08894824981689 26.7120532989502 14.30636787414551 26.38512420654297 C 14.65647506713867 25.85836601257324 14.88189125061035 25.17333030700684 14.79875946044922 24.53865814208984 C 14.7484016418457 24.15177536010742 14.55496215820312 23.76090049743652 14.13450908660889 23.66498184204102 C 13.75482559204102 23.57865524291992 13.30319881439209 23.71773719787598 13.11215877532959 24.08143615722656 C 13.07458877563477 24.15257835388184 13.03622055053711 24.22451782226562 12.99305534362793 24.29326057434082 C 13.07698535919189 24.16136741638184 12.94989204406738 24.33802223205566 12.92191410064697 24.36599922180176 C 12.86356258392334 24.42355346679688 12.80281448364258 24.47710800170898 12.74206447601318 24.53146171569824 C 12.66452884674072 24.59540939331055 12.65893363952637 24.60100555419922 12.72607707977295 24.54664993286133 C 12.69330501556396 24.57063102722168 12.65973377227783 24.59380912780762 12.6253604888916 24.61619186401367 C 12.49027347564697 24.70651626586914 12.34799003601074 24.78645133972168 12.19931411743164 24.85359382629395 C 12.14336204528809 24.87917518615723 12.15055465698242 24.8759765625 12.22009754180908 24.84480285644531 C 12.18172836303711 24.85919380187988 12.14336204528809 24.87277984619141 12.10499286651611 24.8847713470459 C 12.01466751098633 24.9151439666748 11.92274284362793 24.93912696838379 11.83081912994385 24.96230506896973 C 12.18812465667725 25.31880950927734 12.5454273223877 25.67611503601074 12.90273094177246 26.03341865539551 C 13.13294124603271 24.33962249755859 13.36714553833008 22.64822387695312 13.55818843841553 20.94883346557617 C 13.60934543609619 20.49880790710449 13.02982616424561 20.0447826385498 12.60537815093994 20.22303199768066 C 12.50865745544434 20.26300239562988 12.41353607177734 20.30376625061035 12.31681728363037 20.34453582763672 C 12.2704553604126 20.36451721191406 12.26885604858398 20.36531829833984 12.31441974639893 20.3453311920166 C 12.28963851928711 20.35572624206543 12.26565933227539 20.36531829833984 12.24167823791504 20.37570571899414 C 12.08500862121582 20.44045639038086 11.92913818359375 20.50759887695312 11.77726554870605 20.58193588256836 C 11.52867031097412 20.70184135437012 11.28886985778809 20.83692741394043 11.05706119537354 20.98560333251953 C 10.57346248626709 21.29494857788086 10.11704158782959 21.65944671630859 9.710975646972656 22.0647087097168 C 9.312907218933105 22.46197700500488 8.956402778625488 22.90880966186523 8.651055335998535 23.38041877746582 C 8.579915046691895 23.48992538452148 8.508772850036621 23.60103416442871 8.445625305175781 23.71614074707031 C 8.505577087402344 23.66498184204102 8.496783256530762 23.68256950378418 8.420046806335449 23.76809310913086 C 8.382478713989258 23.81445693969727 8.346508979797363 23.86241722106934 8.312935829162598 23.91197776794434 C 8.27536678314209 23.96553230285645 8.238597869873047 24.0198860168457 8.202628135681152 24.07424163818359 C 8.021178245544434 24.35001182556152 7.868505001068115 24.62818336486816 7.75819730758667 24.94072341918945 C 7.458445072174072 25.79041862487793 8.667041778564453 26.45547103881836 9.260150909423828 25.81440162658691 L 10.82845115661621 24.1190071105957 C 11.08983516693115 23.83683967590332 11.35121822357178 23.55387306213379 11.61260032653809 23.27170944213867 C 11.87478256225586 22.98794555664062 12.10179615020752 22.67540550231934 12.36397647857666 22.39163970947266 C 11.93073749542236 22.33568382263184 11.49749565124512 22.28053092956543 11.0642557144165 22.22457504272461 C 11.38319206237793 22.86964225769043 11.68294334411621 23.50111770629883 12.13297080993652 24.06624984741211 C 12.32560920715332 24.30764961242676 12.74366283416748 24.32283592224121 12.99305534362793 24.17655754089355 C 13.27042770385742 24.01428985595703 13.39192581176758 23.68256950378418 13.31918716430664 23.37562370300293" fill="#2473d8" stroke="none" stroke-width="0"/>
</svg>