<svg xmlns="http://www.w3.org/2000/svg" width="8" height="18" viewBox="37.47286987304688 45.59978485107422 8.341083526611321 17.73809051513672" fill="none">
  <path d="M 37.71426391601562 62.69121551513672 C 38.38890075683594 63.33787536621094 39.5015869140625 63.04533386230469 40.35127639770508 62.97098541259766 C 41.29290008544922 62.88865661621094 42.26888656616211 62.82391357421875 43.19292449951172 62.61688232421875 C 45.06977081298828 62.19482421875 45.8139533996582 60.66249847412109 45.37351226806641 58.86318969726562 C 45.16328430175781 58.00630187988281 44.86034393310547 57.21656036376953 44.7859992980957 56.32769775390625 C 44.70367431640625 55.32772064208984 44.75083541870117 54.31656265258789 44.75722885131836 53.31419372558594 C 44.77241516113281 51.16476821899414 44.80678939819336 49.01695251464844 44.79399108886719 46.86753082275391 C 44.7859992980957 45.60218048095703 42.82682800292969 45.59978485107422 42.82682800292969 46.86753082275391 C 42.82682800292969 48.66764068603516 42.85240173339844 50.46535110473633 42.88518142700195 52.26466751098633 C 42.91715240478516 54.00721740722656 42.79645156860352 55.80812072753906 43.04264831542969 57.53628540039062 C 43.14656066894531 58.26609039306641 43.45990371704102 58.98628997802734 43.49666976928711 59.72007751464844 C 43.5334358215332 60.47225952148438 42.97870254516602 60.58495330810547 42.33763122558594 60.68647766113281 C 41.49193572998047 60.81996154785156 40.64064407348633 60.90789031982422 39.79574203491211 61.05416870117188 C 39.00999069213867 61.18926239013672 38.07396697998047 61.19245147705078 37.61594772338867 61.93185424804688 C 37.47286987304688 62.16285705566406 37.51763153076172 62.50337982177734 37.71426391601562 62.69121551513672" fill="#2473d8" stroke="none" stroke-width="0"/>
</svg>