<svg xmlns="http://www.w3.org/2000/svg" width="10" height="20" viewBox="62.01298904418945 30.98537063598633 10.360218048095703 19.612541198730465" fill="none">
  <path d="M 63.07451248168945 33.57682037353516 C 62.01298904418945 34.15474319458008 62.7339973449707 35.7302360534668 63.02975082397461 36.57113647460938 C 63.4925651550293 37.88605499267578 64.14881896972656 39.12661743164062 64.68837738037109 40.41035461425781 C 65.25829315185547 41.76603698730469 65.55326080322266 43.15687942504883 65.73150634765625 44.61167526245117 C 65.91136169433594 46.07605743408203 66.05603790283203 47.56763458251953 66.62518310546875 48.9440803527832 C 67.30860900878906 50.5979118347168 68.82814788818359 49.95764541625977 70.17743682861328 49.5987434387207 C 70.74655914306641 49.44686508178711 71.37882232666016 49.3333625793457 71.78649139404297 48.86814498901367 C 72.31486511230469 48.2646484375 72.23652648925781 47.41974639892578 72.26210784912109 46.66996765136719 C 72.37320709228516 43.3798942565918 72.35561370849609 40.08902359008789 72.1845703125 36.80215454101562 C 72.10462951660156 35.26422119140625 72.31005859375 33.20193481445312 71.10227203369141 32.03490447998047 C 70.11029052734375 31.07649612426758 68.64029693603516 30.98537063598633 67.34058380126953 31.09487915039062 C 66.40374755859375 31.17401123046875 65.77227020263672 32.09885025024414 66.26066589355469 32.97651672363281 C 66.59238433837891 33.57281875610352 66.91693878173828 34.17552947998047 67.14474487304688 34.81979751586914 C 67.21189880371094 35.01003265380859 67.46366882324219 36.2026481628418 67.53002166748047 36.22502899169922 C 68.05917358398438 35.92847442626953 68.11593627929688 35.72624588012695 67.69948577880859 35.61673355102539 C 67.53801727294922 35.52800750732422 67.37174987792969 35.44327163696289 67.20470428466797 35.36334228515625 C 66.95209503173828 35.24663925170898 66.68831634521484 35.13153839111328 66.41574859619141 35.0723876953125 C 65.92095184326172 34.96606826782227 65.40138244628906 35.01082992553711 64.94017028808594 35.22026443481445 C 62.17366409301758 36.47761917114258 65.09844207763672 39.5039176940918 66.33580017089844 40.72529983520508 C 67.02003479003906 41.39993286132812 68.24862670898438 40.91074752807617 68.24303436279297 39.935546875 C 68.23423004150391 38.50314331054688 68.2550048828125 37.07072830200195 68.30537414550781 35.63911437988281 C 67.67790985107422 35.89889144897461 67.04962158203125 36.15948104858398 66.42214202880859 36.41926574707031 C 66.86177062988281 36.84610748291016 66.75067138671875 37.91643142700195 66.80181884765625 38.48076248168945 C 66.876953125 39.29448318481445 66.95130157470703 40.10821151733398 67.02564239501953 40.92193222045898 C 67.17991638183594 42.60374069213867 67.33418273925781 44.28554534912109 67.48765563964844 45.96735382080078 C 67.60915374755859 47.29105377197266 69.47481536865234 47.31503295898438 69.56513977050781 45.96735382080078 C 69.75537872314453 43.14649200439453 69.93842315673828 40.31443405151367 70.22939300537109 37.50236892700195 L 68.06877136230469 37.50236892700195 C 68.39250946044922 40.6965217590332 68.55796813964844 43.86668395996094 68.38850402832031 47.07683181762695 L 70.67780303955078 47.07683181762695 C 70.67221832275391 44.92740631103516 70.6666259765625 42.77799224853516 70.66102600097656 40.62778091430664 L 68.42288208007812 40.62778091430664 C 68.50682067871094 42.46864700317383 68.43326568603516 44.31112670898438 68.15510559082031 46.13361358642578 C 68.06478118896484 46.72352981567383 68.30458068847656 47.30464553833008 68.92087554931641 47.48129272460938 C 69.44123840332031 47.63156509399414 70.17503356933594 47.29984664916992 70.2685546875 46.71633529663086 C 70.59307861328125 44.69720840454102 70.73775482177734 42.67248153686523 70.66102600097656 40.62778091430664 C 70.60668182373047 39.19377136230469 68.43008422851562 39.18098068237305 68.42288208007812 40.62778091430664 C 68.410888671875 42.77799224853516 68.39970397949219 44.92740631103516 68.38850402832031 47.07683181762695 C 68.38051605224609 48.55720138549805 70.60826873779297 48.54281997680664 70.67780303955078 47.07683181762695 C 70.83527374267578 43.78915405273438 70.71457672119141 40.46710968017578 70.19101715087891 37.21460723876953 C 69.98879241943359 35.96524429321289 68.11993408203125 36.34093856811523 68.06877136230469 37.50236892700195 C 67.94486999511719 40.3248291015625 67.71226501464844 43.15049362182617 67.48765563964844 45.96735382080078 L 69.56513977050781 45.96735382080078 C 69.40605926513672 43.96021270751953 69.24778747558594 41.95307922363281 69.08792877197266 39.9459342956543 C 69.01200103759766 38.98353958129883 68.95523071289062 38.01713943481445 68.85770416259766 37.0571403503418 C 68.77298736572266 36.21622848510742 68.60112762451172 35.47124862670898 67.98243713378906 34.85896301269531 C 67.28302001953125 34.16592788696289 66.1375732421875 34.69669342041016 66.09920501708984 35.63911437988281 C 66.03926086425781 37.07072830200195 66.00968170166016 38.50233459472656 66.00888061523438 39.935546875 C 66.64434814453125 39.67256927490234 67.27983856201172 39.40878295898438 67.91610717773438 39.14580535888672 C 67.48446655273438 38.71496200561523 67.06960296630859 38.26813507080078 66.69312286376953 37.78773880004883 C 66.52046203613281 37.56711196899414 66.35500335693359 37.34010314941406 66.19911956787109 37.1067008972168 C 66.12638854980469 37.0043830871582 66.05844879150391 36.89886474609375 65.99529266357422 36.79095840454102 C 66.02326965332031 36.98839950561523 65.97930908203125 37.14586639404297 65.86420440673828 37.26337051391602 C 65.90097045898438 37.34650039672852 66.90813446044922 37.74376678466797 67.06000518798828 37.80611801147461 C 67.57717132568359 38.02033615112305 68.1207275390625 38.14183044433594 68.66428375244141 37.93560791015625 C 69.67385101318359 37.5527229309082 69.91365051269531 36.5 69.72100067138672 35.52960205078125 C 69.48600006103516 34.34098815917969 69.01040649414062 33.12919616699219 68.54677581787109 32.01331329345703 L 67.34058380126953 33.59600830078125 C 67.87374877929688 33.58482360839844 68.43967437744141 33.56483840942383 68.94965362548828 33.74787902832031 C 69.47080993652344 33.93493270874023 69.41246032714844 34.30261993408203 69.44843292236328 34.83098220825195 C 69.56754302978516 36.58233261108398 69.63787078857422 38.33527755737305 69.68583679199219 40.08982086181641 C 69.73459625244141 41.84436416625977 69.76337432861328 43.59891891479492 69.74818420410156 45.3542594909668 C 69.74417877197266 45.79229736328125 69.73779296875 46.23113250732422 69.72978973388672 46.66996765136719 C 69.72580718994141 46.88898849487305 69.72100067138672 47.10881042480469 69.71540832519531 47.32782363891602 C 69.64107513427734 47.89056015014648 69.78256225585938 47.792236328125 70.14145660400391 47.03207015991211 C 70.06631469726562 46.96172332763672 69.03757476806641 47.37338638305664 68.90489196777344 47.41415786743164 C 68.53958129882812 47.52686309814453 68.17588806152344 47.65395736694336 67.80339050292969 47.73868179321289 L 68.44046020507812 47.73868179321289 C 68.82255554199219 48.14714431762695 68.91288757324219 48.15433883666992 68.71144104003906 47.7602653503418 C 68.66188049316406 47.62197494506836 68.61631774902344 47.48288726806641 68.5755615234375 47.34141540527344 C 68.47564697265625 47.01368713378906 68.39490509033203 46.6811637878418 68.32056427001953 46.34623336791992 C 68.19267272949219 45.76911544799805 68.09355926513672 45.18719482421875 67.99604034423828 44.6044807434082 C 67.78660583496094 43.35192489624023 67.57398986816406 42.10414886474609 67.11516571044922 40.9139404296875 C 66.67633056640625 39.77648162841797 66.11199951171875 38.70856857299805 65.52207946777344 37.64464950561523 C 65.24871826171875 37.15306091308594 64.98253631591797 36.657470703125 64.71714782714844 36.1618766784668 C 64.52451324462891 35.802978515625 63.8162956237793 34.80780410766602 63.9329948425293 34.41932678222656 C 63.82908248901367 34.55521392822266 63.72517776489258 34.69029998779297 63.62045669555664 34.82538604736328 C 63.66362380981445 34.79341506958008 63.70598983764648 34.76144409179688 63.74834823608398 34.72946166992188 C 64.41740417480469 34.22429275512695 63.8498649597168 33.15476989746094 63.07451248168945 33.57682037353516" fill="#2473d8" stroke="none" stroke-width="0"/>
</svg>