<svg xmlns="http://www.w3.org/2000/svg" width="4" height="5" viewBox="49.22756195068359 97.37922668457031 4.096603393554695 4.770462036132784" fill="none">
  <path d="M 49.38024139404297 97.97075653076172 C 49.58486175537109 98.33283996582031 49.772705078125 98.70932769775391 49.99252319335938 99.06104278564453 C 50.21234893798828 99.41356658935547 50.44335174560547 99.75806427001953 50.6767578125 100.1009750366211 C 50.90216827392578 100.4335098266602 51.12998199462891 100.7636184692383 51.36898040771484 101.086555480957 C 51.51845550537109 101.2895965576172 51.67353057861328 101.4838409423828 51.84378814697266 101.6692657470703 C 52.07160186767578 101.9170608520508 52.28421783447266 102.1496887207031 52.65431213378906 102.1472778320312 C 53.01721954345703 102.1448745727539 53.31217193603516 101.8451385498047 53.31776428222656 101.4830322265625 C 53.32416534423828 101.1257247924805 53.10275268554688 100.9194946289062 52.87174224853516 100.6892929077148 C 52.72625732421875 100.5454025268555 52.58078765869141 100.405517578125 52.42730712890625 100.2704467773438 C 52.11236572265625 99.99467468261719 51.80142211914062 99.71409606933594 51.50327301025391 99.42153167724609 C 51.21391296386719 99.13777923583984 50.93494415283203 98.84362030029297 50.66077423095703 98.54545593261719 C 50.37940216064453 98.23931121826172 50.08844757080078 97.95075225830078 49.82146453857422 97.63021850585938 C 49.61283874511719 97.37922668457031 49.22756195068359 97.7005615234375 49.38024139404297 97.97075653076172" fill="#2473d8" stroke="none" stroke-width="0"/>
</svg>