<svg xmlns="http://www.w3.org/2000/svg" width="1" height="3" viewBox="440.5430603027344 324.6263732910156 1.4401550292968182 2.62432861328125" fill="none">
  <path d="M 441.9082641601562 324.9763488769531 C 441.9832153320312 324.998046875 441.8884887695312 325.0411682128906 441.9082641601562 325.1278076171875 C 441.7841491699219 325.0000305175781 441.8005065917969 325.234375 441.6045227050781 325.1785583496094 C 441.68603515625 325.3263244628906 441.764404296875 325.197998046875 441.8572082519531 325.2794799804688 C 441.9200744628906 325.4430541992188 441.6939086914062 325.3184204101562 441.7565002441406 325.4813842773438 C 441.6146545410156 325.4317932128906 441.829833984375 325.3465881347656 441.7057189941406 325.2794799804688 C 441.4837951660156 325.5995483398438 441.7437744140625 325.9938049316406 441.3521423339844 326.0380859375 C 441.1617431640625 326.2470397949219 441.3650817871094 326.2247314453125 441.4020385742188 326.3412780761719 C 441.2695007324219 326.3404235839844 441.0664367675781 326.3691711425781 441.2004089355469 326.23974609375 C 440.9183654785156 326.3054504394531 441.306396484375 326.4326171875 441.2505798339844 326.5933837890625 C 441.1456909179688 326.5750122070312 441.1997985839844 326.9642028808594 440.8459167480469 327.0485229492188 C 440.893310546875 327.1849975585938 441.0740966796875 327.1390686035156 440.8966674804688 327.2507019042969 C 440.8402709960938 327.2047729492188 440.9003601074219 327.1375732421875 440.7962646484375 327.0485229492188 C 440.5924072265625 327.1805114746094 440.6885375976562 327.2005004882812 440.5430603027344 327.0992736816406 C 440.6208190917969 326.6314392089844 441.1617431640625 325.963623046875 441.0991821289062 325.7848510742188 C 441.3278503417969 325.6514587402344 441.246337890625 325.2847900390625 441.5545959472656 325.4311828613281 C 441.5413208007812 325.3421020507812 441.4665832519531 325.316162109375 441.3521423339844 325.3299560546875 C 441.6191711425781 325.0420227050781 441.3814697265625 325.1565246582031 441.6552734375 324.8753356933594 C 441.6118469238281 324.865478515625 441.6078796386719 324.8945617675781 441.6045227050781 324.9258422851562 C 441.636962890625 324.6263732910156 441.7300415039062 325.1579284667969 441.9082641601562 324.9763488769531" fill="#2777df" stroke="none" stroke-width="0"/>
</svg>