<svg xmlns="http://www.w3.org/2000/svg" width="15" height="25" viewBox="12.80398273468018 1.344711780548096 15.12186336517334 24.976094722747803" fill="none">
  <path d="M 14.26757049560547 15.01018238067627 C 14.96379089355469 12.05902862548828 16.88939666748047 9.402831077575684 19.46566009521484 7.816146850585938 L 18.27944564819336 6.629131317138672 C 16.58564758300781 9.110274314880371 15.29791450500488 11.82322406768799 14.42743873596191 14.69764232635498 C 14.15006637573242 15.6104850769043 15.50974082946777 16.19320106506348 15.97255706787109 15.34910297393799 C 18.00207138061523 11.64896965026855 20.04677772521973 7.956830978393555 22.08508682250977 4.261493682861328 C 22.61025428771973 3.310282230377197 21.1954288482666 2.483767509460449 20.62949752807617 3.410199642181396 C 19.52481460571289 5.219100475311279 18.39534950256348 7.01600980758667 17.31943893432617 8.841695785522461 C 17.83900833129883 8.983179092407227 18.35857772827148 9.123862266540527 18.87894821166992 9.264547348022461 C 19.09237289428711 7.194262027740479 19.63911819458008 5.381365776062012 20.54476737976074 3.499725103378296 C 20.93804168701172 2.682003259658813 19.6790828704834 2.155239820480347 19.40171241760254 3.017725229263306 C 19.18829154968262 3.683572769165039 18.82539367675781 4.260694980621338 18.38175773620605 4.798648834228516 C 17.85260009765625 5.442115306854248 18.73026847839355 6.364551067352295 19.31298637390137 5.730676174163818 C 20.27858352661133 4.67954683303833 21.3121337890625 3.69156551361084 22.33767890930176 2.697989702224731 C 21.96758651733398 2.545316457748413 21.59829521179199 2.391843795776367 21.22820091247559 2.23917031288147 C 21.32332038879395 5.996855735778809 18.54002571105957 9.163028717041016 18.25626373291016 12.90233039855957 C 18.82539367675781 12.82479381561279 19.3945198059082 12.7480583190918 19.96444511413574 12.67052268981934 C 19.84614181518555 12.04703903198242 19.50802803039551 11.61140060424805 18.94049453735352 11.33003330230713 C 18.38575553894043 11.05506134033203 17.88696670532227 11.31244850158691 17.65995788574219 11.8512020111084 C 17.41216278076172 12.43791580200195 17.1651668548584 13.02462959289551 16.91817283630371 13.61134147644043 C 16.70714569091797 14.11092758178711 16.53289222717285 14.84232139587402 16.18038558959961 15.26597118377686 C 16.00692749023438 15.47379779815674 16.09965133666992 15.46020984649658 15.98854446411133 15.37707805633545 C 15.84865951538086 15.27076721191406 15.72556114196777 14.7056360244751 15.66560935974121 14.51299571990967 C 15.46257972717285 13.86473274230957 15.3322868347168 13.20847702026367 15.26753997802734 12.53223705291748 C 15.16602325439453 11.46831893920898 13.60491752624512 11.42595386505127 13.5793399810791 12.53223705291748 C 13.51219749450684 15.52095794677734 15.13804817199707 18.35301208496094 17.85579490661621 19.65752983093262 C 18.09399604797363 19.09320068359375 18.33140182495117 18.52886390686035 18.56960487365723 17.96453285217285 C 17.18355178833008 17.46014976501465 15.89502143859863 16.79430198669434 14.69201850891113 15.93981075286865 C 13.8710994720459 15.35629558563232 12.80398273468018 16.71756744384766 13.6057186126709 17.34824371337891 C 16.25392150878906 19.43131637573242 18.96687316894531 21.39449119567871 21.87326431274414 23.10427474975586 C 22.70057678222656 23.59106826782227 23.6629810333252 22.62067413330078 23.18258094787598 21.79495811462402 C 22.28732109069824 20.25703239440918 21.32411956787109 18.76307106018066 20.37370872497559 17.25871849060059 L 19.1962833404541 18.43614387512207 C 22.04752159118652 19.95328330993652 24.27447319030762 22.47759246826172 25.72926712036133 25.33362579345703 C 26.23605155944824 24.9427490234375 26.74282836914062 24.55107307434082 27.24960708618164 24.16019630432129 C 25.43111801147461 22.21860885620117 23.54467964172363 20.33776473999023 21.68941688537598 18.43134689331055 C 20.2010498046875 16.90301322937012 18.70469284057617 14.82393741607666 16.59444236755371 14.15169525146484 C 16.23074340820312 14.03658962249756 15.7463436126709 14.22443294525146 15.56888961791992 14.56894779205322 C 14.95899772644043 15.75756359100342 15.25554847717285 17.09885025024414 16.20676231384277 18.02448272705078 C 17.3618049621582 19.14755439758301 19.0667896270752 19.13476371765137 20.5583553314209 18.96050834655762 C 21.18264007568359 18.88696670532227 21.81731224060059 18.01489067077637 21.16025543212891 17.50731086730957 C 20.59432411193848 17.07007598876953 19.98922538757324 16.59446907043457 19.61273574829102 15.97338390350342 C 19.13233757019043 15.18044185638428 19.37373542785645 14.67126274108887 19.9212818145752 14.01101016998291 C 21.05873870849609 12.63934898376465 22.33128356933594 11.36200618743896 23.60622978210449 10.11903667449951 C 23.15460395812988 9.770525932312012 22.70297813415527 9.42281436920166 22.25135231018066 9.074304580688477 C 21.6534481048584 10.30848121643066 20.87169456481934 11.36200618743896 19.8581371307373 12.28763866424561 C 20.36171913146973 12.58099746704102 20.86530113220215 12.87435340881348 21.36808395385742 13.16691017150879 C 21.94760322570801 10.99910831451416 22.94357681274414 9.023945808410645 24.46232032775879 7.358925342559814 C 24.00189971923828 7.004019737243652 23.54148292541504 6.648315906524658 23.08106422424316 6.29340934753418 C 22.01155090332031 7.769784927368164 21.03236198425293 9.306909561157227 20.1658821105957 10.91198062896729 C 19.74702835083008 11.68733596801758 19.35375595092773 12.47708320617676 18.98765563964844 13.2780179977417 C 18.70948600769043 13.88631439208984 18.2194938659668 14.57054615020752 18.59918022155762 15.22760200500488 C 18.79661560058594 15.56891918182373 19.24024772644043 15.75596332550049 19.6223316192627 15.64405822753906 C 19.65909957885742 15.63286685943604 19.69586944580078 15.62247562408447 19.73263931274414 15.61128425598145 C 20.09793472290039 15.50337314605713 20.42006874084473 15.13647747039795 20.3976879119873 14.73760795593262 C 20.39609146118164 14.71123123168945 20.39449119567871 14.6856517791748 20.39369201660156 14.65927314758301 C 20.32974433898926 13.49943542480469 18.51684761047363 13.49144172668457 18.58079528808594 14.65927314758301 C 18.58239364624023 14.6856517791748 18.58399391174316 14.71123123168945 18.58479118347168 14.73760795593262 C 18.80700492858887 14.44585037231445 19.02842330932617 14.15489101409912 19.25064086914062 13.86313247680664 L 19.14032745361328 13.89670562744141 C 19.48164939880371 14.03578948974609 19.82296371459961 14.17407512664795 20.16348266601562 14.31315994262695 C 20.15069007873535 14.2907772064209 20.13710403442383 14.26839733123779 20.12431335449219 14.24601459503174 L 20.12431335449219 15.15965747833252 C 21.32012367248535 12.3387975692749 22.81568145751953 9.672207832336426 24.59980583190918 7.180674076080322 C 25.18012046813965 6.37014627456665 23.88359642028809 5.378168106079102 23.21854972839355 6.115956783294678 C 21.5175609588623 8.002391815185547 20.24821090698242 10.21335887908936 19.62552833557129 12.68650913238525 C 19.40331077575684 13.56897735595703 20.47921943664551 14.18926334381104 21.13627624511719 13.56577968597412 C 22.23136520385742 12.52584362030029 23.10744285583496 11.3172435760498 23.74051475524902 9.944782257080078 C 24.13059425354004 9.099883079528809 23.11783027648926 8.158262252807617 22.38644409179688 8.900047302246094 C 21.49038124084473 9.80809497833252 20.60791206359863 10.73212909698486 19.74862480163574 11.67534732818604 C 19.08597564697266 12.40274524688721 18.24906921386719 13.15891742706299 17.86379051208496 14.0829496383667 C 17.07644081115723 15.96778774261475 18.58399391174316 17.61202430725098 19.95645332336426 18.71111297607422 L 20.5583553314209 17.2579174041748 C 19.71345520019531 17.34184837341309 18.78142929077148 17.45215606689453 17.98049354553223 17.10204696655273 C 17.38738441467285 16.84306335449219 16.7742919921875 16.16122817993164 17.13639259338379 15.48498916625977 C 16.79507446289062 15.62407302856445 16.45295906066895 15.76315975189209 16.11164093017578 15.90224361419678 C 17.07404327392578 16.22677421569824 17.74788284301758 17.02770805358887 18.42891883850098 17.73991775512695 C 19.25703239440918 18.60639953613281 20.08354759216309 19.47288131713867 20.91086196899414 20.3393669128418 C 22.56389236450195 22.0715274810791 24.19373893737793 23.83007049560547 25.88034439086914 25.52946281433105 C 26.66529083251953 26.3208065032959 27.92584609985352 25.3160400390625 27.40148162841797 24.35603523254395 C 25.67331504821777 21.19065856933594 23.13062286376953 18.80223846435547 20.06516647338867 16.95017433166504 C 19.31298637390137 16.49614906311035 18.47607803344727 17.38980865478516 18.88773918151855 18.12759780883789 C 19.75422096252441 19.68070983886719 20.60711479187012 21.24021911621094 21.52954864501953 22.76135444641113 L 22.83886337280273 21.4520435333252 C 20.0491771697998 19.87974548339844 17.34102249145508 18.12599754333496 14.87346839904785 16.07969665527344 C 14.51136779785156 16.54970550537109 14.14926528930664 17.0189151763916 13.78716850280762 17.48812675476074 C 15.10207748413086 18.47451019287109 16.51850318908691 19.22828674316406 18.07721138000488 19.75105285644531 C 19.0564022064209 20.0795783996582 19.75502014160156 18.49129676818848 18.79101753234863 18.05805587768555 C 16.60882759094238 17.07886695861816 15.1716194152832 14.94863414764404 15.26753997802734 12.53223705291748 L 13.5793399810791 12.53223705291748 C 13.69364547729492 13.98463344573975 14.03096580505371 17.45135879516602 16.14920997619629 17.27390480041504 C 16.98052215576172 17.2043628692627 17.52646827697754 16.49774742126465 17.87258148193359 15.80792140960693 C 18.43451309204102 14.6872501373291 18.85656547546387 13.47225666046143 19.34176445007324 12.31481742858887 C 18.91491889953613 12.4890718460083 18.48727035522461 12.6625280380249 18.06042289733887 12.83678531646729 C 18.13636207580566 12.93510437011719 18.21149826049805 13.03421974182129 18.28664016723633 13.13333892822266 C 18.48887062072754 14.14130115509033 19.93647003173828 13.83355808258057 19.9956226348877 12.90233039855957 C 20.22982788085938 9.181415557861328 22.91240119934082 6.079186916351318 22.52792358398438 2.23917031288147 C 22.47516822814941 1.708410263061523 21.8412914276123 1.344711780548096 21.41844177246094 1.779551029205322 C 20.42407035827637 2.803502559661865 19.43448638916016 3.835447788238525 18.38175773620605 4.798648834228516 C 18.69190406799316 5.109591007232666 19.00284194946289 5.419734001159668 19.31298637390137 5.730676174163818 C 19.98043441772461 5.04964017868042 20.36731338500977 4.268687725067139 20.60791206359863 3.350249052047729 C 20.19865608215332 3.295094966888428 19.78859519958496 3.239940643310547 19.37932968139648 3.183987140655518 C 19.51042366027832 5.323014259338379 18.92210960388184 7.12391996383667 17.45053100585938 8.673036575317383 C 16.62081909179688 9.545112609863281 18.1083869934082 10.72253608703613 18.76464462280273 9.686595916748047 C 19.89810180664062 7.895280838012695 20.98040199279785 6.070394515991211 22.08508682250977 4.261493682861328 L 20.62949752807617 3.410199642181396 C 18.59118461608887 7.10553503036499 16.56006813049316 10.80486965179443 14.51216697692871 14.49540996551514 C 15.02774047851562 14.71282768249512 15.54331398010254 14.93024921417236 16.05808639526367 15.14686965942383 C 16.90218544006348 12.41153621673584 18.15155220031738 9.860851287841797 19.77740287780762 7.505204200744629 C 20.27938461303711 6.777008533477783 19.30339622497559 5.884148597717285 18.59038734436035 6.318189144134521 C 15.51533508300781 8.190237045288086 13.68165588378906 11.32923412322998 13.56415176391602 14.91506195068359 C 13.55056571960449 15.31632900238037 14.17404747009277 15.40505599975586 14.26757049560547 15.01018238067627" fill="#2473d8" stroke="none" stroke-width="0"/>
</svg>