<svg xmlns="http://www.w3.org/2000/svg" width="1" height="1" viewBox="81.72700500488281 258.8479919433594 1 1.488433837890625" fill="none">
  <path d="M 81.97995758056641 260.2628479003906 C 81.78903198242188 260.33642578125 81.88294982910156 260.1246643066406 81.72700500488281 260.1624450683594 C 81.75012969970703 259.9159545898438 81.7991943359375 259.6954040527344 81.97995758056641 259.6063232421875 C 81.7955322265625 259.6159362792969 81.98954772949219 259.4320678710938 82.13140869140625 259.3530883789062 C 81.85871124267578 259.2850952148438 82.18582916259766 259.3615112304688 82.23264312744141 259.151123046875 C 82.14775848388672 259.1032104492188 82.08374786376953 258.9926452636719 82.18216705322266 258.8987426757812 C 82.23574066162109 258.9360046386719 82.18836975097656 259.05078125 82.28284454345703 259.151123046875 C 82.32683563232422 258.94189453125 82.43907165527344 259.1717529296875 82.43484497070312 258.8479919433594 C 82.49209594726562 258.8576049804688 82.46275329589844 258.8987426757812 82.43484497070312 258.8987426757812 C 82.43624877929688 258.9481201171875 82.49688720703125 258.9376831054688 82.53607940673828 258.9492797851562 C 82.53044891357422 259.0750427246094 82.44132995605469 259.1057434082031 82.53607940673828 259.20166015625 C 82.45682525634766 259.1395874023438 82.33557891845703 259.2168579101562 82.38465118408203 259.3530883789062 C 82.33980560302734 259.4906921386719 82.22418212890625 259.2470397949219 82.33388519287109 259.20166015625 C 82.19344329833984 259.2808532714844 82.19289398193359 259.4991455078125 81.97995758056641 259.505126953125 C 82.11899566650391 259.5594482421875 81.95120239257812 259.9810791015625 81.92920684814453 259.7072448730469 C 81.77439117431641 259.7569274902344 81.98786163330078 259.8420715332031 81.97995758056641 259.9091491699219 C 82.03778076171875 259.8998718261719 82.00788116455078 259.8583984375 81.97995758056641 259.8592834472656 C 82.06569671630859 259.8099365234375 82.10997009277344 259.7196655273438 82.08063507080078 259.5555419921875 C 82.19937133789062 259.540283203125 82.28987884521484 259.4568786621094 82.38465118408203 259.5555419921875 C 82.34770965576172 259.658447265625 82.23235321044922 259.7616882324219 82.13140869140625 259.6573486328125 C 82.13252258300781 259.7569274902344 82.26959228515625 259.7210693359375 82.23264312744141 259.8592834472656 C 82.11589813232422 259.75830078125 82.17681884765625 259.8713989257812 82.08063507080078 259.9091491699219 C 82.31865692138672 259.9413452148438 81.94443511962891 260.0079040527344 81.97995758056641 260.2628479003906" fill="#2777df" stroke="none" stroke-width="0"/>
</svg>