<svg xmlns="http://www.w3.org/2000/svg" width="349" height="358" viewBox="0.1198190003633499 0 348.61229769885546 357.86474609375" fill="none">
  <path d="M 44.74747085571289 357.86474609375 L 44.72111892700195 357.5572204589844 L 44.69475173950195 356.915771484375 C 44.63324737548828 354.7894287109375 44.51901626586914 352.3291320800781 44.3872184753418 349.6228637695312 C 44.03575134277344 341.6708374023438 43.62277603149414 332.2339477539062 43.93031311035156 323.9129638671875 C 36.97124481201172 311.3303833007812 27.79792404174805 300.5139770507812 18.9233570098877 290.0489807128906 L 17.99196815490723 288.9330749511719 C 15.91830730438232 286.4991760253906 13.87979221343994 284.0564575195312 11.83248996734619 281.61376953125 C 8.976812362670898 272.0714416503906 9.943349838256836 260.4202575683594 10.86595249176025 249.1381225585938 C 11.25256824493408 244.8062896728516 11.58646297454834 240.4393005371094 11.75340938568115 236.2919769287109 C 14.30155181884766 231.2747497558594 15.90073299407959 225.4052581787109 17.48233795166016 219.7378234863281 L 17.96560668945312 217.9541473388672 C 22.18321990966797 214.5360870361328 27.35859107971191 212.9193572998047 33.76409530639648 212.9193572998047 C 31.2950325012207 203.2539672851562 28.61508750915527 192.9735260009766 26.03179740905762 183.0357666015625 C 20.3116569519043 160.9723663330078 14.48607540130615 138.6014251708984 6.340802669525146 119.0070877075195 C 6.472602844238281 113.4802398681641 4.811917304992676 109.930419921875 3.203950643539429 106.4772415161133 C 1.376317143440247 102.5408020019531 -0.4952499866485596 98.49012756347656 0.1198190003633499 92.02310943603516 L 2.131973266601562 90.64361572265625 C 5.031584739685059 88.98291778564453 8.291450500488281 87.11135864257812 11.16470146179199 85.08161926269531 C 11.4634485244751 84.80924224853516 11.79734420776367 84.64229583740234 12.10487747192383 84.64229583740234 C 12.53542613983154 84.64229583740234 12.83417415618896 84.88832092285156 13.08898830413818 85.08161926269531 C 13.44924259185791 85.31887054443359 13.66891193389893 85.45945739746094 13.99402046203613 85.45945739746094 C 19.74052238464355 83.69332122802734 24.14265823364258 81.67238616943359 27.85064506530762 79.25605010986328 C 35.70595932006836 77.07694244384766 43.45582962036133 74.86269378662109 51.2056999206543 72.63087463378906 L 52.99818420410156 72.11245727539062 C 78.40930938720703 64.82828521728516 104.4355316162109 57.35079574584961 130.7868499755859 52.41267013549805 C 164.8968200683594 37.39620208740234 196.8101196289062 19.94581413269043 225.6128997802734 0.5535622239112854 L 226.3158569335938 0.4920552968978882 C 226.7024688720703 0.4920552968978882 227.0011901855469 0.3954015672206879 227.3087463378906 0.2723877131938934 C 227.8271636962891 0.123013824224472 228.2049713134766 0 228.7321929931641 0 C 228.9166870117188 0 229.1627197265625 0.00878670159727335 229.4527282714844 0.08786701411008835 C 234.7774353027344 3.163212537765503 236.6402282714844 9.48963737487793 238.4502868652344 15.64032745361328 C 239.5925598144531 19.62948989868164 240.9105682373047 24.12828254699707 243.256591796875 27.30906867980957 C 242.7908935546875 26.67642402648926 242.6942443847656 26.21073150634766 242.9930114746094 25.89441108703613 L 243.0369415283203 25.83290100097656 L 243.5377807617188 25.62202262878418 C 244.7327728271484 26.2985954284668 245.5147857666016 26.7818660736084 246.3055877685547 27.23877334594727 C 248.3089752197266 28.41619300842285 250.3738403320312 29.62875556945801 251.2525024414062 32.05388641357422 C 251.2613067626953 31.82542991638184 251.45458984375 31.60576438903809 251.8500213623047 31.60576438903809 C 252.0784301757812 31.60576438903809 252.3771667480469 31.71120262145996 252.8341217041016 31.90451431274414 C 258.7914733886719 45.47996520996094 265.1706237792969 58.47549819946289 271.3388977050781 71.03168487548828 L 271.9275817871094 72.2266845703125 C 282.3925476074219 93.51686096191406 293.0068664550781 115.1321487426758 301.0379333496094 138.8210906982422 C 303.190673828125 137.1164703369141 305.7564086914062 136.2905120849609 308.4187622070312 136.2905120849609 C 314.8681640625 136.2905120849609 320.46533203125 140.9826202392578 323.1539916992188 145.6044158935547 C 323.7778625488281 145.9295349121094 325.016845703125 147.4408569335938 327.1695251464844 150.2438354492188 C 328.1536865234375 151.5090942382812 328.8390197753906 152.3613891601562 329.4013366699219 153.0116119384766 C 331.2378234863281 158.8811187744141 334.5503845214844 163.2481384277344 337.722412109375 167.4833374023438 C 342.6165466308594 173.9151611328125 347.5810546875 180.4524688720703 347.7304382324219 191.717041015625 C 346.4827270507812 196.6463623046875 345.1207885742188 201.3648376464844 343.7763977050781 205.9602813720703 C 340.3056640625 217.7344512939453 336.8525085449219 229.4998321533203 335.701416015625 243.3301239013672 C 337.3269653320312 248.4615631103516 339.1897583007812 253.9883728027344 340.9822387695312 259.3394775390625 C 343.6709594726562 267.2563171386719 346.4476013183594 275.4543151855469 348.477294921875 283.0811462402344 L 347.7831726074219 283.5468444824219 C 343.9609680175781 276.6053466796875 341.4567565917969 268.4600524902344 339.0491638183594 260.5783996582031 C 337.4324340820312 255.1921691894531 335.6662902832031 249.4368591308594 333.6101989746094 244.2351379394531 C 334.4449462890625 229.798583984375 337.9684143066406 217.9980621337891 341.3952331542969 206.5841217041016 L 341.7994079589844 205.2309722900391 C 343.108642578125 200.802490234375 344.4441833496094 196.2421875 345.5952453613281 191.611572265625 C 345.1559448242188 180.5842895507812 340.0156860351562 173.8888244628906 335.0336608886719 167.4305877685547 C 334.1549987792969 166.288330078125 333.2675476074219 165.1548309326172 332.4152526855469 163.9862060546875 C 332.5645751953125 164.2761688232422 332.5909729003906 164.6100463867188 332.5997009277344 164.9263763427734 L 332.6524658203125 165.7347564697266 L 331.7913818359375 165.33056640625 C 328.8390197753906 162.597900390625 326.8971557617188 158.6087341308594 324.858642578125 154.3647766113281 C 321.291259765625 147.0190734863281 317.6360168457031 139.4537353515625 308.4011535644531 138.3026733398438 C 306.1957092285156 138.8913879394531 304.1923522949219 140.0336608886719 302.5668334960938 140.9386901855469 C 300.0098876953125 142.3621368408203 297.4441833496094 143.7943725585938 293.7274169921875 144.1018829345703 C 294.2458190917969 146.0613250732422 295.6693115234375 149.3300018310547 297.9625549316406 153.3367309570312 C 298.8061218261719 153.2752075195312 299.2015075683594 153.2049255371094 299.6847534179688 153.0819396972656 C 300.1767883300781 152.9325408935547 300.6864929199219 152.8007202148438 301.327880859375 152.8007202148438 C 301.5123901367188 152.8007202148438 301.7145080566406 152.8183135986328 301.9341430664062 152.8446655273438 C 308.8053588867188 159.8037261962891 304.3856506347656 170.0578308105469 301.1433410644531 177.5616607666016 L 301.0818481445312 177.5616607666016 C 292.1018371582031 177.5616607666016 291.5746154785156 168.4850006103516 291.0386352539062 159.6894989013672 C 290.529052734375 151.0785522460938 289.9930725097656 142.2215576171875 282.1553039550781 141.4571075439453 C 283.3415222167969 143.1353759765625 283.2096862792969 148.7500762939453 282.5682983398438 151.1312713623047 L 282.4101257324219 151.719970703125 L 281.7335510253906 151.3333435058594 C 281.5578002929688 151.1312713623047 281.4084167480469 151.0785522460938 281.1975402832031 151.0785522460938 C 280.8724365234375 151.0785522460938 280.44189453125 151.2718353271484 279.9761962890625 151.4739379882812 C 279.2205505371094 151.8078460693359 278.5527648925781 152.0890197753906 277.814697265625 152.0890197753906 C 277.3665466308594 152.0890197753906 276.94482421875 151.9835815429688 276.5405883789062 151.7639007568359 C 276.7866516113281 155.392822265625 276.6372680664062 159.2413940429688 276.4703369140625 163.3272094726562 C 276.0749206542969 172.7641296386719 275.6707153320312 182.5525054931641 277.5422973632812 191.6203918457031 C 279.2205505371094 211.0301971435547 285.2482299804688 226.3893585205078 291.1001892089844 241.2652587890625 C 295.9679870605469 253.6544799804688 300.9500427246094 266.3776245117188 303.4630432128906 281.3062744140625 L 306.2132873535156 280.9811401367188 C 311.2480773925781 280.6911926269531 316.9945373535156 280.3221435546875 322.8289489746094 280.3221435546875 C 335.9913635253906 280.3221435546875 344.4705505371094 282.1585693359375 348.7321166992188 285.9544067382812 L 348.442138671875 286.7012939453125 C 341.6764221191406 284.337646484375 330.2625122070312 282.8790588378906 317.7150573730469 282.8790588378906 C 312.328857421875 282.8790588378906 307.1358947753906 283.1514282226562 302.7162170410156 283.7225952148438 L 302.5668334960938 283.7225952148438 L 302.1889343261719 283.3359680175781 C 298.8588256835938 269.1278686523438 294.105224609375 256.07080078125 289.5010070800781 243.4267883300781 C 284.6155395507812 229.9216156005859 279.615966796875 216.1792297363281 276.2594299316406 201.0748748779297 C 246.3759002685547 209.0004425048828 214.6031799316406 216.4515991210938 186.5560302734375 223.0328674316406 C 150.741455078125 231.4504852294922 113.7230606079102 240.1493377685547 77.82938385009766 249.876220703125 C 84.53363800048828 271.4299926757812 87.76715087890625 302.8775939941406 86.39642333984375 331.7243347167969 L 85.57926177978516 331.8825073242188 C 84.99054718017578 325.3802795410156 84.69180297851562 318.816650390625 84.39305114746094 312.455078125 C 83.17169189453125 285.6029357910156 81.89763641357422 257.9951477050781 70.747314453125 240.825927734375 C 70.89669036865234 234.8157958984375 67.16233825683594 226.5387115478516 59.66728591918945 216.21435546875 C 58.92041397094727 216.4515991210938 58.08567810058594 216.5218963623047 57.34759902954102 216.5218963623047 C 52.18101501464844 216.5218963623047 50.85423278808594 212.7348327636719 50.24794769287109 209.4134521484375 C 44.96714019775391 214.421875 47.66465759277344 221.1612701416016 50.52033615112305 228.3224334716797 C 53.4550895690918 235.6769256591797 56.44256591796875 243.2071228027344 50.16008377075195 248.6988067626953 L 50.06343078613281 248.7690887451172 L 49.57137298583984 248.7427215576172 C 46.50481796264648 246.7745056152344 44.23784255981445 243.8309631347656 42.23447799682617 241.2388610839844 C 40.52106857299805 239.0421905517578 38.83402252197266 236.8630981445312 36.73400115966797 235.1408996582031 C 36.08378219604492 231.7756042480469 36.61098480224609 229.2274627685547 38.1047248840332 227.4437561035156 C 39.54574203491211 225.7567291259766 41.77756118774414 224.8429107666016 44.55416488647461 224.8429107666016 C 44.96714019775391 224.8429107666016 45.3889045715332 224.8604431152344 45.8194465637207 224.9043884277344 C 44.47509002685547 222.5232086181641 44.72111892700195 220.0014190673828 45.06379699707031 216.7855072021484 C 43.93031311035156 216.7679138183594 42.53322219848633 216.6448822021484 41.18006896972656 216.5306854248047 C 39.20306015014648 216.3637390136719 37.57752227783203 216.2231597900391 36.11893081665039 215.9331665039062 C 36.27709579467773 216.1177062988281 36.36495590209961 216.3022308349609 36.48797225952148 216.6009826660156 C 36.63734436035156 216.9348602294922 36.76914596557617 217.2511749267578 36.76914596557617 217.7080841064453 L 36.76914596557617 217.8750305175781 L 36.26830291748047 218.1825561523438 C 35.15239715576172 218.1737823486328 35.05574035644531 217.0930328369141 34.99423599243164 216.5043029785156 C 34.95908737182617 216.23193359375 34.9327278137207 215.8365325927734 34.80971527099609 215.7574615478516 C 34.74820709228516 215.8365325927734 34.42309951782227 215.8365325927734 34.08041381835938 215.8365325927734 C 27.94729804992676 215.8365325927734 23.36942863464355 217.1105804443359 20.3116569519043 219.6323547363281 C 18.06225967407227 225.5546264648438 16.12918663024902 233.9546966552734 14.70573997497559 240.0966339111328 L 14.30155181884766 241.9242401123047 C 13.84464359283447 243.9188079833984 13.43167114257812 245.6322174072266 13.08898830413818 246.9151000976562 C 13.45803070068359 251.7829284667969 13.15049743652344 256.3959350585938 12.85174751281738 260.8595886230469 C 12.38605213165283 268.003173828125 11.95550346374512 274.0923767089844 14.24004745483398 279.9618530273438 C 17.06057739257812 283.5292663574219 20.03926849365234 287.1493835449219 23.0003833770752 290.76953125 C 31.08415031433105 300.663330078125 39.26456832885742 310.6274719238281 45.98640441894531 321.7601928710938 C 46.55753326416016 328.90380859375 46.50481796264648 336.26708984375 46.46088027954102 343.37548828125 C 46.43451690673828 347.1625671386719 46.40816116333008 350.3521728515625 46.46088027954102 353.2693481445312 C 50.60820770263672 350.9935913085938 54.69401168823242 348.1378784179688 58.99949645996094 345.1416320800781 C 66.14307403564453 340.1947326660156 73.40967559814453 335.142333984375 82.67964935302734 332.7787475585938 L 83.12776947021484 333.455322265625 C 79.11224365234375 336.15283203125 74.89463043212891 338.6570739746094 70.41341400146484 341.3106384277344 C 61.89910888671875 346.3453979492188 53.05968475341797 351.582275390625 45.48555755615234 357.2848510742188 L 45.00229263305664 357.6626586914062 L 44.74747085571289 357.86474609375 Z M 181.7760772705078 214.9139404296875 L 181.3630981445312 215.0720977783203 C 161.654541015625 218.5076751708984 142.6313018798828 223.6830444335938 126.3671264648438 228.2433624267578 C 117.0971527099609 230.4575958251953 108.1083602905273 232.9354553222656 99.62040710449219 235.6065826416016 C 97.14255523681641 236.0283660888672 94.94587707519531 236.7225189208984 92.99522399902344 237.3200073242188 C 90.67554473876953 238.05810546875 88.47008514404297 238.7434387207031 85.98345184326172 239.1124877929688 C 85.06083679199219 239.9823913574219 83.17169189453125 240.3250579833984 81.33527374267578 240.6501770019531 C 79.3494873046875 241.0016326904297 77.18796539306641 241.3794860839844 76.44989013671875 242.530517578125 C 76.11598968505859 243.0137939453125 76.05448150634766 243.6376495361328 76.23899078369141 244.428466796875 C 88.23284149169922 241.3179473876953 100.7714614868164 237.8999328613281 112.8619689941406 234.5785522460938 L 113.5033950805664 234.40283203125 C 134.0730743408203 228.7793426513672 155.3720550537109 222.9537658691406 177.3124084472656 218.7624816894531 C 178.9028167724609 217.8926239013672 181.5652008056641 216.0561981201172 181.7760772705078 214.9139404296875 M 44.79141235351562 227.7512817382812 L 44.48387145996094 227.8742980957031 C 43.32402801513672 227.8742980957031 42.59473419189453 228.014892578125 42.19932556152344 228.3575897216797 C 42.95498657226562 229.6931762695312 43.43824768066406 231.5559387207031 43.93031311035156 233.5329437255859 C 45.00229263305664 237.6714935302734 46.10062789916992 241.9242401123047 49.44836044311523 242.3723754882812 C 48.29729843139648 238.7434387207031 47.12866592407227 235.0706176757812 45.97761154174805 231.5119781494141 L 45.3625373840332 229.5174102783203 L 44.79141235351562 227.7512817382812 Z M 54.51828002929688 203.6317901611328 C 55.12456893920898 203.6317901611328 55.73084259033203 203.7987365722656 56.2844123840332 204.0799255371094 C 60.765625 211.0038604736328 64.3681640625 218.5428314208984 67.84770202636719 225.8182067871094 C 70.04438018798828 230.4048767089844 72.24104309082031 234.9739837646484 74.56073760986328 239.3145904541016 C 105.0681686401367 226.8462524414062 141.2693634033203 217.7520446777344 185.0535125732422 211.4607696533203 C 174.0086212158203 188.123291015625 165.301025390625 162.0004272460938 156.8569946289062 136.7210693359375 C 147.6221771240234 109.0868911743164 138.1940307617188 80.90795135498047 125.9102172851562 55.30349731445312 C 114.4435729980469 58.73031234741211 102.2300491333008 61.7441520690918 90.39437103271484 64.64375305175781 C 63.88490295410156 71.14591979980469 36.79550933837891 77.79745483398438 14.24004745483398 88.50843811035156 C 19.4593448638916 107.2504806518555 25.40794372558594 125.8870544433594 30.66238594055176 142.3269805908203 L 30.87327003479004 142.9508361816406 C 37.31392288208008 163.1778106689453 43.96545791625977 184.0726165771484 49.46593475341797 205.7230529785156 C 49.94041442871094 205.5472869873047 50.54669189453125 205.1958465576172 51.18812561035156 204.8355865478516 C 52.37432479858398 204.1414337158203 53.38479614257812 203.6317901611328 54.51828002929688 203.6317901611328 M 39.74783706665039 229.6579895019531 C 39.14155578613281 231.2308197021484 39.19427490234375 233.1111907958984 39.90599822998047 234.7982330322266 C 40.45077896118164 236.1162261962891 41.39973449707031 237.1530609130859 42.44535064697266 237.6011962890625 L 41.82150268554688 236.2480163574219 C 41.18885803222656 233.8228759765625 40.60894012451172 231.5647277832031 39.74783706665039 229.6579895019531 M 125.5148086547852 225.8533782958984 C 113.1694946289062 228.8935699462891 103.0911483764648 231.7492218017578 93.75968170166016 234.8860778808594 C 104.2422180175781 231.6701507568359 114.8829040527344 228.7178344726562 125.5148086547852 225.8533782958984 M 274.0803527832031 192.5693511962891 C 266.7082824707031 194.2915344238281 259.3625793457031 195.9873657226562 252.0608825683594 197.6480712890625 C 229.5229949951172 202.8058471679688 208.3822021484375 207.6385345458984 188.1552124023438 213.358642578125 C 189.4468688964844 214.2637023925781 191.2744903564453 214.8260498046875 193.7699127197266 214.8260498046875 C 196.7222595214844 214.8260498046875 200.1139068603516 214.0616302490234 203.1101684570312 213.3762512207031 C 205.8428497314453 212.7611694335938 208.0834503173828 212.2691497802734 209.9462127685547 212.1636962890625 C 212.511962890625 211.4255981445312 215.2621917724609 210.7314453125 217.9772644042969 210.0460968017578 L 219.1107482910156 209.7649078369141 C 223.6183319091797 208.6402130126953 227.6601867675781 207.6209869384766 231.5439453125 206.3732604980469 C 237.9494323730469 204.5544128417969 244.5745697021484 202.8409881591797 251.0328369140625 201.2066650390625 L 252.4211273193359 200.8639831542969 C 259.7316589355469 199.001220703125 267.2794189453125 197.0593566894531 274.5460205078125 194.9856872558594 C 274.1945495605469 194.7835845947266 274.2384948730469 194.1948852539062 274.2648620605469 193.6061553955078 C 274.3439331054688 192.8329467773438 274.2648620605469 192.6308746337891 274.2121276855469 192.5781555175781 L 274.0803527832031 192.5693511962891 Z M 53.33208465576172 206.5665740966797 C 52.90152740478516 206.5665740966797 52.5588493347168 206.6368713378906 52.18101501464844 206.8038024902344 C 52.47976684570312 210.2921295166016 53.97350692749023 214.2197570800781 56.74131393432617 214.2197570800781 C 57.47939682006836 214.2197570800781 58.29656600952148 213.9737396240234 59.12251281738281 213.481689453125 C 59.03464508056641 211.9615783691406 58.48108673095703 210.8808288574219 57.88359451293945 209.7209625244141 C 57.47939682006836 208.90380859375 57.01370239257812 207.9812164306641 56.77645874023438 206.8389434814453 C 56.53043746948242 206.8828735351562 56.29319381713867 206.9004821777344 56.07352828979492 206.9004821777344 C 55.66933441162109 206.9004821777344 55.27393341064453 206.8389434814453 54.86096572875977 206.7598724365234 C 54.24589538574219 206.6544036865234 53.78898620605469 206.5665740966797 53.33208465576172 206.5665740966797 M 8.625345230102539 93.40263366699219 C 10.30360412597656 104.1136322021484 14.12582015991211 115.386962890625 17.81623458862305 126.3264083862305 C 20.61919021606445 134.6298217773438 23.49243927001953 143.0650482177734 25.49581146240234 151.2718353271484 C 28.25483322143555 159.7246551513672 30.78540229797363 168.9506988525391 33.00843811035156 177.0783843994141 C 36.36495590209961 189.3621978759766 39.87085723876953 202.0765533447266 44.32571029663086 213.6661987304688 C 45.30982208251953 212.7611694335938 45.98640441894531 211.3553161621094 46.7069091796875 209.8703765869141 C 47.20774841308594 208.7632598876953 47.77889251708984 207.5858001708984 48.57846832275391 206.6632080078125 C 36.24194717407227 168.2477722167969 24.03721809387207 129.3138885498047 11.19984722137451 87.84064483642578 C 11.12955379486084 88.34149169921875 10.70779228210449 88.68417358398438 10.27724456787109 89.00927734375 C 10.04000377655029 89.20259094238281 9.82033634185791 89.36953735351562 9.609455108642578 89.57162475585938 C 10.95382118225098 94.15828704833984 12.54421234130859 99.07884216308594 14.12582015991211 103.8675842285156 L 14.31033802032471 104.456298828125 C 16.04132080078125 109.7634811401367 17.69321823120117 114.7806777954102 18.91457176208496 119.4815521240234 L 18.23799514770508 119.9296875 C 14.8375415802002 114.8333969116211 13.0186939239502 108.3751678466797 11.26135349273682 102.1366195678711 C 10.48812580108643 99.39517211914062 9.63581657409668 96.33739471435547 8.625345230102539 93.40263366699219 M 3.362111330032349 92.54154205322266 L 3.11608362197876 92.91057586669922 C 2.843695878982544 93.05995178222656 2.597668409347534 93.20932006835938 2.31649374961853 93.30598449707031 C 2.131973266601562 93.78924560546875 2.193480253219604 95.13361358642578 2.254987239837646 96.42525482177734 C 2.281347036361694 97.207275390625 2.298920631408691 98.01564788818359 2.254987239837646 98.70980072021484 C 14.70573997497559 130.0343933105469 23.45729827880859 163.7753448486328 33.58836364746094 204.6423034667969 C 35.11724472045898 205.3452301025391 35.7498893737793 207.1640625 36.32981109619141 208.7632598876953 C 37.01517486572266 210.7490386962891 37.55995178222656 212.2867126464844 39.44908905029297 212.2867126464844 C 39.65996932983398 212.2867126464844 39.87085723876953 212.2779083251953 40.09052276611328 212.2251892089844 C 26.26903915405273 163.7225952148438 14.64423656463623 125.6146697998047 3.362111330032349 92.54154205322266 M 229.4087677001953 2.644797086715698 L 222.30029296875 6.818480968475342 L 219.3655548095703 8.549460411071777 C 191.3272247314453 24.9893798828125 162.6825866699219 41.79833984375 131.3404083251953 55.18927001953125 C 148.1230163574219 106.4421005249023 166.9617309570312 159.0832061767578 187.4522857666016 211.4255981445312 C 209.4365997314453 205.0728302001953 228.749755859375 195.5568389892578 247.4390563964844 186.3483581542969 C 256.1115112304688 182.0516510009766 265.065185546875 177.6055755615234 274.3175659179688 173.519775390625 C 273.9748840332031 168.6255798339844 274.3702697753906 163.8280487060547 274.7481079101562 159.1798858642578 C 275.1611328125 154.1626739501953 275.5213623046875 149.7693328857422 275.0205078125 146.0174102783203 L 274.8535766601562 144.7960510253906 L 275.899169921875 145.6747131347656 C 276.3385009765625 146.281005859375 276.4791259765625 147.09814453125 276.6021118164062 147.9065399169922 C 276.83935546875 149.4002685546875 277.0590209960938 150.0417327880859 277.8761901855469 150.1207733154297 C 278.3858032226562 150.0329284667969 278.7812194824219 149.6638793945312 279.2381286621094 149.2772674560547 C 279.7038269042969 148.8642883300781 280.0816650390625 148.5391845703125 280.5824890136719 148.2931671142578 C 280.6791687011719 147.1333160400391 280.3804016113281 146.3161468505859 280.1167602539062 145.5341339111328 C 279.8444213867188 144.7433166503906 279.5719909667969 143.9173736572266 279.6510620117188 142.7223815917969 C 278.7284851074219 142.8893127441406 278.1749267578125 143.3023223876953 277.665283203125 143.7328643798828 C 276.9623718261719 144.3039855957031 276.3736877441406 144.7960510253906 275.6004333496094 144.7960510253906 C 275.2402038574219 144.7960510253906 274.8799438476562 144.6554565429688 274.4845275878906 144.453369140625 L 274.3263549804688 144.3655090332031 L 274.3439331054688 143.7416381835938 C 276.3121643066406 141.0353393554688 278.5527648925781 139.6646118164062 280.9954833984375 139.6646118164062 C 287.8578796386719 139.6646118164062 294.0525207519531 150.3756256103516 296.0734252929688 155.7179412841797 C 295.9416809082031 155.0588989257812 295.888916015625 154.39111328125 295.9591979980469 153.6706085205078 C 280.3189086914062 121.1246719360352 265.8735656738281 86.61052703857422 251.9027252197266 53.22983932495117 C 245.0754547119141 36.92171859741211 238.0197143554688 20.06003952026367 230.9288635253906 3.637694358825684 C 230.2786560058594 3.637694358825684 229.8217163085938 3.207146167755127 229.4527282714844 2.855678081512451 L 229.4087677001953 2.644797086715698 Z M 272.9468383789062 176.4721069335938 C 253.6600646972656 186.0671997070312 236.3238983154297 194.3266754150391 219.9454956054688 201.7514495849609 C 241.3850250244141 196.7869415283203 258.7914733886719 192.8329467773438 274.6250915527344 189.0107421875 C 273.7640075683594 187.5081939697266 273.7288513183594 185.1006317138672 273.6849365234375 182.7897338867188 C 273.6497802734375 180.6545715332031 273.6322021484375 178.115234375 272.9468383789062 176.4721069335938 M 299.2015075683594 164.7330627441406 C 298.4107055664062 165.7962493896484 296.9345397949219 166.1125793457031 295.7483215332031 166.3937683105469 C 295.1596069335938 166.5519104003906 294.6324462890625 166.6925201416016 294.157958984375 166.8682403564453 L 294.4039916992188 167.9226531982422 C 294.8169860839844 171.3846130371094 295.2035522460938 174.5741729736328 298.71826171875 174.5741729736328 C 301.0202941894531 171.7712097167969 301.1433410644531 167.8347930908203 299.2015075683594 164.7330627441406 M 299.579345703125 155.5949096679688 C 299.0433654785156 158.0376129150391 300.0626220703125 160.0409851074219 301.1257934570312 162.1673431396484 C 301.5827331542969 162.9933013916016 301.9956665039062 163.8280487060547 302.3207702636719 164.6891326904297 C 302.2593078613281 164.3991546630859 302.3559265136719 164.0828552246094 302.4789428710938 163.7577362060547 C 302.8040771484375 162.8263702392578 303.129150390625 161.8422393798828 303.3049011230469 160.7614898681641 C 302.8479614257812 160.2342834472656 302.4086608886719 159.4962158203125 302.0044250488281 158.7932739257812 C 301.2575988769531 157.4752502441406 300.6073913574219 156.4208679199219 299.649658203125 155.6564025878906 L 299.579345703125 155.5949096679688 Z M 293.4637756347656 153.9342041015625 C 293.6746826171875 154.1450958251953 293.8328552246094 154.5141296386719 293.9295043945312 154.8568267822266 C 294.166748046875 155.436767578125 294.3775939941406 155.9639434814453 294.078857421875 156.4208679199219 C 293.8416442871094 156.7899017333984 293.4022827148438 156.8953399658203 293.0947265625 156.9304809570312 C 293.7361755371094 159.3292388916016 294.166748046875 162.0794982910156 293.8943786621094 164.5573425292969 L 294.4830322265625 164.2322387695312 C 295.924072265625 163.9159240722656 297.3035888671875 163.6435394287109 297.9977416992188 162.7472839355469 C 297.9010620117188 161.2184143066406 297.3826599121094 159.7422332763672 296.873046875 158.3275604248047 C 296.6885070800781 157.7915954589844 296.5039978027344 157.2995147705078 296.3634033203125 156.8074951171875 L 295.3880615234375 156.4296264648438 C 294.8784484863281 156.0781707763672 294.5884704589844 155.5597534179688 294.2985229492188 155.0588989257812 C 294.0173645019531 154.5756378173828 293.8152465820312 154.1802520751953 293.4637756347656 153.9342041015625 M 285.4239807128906 119.033447265625 C 287.5854797363281 126.282470703125 290.0545349121094 134.4101867675781 293.3144226074219 141.3077392578125 C 293.4022827148438 141.2022857666016 293.5956115722656 141.0880584716797 293.7713012695312 140.9738464355469 C 294.105224609375 140.7365875244141 294.3688354492188 140.5784149169922 294.6500244140625 140.5345001220703 C 291.5746154785156 133.566650390625 288.5256958007812 126.2473220825195 285.4239807128906 119.033447265625 M 255.6809997558594 55.22441482543945 L 259.6174011230469 64.29228973388672 L 262.0601501464844 70.48692321777344 C 266.9718933105469 83.00795745849609 272.5162963867188 97.10182952880859 278.4034118652344 110.7036514282227 C 278.3682250976562 110.5630645751953 278.3154907226562 110.4576263427734 278.2803955078125 110.308235168457 L 277.8849792480469 109.0868911743164 C 277.0590209960938 106.5914688110352 276.3385009765625 104.3157272338867 275.8288879394531 102.2508392333984 L 276.4791259765625 101.8115081787109 C 277.1556701660156 102.5495834350586 277.5686340332031 103.3316040039062 277.9904174804688 104.3772201538086 C 271.5409545898438 86.80381011962891 265.1442565917969 68.51869201660156 255.6809997558594 55.22441482543945 M 247.5796508789062 31.55304336547852 C 250.6989440917969 40.73514938354492 255.2152709960938 48.66075134277344 259.582275390625 56.34032821655273 L 260.1446228027344 57.35079574584961 C 261.1990356445312 59.21357727050781 262.2710266113281 61.10272216796875 263.3166198730469 63.01822280883789 L 261.6735229492188 59.51232147216797 C 257.9479370117188 49.42519378662109 254.1169586181641 39.0217399597168 247.5796508789062 31.55304336547852" fill="#2574da" stroke="none" stroke-width="0"/>
</svg>