<svg xmlns="http://www.w3.org/2000/svg" width="10" height="9" viewBox="0 0 9.57637882232666 9.215278625488281" fill="none">
  <path d="M 0 8.201869010925293 C 0.02011909335851669 8.206459045410156 0.05047591403126717 7.98337459564209 0.05047591403126717 7.98337459564209 C 0.05612305924296379 7.984434604644775 0.2192003279924393 8.821351051330566 0.2192003279924393 8.821351051330566 C 0.3448618650436401 8.850296020507812 0.6011261343955994 7.166576385498047 0.6011261343955994 7.166576385498047 L 0.5351194143295288 9.022197723388672 C 0.8051497340202332 9.084321975708008 2.618061304092407 0 2.618061304092407 0 C 3.02575421333313 0.09424585849046707 0.4196944832801819 8.981603622436523 0.8820989727973938 9.088558197021484 C 1.430631399154663 9.215278625488281 2.789610385894775 0.1959047168493271 2.927624940872192 0.2276727706193924 C 3.042696952819824 0.2544989883899689 0.5665351152420044 8.942424774169922 1.24213981628418 9.098442077636719 C 1.24213981628418 9.098442077636719 3.01940131187439 0.4052219986915588 3.237544059753418 0.4556984901428223 L 1.614888906478882 9.052553176879883 C 1.641008138656616 9.058555603027344 3.547107934951782 0.6833712458610535 3.547107934951782 0.6833712458610535 C 3.547107934951782 0.6833712458610535 1.615241885185242 8.920892715454102 1.987636923789978 9.006667137145996 C 1.987636923789978 9.006667137145996 3.531576871871948 0.835858941078186 3.856671333312988 0.9110439419746399 C 4.358258247375488 1.026822328567505 2.360738039016724 8.961133003234863 2.360738039016724 8.961133003234863 C 2.944568634033203 9.09597110748291 3.961154937744141 1.091064453125 4.166589736938477 1.138716816902161 C 4.690765380859375 1.259789943695068 2.702423334121704 8.908185958862305 2.73348593711853 8.915245056152344 C 2.948451995849609 8.965015411376953 4.476154327392578 1.366389989852905 4.476154327392578 1.366389989852905 C 4.620170116424561 1.399569988250732 2.47651481628418 8.723928451538086 3.106234073638916 8.869358062744141 C 3.119646072387695 8.872533798217773 4.786070823669434 1.594062924385071 4.786070823669434 1.594062924385071 L 3.478982448577881 8.823822975158691 C 3.530516862869263 8.835471153259277 5.095635414123535 1.821735143661499 5.095635414123535 1.821735143661499 C 5.095635414123535 1.821735143661499 3.302138805389404 8.650861740112305 3.852083206176758 8.777935028076172 C 4.126701831817627 8.841470718383789 5.487444400787354 1.693955898284912 5.487444400787354 1.693955898284912 C 5.854545593261719 1.778672218322754 4.224831104278564 8.732048034667969 4.224831104278564 8.732048034667969 C 4.413322925567627 8.775464057922363 6.015151977539062 0.977051854133606 6.015151977539062 0.977051854133606 C 6.090336322784424 0.9943473935127258 4.597578048706055 8.686161041259766 4.597578048706055 8.686161041259766 L 6.526620388031006 0.3303899168968201 C 6.555565357208252 0.3367440700531006 4.59687328338623 8.554143905639648 4.97032642364502 8.640625 C 4.97032642364502 8.640625 6.462025165557861 0.06883084774017334 6.924783706665039 0.1754315346479416 C 6.924783706665039 0.1754315346479416 4.88278865814209 8.488490104675293 5.343428611755371 8.594738006591797 C 5.470502376556396 8.624035835266113 6.885603427886963 0.2890917360782623 7.241760730743408 0.3713362812995911 C 7.694282531738281 0.4758181571960449 5.233298778533936 8.437662124633789 5.71617603302002 8.548851013183594 C 5.757475852966309 8.558381080627441 6.953022480010986 0.7811471223831177 7.481435775756836 0.9029256105422974 L 6.088924407958984 8.503314971923828 C 6.376604080200195 8.569675445556641 7.495554447174072 1.413336515426636 7.714049816131592 1.463812470436096 C 7.749347686767578 1.471931457519531 5.87890100479126 8.322942733764648 6.461672306060791 8.457427978515625 C 6.461672306060791 8.457427978515625 7.400249481201172 1.898332357406616 7.947017669677734 2.024699926376343 C 8.095622062683105 2.058939218521118 6.830891609191895 8.410835266113281 6.834773540496826 8.411540985107422 C 7.052916049957275 8.462018013000488 8.106212615966797 2.568290233612061 8.179632186889648 2.585586786270142 C 8.179632186889648 2.585586786270142 6.992555618286133 8.31623649597168 7.207521438598633 8.366006851196289 L 8.412599563598633 3.146120548248291 L 7.585563659667969 8.297882080078125 C 7.749347686767578 8.335649490356445 8.645214080810547 3.707008361816406 8.645214080810547 3.707008361816406 L 7.991845607757568 8.10621166229248 C 8.100564002990723 8.131274223327637 8.816056251525879 4.253423690795898 8.878181457519531 4.267895221710205 C 8.892654418945312 4.271071910858154 8.165513038635254 7.727463722229004 8.427777290344238 7.788177013397217 C 8.566500663757324 7.820297241210938 9.110795974731445 4.828780651092529 9.110795974731445 4.828780651092529 L 8.889477729797363 7.35753870010376 C 8.961133003234863 7.374129295349121 9.34376335144043 5.389316082000732 9.34376335144043 5.389316082000732 L 9.390711784362793 6.7557053565979 C 9.457070350646973 6.770884037017822 9.536491394042969 5.941024780273438 9.57637882232666 5.950202465057373" fill="none" stroke="#2777df" stroke-width="0.30000001192092896"/>
</svg>