<svg xmlns="http://www.w3.org/2000/svg" width="1" height="1" viewBox="90.51000213623047 301.1460266113281 1 1" fill="none">
  <path d="M 90.91439819335938 301.1460266113281 C 91.07035827636719 301.1962280273438 90.85855865478516 301.2825317382812 90.81344604492188 301.2975158691406 C 90.94287872314453 301.4071655273438 90.88958740234375 301.4156188964844 90.86363983154297 301.6014404296875 C 90.92229461669922 301.5854187011719 91.12111663818359 301.4249267578125 90.91439819335938 301.4489440917969 C 90.92258453369141 301.3899536132812 91.00661468505859 301.4066467285156 91.06584167480469 301.3984375 C 91.03594970703125 301.5938415527344 91.23645782470703 301.8180541992188 90.96488189697266 301.7021484375 C 91.00182342529297 301.7495422363281 91.05624389648438 301.7785949707031 91.11688995361328 301.8027954101562 C 91.10418701171875 301.8919372558594 91.02973937988281 301.9179077148438 90.91439819335938 301.9043884277344 C 90.97644805908203 301.736572265625 90.7373046875 301.6167297363281 90.71221160888672 301.7021484375 C 90.63381195068359 301.6305236816406 90.73927307128906 301.3775329589844 90.51000213623047 301.3485107421875 C 90.66624450683594 301.2190551757812 90.79934692382812 301.358642578125 90.91439819335938 301.1460266113281" fill="#2777df" stroke="none" stroke-width="0"/>
</svg>