<svg xmlns="http://www.w3.org/2000/svg" width="2" height="4" viewBox="443.1475219726562 326.5970153808594 2.189208984375 3.532379150390625" fill="none">
  <path d="M 445.0138244628906 326.900146484375 C 445.0234069824219 326.9683532714844 445.2230529785156 326.9945983886719 445.0138244628906 327.0014038085938 C 445.0149230957031 327.0504455566406 445.0749816894531 327.0405883789062 445.114501953125 327.0518798828125 L 445.114501953125 327.3051147460938 C 444.9932250976562 327.1390380859375 444.9604797363281 327.1144409179688 444.7611083984375 327.1026306152344 C 444.7935485839844 327.1539306640625 444.8770446777344 327.1550598144531 444.8615112304688 327.2540283203125 C 444.9117126464844 327.2526550292969 444.9012756347656 327.192626953125 444.91259765625 327.15283203125 C 445.0259399414062 327.3970642089844 444.9432678222656 327.5761108398438 444.6593322753906 327.8104553222656 C 444.7038879394531 327.7204895019531 444.8003540039062 327.6813049316406 444.7611083984375 327.5064392089844 C 444.7016296386719 327.5214233398438 444.614501953125 327.7935485839844 444.609130859375 327.5574951171875 C 444.5679626464844 327.5668029785156 444.5586547851562 327.6082458496094 444.5079345703125 327.6082458496094 C 444.5284729003906 327.7396545410156 444.6585083007812 327.7599487304688 444.6593322753906 327.9111328125 C 444.4114074707031 328.0761108398438 444.4029541015625 328.422119140625 444.4568481445312 328.77099609375 C 444.278076171875 328.8485107421875 444.4269714355469 328.5986938476562 444.3056640625 328.6184387207031 C 444.2332153320312 328.6302795410156 444.2884826660156 328.7695617675781 444.2050170898438 328.77099609375 C 444.2504272460938 328.767333984375 444.3271179199219 328.8832092285156 444.3564453125 328.8209533691406 C 444.4791259765625 328.9528503417969 444.197998046875 328.8637390136719 444.1539611816406 328.922119140625 C 444.1754150390625 329.018310546875 444.2986755371094 329.0135192871094 444.2557983398438 329.1742248535156 C 444.1181335449219 329.201904296875 444.129150390625 329.2148742675781 443.9517822265625 329.2757873535156 C 443.9286193847656 329.1683654785156 444.0242614746094 329.1790466308594 444.1032104492188 329.1742248535156 C 444.0913696289062 329.1198120117188 444.0033874511719 329.14013671875 444.0025634765625 329.0738525390625 C 443.9052429199219 329.0941772460938 443.96337890625 329.2695922851562 443.8003234863281 329.2250061035156 C 443.8347473144531 329.3259582519531 443.95458984375 329.3409118652344 444.0025634765625 329.427490234375 C 443.9932250976562 329.4853210449219 443.9517822265625 329.4553833007812 443.9517822265625 329.427490234375 C 443.7490234375 329.5761413574219 443.6215209960938 329.4700927734375 443.9012756347656 329.7811279296875 C 443.7955627441406 329.6034851074219 444.0163269042969 329.7360229492188 443.9012756347656 329.8826599121094 C 443.8341674804688 329.8318481445312 443.7490234375 329.7986145019531 443.6996459960938 329.7303771972656 C 443.53271484375 329.8677062988281 443.7850952148438 329.9277648925781 443.8003234863281 329.9325561523438 C 443.7687683105469 330.12939453125 443.6878356933594 329.8586730957031 443.4977111816406 329.9835815429688 C 443.6370239257812 329.8482666015625 443.4371032714844 329.8736572265625 443.4464416503906 329.7303771972656 C 443.3978881835938 329.7317504882812 443.4072570800781 329.79296875 443.3959655761719 329.8318481445312 C 443.3485717773438 329.8031005859375 443.3195495605469 329.691162109375 443.2952880859375 329.7811279296875 C 443.1748046875 329.7658996582031 443.35107421875 329.6446533203125 443.3959655761719 329.6299743652344 C 443.3779296875 329.5592041015625 443.3071594238281 329.62548828125 443.2952880859375 329.6804504394531 C 443.1475219726562 329.5938720703125 443.4097290039062 329.4957275390625 443.3451843261719 329.3268432617188 C 443.5973205566406 329.1737060546875 443.5611877441406 329.44384765625 443.7498779296875 329.1246032714844 C 443.7360229492188 328.9469299316406 443.5259704589844 329.2156982421875 443.5476684570312 329.0738525390625 C 443.6404418945312 328.8959045410156 443.869140625 328.2983093261719 444.2050170898438 328.0622863769531 C 444.1703796386719 327.930908203125 444.2154846191406 327.6153259277344 444.4072265625 327.7086791992188 C 444.4537353515625 327.5439758300781 444.4131164550781 327.4463806152344 444.5079345703125 327.2540283203125 C 444.5829162597656 327.2802734375 444.6350402832031 327.3287963867188 444.7100524902344 327.3550109863281 C 444.7258911132812 327.2222290039062 444.5140991210938 327.3149719238281 444.5586547851562 327.15283203125 C 444.8149719238281 327.1423950195312 444.7670593261719 326.9054565429688 444.8116149902344 326.7991943359375 C 444.9675598144531 326.8350219726562 444.9078063964844 326.8350219726562 445.0637512207031 326.7991943359375 C 445.0628967285156 326.7216491699219 444.9261169433594 326.6330871582031 444.9630737304688 326.7991943359375 C 444.8116149902344 326.7659301757812 445.0112915039062 326.691162109375 444.9630737304688 326.5970153808594 C 445.0911254882812 326.6029052734375 445.1596374511719 326.6708374023438 445.1652526855469 326.7991943359375 C 445.2080993652344 326.8087768554688 445.212646484375 326.7797546386719 445.2154541015625 326.7484436035156 C 445.3367309570312 326.7935485839844 445.1060180664062 326.9024353027344 445.0138244628906 326.900146484375" fill="#2777df" stroke="none" stroke-width="0"/>
</svg>