<svg xmlns="http://www.w3.org/2000/svg" width="1" height="1" viewBox="304.6880493164062 253.1778106689453 1 1" fill="none">
  <path d="M 304.8394470214844 253.2919921875 C 304.8970031738281 253.3024597167969 304.8679504394531 253.3427734375 304.8394470214844 253.3427734375 C 304.9265747070312 253.5215911865234 304.9418029785156 253.1778106689453 305.0416870117188 253.3427734375 C 304.9627075195312 253.380859375 304.9666442871094 253.5029449462891 304.8394470214844 253.4944763183594 C 304.9468994140625 253.572021484375 305.0278625488281 253.6769561767578 305.1432189941406 253.7466278076172 C 305.0614013671875 253.8955230712891 304.9875183105469 254.1078643798828 304.78955078125 253.9998626708984 C 304.8318481445312 253.9242553710938 304.9519653320312 253.9265289306641 305.0416870117188 253.8985900878906 C 304.9815979003906 253.831787109375 305.0227355957031 253.8190765380859 305.0416870117188 253.7466278076172 C 305.0365600585938 253.6515808105469 304.8746948242188 253.7119140625 304.8901977539062 253.5951843261719 C 304.78955078125 253.5962982177734 304.8256530761719 253.7330780029297 304.6880493164062 253.6964111328125 L 304.6880493164062 253.4944763183594 C 304.88232421875 253.6228179931641 304.781982421875 253.3636474609375 304.8394470214844 253.2919921875" fill="#2777df" stroke="none" stroke-width="0"/>
</svg>