<svg xmlns="http://www.w3.org/2000/svg" width="256" height="219" viewBox="0 0 256.0503234863281 219.0190582275391" fill="none">
  <path d="M 213.089599609375 219.0190582275391 C 209.4300079345703 219.0190582275391 206.0113220214844 215.980224609375 203.4449768066406 213.3212432861328 C 201.9069976806641 211.6999053955078 200.3042144775391 209.8654937744141 198.7940673828125 208.0959167480469 C 197.0152130126953 206.0298767089844 195.5977020263672 204.3807373046875 194.1987457275391 202.9261627197266 C 193.0220947265625 201.7217712402344 191.9566650390625 200.7304077148438 190.9560699462891 199.970703125 C 188.1951599121094 197.4136352539062 185.4435424804688 195.0233154296875 182.7845611572266 192.7534637451172 C 178.5320281982422 189.1123962402344 174.4555206298828 185.6195831298828 170.4438781738281 181.4782409667969 L 169.0634307861328 180.014404296875 C 167.23828125 178.1985015869141 165.44091796875 176.3363037109375 163.6620788574219 174.5018615722656 C 158.2421722412109 168.9059448242188 152.9705352783203 163.2451934814453 147.8841705322266 157.7604370117188 C 142.6959075927734 152.1923217773438 137.4891052246094 146.5871276855469 132.1526031494141 141.0838470458984 C 130.1977386474609 139.0548706054688 128.1873016357422 137.0073699951172 126.139762878418 134.9598541259766 C 124.9446105957031 133.7832183837891 124.4999084472656 132.9493865966797 124.0459365844727 132.1618957519531 C 123.5085906982422 131.1705474853516 123.0638732910156 130.4479064941406 122.359748840332 129.6974639892578 C 114.1419067382812 120.7569580078125 104.8771362304688 110.9641036987305 94.05589294433594 99.77226257324219 C 85.28215789794922 90.68352508544922 76.37873077392578 81.60405731201172 67.47528076171875 72.54312133789062 L 65.32585906982422 70.34736633300781 L 62.66687393188477 67.66985321044922 C 53.92093276977539 58.75714874267578 45.23984909057617 49.90929412841797 36.73479461669922 41.10776519775391 C 21.81852340698242 25.69119644165039 10.2375659942627 13.30420398712158 0.3057372570037842 2.130896329879761 L 0.1482362449169159 1.945600867271423 L 0 1.445303678512573 C 1.843688249588013 0.3891201615333557 3.298256397247314 0 4.88253116607666 0 C 7.226516246795654 0 9.496383666992188 0.8338289260864258 11.71066284179688 1.621333956718445 C 13.98052883148193 2.436633586883545 16.04657363891602 3.187079668045044 18.11261749267578 3.187079668045044 C 18.56658935546875 3.187079668045044 19.02982711791992 3.159285306930542 19.49306678771973 3.075901985168457 C 63.50070190429688 20.85498809814453 107.9159774780273 35.62302780151367 150.8859558105469 49.91855621337891 C 184.683837890625 61.17524719238281 219.6397857666016 72.81179809570312 254.0213165283203 85.80099487304688 C 254.4197235107422 86.143798828125 254.5772247314453 86.18084716796875 254.7625274658203 86.25497436523438 C 255.0126495361328 86.33835601806641 255.4017791748047 86.45880126953125 255.7445831298828 86.81085968017578 L 255.7908935546875 86.87570953369141 L 256.0503234863281 87.43159484863281 C 255.4203033447266 102.1625900268555 250.7601165771484 117.0325241088867 246.2574615478516 131.4299774169922 C 243.8022766113281 139.2216491699219 241.4675750732422 146.7260894775391 239.6702117919922 154.1008453369141 C 235.9920959472656 162.2445831298828 233.3609008789062 171.1572875976562 230.7760314941406 179.7920532226562 C 226.6068878173828 193.7540588378906 222.3265686035156 208.0032653808594 214.0253295898438 218.7689361572266 L 213.089599609375 219.0190582275391 Z M 210.5973815917969 203.2041320800781 L 210.1989898681641 203.5932312011719 L 209.2354583740234 204.5197296142578 L 205.8352813720703 207.7901763916016 L 213.2192993164062 215.1556549072266 C 231.4060211181641 170.6477355957031 244.5619964599609 128.5578918457031 252.0757446289062 90.15544128417969 C 245.8220062255859 86.16233062744141 239.3829956054688 84.35569763183594 233.1292724609375 82.60466003417969 C 227.5982208251953 81.05743408203125 221.3166961669922 79.306396484375 215.2760772705078 75.66534423828125 C 160.3267517089844 57.47860717773438 103.4688949584961 38.03186416625977 53.3279914855957 20.86425399780273 L 40.06084442138672 16.32451820373535 C 30.32357788085938 12.97993755340576 20.5770435333252 9.644621849060059 10.83051109313965 6.337099552154541 L 21.81852340698242 17.20466995239258 C 23.32867622375488 15.42583560943604 24.81103897094727 14.44377040863037 26.21928405761719 14.11950397491455 L 26.7844352722168 14.981125831604 L 26.58987426757812 15.8334846496582 C 27.26620483398438 16.46348762512207 27.41444206237793 16.74143409729004 27.45149993896484 17.05643272399902 C 27.79429626464844 16.38937187194824 28.34091567993164 16.12069129943848 28.89680290222168 16.12069129943848 L 29.86960220336914 16.17628288269043 L 29.42489624023438 17.13981819152832 C 29.00797843933105 17.65864372253418 28.46135902404785 18.16820526123047 27.88694381713867 18.67776870727539 C 26.84002685546875 19.58571624755859 25.83943176269531 20.47513198852539 25.58928108215332 21.23484420776367 L 26.81223106384277 22.36514663696289 C 28.04444122314453 23.64368438720703 29.20253753662109 24.80178070068359 30.34210586547852 25.94134330749512 L 30.88872718811035 26.46943855285645 L 32.13020706176758 27.68312072753906 C 33.0937385559082 28.64665603637695 34.04801177978516 29.5823974609375 34.9837532043457 30.53666877746582 C 36.14184951782227 31.7410888671875 37.29067993164062 33.01036071777344 38.44877624511719 34.38154602050781 C 38.50436401367188 34.11286544799805 38.81010055541992 33.76080703735352 39.14363098144531 33.42727661132812 C 40.1998176574707 32.22285461425781 41.0799674987793 31.22226142883301 42.12688446044922 31.22226142883301 L 43.55366516113281 31.44461631774902 L 42.59938812255859 32.39888763427734 C 41.74703216552734 32.89918518066406 41.06143951416016 33.79786682128906 40.44996643066406 34.61316680908203 C 39.60687255859375 35.73420715332031 38.9398078918457 36.62362289428711 37.96700668334961 36.71627044677734 L 37.83730316162109 36.71627044677734 L 37.38332748413086 36.39200210571289 C 36.87376403808594 35.47479248046875 36.08625793457031 34.4463996887207 35.06713485717773 33.39947891235352 C 33.99242401123047 32.29697799682617 32.74168014526367 31.25932121276855 31.53726005554199 30.50887680053711 C 44.46160888671875 43.6185188293457 57.62683486938477 57.40448760986328 70.94956970214844 71.18119812011719 C 88.22835540771484 89.05294036865234 105.5905227661133 106.7671661376953 121.1738662719727 122.3690338134766 L 121.7667999267578 122.2578582763672 C 122.3319625854492 122.1930084228516 123.0268173217773 121.4703521728516 123.7309417724609 120.7569580078125 C 124.7871170043945 119.6822509765625 125.7321319580078 118.7094497680664 126.8438949584961 118.6909255981445 L 127.7981643676758 118.6816482543945 L 127.2978668212891 119.7285690307617 C 126.8809585571289 120.2103424072266 126.3250732421875 120.7291641235352 125.7599258422852 121.2109298706055 C 124.8056564331055 122.0818176269531 123.9718170166016 122.822998046875 123.7865295410156 123.4807968139648 L 136.5811614990234 136.5811767578125 C 136.6738128662109 136.4514617919922 137.563232421875 135.4786682128906 138.1376342773438 134.8486785888672 C 139.0826568603516 133.8110046386719 139.9813537597656 132.8289489746094 141.0189971923828 132.8289489746094 L 142.2975311279297 132.9586486816406 L 141.5470886230469 133.9499969482422 C 140.62060546875 134.6448516845703 139.6755981445312 135.7102966308594 138.8232421875 136.6367645263672 C 137.8133697509766 137.74853515625 137.0351409912109 138.6009063720703 136.3866119384766 138.8973693847656 L 136.1920471191406 138.9900207519531 L 135.5342407226562 138.4989929199219 C 135.3118896484375 137.8597259521484 134.9505615234375 137.2667846679688 134.4502716064453 136.7572021484375 C 133.6905670166016 135.96044921875 132.6158447265625 135.3860321044922 131.5318603515625 135.2192535400391 C 142.6495971679688 146.8928527832031 152.3312683105469 157.2323455810547 161.299560546875 166.5249176025391 C 176.2436370849609 181.978515625 189.9832763671875 195.2919921875 203.3245239257812 207.2250366210938 C 204.1954193115234 206.8451690673828 204.9273376464844 206.1595916748047 205.6221771240234 205.5110168457031 C 206.5950012207031 204.5938415527344 207.5770721435547 203.6580810546875 208.6980743408203 203.4727935791016 L 210.0322113037109 203.2689819335938 L 210.5973815917969 203.2041320800781 Z M 21.52204895019531 19.56718635559082 C 22.12425804138184 20.01189613342285 22.70793914794922 20.44733810424805 23.31941413879395 20.85498809814453 L 23.64368057250977 20.00263023376465 C 24.22736167907715 20.00263023376465 25.06118965148926 19.07615280151367 25.75604629516602 18.32570838928223 C 25.5429573059082 18.2608528137207 25.35766410827637 18.23305892944336 25.19089889526367 18.23305892944336 C 24.77398300170898 18.23305892944336 24.44045257568359 18.40908813476562 23.99574089050293 18.67776870727539 C 23.32867622375488 19.03909492492676 22.49484825134277 19.5115966796875 21.52204895019531 19.56718635559082 M 5.809007167816162 4.928855419158936 C 8.125199317932129 6.457541942596436 10.25609493255615 8.616232872009277 12.26655006408691 10.71007061004639 L 13.13743686676025 11.59022331237793 C 15.58333492279053 14.13803386688232 18.11261749267578 16.74143409729004 20.65116119384766 18.83526992797852 L 19.29850387573242 17.51040840148926 L 18.43688201904297 16.46348762512207 C 16.77849006652832 14.44377040863037 14.87921333312988 12.17390251159668 12.9428768157959 10.17271327972412 C 10.1171236038208 7.235782146453857 7.80093240737915 5.521800518035889 5.809007167816162 4.928855419158936 M 204.3251495361328 181.3392639160156 L 203.4820251464844 181.3022155761719 C 183.7944030761719 163.0691528320312 161.9666290283203 141.6212158203125 140.3797302246094 119.3023910522461 C 116.4580993652344 94.58399200439453 93.51853179931641 69.45794677734375 74.00694274902344 46.69441986083984 L 73.28429412841797 45.84206008911133 L 74.55356597900391 45.67529678344727 C 90.72984313964844 47.58384323120117 107.0728988647461 53.42990875244141 122.906379699707 59.09067535400391 C 131.3373107910156 62.12025451660156 141.5933990478516 65.80764007568359 151.3492126464844 68.50368499755859 C 164.2179718017578 73.03414916992188 177.0126037597656 77.18476867675781 191.1784362792969 81.75229644775391 C 202.6111297607422 85.43967437744141 215.5725555419922 89.60881805419922 228.0521850585938 93.95399475097656 L 228.2004547119141 93.95399475097656 C 228.728515625 93.95399475097656 229.1732330322266 94.07444000244141 229.7476501464844 94.33384704589844 C 233.1200256347656 102.7369842529297 228.6914825439453 113.7064743041992 224.7539520263672 123.4159469604492 C 222.5026092529297 128.9655303955078 220.4551086425781 134.0241088867188 219.7880096435547 138.1654510498047 C 217.8516998291016 143.4556427001953 216.3322601318359 148.7272796630859 214.9518280029297 153.3782043457031 C 212.3298950195312 162.4484100341797 209.6152954101562 171.8428802490234 204.4362945556641 181.1261749267578 L 204.3251495361328 181.3392639160156 Z M 80.30699157714844 49.49238586425781 C 98.47518920898438 68.79088592529297 114.1789779663086 85.28217315673828 128.3355255126953 99.88344573974609 C 156.3799743652344 128.9006958007812 181.2095336914062 153.6654052734375 204.2139434814453 175.5858459472656 C 206.3078002929688 168.0350646972656 208.9853057861328 160.2804412841797 211.5701904296875 152.6926116943359 L 212.7004852294922 149.4036102294922 C 218.4631652832031 132.7362976074219 224.3740844726562 115.5964889526367 228.1819000244141 98.66976165771484 C 207.3825073242188 92.43457794189453 186.5275115966797 84.92085266113281 166.3488616943359 77.65727233886719 L 165.6817779541016 77.42565155029297 C 137.7207336425781 67.34558868408203 108.8054122924805 56.95051193237305 80.30699157714844 49.49238586425781" fill="#2574da" stroke="none" stroke-width="0"/>
</svg>