<svg xmlns="http://www.w3.org/2000/svg" width="52" height="49" viewBox="75.44305419921875 71.82765197753906 52.19056701660155 48.63107299804683" fill="none">
  <path d="M 99.47871398925781 71.96098327636719 C 94.759521484375 72.52090454101562 91.08024597167969 73.8006591796875 87.65420532226562 76.09353637695312 C 85.28129577636719 77.67994689941406 83.00172424316406 79.86619567871094 81.37532043457031 82.13247680664062 C 80.36219787597656 83.57217407226562 78.80247497558594 86.61167907714844 78.29592895507812 88.197998046875 C 75.44305419921875 97.04965209960938 78.02926635742188 106.9545745849609 84.90800476074219 113.5400085449219 C 88.53399658203125 117.0060272216797 92.65325927734375 119.1257476806641 97.73236083984375 120.1655426025391 C 99.05210876464844 120.4321899414062 99.59866333007812 120.4587249755859 102.8114624023438 120.4587249755859 C 106.2507781982422 120.4455108642578 106.4907531738281 120.4321899414062 108.0504913330078 120.0855865478516 C 114.4093475341797 118.6591033935547 119.1284332275391 115.5130462646484 122.9544372558594 110.1539916992188 C 126.0072326660156 105.9013977050781 127.6336212158203 99.86247253417969 127.140380859375 94.66342163085938 C 126.5671539306641 88.61128234863281 123.9409484863281 83.11898803710938 119.6616973876953 78.986328125 C 115.7957611083984 75.26704406738281 110.5967102050781 72.7874755859375 105.1576995849609 72.06761169433594 C 103.8912200927734 71.89431762695312 100.5318908691406 71.82765197753906 99.47871398925781 71.96098327636719 M 106.5574340820312 73.92060852050781 C 110.8100128173828 74.81378173828125 114.5026092529297 76.68014526367188 117.7420349121094 79.57293701171875 C 123.0344085693359 84.26542663574219 125.7805786132812 90.69087219238281 125.5007019042969 97.59634399414062 C 125.4073333740234 99.75581359863281 125.1007080078125 101.4222106933594 124.4075469970703 103.5284729003906 C 122.6478118896484 108.8875274658203 118.8885498046875 113.246826171875 113.5427856445312 116.0995635986328 C 108.0238037109375 119.0457763671875 101.4116668701172 119.5789489746094 95.38612365722656 117.5793304443359 C 93.79971313476562 117.0460052490234 91.28013610839844 115.8195953369141 89.74711608886719 114.8198699951172 C 84.96136474609375 111.7137145996094 81.40200805664062 106.8345336914062 80.01557922363281 101.5022430419922 C 79.21568298339844 98.43606567382812 79.08242797851562 94.53016662597656 79.68226623535156 91.69070434570312 C 81.69526672363281 82.11917114257812 88.90730285644531 75.2403564453125 98.54556274414062 73.66734313964844 C 100.4518280029297 73.36070251464844 104.4911499023438 73.480712890625 106.5574340820312 73.92060852050781" fill="#337ddc" stroke="none" stroke-width="0"/>
</svg>