<svg xmlns="http://www.w3.org/2000/svg" width="3" height="2" viewBox="291.5042724609375 169.3343200683594 2.502227783203125 2.0431213378905966" fill="none">
  <path d="M 293.9778442382812 170.181640625 L 293.7957153320312 170.1754150390625 L 293.7612609863281 171.072998046875 L 293.9545288085938 171.072998046875 L 293.9458923339844 171.3618469238281 L 292.8896484375 171.374267578125 L 292.8954467773438 171.0668029785156 L 293.1176147460938 171.0605773925781 L 293.1146240234375 170.7780456542969 L 292.4103698730469 170.7842407226562 L 292.4103698730469 171.0668029785156 L 292.609619140625 171.0793151855469 L 292.6154479980469 171.3618469238281 L 291.6254577636719 171.37744140625 L 291.6195678710938 171.0572814941406 L 291.7783508300781 171.0572814941406 L 291.7236938476562 170.1973266601562 L 291.5244445800781 170.1911010742188 L 291.5042724609375 169.3467407226562 L 292.6356506347656 169.3343200683594 L 292.6356506347656 170.1690979003906 L 292.39892578125 170.1754150390625 L 292.3786315917969 170.4923706054688 L 293.1146240234375 170.4830017089844 L 293.1090087890625 170.181640625 L 292.9097290039062 170.1880493164062 L 292.901123046875 169.3405456542969 L 294.0065002441406 169.3343200683594 L 293.9778442382812 170.181640625 Z" fill="#a21822" stroke="none" stroke-width="0"/>
</svg>