<svg xmlns="http://www.w3.org/2000/svg" width="1" height="1" viewBox="95.52901458740234 304.0351257324219 1 1.363555908203125" fill="none">
  <path d="M 95.63023376464844 304.3397216796875 C 95.63023376464844 304.0351257324219 95.79266357421875 304.6564636230469 95.731201171875 304.7444458007812 C 95.89955902099609 304.8645629882812 95.84371185302734 304.8981018066406 95.93368530273438 305.0980834960938 C 96.11246490478516 304.9773559570312 96.09329986572266 304.8783874511719 96.23626708984375 305.1479797363281 C 96.14659118652344 305.251220703125 96.05014038085938 305.1623840332031 96.13558959960938 305.3499145507812 C 96.04168701171875 305.398681640625 95.9666748046875 305.19873046875 95.93368530273438 305.3499145507812 C 95.88233947753906 305.3175048828125 95.8812255859375 305.2342834472656 95.78168487548828 305.2494812011719 C 95.76447296142578 305.1479797363281 95.7921142578125 305.0910034179688 95.88290405273438 305.0980834960938 C 95.87023162841797 305.0428161621094 95.78251647949219 305.0633544921875 95.78168487548828 304.9962768554688 C 95.66746520996094 305.0244140625 95.84259033203125 305.074951171875 95.731201171875 305.1479797363281 C 95.64856719970703 305.1710815429688 95.64856719970703 304.8727111816406 95.731201171875 304.8958740234375 C 95.70299530029297 304.7810974121094 95.65251922607422 304.9570617675781 95.5794677734375 304.8448181152344 C 95.54762268066406 304.7345275878906 95.72272491455078 304.6846618652344 95.52901458740234 304.6933898925781 C 95.53463745117188 304.5978088378906 95.69596099853516 304.6584167480469 95.68044281005859 304.5419616699219 C 95.63023376464844 304.4717102050781 95.59751892089844 304.5631103515625 95.52901458740234 304.4403991699219 C 95.54055786132812 304.3679504394531 95.68015289306641 304.4229125976562 95.68044281005859 304.3397216796875 C 95.67112731933594 304.2819213867188 95.63023376464844 304.311279296875 95.63023376464844 304.3397216796875" fill="#2777df" stroke="none" stroke-width="0"/>
</svg>