<svg xmlns="http://www.w3.org/2000/svg" width="8" height="13" viewBox="0.001547281164675951 0 8.0971131878905 13.07889175415039" fill="none">
  <path d="M 0.1188973858952522 5.433696746826172 C 0.1541791558265686 5.719601154327393 0.2098391652107239 6.00337553024292 0.2585036754608154 6.287455081939697 C 0.2974352836608887 6.516786098480225 0.3625240623950958 6.743380069732666 0.4151425957679749 6.970278739929199 C 0.4631987512111664 7.177103042602539 0.52920001745224 7.379668712615967 0.5900307297706604 7.583451747894287 C 0.647515594959259 7.775980472564697 0.7056089043617249 7.96394681930542 0.7755640745162964 8.152216911315918 C 0.8658974766731262 8.394020080566406 0.9474105834960938 8.641295433044434 1.054168343544006 8.876103401184082 C 1.156059741973877 9.101176261901855 1.257951021194458 9.325337409973145 1.360450863838196 9.550410270690918 C 1.632059454917908 10.14776611328125 1.923438191413879 10.73630332946777 2.256790161132812 11.30202770233154 C 2.602916240692139 11.8890438079834 3.053975582122803 12.40488815307617 3.511422157287598 12.90674114227295 C 3.631866216659546 13.038743019104 3.816487789154053 13.07889175415039 3.984075784683228 13.04117584228516 C 4.112428665161133 13.05090808868408 4.243823051452637 12.99129390716553 4.310128211975098 12.87389183044434 C 4.406848907470703 12.70417499542236 4.503265380859375 12.53445625305176 4.59998607635498 12.36443424224854 C 4.796773433685303 12.45568180084229 5.063211441040039 12.39180850982666 5.166928291320801 12.19046020507812 C 5.426978588104248 11.68587017059326 5.713187217712402 11.19770526885986 6.001524448394775 10.70862579345703 C 6.25701379776001 10.27459812164307 6.502160549163818 9.831448554992676 6.721455574035645 9.377651214599609 C 6.980897426605225 8.839908599853516 7.214487552642822 8.292736053466797 7.416140556335449 7.730661869049072 C 7.597720623016357 7.225158214569092 7.740673065185547 6.703839778900146 7.857163429260254 6.180088043212891 C 7.945975780487061 5.781951904296875 8.0162353515625 5.373778343200684 8.044825553894043 4.966821670532227 C 8.098660469055176 4.204005241394043 8.006806373596191 3.414119720458984 7.776563167572021 2.685064315795898 C 7.543885231018066 1.948709487915039 7.070319652557373 1.300559043884277 6.45319128036499 0.8418959379196167 C 6.168505191802979 0.6308136582374573 5.855530738830566 0.4796495735645294 5.5291748046875 0.344605565071106 C 5.357327938079834 0.2731295526027679 5.183960437774658 0.2053034156560898 5.007551670074463 0.1469060033559799 C 4.783998966217041 0.07238845527172089 4.549192428588867 0.0410606786608696 4.316515445709229 0.01459935214370489 C 4.228006839752197 0.004562297370284796 4.139498233795166 0 4.050990104675293 0 C 3.788505554199219 0 3.526021480560303 0.0410606786608696 3.273573875427246 0.1107117682695389 C 2.891253232955933 0.2156446129083633 2.51775336265564 0.3601173758506775 2.153986215591431 0.5182770490646362 C 1.821546912193298 0.6627497673034668 1.522868633270264 0.8771778345108032 1.25095546245575 1.115329742431641 C 0.9528853297233582 1.375076532363892 0.7192957997322083 1.713903188705444 0.5219003558158875 2.053946495056152 C 0.3388001024723053 2.369049310684204 0.1909816712141037 2.714567422866821 0.09943157434463501 3.067384719848633 C 0.0486379899084568 3.262651443481445 0.0349510982632637 3.470692157745361 0.01731021702289581 3.670825004577637 C -0.001547281164675951 3.881298780441284 -0.002763894153758883 4.092685222625732 0.003015015972778201 4.303767204284668 C 0.01426868513226509 4.68213415145874 0.07205778360366821 5.058675765991211 0.1188973858952522 5.433696746826172 M 1.14206874370575 3.45943808555603 C 1.178262948989868 3.258088827133179 1.239397525787354 3.065864086151123 1.314523458480835 2.875768423080444 C 1.436184883117676 2.610850811004639 1.578528642654419 2.355970621109009 1.749158382415771 2.119947671890259 C 1.878727912902832 1.963917016983032 2.019246339797974 1.823702335357666 2.175581216812134 1.695349931716919 C 2.38605523109436 1.546314835548401 2.607783079147339 1.42860746383667 2.84228515625 1.32519543170929 C 2.991015911102295 1.265885591506958 3.142483949661255 1.212962865829468 3.293952226638794 1.159127831459045 C 3.459715604782104 1.100122094154358 3.627608299255371 1.046286940574646 3.800063133239746 1.010396838188171 C 3.981338739395142 0.9939725399017334 4.162918567657471 0.9957974553108215 4.344193458557129 1.012830138206482 C 4.447909832000732 1.030775189399719 4.549496650695801 1.052978277206421 4.651692390441895 1.080352187156677 C 4.791298866271973 1.117154598236084 4.926646709442139 1.172814607620239 5.06017017364502 1.227258086204529 C 5.331170558929443 1.345269560813904 5.592437744140625 1.48000955581665 5.833631992340088 1.651855945587158 C 6.015819072723389 1.799978613853455 6.180671215057373 1.963308811187744 6.330314636230469 2.144584178924561 C 6.471745491027832 2.340763092041016 6.59158182144165 2.546674728393555 6.691344261169434 2.766577243804932 C 6.824259281158447 3.115745306015015 6.903642654418945 3.48316216468811 6.959607601165771 3.852100133895874 C 7.011921405792236 4.30802583694458 7.014658451080322 4.773988246917725 6.961127758026123 5.229609966278076 C 6.913375854492188 5.546233177185059 6.848591804504395 5.858294486999512 6.780765533447266 6.170963764190674 C 6.717196464538574 6.46295166015625 6.628079891204834 6.750679969787598 6.547479629516602 7.03810453414917 C 6.39175271987915 7.590751647949219 6.191620349884033 8.129406929016113 5.974151134490967 8.660458564758301 C 5.867088794708252 8.904388427734375 5.759418487548828 9.147710800170898 5.642014980316162 9.387079238891602 C 5.511229515075684 9.653517723083496 5.376185417175293 9.917522430419922 5.239315986633301 10.18122386932373 C 5.109138965606689 10.43032550811768 4.975311279296875 10.67699432373047 4.841484069824219 10.92396545410156 C 4.748717308044434 11.09550762176514 4.653821468353271 11.26583385467529 4.562575340270996 11.43828868865967 C 4.554667472839355 11.4376802444458 4.54706335067749 11.43524742126465 4.53915548324585 11.43524742126465 C 4.419927597045898 11.43524742126465 4.301916122436523 11.49546909332275 4.24017333984375 11.604660987854 C 4.172651290893555 11.72327995300293 4.105129241943359 11.84189891815186 4.037606716156006 11.96082496643066 C 3.860894203186035 11.76160335540771 3.686918258666992 11.56055736541748 3.522066831588745 11.35160446166992 C 3.293952226638794 11.04380226135254 3.103248119354248 10.71410083770752 2.922277212142944 10.37679481506348 C 2.7285315990448 10.01728534698486 2.553643703460693 9.650172233581543 2.386967658996582 9.277584075927734 C 2.261048316955566 8.995026588439941 2.140299558639526 8.71064281463623 2.019854784011841 8.425955772399902 C 1.92982542514801 8.166817665100098 1.839491963386536 7.907983303070068 1.749462485313416 7.648845195770264 C 1.714180827140808 7.547865867614746 1.690761089324951 7.440499305725098 1.661562442779541 7.337391376495361 C 1.613506078720093 7.166761875152588 1.565449833869934 6.996131420135498 1.517393708229065 6.825197696685791 C 1.491845011711121 6.735472202301025 1.475420475006104 6.643313407897949 1.455650568008423 6.552371501922607 C 1.417935729026794 6.381742477416992 1.37961220741272 6.211111545562744 1.342505693435669 6.040482521057129 C 1.3196941614151 5.937374114990234 1.306919574737549 5.831224918365479 1.289887189865112 5.7272047996521 C 1.267683982849121 5.590943813323975 1.244872450828552 5.454683303833008 1.222365140914917 5.318422794342041 C 1.201378583908081 5.154484272003174 1.181304454803467 4.990545749664307 1.160622000694275 4.826607227325439 C 1.103745341300964 4.372810363769531 1.098270654678345 3.91414737701416 1.14206874370575 3.45943808555603" fill="#2574da" stroke="none" stroke-width="0"/>
</svg>