<svg xmlns="http://www.w3.org/2000/svg" width="274" height="277" viewBox="2.961613416671753 0.1963129937648773 273.88384556770325 277.19229784607893" fill="none">
  <path d="M 114.8881988525391 82.35062408447266 C 106.1112670898438 67.30014801025391 93.75670623779297 51.85442352294922 74.6927490234375 51.36793518066406 C 92.02360534667969 55.15842819213867 102.7363052368164 69.91498565673828 114.8881988525391 82.35062408447266 M 126.208984375 175.5825347900391 C 125.8339996337891 163.2380981445312 122.8036270141602 144.5795593261719 120.4016265869141 133.9682006835938 C 118.7496185302734 138.8735504150391 122.6819915771484 147.1437072753906 120.3306655883789 151.6639251708984 C 123.4320068359375 157.1976165771484 121.3745880126953 166.4407501220703 126.208984375 175.5825347900391 M 181.6575469970703 129.3770294189453 C 183.9075469970703 131.1607971191406 188.4480133056641 128.0088043212891 192.7047271728516 127.2182846069336 C 192.8871459960938 124.9682922363281 194.33642578125 123.4784698486328 193.2317504882812 120.4683685302734 C 189.927734375 118.8771667480469 181.3839416503906 120.9548416137695 181.1609344482422 125.1000518798828 C 184.7284545898438 124.6338424682617 186.3298034667969 122.9311599731445 189.8567810058594 122.3940124511719 C 189.8567810058594 124.0865707397461 191.1236419677734 123.711555480957 191.1337890625 125.3838500976562 C 189.1169281005859 127.4108352661133 182.7926788330078 126.8331604003906 181.6575469970703 129.3770294189453 M 89.72296905517578 238.1053466796875 C 93.02696990966797 220.4400329589844 83.93586730957031 174.8933410644531 68.68270111083984 163.8056488037109 C 81.13861846923828 180.3865051269531 88.02028656005859 218.6461486816406 89.72296905517578 238.1053466796875 M 129.5332641601562 191.3221740722656 C 129.8575744628906 201.9842224121094 131.6312103271484 212.29150390625 137.8845062255859 220.7339782714844 C 134.6007537841797 211.3083801269531 132.2291717529297 200.3322143554688 131.0940551757812 190.9370574951172 L 129.5332641601562 191.3221740722656 Z M 205.3633117675781 75.51963806152344 C 214.2720184326172 56.90164947509766 196.8600616455078 27.1452808380127 182.6710815429688 21.48995208740234 C 174.0259094238281 20.79063415527344 166.2320861816406 13.33127498626709 154.6376647949219 15.14544200897217 C 155.8234558105469 9.358356475830078 150.3404083251953 4.351663112640381 147.2796325683594 0.9564380645751953 C 138.8574829101562 -2.16514253616333 126.1785659790039 3.074653387069702 113.8544082641602 6.429338455200195 C 96.91881561279297 1.523998141288757 82.14197540283203 18.03391265869141 82.82102203369141 30.6114501953125 C 78.44270324707031 26.16218566894531 74.09479522705078 21.6115665435791 68.07460784912109 19.89875221252441 C 58.68958282470703 20.68928527832031 48.80796051025391 22.87844657897949 39.56484603881836 25.25003433227539 C -7.329798221588135 48.9862060546875 -2.961613416671753 103.755744934082 5.004495620727539 160.6942291259766 C 6.545016765594482 161.8090362548828 6.767986297607422 165.1130828857422 9.301736831665039 164.616455078125 C 8.805121421813965 162.9137878417969 4.670041561126709 160.4307098388672 7.224061489105225 158.5050354003906 C 8.54161262512207 162.9036254882812 12.72736835479736 162.5894470214844 15.38273620605469 164.7786407470703 C 18.45363616943359 174.8730621337891 16.22393989562988 182.7074127197266 16.57866668701172 189.8424835205078 C 28.74066162109375 206.6969757080078 32.29804992675781 243.8721466064453 50.39916610717773 253.2875823974609 C 48.55458831787109 254.3923034667969 50.88563919067383 258.010498046875 51.02753067016602 260.3111572265625 C 84.67572784423828 277.3886108398438 145.3641204833984 271.581298828125 189.6439514160156 249.4058837890625 C 219.1773223876953 243.4566192626953 242.3560485839844 229.9263916015625 257.5990905761719 213.8928375244141 C 276.845458984375 167.8900604248047 234.9068450927734 96.65110778808594 205.3633117675781 75.51963806152344 M 125.1144104003906 18.5507984161377 C 125.0840072631836 20.4257755279541 124.2123947143555 19.05755043029785 122.6211853027344 19.71632194519043 C 122.8238983154297 21.10481834411621 123.3813095092773 21.90548324584961 124.7191314697266 21.41900634765625 C 125.0840072631836 22.53385353088379 122.9252395629883 22.10818672180176 122.2462005615234 22.57439231872559 C 121.2631149291992 17.25351905822754 117.9286727905273 10.43266487121582 111.756477355957 11.35494995117188 C 112.2632141113281 11.74008083343506 112.8915863037109 11.92251110076904 113.5706329345703 12.01372528076172 C 107.4794921875 11.95291519165039 104.9254608154297 19.60483741760254 105.9896545410156 23.81086540222168 C 104.9660110473633 23.90208053588867 104.8646697998047 25.68584060668945 104.6720886230469 27.4493293762207 C 103.0302276611328 22.17912673950195 105.8882904052734 12.32791042327881 112.922004699707 9.409029960632324 C 117.2597732543945 11.79075622558594 122.5603790283203 15.56097602844238 125.1144104003906 18.5507984161377 M 116.3881683349609 23.45613861083984 C 113.2767105102539 24.87503814697266 109.3240661621094 22.12845611572266 108.705810546875 25.91894721984863 C 107.9760971069336 22.79736709594727 107.3477249145508 15.93596935272217 112.6584854125977 14.9934139251709 C 114.8476409912109 16.20961570739746 116.9253082275391 20.0203742980957 116.3881683349609 23.45613861083984 M 108.2497482299805 8.354990005493164 C 99.64511871337891 16.01704978942871 107.0031433105469 34.82761001586914 88.02028656005859 33.75330352783203 C 86.34801483154297 20.64874458312988 95.22626495361328 9.672539710998535 108.2497482299805 8.354990005493164 M 82.28387451171875 35.17220306396484 C 83.72304534912109 36.69245529174805 83.82439422607422 40.43226623535156 86.28720092773438 40.24983978271484 C 88.20271301269531 39.46944427490234 88.04056549072266 37.47285079956055 87.88852691650391 35.44585418701172 C 99.59445953369141 33.67222213745117 117.4827423095703 22.13858795166016 130.9521484375 26.49664115905762 C 132.8372802734375 26.47636795043945 132.7359161376953 25.23989868164062 134.4588775634766 25.0878734588623 C 128.5704498291016 19.73659515380859 126.3103332519531 11.45630168914795 118.5266342163086 7.48337984085083 C 132.4014587402344 2.182773351669312 148.0195159912109 0.1963129937648773 152.0431060791016 13.58465003967285 C 146.5803375244141 16.1082649230957 140.1243286132812 15.83462047576904 134.4791564941406 18.44944953918457 C 131.9251403808594 19.02714538574219 131.9453887939453 15.29746246337891 129.8271789550781 15.17584419250488 C 128.0535583496094 17.89202499389648 132.4825592041016 20.31429100036621 133.8102416992188 22.49331474304199 C 173.9144287109375 7.412434577941895 200.6911163330078 31.787109375 205.6470947265625 69.92510986328125 C 201.3600006103516 76.93853759765625 194.5290222167969 82.42156982421875 186.7351989746094 87.28636932373047 C 184.1609039306641 87.85391235351562 183.7656555175781 84.87424468994141 182.458251953125 83.37425231933594 C 173.8029632568359 86.69853973388672 157.09033203125 86.52623748779297 162.9078216552734 98.12068176269531 C 151.1714935302734 95.08018493652344 134.7629241943359 99.75242614746094 122.8644485473633 96.92476654052734 C 110.5402526855469 81.94522857666016 100.3545837402344 63.35764312744141 83.90547943115234 55.19897079467773 C 72.20967864990234 51.13484191894531 48.17959976196289 54.91519927978516 40.72023773193359 65.82044219970703 C 44.05465316772461 54.13479995727539 65.81449890136719 43.60452651977539 79.27378082275391 40.86808013916016 C 80.43930053710938 40.25997543334961 77.90554809570312 39.85457611083984 76.95285797119141 40.3410530090332 C 77.12516021728516 38.89174652099609 80.30754852294922 37.91879272460938 81.09808349609375 39.32755279541016 C 80.02375793457031 36.82421112060547 83.80412292480469 38.59783172607422 82.28387451171875 35.17220306396484 M 178.1001892089844 101.5665969848633 C 175.3231964111328 102.3773880004883 175.1002349853516 102.7726440429688 172.3637847900391 102.9753494262695 C 169.57666015625 100.5024108886719 167.8537139892578 96.316650390625 164.7219848632812 94.35047149658203 C 166.4854888916016 90.29646301269531 174.9279327392578 86.41475677490234 180.0765075683594 87.25595855712891 C 180.2386779785156 88.95864868164062 178.6272125244141 89.61742401123047 176.9752044677734 90.24579620361328 C 179.0123443603516 91.49239349365234 179.2251739501953 95.80991363525391 182.5291748046875 94.93830108642578 L 183.6947174072266 99.63080596923828 C 182.6001129150391 101.1206359863281 180.8467712402344 99.48890686035156 180.1778564453125 101.0496978759766 C 179.4380035400391 101.0598373413086 179.4278717041016 99.84363555908203 179.1339416503906 99.07337188720703 C 178.4853057861328 99.73214721679688 177.2184295654297 99.99565887451172 178.1001892089844 101.5665969848633 M 81.27037048339844 102.7726440429688 C 79.68930816650391 103.2692642211914 83.12506866455078 106.846923828125 80.59133148193359 106.7861175537109 C 73.04075622558594 97.41123199462891 71.540771484375 81.88441467285156 67.35501098632812 66.43868255615234 C 73.85154724121094 65.63802337646484 76.67921447753906 62.62792587280273 80.76362609863281 60.38808822631836 C 84.0777587890625 73.30007171630859 87.05746459960938 86.02964019775391 89.59121704101562 98.49568176269531 C 87.90879821777344 101.3132019042969 85.37503814697266 103.6239929199219 85.13180541992188 107.3232727050781 C 84.38182830810547 106.8671875 83.16561889648438 107.1712417602539 81.88860321044922 107.5665130615234 C 82.01023101806641 106.1678771972656 81.88860321044922 104.6070938110352 81.27037048339844 102.7726440429688 M 66.08814239501953 56.80029296875 C 70.05093383789062 56.86110305786133 73.92249298095703 57.04354095458984 76.6082763671875 59.19215774536133 C 74.33803558349609 62.51643753051758 68.23676300048828 62.84075164794922 64.64897155761719 64.35086822509766 C 63.28073883056641 63.65155792236328 66.56448364257812 61.99955749511719 67.77054595947266 61.37118148803711 C 66.1083984375 60.10430908203125 66.4530029296875 59.31378173828125 66.08814239501953 56.80029296875 M 67.01042175292969 89.68837738037109 C 64.80099487304688 90.34713745117188 58.13216018676758 85.87760925292969 51.79779052734375 88.47216796875 C 51.50387954711914 81.78305816650391 48.94985961914062 73.74600982666016 48.74715423583984 67.14812469482422 C 53.08493423461914 67.74609375 57.69635772705078 65.76976776123047 60.47334671020508 63.15494155883789 C 64.38545989990234 69.52984619140625 64.68950653076172 81.31685638427734 67.01042175292969 89.68837738037109 M 26.16637229919434 132.3263397216797 C 24.34207153320312 116.0089569091797 22.82182312011719 96.02273559570312 28.29472541809082 82.65467071533203 C 27.90959358215332 81.89455413818359 27.49405670166016 83.35399627685547 27.12920188903809 82.40129089355469 C 29.47038459777832 77.76959991455078 34.7811279296875 53.27331924438477 31.86224746704102 67.99946594238281 C 34.4365348815918 62.60764694213867 36.79799270629883 57.10435104370117 40.77090835571289 52.53347015380859 C 42.49386215209961 53.11116027832031 44.78437423706055 52.72603225708008 46.87218475341797 52.72603225708008 C 26.70352935791016 70.42173004150391 32.00413131713867 104.3942489624023 30.20010566711426 130.7655334472656 C 29.42984771728516 130.0054168701172 26.52109909057617 131.6675567626953 27.7170295715332 129.7216186523438 C 26.92649841308594 130.4209594726562 26.39947509765625 131.2722930908203 26.16637229919434 132.3263397216797 M 40.66956329345703 79.07701873779297 C 42.50399780273438 79.43173980712891 44.17627716064453 80.11078643798828 46.77083206176758 79.21891021728516 C 46.83163833618164 82.52291107177734 47.43975067138672 86.1309814453125 47.6424446105957 89.49579620361328 C 44.41951370239258 90.63091278076172 42.17967987060547 92.3944091796875 39.30134201049805 93.76263427734375 C 39.54457473754883 88.74581146240234 39.8384895324707 83.75939178466797 40.66956329345703 79.07701873779297 M 28.01094436645508 34.22965240478516 C 43.28438949584961 23.33452033996582 74.86505889892578 14.04072570800781 80.22646331787109 33.45938873291016 C 77.51029205322266 30.1553783416748 71.20632171630859 35.25328826904297 73.57791137695312 37.85798263549805 C 65.31787872314453 41.63833618164062 56.51056671142578 44.50654602050781 50.78429412841797 50.63822174072266 C 48.19986343383789 51.05375671386719 47.7235221862793 49.12810516357422 45.32152557373047 50.8814582824707 C 46.91272735595703 47.55717468261719 50.07484436035156 45.19572448730469 51.98022079467773 42.06400680541992 C 51.47347640991211 42.90521621704102 51.77752685546875 44.14168167114258 52.60859298706055 44.68896865844727 C 57.59501266479492 28.58445167541504 38.98714828491211 27.92568016052246 28.01094436645508 34.22965240478516 C 25.57854270935059 35.98300552368164 23.5110034942627 37.75663375854492 22.08196640014648 39.48971939086914 C 23.42992210388184 37.43231201171875 25.52786827087402 35.65868377685547 28.01094436645508 34.22965240478516 M 10.60915184020996 156.5591125488281 C 5.349086284637451 134.7181854248047 4.25450611114502 109.9482345581055 8.896336555480957 93.50926208496094 C 7.528110980987549 92.08023071289062 6.707175731658936 88.74581146240234 9.41322135925293 88.96879577636719 C 7.406492233276367 87.11407470703125 7.953782558441162 83.17155456542969 10.09226703643799 82.72561645507812 C 9.697003364562988 67.84744262695312 13.8928918838501 49.28012466430664 26.89609527587891 38.86134338378906 C 27.59540748596191 41.98293304443359 31.57846450805664 35.59787750244141 35.9973258972168 35.51679611206055 C 35.98719024658203 34.58437728881836 35.35882186889648 34.63505172729492 34.72031784057617 34.71612930297852 C 34.61896514892578 33.3783073425293 36.99055480957031 33.7431640625 36.53448104858398 35.38504409790039 C 39.31147384643555 33.54046630859375 42.53440475463867 33.85465621948242 45.12896728515625 34.36140441894531 C 45.12896728515625 32.89182662963867 43.8012809753418 33.62154769897461 43.16276931762695 33.19588088989258 C 45.36206436157227 31.65535545349121 50.29781341552734 35.38504409790039 49.51741790771484 38.81067276000977 C 48.73702239990234 38.88161468505859 48.97012710571289 37.30055236816406 48.0782470703125 37.51338958740234 C 46.98366546630859 38.02013778686523 48.52418899536133 40.12822723388672 48.4735107421875 41.27347946166992 C 17.29825210571289 63.47926712036133 24.83868598937988 109.0766296386719 21.16981887817383 147.9038391113281 C 18.14958763122559 151.0963592529297 13.0415506362915 153.0321350097656 10.60915184020996 156.5591125488281 M 24.84882164001465 171.8224487304688 C 24.83868598937988 166.6535949707031 25.78124237060547 156.3766937255859 23.24748992919922 149.5963745117188 C 26.88595962524414 152.6064605712891 26.58190536499023 162.1333770751953 30.72712326049805 164.2921295166016 C 30.77779769897461 164.9205169677734 30.27104949951172 164.7279357910156 30.18997001647949 164.4340362548828 C 28.1629695892334 166.1569671630859 28.59877586364746 169.3900604248047 26.92649841308594 171.3055572509766 C 25.90286254882812 171.1636657714844 26.6224479675293 170.3832855224609 26.54136848449707 169.7548980712891 C 25.22382164001465 169.9880218505859 25.11233139038086 170.9609527587891 24.84882164001465 171.8224487304688 M 21.66643142700195 152.2010498046875 C 26.58190536499023 167.6062927246094 20.81509208679199 181.6229858398438 23.83532333374023 199.1159820556641 C 19.85227012634277 183.9236450195312 14.86585140228271 160.3090667724609 21.66643142700195 152.2010498046875 M 51.32145309448242 252.5071868896484 C 57.17947769165039 253.4091949462891 73.62858581542969 256.3280944824219 80.97645568847656 247.4295654296875 C 80.56092071533203 247.0140380859375 80.20619201660156 246.5478210449219 79.84133911132812 246.1120147705078 C 77.33798980712891 247.4498443603516 72.06778717041016 247.9464569091797 69.13877105712891 248.6761627197266 C 68.40904998779297 249.5680541992188 68.61175537109375 251.0173492431641 67.70974731445312 251.8180541992188 C 61.12199401855469 253.1558380126953 56.7234001159668 250.9160003662109 51.72684478759766 249.6694030761719 C 36.11894607543945 229.4196472167969 24.54477119445801 193.2275695800781 29.13592910766602 169.1163940429688 C 39.9094352722168 171.0521697998047 53.14574813842773 172.0960845947266 57.29096603393555 182.5959625244141 C 58.25378036499023 183.4371490478516 59.10511779785156 178.1264190673828 60.29091262817383 179.099365234375 C 60.1794319152832 181.5520324707031 58.94295883178711 183.3155059814453 58.58823776245117 185.5959167480469 C 60.42267227172852 185.7479248046875 61.95305633544922 186.3965759277344 63.40236663818359 187.1769561767578 C 65.93611907958984 204.8929595947266 63.61520004272461 237.1729431152344 79.43592834472656 245.6356811523438 C 68.22662353515625 232.1054229736328 70.3245849609375 210.1124725341797 68.05433654785156 192.6600036621094 C 72.00698089599609 192.3357086181641 74.58126831054688 195.2545623779297 78.97986602783203 192.1633758544922 C 79.92242431640625 189.7613983154297 78.26027679443359 188.5147857666016 78.62513732910156 186.19384765625 C 70.50700378417969 182.7378234863281 63.81790161132812 176.9913024902344 59.17606735229492 167.7988433837891 C 59.77402877807617 157.917236328125 64.05101013183594 149.4646148681641 58.51729583740234 138.1640930175781 C 55.56800842285156 138.0830078125 57.30109405517578 142.4208068847656 54.84843444824219 141.2653961181641 C 54.33153915405273 135.3465423583984 54.97004699707031 127.8973236083984 52.72007751464844 123.5595397949219 C 47.54109191894531 122.1305084228516 43.15263748168945 119.383918762207 36.47367095947266 120.3974227905273 C 34.7811279296875 126.3162536621094 38.16621780395508 135.2958984375 35.9973258972168 140.9309539794922 C 28.30485916137695 129.9648742675781 35.72368240356445 120.0730972290039 34.17302703857422 108.813117980957 C 40.59861755371094 86.95191192626953 69.73674774169922 86.79988861083984 78.63526916503906 107.8097381591797 C 81.98995971679688 117.3771743774414 74.70288848876953 120.4886322021484 74.13533782958984 127.6946182250977 C 74.78397369384766 131.525634765625 79.52714538574219 132.4073944091797 82.45616149902344 130.0459442138672 C 89.89525604248047 169.319091796875 95.86477661132812 224.1089324951172 104.7126235961914 265.3279724121094 C 84.56423950195312 264.9225769042969 59.63214111328125 272.4123229980469 51.32145309448242 252.5071868896484 M 56.09502792358398 155.3125152587891 C 52.90250015258789 150.6402893066406 55.97340774536133 146.1301879882812 57.4632568359375 142.8363189697266 C 59.0645866394043 146.4646453857422 61.57807159423828 154.4814605712891 56.09502792358398 155.3125152587891 M 58.05108642578125 156.4780426025391 C 58.79093933105469 159.1435699462891 56.47002029418945 163.7752532958984 56.96664047241211 167.7886962890625 C 52.57818984985352 167.7886962890625 56.23691177368164 172.6636657714844 53.43965911865234 173.6163482666016 C 52.14237976074219 168.9542236328125 54.91936874389648 163.0252532958984 54.41262435913086 157.3800811767578 C 55.84165954589844 156.3057556152344 57.67608642578125 158.2111358642578 58.05108642578125 156.4780426025391 M 53.37885284423828 151.0051422119141 C 49.05120849609375 154.1267395019531 50.02416229248047 163.9374237060547 48.76742553710938 170.3630065917969 C 37.20338821411133 163.6637573242188 41.58171081542969 137.6269226074219 38.67296600341797 122.6271209716797 C 42.65602874755859 123.1237335205078 46.43637466430664 123.9345397949219 50.23700332641602 124.7351913452148 C 51.38225936889648 133.360107421875 49.51741790771484 143.1707763671875 53.37885284423828 151.0051422119141 M 133.6075286865234 180.9439239501953 C 130.6987915039062 175.2176818847656 133.3946990966797 168.6400451660156 129.5130157470703 162.0725555419922 C 131.3778228759766 197.5755004882812 143.4384765625 250.7133331298828 175.049560546875 252.9936676025391 C 149.1140899658203 270.7197875976562 117.4219360351562 262.4192199707031 115.5976333618164 235.5918426513672 C 118.5469055175781 236.5952301025391 118.8205642700195 248.33154296875 122.9455032348633 249.7808837890625 C 120.371223449707 238.7843933105469 116.9151763916016 229.0953063964844 112.8104934692383 217.5312957763672 C 109.9929580688477 217.7238616943359 114.7260131835938 222.5075531005859 111.8882141113281 222.7203979492188 C 107.0335464477539 204.9132232666016 101.5809020996094 183.1026916503906 99.74647521972656 164.4340362548828 C 97.58771514892578 164.1502685546875 100.2126846313477 166.7954864501953 98.06406402587891 166.5117034912109 C 94.02019500732422 138.9850158691406 93.391845703125 121.4919967651367 93.76682281494141 97.46189880371094 C 88.39527893066406 143.0491485595703 100.020133972168 205.6530609130859 116.033447265625 259.7638549804688 C 118.2327270507812 256.8043823242188 114.7260131835938 246.7404022216797 113.357795715332 244.4296264648438 C 113.4388809204102 241.0647583007812 111.6145782470703 239.2607269287109 111.8274230957031 235.9770202636719 C 109.2227096557617 228.254150390625 105.5842437744141 214.8556671142578 104.2768173217773 205.278076171875 L 102.4728012084961 197.9707336425781 C 101.6822662353516 196.6126403808594 102.8984756469727 196.4505004882812 102.3511734008789 195.2545623779297 L 100.9525604248047 189.5282897949219 C 100.1620178222656 188.1600494384766 101.3478164672852 188.008056640625 100.8207931518555 186.7918243408203 C 99.06743621826172 181.1973114013672 100.3039016723633 180.9034118652344 101.3579559326172 186.6600952148438 C 102.1586151123047 188.0384216308594 100.9525604248047 188.2006072998047 101.4592895507812 189.4066467285156 L 102.8680572509766 195.1329193115234 C 103.6687316894531 196.4910430908203 102.4930648803711 196.6430511474609 102.9998168945312 197.8389892578125 L 106.8409881591797 213.4671478271484 C 113.3172454833984 226.0649566650391 113.773323059082 256.3888854980469 128.894775390625 262.69287109375 C 127.4657211303711 262.8955688476562 126.3508758544922 260.9901733398438 125.5198135375977 262.4192199707031 C 126.0873565673828 263.7266235351562 126.3508758544922 264.0711975097656 127.8305816650391 265.1556701660156 C 130.1819000244141 263.1996154785156 131.0028381347656 262.4597473144531 133.6987762451172 264.253662109375 C 124.607666015625 268.0644226074219 113.6415786743164 268.6117248535156 105.8578872680664 267.8008728027344 C 106.5470657348633 266.7265930175781 107.3680114746094 265.7738952636719 109.1112213134766 265.3381042480469 C 106.2126083374023 262.5408325195312 110.1449890136719 253.1760864257812 105.1484375 249.2133331298828 C 104.0133209228516 249.2335968017578 104.2768173217773 250.8754425048828 105.0065536499023 253.1153106689453 C 103.4457626342773 251.7875823974609 102.3714370727539 243.3045959472656 101.0234909057617 239.1796569824219 C 101.5910491943359 238.0546722412109 102.5538864135742 237.1526489257812 103.638313293457 236.3317413330078 C 102.2194366455078 232.4297637939453 99.79715728759766 230.8284149169922 100.5572738647461 226.0649566650391 C 102.8680572509766 225.15283203125 101.3478164672852 230.585205078125 104.0335998535156 229.0547943115234 C 101.9052276611328 194.5856628417969 89.20607757568359 147.7822113037109 89.78378295898438 115.0055999755859 C 88.85136413574219 112.4211730957031 85.212890625 114.27587890625 84.85816955566406 110.6982269287109 C 86.75341033935547 110.5157928466797 87.68583679199219 111.8637619018555 88.76015472412109 113.0394134521484 C 89.85472106933594 105.7422103881836 88.58783721923828 97.00582122802734 94.15196228027344 92.40454864501953 C 93.75670623779297 91.38091278076172 92.51009368896484 91.72548675537109 92.10468292236328 90.70187377929688 C 90.04729461669922 90.79306793212891 92.41888427734375 93.55992889404297 90.00673675537109 93.42817687988281 C 89.91552734375 89.52620697021484 86.25679016113281 84.29653930664062 89.38850402832031 84.19518280029297 C 87.26016235351562 73.14805603027344 84.59465026855469 66.13462829589844 82.73994445800781 59.34418106079102 C 97.03030395507812 63.57046890258789 106.5166702270508 81.94522857666016 116.5199127197266 95.73896026611328 C 114.3712997436523 96.93489074707031 112.4861907958984 98.31324768066406 112.2024078369141 100.6645660400391 C 112.4861907958984 104.3334350585938 114.4929122924805 105.1645050048828 115.9321060180664 106.9178771972656 C 110.8848495483398 131.7992858886719 109.435546875 162.5793151855469 119.7529754638672 196.4910430908203 C 121.7191848754883 196.1768493652344 119.7732543945312 193.541748046875 120.4523010253906 192.457275390625 C 122.8238983154297 197.5755004882812 124.1313018798828 206.6057586669922 127.2427520751953 211.2171783447266 C 126.4623565673828 203.2003936767578 124.0299530029297 198.9538421630859 123.0367126464844 191.8188018798828 C 123.6347045898438 191.8086700439453 123.6549530029297 192.7613677978516 124.3238830566406 192.6093139648438 C 118.8611145019531 162.7617340087891 116.1347885131836 129.3973083496094 117.1280212402344 107.1611099243164 C 121.6076812744141 106.5834121704102 124.2529373168945 103.1780471801758 127.0197906494141 100.3301086425781 C 138.3608551025391 102.3368453979492 153.1883544921875 98.56661987304688 163.8098297119141 101.7591552734375 C 165.4212799072266 105.1949081420898 166.3739776611328 109.6847152709961 169.7590789794922 110.2320175170898 C 178.4447784423828 108.0529861450195 197.0931549072266 104.8604583740234 187.8905944824219 89.74916839599609 C 192.1472930908203 87.44852447509766 196.6370849609375 85.32017517089844 199.2418060302734 82.00603485107422 C 202.2721557617188 83.02967071533203 204.2079315185547 85.37084197998047 204.0254974365234 88.00595092773438 C 206.1031951904297 87.59040832519531 203.6505279541016 87.22555541992188 204.6944274902344 86.17152404785156 C 223.2819976806641 102.1037292480469 239.0925598144531 128.8094787597656 248.73095703125 161.9813537597656 C 242.467529296875 152.8294372558594 235.0386047363281 145.5525054931641 225.9170837402344 141.1235198974609 C 199.6370697021484 143.3430786132812 160.5666198730469 154.9679412841797 147.8066711425781 173.5859375 C 154.323486328125 166.6535949707031 165.0057525634766 161.119873046875 175.9515686035156 155.6165618896484 C 171.6948699951172 159.5590972900391 163.9821319580078 165.2144165039062 159.1274566650391 170.2616424560547 C 157.2220764160156 168.7616729736328 160.9922943115234 167.7684478759766 160.8504333496094 165.9644165039062 C 153.0363311767578 171.5791931152344 146.5600891113281 177.9845123291016 145.7898101806641 187.8762969970703 C 141.9486236572266 188.7985687255859 140.4486694335938 191.1296081542969 140.2054138183594 194.2207794189453 C 141.7459411621094 197.7579193115234 142.6378326416016 202.3794555664062 145.7391357421875 203.3321685791016 C 149.8134002685547 232.7439422607422 163.5260620117188 246.1728210449219 183.1372680664062 249.8923492431641 C 150.8572998046875 255.2031402587891 138.0061187744141 208.0854949951172 134.2663269042969 179.1196441650391 C 133.1007995605469 179.1601715087891 133.4757995605469 180.1128540039062 133.6075286865234 180.9439239501953 M 257.7713623046875 207.8016815185547 C 245.2749176025391 227.9196624755859 217.9813690185547 241.1864013671875 185.9953308105469 248.0680389404297 C 173.6103668212891 244.9160919189453 161.5598602294922 241.1356811523438 154.7491455078125 228.7203521728516 C 153.8978118896484 227.169677734375 154.7086181640625 226.6325225830078 155.1444091796875 225.8521423339844 C 151.5262298583984 225.5582122802734 155.6916961669922 221.32177734375 151.9214782714844 221.69677734375 C 151.8404083251953 220.9163970947266 153.4214477539062 221.1292266845703 153.2086334228516 220.2677459716797 C 153.55322265625 218.0380401611328 151.6072845458984 219.5278778076172 151.1512145996094 218.5752105712891 C 149.3066558837891 214.3387908935547 151.4451293945312 212.5550079345703 149.7627258300781 208.4300537109375 C 151.5464782714844 207.8827667236328 155.1241455078125 222.8318786621094 158.2659759521484 227.3217163085938 C 159.7558288574219 222.5886535644531 154.3741607666016 216.7509002685547 154.0396881103516 210.1327514648438 C 157.8301696777344 210.9638214111328 160.2524566650391 207.5077819824219 160.4348907470703 204.7003631591797 C 137.5095062255859 181.9675598144531 173.5191802978516 161.7583923339844 190.1304321289062 150.4882507324219 C 232.1906433105469 128.2115173339844 260.5382385253906 167.5860137939453 257.7713623046875 207.8016815185547 M 241.5452117919922 135.0627746582031 C 242.7411956787109 134.5560150146484 241.8391571044922 137.4951934814453 243.4911651611328 136.2384338378906 C 235.4946594238281 107.3840866088867 217.8293762207031 95.21194458007812 201.4613647460938 79.79660034179688 C 202.7282257080078 79.23917388916016 203.6606597900391 78.48918914794922 204.1775512695312 77.46554565429688 C 231.0859375 99.56998443603516 260.822021484375 145.0558776855469 261.1868591308594 197.0281982421875 C 256.990966796875 176.6264343261719 248.6600036621094 154.1368560791016 241.5452117919922 135.0627746582031 M 79.43592834472656 245.6356811523438 C 79.56768798828125 245.8180999755859 79.69944763183594 245.9599609375 79.84133911132812 246.1120147705078 C 79.92242431640625 246.0714874267578 80.00350189208984 246.0410766601562 80.07444763183594 245.9904022216797 C 79.86161804199219 245.8991851806641 79.64877319335938 245.7572937011719 79.43592834472656 245.6356811523438 M 176.8231811523438 130.0256805419922 C 173.134033203125 131.0290222167969 170.6002807617188 132.7418670654297 166.6678924560547 133.6134643554688 C 166.7287139892578 132.4580688476562 165.1983032226562 130.3601531982422 166.2827606201172 129.8432464599609 C 168.9786987304688 128.6675872802734 174.2590179443359 129.0425720214844 174.8772277832031 126.6304321289062 C 172.1509399414062 127.3601608276367 173.0630950927734 126.8331604003906 174.1171264648438 125.7182922363281 C 169.8908538818359 124.7351913452148 164.580078125 129.0223236083984 161.6206817626953 128.7993469238281 C 161.9145812988281 128.7283935546875 162.1274108886719 128.2115173339844 161.4990386962891 128.2723236083984 C 156.8268127441406 137.6269226074219 174.8265838623047 136.8769226074219 176.8231811523438 130.0256805419922" fill="#2574da" stroke="none" stroke-width="0"/>
</svg>