<svg xmlns="http://www.w3.org/2000/svg" width="1" height="3" viewBox="368.8817749023438 20.83300018310547 1.1392822265623863 3.4461174011230504" fill="none">
  <path d="M 369.5131530761719 20.93452072143555 C 369.5625 20.9356517791748 369.5520935058594 20.99600028991699 369.5633544921875 21.03491973876953 C 369.6524658203125 21.02250862121582 369.6784362792969 20.94834327697754 369.6646118164062 20.83300018310547 C 369.7652587890625 20.88347816467285 369.7438354492188 21.05606842041016 369.9169921875 21.03491973876953 C 369.6682739257812 21.09526824951172 369.9107971191406 21.20243072509766 369.8160400390625 21.33892059326172 C 369.7610473632812 21.32594680786133 369.7816467285156 21.23824691772461 369.7156372070312 21.23740005493164 C 369.6217956542969 21.36824989318848 369.5354614257812 21.67902183532715 369.7652587890625 21.54111862182617 C 369.6138305664062 21.71934700012207 369.7481079101562 21.71850204467773 369.7652587890625 21.9449520111084 C 369.5873107910156 21.96271705627441 369.6347045898438 22.0777759552002 369.6646118164062 22.19762802124023 C 369.5002136230469 22.03857803344727 369.6662902832031 22.36795997619629 369.5131530761719 22.19762802124023 C 369.5002136230469 22.44607543945312 369.3126831054688 22.60343360900879 369.4117126464844 22.80450439453125 C 369.3747253417969 22.91758918762207 369.2596740722656 22.69254875183105 369.1595458984375 22.7029857635498 C 369.1809692382812 22.76530647277832 369.2232666015625 22.80704498291016 369.3109741210938 22.80450439453125 C 369.2884216308594 22.8659839630127 369.245849609375 22.9077205657959 369.1595458984375 22.90518188476562 C 369.2695007324219 22.95030403137207 369.3058776855469 23.12035179138184 369.1087951660156 23.10766220092773 C 369.2791137695312 23.05887794494629 369.3197021484375 23.34116363525391 369.1087951660156 23.41138648986816 C 369.1200256347656 23.48385810852051 369.2596740722656 23.42830276489258 369.2602233886719 23.51206016540527 C 369.4373168945312 23.26784324645996 369.8230895996094 23.23202896118164 369.8160400390625 22.80450439453125 C 369.9582214355469 22.831298828125 369.9088439941406 23.04815673828125 369.9674987792969 23.15814399719238 L 369.8160400390625 23.15814399719238 C 369.7965698242188 23.3459587097168 370.0210571289062 23.29068565368652 369.9674987792969 23.51206016540527 C 369.8780822753906 23.46665573120117 369.9031677246094 23.30704307556152 369.7156372070312 23.3603401184082 C 369.9229125976562 23.64573097229004 369.7127990722656 23.5112133026123 369.7156372070312 23.96637344360352 C 369.6293640136719 23.9858283996582 369.6192016601562 23.92745399475098 369.6138305664062 23.86569595336914 C 369.5837097167969 24.09468460083008 369.4779052734375 23.8941822052002 369.4624328613281 24.11865615844727 C 369.376708984375 24.03997611999512 369.1787414550781 24.01008415222168 369.0072021484375 24.11865615844727 C 368.9375915527344 24.27911758422852 368.9570617675781 23.9395809173584 368.9570617675781 23.86569595336914 C 369.1121520996094 24.13162612915039 369.0275573730469 23.68746757507324 368.9570617675781 23.8149356842041 C 368.8817749023438 23.79293632507324 368.9770812988281 23.7503547668457 368.9570617675781 23.66349983215332 C 369.122314453125 23.7957592010498 368.9443359375 23.50642013549805 369.1595458984375 23.66349983215332 C 369.0312194824219 23.49316596984863 369.1742248535156 23.35244369506836 368.9570617675781 23.3095817565918 C 368.9644165039062 23.07607841491699 368.9012451171875 22.67393684387207 369.1087951660156 22.2994327545166 C 369.2094421386719 22.37247467041016 369.2207641601562 22.25064468383789 369.3109741210938 22.09638786315918 C 369.258544921875 22.1457405090332 369.2085876464844 22.19650077819824 369.1595458984375 22.2486686706543 C 369.0165405273438 22.15109634399414 369.2283935546875 21.98443222045898 369.2094421386719 21.84427642822266 C 369.2757568359375 21.89644622802734 369.4883422851562 21.87529373168945 369.5131530761719 21.9449520111084 C 369.5278015136719 22.06536865234375 369.6499328613281 21.88826942443848 369.6646118164062 21.84427642822266 C 369.6482543945312 21.7041187286377 369.5078125 21.75628852844238 369.4624328613281 21.84427642822266 C 369.1708374023438 21.80930519104004 369.4833068847656 21.51150894165039 369.3109741210938 21.54111862182617 C 369.3617248535156 21.47456359863281 369.3600463867188 21.35442733764648 369.4117126464844 21.28815650939941 C 369.4562072753906 21.32735824584961 369.526123046875 21.3423023223877 369.6138305664062 21.33892059326172 C 369.4339294433594 21.16689300537109 369.6829223632812 21.25601005554199 369.5131530761719 20.93452072143555" fill="#2777df" stroke="none" stroke-width="0"/>
</svg>