<svg xmlns="http://www.w3.org/2000/svg" width="1" height="1" viewBox="57.53200531005859 246.2941589355469 1 1" fill="none">
  <path d="M 57.68400573730469 246.3000793457031 C 57.77425384521484 246.2941589355469 57.79060363769531 246.3621063232422 57.88592910766602 246.3508453369141 C 57.87802886962891 246.4097595214844 57.79427719116211 246.3934173583984 57.73448944091797 246.4013366699219 C 57.75027847290039 246.4704132080078 57.86083221435547 246.4433441162109 57.93640518188477 246.4515075683594 C 57.90510177612305 246.4971923828125 57.87548828125 246.5420532226562 57.93640518188477 246.5533142089844 C 57.92399597167969 246.6083068847656 57.8362922668457 246.5874481201172 57.83544540405273 246.6536865234375 C 57.77622604370117 246.6458129882812 57.79286193847656 246.5623626708984 57.78496551513672 246.5025634765625 C 57.74407196044922 246.5676879882812 57.60307312011719 246.7865295410156 57.68400573730469 246.8051452636719 C 57.68288040161133 246.8547973632812 57.62196350097656 246.8451995849609 57.58277130126953 246.8561706542969 C 57.59179306030273 246.8138885498047 57.56246566772461 246.8088226318359 57.53200531005859 246.8051452636719 C 57.70882034301758 246.6765594482422 57.63494491577148 246.4611206054688 57.68400573730469 246.3000793457031" fill="#2777df" stroke="none" stroke-width="0"/>
</svg>