<svg xmlns="http://www.w3.org/2000/svg" width="15" height="9" viewBox="978.5499877929688 674.576904296875 14.917236328125 8.95843505859375" fill="none">
  <path d="M 978.5499877929688 675.1369018554688 C 978.5499877929688 675.6834716796875 979.5763549804688 677.216552734375 980.5761108398438 678.1629638671875 C 981.8292846679688 679.3628540039062 987.7482299804688 682.5888671875 988.7213745117188 682.6021728515625 C 989.2412719726562 682.6021728515625 988.8546752929688 682.348876953125 987.2017211914062 681.61572265625 C 983.3889770507812 679.8961181640625 981.2028198242188 678.4429931640625 979.9362182617188 676.7899169921875 C 979.5231323242188 676.2433471679688 979.2030639648438 675.7767944335938 979.2296752929688 675.7500610351562 C 979.2565307617188 675.7100830078125 980.1897583007812 676.2700805664062 981.3093872070312 676.9765014648438 C 985.5886840820312 679.6959838867188 988.0281372070312 681.1624145507812 988.7080688476562 681.38916015625 C 989.0946655273438 681.5224609375 990.3076782226562 682.0690307617188 991.4008178710938 682.5888671875 C 992.4942016601562 683.1087646484375 993.4138793945312 683.5353393554688 993.4406127929688 683.5353393554688 C 993.4672241210938 683.5353393554688 993.4537963867188 683.46875 993.4004516601562 683.3887939453125 C 993.3472290039062 683.3087768554688 992.1342163085938 682.6688842773438 990.6943969726562 681.9624633789062 C 988.1749877929688 680.73583984375 986.9085083007812 679.9892578125 985.3488159179688 678.8028564453125 C 984.9487915039062 678.4962768554688 983.6023559570312 677.6165161132812 982.3493041992188 676.8433837890625 C 979.0565795898438 674.8036499023438 978.5499877929688 674.576904296875 978.5499877929688 675.1369018554688" fill="#337ddc" stroke="none" stroke-width="0"/>
</svg>