<svg xmlns="http://www.w3.org/2000/svg" width="1" height="1" viewBox="464.742919921875 354.1505126953125 1 1.0541381835936932" fill="none">
  <path d="M 465.1859436035156 354.9088439941406 C 465.05419921875 354.8944702148438 464.9337768554688 354.8919067382812 464.9840087890625 355.0608825683594 C 464.9253540039062 354.9652709960938 464.8385009765625 354.924072265625 464.832275390625 355.111328125 C 464.742919921875 355.2046508789062 464.8472290039062 354.7131652832031 464.9840087890625 354.7066650390625 C 464.9908142089844 354.7971801757812 464.9227905273438 354.81298828125 464.9337768554688 354.9088439941406 C 465.1619567871094 354.8603820800781 464.9227905273438 354.6068115234375 465.1859436035156 354.6564025878906 C 465.1292114257812 354.5955505371094 465.0423583984375 354.5651245117188 465.0852661132812 354.4037780761719 C 465.1741027832031 354.4765319824219 465.2008666992188 354.44970703125 465.1859436035156 354.30224609375 C 465.2462768554688 354.1505126953125 465.2408752441406 354.6589965820312 465.3385009765625 354.3529968261719 C 465.548583984375 354.3989868164062 465.3074645996094 354.7021484375 465.3883972167969 354.5552062988281 C 465.3968505859375 354.4962463378906 465.3771057128906 354.4658203125 465.3385009765625 354.4542846679688 C 465.2017211914062 354.5842590332031 465.1292114257812 354.7007446289062 465.1859436035156 354.9088439941406" fill="#2777df" stroke="none" stroke-width="0"/>
</svg>