<svg xmlns="http://www.w3.org/2000/svg" width="1" height="1" viewBox="373.8882141113281 30.15200233459473 1.1111145019530682 1" fill="none">
  <path d="M 373.973388671875 30.15200233459473 C 374.1547241210938 30.26875305175781 374.0783081054688 30.37224769592285 374.2261047363281 30.55640029907227 C 374.282470703125 30.34404754638672 374.3856506347656 30.47095108032227 374.5800170898438 30.50563430786133 C 374.7136535644531 30.52199172973633 374.5329284667969 30.22250175476074 374.7314453125 30.30343818664551 C 374.6093444824219 30.35983848571777 374.8109741210938 30.56598663330078 374.8320617675781 30.45572090148926 C 374.9993286132812 30.46954154968262 374.6634216308594 30.67794227600098 374.7314453125 30.45572090148926 C 374.5258483886719 30.47771453857422 374.762451171875 30.90805816650391 374.7821960449219 30.6573543548584 C 374.8501586914062 30.67314910888672 374.8236694335938 30.78397750854492 374.8320617675781 30.85927391052246 C 374.8128662109375 30.80117607116699 374.5870056152344 30.80117607116699 374.7314453125 30.85927391052246 C 374.6865844726562 30.99886512756348 374.5267028808594 30.74223709106445 374.5800170898438 31.01183700561523 C 374.3673706054688 31.02932167053223 374.1090393066406 31.05695533752441 374.0241394042969 31.06175422668457 C 373.8882141113281 30.98025321960449 373.9485473632812 30.90213584899902 374.0241394042969 30.80964088439941 C 374.1135864257812 30.84658241271973 374.0309448242188 30.90157127380371 374.0241394042969 30.96107482910156 C 374.0645141601562 30.95148849487305 374.0740661621094 30.91031455993652 374.1248168945312 30.91031455993652 C 374.1629333496094 30.75436401367188 373.9863891601562 30.81302261352539 374.0241394042969 30.6573543548584 C 374.1411743164062 30.53524589538574 374.1589660644531 30.73688125610352 374.2760009765625 30.75859260559082 C 374.27880859375 30.66609954833984 374.01708984375 30.58741760253906 374.1755676269531 30.50563430786133 C 374.1547241210938 30.4537467956543 373.9793701171875 30.32853698730469 374.0241394042969 30.50563430786133 C 373.8924560546875 30.34404754638672 374.1563720703125 30.30315780639648 373.973388671875 30.15200233459473" fill="#2777df" stroke="none" stroke-width="0"/>
</svg>