<svg xmlns="http://www.w3.org/2000/svg" width="40" height="39" viewBox="0.1098470538854599 0.04437971860170364 39.88435842096806 39.49560212343932" fill="none">
  <path d="M 3.493798732757568 9.159385681152344 C 4.772897720336914 7.136646747589111 6.423927783966064 5.495260238647461 8.300638198852539 4.150429725646973 C 10.27492141723633 2.603931665420532 12.5538444519043 1.432055234909058 15.03263854980469 0.7400124669075012 C 17.06009101867676 0.08857179433107376 19.06196594238281 -0.0967208594083786 21.0515079498291 0.04437971860170364 C 23.5318717956543 0.1464477181434631 25.89221572875977 0.7169070243835449 28.04910659790039 1.668719053268433 C 29.80198287963867 2.37938117980957 31.45772552490234 3.326483011245728 32.94298934936523 4.481309413909912 C 32.96049118041992 4.47637414932251 32.97932815551758 4.476598739624023 32.99660491943359 4.490506649017334 C 36.38817596435547 7.203496932983398 39.42599868774414 10.53023815155029 39.83785629272461 15.06048774719238 C 39.99420547485352 16.77949333190918 39.9035758972168 18.63892555236816 39.62025833129883 20.49387168884277 C 39.43989944458008 23.81814765930176 38.41854095458984 26.92123603820801 36.76661682128906 29.59654235839844 C 35.45251846313477 32.40800094604492 33.67249298095703 35.28363037109375 30.90409278869629 36.57283401489258 C 26.81868362426758 38.47511291503906 21.67670249938965 39.53998184204102 17.19131851196289 38.87643432617188 C 15.42677974700928 38.61532211303711 13.44576263427734 38.11484909057617 11.82141876220703 37.36560821533203 C 10.39045333862305 36.70541381835938 9.197489738464355 35.6407585144043 8.066669464111328 34.52787780761719 C 6.773430824279785 33.48297500610352 5.616360664367676 32.27676773071289 4.62731409072876 30.93823051452637 C 2.355116128921509 28.21649360656738 0.5692670941352844 24.96960830688477 0.1098470538854599 21.4914493560791 C -0.4543314278125763 17.21894645690918 1.226308822631836 12.74477577209473 3.493798732757568 9.159385681152344 M 34.02535247802734 32.44457626342773 C 32.00956726074219 34.27708435058594 29.55096435546875 35.55282211303711 26.83954429626465 36.83259963989258 C 25.52096176147461 37.45510864257812 24.15280532836914 37.91900634765625 22.76310729980469 38.20503234863281 C 23.22768783569336 38.14737319946289 23.69159126281738 38.07716751098633 24.15482139587402 37.99259185791016 C 28.00177955627441 37.18300247192383 31.42004585266113 35.20243072509766 34.02535247802734 32.44457626342773 M 39.08120346069336 13.20846271514893 C 39.06504440307617 13.1499080657959 39.04687881469727 13.09225559234619 39.03005981445312 13.03415679931641 C 39.04822540283203 13.09180641174316 39.06370544433594 13.1505823135376 39.08120346069336 13.20846271514893 M 38.97105026245117 12.84931087493896 C 38.75435638427734 12.14740085601807 38.47866439819336 11.46769428253174 38.14711380004883 10.81243801116943 C 38.4649772644043 11.46791839599609 38.74112319946289 12.14717769622803 38.97105026245117 12.84931087493896 M 13.10299205780029 37.0006217956543 C 8.977645874023438 34.95432662963867 5.712819576263428 31.20741271972656 3.250172853469849 27.41116905212402 C 3.045143365859985 27.09509086608887 2.837198972702026 26.77968788146973 2.631259918212891 26.46316528320312 C 4.544534683227539 31.2379207611084 8.342581748962402 35.05886459350586 13.10299205780029 37.0006217956543 M 2.494421005249023 25.30789184570312 C 4.802508354187012 29.16919898986816 7.664901256561279 32.92283248901367 11.4061975479126 35.51289749145508 C 15.14457321166992 38.10094451904297 20.37651062011719 38.99532318115234 24.68220710754395 37.39386367797852 C 28.94730377197266 35.80744171142578 33.57266998291016 33.52111053466797 36.05595016479492 29.57500267028809 C 36.22687911987305 29.3033447265625 36.3879508972168 29.02428245544434 36.54364013671875 28.74162673950195 C 38.00085067749023 25.44383239746094 38.59912490844727 22.18146705627441 38.9807014465332 18.49289131164551 C 39.03386688232422 17.97941017150879 39.05091857910156 17.47467803955078 39.04800415039062 16.97555541992188 C 38.38490295410156 11.87103080749512 35.6876106262207 7.398882865905762 31.79533386230469 4.400328636169434 C 29.76384544372559 3.089820146560669 27.51207733154297 2.085290908813477 25.28542137145996 1.381133794784546 C 21.33550262451172 0.13164222240448 16.7137336730957 1.117102980613708 12.98096179962158 2.574992895126343 C 11.97396469116211 2.968235731124878 10.92367172241211 3.403202056884766 9.91241455078125 3.913318395614624 C 8.841032981872559 4.6114182472229 7.826416015625 5.395885467529297 6.896585464477539 6.277257919311523 C 6.065011024475098 7.065536022186279 5.294898986816406 7.942648887634277 4.595903873443604 8.883243560791016 C 4.09094762802124 9.810152053833008 3.667869806289673 10.78574466705322 3.288307666778564 11.73082447052002 C 2.507661104202271 13.67438507080078 1.747641921043396 15.65472984313965 1.361134171485901 17.64202690124512 C 1.30571973323822 18.23132705688477 1.27431845664978 18.82757949829102 1.27431845664978 19.43124580383301 C 1.27431845664978 21.00264167785645 1.469711184501648 22.52872085571289 1.831771850585938 23.98998069763184 C 2.01391863822937 24.43055534362793 2.232860088348389 24.87000465393066 2.494421005249023 25.30789184570312 M 32.41604614257812 35.00860595703125 C 33.15542221069336 34.36008453369141 33.80215072631836 33.56170654296875 34.37665557861328 32.71084594726562 C 32.84450912475586 34.34033966064453 31.03554534912109 35.7044677734375 29.02446556091309 36.72963333129883 C 30.26633644104004 36.33549499511719 31.47859001159668 35.83098602294922 32.41604614257812 35.00860595703125 M 1.553600549697876 24.64657974243164 C 1.480926394462585 24.50480842590332 1.409812569618225 24.36236190795898 1.343639016151428 24.21789169311523 C 1.476659893989563 24.62571716308594 1.624717116355896 25.0292797088623 1.7884761095047 25.42768478393555 C 1.704572439193726 25.16971397399902 1.626960873603821 24.90904426574707 1.553600549697876 24.64657974243164" fill="#267de8" stroke="none" stroke-width="0"/>
</svg>