<svg xmlns="http://www.w3.org/2000/svg" width="1" height="1" viewBox="397.8198852539062 132.8500366210938 1.0921936035156818 1.0194396972655966" fill="none">
  <path d="M 398.0891723632812 133.2544097900391 C 398.3438415527344 133.2059173583984 398.4256591796875 132.9842529296875 398.5942687988281 132.8500366210938 C 398.7321472167969 132.8968353271484 398.4600219726562 132.9436492919922 398.5443115234375 133.1029815673828 C 398.3748779296875 133.0679931640625 398.359375 133.1881561279297 398.3421325683594 133.30517578125 C 398.4256591796875 133.3108062744141 398.515869140625 132.994140625 398.5443115234375 133.2544097900391 C 398.6253051757812 133.2050628662109 398.6605529785156 133.1193389892578 398.5942687988281 133.0522308349609 C 398.6235961914062 132.9318084716797 398.7386169433594 133.1748962402344 398.6450500488281 133.2036437988281 C 398.8548278808594 133.1921081542969 398.55029296875 132.9518280029297 398.8472595214844 133.0014495849609 C 398.6439208984375 133.1241302490234 398.9120788574219 133.4645080566406 398.6450500488281 133.4566040039062 C 398.7321472167969 133.2290191650391 398.6151123046875 133.3099670410156 398.4935607910156 133.2544097900391 C 398.5657653808594 133.4388580322266 398.5846862792969 133.3618621826172 398.5942687988281 133.6080474853516 C 398.4075927734375 133.45068359375 398.3463745117188 133.5146942138672 398.2914123535156 133.7095642089844 C 398.1768798828125 133.6046752929688 398.3619079589844 133.4484558105469 398.1396789550781 133.4058532714844 C 398.0220642089844 133.5110473632812 398.2611694335938 133.6864471435547 398.2406616210938 133.8610076904297 C 398.1726684570312 133.8694763183594 398.1396789550781 133.6043853759766 398.0891723632812 133.759765625 C 397.9859619140625 133.6946411132812 398.035888671875 133.4763641357422 397.8869934082031 133.4566040039062 C 397.9696350097656 133.3539733886719 398.0511169433594 133.25048828125 398.0891723632812 133.1029815673828 C 398.0457763671875 133.0933837890625 398.0418090820312 133.1227111816406 398.0383911132812 133.1537475585938 C 397.9059143066406 133.0062408447266 398.2767333984375 133.0922546386719 398.0891723632812 133.2544097900391 M 398.0383911132812 133.5073852539062 C 398.0169982910156 133.1988830566406 398.3337097167969 133.4910278320312 398.3421325683594 133.4058532714844 C 398.2826538085938 133.3976745605469 398.2871704101562 133.3263397216797 398.2914123535156 133.2544097900391 C 398.1055603027344 133.2338256835938 397.8198852539062 133.4312286376953 398.0383911132812 133.5073852539062" fill="#2777df" stroke="none" stroke-width="0"/>
</svg>