<svg xmlns="http://www.w3.org/2000/svg" width="2" height="3" viewBox="739.52197265625 330.5480346679688 2.081298828125 3.4122314453123863" fill="none">
  <path d="M 741.5936889648438 332.8462524414062 C 741.5859375 332.757568359375 741.5743408203125 332.6689453125 741.5609130859375 332.5822143554688 C 741.5147705078125 332.3029174804688 741.4318237304688 332.0390625 741.3201293945312 331.8020629882812 C 741.2603759765625 331.6749877929688 741.1929931640625 331.5554809570312 741.1178588867188 331.4456787109375 C 740.7576293945312 330.912109375 740.2278442382812 330.5692138671875 739.6345825195312 330.5499267578125 C 739.6307373046875 330.5480346679688 739.6248779296875 330.5480346679688 739.62109375 330.5499267578125 C 739.6075439453125 330.5480346679688 739.5941162109375 330.5480346679688 739.58056640625 330.5480346679688 C 739.5613403320312 330.5480346679688 739.541748046875 330.5492553710938 739.52197265625 330.5499877929688 C 740.1148681640625 330.5697631835938 740.6439819335938 330.9124755859375 741.004150390625 331.4456787109375 C 741.0791625976562 331.5554809570312 741.1465454101562 331.6749877929688 741.206298828125 331.8020629882812 C 741.3179931640625 332.0390625 741.4009399414062 332.3029174804688 741.4470825195312 332.5822143554688 C 741.4605102539062 332.6689453125 741.4721069335938 332.757568359375 741.4798583984375 332.8462524414062 C 741.4857177734375 332.9329833984375 741.4894409179688 333.021484375 741.4894409179688 333.112060546875 C 741.4894409179688 333.3375854492188 741.4796752929688 333.7109985351562 741.4380493164062 333.931640625 L 741.5468139648438 333.9602661132812 C 741.5930786132812 333.7445678710938 741.603271484375 333.3470458984375 741.603271484375 333.112060546875 C 741.603271484375 333.021484375 741.5994873046875 332.9329833984375 741.5936889648438 332.8462524414062" fill="#a21822" stroke="none" stroke-width="0"/>
</svg>