<svg xmlns="http://www.w3.org/2000/svg" width="2" height="5" viewBox="720.9144897460938 291.9529113769531 1.73052978515625 4.681549072265682" fill="none">
  <path d="M 722.64501953125 292.3569641113281 C 722.4503784179688 292.1340637207031 722.1671142578125 292.0588073730469 721.912109375 292.1130676269531 C 721.833251953125 292.1302490234375 721.7570190429688 292.1598815917969 721.686767578125 292.2005615234375 C 721.5537109375 292.2781066894531 721.4417114257812 292.3976135253906 721.3726806640625 292.5552368164062 L 721.3272094726562 292.6598815917969 C 721.1263427734375 293.1192932128906 721.0303344726562 293.6119384765625 721.03515625 294.1058959960938 C 721.0377807617188 294.2893981933594 721.0537109375 294.4740905761719 721.0845336914062 294.6563720703125 C 721.1029052734375 294.7611083984375 721.1251831054688 294.8657531738281 721.1535034179688 294.96923828125 C 721.1756591796875 295.0567016601562 721.2014770507812 295.1429138183594 721.2323608398438 295.2278747558594 L 721.686767578125 296.5297241210938 L 721.7052001953125 296.5838928222656 C 721.689208984375 296.5998840332031 721.6731567382812 296.6171875 721.6572875976562 296.6344604492188 L 721.6227416992188 296.5346984863281 L 721.1165161132812 295.0874633789062 C 721.0635375976562 294.9385070800781 721.0216674804688 294.7857055664062 720.9920043945312 294.6317443847656 C 720.9833984375 294.5935974121094 720.9761352539062 294.5554504394531 720.969970703125 294.5160217285156 C 720.9465942382812 294.3779907226562 720.9305419921875 294.2413330078125 720.9243774414062 294.1021118164062 C 720.9219360351562 294.0566101074219 720.91943359375 294.0098266601562 720.91943359375 293.9642028808594 C 720.9144897460938 293.4703063964844 721.0117797851562 292.9776916503906 721.2113647460938 292.5182800292969 L 721.2581787109375 292.4136352539062 C 721.3627319335938 292.1722106933594 721.5684814453125 292.0206604003906 721.7964477539062 291.971435546875 C 721.8024291992188 291.9701843261719 721.8098754882812 291.9689636230469 721.8161010742188 291.9689636230469 C 721.8185424804688 291.9678039550781 721.8197631835938 291.9664916992188 721.8222045898438 291.9678039550781 C 721.8727416992188 291.9578857421875 721.9244995117188 291.9529113769531 721.9774780273438 291.9554443359375 C 722.050048828125 291.9566040039062 722.1240234375 291.9689636230469 722.1942138671875 291.9911499023438 C 722.29638671875 292.025634765625 722.3924560546875 292.0810852050781 722.4774169921875 292.1598815917969 C 722.4984130859375 292.1795654296875 722.5181274414062 292.2005615234375 722.5377807617188 292.2239685058594 C 722.5748901367188 292.2670593261719 722.6105346679688 292.3114013671875 722.64501953125 292.3569641113281" fill="#a21822" stroke="none" stroke-width="0"/>
</svg>