<svg xmlns="http://www.w3.org/2000/svg" width="1" height="1" viewBox="369.2699279785156 36.24599838256836 1 1" fill="none">
  <path d="M 369.8291015625 36.24599838256836 C 369.8274536132812 36.29563140869141 369.76708984375 36.28519821166992 369.7276611328125 36.29676055908203 C 369.7363891601562 36.3557014465332 369.819580078125 36.3393440246582 369.87939453125 36.3466796875 C 369.9016418457031 36.51700592041016 369.7721557617188 36.64560317993164 369.6768493652344 36.54887390136719 C 369.6949157714844 36.6075325012207 369.7662658691406 36.67718887329102 369.7784118652344 36.59963989257812 C 369.934326171875 36.65068054199219 369.6692199707031 36.68367385864258 369.6768493652344 36.7513542175293 C 369.6038513183594 36.72879791259766 369.6822204589844 36.7067985534668 369.6768493652344 36.65068054199219 C 369.6322937011719 36.67239379882812 369.5866394042969 36.69438934326172 369.576171875 36.7513542175293 C 369.6089172363281 36.80296325683594 369.6926574707031 36.8040885925293 369.6768493652344 36.90279769897461 C 369.6322937011719 36.88108062744141 369.5866394042969 36.85879898071289 369.576171875 36.80211639404297 C 369.4839782714844 36.92845916748047 369.5795288085938 36.99613952636719 369.5254516601562 37.20651626586914 C 369.4808654785156 37.17493438720703 369.4352111816406 37.14532089233398 369.4247741699219 37.20651626586914 C 369.2699279785156 37.15632247924805 369.4826049804688 37.07143783569336 369.4755249023438 37.0040283203125 C 369.4747009277344 36.88587188720703 369.3370361328125 37.02264785766602 369.3740234375 37.10470962524414 C 369.4419860839844 36.87459564208984 369.2929992675781 36.66985321044922 369.576171875 36.65068054199219 C 369.4961547851562 36.52095794677734 369.6328430175781 36.25897216796875 369.8291015625 36.24599838256836" fill="#2777df" stroke="none" stroke-width="0"/>
</svg>