<svg xmlns="http://www.w3.org/2000/svg" width="15" height="38" viewBox="4.622767448425293 18.11519622802734 14.790934562683105 38.169158935546875" fill="none">
  <path d="M 16.99731063842773 26.6345329284668 C 17.0908317565918 29.24357032775879 15.5816822052002 31.49530601501465 14.05814361572266 33.47845840454102 C 12.53460884094238 35.4624137878418 11.03745079040527 37.42478942871094 10.29566478729248 39.85077667236328 C 8.839271545410156 44.61562728881836 10.13100051879883 49.71300506591797 11.39635181427002 54.36514663696289 C 11.70329761505127 53.82399368286133 12.0110445022583 53.28284072875977 12.31798839569092 52.74169158935547 C 11.62416458129883 53.01586532592773 10.92474365234375 53.27005386352539 10.238112449646 53.56341171264648 L 12.10856056213379 54.05419921875 C 11.00547695159912 52.10062408447266 10.98229598999023 49.79693222045898 10.35002040863037 47.68508911132812 C 9.774497032165527 45.76347351074219 8.743351936340332 43.96017074584961 6.946441173553467 42.9586067199707 C 7.163861274719238 43.33668518066406 7.380481719970703 43.71477890014648 7.597902297973633 44.09285736083984 C 7.171055793762207 39.61177825927734 7.111104011535645 35.10431289672852 7.454020500183105 30.61523628234863 C 7.601897239685059 28.67764091491699 7.748176574707031 26.69608497619629 8.187013626098633 24.79765701293945 C 8.542717933654785 23.26133346557617 9.133428573608398 21.66185760498047 10.5490550994873 20.81695938110352 C 11.8551721572876 20.03760147094727 10.70652484893799 18.11519622802734 9.364437103271484 18.79143714904785 C 6.729820728302002 20.11754035949707 5.818576335906982 23.06309509277344 5.417308807373047 25.78484153747559 C 4.871362209320068 29.48257637023926 4.622767448425293 33.23386001586914 4.629961490631104 36.97076797485352 C 4.633158683776855 38.83481597900391 4.703501224517822 40.69807434082031 4.840986728668213 42.55573272705078 C 4.912127017974854 43.51494216918945 4.792227268218994 44.58845138549805 5.620340824127197 45.22711944580078 C 6.13351583480835 45.62199020385742 6.581943035125732 45.90415191650391 6.951236724853516 46.46609497070312 C 7.771357536315918 47.71625518798828 8.036737442016602 49.23419189453125 8.29652214050293 50.67939758300781 C 8.595473289489746 52.33482360839844 8.934393882751465 53.94229507446289 9.747319221496582 55.43465423583984 C 10.00710391998291 55.91106796264648 10.75368499755859 56.28435516357422 11.29163932800293 56.06293869018555 C 11.98146724700928 55.77917098999023 12.65291118621826 55.45624160766602 13.33474636077881 55.15328979492188 C 13.85511493682861 54.92228317260742 14.08852100372314 54.17809677124023 13.94144248962402 53.66332244873047 C 12.64091968536377 49.12868118286133 11.15175437927246 43.9561767578125 12.93907260894775 39.34319686889648 C 14.64965724945068 34.92526245117188 19.4137020111084 31.71032905578613 18.29463386535645 26.45868110656738 C 18.13956260681152 25.73128509521484 16.97093200683594 25.89194869995117 16.99731063842773 26.6345329284668" fill="#2473d8" stroke="none" stroke-width="0"/>
</svg>