<svg xmlns="http://www.w3.org/2000/svg" width="9" height="7" viewBox="123.1073760986328 184.0684814453125 9.263717651367202 7.239028930664091" fill="none">
  <path d="M 131.5451965332031 191.0448913574219 C 131.5989074707031 191.0313110351562 131.6428680419922 191.0091552734375 131.679931640625 190.9820098876953 C 131.872802734375 190.9841156005859 132.0819091796875 190.862548828125 132.1100006103516 190.6180877685547 C 132.3418426513672 188.5968322753906 132.37109375 186.5733032226562 132.1983032226562 184.5463256835938 C 132.1661987304688 184.1699829101562 131.7024993896484 184.0834045410156 131.5128936767578 184.2901916503906 C 129.9949035644531 184.1713256835938 128.4755859375 184.0973510742188 126.952995300293 184.0717315673828 C 126.7542114257812 184.0684814453125 126.6370468139648 184.1915588378906 126.5988235473633 184.3395080566406 C 125.7429275512695 185.3628540039062 124.8197479248047 186.3211975097656 123.8302383422852 187.2156982421875 C 123.4403228759766 187.0331726074219 123.1073760986328 187.6467132568359 123.4988098144531 187.9045562744141 C 124.7683334350586 188.7402038574219 125.8818817138672 189.9407043457031 126.8931655883789 191.0645751953125 C 126.9151458740234 191.0888671875 126.9380874633789 191.1085510253906 126.9614028930664 191.1251678466797 C 127.0143508911133 191.2335510253906 127.1213836669922 191.3075103759766 127.2855682373047 191.2870635986328 C 128.0535583496094 191.1916809082031 128.825927734375 191.064208984375 129.5986938476562 191.0171813964844 C 130.2447204589844 190.9779968261719 130.9203796386719 191.2014312744141 131.5451965332031 191.0448913574219 M 131.2841033935547 185.6101684570312 C 131.3462219238281 185.4962615966797 131.4138793945312 185.3852233886719 131.4869079589844 185.2774047851562 C 131.4972229003906 185.4461669921875 131.5042877197266 185.6149597167969 131.5119323730469 185.7839050292969 C 131.4870910644531 185.7823791503906 131.4630126953125 185.7915649414062 131.4436950683594 185.8135375976562 C 131.3894195556641 185.7464599609375 131.3359069824219 185.6789855957031 131.2841033935547 185.6101684570312 M 130.9435119628906 185.8811950683594 C 130.8928527832031 185.8108673095703 130.8450622558594 185.7388000488281 130.7953796386719 185.6677093505859 C 130.8404846191406 185.5925903320312 130.8863525390625 185.5178527832031 130.9316558837891 185.4429321289062 C 130.974853515625 185.5061950683594 131.0149841308594 185.5715637207031 131.0600891113281 185.6334838867188 C 131.0188140869141 185.7145385742188 130.9800109863281 185.7971038818359 130.9435119628906 185.8811950683594 M 130.1705627441406 185.7342224121094 C 130.0942993164062 185.6413269042969 130.0205078125 185.5469055175781 129.9509429931641 185.4497985839844 C 130.0296936035156 185.3326416015625 130.1095886230469 185.2162475585938 130.1906280517578 185.1007995605469 C 130.2475891113281 185.1913909912109 130.3013000488281 185.2840881347656 130.3599700927734 185.3735504150391 C 130.2984313964844 185.4809722900391 130.2359313964844 185.5877990722656 130.1802978515625 185.6988677978516 C 130.1741943359375 185.7109069824219 130.1716918945312 185.7227478027344 130.1705627441406 185.7342224121094 M 129.3622436523438 185.3852233886719 C 129.4073486328125 185.2936401367188 129.4570465087891 185.2051696777344 129.5103759765625 185.1193389892578 C 129.5765075683594 185.2324981689453 129.6464538574219 185.3431701660156 129.7202453613281 185.4513397216797 C 129.6737976074219 185.5211029052734 129.6262054443359 185.5899047851562 129.5805206298828 185.6602478027344 C 129.5061645507812 185.5696411132812 129.4337310791016 185.4777221679688 129.3622436523438 185.3852233886719 M 129.1009674072266 185.0342864990234 C 129.1273498535156 184.9922485351562 129.1540985107422 184.9501953125 129.1810455322266 184.9085083007812 C 129.2517700195312 184.9117736816406 129.3224945068359 184.9142456054688 129.3932037353516 184.9176940917969 C 129.3958892822266 184.9230346679688 129.3991394042969 184.9282073974609 129.4020080566406 184.9335632324219 C 129.3408355712891 185.0254821777344 129.2850341796875 185.1208801269531 129.2334289550781 185.2191162109375 C 129.1883087158203 185.1583251953125 129.1451263427734 185.0960235595703 129.1009674072266 185.0342864990234 M 128.1663208007812 185.4222869873047 L 128.0482025146484 185.2416687011719 C 128.102294921875 185.16845703125 128.1584777832031 185.0967864990234 128.2173461914062 185.0270080566406 C 128.2528991699219 185.0776672363281 128.2859649658203 185.1302490234375 128.3222961425781 185.1803131103516 C 128.2685852050781 185.2596435546875 128.2164001464844 185.3403015136719 128.1663208007812 185.4222869873047 M 127.5495300292969 185.2055358886719 C 127.5934906005859 185.1392211914062 127.6372604370117 185.0728912353516 127.6821746826172 185.00732421875 C 127.7316818237305 185.0841674804688 127.7758255004883 185.1680755615234 127.8171157836914 185.2351684570312 C 127.7781219482422 185.2913665771484 127.7410507202148 185.348876953125 127.7045364379883 185.4067993164062 C 127.6529312133789 185.3397216796875 127.5986480712891 185.2745361328125 127.5495300292969 185.2055358886719 M 127.5541152954102 184.857666015625 C 127.5143508911133 184.9154052734375 127.4744110107422 184.9729309082031 127.4354248046875 185.0310363769531 C 127.3943252563477 184.969482421875 127.3526611328125 184.9083251953125 127.3136672973633 184.8454437255859 C 127.391845703125 184.8469848632812 127.4698257446289 184.8492736816406 127.5479965209961 184.8511810302734 C 127.5501022338867 184.853271484375 127.551628112793 184.8557739257812 127.5541152954102 184.857666015625 M 127.8022079467773 184.8574829101562 C 127.9025497436523 184.8603515625 128.0028991699219 184.8618774414062 128.1032409667969 184.8651428222656 C 128.0455169677734 184.9318389892578 127.9900894165039 185.0004577636719 127.9365768432617 185.0706024169922 C 127.8922348022461 185.0021667480469 127.8501815795898 184.9270629882812 127.8022079467773 184.8574829101562 M 128.3475189208984 184.8804321289062 L 128.3530578613281 184.8742980957031 C 128.4144134521484 184.8766021728516 128.4757690429688 184.8796539306641 128.537109375 184.8819580078125 C 128.503662109375 184.925537109375 128.4707946777344 184.969482421875 128.4384918212891 185.0138244628906 C 128.4071350097656 184.9700622558594 128.3780975341797 184.924560546875 128.3475189208984 184.8804321289062 M 128.7691497802734 184.8947601318359 C 128.8024139404297 184.9438781738281 128.8371887207031 184.9916687011719 128.8710327148438 185.0402221679688 C 128.8092956542969 185.1418914794922 128.7506103515625 185.2456817626953 128.6923217773438 185.3496704101562 C 128.6470184326172 185.2911682128906 128.6011505126953 185.2330627441406 128.5570068359375 185.1736145019531 C 128.6246643066406 185.0784301757812 128.6959533691406 184.9859313964844 128.7691497802734 184.8947601318359 M 129.6279296875 184.9421691894531 C 129.6305999755859 184.9385375976562 129.6334686279297 184.9350891113281 129.6359558105469 184.931640625 C 129.7774047851562 184.9390869140625 129.9188232421875 184.9476928710938 130.0600891113281 184.9559173583984 C 129.9840087890625 185.063720703125 129.9083251953125 185.1719055175781 129.8341674804688 185.2810363769531 C 129.7611389160156 185.1707611083984 129.6929168701172 185.0576019287109 129.6279296875 184.9421691894531 M 130.3355102539062 184.9717712402344 C 130.4237976074219 184.9771423339844 130.5119171142578 184.9817199707031 130.6002197265625 184.9874572753906 C 130.5560607910156 185.0535888671875 130.5105895996094 185.1189575195312 130.4689178466797 185.1866149902344 C 130.4230346679688 185.11572265625 130.3802185058594 185.0432739257812 130.3355102539062 184.9717712402344 M 130.8727722167969 185.00830078125 L 130.8722076416016 185.0075225830078 C 130.9041290283203 185.0096282958984 130.9360504150391 185.0122985839844 130.9679565429688 185.0146026611328 C 130.9532470703125 185.0382995605469 130.9391174316406 185.0625610351562 130.9243774414062 185.0862731933594 C 130.907958984375 185.0596923828125 130.8890380859375 185.0350494384766 130.8727722167969 185.00830078125 M 130.7296142578125 185.1378784179688 C 130.7565612792969 185.1818389892578 130.7871551513672 185.2233276367188 130.8150634765625 185.2667083740234 C 130.7686157226562 185.3429718017578 130.72216796875 185.4192199707031 130.6761016845703 185.4958801269531 C 130.6459045410156 185.4513397216797 130.6138000488281 185.407958984375 130.583984375 185.363037109375 C 130.6298522949219 185.2863922119141 130.6806945800781 185.2126159667969 130.7296142578125 185.1378784179688 M 131.0409851074219 185.2628784179688 C 131.0881958007812 185.1854858398438 131.1342468261719 185.1074829101562 131.1818542480469 185.0302734375 C 131.260986328125 185.0361938476562 131.3403015136719 185.0417327880859 131.41943359375 185.0478515625 C 131.3261566162109 185.1761169433594 131.2388000488281 185.3076171875 131.1604309082031 185.4440765380859 C 131.1187744140625 185.385009765625 131.0809326171875 185.3232727050781 131.0409851074219 185.2628784179688 M 129.2846374511719 190.2794036865234 C 128.6607818603516 190.337890625 128.0390319824219 190.4267578125 127.4172592163086 190.5057067871094 C 126.5231323242188 189.5127563476562 125.5521697998047 188.4842681884766 124.4714965820312 187.663330078125 C 125.4158935546875 186.8013305664062 126.3002777099609 185.8811950683594 127.1217727661133 184.9006805419922 C 127.1852264404297 185.0044555664062 127.2532653808594 185.1050109863281 127.3218841552734 185.2049713134766 C 127.278694152832 185.2713012695312 127.2343444824219 185.3368530273438 127.1922912597656 185.4037475585938 C 127.126350402832 185.5079040527344 127.2916793823242 185.6040496826172 127.3572463989258 185.5000762939453 C 127.3838119506836 185.4582214355469 127.4117202758789 185.4173278808594 127.4386749267578 185.3756561279297 C 127.542839050293 185.5186157226562 127.6510238647461 185.6587219238281 127.7660827636719 185.7940368652344 C 127.8459701538086 185.8876953125 127.9805297851562 185.7519989013672 127.9012069702148 185.6587219238281 C 127.8757934570312 185.62890625 127.8539962768555 185.5966186523438 127.8291549682617 185.56640625 C 127.861457824707 185.5130767822266 127.8952941894531 185.4608917236328 127.9296951293945 185.4093017578125 C 127.9736557006836 185.4763793945312 128.0174255371094 185.54345703125 128.0613861083984 185.6105499267578 C 128.048583984375 185.6850891113281 128.1349792480469 185.7416687011719 128.1980438232422 185.7103271484375 C 128.2465972900391 185.7007751464844 128.2876892089844 185.6577606201172 128.2781372070312 185.6067352294922 C 128.3314514160156 185.5161437988281 128.3872680664062 185.4270629882812 128.4449920654297 185.3397216796875 C 128.4935302734375 185.4039306640625 128.5426635742188 185.4677734375 128.5925445556641 185.5312347412109 C 128.5627288818359 185.5870513916016 128.5298461914062 185.6409454345703 128.5009918212891 185.6973266601562 C 128.4451904296875 185.8066711425781 128.6101379394531 185.903564453125 128.6661376953125 185.7938537597656 C 128.6829528808594 185.7608032226562 128.7024536132812 185.729248046875 128.7196655273438 185.6963806152344 C 128.7223205566406 185.6998138427734 128.7248229980469 185.7034301757812 128.7274780273438 185.7066955566406 C 128.8052825927734 185.8020629882812 128.9398498535156 185.6661682128906 128.8628234863281 185.5715637207031 C 128.8477172851562 185.55322265625 128.8343353271484 185.5337219238281 128.8194274902344 185.5151672363281 C 128.8760070800781 185.412353515625 128.9308624267578 185.3085632324219 128.9908752441406 185.2080230712891 C 129.0520324707031 185.2923278808594 129.1145324707031 185.3756561279297 129.1779937744141 185.4584045410156 C 129.1791381835938 185.4597473144531 129.1799011230469 185.4610900878906 129.1810455322266 185.4622344970703 C 129.3433227539062 185.6736297607422 129.5107574462891 185.8811950683594 129.6869812011719 186.082275390625 C 129.7682189941406 186.1749725341797 129.9029693603516 186.0392761230469 129.8221130371094 185.9471435546875 C 129.7821655273438 185.9014587402344 129.7445068359375 185.854248046875 129.7051391601562 185.8081970214844 C 129.7118377685547 185.8024597167969 129.7187194824219 185.7973022460938 129.7240600585938 185.7888793945312 C 129.7609558105469 185.73193359375 129.7999420166016 185.6763000488281 129.83740234375 185.6195373535156 C 129.9398498535156 185.7586822509766 130.0472717285156 185.894775390625 130.1629028320312 186.0253295898438 C 130.2447204589844 186.1176300048828 130.3794555664062 185.98193359375 130.2980346679688 185.8901824951172 C 130.2842712402344 185.87451171875 130.2724304199219 185.8578796386719 130.2586669921875 185.8420257568359 C 130.2915344238281 185.8468017578125 130.3253784179688 185.8347473144531 130.3452453613281 185.7953796386719 C 130.3874816894531 185.7112731933594 130.4356689453125 185.6311950683594 130.4811401367188 185.5491943359375 C 130.5096282958984 185.5912475585938 130.5392456054688 185.6325378417969 130.5679321289062 185.6741943359375 C 130.5023803710938 185.7844848632812 130.4333648681641 185.8924865722656 130.3685760498047 186.0031433105469 C 130.3064575195312 186.1094055175781 130.4715881347656 186.2057495117188 130.5337219238281 186.0994873046875 C 130.5836029052734 186.0142364501953 130.6369323730469 185.9310913085938 130.6873779296875 185.8462219238281 C 130.7376556396484 185.9171447753906 130.78466796875 185.9903411865234 130.8360900878906 186.0604858398438 C 130.8441162109375 186.0713806152344 130.8534851074219 186.0792236328125 130.8634185791016 186.0855255126953 C 130.8538513183594 186.1816711425781 131.0117340087891 186.2166442871094 131.0516815185547 186.1115112304688 C 131.0927734375 186.0041046142578 131.1390380859375 185.8995513916016 131.1885375976562 185.7965240478516 C 131.2393798828125 185.8622741699219 131.2898254394531 185.92822265625 131.3427886962891 185.992431640625 C 131.2233276367188 186.2128295898438 131.1101684570312 186.4360656738281 131.0079040527344 186.6652374267578 C 130.9580383300781 186.7764892578125 131.1227874755859 186.8739624023438 131.1728515625 186.7617492675781 C 131.2691955566406 186.5459747314453 131.3756561279297 186.3355255126953 131.4870910644531 186.1275787353516 C 131.5008544921875 186.1277770996094 131.5142211914062 186.12451171875 131.5266571044922 186.1180114746094 C 131.5736694335938 187.5142517089844 131.5228271484375 188.9087829589844 131.3775634765625 190.3023376464844 C 131.36572265625 190.3042449951172 131.354248046875 190.304443359375 131.3420104980469 190.3074951171875 C 131.0075378417969 190.3914184570312 130.56201171875 190.2493896484375 130.2263793945312 190.2371520996094 C 129.9123229980469 190.2258911132812 129.5969543457031 190.2501525878906 129.2846374511719 190.2794036865234" fill="#231f20" stroke="#ffffff" stroke-width="1"/>
</svg>