<svg xmlns="http://www.w3.org/2000/svg" width="13" height="25" viewBox="6.12983512878418 21.03110885620117 13.10033988952637 25.30781173706055" fill="none">
  <path d="M 10.21684837341309 21.60982704162598 C 7.495103359222412 29.06444931030273 6.12983512878418 37.52862930297852 8.236888885498047 45.32216644287109 C 8.511861801147461 46.33892059326172 9.91309928894043 46.05675506591797 9.992233276367188 45.08476638793945 C 10.31436824798584 41.12804412841797 10.70604228973389 37.18011474609375 11.1001148223877 33.2305908203125 C 11.29355716705322 31.29779434204102 11.38547801971436 29.31144714355469 11.91064357757568 27.43299865722656 C 12.38465023040771 25.73520660400391 13.13682651519775 24.16690826416016 13.22475337982178 22.37799263000488 C 12.67720794677734 22.45232582092285 12.13046073913574 22.52586555480957 11.58291530609131 22.60020637512207 C 12.0673131942749 24.4874439239502 13.49572944641113 25.66086387634277 14.98329544067383 26.79192733764648 C 15.12717628479004 26.90143966674805 15.9936580657959 27.39702606201172 16.02722930908203 27.50973701477051 C 16.08957862854004 27.71996307373047 15.03365325927734 28.42257690429688 14.86979103088379 28.55766677856445 C 14.06805610656738 29.22111892700195 13.3438549041748 29.97249221801758 12.68040561676025 30.77342987060547 C 10.03859615325928 33.96278381347656 8.327214241027832 37.9083137512207 7.981899738311768 42.04808044433594 C 7.878785610198975 43.28146362304688 9.861143112182617 43.53644943237305 10.13691329956055 42.33903503417969 C 11.14168071746826 37.9666633605957 13.05929183959961 33.88764953613281 15.71708869934082 30.27864074707031 C 15.09760093688965 30.19790649414062 14.47891616821289 30.11717224121094 13.86022758483887 30.03564453125 C 13.97453308105469 30.64073944091797 13.33426380157471 31.44327545166016 13.06408882141113 31.93966293334961 C 12.71717548370361 32.57833480834961 12.36946296691895 33.21700668334961 12.02175140380859 33.85567474365234 C 11.32712650299072 35.13221740722656 10.6253080368042 36.4063606262207 9.939476013183594 37.68849182128906 C 9.402322769165039 38.6916618347168 10.74281120300293 39.84670639038086 11.56932640075684 38.94585037231445 C 13.53170013427734 36.80842590332031 14.99768447875977 34.23136138916016 15.72907829284668 31.4152946472168 C 16.31899070739746 29.14517974853516 16.42290496826172 26.4953784942627 14.33343601226807 24.97663688659668 C 13.7922830581665 24.58255958557129 12.97216415405273 24.99661827087402 12.82028961181641 25.59212875366211 C 12.46538257598877 26.97497940063477 12.36466693878174 28.35703277587891 12.55410957336426 29.77345657348633 C 12.72676658630371 31.06278991699219 14.42296123504639 31.08437347412109 14.57883262634277 29.77345657348633 C 14.69873237609863 28.76469802856445 14.71871566772461 27.76472091674805 14.66995620727539 26.75116729736328 C 14.61639976501465 25.62090110778809 13.06168937683105 25.4002857208252 12.70838260650635 26.48498153686523 C 11.84909439086914 29.12199783325195 11.13448619842529 31.80217742919922 10.62131309509277 34.52871322631836 C 10.40549278259277 35.67736053466797 11.86348247528076 36.3583984375 12.53013038635254 35.33285140991211 C 14.03288459777832 33.02116775512695 15.76824569702148 30.9221076965332 17.7418098449707 28.99650192260742 L 16.05121231079102 28.01252365112305 C 15.49567222595215 30.00766754150391 14.64038276672363 31.8013801574707 13.47494697570801 33.51036071777344 C 12.63084602355957 34.74693298339844 14.62679290771484 35.88758850097656 15.4716911315918 34.67739105224609 C 16.17191314697266 33.67582702636719 16.87213134765625 32.67345428466797 17.57234954833984 31.67108535766602 C 16.91609573364258 31.28820037841797 16.2606372833252 30.90452194213867 15.60518074035645 30.52163314819336 C 14.94333076477051 31.89410400390625 14.16477680206299 33.20981216430664 13.34065914154053 34.4903450012207 C 12.51094722747803 35.77888107299805 14.56604194641113 36.9706916809082 15.39095878601074 35.68855285644531 C 16.22067070007324 34.40002059936523 16.92169189453125 33.05792999267578 17.57234954833984 31.67108535766602 C 18.19743156433105 30.33859252929688 16.4588737487793 29.32342910766602 15.60518074035645 30.52163314819336 C 14.89456939697266 31.51761627197266 14.18475818634033 32.51358413696289 13.47494697570801 33.51036071777344 C 14.13999462127686 33.89963912963867 14.80584144592285 34.28890991210938 15.4716911315918 34.67739105224609 C 16.74263572692871 32.85330581665039 17.6107177734375 30.73586273193359 18.00159454345703 28.54967498779297 C 18.17265129089355 27.59526443481445 17.07756042480469 26.81351089477539 16.31099510192871 27.56568908691406 C 14.23031902313232 29.60879898071289 12.36306762695312 31.86612319946289 10.72682476043701 34.27932357788086 C 11.36309814453125 34.54710006713867 11.99857044219971 34.815673828125 12.63484287261963 35.08345794677734 C 13.1871862411499 32.3657112121582 13.83465003967285 29.67274475097656 14.63478660583496 27.01654434204102 C 13.98012828826904 26.92781829833984 13.32627105712891 26.8390941619873 12.67241096496582 26.75116729736328 C 12.73715782165527 27.67280197143555 12.71717548370361 28.58724212646484 12.59008121490479 29.50408172607422 C 13.25353050231934 29.59360885620117 13.91618156433105 29.68393707275391 14.57883262634277 29.77345657348633 C 14.43814754486084 28.53927993774414 14.50129699707031 27.34506988525391 14.80744361877441 26.14047050476074 C 14.30305957794189 26.34510040283203 13.79787826538086 26.55052757263184 13.29349708557129 26.75596046447754 C 14.74669075012207 27.80788803100586 13.91378402709961 30.48246765136719 13.47574615478516 31.83015823364258 C 12.78751659393311 33.94839859008789 11.62048435211182 35.85561370849609 10.10174465179443 37.478271484375 C 10.64529228210449 37.89791870117188 11.18804264068604 38.3167724609375 11.73159122467041 38.73642730712891 C 12.61965560913086 37.11217498779297 13.48613739013672 35.47672653198242 14.36221313476562 33.8460807800293 C 15.09360694885254 32.48481369018555 16.13274383544922 31.11075210571289 15.81940460205078 29.49608993530273 C 15.63555526733398 28.55207061767578 14.42695808410645 28.61602020263672 13.96254444122314 29.25309371948242 C 11.21601963043213 33.02596664428711 9.239258766174316 37.25605773925781 8.021068572998047 41.75632476806641 C 8.738873481750488 41.8530387878418 9.457477569580078 41.9505615234375 10.17608261108398 42.04808044433594 C 10.69485092163086 37.79320907592773 12.5485143661499 33.85567474365234 15.6043815612793 30.83417892456055 C 16.7650203704834 29.68633270263672 19.23017501831055 27.96136093139648 17.43246459960938 26.22440338134766 C 16.74983215332031 25.5649471282959 15.78822708129883 25.18606185913086 15.03765106201172 24.60015106201172 C 14.2031421661377 23.94868850708008 13.48533725738525 23.19651412963867 13.1951789855957 22.15577697753906 C 12.93619346618652 21.22774124145508 11.59730339050293 21.44676399230957 11.55254077911377 22.37799263000488 C 11.46461296081543 24.23884963989258 10.52299404144287 25.91345977783203 10.12652206420898 27.7127685546875 C 9.728452682495117 29.51847076416016 9.625338554382324 31.39451599121094 9.444686889648438 33.2305908203125 C 9.056210517883301 37.18491744995117 8.665334701538086 41.13763809204102 8.204916000366211 45.08476638793945 L 9.960260391235352 44.84736251831055 C 8.118587493896484 37.14414596557617 9.10976505279541 29.4305419921875 11.15207195281982 21.86721229553223 C 11.31673526763916 21.25652313232422 10.42787265777588 21.03110885620117 10.21684837341309 21.60982704162598" fill="#2473d8" stroke="none" stroke-width="0"/>
</svg>