<svg xmlns="http://www.w3.org/2000/svg" width="4" height="12" viewBox="10.97901344299316 7.09058952331543 3.7600822448730487 12.17231178283691" fill="none">
  <path d="M 12.34188365936279 15.96003723144531 C 12.48736190795898 14.82018280029297 12.64003753662109 13.67712879180908 12.73515510559082 12.5316801071167 C 12.82468318939209 11.45816802978516 12.77911949157715 10.36147689819336 13.07887268066406 9.317543029785156 C 12.5609016418457 9.385486602783203 12.04293060302734 9.452631950378418 11.5249605178833 9.520574569702148 C 12.02934265136719 10.57729911804199 11.91743469238281 11.99372482299805 11.95740222930908 13.13357925415039 C 12.004563331604 14.50444412231445 12.01575374603271 15.87610816955566 11.99656867980957 17.24697113037109 C 11.99017524719238 17.70978546142578 12.39463901519775 18.10305976867676 12.85266017913818 18.10305976867676 C 13.36263561248779 18.10305976867676 13.65199565887451 17.70818710327148 13.70874977111816 17.24697113037109 C 14.08843612670898 14.1647253036499 13.80387115478516 11.04890727996826 13.01572513580322 8.055389404296875 C 12.76233386993408 7.09058952331543 11.38027954101562 7.509443283081055 11.54574298858643 8.459855079650879 C 11.847092628479 10.19201850891113 12.17242240905762 11.92178440093994 12.44819450378418 13.65714645385742 C 12.58647918701172 14.52762603759766 12.71197605133057 15.39970207214355 12.84466743469238 16.27098083496094 C 12.97016143798828 17.09829330444336 12.97735595703125 18.06868934631348 13.39460849761963 18.80487823486328 C 13.65439605712891 19.26290130615234 14.46891784667969 19.2077465057373 14.57603073120117 18.65060806274414 C 14.73909568786621 17.80330657958984 14.45693206787109 16.91604614257812 14.30985069274902 16.07674026489258 C 14.15158081054688 15.1774845123291 13.99091529846191 14.27903079986572 13.83584403991699 13.37897682189941 C 13.53209686279297 11.6100435256958 13.28749847412109 9.829118728637695 13.01572513580322 8.055389404296875 C 12.52573108673096 8.189678192138672 12.03573703765869 8.324765205383301 11.54574298858643 8.459855079650879 C 12.24116516113281 11.33906650543213 12.34268188476562 14.313401222229 11.99656867980957 17.24697113037109 L 13.70874977111816 17.24697113037109 C 13.72233772277832 15.77538871765137 13.69915866851807 14.30380916595459 13.63601016998291 12.83302783966064 C 13.57845878601074 11.49893379211426 13.56167221069336 10.12807083129883 13.07887268066406 8.865917205810547 C 12.77752304077148 8.080168724060059 11.72719287872314 8.041799545288086 11.43943023681641 8.865917205810547 C 11.04775619506836 9.983390808105469 11.01658248901367 11.15841770172119 10.99819660186768 12.330246925354 C 10.97901344299316 13.53884410858154 11.05015277862549 14.75303840637207 11.10530853271484 15.96003723144531 C 11.14287662506104 16.77616119384766 12.24356460571289 16.73139953613281 12.34188365936279 15.96003723144531" fill="#2473d8" stroke="none" stroke-width="0"/>
</svg>