<svg xmlns="http://www.w3.org/2000/svg" width="37" height="36" viewBox="0.7576560974121094 1.159520149230957 36.592735290527344 35.605048179626465" fill="none">
  <path d="M 8.406214714050293 -9.5367431640625e-07 C 14.17310523986816 1.610016345977783 17.95115089416504 4.108234882354736 19.27704620361328 7.694301128387451 C 24.88523483276367 6.511744022369385 28.26653099060059 12.40661430358887 28.01824378967285 16.3356761932373 C 34.02318572998047 15.90565872192383 35.47706604003906 21.40122604370117 32.61026000976562 26.57171058654785 C 34.44552612304688 27.6698055267334 35.76630020141602 28.57848167419434 35.92244338989258 29.96069145202637 C 36.76456832885742 37.35039138793945 25.1949520111084 36.11664199829102 24.07126617431641 30.3779125213623 C 19.8145694732666 32.9759521484375 13.35657215118408 29.61002159118652 11.40612030029297 25.52994155883789 C 11.24998378753662 24.49327850341797 11.77983093261719 23.14690399169922 11.65184879302979 22.09489250183105 C -1.950129508972168 24.04022216796875 -4.427867412567139 0.7576560974121094 8.406214714050293 -9.5367431640625e-07 M 14.18334197998047 19.1743278503418 C 14.75926113128662 19.5992317199707 14.93587970733643 20.20331192016602 15.37869930267334 20.69220161437988 C 14.80533695220947 22.07441329956055 13.8121919631958 22.5223560333252 13.1518030166626 23.72794723510742 C 13.35145473480225 27.93088340759277 19.02107810974121 29.3130931854248 22.88614845275879 28.86260032653809 C 23.9663200378418 28.41466331481934 24.2248420715332 26.14169692993164 25.79390716552734 26.79439926147461 C 26.51061248779297 29.01362037658691 26.51572799682617 32.03144454956055 29.40045166015625 33.12441635131836 C 30.95927810668945 33.71313095092773 32.3901252746582 33.42388916015625 33.93103408813477 32.38211441040039 C 34.31498336791992 29.30286598205566 32.19303512573242 28.52216529846191 29.54891204833984 27.17067527770996 C 29.31598472595215 25.69631385803223 30.78010368347168 26.1314582824707 31.42001342773438 25.0615177154541 C 34.89090347290039 19.80144309997559 29.90214538574219 16.03107833862305 26.53364944458008 19.30231285095215 C 24.41426277160645 17.94057846069336 26.00124359130859 14.93810844421387 25.01577949523926 13.0695629119873 C 22.86567306518555 11.3341236114502 20.16524124145508 8.664405822753906 18.36068916320801 11.93564224243164 C 16.58685111999512 8.02961540222168 14.81045627593994 2.884722232818604 8.078579902648926 2.700428009033203 C 2.83385705947876 5.155129909515381 1.203359842300415 13.35113143920898 4.203268051147461 17.47728157043457 C 6.957450866699219 19.93966484069824 11.86685943603516 22.08720779418945 14.18334197998047 19.1743278503418 M 6.537669658660889 2.114269256591797 C 4.487390995025635 1.159520149230957 2.004530668258667 4.185024738311768 1.152167201042175 7.829963207244873 C 2.997674465179443 6.022854328155518 4.090645313262939 2.559648513793945 6.537669658660889 2.114269256591797" fill="#2777df" stroke="none" stroke-width="0"/>
</svg>