<svg xmlns="http://www.w3.org/2000/svg" width="1" height="1" viewBox="435.5270385742188 236.8040466308594 1 1" fill="none">
  <path d="M 436.1324462890625 236.8040466308594 C 436.0628662109375 236.8688507080078 436.0825805664062 237.0234222412109 436.0825805664062 237.1579437255859 C 435.9034729003906 237.2084197998047 435.9897766113281 237.2445220947266 435.931396484375 237.3601379394531 C 435.8812255859375 237.3578491210938 435.8916625976562 237.2975463867188 435.8806457519531 237.2583465576172 C 435.7289428710938 237.2918853759766 435.9285888671875 237.3668975830078 435.8806457519531 237.4605407714844 C 435.8177795410156 237.4047088623047 435.7763366699219 237.4168243408203 435.7789001464844 237.5115661621094 C 435.7066650390625 237.4545745849609 435.6561584472656 237.4562835693359 435.6277160644531 237.5620269775391 C 435.5414123535156 237.5459594726562 435.6742248535156 237.4052581787109 435.5270385742188 237.3601379394531 C 435.5594787597656 237.2084197998047 435.6341552734375 237.4078063964844 435.7289428710938 237.3601379394531 C 435.6815490722656 237.2591552734375 435.5636596679688 237.1193084716797 435.678466796875 237.0053863525391 C 435.7532043457031 237.0285034179688 435.6575927734375 237.0705108642578 435.678466796875 237.1579437255859 C 435.8273315429688 237.0372314453125 435.940673828125 236.8804626464844 436.1324462890625 236.8040466308594" fill="#2777df" stroke="none" stroke-width="0"/>
</svg>