<svg xmlns="http://www.w3.org/2000/svg" width="3" height="3" viewBox="125.7701721191406 134.5570678710938 2.895324707031307 2.6699523925780966" fill="none">
  <path d="M 128.3503723144531 134.9065551757812 C 128.5952911376953 134.9607238769531 128.5513000488281 135.2284545898438 128.5660400390625 135.5677032470703 C 128.5824127197266 135.93994140625 128.6654968261719 136.6059112548828 128.4852752685547 136.8633880615234 C 128.6036682128906 137.2270202636719 127.9765014648438 137.16162109375 127.6349029541016 137.1465606689453 C 127.1085205078125 137.1234436035156 126.4306945800781 137.1282501220703 126.0695495605469 137.025390625 C 126.0436401367188 136.9679718017578 125.8908843994141 136.9506683349609 125.8534851074219 136.8633880615234 C 125.7939147949219 136.7232818603516 125.8638000488281 136.3555450439453 125.8534851074219 136.12109375 C 125.84130859375 135.8434295654297 125.7701721191406 135.5490875244141 125.7996520996094 135.3381500244141 C 125.8094177246094 135.2675476074219 125.8493804931641 135.188720703125 125.8669891357422 135.1089019775391 C 125.8845977783203 135.0290679931641 125.8534851074219 134.8988037109375 125.9481353759766 134.8927459716797 C 125.9698638916016 134.9421691894531 125.9496917724609 135.0254974365234 125.9615631103516 135.0953979492188 C 125.9828186035156 135.2220153808594 126.0482940673828 135.3503265380859 126.0695495605469 135.5000610351562 C 126.1295928955078 135.9245758056641 126.1901092529297 136.4600524902344 126.0559844970703 136.8903198242188 C 126.1698608398438 136.9387359619141 126.2593231201172 136.8403472900391 126.3798828125 136.8226623535156 C 126.4880218505859 136.8069915771484 126.6009063720703 136.8377990722656 126.7442016601562 136.8499755859375 C 127.061279296875 136.8765869140625 127.4319610595703 136.8666534423828 127.7295532226562 136.8633880615234 C 127.9712982177734 136.8605194091797 128.0982208251953 136.7473297119141 128.2826385498047 136.6877593994141 C 128.3567352294922 136.2702026367188 128.3227386474609 135.7001495361328 128.2826385498047 135.2438812255859 C 128.2737884521484 135.1418609619141 128.2069091796875 135.0005187988281 128.3231353759766 134.9469909667969 C 127.7716827392578 134.8834533691406 127.0931701660156 134.98095703125 126.5148010253906 134.9331817626953 C 126.3604888916016 134.9206848144531 126.2006683349609 134.8437194824219 126.0153961181641 134.8927459716797 C 126.0652160644531 134.8013610839844 126.2671508789062 134.7260284423828 126.4472961425781 134.6904144287109 C 126.8162689208984 134.6176452636719 127.3458404541016 134.6541900634766 127.7295532226562 134.6365814208984 C 127.9475708007812 134.6263427734375 128.4000091552734 134.5570678710938 128.4312744140625 134.7577667236328 C 128.4414367675781 134.8238677978516 128.4118804931641 134.8834533691406 128.3503723144531 134.9065551757812" fill="#ff4d16" stroke="none" stroke-width="0"/>
</svg>