<svg xmlns="http://www.w3.org/2000/svg" width="33" height="1" viewBox="881.7127685546875 638.247802734375 33.394287109375 1" fill="none">
  <path d="M 914.824951171875 638.3936157226562 C 912.724365234375 638.6688842773438 910.59912109375 638.6219482421875 908.4854736328125 638.6001586914062 C 906.345703125 638.5780639648438 904.2060546875 638.54345703125 902.0662841796875 638.5256958007812 C 901.00244140625 638.5167846679688 899.9390869140625 638.5156860351562 898.8753662109375 638.5003662109375 C 897.7991943359375 638.48486328125 896.7236328125 638.4450073242188 895.64697265625 638.4327392578125 C 893.4945068359375 638.4080810546875 891.342529296875 638.3787841796875 889.1903076171875 638.3305053710938 C 887.988525390625 638.3035278320312 886.7886962890625 638.2864990234375 885.5865478515625 638.3001708984375 C 884.99755859375 638.306884765625 884.4110107421875 638.3079833984375 883.822265625 638.294189453125 C 883.209716796875 638.2798461914062 882.594970703125 638.247802734375 881.9827880859375 638.2718505859375 C 881.7127685546875 638.2824096679688 881.7158203125 638.6710205078125 881.9827880859375 638.6891479492188 C 883.0552978515625 638.7621459960938 884.1365966796875 638.7045288085938 885.211181640625 638.7488403320312 C 886.2874755859375 638.793212890625 887.3621826171875 638.8264770507812 888.439453125 638.8333740234375 C 890.57958984375 638.846923828125 892.7188720703125 638.8709106445312 894.858642578125 638.9081420898438 C 896.998291015625 638.9452514648438 899.1390380859375 638.9263305664062 901.2779541015625 638.9906005859375 C 903.4293212890625 639.0552978515625 905.5826416015625 639.070556640625 907.7347412109375 639.1102905273438 C 910.1002197265625 639.1538696289062 912.46728515625 639.2031860351562 914.824951171875 638.9579467773438 C 914.9764404296875 638.9421997070312 915.1070556640625 638.839599609375 915.1070556640625 638.67578125 C 915.1070556640625 638.5387573242188 914.9771728515625 638.3737182617188 914.824951171875 638.3936157226562" fill="#2e79d9" stroke="none" stroke-width="0"/>
</svg>