<svg xmlns="http://www.w3.org/2000/svg" width="4" height="3" viewBox="30.63543701171875 100.1656494140625 3.5882225036621094 3.1997528076172017" fill="none">
  <path d="M 31.23334121704102 103.2574691772461 C 31.39241027832031 103.2055282592773 31.54667663574219 103.1567611694336 31.68976211547852 103.0656433105469 C 31.80726623535156 102.9913101196289 31.92716217041016 102.9201583862305 32.03987121582031 102.8386383056641 C 32.28126525878906 102.6643905639648 32.51947021484375 102.4877243041992 32.75926971435547 102.3118743896484 C 33.02145767211914 102.1208343505859 33.27325057983398 101.918586730957 33.52583694458008 101.7155685424805 C 33.63615036010742 101.6276397705078 33.74565887451172 101.5397109985352 33.8559684753418 101.4509963989258 C 34.03821182250977 101.3047027587891 34.22365951538086 101.0736923217773 34.19088745117188 100.8203125 C 34.15890884399414 100.5725173950195 34.04780197143555 100.4030456542969 33.80880355834961 100.3175201416016 C 33.38355255126953 100.1656494140625 33.02545166015625 100.5613174438477 32.72809982299805 100.8067169189453 C 32.49708938598633 100.9961547851562 32.26688003540039 101.1847991943359 32.0446662902832 101.3854370117188 C 31.82964706420898 101.578857421875 31.61462020874023 101.7715225219727 31.40039825439453 101.9665603637695 C 31.29648590087891 102.0600662231445 31.20056533813477 102.1631927490234 31.10304260253906 102.2631072998047 C 30.97675323486328 102.3942031860352 30.88722610473633 102.5332794189453 30.79689788818359 102.6899566650391 C 30.63543701171875 102.9705200195312 30.90481567382812 103.3654022216797 31.23334121704102 103.2574691772461" fill="#2473d8" stroke="none" stroke-width="0"/>
</svg>