<svg xmlns="http://www.w3.org/2000/svg" width="6" height="2" viewBox="38.51192474365234 72.79238891601562 6.117324829101577 1.7449493408203125" fill="none">
  <path d="M 38.76611328125 74.06971740722656 C 39.11302185058594 74.46138000488281 39.70372772216797 74.45899963378906 40.18733215332031 74.49336242675781 C 40.6165771484375 74.52455139160156 41.04262542724609 74.53733825683594 41.47345733642578 74.52932739257812 C 41.90110778808594 74.52134704589844 42.33355712890625 74.51814270019531 42.75800323486328 74.46380615234375 C 43.25438690185547 74.39984130859375 43.64046478271484 74.29193115234375 44.11526489257812 74.16323852539062 C 44.4254150390625 74.07931518554688 44.62924957275391 73.76358032226562 44.58128356933594 73.44863891601562 C 44.53173065185547 73.11611938476562 44.27354431152344 72.90748596191406 43.94181823730469 72.88430786132812 C 43.48459625244141 72.85153198242188 43.12089538574219 72.79557800292969 42.65968322753906 72.79397583007812 C 42.24802398681641 72.79238891601562 41.83556365966797 72.82356262207031 41.42390441894531 72.82994079589844 C 41.01144409179688 72.83714294433594 40.59978485107422 72.84912109375 40.18733215332031 72.85952758789062 C 39.68454742431641 72.87150573730469 39.16098022460938 72.845947265625 38.76611328125 73.20562744140625 C 38.51192474365234 73.43743896484375 38.55508422851562 73.83152770996094 38.76611328125 74.06971740722656" fill="#2473d8" stroke="none" stroke-width="0"/>
</svg>