<svg xmlns="http://www.w3.org/2000/svg" width="25" height="14" viewBox="23.94485092163086 18.65443801879883 24.66436004638672 14.185039520263668" fill="none">
  <path d="M 24.80174255371094 20.09084320068359 C 28.7041072845459 21.36099052429199 32.58089447021484 22.71267318725586 36.29301834106445 24.47441291809082 C 38.02598571777344 25.2961311340332 39.74135971069336 26.185791015625 41.37440872192383 27.19375419616699 C 42.80362319946289 28.07622337341309 44.16649627685547 29.14653396606445 44.77718353271484 30.76759719848633 L 46.2575569152832 29.28722381591797 C 39.74935531616211 27.11542320251465 33.50093460083008 23.92846488952637 27.3276538848877 20.95892906188965 C 27.15739250183105 21.58880424499512 26.98713302612305 22.21868133544922 26.81607437133789 22.8477611541748 C 30.71204566955566 23.2969856262207 33.60724258422852 26.24414443969727 36.56079864501953 28.52305603027344 C 39.62225723266602 30.88590240478516 43.26724243164062 32.8394775390625 47.24473571777344 32.05932235717773 C 48.60921096801758 31.79154586791992 48.03927993774414 29.64052581787109 46.66522598266602 29.9594612121582 C 42.73088073730469 30.87230682373047 39.15304946899414 28.13297653198242 36.24985504150391 25.84287452697754 C 33.51691818237305 23.68626403808594 30.63930320739746 21.36259269714355 27.08545112609863 20.85660934448242 C 26.05110549926758 20.70953178405762 25.18542289733887 22.13395118713379 26.30449867248535 22.70947456359863 C 29.4155216217041 24.30814933776855 32.56491470336914 25.81250190734863 35.75346374511719 27.25130844116211 C 38.93402481079102 28.68692016601562 42.18413543701172 29.97624969482422 45.33032608032227 31.48699951171875 C 46.25276184082031 31.93063354492188 47.3790283203125 31.19844055175781 47.09766006469727 30.12812423706055 C 46.07850646972656 26.25214004516602 41.37440872192383 24.3353271484375 38.09232711791992 22.81338882446289 C 33.98053741455078 20.9069709777832 29.65852165222168 19.42419815063477 25.16384506225586 18.77673721313477 C 24.31574440002441 18.65443801879883 23.94485092163086 19.8118782043457 24.80174255371094 20.09084320068359" fill="#2473d8" stroke="none" stroke-width="0"/>
</svg>