<svg xmlns="http://www.w3.org/2000/svg" width="3" height="3" viewBox="126.7424621582031 93.07530212402344 2.8927001953125 2.6023101806640625" fill="none">
  <path d="M 129.3487854003906 93.42961120605469 C 129.4346008300781 93.47321319580078 129.5290222167969 93.53155517578125 129.5514526367188 93.67267608642578 C 129.5822448730469 93.86569213867188 129.5705261230469 94.16322326660156 129.5918579101562 94.45531463623047 C 129.6197204589844 94.83888244628906 129.5639343261719 95.18132019042969 129.4702911376953 95.37301635742188 C 129.5559387207031 95.64106750488281 129.267333984375 95.6776123046875 128.9845581054688 95.669921875 C 128.3878784179688 95.65386962890625 127.5570602416992 95.65580749511719 127.041145324707 95.53494262695312 C 127.0170974731445 95.47659301757812 126.8721694946289 95.45448303222656 126.8388900756836 95.37301635742188 C 126.7804718017578 95.23127746582031 126.8490524291992 94.87890625 126.8388900756836 94.64422607421875 C 126.8260116577148 94.35562133789062 126.7424621582031 94.10395050048828 126.7846603393555 93.84808349609375 C 126.7969970703125 93.77360534667969 126.8213577270508 93.69416809082031 126.8388900756836 93.61844635009766 C 126.8556518554688 93.54505157470703 126.8565063476562 93.43635559082031 126.9196548461914 93.41619110107422 C 127.0427780151367 93.94265747070312 127.2306747436523 94.77665710449219 127.041145324707 95.4134521484375 C 127.1620941162109 95.44578552246094 127.2643432617188 95.34835815429688 127.4055480957031 95.33259582519531 C 127.525016784668 95.31887817382812 127.6511688232422 95.36247253417969 127.7969512939453 95.37301635742188 C 128.1455993652344 95.3983154296875 128.7177581787109 95.42655944824219 128.9710540771484 95.34609985351562 C 129.0899200439453 95.30824279785156 129.1378479003906 95.20498657226562 129.2680358886719 95.21110534667969 C 129.342041015625 94.79263305664062 129.3056640625 94.23536682128906 129.2680358886719 93.78074645996094 C 129.2582702636719 93.66336059570312 129.1987609863281 93.52581024169922 129.3084564208984 93.45652770996094 C 128.7175903320312 93.40331268310547 128.0265045166016 93.50176239013672 127.4461212158203 93.443115234375 C 127.2846755981445 93.42674255371094 127.1312942504883 93.36134338378906 126.9871520996094 93.40269470214844 C 127.2295150756836 93.14651489257812 128.0074157714844 93.17274475097656 128.566162109375 93.14620971679688 C 128.885498046875 93.13108062744141 129.6351623535156 93.07530212402344 129.3487854003906 93.42961120605469" fill="#ff4d16" stroke="none" stroke-width="0"/>
</svg>