<svg xmlns="http://www.w3.org/2000/svg" width="1" height="1" viewBox="150.1603240966797 73.56978607177734 1.148605346679716 1" fill="none">
  <path d="M 151.1521148681641 73.65663909912109 C 151.3089294433594 73.56978607177734 150.8751983642578 73.80976104736328 151.0511932373047 73.90959167480469 C 151.1518402099609 73.98798370361328 150.8470001220703 73.74321746826172 150.949951171875 74.11179351806641 C 150.7592926025391 73.91777801513672 150.7728424072266 74.13520812988281 150.7480163574219 74.26323699951172 C 150.5743103027344 74.15578460693359 150.4874420166016 74.22713470458984 150.4950714111328 74.36447906494141 C 150.4087371826172 74.37293243408203 150.2962493896484 74.07795715332031 150.2928466796875 74.31427001953125 C 150.1603240966797 74.10023498535156 150.4911041259766 74.05115509033203 150.5460968017578 73.96035003662109 C 150.6129302978516 74.05623626708984 150.5311584472656 74.14083862304688 150.6975402832031 74.21276092529297 C 150.8467102050781 74.16933441162109 150.5802307128906 74.137451171875 150.6464996337891 74.01084136962891 C 150.7327880859375 74.02887725830078 150.7420959472656 73.97163391113281 150.7480163574219 73.90959167480469 C 151.0012359619141 73.92905426025391 150.848388671875 73.72432708740234 151.1521148681641 73.65663909912109" fill="#2777df" stroke="none" stroke-width="0"/>
</svg>