<svg xmlns="http://www.w3.org/2000/svg" width="1" height="1" viewBox="304.9075927734375 260.0003662109375 1 1.0919799804686932" fill="none">
  <path d="M 305.097900390625 260.1622619628906 C 305.1064147949219 260.1035766601562 305.0869140625 260.0717163085938 305.0480346679688 260.0610046386719 C 305.1737670898438 260.0003662109375 305.2820739746094 260.1157531738281 305.4016723632812 260.2632141113281 C 305.0858154296875 260.4507446289062 305.6213684082031 260.4600830078125 305.65380859375 260.768310546875 C 305.60498046875 260.7671508789062 305.6151428222656 260.7070617675781 305.6041259765625 260.6676330566406 C 305.5082397460938 260.7051391601562 305.568603515625 260.8182373046875 305.4524230957031 260.7186889648438 C 305.5575866699219 260.9140930175781 305.3768310546875 260.8007507324219 305.4016723632812 261.0215148925781 C 305.2586669921875 260.9798278808594 305.2707824707031 261.0923461914062 305.1487121582031 261.0722961425781 C 305.177734375 261.0409851074219 305.2677001953125 260.83203125 305.1487121582031 260.8193359375 C 305.2287902832031 260.8179321289062 305.3373413085938 260.7141418457031 305.3001403808594 260.4653930664062 C 305.1969299316406 260.4797668457031 305.199462890625 260.6007995605469 305.1487121582031 260.6676330566406 C 304.9075927734375 260.4724731445312 305.2234191894531 260.1117858886719 305.097900390625 260.6168823242188 C 305.2888488769531 260.4947509765625 305.150634765625 260.3579711914062 305.3001403808594 260.2124633789062 C 305.2845764160156 260.1441955566406 305.1737670898438 260.1707153320312 305.097900390625 260.1622619628906" fill="#2777df" stroke="none" stroke-width="0"/>
</svg>