<svg xmlns="http://www.w3.org/2000/svg" width="6" height="14" viewBox="7.22100830078125 48.61568450927734 6.373116493225099 14.042770385742195" fill="none">
  <path d="M 7.511168479919434 49.58768081665039 C 7.22100830078125 52.49406814575195 7.890851974487305 55.49638366699219 8.241761207580566 58.37239837646484 C 8.332087516784668 59.11418151855469 8.414421081542969 59.86077117919922 8.53351879119873 60.59854888916016 C 8.630240440368652 61.20126342773438 8.864445686340332 61.77597045898438 9.356038093566895 62.16206359863281 C 9.987516403198242 62.65845489501953 10.83561134338379 62.65525054931641 11.537428855896 62.30833435058594 C 12.10975551605225 62.02616882324219 12.78679370880127 61.51859283447266 13.1592845916748 61.01821136474609 C 13.59412479400635 60.4346923828125 13.14969348907471 59.42752075195312 12.45826625823975 59.29483032226562 C 11.67331886291504 59.14535522460938 11.21050071716309 59.42752075195312 10.63098239898682 59.91351318359375 C 10.57103157043457 59.96707916259766 10.51107978820801 60.01902770996094 10.44873237609863 60.07019805908203 C 10.12260246276855 60.21247863769531 10.24490261077881 60.28441619873047 10.81642818450928 60.28441619873047 C 10.82042407989502 60.27561950683594 10.7540807723999 60.03262329101562 10.74208927154541 59.98946380615234 C 10.42555141448975 58.84880065917969 10.16976261138916 57.68737030029297 9.968329429626465 56.52113342285156 C 9.561468124389648 54.16788482666016 9.43437385559082 51.72191619873047 8.850059509277344 49.40623474121094 C 8.650222778320312 48.61568450927734 7.583907127380371 48.86188888549805 7.511168479919434 49.58768081665039" fill="#2473d8" stroke="none" stroke-width="0"/>
</svg>