<svg xmlns="http://www.w3.org/2000/svg" width="4" height="2" viewBox="69.12133026123047 56.85578536987305 4.274848937988281 2.3676376342773438" fill="none">
  <path d="M 69.50661468505859 58.89168930053711 C 69.55136871337891 58.86371994018555 69.59613037109375 58.83654403686523 69.64168548583984 58.80936050415039 L 69.52580261230469 58.84134292602539 C 69.69605255126953 58.82535934448242 69.83034515380859 58.72543716430664 69.98062133789062 58.65189743041992 C 70.12689971923828 58.58076095581055 70.28117370605469 58.52560043334961 70.43463134765625 58.47523880004883 C 70.58572387695312 58.42567825317383 70.73839569091797 58.38731002807617 70.89186859130859 58.34734725952148 C 70.99337768554688 58.32097244262695 70.93183135986328 58.33616256713867 70.90623474121094 58.34016036987305 C 70.96379852294922 58.33056259155273 71.02375030517578 58.32735824584961 71.08211517333984 58.32016372680664 C 71.19561767578125 58.30418014526367 71.30671691894531 58.2794075012207 71.42021942138672 58.26420974731445 C 71.28992462158203 58.28180313110352 71.47378540039062 58.2634162902832 71.51934051513672 58.26262283325195 C 71.56331634521484 58.26101303100586 71.60726928710938 58.26181411743164 71.65042877197266 58.26420974731445 L 71.67681884765625 58.26501846313477 C 71.75514221191406 58.27221298217773 71.74636077880859 58.27061080932617 71.65203094482422 58.25941848754883 C 71.69839477539062 58.24343490600586 71.80230712890625 58.29778671264648 71.84866333007812 58.31377792358398 C 71.86466217041016 58.32016372680664 71.88064575195312 58.32735824584961 71.89662933349609 58.33376693725586 C 71.95817565917969 58.35534286499023 71.96137237548828 58.35614395141602 71.90701293945312 58.33455276489258 C 71.85746765136719 58.31298446655273 71.85666656494141 58.31457901000977 71.90303039550781 58.3377571105957 C 71.95098114013672 58.36973190307617 71.94779205322266 58.36492538452148 71.89503479003906 58.32577133178711 C 71.79831695556641 58.23944473266602 71.89423370361328 58.33295822143555 71.91022491455078 58.34734725952148 C 71.96938323974609 58.39850234985352 71.89503479003906 58.39690780639648 71.87265777587891 58.29219436645508 C 71.87504577636719 58.30339431762695 71.90462493896484 58.34575271606445 71.91420745849609 58.35934066772461 C 71.99494934082031 58.47124099731445 71.86625671386719 58.22344589233398 71.89823150634766 58.30978012084961 L 71.90542602539062 58.32815933227539 C 71.9925537109375 58.53679275512695 72.00293731689453 58.56077194213867 71.93658447265625 58.3993034362793 C 71.93740081787109 58.41849136352539 71.95417785644531 58.45524978637695 71.95897674560547 58.47204208374023 C 71.96537017822266 58.4952278137207 71.97016906738281 58.51919937133789 71.9765625 58.54319381713867 C 72.00534820556641 58.65748977661133 71.99335479736328 58.56557083129883 71.97896575927734 58.50321578979492 C 71.99494934082031 58.57275772094727 71.98695373535156 58.64950180053711 72.00774383544922 58.72063827514648 C 72.04610443115234 58.85412216186523 72.09008026123047 58.89569473266602 72.16999816894531 59.00360488891602 C 72.18040466308594 59.01719284057617 72.06848907470703 58.8613166809082 72.10606384277344 58.92206954956055 C 72.12683868408203 58.95564651489258 72.1572265625 58.99960708618164 72.18518829345703 59.02837753295898 C 72.38101959228516 59.22342300415039 72.71115112304688 59.21303176879883 72.93736267089844 59.0875358581543 C 73.13641357421875 58.97723007202148 73.27149963378906 58.72063827514648 73.32664489746094 58.50801467895508 C 73.39617919921875 58.23703384399414 73.33223724365234 57.93729019165039 73.20913696289062 57.69350051879883 C 73.03169250488281 57.34019088745117 72.66638946533203 57.03963088989258 72.27711486816406 56.95170211791992 C 71.85266876220703 56.85578536987305 71.41702270507812 56.95809555053711 71.02534484863281 57.12356185913086 C 70.65287017822266 57.28023910522461 70.317138671875 57.5344123840332 70.00620269775391 57.79021072387695 C 69.86471557617188 57.90610885620117 69.73361968994141 58.03320693969727 69.60332489013672 58.16189956665039 C 69.54019165039062 58.2242546081543 69.47783660888672 58.28739547729492 69.41948699951172 58.35374069213867 C 69.32356262207031 58.4632453918457 69.33075714111328 58.48483657836914 69.25962829589844 58.57195663452148 C 69.12133026123047 58.7390251159668 69.29638671875 59.02199172973633 69.50661468505859 58.89168930053711" fill="#2473d8" stroke="none" stroke-width="0"/>
</svg>