<svg xmlns="http://www.w3.org/2000/svg" width="9" height="10" viewBox="435.30322265625 178.8577880859375 8.96630859375 9.879730224609403" fill="none">
  <path d="M 444.0262451171875 183.8857727050781 C 444.0176391601562 183.8326416015625 444.0000610351562 183.7892456054688 443.9776611328125 183.7523498535156 C 443.9983520507812 183.6892700195312 444.0029296875 183.6174163818359 443.9809265136719 183.5365600585938 C 443.2987670898438 181.0198974609375 440.8526306152344 178.8577880859375 438.3200988769531 179.9468688964844 C 438.1954956054688 179.89697265625 438.0469970703125 179.9013824462891 437.9169921875 180.0061187744141 C 436.6939392089844 180.9920043945312 435.4620971679688 182.1177673339844 435.380859375 183.7946014404297 C 435.30322265625 185.3984069824219 436.231201171875 186.8850555419922 437.6106262207031 187.6600952148438 C 438.8673095703125 188.365966796875 440.7792358398438 188.7375183105469 442.0065307617188 187.793701171875 C 443.15771484375 186.9083862304688 444.26953125 185.3909606933594 444.0262451171875 183.8857727050781 M 441.6018676757812 182.3857421875 C 441.613525390625 182.3402557373047 441.5961608886719 182.2896118164062 441.5367126464844 182.2779541015625 C 441.4707641601562 182.26513671875 441.4055786132812 182.250244140625 441.33984375 182.2368469238281 C 441.4168701171875 182.1380310058594 441.4960021972656 182.0409393310547 441.5753173828125 181.9440307617188 C 441.7055053710938 181.9598999023438 441.83544921875 181.9788208007812 441.9652099609375 181.9988861083984 C 441.8658447265625 182.129638671875 441.7664489746094 182.2605590820312 441.6670532226562 182.3912963867188 C 441.645263671875 182.3893737792969 441.6234741210938 182.3876647949219 441.6018676757812 182.3857421875 M 441.427001953125 181.2739105224609 C 441.5384216308594 181.2861633300781 441.650634765625 181.2920684814453 441.7637939453125 181.2876892089844 C 441.7857666015625 181.3075561523438 441.8079223632812 181.3272399902344 441.8297119140625 181.3476867675781 C 441.7150268554688 181.4778442382812 441.6026611328125 181.6099243164062 441.4923706054688 181.7433471679688 C 441.3622131347656 181.7288208007812 441.2320556640625 181.7177276611328 441.1020812988281 181.7098999023438 C 441.1693420410156 181.6231079101562 441.2366333007812 181.5361633300781 441.3042907714844 181.4497680664062 C 441.3421325683594 181.4014129638672 441.3834228515625 181.3371887207031 441.427001953125 181.2739105224609 M 440.6416015625 180.9902801513672 C 440.7081604003906 180.9115295410156 440.77734375 180.8350677490234 440.8468933105469 180.7591857910156 C 440.8818969726562 180.7662658691406 440.9168701171875 180.7727661132812 440.9518432617188 180.7802124023438 C 440.9443664550781 180.7890014648438 440.9369506835938 180.7981872558594 440.9288940429688 180.8079223632812 C 440.876708984375 180.8702392578125 440.8268432617188 180.9346618652344 440.7763671875 180.9983062744141 C 440.7316589355469 180.9946594238281 440.6867370605469 180.9916076660156 440.6416015625 180.9902801513672 M 441.0791625976562 180.9166870117188 C 441.1097106933594 180.9178314208984 441.140869140625 180.9071350097656 441.1624755859375 180.8752136230469 L 441.1710815429688 180.8622131347656 C 441.1733703613281 180.8587799072266 441.1737670898438 180.8551330566406 441.1754760742188 180.8515014648438 C 441.2517395019531 180.8970031738281 441.3262939453125 180.9461212158203 441.399658203125 180.9977264404297 C 441.3757934570312 181.0210418701172 441.3520812988281 181.0451354980469 441.3291625976562 181.0711212158203 C 441.21826171875 181.0565948486328 441.1077880859375 181.0390167236328 440.9969482421875 181.0235290527344 C 441.02197265625 180.9908447265625 441.0562133789062 180.9449768066406 441.0791625976562 180.9166870117188 M 442.1808471679688 181.7169799804688 C 442.1795043945312 181.7186889648438 442.1775817871094 181.7192535400391 442.1764221191406 181.7211761474609 C 442.1494750976562 181.75634765625 442.1229248046875 181.79150390625 442.095947265625 181.8266754150391 C 441.97021484375 181.8066101074219 441.84423828125 181.7880706787109 441.7180786132812 181.7710571289062 C 441.7998962402344 181.673583984375 441.8822937011719 181.5764770507812 441.9665832519531 181.4807281494141 C 442.04052734375 181.5564117431641 442.1116333007812 181.6357421875 442.1808471679688 181.7169799804688 M 442.9665832519531 182.9681396484375 C 442.9698486328125 182.9754028320312 442.972900390625 182.9824676513672 442.9759521484375 182.9897308349609 L 442.9564514160156 182.9868621826172 C 442.9580078125 182.9849548339844 442.9595031738281 182.9828491210938 442.9608764648438 182.9807434082031 C 442.964111328125 182.9765472412109 442.9642944335938 182.9723358154297 442.9665832519531 182.9681396484375 M 441.3501586914062 181.9203338623047 C 441.27734375 182.0109252929688 441.2047119140625 182.1017150878906 441.1337890625 182.19384765625 C 441.0185546875 182.1693725585938 440.9033203125 182.1443481445312 440.7883911132812 182.1181640625 C 440.845947265625 182.0430297851562 440.903076171875 181.9675445556641 440.9608154296875 181.8926239013672 C 441.0903930664062 181.8975830078125 441.2203979492188 181.90771484375 441.3501586914062 181.9203338623047 M 442.1781616210938 182.0323486328125 C 442.27294921875 182.0478210449219 442.3675537109375 182.0638732910156 442.462158203125 182.0799255371094 C 442.47021484375 182.0914001464844 442.4786071777344 182.1026763916016 442.4866333007812 182.1143341064453 C 442.3841857910156 182.2194519042969 442.2852172851562 182.32763671875 442.1869506835938 182.4365844726562 C 442.0883178710938 182.427978515625 441.989501953125 182.4193878173828 441.8906860351562 182.4107971191406 C 441.9864501953125 182.2846374511719 442.0823974609375 182.1584777832031 442.1781616210938 182.0323486328125 M 442.5950317382812 182.2781372070312 C 442.6233215332031 182.3222961425781 442.6504516601562 182.3670196533203 442.6773986816406 182.4119262695312 C 442.6565551757812 182.4321899414062 442.6366882324219 182.4533996582031 442.6162719726562 182.4738616943359 C 442.5535278320312 182.468505859375 442.4908447265625 182.4629669189453 442.4283447265625 182.4576110839844 C 442.4837646484375 182.3975982666016 442.5382690429688 182.3368225097656 442.5950317382812 182.2781372070312 M 442.4447937011719 182.6500854492188 C 442.3695068359375 182.7309265136719 442.2964477539062 182.8135070800781 442.225341796875 182.8977966308594 C 442.1689758300781 182.8920593261719 442.11279296875 182.8851776123047 442.056396484375 182.8800201416016 C 442.1252136230469 182.7978363037109 442.19287109375 182.7145080566406 442.2639770507812 182.6343994140625 C 442.3241882324219 182.6395721435547 442.3845825195312 182.6449279785156 442.4447937011719 182.6500854492188 M 442.6950073242188 182.671875 C 442.7396850585938 182.6757049560547 442.784423828125 182.6797180175781 442.829345703125 182.6835327148438 C 442.8580322265625 182.7385864257812 442.8853454589844 182.7943878173828 442.912109375 182.8504028320312 C 442.8731384277344 182.8368225097656 442.8262939453125 182.8423614501953 442.7958984375 182.8844146728516 C 442.7783203125 182.90869140625 442.7599792480469 182.9325866699219 442.7423706054688 182.9568634033203 C 442.6473999023438 182.9444274902344 442.5522155761719 182.933349609375 442.45703125 182.9224548339844 C 442.5332641601562 182.8362426757812 442.6143188476562 182.7542572021484 442.6950073242188 182.671875 M 442.61376953125 183.1305999755859 C 442.5376892089844 183.2338104248047 442.462158203125 183.33740234375 442.3849487304688 183.4398498535156 C 442.2916870117188 183.4148101806641 442.198974609375 183.3871002197266 442.106689453125 183.3574829101562 C 442.1724243164062 183.2687835693359 442.2417907714844 183.1831665039062 442.311767578125 183.0979156494141 C 442.4124755859375 183.1087951660156 442.513427734375 183.1181793212891 442.61376953125 183.1305999755859 M 442.8280029296875 183.1604156494141 C 442.9056396484375 183.1709289550781 442.9833984375 183.181640625 443.0610046386719 183.1930999755859 C 443.1139526367188 183.3270874023438 443.1609497070312 183.46240234375 443.2022705078125 183.598876953125 C 443.1309814453125 183.590087890625 443.0594787597656 183.5820617675781 442.98876953125 183.5707855224609 C 443.0235595703125 183.5294952392578 443.0571899414062 183.4876403808594 443.0921630859375 183.4467315673828 C 443.1720581054688 183.3538513183594 443.0374755859375 183.2181396484375 442.95703125 183.3116149902344 C 442.8948974609375 183.3838500976562 442.8350830078125 183.4576416015625 442.7742919921875 183.5306396484375 C 442.71044921875 183.5180358886719 442.6468200683594 183.5054016113281 442.5835571289062 183.4906921386719 C 442.6657409667969 183.3811798095703 442.7469787597656 183.2708892822266 442.8280029296875 183.1604156494141 M 442.634033203125 183.6986389160156 C 442.5405578613281 183.8140869140625 442.4491577148438 183.9312591552734 442.3585815429688 184.0491943359375 C 442.294189453125 184.0449829101562 442.2295837402344 184.040771484375 442.1649780273438 184.0373382568359 C 442.2637939453125 183.9106140136719 442.3624267578125 183.7837066650391 442.459716796875 183.6556549072266 C 442.5177917480469 183.6699829101562 442.5755004882812 183.68603515625 442.634033203125 183.6986389160156 M 442.8492431640625 183.7380218505859 C 442.949951171875 183.7559814453125 443.05126953125 183.7716674804688 443.1533203125 183.78466796875 L 442.9188232421875 184.0879821777344 C 442.8088989257812 184.07958984375 442.6987915039062 184.0717468261719 442.5888977050781 184.0639038085938 C 442.6743469238281 183.9543762207031 442.7609252929688 183.8456420898438 442.8492431640625 183.7380218505859 M 443.3026123046875 183.9014434814453 C 443.2848205566406 183.9578247070312 443.2779541015625 184.0201416015625 443.2890319824219 184.0889434814453 C 443.2903747558594 184.0975494384766 443.2899780273438 184.1069030761719 443.2911376953125 184.11572265625 C 443.2425537109375 184.1120758056641 443.1940307617188 184.1086273193359 443.1453247070312 184.1050109863281 C 443.1976623535156 184.0371551513672 443.250244140625 183.9692993164062 443.3026123046875 183.9014434814453 M 440.962158203125 187.4970703125 C 439.8073120117188 187.8411102294922 438.312255859375 187.338623046875 437.4190979003906 186.6015930175781 C 436.43896484375 185.7931060791016 435.9068603515625 184.4653015136719 436.2374877929688 183.2095336914062 C 436.4798583984375 182.2890319824219 437.1887817382812 181.5942535400391 437.9144897460938 180.9885559082031 C 437.9735717773438 180.9864501953125 438.0357055664062 180.9694519042969 438.0989685058594 180.9287414550781 C 438.6870727539062 180.5514221191406 439.2685241699219 180.4031066894531 439.8191528320312 180.4273834228516 C 439.765869140625 180.4722900390625 439.7861022949219 180.5902252197266 439.8805236816406 180.6009216308594 C 439.9948120117188 180.6139221191406 440.1076049804688 180.6332397460938 440.2211303710938 180.649658203125 C 440.1240234375 180.7635803222656 440.0288391113281 180.8794250488281 439.9380493164062 180.9988708496094 C 439.8637084960938 181.0967407226562 440.0296020507812 181.1921081542969 440.10302734375 181.0953979492188 C 440.2115783691406 180.9526214599609 440.3264465332031 180.8155822753906 440.4451293945312 180.6817932128906 C 440.5072631835938 180.6921081542969 440.5691833496094 180.7041473388672 440.631103515625 180.7156066894531 C 440.4829711914062 180.8826599121094 440.3402099609375 181.0539245605469 440.2066040039062 181.2330169677734 C 440.1330261230469 181.3318328857422 440.2989501953125 181.4272155761719 440.3717346191406 181.3295288085938 C 440.4086303710938 181.2798461914062 440.4486083984375 181.2326354980469 440.48681640625 181.18408203125 C 440.5361328125 181.1812133789062 440.5850524902344 181.1798706054688 440.6339721679688 181.1810302734375 C 440.5068969726562 181.3459777832031 440.3820495605469 181.5126342773438 440.2616577148438 181.6825714111328 C 440.1903686523438 181.7830963134766 440.3558654785156 181.878662109375 440.4266052246094 181.7789001464844 C 440.5372619628906 181.6229248046875 440.6500244140625 181.4684906005859 440.7666625976562 181.3167266845703 C 440.7972106933594 181.2767944335938 440.8289489746094 181.2376098632812 440.8600769042969 181.1980285644531 C 440.9713134765625 181.21044921875 441.0822143554688 181.2267150878906 441.1930541992188 181.2433471679688 C 441.0923461914062 181.3828582763672 440.9996337890625 181.5317687988281 440.9103698730469 181.6472015380859 C 440.8966064453125 181.664794921875 440.8832397460938 181.6827545166016 440.8694458007812 181.7005310058594 C 440.8015747070312 181.6990051269531 440.7335815429688 181.6968994140625 440.6658935546875 181.6980438232422 C 440.5429992675781 181.7003479003906 440.5426330566406 181.8914794921875 440.6658935546875 181.8891906738281 C 440.6854248046875 181.8887939453125 440.705078125 181.8899383544922 440.724609375 181.8899383544922 C 440.6783447265625 181.949951171875 440.6324462890625 182.0103454589844 440.5863647460938 182.0705718994141 C 440.4900512695312 182.0476226806641 440.3935546875 182.0262145996094 440.2975769042969 182.0023193359375 C 440.1783447265625 181.9725036621094 440.1272888183594 182.1567687988281 440.2467651367188 182.1865844726562 C 440.3174438476562 182.2041625976562 440.3883666992188 182.2196502685547 440.4591064453125 182.2366638183594 C 440.3973388671875 182.3177032470703 440.3350524902344 182.3981628417969 440.2734985351562 182.4792175292969 C 440.1993408203125 182.5772705078125 440.365234375 182.6726379394531 440.4386596679688 182.5757293701172 C 440.5123901367188 182.4782562255859 440.587158203125 182.3817443847656 440.6613159179688 182.2844543457031 C 440.7761840820312 182.3111877441406 440.8914184570312 182.3373870849609 441.0068969726562 182.3622436523438 C 440.8581848144531 182.5602569580078 440.7123413085938 182.7601928710938 440.5724487304688 182.9648895263672 C 440.5026550292969 183.0667572021484 440.6683654785156 183.1623229980469 440.7373657226562 183.0614013671875 C 440.8900756835938 182.8381652832031 441.0494995117188 182.6202697753906 441.2127380371094 182.4052429199219 C 441.3037109375 182.4241638183594 441.39453125 182.4444274902344 441.4858703613281 182.4623870849609 C 441.4896850585938 182.4631652832031 441.4927368164062 182.4620056152344 441.4963989257812 182.4621887207031 C 441.4931335449219 182.4983215332031 441.5076599121094 182.5367431640625 441.5401611328125 182.5585327148438 C 441.3906860351562 182.7552185058594 441.2412109375 182.9518890380859 441.0917358398438 183.1485748291016 C 441.0173950195312 183.2466125488281 441.18310546875 183.341796875 441.2566833496094 183.2450866699219 C 441.422607421875 183.0268249511719 441.5885009765625 182.808349609375 441.75439453125 182.5900726318359 C 441.8463745117188 182.5980987548828 441.9381103515625 182.6061248779297 442.0298461914062 182.6139526367188 C 441.9149780273438 182.7471923828125 441.8012390136719 182.8815460205078 441.6925048828125 183.0203247070312 C 441.6173706054688 183.1160888671875 441.7517395019531 183.2521514892578 441.82763671875 183.1554565429688 C 441.8568725585938 183.1181793212891 441.8886108398438 183.0831909179688 441.918212890625 183.0465087890625 C 441.930419921875 183.053955078125 441.944580078125 183.0595092773438 441.9616088867188 183.06103515625 C 442.0013427734375 183.0646667480469 442.0409240722656 183.06982421875 442.0805053710938 183.0736389160156 C 442.0233154296875 183.1458892822266 441.9678955078125 183.2198486328125 441.9136352539062 183.2945861816406 C 441.905029296875 183.2915344238281 441.896240234375 183.2892456054688 441.8878173828125 183.2861785888672 C 441.7720031738281 183.244140625 441.721923828125 183.4287719726562 441.8369750976562 183.4704284667969 C 441.9766845703125 183.5209045410156 442.1173706054688 183.5650482177734 442.259033203125 183.6049957275391 C 442.1511840820312 183.7464294433594 442.0430297851562 183.8874816894531 441.93310546875 184.0274047851562 C 441.8670043945312 184.0247344970703 441.8010559082031 184.0209045410156 441.735107421875 184.0189819335938 C 441.6120300292969 184.0155487060547 441.6120300292969 184.2066955566406 441.735107421875 184.2101287841797 C 441.7968444824219 184.2118530273438 441.8585815429688 184.2154846191406 441.9205017089844 184.2179718017578 C 441.9484252929688 184.2401275634766 441.984130859375 184.2456665039062 442.0156860351562 184.22216796875 C 442.0842895507812 184.2252197265625 442.1531066894531 184.2275085449219 442.2217407226562 184.2313537597656 C 442.0535278320312 184.4568786621094 441.8893432617188 184.6854858398438 441.7322387695312 184.91943359375 C 441.6634521484375 185.0218811035156 441.8289184570312 185.1176300048828 441.8973999023438 185.0159454345703 C 442.0734252929688 184.7537078857422 442.257080078125 184.4972229003906 442.4474792480469 184.2460632324219 C 442.5581359863281 184.2533264160156 442.6686096191406 184.2604064941406 442.7791137695312 184.2686157226562 C 442.5845336914062 184.5203552246094 442.3899536132812 184.7722473144531 442.1951599121094 185.0239868164062 C 442.1207885742188 185.1201171875 442.2551879882812 185.2563934326172 442.330322265625 185.1591186523438 C 442.5554809570312 184.8680114746094 442.7806091308594 184.5767211914062 443.0055541992188 184.2856140136719 C 443.1058959960938 184.2932739257812 443.2060546875 184.3003387451172 443.3062438964844 184.3078002929688 C 443.3194274902344 185.5002746582031 442.0393676757812 187.1761474609375 440.962158203125 187.4970703125" fill="#231f20" stroke="#ffffff" stroke-width="1"/>
</svg>