<svg xmlns="http://www.w3.org/2000/svg" width="32" height="11" viewBox="175.5313262939453 3.335784912109375 31.623870849609375 10.931151390075685" fill="none">
  <path d="M 206.9376220703125 3.492213726043701 C 206.0254364013672 3.335784912109375 205.1202087402344 3.511889934539795 204.2517395019531 3.799202919006348 C 203.3519439697266 4.09686279296875 202.4979858398438 4.476272583007812 201.678955078125 4.953459739685059 C 200.9228057861328 5.394042491912842 200.0778656005859 5.854451179504395 199.6442565917969 6.648974418640137 C 199.4480133056641 7.008557796478271 199.352294921875 7.419644355773926 199.3003082275391 7.822681427001953 C 199.2444458007812 8.256039619445801 199.1907043457031 8.688006401062012 199.1426696777344 9.122457504272461 C 199.1099548339844 9.418800354003906 199.07470703125 9.714841842651367 199.0395965576172 10.01092052459717 C 199.034423828125 10.01069450378418 199.0295104980469 10.01016902923584 199.0242614746094 10.0102071762085 C 195.5955505371094 10.01599979400635 192.1677703857422 10.13243675231934 188.7461090087891 10.35199546813965 C 185.3315277099609 10.57110118865967 181.9029083251953 10.85130310058594 178.5183715820312 11.36287784576416 C 177.7597808837891 11.47754764556885 176.9472045898438 11.52352142333984 176.255859375 11.88803100585938 C 176.0287628173828 12.00774383544922 175.5313262939453 12.30265522003174 175.5769195556641 12.60464286804199 C 175.6119995117188 12.83729076385498 175.7168273925781 13.07693862915039 175.7837982177734 13.30289173126221 L 175.9906921386719 14.00117969512939 C 176.0694274902344 14.26693630218506 176.4855804443359 14.15403366088867 176.4070281982422 13.88639736175537 C 176.2813873291016 13.45830631256104 176.1557159423828 13.03025054931641 176.0300750732422 12.60219573974609 C 176.4114837646484 12.21168804168701 176.9497680664062 12.06086349487305 177.4800262451172 11.96936988830566 C 178.1854705810547 11.84762763977051 178.9059906005859 11.79999828338623 179.6178436279297 11.72851848602295 C 181.1868896484375 11.5709981918335 182.7536315917969 11.39669895172119 184.3246612548828 11.25798892974854 C 187.4547119140625 10.98162460327148 190.5927581787109 10.79325389862061 193.7336883544922 10.70119667053223 C 195.4780120849609 10.65010452270508 197.2231292724609 10.62395858764648 198.9682312011719 10.62538814544678 C 198.9575042724609 10.72004413604736 198.9466094970703 10.81466007232666 198.9363708496094 10.90931606292725 C 198.8719635009766 11.50448417663574 198.7906341552734 12.09735584259033 198.7818450927734 12.69621181488037 C 198.7796173095703 12.85030841827393 199.02294921875 12.88981151580811 199.0558166503906 12.73326873779297 C 199.2576599121094 11.77080345153809 199.3240509033203 10.7703800201416 199.4252319335938 9.792529106140137 C 199.5126190185547 8.948609352111816 199.5476837158203 8.051342964172363 199.9043121337891 7.267278671264648 C 200.0662841796875 6.911193370819092 200.2873840332031 6.585544109344482 200.6098022460938 6.357973575592041 C 200.9631500244141 6.108620166778564 201.3415832519531 5.892674446105957 201.7137451171875 5.673117160797119 C 202.4754791259766 5.223805904388428 203.2250366210938 4.735068321228027 204.0362243652344 4.378833293914795 C 204.9361419677734 3.983622550964355 205.9082794189453 3.838968753814697 206.8863525390625 3.8712477684021 C 207.0990753173828 3.87824535369873 207.1551971435547 3.529533863067627 206.9376220703125 3.492213726043701" fill="#2e79d9" stroke="none" stroke-width="0"/>
</svg>