<svg xmlns="http://www.w3.org/2000/svg" width="10" height="10" viewBox="384.33251953125 260.1002197265625 9.675994873046875 9.963073730468693" fill="none">
  <path d="M 393.7630920410156 265.0953369140625 C 393.8145141601562 263.6836242675781 393.279541015625 262.2458801269531 392.0750122070312 261.4737243652344 C 392.072509765625 261.4093017578125 391.9960632324219 261.3645629882812 391.9375610351562 261.3926696777344 C 391.8997192382812 261.3708801269531 391.861328125 261.3494873046875 391.8223266601562 261.3290100097656 C 391.817138671875 261.3251953125 391.8131713867188 261.3210144042969 391.8078002929688 261.3173522949219 C 390.1889038085938 260.2680358886719 387.3515014648438 260.1002197265625 386.0693664550781 261.7537231445312 C 386.0563659667969 261.7703552246094 386.0460205078125 261.7875366210938 386.0372314453125 261.8049621582031 C 384.8285217285156 263.3393859863281 384.33251953125 265.4181518554688 385.183837890625 267.2513427734375 C 385.9684448242188 268.9409790039062 387.7525024414062 270.0632934570312 389.6284790039062 269.8281860351562 C 391.6415100097656 269.5758972167969 393.179931640625 268.0017395019531 393.6333312988281 266.0653381347656 L 393.685302734375 266.0768127441406 C 393.8051452636719 266.1029968261719 393.8563842773438 265.9189147949219 393.7361450195312 265.8923645019531 C 393.71533203125 265.8879699707031 393.6944885253906 265.8833618164062 393.673828125 265.8788146972656 C 393.7078857421875 265.7037048339844 393.7332763671875 265.5265197753906 393.748779296875 265.3478088378906 C 393.7655639648438 265.370361328125 393.7807006835938 265.3940734863281 393.7925415039062 265.4200744628906 C 393.84375 265.5316772460938 394.0085144042969 265.4347839355469 393.9576721191406 265.3235473632812 C 393.9110412597656 265.2220458984375 393.8428039550781 265.1503601074219 393.7630920410156 265.0953369140625 M 392.2959594726562 264.7350463867188 C 392.4742736816406 264.5236511230469 392.6524047851562 264.3120727539062 392.8307495117188 264.1006774902344 C 392.9272766113281 264.0985717773438 393.0239868164062 264.0937805175781 393.1206970214844 264.0893859863281 C 393.1423034667969 264.2008056640625 393.1583862304688 264.3135681152344 393.1707763671875 264.4271240234375 C 393.1451721191406 264.4227294921875 393.1178283691406 264.4290466308594 393.0943298339844 264.4552307128906 C 392.9838562011719 264.5779418945312 392.8733520507812 264.7008361816406 392.7630920410156 264.82373046875 C 392.6072998046875 264.7940979003906 392.4521179199219 264.7619934082031 392.2959594726562 264.7350463867188 M 392.6172485351562 264.9859924316406 C 392.4517211914062 265.1700744628906 392.2861938476562 265.3541259765625 392.1206665039062 265.5381774902344 C 391.9794311523438 265.5072326660156 391.83837890625 265.4762573242188 391.6971435546875 265.4453125 L 391.698486328125 265.4441528320312 C 391.849853515625 265.2644958496094 392.0014038085938 265.0848083496094 392.1527709960938 264.9049682617188 C 392.3009338378906 264.9302062988281 392.4490356445312 264.954833984375 392.5968017578125 264.9825744628906 C 392.6033020019531 264.9837036132812 392.6105651855469 264.98486328125 392.6172485351562 264.9859924316406 M 391.3716430664062 261.7264099121094 C 391.3909301757812 261.743408203125 391.4125366210938 261.7594604492188 391.4396667480469 261.7726440429688 C 391.5021667480469 261.8030395507812 391.5602722167969 261.8378295898438 391.6193237304688 261.8716430664062 C 391.5790100097656 261.93359375 391.5369567871094 261.9941711425781 391.495849609375 262.0555114746094 C 391.2431640625 261.9828796386719 390.9905090332031 261.9102783203125 390.7378234863281 261.837646484375 C 390.8159790039062 261.73193359375 390.8930358886719 261.6252746582031 390.9691162109375 261.5180358886719 C 391.1105346679688 261.5809326171875 391.2437744140625 261.6514587402344 391.3716430664062 261.7264099121094 M 392.1009826660156 262.2178039550781 C 392.0914306640625 262.2176208496094 392.0824584960938 262.2189636230469 392.0731201171875 262.2216186523438 C 391.94482421875 262.1847534179688 391.8167724609375 262.1478576660156 391.6885375976562 262.1109619140625 C 391.719482421875 262.0645141601562 391.751220703125 262.0184326171875 391.7816162109375 261.9716186523438 C 391.8953247070312 262.047119140625 392.0016174316406 262.1294860839844 392.1009826660156 262.2178039550781 M 391.3829040527344 262.2220153808594 C 391.28466796875 262.3645935058594 391.1839294433594 262.5052795410156 391.0809326171875 262.6444091796875 C 390.7823486328125 262.6059875488281 390.482666015625 262.5765686035156 390.1821899414062 262.5530395507812 C 390.3297729492188 262.3718566894531 390.4736938476562 262.1876220703125 390.6149291992188 262.0010681152344 C 390.870849609375 262.0748291015625 391.1269836425781 262.1484069824219 391.3829040527344 262.2220153808594 M 391.5753784179688 262.2774353027344 C 391.6927490234375 262.3110656738281 391.8099060058594 262.3447265625 391.9270629882812 262.3785400390625 C 391.83837890625 262.4956970214844 391.74951171875 262.6130676269531 391.6608276367188 262.7304077148438 C 391.5390625 262.7107238769531 391.41748046875 262.6900939941406 391.2953491210938 262.6728820800781 C 391.3907470703125 262.5425415039062 391.4842224121094 262.4106750488281 391.5753784179688 262.2774353027344 M 392.1225891113281 262.4347534179688 C 392.2120361328125 262.4605407714844 392.3016967773438 262.4861450195312 392.3911743164062 262.511962890625 C 392.4033813476562 262.5263061523438 392.4140930175781 262.5417785644531 392.4259338378906 262.5564880371094 C 392.333251953125 262.6398315429688 392.2447204589844 262.7267761230469 392.1600341796875 262.8173828125 C 392.064697265625 262.7992248535156 391.9691162109375 262.7804870605469 391.87353515625 262.7638854980469 C 391.9564819335938 262.6541748046875 392.0394592285156 262.5444641113281 392.1225891113281 262.4347534179688 M 392.5432739257812 262.7069091796875 C 392.5933837890625 262.77685546875 392.639404296875 262.8493041992188 392.68359375 262.923095703125 C 392.5824584960938 262.9007263183594 392.4807739257812 262.8823852539062 392.3794860839844 262.8617248535156 C 392.4320373535156 262.8084106445312 392.4876708984375 262.7577819824219 392.5432739257812 262.7069091796875 M 392.6570129394531 263.1123046875 C 392.439697265625 263.3823852539062 392.215087890625 263.6459655761719 391.9840087890625 263.9035949707031 C 391.8695068359375 263.8984375 391.7552490234375 263.8865966796875 391.6407470703125 263.8783874511719 C 391.8016662597656 263.5664367675781 392.0006713867188 263.283935546875 392.2290649414062 263.0259094238281 C 392.371826171875 263.0540161132812 392.5148315429688 263.0807800292969 392.6570129394531 263.1123046875 M 392.80322265625 263.2340698242188 C 392.81640625 263.2178039550781 392.8215942382812 263.2002258300781 392.823486328125 263.1828308105469 C 392.8911437988281 263.32275390625 392.9479370117188 263.4683837890625 392.996826171875 263.6172790527344 C 392.9886474609375 263.6224365234375 392.9804077148438 263.6274108886719 392.9727783203125 263.6364135742188 C 392.8949584960938 263.7287292480469 392.8170166015625 263.8212280273438 392.7391967773438 263.9137573242188 C 392.5704345703125 263.9162292480469 392.4022216796875 263.9122009277344 392.2340087890625 263.9079895019531 C 392.42822265625 263.6874389648438 392.6189880371094 263.463623046875 392.80322265625 263.2340698242188 M 393.077880859375 263.9003601074219 C 393.0507507324219 263.9015197753906 393.0238037109375 263.9024658203125 392.996826171875 263.9034118652344 C 393.0178833007812 263.8783874511719 393.0390930175781 263.8533630371094 393.060302734375 263.828125 C 393.0665893554688 263.8519897460938 393.0719604492188 263.8762817382812 393.077880859375 263.9003601074219 M 392.5782470703125 264.1044921875 C 392.4110107421875 264.3030700683594 392.2437744140625 264.50146484375 392.0765380859375 264.6998596191406 C 391.9094848632812 264.67236328125 391.7420654296875 264.6459655761719 391.5746154785156 264.6207580566406 C 391.742431640625 264.4481506347656 391.9083251953125 264.2734680175781 392.0696411132812 264.0949401855469 C 392.239013671875 264.1014404296875 392.4085388183594 264.1048583984375 392.5782470703125 264.1044921875 M 393.190673828125 264.633544921875 C 393.1959838867188 264.724365234375 393.1981201171875 264.8153076171875 393.1979370117188 264.9063110351562 C 393.1262512207031 264.8913879394531 393.0539855957031 264.8797302246094 392.9822998046875 264.8653869628906 C 393.0516967773438 264.7881774902344 393.12109375 264.7109680175781 393.190673828125 264.633544921875 M 389.5510864257812 269.2544250488281 C 387.9375305175781 269.449951171875 386.4453125 268.5181884765625 385.7383117675781 267.0810241699219 C 384.92236328125 265.42236328125 385.3937072753906 263.4762268066406 386.5296020507812 262.0983581542969 L 386.5303955078125 262.0970153808594 C 387.4963989257812 260.9375915527344 389.3826904296875 260.8899841308594 390.7880859375 261.4444885253906 C 390.707275390625 261.5576171875 390.625244140625 261.6698303222656 390.5421142578125 261.78125 C 390.1743774414062 261.6755676269531 389.8066101074219 261.5698547363281 389.4388427734375 261.4639587402344 C 389.3203735351562 261.429931640625 389.2698974609375 261.6143798828125 389.3880615234375 261.6484069824219 C 389.731689453125 261.7472229003906 390.0753479003906 261.8460388183594 390.4190063476562 261.9448547363281 C 390.2664794921875 262.1449890136719 390.1114501953125 262.3429870605469 389.9511108398438 262.5372009277344 C 389.8438720703125 262.5303039550781 389.7372436523438 262.5201721191406 389.6298217773438 262.5150146484375 C 389.5069274902344 262.50927734375 389.50732421875 262.7004089355469 389.6298217773438 262.7061462402344 C 389.685791015625 262.7088317871094 389.741455078125 262.7145690917969 389.7974548339844 262.7176208496094 C 389.7183227539062 262.8110961914062 389.6399536132812 262.9053039550781 389.55908203125 262.9972534179688 C 389.4780578613281 263.08935546875 389.61279296875 263.22509765625 389.6942138671875 263.1323852539062 C 389.8094787597656 263.0012512207031 389.9220581054688 262.8680419921875 390.0338745117188 262.7340393066406 C 390.3402709960938 262.7554626464844 390.6455078125 262.7841491699219 390.9497680664062 262.8211975097656 C 390.8460083007812 262.9571228027344 390.7402954101562 263.0918579101562 390.6317138671875 263.2243041992188 C 390.5543212890625 263.3189086914062 390.6889038085938 263.454833984375 390.7668762207031 263.3596496582031 C 390.9046630859375 263.1912536621094 391.0379028320312 263.0194091796875 391.16845703125 262.8458862304688 C 391.2894287109375 262.8623046875 391.40966796875 262.8839111328125 391.5304565429688 262.90283203125 C 391.3836669921875 263.0966491699219 391.237060546875 263.2904357910156 391.0904541015625 263.4842529296875 C 391.0162963867188 263.5823059082031 391.1822204589844 263.6776733398438 391.2554321289062 263.5807800292969 C 391.4180603027344 263.365966796875 391.5805358886719 263.1510925292969 391.7431640625 262.936279296875 C 391.8320617675781 262.951171875 391.921142578125 262.96533203125 392.010009765625 262.9815673828125 C 391.80224609375 263.2286987304688 391.6210327148438 263.4976501464844 391.4714050292969 263.789306640625 C 391.4574279785156 263.8164672851562 391.4572448730469 263.8426513671875 391.4656677246094 263.8653869628906 C 391.1690063476562 263.8393859863281 390.8727722167969 263.8065185546875 390.5767211914062 263.7587280273438 C 390.4564819335938 263.7394104003906 390.4046630859375 263.9234924316406 390.52587890625 263.9431762695312 C 390.9564819335938 264.0125732421875 391.3882446289062 264.0569152832031 391.8206176757812 264.0823059082031 C 391.6638793945312 264.2528076171875 391.50390625 264.4206237792969 391.341064453125 264.5857543945312 C 391.2706909179688 264.5811767578125 391.2255859375 264.6446228027344 391.2294311523438 264.6991271972656 C 391.2091674804688 264.7193603515625 391.1894836425781 264.7403869628906 391.1690063476562 264.7606506347656 C 391.081298828125 264.8472290039062 391.2164306640625 264.9823608398438 391.3041381835938 264.8957824707031 C 391.3402709960938 264.85986328125 391.375244140625 264.8229675292969 391.4111938476562 264.7868347167969 C 391.5860595703125 264.8126525878906 391.760986328125 264.8390197753906 391.9354858398438 264.8673095703125 C 391.8114013671875 265.0144958496094 391.6873779296875 265.161865234375 391.5633544921875 265.3090209960938 C 391.5352478027344 265.3424682617188 391.5348510742188 265.3808898925781 391.5490112304688 265.4128112792969 C 391.4817199707031 265.3981018066406 391.4144287109375 265.3831787109375 391.34716796875 265.3684692382812 C 391.2271118164062 265.34228515625 391.1760864257812 265.5263366699219 391.2963256835938 265.5527038574219 C 391.522216796875 265.6024169921875 391.7479858398438 265.6519165039062 391.973876953125 265.701416015625 C 391.8765869140625 265.8096008300781 391.7795104980469 265.9177856445312 391.6822204589844 266.0259704589844 C 391.5721435546875 265.974365234375 391.4618530273438 265.92333984375 391.3534545898438 265.8663635253906 C 391.2447204589844 265.8092346191406 391.1480102539062 265.9741516113281 391.2569580078125 266.0315246582031 C 391.3546142578125 266.0827331542969 391.4544067382812 266.1282348632812 391.5535888671875 266.1754455566406 C 391.5023498535156 266.2650756835938 391.62255859375 266.3776550292969 391.6998291015625 266.2918395996094 C 391.7091674804688 266.2813110351562 391.71875 266.2707824707031 391.7280883789062 266.2602844238281 C 391.8810119628906 266.3287048339844 392.0360107421875 266.3916015625 392.1925659179688 266.4501037597656 C 392.0084838867188 266.6341552734375 391.8244018554688 266.8182373046875 391.640380859375 267.0022888183594 C 391.5534057617188 267.0894470214844 391.6885375976562 267.2245788574219 391.7754821777344 267.1374206542969 C 391.7995910644531 267.1133422851562 391.8236694335938 267.0894470214844 391.8477478027344 267.0653686523438 C 391.8555908203125 267.0764465332031 391.8660888671875 267.0863952636719 391.8814086914062 267.0940246582031 C 392.0753784179688 267.1913146972656 392.2693786621094 267.2884216308594 392.46337890625 267.385498046875 C 391.8186950683594 268.384765625 390.7938232421875 269.1038208007812 389.5510864257812 269.2544250488281 M 392.1883544921875 265.7484436035156 C 392.3814086914062 265.7906799316406 392.5742492675781 265.8331298828125 392.7672729492188 265.8753356933594 C 392.62548828125 266.0171508789062 392.483642578125 266.1589965820312 392.3418273925781 266.3008117675781 C 392.1805114746094 266.2425231933594 392.0209350585938 266.1790466308594 391.8632202148438 266.1100769042969 C 391.9716186523438 265.9894714355469 392.0799560546875 265.8690490722656 392.1883544921875 265.7484436035156 M 392.5623779296875 267.2217102050781 C 392.3687744140625 267.1247863769531 392.1753540039062 267.028076171875 391.98193359375 266.9311828613281 C 392.1193237304688 266.7937316894531 392.256591796875 266.6565246582031 392.3940124511719 266.5191040039062 C 392.541748046875 266.5699462890625 392.6912231445312 266.6173400878906 392.8424072265625 266.6595764160156 C 392.7615356445312 266.8541564941406 392.6679077148438 267.0418395996094 392.5623779296875 267.2217102050781 M 392.9142761230469 266.4810485839844 C 392.7898559570312 266.4466552734375 392.6669311523438 266.4084167480469 392.5447998046875 266.3680725097656 C 392.6929321289062 266.2201538085938 392.8408813476562 266.072021484375 392.989013671875 265.924072265625 C 393.0172729492188 265.9302062988281 393.0455932617188 265.9365234375 393.0738830566406 265.942626953125 C 393.0304565429688 266.1259460449219 392.9784851074219 266.3063354492188 392.9142761230469 266.4810485839844 M 393.1107788085938 265.7553405761719 C 393.1025390625 265.6863098144531 393.0129089355469 265.6299133300781 392.9486694335938 265.6939697265625 C 392.9418029785156 265.7010192871094 392.9347534179688 265.7080993652344 392.9276733398438 265.7151794433594 C 392.730224609375 265.6717834472656 392.5325927734375 265.62841796875 392.3351440429688 265.585205078125 C 392.5048828125 265.3963623046875 392.6745910644531 265.20751953125 392.8445129394531 265.0186767578125 C 392.9551696777344 265.0332336425781 393.0753784179688 265.0494689941406 393.1929321289062 265.0735473632812 C 393.1841430664062 265.3028869628906 393.1585693359375 265.5316772460938 393.1151428222656 265.7562866210938 L 393.1107788085938 265.7553405761719" fill="#231f20" stroke="#ffffff" stroke-width="1"/>
</svg>