<svg xmlns="http://www.w3.org/2000/svg" width="2" height="2" viewBox="129.4029998779297 81.23302459716797 1.9204711914062216 1.7895889282226562" fill="none">
  <path d="M 131.0205993652344 81.23302459716797 C 131.0651550292969 81.26403045654297 131.1108551025391 81.29421234130859 131.1215515136719 81.23302459716797 C 131.2106628417969 81.35992431640625 131.2047576904297 81.26882171630859 131.3234710693359 81.33425140380859 C 131.3079528808594 81.40250396728516 131.1968536376953 81.37599182128906 131.1215515136719 81.385009765625 C 131.1912078857422 81.44986724853516 131.1720275878906 81.60413360595703 131.1720275878906 81.7386474609375 C 131.04541015625 81.72962951660156 131.0141143798828 81.81620788574219 130.9698333740234 81.89009094238281 C 130.9018859863281 81.85708618164062 130.8759307861328 81.78179168701172 130.8688659667969 81.68788146972656 C 130.7098236083984 81.75867462158203 130.9382476806641 81.93746185302734 130.8184204101562 81.99160766601562 C 130.780029296875 81.91207885742188 130.6582183837891 81.91546630859375 130.6669464111328 81.78941345214844 C 130.6255187988281 81.79900360107422 130.6164703369141 81.83988952636719 130.5657348632812 81.83931732177734 C 130.7391510009766 81.94564819335938 130.5411834716797 82.02996826171875 130.6159057617188 82.09256744384766 C 130.594482421875 82.21890258789062 130.4720916748047 82.04322052001953 130.5149688720703 81.94113159179688 C 130.481689453125 81.99217224121094 130.3200988769531 82.279541015625 130.5149688720703 82.24400329589844 C 130.3531036376953 82.31197357177734 130.3801727294922 82.34468078613281 130.2115325927734 82.24400329589844 C 130.1066131591797 82.25894927978516 130.2865142822266 82.38078308105469 130.11083984375 82.39516448974609 C 130.1289215087891 82.46678924560547 130.1994018554688 82.40023803710938 130.2115325927734 82.34553527832031 C 130.3793182373047 82.36103057861328 130.0146636962891 82.50147247314453 130.2115325927734 82.5477294921875 C 130.2270355224609 82.63713073730469 130.0155181884766 82.55026245117188 130.0600891113281 82.44619750976562 C 130.0378265380859 82.70424652099609 129.8547821044922 82.98484039306641 129.9588317871094 82.5477294921875 C 129.9495544433594 82.50627136230469 129.9083709716797 82.49667358398438 129.9086608886719 82.44619750976562 C 129.8513946533203 82.55506134033203 129.9027252197266 82.82381439208984 129.8074188232422 82.95127105712891 C 129.7467803955078 83.02261352539062 129.7876739501953 82.95606994628906 129.8074188232422 82.9013671875 C 129.7924346923828 82.85398864746094 129.6706390380859 82.85398864746094 129.6556854248047 82.9013671875 C 129.6195831298828 82.77445220947266 129.654296875 82.85313415527344 129.4029998779297 82.85060119628906 C 129.4833831787109 82.6568603515625 129.4833831787109 82.79081726074219 129.4029998779297 82.59763336181641 C 129.4938201904297 82.5914306640625 129.5099029541016 82.65995788574219 129.6052093505859 82.64839935302734 C 129.5837707519531 82.55252075195312 129.4963531494141 82.52149200439453 129.5039672851562 82.39516448974609 C 129.6091613769531 82.50627136230469 129.6678161621094 82.35144805908203 129.7566375732422 82.44619750976562 C 129.7803344726562 82.24992370605469 130.1754302978516 81.88247680664062 130.5149688720703 81.83931732177734 C 130.4881896972656 81.79900360107422 130.4622344970703 81.75754547119141 130.4647674560547 81.68788146972656 C 130.5910949707031 81.69635009765625 130.5877075195312 81.57480621337891 130.6669464111328 81.53644561767578 C 130.7157592773438 81.53757476806641 130.7058715820312 81.59793853759766 130.7171630859375 81.6376953125 C 130.8285522460938 81.59707641601562 130.7828674316406 81.39968872070312 130.9193572998047 81.385009765625 C 130.9963531494141 81.41857147216797 130.7374725341797 81.58495330810547 131.0205993652344 81.48569488525391 L 131.0205993652344 81.58721160888672 C 131.2149047851562 81.54238128662109 131.0118408203125 81.38417053222656 131.0205993652344 81.23302459716797 M 131.0205993652344 81.78941345214844 C 130.9537506103516 81.66251373291016 131.2554931640625 81.66645050048828 131.0713653564453 81.58721160888672 C 131.0899810791016 81.71807098388672 130.7222442626953 81.48964691162109 130.8688659667969 81.6376953125 C 131.0773010253906 81.61400604248047 130.8198089599609 81.77362060546875 131.0205993652344 81.78941345214844" fill="#2777df" stroke="none" stroke-width="0"/>
</svg>