<svg xmlns="http://www.w3.org/2000/svg" width="2" height="6" viewBox="306.3251342773438 323.177734375 2.127166748046818 5.724151611328125" fill="none">
  <path d="M 306.8851928710938 323.186767578125 C 306.9284057617188 323.177734375 306.9334411621094 323.2065124511719 306.9359436035156 323.2369384765625 C 306.945556640625 323.2947387695312 306.9867858886719 323.2651672363281 306.9867858886719 323.2369384765625 C 307.133056640625 323.2662963867188 306.9094543457031 323.3162231445312 306.9359436035156 323.3889770507812 C 307.0117797851562 323.4157409667969 306.9954223632812 323.4394226074219 307.1381530761719 323.4898986816406 C 307.1099548339844 323.5948181152344 307.0597839355469 323.5971069335938 306.9867858886719 323.5404052734375 C 306.9494934082031 323.6785583496094 307.0868835449219 323.6421813964844 307.0877075195312 323.7431640625 C 307.1468811035156 323.7347106933594 307.1302185058594 323.6506652832031 307.1381530761719 323.5911865234375 C 307.2250366210938 323.5809631347656 307.26904296875 323.6771545410156 307.2895812988281 323.5911865234375 C 307.4154052734375 323.5984802246094 307.3042602539062 323.7623901367188 307.2895812988281 323.7933349609375 C 307.5416870117188 323.4969787597656 307.378173828125 324.2129821777344 307.5425109863281 323.945068359375 C 307.6700439453125 324.1354370117188 307.4988403320312 324.1585388183594 307.4918212890625 324.4002075195312 C 307.5857238769531 324.392333984375 307.5228271484375 324.2281799316406 307.5935974121094 324.19775390625 C 307.5701599121094 324.5043029785156 307.7777709960938 324.1729431152344 307.8454284667969 324.5516662597656 C 308.0820617675781 323.9932861328125 307.7458801269531 324.9944458007812 308.0986633300781 324.9053039550781 C 308.0495910644531 325.0243225097656 307.9551086425781 325.0984802246094 307.8965148925781 325.208740234375 C 307.9119873046875 325.2344055175781 308.0721435546875 325.3063354492188 308.0479125976562 325.1582641601562 C 308.2123107910156 325.3421325683594 308.0109252929688 325.5906066894531 307.9971618652344 325.7651672363281 C 308.189208984375 325.7332763671875 307.9427490234375 325.5539245605469 308.1990966796875 325.5626525878906 C 308.0643005371094 325.80712890625 308.4317016601562 326.1568603515625 308.0479125976562 326.3209838867188 C 308.1754150390625 326.4101257324219 308.0831909179688 326.403564453125 308.1491394042969 326.5223388671875 C 308.2001647949219 326.4893188476562 308.2010803222656 326.4064331054688 308.3008422851562 326.4216613769531 C 308.3318481445312 326.706787109375 308.2741088867188 326.8193054199219 308.4015502929688 326.927001953125 C 308.1976623535156 326.8567810058594 308.2422485351562 327.0364074707031 308.0986633300781 327.0282897949219 C 308.2086486816406 327.1387634277344 308.2895812988281 327.3082885742188 308.3008422851562 327.3818664550781 C 308.2923889160156 327.4410705566406 308.2086486816406 327.4244689941406 308.1491394042969 327.4329223632812 C 308.1767578125 327.5054321289062 308.2278442382812 327.5561828613281 308.3008422851562 327.5843505859375 C 308.2199401855469 327.3957214355469 308.3939514160156 327.5567321777344 308.3008422851562 327.7358093261719 C 308.2114868164062 327.6895141601562 308.1443786621094 327.6227111816406 308.0986633300781 327.5335998535156 C 308.0211486816406 327.4732971191406 308.1237487792969 327.8987731933594 308.1491394042969 327.7358093261719 C 308.3113098144531 327.8689270019531 307.9728698730469 327.9529724121094 307.9971618652344 327.7358093261719 C 307.8781127929688 327.7495727539062 308.0555725097656 327.8708801269531 308.0479125976562 327.93798828125 C 308.2371520996094 327.941650390625 308.2010803222656 327.7197570800781 308.4523010253906 327.7868347167969 C 308.3533630371094 327.9822692871094 308.2560729980469 327.8835754394531 308.0479125976562 327.9884948730469 C 308.0451049804688 328.0753173828125 308.0859680175781 328.1193237304688 308.1491394042969 328.1402282714844 C 308.1985168457031 328.1390686035156 308.1880798339844 328.0787048339844 308.1990966796875 328.0386657714844 C 308.3265380859375 328.1283569335938 308.1228942871094 328.2527160644531 308.2504272460938 328.3424072265625 C 308.2044067382812 328.3982238769531 308.1372985839844 328.3771057128906 308.0479125976562 328.3424072265625 C 308.100341796875 328.1771545410156 308.1759338378906 328.2349243164062 308.0479125976562 328.0894470214844 C 307.8369750976562 328.4464416503906 308.1029052734375 328.1878356933594 307.8965148925781 328.5947570800781 C 307.9703369140625 328.5508117675781 308.056396484375 328.5191650390625 308.0479125976562 328.3923034667969 C 308.3119201660156 328.6421508789062 307.689697265625 328.576171875 307.7450561523438 328.8477478027344 C 307.6776123046875 328.7964477539062 307.5583190917969 328.798095703125 307.4918212890625 328.7459716796875 C 307.5014038085938 328.7056274414062 307.5425109863281 328.6960144042969 307.5425109863281 328.645263671875 C 307.4805297851562 328.7025146484375 307.4385375976562 328.6893005371094 307.4413452148438 328.5947570800781 C 307.3169555664062 328.6010131835938 307.4306030273438 328.7623291015625 307.4918212890625 328.7459716796875 C 307.4421691894531 328.9018859863281 307.3570251464844 328.688720703125 307.2895812988281 328.6960144042969 C 307.3747863769531 328.8844604492188 307.2791748046875 328.794677734375 307.1889038085938 328.8985290527344 C 307.0411376953125 328.7611694335938 307.0907897949219 328.7564086914062 306.8851928710938 328.8477478027344 C 306.8724975585938 328.3330688476562 306.5614624023438 327.3128356933594 306.9359436035156 326.5731201171875 C 306.9241638183594 326.59765625 306.8818359375 326.5660400390625 306.8851928710938 326.6241149902344 C 306.8197631835938 325.4994812011719 306.3251342773438 324.7854309082031 306.5315856933594 323.6413269042969 C 306.5865478515625 323.6537475585938 306.5657043457031 323.7425537109375 306.6330871582031 323.7431640625 C 306.6658020019531 323.6551513671875 306.6280212402344 323.3229675292969 306.6827697753906 323.2369384765625 C 306.8101806640625 323.2434387207031 306.8411560058594 323.3336791992188 306.8851928710938 323.186767578125" fill="#2777df" stroke="none" stroke-width="0"/>
</svg>