<svg xmlns="http://www.w3.org/2000/svg" width="69" height="103" viewBox="0.06400558352470398 0.06400558352470398 68.82751968502998 102.5840580761433" fill="none">
  <path d="M 27.46167945861816 0.06400558352470398 C 16.50367164611816 0.8372189998626709 7.452018737792969 6.769493579864502 2.852798938751221 16.15446662902832 C 0.933222770690918 20.0737419128418 -7.412513696181122e-07 24.16632270812988 -7.412513696181122e-07 28.67220687866211 C -7.412513696181122e-07 32.17818832397461 0.4799516797065735 35.11103439331055 1.613090515136719 38.56373596191406 C 3.199422836303711 43.40285873413086 5.945574760437012 47.89535140991211 9.531604766845703 51.49468231201172 C 11.94451332092285 53.9208984375 14.02417755126953 55.49399948120117 17.02360725402832 57.16029357910156 C 24.44894790649414 61.29294967651367 33.66061019897461 62.159423828125 41.68577194213867 59.47994232177734 C 46.49820709228516 57.88022613525391 50.21756744384766 55.49399948120117 53.84357833862305 51.65469360351562 L 54.68345642089844 50.7481575012207 L 55.77653503417969 51.17474365234375 C 56.46978759765625 51.44140243530273 57.18963623046875 51.61470794677734 57.80284118652344 51.65469360351562 L 58.73606109619141 51.72136306762695 L 59.54917526245117 50.97482681274414 L 60.36237716674805 50.21490859985352 L 61.68212890625 50.93476867675781 C 62.40205383300781 51.33475112915039 64.10841369628906 52.20123291015625 65.46815490722656 52.881103515625 C 66.82788848876953 53.54766845703125 69.46739196777344 54.97406768798828 71.33375549316406 56.04053497314453 C 73.20005035400391 57.10702133178711 75.55968475341797 58.40009307861328 76.58609008789062 58.92002105712891 C 78.78570556640625 60.02648162841797 80.43878173828125 60.98630523681641 82.45169830322266 62.29275512695312 C 84.15806579589844 63.39921188354492 87.90409851074219 65.57215118408203 89.42378234863281 66.34535980224609 C 91.05016326904297 67.15855407714844 94.18291473388672 68.35828399658203 95.44937896728516 68.63823699951172 C 96.07589721679688 68.77156829833984 97.06240081787109 68.89152526855469 97.66229248046875 68.89152526855469 C 98.59544372558594 68.89152526855469 98.84872436523438 68.83823394775391 99.52860260009766 68.49160766601562 C 100.568473815918 67.9716796875 101.4482421875 67.05191040039062 102.0481491088867 65.83872222900391 C 102.5947647094727 64.74565124511719 102.648063659668 64.29238128662109 102.3148040771484 63.26588439941406 C 101.9948654174805 62.29275512695312 101.6882171630859 61.70615768432617 100.7817535400391 60.35972595214844 C 99.71528625488281 58.78669738769531 98.54216003417969 57.86684799194336 95.11606597900391 55.94719696044922 C 92.52992248535156 54.50749588012695 85.97107696533203 51.40141296386719 83.46489715576172 50.42820739746094 C 82.83831024169922 50.18823623657227 81.5052490234375 49.64169692993164 80.51874542236328 49.22840881347656 C 79.53224182128906 48.8151969909668 78.02586364746094 48.21529006958008 77.18599700927734 47.89535140991211 C 76.34619140625 47.58870697021484 75.07972717285156 47.06885528564453 74.38655090332031 46.7622184753418 C 72.92008972167969 46.10902786254883 66.48126983642578 43.50950241088867 65.98809051513672 43.36287307739258 C 65.80139923095703 43.30951309204102 65.30814361572266 43.14957809448242 64.86825561523438 42.98956680297852 L 64.09503173828125 42.7096061706543 L 64.17508697509766 41.73648452758789 C 64.30833435058594 40.31007766723633 64.12172698974609 39.77684783935547 63.21525192260742 38.93696594238281 C 62.80197143554688 38.55035781860352 62.10872268676758 38.07048416137695 61.68212890625 37.87048721313477 C 60.948974609375 37.52386474609375 60.90899658203125 37.4705810546875 60.97566604614258 37.09727478027344 C 61.36218643188477 35.04436874389648 61.46883773803711 31.00506591796875 61.18895721435547 28.69880867004395 C 60.06911468505859 19.23386573791504 54.60341644287109 10.4221887588501 46.65822219848633 5.263049125671387 C 40.99260711669922 1.597053050994873 33.70059204101562 -0.3891876935958862 27.46167945861816 0.06400558352470398 M 30.8610954284668 2.370266437530518 C 33.10069274902344 2.530276298522949 34.62043762207031 2.783554077148438 36.62005615234375 3.303411722183228 C 44.7652473449707 5.463042259216309 52.23057174682617 11.51526546478271 56.09648513793945 19.11391448974609 C 58.08280181884766 23.04656982421875 59.02932357788086 26.75254821777344 59.14927291870117 31.23174285888672 C 59.229248046875 34.15120697021484 59.02932357788086 36.17750930786133 58.36275863647461 38.81701278686523 C 56.13654327392578 47.708740234375 49.43104934692383 54.64082336425781 40.45936584472656 57.3070068359375 C 29.7012767791748 60.50643539428711 17.10357284545898 56.54708862304688 9.384973526000977 47.52212142944336 C 5.518984794616699 43.01625061035156 3.252785205841064 37.93715286254883 2.51955509185791 32.2315559387207 C 2.292958736419678 30.40516471862793 2.319639921188354 26.99244689941406 2.586219310760498 25.12615585327148 C 4.452588558197021 11.91517448425293 14.9173412322998 2.650225400924683 28.39489936828613 2.250317096710205 C 28.72814559936523 2.250317096710205 29.83460426330566 2.303601980209351 30.8610954284668 2.370266437530518 M 61.32220458984375 39.63021469116211 C 61.66882705688477 39.88349151611328 62.05543518066406 40.31007766723633 62.17538452148438 40.56335830688477 C 62.3886833190918 41.00324630737305 62.3886833190918 41.08321762084961 62.13540267944336 42.05642318725586 C 61.64214706420898 44.0693473815918 60.46902084350586 47.18880462646484 59.88249969482422 48.04198455810547 C 59.20263290405273 49.04179382324219 58.42942047119141 49.6950569152832 57.89618682861328 49.6950569152832 C 57.49627685546875 49.6950569152832 56.26979064941406 49.33505249023438 56.08317184448242 49.16181945800781 C 56.01651382446289 49.10845565795898 56.33645248413086 48.49525451660156 56.78973007202148 47.81538391113281 C 57.97615432739258 46.01568603515625 59.20263290405273 43.44284057617188 59.93578720092773 41.14987945556641 C 60.29571151733398 40.05680847167969 60.61566162109375 39.16363906860352 60.64233779907227 39.16363906860352 C 60.66901779174805 39.16363906860352 60.97566604614258 39.37693405151367 61.32220458984375 39.63021469116211 M 64.76160430908203 44.97588729858398 C 65.37480926513672 45.16250228881836 66.49464416503906 45.57579040527344 67.24117279052734 45.88242721557617 C 67.97433471679688 46.20229339599609 69.04080200195312 46.64226150512695 69.58742523193359 46.86886215209961 C 70.13395690917969 47.09553909301758 71.69368743896484 47.73541259765625 73.05342864990234 48.29526138305664 C 76.58609008789062 49.76164245605469 79.06566619873047 50.77482986450195 81.58522033691406 51.77463912963867 C 83.81150817871094 52.66781234741211 90.26364898681641 55.72060012817383 93.58302307128906 57.45364379882812 C 95.43600463867188 58.4267692565918 97.10237121582031 59.4532585144043 98.07559967041016 60.23977279663086 C 98.72878265380859 60.77301406860352 100.0485305786133 62.54603576660156 100.5018081665039 63.51916885375977 L 100.8217468261719 64.21241760253906 L 100.4751281738281 64.79893493652344 C 99.98186492919922 65.62543487548828 98.87540435791016 66.59864044189453 98.28888702392578 66.70528411865234 C 97.2357177734375 66.90520477294922 95.63600158691406 66.66530609130859 93.75634002685547 66.02542114257812 C 91.51673126220703 65.26551055908203 89.78368377685547 64.39903259277344 86.49100494384766 62.3994026184082 C 85.07791137695312 61.54622268676758 83.29158020019531 60.46636962890625 82.51837158203125 59.99979782104492 C 81.74514007568359 59.53322982788086 79.91883850097656 58.54671478271484 78.45246124267578 57.80018997192383 C 75.58628082275391 56.3471794128418 74.13320159912109 55.57397079467773 69.78733062744141 53.16106033325195 C 68.25429534912109 52.30787658691406 65.74810791015625 50.98812484741211 64.22837066650391 50.22829437255859 L 61.48221206665039 48.84187698364258 L 61.76217269897461 48.33524322509766 C 61.9754638671875 47.97532272338867 62.14878463745117 47.82868957519531 62.36207580566406 47.82868957519531 C 62.53531265258789 47.82868957519531 63.82845687866211 48.41528701782227 65.22817993164062 49.13513946533203 C 66.64127349853516 49.8682861328125 68.38761901855469 50.72146987915039 69.12077331542969 51.02811431884766 C 69.85400390625 51.34804916381836 71.200439453125 52.02791595458984 72.09358978271484 52.53447341918945 C 73.00013732910156 53.04111480712891 73.78665924072266 53.41433715820312 73.82663726806641 53.36104965209961 C 73.91989898681641 53.26770782470703 73.986572265625 53.32107543945312 72.45352935791016 52.29457855224609 C 71.80033111572266 51.86799240112305 69.28077697753906 50.5081787109375 66.85456848144531 49.28177261352539 C 63.21525192260742 47.44208145141602 62.46864700317383 47.01548767089844 62.49532699584961 46.81557464599609 C 62.60197448730469 46.30894088745117 63.36188125610352 44.62926483154297 63.49514007568359 44.62926483154297 C 63.57518005371094 44.62926483154297 64.14839935302734 44.78927993774414 64.76160430908203 44.97588729858398" fill="#337ddc" stroke="none" stroke-width="0"/>
</svg>