<svg xmlns="http://www.w3.org/2000/svg" width="7" height="9" viewBox="99.79618072509766 153.1484985351562 7.228515625000043 9.189758300781307" fill="none">
  <path d="M 100.1450042724609 158.2288513183594 C 100.0398788452148 158.3651275634766 100.0154113769531 158.5606689453125 100.1719512939453 158.7181396484375 C 101.1239929199219 159.6753540039062 102.0762176513672 160.6325531005859 103.0282592773438 161.5897521972656 C 102.8958129882812 161.9418334960938 103.3539581298828 162.3382568359375 103.6423797607422 162.005859375 C 104.6336059570312 160.8638305664062 105.6248321533203 159.7218017578125 106.6160430908203 158.5797729492188 C 106.81884765625 158.595458984375 107.0246963500977 158.4754180908203 107.0071105957031 158.2149047851562 C 106.9081115722656 156.7544403076172 106.7532806396484 155.3014221191406 106.5483856201172 153.8520660400391 C 106.5076751708984 153.5647888183594 106.2333984375 153.5212097167969 106.030029296875 153.6324462890625 C 104.1334075927734 153.1484985351562 102.2835998535156 153.22265625 100.351806640625 153.4606170654297 L 100.3491363525391 153.461181640625 C 100.1123199462891 153.3616027832031 99.79618072509766 153.4686431884766 99.82962799072266 153.7893676757812 C 99.98368072509766 155.2660827636719 100.0880432128906 156.7454528808594 100.1450042724609 158.2288513183594 M 100.9385833740234 154.9256591796875 C 101.0303344726562 154.9906616210938 101.1220779418945 155.0556335449219 101.2138214111328 155.1204223632812 C 101.1310577392578 155.1995544433594 101.04638671875 155.2767791748047 100.9657287597656 155.3580017089844 C 100.8841171264648 155.2907409667969 100.8023071289062 155.2236328125 100.7212677001953 155.1556091308594 L 100.7210845947266 155.1521606445312 C 100.7914123535156 155.0747375488281 100.8640441894531 154.9992370605469 100.9385833740234 154.9256591796875 M 102.3600616455078 159.8338012695312 L 102.3575744628906 159.8313293457031 C 102.4242858886719 159.7294464111328 102.4928970336914 159.62890625 102.563232421875 159.5295104980469 C 102.6593780517578 159.5681304931641 102.7558975219727 159.6061706542969 102.8518524169922 159.6451568603516 L 102.6798248291016 159.9112091064453 C 102.5729827880859 159.8861694335938 102.4661407470703 159.8620910644531 102.3600616455078 159.8338012695312 M 102.2195739746094 159.6925659179688 L 102.0236663818359 159.4955139160156 C 102.0557708740234 159.4475250244141 102.0876922607422 159.3995513916016 102.1198043823242 159.3515777587891 C 102.2073440551758 159.3857879638672 102.2939300537109 159.4219055175781 102.3812713623047 159.4565124511719 C 102.326416015625 159.5344848632812 102.2723236083984 159.6130523681641 102.2195739746094 159.6925659179688 M 101.7339019775391 159.2044067382812 C 101.8017501831055 159.2302093505859 101.8696136474609 159.2552490234375 101.9372711181641 159.2814331054688 C 101.9202575683594 159.3068542480469 101.9032440185547 159.332275390625 101.8864288330078 159.3575134277344 L 101.7339019775391 159.2044067382812 M 102.2277984619141 159.1902618408203 L 102.3115081787109 159.0652618408203 C 102.4022979736328 159.1034851074219 102.4946136474609 159.1380767822266 102.587890625 159.1703796386719 C 102.5561676025391 159.2122344970703 102.5269165039062 159.2554321289062 102.4959564208984 159.2978668212891 C 102.4065093994141 159.2621154785156 102.3174362182617 159.2254180908203 102.2277984619141 159.1902618408203 M 102.0458374023438 159.1189575195312 C 101.9552307128906 159.0838012695312 101.8638763427734 159.0503540039062 101.7730865478516 159.0155639648438 C 101.8059539794922 158.9608917236328 101.8380737304688 158.9056549072266 101.8711395263672 158.8511810302734 C 101.9579162597656 158.8989715576172 102.0454483032227 158.9446563720703 102.134521484375 158.9865112304688 C 102.1048965454102 159.0308532714844 102.0754547119141 159.0748138427734 102.0458374023438 159.1189575195312 M 101.7979354858398 158.6011810302734 C 101.7201385498047 158.5893249511719 101.6610717773438 158.6889038085938 101.7077178955078 158.7521667480469 C 101.668342590332 158.8167724609375 101.6303100585938 158.8819580078125 101.5915069580078 158.9467468261719 C 101.5307312011719 158.923828125 101.4699401855469 158.9004974365234 101.4089736938477 158.8775634765625 C 101.3524017333984 158.82080078125 101.2958221435547 158.7638397216797 101.2392425537109 158.7068786621094 C 101.3489532470703 158.5528259277344 101.4611511230469 158.4006805419922 101.5809936523438 158.2548522949219 C 101.6859283447266 158.3190612792969 101.790283203125 158.3842468261719 101.8936920166016 158.4509582519531 C 101.8621520996094 158.501220703125 101.8290863037109 158.5507202148438 101.7979354858398 158.6011810302734 M 101.1010589599609 158.568115234375 L 100.9164199829102 158.3823394775391 C 100.9108734130859 158.2303771972656 100.9024658203125 158.0788116455078 100.8959655761719 157.9268493652344 C 100.9118347167969 157.9117584228516 100.9275054931641 157.8966674804688 100.9431762695312 157.8815612792969 C 101.1025848388672 157.969482421875 101.2600860595703 158.0608520507812 101.4162368774414 158.1541137695312 C 101.3067169189453 158.2884826660156 101.2025451660156 158.42724609375 101.1010589599609 158.568115234375 M 100.8065185546875 156.2817687988281 C 100.8195190429688 156.2893981933594 100.8315582275391 156.2968597412109 100.8441696166992 156.3045043945312 C 100.832893371582 156.3153991699219 100.8214263916016 156.3264923095703 100.8099594116211 156.3373870849609 C 100.8086166381836 156.31884765625 100.8076629638672 156.30029296875 100.8065185546875 156.2817687988281 M 100.7421035766602 155.4195556640625 C 100.7726898193359 155.4449768066406 100.8032684326172 155.47021484375 100.8338470458984 155.4954376220703 C 100.8069000244141 155.5235290527344 100.7814788818359 155.5527801513672 100.7547149658203 155.5810546875 C 100.7505187988281 155.5271606445312 100.7463073730469 155.4734497070312 100.7421035766602 155.4195556640625 M 101.0869140625 157.7431793212891 C 101.1935653686523 157.6376647949219 101.2977294921875 157.5296783447266 101.4013290405273 157.4207305908203 C 101.5379943847656 157.5141906738281 101.6725463867188 157.6109008789062 101.8046264648438 157.7112731933594 C 101.714599609375 157.8077697753906 101.6268615722656 157.9062194824219 101.5414276123047 158.0065612792969 C 101.3911972045898 157.9165344238281 101.2398223876953 157.8284301757812 101.0869140625 157.7431793212891 M 100.9106903076172 157.6476135253906 C 100.9015045166016 157.6426391601562 100.8921432495117 157.6376647949219 100.8829727172852 157.6327056884766 C 100.879150390625 157.5541381835938 100.8764724731445 157.4755859375 100.8724594116211 157.397216796875 C 100.9355316162109 157.3312835693359 100.9972686767578 157.2640075683594 101.0611114501953 157.1988220214844 C 101.1213150024414 157.2362976074219 101.1826705932617 157.2720336914062 101.2419204711914 157.3108215332031 C 101.1331634521484 157.424560546875 101.0230712890625 157.5371398925781 100.9106903076172 157.6476135253906 M 100.8590850830078 157.1334533691406 C 100.8579330444336 157.1126251220703 100.8563995361328 157.0919799804688 100.8550643920898 157.0713500976562 C 100.8684463500977 157.0791778564453 100.8812561035156 157.0877685546875 100.8946304321289 157.0957946777344 C 100.8825836181641 157.1080322265625 100.8709259033203 157.1210327148438 100.8590850830078 157.1334533691406 M 100.8411102294922 156.8429260253906 C 100.8361358642578 156.7578735351562 100.8305969238281 156.6728210449219 100.825439453125 156.5877685546875 C 100.8867950439453 156.5287170410156 100.9481506347656 156.4696502685547 101.0096893310547 156.410400390625 C 101.1213150024414 156.4900970458984 101.2314147949219 156.5718994140625 101.3418884277344 156.6531372070312 C 101.237907409668 156.7534790039062 101.1354598999023 156.8551635742188 101.0335845947266 156.9574279785156 C 100.9697494506836 156.9188079833984 100.9059066772461 156.8802032470703 100.8411102294922 156.8429260253906 M 100.9319000244141 156.1221618652344 C 100.8944396972656 156.0959777832031 100.8443603515625 156.0671081542969 100.7906494140625 156.0363464355469 C 100.7858734130859 155.9709777832031 100.7799530029297 155.9056091308594 100.7751693725586 155.8402404785156 C 100.8435974121094 155.7658996582031 100.9110717773438 155.690185546875 100.9812164306641 155.6173706054688 C 101.0870971679688 155.7037658691406 101.1933746337891 155.7897796630859 101.3002166748047 155.8750305175781 C 101.2690582275391 155.9008331298828 101.2386703491211 155.9249267578125 101.2159271240234 155.9468994140625 L 100.9902038574219 156.1640319824219 C 100.970703125 156.1502685546875 100.9514007568359 156.1359252929688 100.9319000244141 156.1221618652344 M 105.8534240722656 154.3763427734375 C 106.0126419067383 155.552978515625 106.1336288452148 156.7332153320312 106.2198333740234 157.91748046875 C 106.1783599853516 157.937744140625 106.1378326416016 157.9673767089844 106.1003723144531 158.0103759765625 C 105.2377777099609 159.0042724609375 104.375 159.9981842041016 103.5124053955078 160.9922790527344 C 103.2488327026367 160.7273559570312 102.9854507446289 160.4624481201172 102.7218780517578 160.1975402832031 C 102.7367858886719 160.1745910644531 102.7516937255859 160.1516571044922 102.7664108276367 160.1287231445312 C 102.9953918457031 160.1789855957031 103.2253265380859 160.2237243652344 103.4577484130859 160.25927734375 C 103.5779724121094 160.2776184082031 103.6299591064453 160.0933532714844 103.5083923339844 160.0748291015625 C 103.2962341308594 160.0425262451172 103.0858001708984 160.0035400390625 102.8765106201172 159.9588165283203 L 103.0336151123047 159.7156829833984 C 103.1142730712891 159.7382507324219 103.1572799682617 159.6432495117188 103.1234512329102 159.5769348144531 C 103.1446685791016 159.5442352294922 103.1658782958984 159.5115661621094 103.1869049072266 159.4788665771484 C 103.2539901733398 159.3752746582031 103.0886688232422 159.2793273925781 103.0219573974609 159.3823547363281 C 103.000358581543 159.4158020019531 102.9785690307617 159.4492492675781 102.9569702148438 159.4826965332031 C 102.8642730712891 159.4446563720703 102.7708129882812 159.4083404541016 102.6779174804688 159.3708801269531 C 102.7111740112305 159.3255920410156 102.7425231933594 159.2787475585938 102.7767333984375 159.2340240478516 C 102.8828125 159.2659454345703 102.9898529052734 159.2953796386719 103.0989837646484 159.3198547363281 C 103.2188262939453 159.3468017578125 103.2700500488281 159.1625366210938 103.1498260498047 159.1355895996094 C 102.8975296020508 159.0788269042969 102.65478515625 159.0004577636719 102.4195022583008 158.9037475585938 C 102.4741668701172 158.8217468261719 102.5290222167969 158.73974609375 102.5838775634766 158.6579437255859 C 102.6524963378906 158.5552978515625 102.4869689941406 158.4595489501953 102.4189300537109 158.5614318847656 C 102.3600616455078 158.6493530273438 102.3011932373047 158.7372741699219 102.2423248291016 158.8253784179688 C 102.1501922607422 158.7827606201172 102.0594024658203 158.7363128662109 101.9697570800781 158.6871948242188 C 101.9971008300781 158.6428527832031 102.0261459350586 158.5994567871094 102.0536651611328 158.5552978515625 C 102.0947647094727 158.5824584960938 102.1364288330078 158.6084442138672 102.1773376464844 158.6359710693359 C 102.2795867919922 158.7047729492188 102.3753509521484 158.5392456054688 102.2736663818359 158.4708251953125 C 102.23486328125 158.44482421875 102.1953048706055 158.420166015625 102.1563110351562 158.3943786621094 C 102.2472915649414 158.2506408691406 102.3369293212891 158.10595703125 102.4303970336914 157.9637451171875 C 102.4982452392578 157.8607330322266 102.3327331542969 157.7647705078125 102.2654418945312 157.8672180175781 C 102.1737060546875 158.0069580078125 102.0857849121094 158.1487731933594 101.9963302612305 158.2898254394531 C 101.9013366699219 158.2286682128906 101.8057708740234 158.1686401367188 101.7096252441406 158.1094055175781 C 101.7910461425781 158.0149841308594 101.8722839355469 157.9203491210938 101.9579162597656 157.8293762207031 C 101.99365234375 157.857666015625 102.0307312011719 157.884033203125 102.0662841796875 157.9129028320312 C 102.1608963012695 157.98974609375 102.2969818115234 157.8553771972656 102.201416015625 157.7777709960938 C 102.1404418945312 157.728271484375 102.0773696899414 157.6822052001953 102.0156326293945 157.6342315673828 C 102.0060806274414 157.62353515625 101.9951782226562 157.6145324707031 101.9825744628906 157.6086120605469 C 101.8359680175781 157.4956665039062 101.6866912841797 157.38671875 101.534553527832 157.281982421875 C 101.5408477783203 157.2752685546875 101.5475463867188 157.2687835693359 101.5538558959961 157.2619018554688 C 101.6371917724609 157.1716918945312 101.50244140625 157.0361633300781 101.4187164306641 157.1267700195312 C 101.4045791625977 157.1420593261719 101.3898620605469 157.1564025878906 101.3757171630859 157.1714935302734 C 101.3181762695312 157.1334533691406 101.2587432861328 157.0980987548828 101.2004470825195 157.0612182617188 C 101.299072265625 156.9625854492188 101.3976898193359 156.8641510009766 101.4982299804688 156.7674255371094 C 101.6838226318359 156.9058227539062 101.8680801391602 157.0462951660156 102.050422668457 157.1890869140625 C 102.1461791992188 157.2640075683594 102.2824554443359 157.129638671875 102.1855545043945 157.053955078125 C 101.9795074462891 156.8926239013672 101.7698364257812 156.7359008789062 101.5599670410156 156.5797424316406 C 101.5507965087891 156.5700073242188 101.540283203125 156.5615844726562 101.5284271240234 156.5558471679688 C 101.4741516113281 156.5155181884766 101.4214019775391 156.4732818603516 101.3669281005859 156.4333343505859 C 101.2944793701172 156.3805847167969 101.2210845947266 156.3291625976562 101.1482620239258 156.2769775390625 C 101.1534271240234 156.2722015380859 101.1584014892578 156.2672424316406 101.1635589599609 156.262451171875 C 101.2577819824219 156.1716613769531 101.3522033691406 156.0808868408203 101.4464340209961 155.9902801513672 C 101.5918884277344 156.1053466796875 101.736572265625 156.2213592529297 101.8835601806641 156.3345184326172 C 101.9810333251953 156.4094543457031 102.076416015625 156.2433471679688 101.9800872802734 156.1693725585938 C 101.8462829589844 156.0667419433594 101.7151718139648 155.9608459472656 101.5827178955078 155.8562927246094 C 101.6125335693359 155.8203735351562 101.6341247558594 155.7802276611328 101.6417694091797 155.7255554199219 C 101.6584014892578 155.6051483154297 101.4743423461914 155.5531616210938 101.4573364257812 155.6747131347656 C 101.4544677734375 155.6963195800781 101.4447174072266 155.7173461914062 101.4324798583984 155.73779296875 C 101.3258361816406 155.6525421142578 101.2195587158203 155.5669250488281 101.1138610839844 155.480712890625 C 101.1981506347656 155.3960418701172 101.286262512207 155.315185546875 101.3728485107422 155.2330017089844 C 101.5282440185547 155.3429107666016 101.6836318969727 155.4528198242188 101.8390197753906 155.5627136230469 C 101.9395599365234 155.6338195800781 102.0351257324219 155.4682922363281 101.9353637695312 155.3977661132812 C 101.7946853637695 155.2980041503906 101.6538162231445 155.1984252929688 101.5129547119141 155.0988311767578 C 101.5496520996094 155.0650024414062 101.5838623046875 155.0288696289062 101.6209411621094 154.9956207275391 C 101.7124938964844 154.9130554199219 101.5769805908203 154.7782897949219 101.4858093261719 154.8604888916016 C 101.4405059814453 154.9010009765625 101.3986511230469 154.9449768066406 101.3541259765625 154.9864501953125 L 101.0794525146484 154.7920684814453 C 101.1692886352539 154.7091064453125 101.2608489990234 154.6280670166016 101.3562164306641 154.5506591796875 C 101.451789855957 154.4730529785156 101.3156967163086 154.3386840820312 101.2210845947266 154.41552734375 C 101.1171112060547 154.4998168945312 101.0177230834961 154.5886840820312 100.9204330444336 154.6794738769531 C 100.9003601074219 154.6653442382812 100.8802947998047 154.6511840820312 100.8600387573242 154.6368560791016 C 100.7594985961914 154.5657653808594 100.6639251708984 154.7314758300781 100.7637023925781 154.802001953125 C 100.7690582275391 154.8058166503906 100.7744064331055 154.8094482421875 100.7795715332031 154.8132781982422 C 100.7524261474609 154.8404235839844 100.7268142700195 154.868896484375 100.7002410888672 154.8964233398438 C 100.6796112060547 154.6615142822266 100.6558990478516 154.4266052246094 100.6327743530273 154.1917114257812 C 102.4099426269531 153.9854736328125 104.0926971435547 153.9225921630859 105.8534240722656 154.3763427734375" fill="#231f20" stroke="#ffffff" stroke-width="1"/>
</svg>