<svg xmlns="http://www.w3.org/2000/svg" width="1" height="1" viewBox="101.8689041137695 306.8810119628906 1.34912109375 1.314178466796875" fill="none">
  <path d="M 102.9650650024414 306.8810119628906 C 103.0107574462891 306.9123229980469 103.0558776855469 306.9421997070312 103.0665893554688 306.8810119628906 C 103.2180252075195 306.9145812988281 103.0177993774414 306.9895629882812 103.0665893554688 307.08349609375 C 102.9774703979492 307.010498046875 102.9512557983398 307.0369262695312 102.9650650024414 307.1847229003906 C 102.9264297485352 307.2763977050781 102.9109191894531 307.1546020507812 102.9151458740234 307.08349609375 C 102.8511428833008 307.2055969238281 102.8125 307.3522338867188 102.7129516601562 307.4371337890625 C 102.7840194702148 307.4494934082031 102.8463439941406 307.5087585449219 102.8643951416016 307.6900634765625 C 102.7171783447266 307.6170349121094 102.8074188232422 307.6506042480469 102.8136291503906 307.790771484375 C 102.7473526000977 307.7730102539062 102.7343902587891 307.70166015625 102.6621932983398 307.6900634765625 C 102.7270431518555 307.8209533691406 102.7665328979492 307.8486022949219 102.9151458740234 307.790771484375 C 102.9771881103516 307.9546203613281 102.7515869140625 307.8299865722656 102.8136291503906 307.9929809570312 C 102.5149841308594 307.9971923828125 102.4526672363281 308.0608825683594 102.3082733154297 307.8922729492188 C 102.3734130859375 307.9788208007812 102.4126205444336 308.0910949707031 102.5615158081055 308.094482421875 C 102.5485458374023 308.1494750976562 102.4605560302734 308.1291809082031 102.4597091674805 308.1951904296875 C 102.4030303955078 308.1858215332031 102.4317855834961 308.1441040039062 102.4597091674805 308.1441040039062 C 102.3985137939453 308.1317443847656 102.2580871582031 307.9523620605469 102.2575073242188 308.0437622070312 C 102.155143737793 307.9732055664062 102.3074264526367 307.8697204589844 102.2073211669922 307.7408447265625 C 102.1447143554688 307.7625732421875 102.1035308837891 307.80517578125 102.1063690185547 307.8922729492188 C 102.1483764648438 307.625244140625 101.880744934082 307.6077575683594 102.1063690185547 307.3364562988281 C 101.8689041137695 307.2385864257812 101.89794921875 307.1570434570312 102.1568298339844 307.2857055664062 C 102.1345520019531 307.3308410644531 102.1122894287109 307.3759460449219 102.055305480957 307.3863830566406 C 102.2163391113281 307.4483947753906 102.0217590332031 307.5769958496094 102.2575073242188 307.5885620117188 C 102.3330917358398 307.5665588378906 102.2377624511719 307.5237121582031 102.2575073242188 307.4371337890625 C 102.2981262207031 307.305419921875 102.3421096801758 307.5809326171875 102.3593215942383 307.6393127441406 C 102.5440292358398 307.5000305175781 102.7989654541016 307.1858825683594 102.9650650024414 306.8810119628906" fill="#2777df" stroke="none" stroke-width="0"/>
</svg>