<svg xmlns="http://www.w3.org/2000/svg" width="83" height="33" viewBox="0.009069856256246567 2.612556934356689 83.3780990280211 32.77962446212769" fill="none">
  <path d="M 80.44087982177734 2.983043193817139 C 79.75282287597656 3.67110013961792 72.90755462646484 4.994281768798828 69.132080078125 5.170707702636719 C 64.58033752441406 5.364771366119385 51.47201538085938 6.335105895996094 42.50966644287109 7.111371994018555 C 31.60665130615234 8.046418190002441 28.04288101196289 8.205202102661133 23.36763954162598 7.99349308013916 C 20.96826934814453 7.905280113220215 18.6571102142334 7.905280113220215 18.30426216125488 8.046418190002441 C 17.93377113342285 8.169915199279785 16.0107479095459 9.810667037963867 14.05243968963623 11.66311931610107 C 12.0059175491333 13.62142181396484 10.31224536895752 15.0328197479248 10.06525135040283 14.94461059570312 C 9.871185302734375 14.85640144348145 9.694760322570801 14.99753570556641 9.694760322570801 15.29745483398438 C 9.659475326538086 15.56209564208984 8.600930213928223 16.63827896118164 7.313033103942871 17.69682502746582 C 5.972208976745605 18.75537109375 4.066827297210693 20.37847900390625 3.043566465377808 21.29588317871094 C 1.985021114349365 22.21328163146973 0.8559061884880066 23.06012535095215 0.5736274123191833 23.14833450317383 C 0.02671228162944317 23.32475471496582 -0.02621499262750149 23.58939552307129 0.009069856256246567 26.323974609375 C 0.02671228162944317 27.98235893249512 0.1149244010448456 30.64636421203613 0.2384213656187057 32.26947021484375 C 0.4148455858230591 35.03932952880859 0.4501304626464844 35.21575164794922 1.085257649421692 35.30396270751953 L 1.738027334213257 35.39218139648438 L 1.738027334213257 30.24058723449707 C 1.738027334213257 25.3889274597168 1.773312211036682 25.05371856689453 2.302584648132324 25.05371856689453 C 2.778930187225342 25.05371856689453 2.86714243888855 25.44184684753418 3.131778478622437 28.35285186767578 L 3.449342250823975 31.68726921081543 L 3.396414995193481 28.2999267578125 L 3.361129999160767 24.91257095336914 L 4.649027347564697 24.82436752319336 L 5.954566478729248 24.73615074157715 L 5.795784473419189 28.07057571411133 C 5.689930438995361 30.18766212463379 5.707572460174561 30.85807228088379 5.866354465484619 29.92302513122559 C 6.007493495941162 29.09382438659668 6.130990505218506 27.54129791259766 6.130990505218506 26.44746780395508 C 6.148633003234863 24.68321990966797 6.219202995300293 24.43622589111328 6.677906036376953 24.52444267272949 C 7.136609554290771 24.61265754699707 7.207179546356201 25.17721939086914 7.330676078796387 29.48196601867676 L 7.507099628448486 34.33363342285156 L 7.577670097351074 29.39375114440918 L 7.630597114562988 24.47151756286621 L 8.512718200683594 24.47151756286621 L 9.394839286804199 24.47151756286621 L 9.43012523651123 29.2349739074707 C 9.447766304016113 32.65760040283203 9.535979270935059 33.73378753662109 9.712403297424316 33.01045227050781 C 9.871185302734375 32.44589233398438 9.959397315979004 30.36408042907715 9.959397315979004 28.35285186767578 C 9.924112319946289 26.3592586517334 9.959397315979004 24.68321990966797 10.01232433319092 24.61265754699707 C 10.06525135040283 24.55972671508789 10.40045738220215 24.47151756286621 10.71802139282227 24.4185905456543 C 11.28257846832275 24.33037567138672 11.30022048950195 24.50679969787598 11.3884334564209 29.18204116821289 C 11.42371845245361 31.82840538024902 11.56485843658447 34.12192535400391 11.6883544921875 34.24542236328125 C 11.81185150146484 34.36891937255859 11.82949447631836 33.36329650878906 11.81185150146484 32.04012298583984 C 11.74128246307373 30.71693229675293 11.77656555175781 28.38813018798828 11.90006446838379 26.88852119445801 L 12.09412956237793 24.17159843444824 L 13.24088764190674 24.17159843444824 L 14.38764572143555 24.17159843444824 L 14.38764572143555 28.70569610595703 C 14.38764572143555 31.21092414855957 14.49349975585938 33.32801055908203 14.63463878631592 33.39858245849609 C 14.75813674926758 33.46915435791016 14.77577877044678 32.65760040283203 14.75813674926758 31.59905433654785 C 14.68756580352783 30.50522804260254 14.72285175323486 28.38813018798828 14.84634780883789 26.88852119445801 C 15.02277183532715 24.50679969787598 15.11098480224609 24.17159843444824 15.60497283935547 24.17159843444824 C 16.3106689453125 24.17159843444824 16.43416595458984 24.77143478393555 16.54001998901367 28.74098014831543 C 16.62823295593262 31.95190238952637 16.62823295593262 31.9166202545166 16.69880294799805 27.91178512573242 C 16.75172996520996 24.29509162902832 16.80465698242188 23.88932037353516 17.28100395202637 23.88932037353516 C 17.98669815063477 23.88932037353516 18.42775917053223 24.24216461181641 18.60418319702148 24.91257095336914 C 18.72768211364746 25.3536376953125 18.74532318115234 25.33599662780762 18.78060913085938 24.68321990966797 C 18.81589508056641 23.99517250061035 18.9217472076416 23.88932037353516 19.66272926330566 23.88932037353516 L 20.49192237854004 23.88932037353516 L 20.3331413269043 28.00000190734863 C 20.24493026733398 30.32880210876465 20.31549835205078 32.12832641601562 20.45663833618164 32.12832641601562 C 20.61542129516602 32.12832641601562 20.77420234680176 30.29351997375488 20.80948638916016 28.07057571411133 C 20.88005638122559 25.86527252197266 20.96826934814453 23.99517250061035 20.96826934814453 23.97752380371094 C 20.98591423034668 23.97752380371094 21.33876037597656 23.88932037353516 21.76217842102051 23.81874656677246 L 22.48551750183105 23.73052978515625 L 22.43259048461914 26.81796073913574 L 22.39730453491211 29.92302513122559 L 22.64430046081543 27.06495475769043 C 22.75015449523926 25.49477195739746 22.96186256408691 24.08338165283203 23.05007553100586 23.90696334838867 C 23.1735725402832 23.73052978515625 23.61463356018066 23.58939552307129 24.02040863037109 23.58939552307129 C 24.72610473632812 23.58939552307129 24.76139068603516 23.64232063293457 24.5849666595459 25.12428665161133 C 24.46146965026855 26.18282699584961 24.49675369262695 26.44746780395508 24.67317962646484 25.93583297729492 C 24.81431579589844 25.53006362915039 24.93781471252441 24.85965156555176 24.9554557800293 24.43622589111328 C 24.99074172973633 23.71288871765137 25.11423873901367 23.64232063293457 26.79026985168457 23.46589660644531 C 29.66598320007324 23.18361854553223 30.23054122924805 23.23654365539551 30.37167930603027 23.80110549926758 C 30.49517631530762 24.29509162902832 30.53046417236328 24.29509162902832 30.54810523986816 23.80110549926758 C 30.58338928222656 23.4129695892334 30.84802436828613 23.28947639465332 31.78307342529297 23.28947639465332 L 33.00040054321289 23.28947639465332 L 32.87690353393555 25.03606986999512 C 32.84161758422852 26.00640678405762 32.87690353393555 26.71210289001465 33.01803970336914 26.62389373779297 C 33.14153671264648 26.55332565307617 33.22975158691406 25.79469871520996 33.22975158691406 24.91257095336914 L 33.22975158691406 23.32475471496582 L 34.50000762939453 23.18361854553223 C 35.17041778564453 23.09540939331055 37.05815887451172 22.97190856933594 38.68125915527344 22.88369941711426 L 41.60990142822266 22.74255752563477 L 41.59226226806641 24.70087432861328 C 41.55697631835938 25.79469871520996 41.59226226806641 26.09462356567383 41.64518737792969 25.3536376953125 C 41.85689544677734 23.06012535095215 41.9980354309082 22.707275390625 42.7743034362793 22.707275390625 C 43.30357360839844 22.707275390625 43.53292465209961 22.91898345947266 43.62113952636719 23.36004447937012 L 43.74463653564453 24.03045654296875 L 43.79756546020508 23.36004447937012 C 43.83284378051758 22.91898345947266 44.00926971435547 22.707275390625 44.37976455688477 22.707275390625 C 44.71496963500977 22.707275390625 45.15602874755859 22.61905860900879 45.38537979125977 22.53084945678711 C 45.70294570922852 22.40735626220703 45.87937164306641 22.58378219604492 45.96757888793945 23.20126152038574 L 46.0910758972168 24.03045654296875 L 46.14400482177734 23.23654365539551 C 46.17929077148438 22.53084945678711 46.26749801635742 22.4779224395752 47.46718597412109 22.4779224395752 C 48.20817184448242 22.4779224395752 49.09029006958008 22.38970756530762 49.42549896240234 22.26621437072754 C 50.00769424438477 22.08978843688965 50.0429801940918 22.14271354675293 49.88420104980469 23.50118637084961 L 49.74305725097656 24.91257095336914 L 50.06062698364258 23.50118637084961 C 50.32526016235352 22.23093032836914 50.44875335693359 22.12507247924805 51.2073860168457 22.12507247924805 L 52.07185745239258 22.12507247924805 L 51.94836044311523 24.3833065032959 L 51.80722427368164 26.67681884765625 L 52.12478637695312 24.3833065032959 C 52.44234848022461 22.14271354675293 52.44234848022461 22.12507247924805 53.32447052001953 22.12507247924805 L 54.18894958496094 22.12507247924805 L 54.04780960083008 24.52444267272949 C 53.85374450683594 26.88852119445801 53.88903045654297 26.90617752075195 54.15366363525391 25.21249580383301 C 54.68293762207031 22.12507247924805 54.6652946472168 22.12507247924805 55.45920562744141 22.12507247924805 C 55.95318603515625 22.12507247924805 56.18253707885742 22.30149841308594 56.21782684326172 22.61905860900879 C 56.21782684326172 23.02483558654785 56.270751953125 23.06012535095215 56.39425277709961 22.707275390625 C 56.62360382080078 22.14271354675293 57.06465911865234 21.82515335083008 57.75271987915039 21.82515335083008 C 58.12321090698242 21.82515335083008 58.2467041015625 22.05450439453125 58.2467041015625 22.76020050048828 C 58.2467041015625 23.28947639465332 58.38784027099609 23.94223976135254 58.54662322998047 24.17159843444824 C 58.74069213867188 24.50679969787598 58.82890701293945 24.24216461181641 58.82890701293945 23.20126152038574 C 58.82890701293945 22.03686332702637 58.91711807250977 21.82515335083008 59.39345932006836 21.82515335083008 C 59.71102905273438 21.82515335083008 60.18737411499023 21.73693656921387 60.48728942871094 21.61344337463379 C 60.92835235595703 21.43701934814453 60.98127746582031 21.59580230712891 60.84013748168945 23.18361854553223 C 60.71664428710938 24.11867141723633 60.78721618652344 25.17721939086914 60.89306640625 25.49477195739746 C 61.06949234008789 25.88291358947754 61.1577033996582 25.33599662780762 61.1577033996582 23.80110549926758 L 61.1929931640625 21.52522850036621 L 62.30446624755859 21.5075855255127 C 62.90430450439453 21.47230911254883 64.01577758789062 21.41937637329102 64.77439880371094 21.34880256652832 C 66.13287353515625 21.24295806884766 66.16815948486328 21.24295806884766 66.27400970458984 22.17800521850586 L 66.39750671386719 23.14833450317383 L 66.43279266357422 22.23093032836914 C 66.48572540283203 21.47230911254883 66.62686157226562 21.26059341430664 67.24434661865234 21.15474128723145 L 68.02060699462891 20.99595832824707 L 67.84419250488281 23.11305046081543 C 67.72068786621094 24.25980758666992 67.57955169677734 25.79469871520996 67.4560546875 26.50039291381836 C 67.35020446777344 27.41779899597168 67.40312957763672 27.73536682128906 67.63247680664062 27.59423065185547 C 67.80890655517578 27.47072410583496 67.96768188476562 26.62389373779297 67.98532867431641 25.70648193359375 C 68.03825378417969 22.53084945678711 68.33817291259766 21.08417320251465 68.99094390869141 20.99595832824707 C 69.55550384521484 20.90774917602539 69.57315063476562 21.08417320251465 69.55550384521484 25.26542091369629 L 69.48493194580078 29.62310218811035 L 69.73192596435547 25.40657043457031 C 69.92599487304688 21.15474128723145 70.08477783203125 20.67839813232422 71.14332580566406 20.64310646057129 C 71.42559051513672 20.64310646057129 71.49617004394531 21.38409233093262 71.37267303466797 23.94223976135254 C 71.28445434570312 26.44746780395508 71.28445434570312 26.81796073913574 71.49617004394531 25.49477195739746 C 71.60202789306641 24.52444267272949 71.72551727294922 23.02483558654785 71.76080322265625 22.14271354675293 C 71.81373596191406 19.21407318115234 72.21950531005859 20.94303321838379 72.39593505859375 24.85965156555176 L 72.55471038818359 28.74098014831543 L 72.60764312744141 24.68321990966797 C 72.66056823730469 21.41937637329102 72.748779296875 20.64310646057129 73.08399200439453 20.64310646057129 C 73.31333923339844 20.64310646057129 73.71910858154297 20.55489730834961 74.00139617919922 20.43140411376953 C 74.46009826660156 20.27262115478516 74.49538421630859 20.59018135070801 74.40716552734375 24.20687484741211 C 74.28366851806641 27.77064895629883 74.354248046875 28.15877723693848 74.79530334472656 28.24699401855469 C 75.60684967041016 28.38813018798828 75.90676879882812 27.11787414550781 75.90676879882812 23.44826126098633 C 75.90676879882812 21.52522850036621 76.0302734375 20.02562713623047 76.20669555664062 19.90212821960449 C 76.64775085449219 19.63749313354492 76.55954742431641 18.84358024597168 76.0302734375 18.26138496398926 C 75.60684967041016 17.78504180908203 75.64213562011719 17.60861587524414 76.47132873535156 16.17957496643066 L 77.37109375 14.60940170288086 L 77.37109375 20.27262115478516 C 77.37109375 23.36004447937012 77.45930480957031 25.97112464904785 77.61808776855469 26.02404975891113 C 77.72394561767578 26.12990760803223 77.81214904785156 23.44826126098633 77.84744262695312 20.09619522094727 C 77.88272094726562 13.78020572662354 78.02386474609375 12.2276725769043 78.60606384277344 12.58052349090576 C 78.81777191162109 12.72166538238525 78.87070465087891 14.46826553344727 78.76485443115234 18.40252685546875 C 78.6766357421875 22.21328163146973 78.69427490234375 23.4129695892334 78.87070465087891 22.12507247924805 C 78.99420166015625 21.06653213500977 79.11769866943359 18.20845222473145 79.08240509033203 15.75615692138672 C 79.08240509033203 12.98630046844482 79.20590209960938 11.11620044708252 79.38233184814453 10.76335620880127 C 79.64696502685547 10.33993721008301 79.73518371582031 11.99832153320312 79.75282287597656 17.41454887390137 C 79.82339477539062 23.36004447937012 79.87631988525391 24.06574058532715 80.01744842529297 21.52522850036621 C 80.14096069335938 19.81391906738281 80.26445770263672 18.26138496398926 80.28209686279297 18.0496768951416 C 80.28209686279297 17.87325096130371 80.45851898193359 17.69682502746582 80.61730194091797 17.69682502746582 C 80.79372406005859 17.69682502746582 80.93486022949219 18.52602005004883 80.97015380859375 19.53163528442383 C 81.0230712890625 21.29588317871094 81.0230712890625 21.29588317871094 81.11128997802734 19.90212821960449 C 81.27006530761719 17.90853500366211 81.53470611572266 17.32633209228516 81.79933929443359 18.43780326843262 L 82.02869415283203 19.31992530822754 L 82.06398010253906 18.26138496398926 C 82.11691284179688 16.7088451385498 82.46976470947266 16.62063598632812 82.87553405761719 18.0496768951416 L 83.26365661621094 19.31992530822754 L 83.14016723632812 18.13788604736328 C 83.05195617675781 17.50275802612305 83.12252807617188 13.99192237854004 83.22837829589844 10.33993721008301 C 83.38716888427734 5.699977397918701 83.35187530517578 3.600532531738281 83.14016723632812 3.371178150177002 C 82.68146514892578 2.877188682556152 80.81136322021484 2.612556934356689 80.44087982177734 2.983043193817139 M 80.01744842529297 5.964612007141113 C 80.01744842529297 6.458601951599121 79.66460418701172 7.411291122436523 79.17062377929688 8.081706047058105 C 77.84744262695312 10.05765438079834 77.28288269042969 10.99270725250244 76.57719421386719 12.40409851074219 L 75.90676879882812 13.72727966308594 L 75.90676879882812 12.70401763916016 C 75.90676879882812 12.13946342468262 76.04791259765625 10.32228851318359 76.25962066650391 8.646265983581543 C 76.61246490478516 5.647051811218262 76.64775085449219 5.611764907836914 77.52987670898438 5.364771366119385 C 77.98857879638672 5.223633289337158 78.76485443115234 5.082491397857666 79.22355651855469 5.082491397857666 C 79.92925262451172 5.047211170196533 80.01744842529297 5.170707702636719 80.01744842529297 5.964612007141113 M 75.94205474853516 8.169915199279785 C 75.78327941894531 9.457816123962402 75.55392456054688 11.55726146697998 75.46571350097656 12.84515857696533 C 75.34221649169922 14.29183959960938 75.11286163330078 15.38567161560059 74.84822845458984 15.65030670166016 C 74.49538421630859 16.00315093994141 74.4248046875 15.82672500610352 74.40716552734375 14.1683406829834 C 74.40716552734375 13.1097936630249 74.31895446777344 11.66311931610107 74.23074340820312 10.93977546691895 C 74.01903533935547 9.05203914642334 74.37188720703125 6.511530876159668 74.84822845458984 6.511530876159668 C 75.07758331298828 6.511530876159668 75.41278839111328 6.317460060119629 75.60684967041016 6.088109016418457 C 76.20669555664062 5.364771366119385 76.25962066650391 5.699977397918701 75.94205474853516 8.169915199279785 M 82.59325408935547 7.323081016540527 C 82.48740386962891 7.605360984802246 82.43447113037109 7.428936004638672 82.43447113037109 6.970232963562012 C 82.43447113037109 6.458601951599121 82.48740386962891 6.246892929077148 82.59325408935547 6.440959930419922 C 82.64617919921875 6.635027885437012 82.64617919921875 7.040801048278809 82.59325408935547 7.323081016540527 M 71.01982116699219 7.72885799407959 C 70.89633178710938 8.381628036499023 70.80811309814453 11.22205829620361 70.79047393798828 14.0624885559082 L 70.75518798828125 19.17879104614258 L 70.04949188232422 19.17879104614258 C 69.4320068359375 19.17879104614258 69.37908172607422 19.09057998657227 69.55550384521484 18.0496768951416 C 69.64371490478516 17.46747398376465 69.82013702392578 14.69761657714844 69.90834808349609 11.96303749084473 C 70.08477783203125 7.252513885498047 70.22591400146484 6.546811103820801 70.98453521728516 6.511530876159668 C 71.10803985595703 6.511530876159668 71.10803985595703 7.040801048278809 71.01982116699219 7.72885799407959 M 73.93082427978516 11.57490253448486 C 74.10725402832031 16.46185302734375 74.08960723876953 16.67356872558594 73.48976135253906 17.32633209228516 C 73.17219543457031 17.67918395996094 72.96048736572266 18.17317008972168 73.04869842529297 18.40252685546875 C 73.18984222412109 18.7906551361084 72.51943206787109 19.17879104614258 71.58438110351562 19.17879104614258 C 70.98453521728516 19.17879104614258 71.05510711669922 8.78740119934082 71.63730621337891 8.205202102661133 C 71.93722534179688 7.869996070861816 71.95487213134766 7.693571090698242 71.72551727294922 7.640645027160645 C 70.96688842773438 7.376009941101074 71.7784423828125 6.511530876159668 72.748779296875 6.511530876159668 L 73.75440216064453 6.511530876159668 L 73.93082427978516 11.57490253448486 Z M 67.24434661865234 7.129014015197754 C 67.35020446777344 7.323081016540527 67.24434661865234 7.587716102600098 67.05027770996094 7.72885799407959 C 66.69742584228516 7.940564155578613 66.69742584228516 7.99349308013916 67.05027770996094 7.99349308013916 C 67.40312957763672 7.99349308013916 67.43841552734375 8.910898208618164 67.27962493896484 13.49792861938477 C 67.13848876953125 19.47870826721191 67.4560546875 17.8556079864502 67.80890655517578 10.85156536102295 L 68.03825378417969 6.811450004577637 L 68.81452178955078 6.899659156799316 L 69.57315063476562 7.023162841796875 L 69.57315063476562 11.11620044708252 C 69.57315063476562 15.66794776916504 69.22029876708984 19.26700592041016 68.81452178955078 19.02000617980957 C 68.67337799072266 18.91414833068848 68.54988098144531 18.96708106994629 68.54988098144531 19.10822296142578 C 68.54988098144531 19.40814208984375 67.57955169677734 19.49635696411133 60.01094818115234 20.06091117858887 C 51.77193832397461 20.64310646057129 29.38370323181152 21.7722282409668 26.31392288208008 21.73693656921387 C 25.52001571655273 21.73693656921387 23.80870056152344 21.82515335083008 22.57373046875 21.96629524230957 C 20.3331413269043 22.21328163146973 20.28021430969238 22.17800521850586 20.28021430969238 21.56051826477051 C 20.28021430969238 21.24295806884766 20.45663833618164 20.94303321838379 20.66835021972656 20.94303321838379 C 20.93298530578613 20.94303321838379 20.93298530578613 20.89010620117188 20.6330623626709 20.71368026733398 C 20.28021430969238 20.46668815612793 20.3331413269043 16.00315093994141 20.75656127929688 12.61580753326416 C 20.93298530578613 11.29262638092041 20.96826934814453 11.22205829620361 21.85038948059082 11.22205829620361 C 22.37966346740723 11.22205829620361 23.31471252441406 11.08091640472412 23.9851245880127 10.93977546691895 C 25.43180274963379 10.60457229614258 26.36685180664062 10.49871444702148 35.43505477905273 9.757735252380371 C 39.31638717651367 9.457816123962402 45.61473083496094 9.05203914642334 49.42549896240234 8.840330123901367 C 53.2186164855957 8.663905143737793 58.12321090698242 8.399266242980957 60.31086730957031 8.293412208557129 C 63.96284866333008 8.046418190002441 63.75114059448242 8.046418190002441 58.10556411743164 8.134634971618652 L 51.91307830810547 8.222844123840332 L 55.65327072143555 7.852354049682617 C 57.75271987915039 7.640645027160645 60.57550811767578 7.428936004638672 61.98689651489258 7.376009941101074 L 64.58033752441406 7.252513885498047 L 64.66854858398438 10.05765438079834 C 64.72147369384766 11.57490253448486 64.86261749267578 13.58614444732666 65.02140045166016 14.46826553344727 C 65.16253662109375 15.57973861694336 65.21546936035156 14.67997550964355 65.12725067138672 11.61019325256348 L 65.02140045166016 7.129014015197754 L 65.83295440673828 7.023162841796875 C 66.27400970458984 6.970232963562012 66.71507263183594 6.864378929138184 66.83856964111328 6.846736907958984 C 66.96206665039062 6.846736907958984 67.13848876953125 6.970232963562012 67.24434661865234 7.129014015197754 M 50.53696823120117 8.487482070922852 C 50.06062698364258 8.558050155639648 49.35493087768555 8.558050155639648 48.91386413574219 8.487482070922852 C 48.45516204833984 8.434553146362305 48.82565307617188 8.381628036499023 49.70777893066406 8.381628036499023 C 50.58989334106445 8.381628036499023 50.97803115844727 8.434553146362305 50.53696823120117 8.487482070922852 M 20.58013725280762 10.05765438079834 C 20.58013725280762 10.19879531860352 20.22728729248047 10.37522125244141 19.78622627258301 10.37522125244141 C 19.08053016662598 10.428147315979 19.04524612426758 10.428147315979 19.60980224609375 10.55164051055908 L 20.28021430969238 10.67514705657959 L 20.10379028320312 15.57973861694336 C 19.98029327392578 18.29666900634766 19.89208221435547 20.89010620117188 19.87443733215332 21.38409233093262 C 19.83915328979492 22.12507247924805 19.69801330566406 22.30149841308594 19.04524612426758 22.35442352294922 C 18.37483406066895 22.44264030456543 18.21605110168457 22.31913948059082 18.21605110168457 21.86043739318848 C 18.21605110168457 21.47230911254883 18.42775917053223 21.24295806884766 18.74532318115234 21.20766830444336 C 19.13345909118652 21.17238426208496 19.16874313354492 21.15474128723145 18.81589508056641 21.03124237060547 C 18.42775917053223 20.94303321838379 18.33954620361328 20.27262115478516 18.30426216125488 16.88527870178223 C 18.30426216125488 14.2036247253418 18.39247512817383 12.79223346710205 18.63947105407715 12.63344955444336 C 18.86882209777832 12.45702362060547 18.86882209777832 12.40409851074219 18.63947105407715 12.40409851074219 C 18.42775917053223 12.40409851074219 18.28661918640137 11.83954429626465 18.28661918640137 11.08091640472412 L 18.25133514404297 9.757735252380371 L 19.39809417724609 9.757735252380371 C 20.05086326599121 9.757735252380371 20.58013725280762 9.881235122680664 20.58013725280762 10.05765438079834 M 28.20166397094727 9.881235122680664 C 28.14873504638672 9.969444274902344 27.35482597351074 10.05765438079834 26.45506286621094 10.07529544830322 C 25.57294273376465 10.11058616638184 24.67317962646484 10.25172138214111 24.46146965026855 10.428147315979 C 24.24975967407227 10.58693027496338 23.63227462768555 10.63985633850098 23.08535957336426 10.55164051055908 C 22.52080154418945 10.46343040466309 22.04445648193359 10.49871444702148 22.04445648193359 10.67514705657959 C 22.04445648193359 11.22205829620361 20.98591423034668 10.93977546691895 20.96826934814453 10.33993721008301 C 20.8976993560791 9.79301929473877 21.07412528991699 9.757735252380371 24.60260963439941 9.757735252380371 C 26.66677093505859 9.757735252380371 28.25458908081055 9.810667037963867 28.20166397094727 9.881235122680664 M 17.89848709106445 15.2092456817627 C 17.93377113342285 19.760986328125 17.93377113342285 19.760986328125 17.28100395202637 19.7962760925293 L 16.6105899810791 19.84920120239258 L 17.28100395202637 19.97270202636719 C 18.0219841003418 20.11383628845215 18.16312217712402 20.8018913269043 17.45742797851562 21.06653213500977 C 16.62823295593262 21.38409233093262 15.86960887908936 21.24295806884766 15.86960887908936 20.8018913269043 C 15.86960887908936 20.55489730834961 15.95781993865967 20.36083030700684 16.09896087646484 20.36083030700684 C 16.22245597839355 20.36083030700684 16.2753849029541 19.7962760925293 16.25774192810059 19.10822296142578 C 16.25774192810059 18.40252685546875 16.2753849029541 17.76739883422852 16.36359786987305 17.60861587524414 C 16.43416595458984 17.50275802612305 16.54001998901367 16.32071685791016 16.5753059387207 14.96224594116211 C 16.62823295593262 13.63907051086426 16.6105899810791 12.98630046844482 16.54001998901367 13.49792861938477 C 16.43416595458984 14.34476661682129 16.3106689453125 14.46826553344727 15.53440284729004 14.46826553344727 C 14.95220279693604 14.46826553344727 14.68756580352783 14.32712364196777 14.68756580352783 13.99192237854004 C 14.68756580352783 13.37442874908447 16.36359786987305 11.73368644714355 16.75172996520996 11.96303749084473 C 16.89286994934082 12.05124759674072 17.05165100097656 11.96303749084473 17.05165100097656 11.75132846832275 C 17.05165100097656 11.4337682723999 17.58092308044434 10.63985633850098 17.81027603149414 10.63985633850098 C 17.84555816650391 10.63985633850098 17.86320304870605 12.70401763916016 17.89848709106445 15.2092456817627 M 14.246506690979 14.43297576904297 C 14.15829277038574 14.60940170288086 13.84073066711426 14.76818466186523 13.57609367370605 14.76818466186523 C 13.18796157836914 14.76818466186523 13.18796157836914 14.69761657714844 13.6995906829834 14.34476661682129 C 14.3170747756958 13.90370559692383 14.58171272277832 13.93898963928223 14.246506690979 14.43297576904297 M 16.04603385925293 16.46185302734375 C 15.92253684997559 17.37926483154297 15.78139591217041 18.56130409240723 15.6931848526001 19.02000617980957 C 15.56968879699707 19.53163528442383 15.48147583007812 20.23733711242676 15.46383190155029 20.64310646057129 C 15.42854881286621 21.17238426208496 15.21683883666992 21.41937637329102 14.77577877044678 21.47230911254883 C 14.3170747756958 21.52522850036621 14.10536670684814 21.41937637329102 14.10536670684814 21.11945152282715 C 14.10536670684814 20.85482215881348 14.33471775054932 20.64310646057129 14.63463878631592 20.62546539306641 C 14.93456077575684 20.62546539306641 14.98748779296875 20.53725624084473 14.77577877044678 20.43140411376953 C 14.54642772674561 20.37847900390625 14.38764572143555 19.7962760925293 14.38764572143555 19.14349937438965 C 14.38764572143555 18.20845222473145 14.51114177703857 17.94381713867188 15.0757007598877 17.69682502746582 C 15.56968879699707 17.50275802612305 15.60497283935547 17.43218994140625 15.21683883666992 17.43218994140625 C 14.81106281280518 17.41454887390137 14.68756580352783 17.1499137878418 14.68756580352783 16.28543472290039 C 14.68756580352783 14.99753570556641 14.84634780883789 14.76818466186523 15.65789985656738 14.76818466186523 C 16.18717193603516 14.76818466186523 16.22245597839355 14.9093189239502 16.04603385925293 16.46185302734375 M 14.38764572143555 16.09136581420898 C 14.38764572143555 16.93819618225098 14.246506690979 17.16754913330078 13.62902069091797 17.41454887390137 C 12.44697856903076 17.8556079864502 12.34112358093262 17.78504180908203 12.34112358093262 16.55006790161133 C 12.34112358093262 15.38567161560059 12.57047557830811 15.12102890014648 13.75251770019531 15.08575248718262 C 14.3170747756958 15.05046081542969 14.38764572143555 15.2092456817627 14.38764572143555 16.09136581420898 M 12.04120349884033 17.07933807373047 C 12.04120349884033 17.50275802612305 11.77656555175781 17.69682502746582 11.12379741668701 17.8556079864502 C 9.924112319946289 18.12024307250977 9.659475326538086 17.78504180908203 10.54159736633301 17.07933807373047 C 11.42371845245361 16.37364387512207 12.04120349884033 16.37364387512207 12.04120349884033 17.07933807373047 M 9.571263313293457 18.96708106994629 C 9.447766304016113 19.44342613220215 9.130203247070312 19.74335098266602 8.653857231140137 19.81391906738281 C 7.683524608612061 20.02562713623047 7.718809127807617 19.61985015869141 8.742069244384766 18.73773002624512 C 9.659475326538086 17.94381713867188 9.83590030670166 17.99674987792969 9.571263313293457 18.96708106994629 M 14.10536670684814 18.43780326843262 C 14.10536670684814 18.68480491638184 13.92894268035889 18.87887191772461 13.75251770019531 18.87887191772461 C 13.54080867767334 18.87887191772461 13.04682064056396 18.96708106994629 12.65868759155273 19.09057998657227 C 12.04120349884033 19.23171615600586 12.0059175491333 19.21407318115234 12.30583953857422 18.61422920227051 C 12.71161556243896 17.87325096130371 14.10536670684814 17.73210906982422 14.10536670684814 18.43780326843262 M 11.77656555175781 19.53163528442383 C 11.60014247894287 20.71368026733398 11.54721450805664 20.8018913269043 10.66509437561035 20.89010620117188 C 10.06525135040283 20.94303321838379 9.694760322570801 20.85482215881348 9.694760322570801 20.64310646057129 C 9.694760322570801 20.46668815612793 10.13582134246826 20.14912033081055 10.66509437561035 19.90212821960449 L 11.60014247894287 19.49635696411133 L 10.80623340606689 19.47870826721191 C 10.18874835968018 19.47870826721191 9.977039337158203 19.31992530822754 9.977039337158203 18.87887191772461 C 9.977039337158203 18.40252685546875 10.18874835968018 18.29666900634766 10.94737339019775 18.29666900634766 L 11.91770648956299 18.29666900634766 L 11.77656555175781 19.53163528442383 Z M 14.10536670684814 19.61985015869141 C 14.10536670684814 20.09619522094727 13.22324562072754 20.64310646057129 12.51754760742188 20.64310646057129 C 11.86477851867676 20.64310646057129 11.91770648956299 19.54927635192871 12.57047557830811 19.37285804748535 C 13.59373760223389 19.10822296142578 14.10536670684814 19.17879104614258 14.10536670684814 19.61985015869141 M 9.394839286804199 20.64310646057129 C 9.394839286804199 21.11945152282715 9.183131217956543 21.24295806884766 8.477434158325195 21.24295806884766 C 7.418888092041016 21.24295806884766 7.454173564910889 20.62546539306641 8.530361175537109 20.32554626464844 C 8.918493270874023 20.20205307006836 9.271343231201172 20.11383628845215 9.341912269592285 20.09619522094727 C 9.359555244445801 20.06091117858887 9.394839286804199 20.32554626464844 9.394839286804199 20.64310646057129 M 7.330676078796387 21.08417320251465 C 7.330676078796387 21.41937637329102 7.013113021850586 21.52522850036621 6.23684549331665 21.52522850036621 C 5.213584899902344 21.52522850036621 5.178299903869629 21.5075855255127 5.742857456207275 21.08417320251465 C 6.483839511871338 20.53725624084473 7.330676078796387 20.53725624084473 7.330676078796387 21.08417320251465 M 13.75251770019531 21.15474128723145 C 13.66430568695068 21.52522850036621 13.36438465118408 21.68401145935059 12.53519153594971 21.68401145935059 C 11.95299053192139 21.68401145935059 11.45900249481201 21.7722282409668 11.45900249481201 21.87807846069336 C 11.45900249481201 22.03686332702637 11.03558540344238 22.12507247924805 10.54159736633301 22.12507247924805 C 9.959397315979004 22.12507247924805 9.694760322570801 22.00157928466797 9.78297233581543 21.73693656921387 C 9.83590030670166 21.56051826477051 10.36517238616943 21.38409233093262 10.94737339019775 21.38409233093262 C 11.56485843658447 21.38409233093262 12.04120349884033 21.29588317871094 12.04120349884033 21.17238426208496 C 12.04120349884033 20.99595832824707 12.48226356506348 20.89010620117188 13.59373760223389 20.67839813232422 C 13.75251770019531 20.67839813232422 13.80544567108154 20.89010620117188 13.75251770019531 21.15474128723145 M 17.93377113342285 21.82515335083008 C 17.93377113342285 22.30149841308594 17.72206497192383 22.40735626220703 16.89286994934082 22.40735626220703 C 15.64025783538818 22.40735626220703 15.46383190155029 21.61344337463379 16.69880294799805 21.43701934814453 C 17.13986396789551 21.38409233093262 17.58092308044434 21.29588317871094 17.72206497192383 21.26059341430664 C 17.84555816650391 21.26059341430664 17.93377113342285 21.5075855255127 17.93377113342285 21.82515335083008 M 9.394839286804199 21.96629524230957 C 9.394839286804199 22.26621437072754 9.094918251037598 22.40735626220703 8.512718200683594 22.40735626220703 C 7.066039085388184 22.40735626220703 7.507099628448486 21.70166015625 9.041991233825684 21.56051826477051 C 9.218415260314941 21.56051826477051 9.394839286804199 21.73693656921387 9.394839286804199 21.96629524230957 M 7.277748584747314 22.17800521850586 C 7.207179546356201 22.35442352294922 6.942542552947998 22.53084945678711 6.713191032409668 22.58378219604492 C 3.625766754150391 23.11305046081543 3.625766754150391 23.11305046081543 4.031542301177979 22.61905860900879 C 4.278536319732666 22.35442352294922 4.984232902526855 22.08978843688965 5.654645919799805 22.03686332702637 C 6.325057506561279 21.96629524230957 7.013113021850586 21.91336250305176 7.136609554290771 21.87807846069336 C 7.277748584747314 21.86043739318848 7.330676078796387 21.96629524230957 7.277748584747314 22.17800521850586 M 15.56968879699707 22.12507247924805 C 15.56968879699707 22.26621437072754 15.12862682342529 22.40735626220703 14.58171272277832 22.40735626220703 C 14.05243968963623 22.40735626220703 13.13503265380859 22.49556541442871 12.6057596206665 22.58378219604492 C 11.90006446838379 22.74255752563477 11.6883544921875 22.6719913482666 11.90006446838379 22.4779224395752 C 12.39405250549316 21.96629524230957 15.56968879699707 21.64872741699219 15.56968879699707 22.12507247924805 M 11.24729442596436 22.61905860900879 C 11.03558540344238 22.6719913482666 10.62980937957764 22.6719913482666 10.36517238616943 22.61905860900879 C 10.06525135040283 22.53084945678711 10.24167537689209 22.4779224395752 10.71802139282227 22.4779224395752 C 11.21200847625732 22.4779224395752 11.42371845245361 22.53084945678711 11.24729442596436 22.61905860900879" fill="#ff4d16" stroke="none" stroke-width="0"/>
</svg>