<svg xmlns="http://www.w3.org/2000/svg" width="9" height="8" viewBox="19.34745407104492 30.90299987792969 9.073945999145511 8.014457702636722" fill="none">
  <path d="M 27.91420555114746 36.98744964599609 C 27.67219352722168 36.82408142089844 27.43749618530273 36.65277481079102 27.20280075073242 36.47843933105469 C 26.25913429260254 35.72862243652344 25.33985328674316 34.95442581176758 24.42178916931152 34.17595672607422 C 23.99506759643555 33.8138542175293 23.58480453491211 33.43346405029297 23.1690559387207 33.06038665771484 C 22.4765453338623 32.43737411499023 21.78708648681641 31.81130981445312 21.10189247131348 31.18098068237305 C 20.90438270568848 30.99931907653809 20.65322303771973 30.90299987792969 20.40328979492188 30.90299987792969 C 20.1631031036377 30.90299987792969 19.92353057861328 30.99200248718262 19.73516273498535 31.18098068237305 C 19.37428092956543 31.54125785827637 19.34745407104492 32.19047927856445 19.73516273498535 32.54710006713867 C 20.95071220397949 33.66815567016602 22.16259956359863 34.79470443725586 23.42204093933105 35.86639404296875 C 23.98104476928711 36.34127044677734 24.5431022644043 36.811279296875 25.11186218261719 37.27640533447266 C 25.70073890686035 37.75738143920898 26.30912399291992 38.22555541992188 26.95042419433594 38.63642883300781 C 27.38872909545898 38.91745758056641 28.00259971618652 38.72909164428711 28.25680541992188 38.29383087158203 C 28.38664817810059 38.07315444946289 28.42140007019043 37.8043212890625 28.35312080383301 37.55804061889648 C 28.28423309326172 37.30688858032227 28.12574195861816 37.12888336181641 27.91420555114746 36.98744964599609" fill="#fc4d16" stroke="none" stroke-width="0"/>
</svg>