<svg xmlns="http://www.w3.org/2000/svg" width="3" height="14" viewBox="51.48032760620117 59.8553466796875 3.3510055541992188 14.413848876953125" fill="none">
  <path d="M 52.5738525390625 59.96541595458984 C 54.74416732788086 60.2574462890625 53.63241958618164 63.96598815917969 53.48861312866211 65.40769195556641 C 53.35097122192383 66.77922058105469 53.34087753295898 68.21403503417969 53.41991806030273 69.58950042724609 C 53.44921875 70.09329223632812 53.5482063293457 70.59832000732422 53.60631942749023 71.09940338134766 C 53.81758499145508 72.92425537109375 52.90799713134766 73.65705108642578 51.50913619995117 74.15321350097656 C 51.48032760620117 74.16355133056641 51.48697662353516 74.26919555664062 51.51208877563477 74.26401519775391 C 52.93803405761719 73.97887420654297 53.70013427734375 73.35073089599609 53.77942276000977 71.868896484375 C 53.82768249511719 70.96348571777344 53.57504653930664 70.05192565917969 53.5223503112793 69.15119934082031 C 53.44872665405273 67.89663696289062 53.49378967285156 66.58026123046875 53.6082878112793 65.32692718505859 C 53.7203254699707 64.10289764404297 54.83133316040039 59.8553466796875 52.5738525390625 59.96196746826172 L 52.5738525390625 59.96541595458984 Z" fill="#2777df" stroke="none" stroke-width="0"/>
</svg>