<svg xmlns="http://www.w3.org/2000/svg" width="1" height="2" viewBox="688.4089965820312 310.5059814453125 1.34539794921875 2.192321777343693" fill="none">
  <path d="M 689.75439453125 310.5059814453125 L 689.6700439453125 310.7236938476562 L 689.0464477539062 312.357666015625 L 688.9152221679688 312.6983032226562 L 688.9037475585938 312.69482421875 L 688.844970703125 312.6751098632812 L 688.8385620117188 312.6727905273438 C 688.8279418945312 312.5795288085938 688.8125610351562 312.4889526367188 688.79345703125 312.4009399414062 C 688.7933349609375 312.399658203125 688.7933349609375 312.3971557617188 688.7907104492188 312.39599609375 C 688.7788696289062 312.3419189453125 688.7646484375 312.2904052734375 688.749267578125 312.2416381835938 C 688.7122802734375 312.1099243164062 688.6653442382812 311.9848022460938 688.6072387695312 311.8663330078125 C 688.5827026367188 311.8089599609375 688.5530395507812 311.7528686523438 688.5222778320312 311.699462890625 C 688.4915771484375 311.644775390625 688.463623046875 311.5988159179688 688.4409790039062 311.5640869140625 C 688.4276123046875 311.54296875 688.4170532226562 311.52685546875 688.4089965820312 311.514404296875 L 688.5263061523438 311.54248046875 L 689.1177978515625 311.6823120117188 L 689.75439453125 310.5059814453125 Z" fill="#a21822" stroke="none" stroke-width="0"/>
</svg>