<svg xmlns="http://www.w3.org/2000/svg" width="3" height="5" viewBox="308.6162109375 69.94200134277344 2.532684326171875 5.155357360839844" fill="none">
  <path d="M 308.8251342773438 70.39630889892578 C 308.8863525390625 70.37939453125 308.9870300292969 70.34499359130859 308.8759460449219 70.19496917724609 C 308.7975158691406 70.42339324951172 308.6162109375 70.04014587402344 308.7244873046875 69.94200134277344 C 308.8285522460938 69.95582580566406 308.736328125 70.16535186767578 308.8759460449219 70.14420318603516 C 309.0256958007812 70.10021209716797 308.7589111328125 70.06806945800781 308.8251342773438 69.94200134277344 C 308.9224853515625 69.96316528320312 308.9171142578125 70.08640289306641 309.0781555175781 70.04268646240234 C 309.0386352539062 70.08781433105469 309.0242614746094 70.15717315673828 309.0277099609375 70.24488067626953 C 309.0750427246094 70.20792388916016 309.103759765625 70.15322875976562 309.1288757324219 70.09343719482422 C 309.2513122558594 70.24008178710938 309.55078125 70.52800750732422 309.58349609375 70.90224456787109 C 309.6971130371094 70.77082824707031 309.9475708007812 71.24403381347656 309.9371032714844 71.55903625488281 C 310.1711730957031 71.53871917724609 309.8570556640625 71.33821868896484 310.1393127441406 71.45835113525391 C 310.177978515625 71.61402130126953 309.9656066894531 71.51926422119141 310.0386657714844 71.71102905273438 C 310.1007080078125 71.53252410888672 310.2769775390625 71.70933532714844 310.0894165039062 71.76121520996094 C 310.19287109375 71.89631652832031 310.2168273925781 71.87403106689453 310.3414916992188 71.91294097900391 C 310.1996765136719 71.98966217041016 310.2315063476562 72.24063110351562 310.0894165039062 72.31763458251953 C 310.094482421875 72.44622039794922 310.2769775390625 72.43692779541016 310.3414916992188 72.36809539794922 C 310.3243408203125 72.28857421875 310.252685546875 72.41181182861328 310.2411499023438 72.31763458251953 C 310.2115478515625 72.05141448974609 310.5137939453125 72.51473999023438 310.4433288574219 72.16562652587891 C 310.6548461914062 72.26686096191406 310.3434753417969 72.77701568603516 310.6954345703125 72.82269287109375 C 310.6083374023438 72.95158386230469 310.7727355957031 73.01869201660156 310.594482421875 73.02490234375 C 310.6167602539062 73.08722686767578 310.6590881347656 73.12924194335938 310.7461853027344 73.12613677978516 C 310.6368103027344 73.24373626708984 310.8200988769531 73.33961486816406 310.6954345703125 73.4803466796875 C 310.7038879394531 73.53899383544922 310.787353515625 73.52236175537109 310.8477172851562 73.53081512451172 C 310.8615417480469 73.41492462158203 310.8347778320312 73.33989715576172 310.7461853027344 73.32833862304688 C 310.9467163085938 73.18338775634766 310.9723510742188 73.87966156005859 310.8477172851562 73.93464660644531 C 311.0104064941406 73.99246215820312 310.9286804199219 74.32439422607422 310.9991455078125 74.33905792236328 C 310.9481201171875 74.49471282958984 310.8623657226562 74.28263854980469 310.8477172851562 74.23838043212891 C 310.7512817382812 74.24317169189453 310.8784790039062 74.43548583984375 310.9481201171875 74.44084930419922 C 310.7436828613281 74.430419921875 310.9946594238281 74.61710357666016 310.8976135253906 74.74372863769531 L 310.9991455078125 74.74372863769531 C 311.1488952636719 74.69972229003906 310.8821411132812 74.66786956787109 310.9481201171875 74.54152679443359 C 311.0818176269531 74.60779571533203 311.1032409667969 74.70706176757812 311.0501708984375 74.84440612792969 C 310.9870300292969 74.78800201416016 310.9458618164062 74.80040740966797 310.9481201171875 74.89515686035156 C 310.8821411132812 74.87710571289062 310.8691711425781 74.80605316162109 310.7969665527344 74.79448699951172 C 310.8595581054688 74.93098449707031 310.9915771484375 74.91970062255859 310.8976135253906 75.09735870361328 C 310.8023071289062 75.03870391845703 310.6032104492188 74.82297515869141 310.4940795898438 74.94593048095703 C 310.4329223632812 74.71269989013672 310.3063049316406 74.35060882568359 310.1903991699219 73.88473510742188 C 310.2566528320312 73.94507598876953 310.2704162597656 73.90391540527344 310.3414916992188 73.88473510742188 C 310.3053894042969 73.83058929443359 310.1892395019531 73.87853240966797 310.0894165039062 73.78321838378906 C 310.2202453613281 73.6295166015625 310.0973205566406 73.46820831298828 309.9879150390625 73.37881469726562 C 310.0482177734375 72.86669921875 309.4500732421875 72.48316955566406 309.58349609375 71.96342468261719 C 309.2064819335938 71.84526824951172 309.4295043945312 71.39208221435547 309.179931640625 71.20539093017578 C 309.2073059082031 71.10077667236328 309.2580871582031 71.09851837158203 309.3313598632812 71.15491485595703 C 309.2005004882812 71.06636810302734 309.2532348632812 70.79479217529297 309.0277099609375 70.80099487304688 C 309.0445861816406 70.62220001220703 309.0307312011719 70.54042816162109 309.0781555175781 70.49784088134766 C 309.0637817382812 70.45046234130859 308.9413757324219 70.45046234130859 308.9267272949219 70.49784088134766 C 308.8717041015625 70.48542785644531 308.8922729492188 70.39716339111328 308.8251342773438 70.39630889892578" fill="#2777df" stroke="none" stroke-width="0"/>
</svg>