<svg xmlns="http://www.w3.org/2000/svg" width="22" height="20" viewBox="3.054303407669067 3.046999931335449 22.154106855392453 20.45789813995361" fill="none">
  <path d="M 15.45576477050781 3.953628778457642 C 15.77302551269531 3.953628778457642 16.09321594238281 3.970480918884277 16.4074535369873 4.003360748291016 C 18.75869941711426 4.250465393066406 20.79570579528809 5.402915954589844 22.14287185668945 7.248320579528809 C 22.84315299987793 8.207245826721191 23.32398986816406 9.301355361938477 23.57219314575195 10.50060749053955 C 23.83111190795898 11.75188159942627 23.82286834716797 13.05819988250732 23.54783058166504 14.38301849365234 C 23.05096435546875 16.77584457397461 21.71341514587402 18.98008918762207 19.78164291381836 20.58956527709961 C 17.87020492553711 22.18209457397461 15.54268074035645 23.05941581726074 13.22825527191162 23.05941581726074 C 12.91044521331787 23.05941581726074 12.58997917175293 23.04256248474121 12.27555751800537 23.00950050354004 C 9.924770355224609 22.76239585876465 7.888038635253906 21.60985374450684 6.540505409240723 19.76435661315918 C 5.840224266052246 18.80524826049805 5.359479427337646 17.7110481262207 5.111184597015381 16.51188850402832 C 4.852082252502441 15.26052188873291 4.860325336456299 13.9544792175293 5.13527250289917 12.62984371185303 C 5.632319927215576 10.23674201965332 6.969686508178711 8.032679557800293 8.9017333984375 6.423296928405762 C 10.81299018859863 4.830857753753662 13.14042282104492 3.953811883926392 15.45567226409912 3.953628778457642 L 15.45576477050781 3.953628778457642 Z M 15.45493984222412 3.046999931335449 C 10.25659275054932 3.047457933425903 5.366165637969971 7.059557914733887 4.24769401550293 12.44547653198242 C 3.054303407669067 18.19142723083496 6.606449127197266 22.86414909362793 12.18067264556885 23.45012855529785 C 12.53090476989746 23.48685646057129 12.87985515594482 23.50489807128906 13.22825527191162 23.50489807128906 C 18.42715072631836 23.50489807128906 22.89673233032227 19.65262031555176 24.01511192321777 14.26752662658691 C 25.20841026306152 8.520750999450684 22.0773868560791 3.687749147415161 16.5024299621582 3.101769685745239 C 16.15229034423828 3.064951419830322 15.80324840545654 3.046999931335449 15.45493984222412 3.046999931335449" fill="#e99855" stroke="none" stroke-width="0"/>
</svg>