<svg xmlns="http://www.w3.org/2000/svg" width="95" height="5" viewBox="91.81538391113281 254.1284790039062 95.3451232910156 5.091125488281307" fill="none">
  <path d="M 186.3394165039062 258.58837890625 C 187.1590728759766 258.5886840820312 187.1605072021484 257.3084106445312 186.3394165039062 257.3145446777344 C 183.2608032226562 257.3375549316406 180.1821594238281 257.362060546875 177.1037292480469 257.4027404785156 C 175.5796051025391 257.4228515625 174.0564727783203 257.5122985839844 172.5327911376953 257.554443359375 C 171.7630157470703 257.5757751464844 170.9925537109375 257.5947570800781 170.2223358154297 257.6183471679688 C 170.4980773925781 257.4627990722656 170.7737884521484 257.3072814941406 171.0490875244141 257.1509704589844 C 171.2331848144531 257.0464172363281 171.4215240478516 256.9083557128906 171.6169891357422 256.8275756835938 C 171.8477783203125 256.7322082519531 172.1139526367188 256.7245483398438 172.3595123291016 256.6966247558594 C 173.1816711425781 256.6030883789062 174.0090789794922 256.5577392578125 174.8365478515625 256.5604858398438 C 176.5664520263672 256.5663146972656 178.286376953125 256.7915649414062 179.9679870605469 257.1938781738281 C 180.4693603515625 257.3138427734375 180.681640625 256.5539245605469 180.1813049316406 256.4201354980469 C 179.7591857910156 256.3072204589844 179.3338470458984 256.2082824707031 178.9060821533203 256.1221618652344 C 180.2524108886719 256.1664428710938 181.5986022949219 256.2120056152344 182.9446258544922 256.2600708007812 C 182.9784851074219 256.4794311523438 183.0126342773438 256.6988830566406 183.0466156005859 256.9182739257812 C 183.1526947021484 257.6024169921875 184.2000427246094 257.3142395019531 184.0895843505859 256.6307373046875 C 184.0339202880859 256.2860717773438 183.9788970947266 255.9412536621094 183.9217987060547 255.5968017578125 C 183.8833160400391 255.3644714355469 183.6221923828125 255.2068481445312 183.4042816162109 255.2027587890625 C 177.4983978271484 255.0913391113281 171.5915679931641 254.9421997070312 165.6864624023438 254.7981567382812 C 159.84033203125 254.6555480957031 153.9937591552734 254.5336608886719 148.1467590332031 254.4309387207031 C 136.3946228027344 254.2244567871094 124.6399612426758 254.1284790039062 112.8862533569336 254.2414245605469 C 106.2616195678711 254.3050842285156 99.61540222167969 254.3502197265625 93.00022888183594 254.7234497070312 C 92.83574676513672 254.7327575683594 92.74304962158203 254.8484497070312 92.72352600097656 254.9742431640625 C 92.61392974853516 254.8960571289062 92.48059844970703 254.8920593261719 92.35716247558594 254.952880859375 C 92.04449462890625 255.1068420410156 91.89397430419922 255.4547424316406 91.85826873779297 255.7845458984375 C 91.81538391113281 256.1806640625 91.97783660888672 256.5569763183594 92.02127838134766 256.9427490234375 C 92.05039215087891 257.2019348144531 92.41050720214844 257.2830810546875 92.49471282958984 257.0068359375 C 92.51001739501953 256.956298828125 92.52130889892578 256.9079284667969 92.53022003173828 256.8602905273438 C 92.58781433105469 256.8870239257812 92.65812683105469 256.8891296386719 92.72928619384766 256.8507690429688 C 93.24611663818359 256.5721435546875 93.76265716552734 256.2933654785156 94.27783966064453 256.0120849609375 C 94.25651550292969 256.0534057617188 94.23522186279297 256.0947265625 94.21389770507812 256.1360168457031 C 94.09248352050781 256.3710632324219 94.41712188720703 256.6662292480469 94.60255432128906 256.4359130859375 C 94.79351806640625 256.1987915039062 95.00953674316406 255.9963684082031 95.25592803955078 255.8337707519531 C 95.20486450195312 256.0170593261719 95.15390014648438 256.2003173828125 95.10288238525391 256.3836059570312 C 95.02922058105469 256.6483154296875 95.33842468261719 256.7721862792969 95.52367401123047 256.6285400390625 C 96.01200103759766 256.2501220703125 96.54584503173828 255.9518432617188 97.11746215820312 255.7303466796875 C 97.05779266357422 256.089111328125 96.99809265136719 256.4478759765625 96.93839263916016 256.8066711425781 C 96.89328002929688 257.0780944824219 97.2569580078125 257.27880859375 97.41020202636719 257.0055236816406 C 97.54946899414062 256.7571105957031 97.71383666992188 256.4293212890625 97.97567749023438 256.2854309082031 C 98.11228179931641 256.2104187011719 98.23538208007812 256.1744384765625 98.37503051757812 256.25439453125 C 98.44398498535156 256.2938232421875 98.59210968017578 256.4678039550781 98.53646850585938 256.5595703125 C 98.51171875 256.5812377929688 98.48677062988281 256.6026306152344 98.46227264404297 256.6246643066406 C 98.24703979492188 256.8185119628906 98.53883361816406 257.211669921875 98.77711486816406 257.0327453613281 C 98.79530334472656 257.0190734863281 98.81214904785156 257.0049133300781 98.82844543457031 256.9904174804688 C 98.82881164550781 256.9909973144531 98.82926940917969 256.9915771484375 98.82976531982422 256.9920959472656 C 99.30020904541016 256.5685424804688 99.82415771484375 256.2297668457031 100.3964996337891 255.9776611328125 C 100.270393371582 256.2561950683594 100.1106491088867 256.5166625976562 99.91336822509766 256.7595825195312 C 99.74309539794922 256.9692993164062 99.96532440185547 257.3496704101562 100.2282562255859 257.1675720214844 C 100.8766174316406 256.7185363769531 101.5624160766602 256.3378601074219 102.2846832275391 256.0296936035156 C 102.0850143432617 256.40869140625 101.8276138305664 256.7500610351562 101.5140380859375 257.0577697753906 C 101.2629165649414 257.3041381835938 101.6304473876953 257.6480712890625 101.8922119140625 257.4359741210938 C 102.5335388183594 256.9163513183594 103.20458984375 256.4371948242188 103.9024658203125 255.9999694824219 C 103.8490829467773 256.0636596679688 103.7956237792969 256.1272888183594 103.7421951293945 256.1909790039062 C 103.5747833251953 256.3905334472656 103.726432800293 256.7784729003906 104.0227432250977 256.6728820800781 C 104.5066604614258 256.5005187988281 104.990104675293 256.3268432617188 105.4734954833984 256.153076171875 C 105.3804244995117 256.312744140625 105.2873458862305 256.4723205566406 105.1943054199219 256.6319580078125 C 105.0481491088867 256.8826599121094 105.3490829467773 257.2160034179688 105.6067810058594 257.0444641113281 C 106.2039489746094 256.6469421386719 106.8239898681641 256.290283203125 107.4662246704102 255.9771118164062 C 107.2567901611328 256.2127380371094 107.0473403930664 256.4483642578125 106.8379821777344 256.6839599609375 C 106.5958862304688 256.956298828125 106.8968276977539 257.3497314453125 107.2240447998047 257.1843872070312 C 108.1241836547852 256.729736328125 109.0242004394531 256.2749633789062 109.9241714477539 255.8201599121094 C 109.6855087280273 256.1915283203125 109.4468688964844 256.5628662109375 109.2081985473633 256.9342956542969 C 109.0235595703125 257.2216796875 109.3849105834961 257.5559692382812 109.6663208007812 257.3923645019531 C 110.3746109008789 256.9805297851562 111.1017608642578 256.6068115234375 111.8471450805664 256.2725219726562 C 111.7106170654297 256.4124755859375 111.5738372802734 256.5522155761719 111.4372634887695 256.6921997070312 C 111.168830871582 256.9674072265625 111.5136642456055 257.4374084472656 111.8534317016602 257.2315368652344 C 113.0483627319336 256.5077819824219 114.3014907836914 255.8907775878906 115.6072006225586 255.3981018066406 C 115.5383834838867 255.519775390625 115.4445724487305 255.6258850097656 115.3294448852539 255.715087890625 C 115.2514724731445 255.7616882324219 115.1738967895508 255.809326171875 115.0970993041992 255.8583679199219 C 114.7126083374023 256.103759765625 115.0475997924805 256.6676635742188 115.4525527954102 256.466552734375 C 115.537727355957 256.4242858886719 115.6177749633789 256.3758850097656 115.692985534668 256.3224487304688 C 116.3788223266602 255.92333984375 117.1115798950195 255.6114196777344 117.875617980957 255.4065551757812 C 117.689582824707 255.5551147460938 117.4915084838867 255.6884460449219 117.2830581665039 255.8069458007812 C 117.1302261352539 255.8800354003906 116.9783401489258 255.9557800292969 116.8280868530273 256.035888671875 C 116.3903579711914 256.269287109375 116.774787902832 256.8893127441406 117.2109298706055 256.69091796875 C 117.3151779174805 256.6434326171875 117.4169387817383 256.5928039550781 117.5164108276367 256.5391235351562 C 118.5046768188477 256.0647583007812 119.5534133911133 255.7389221191406 120.6342849731445 255.5750122070312 C 120.2910232543945 256.0114135742188 119.9477767944336 256.4476928710938 119.6045761108398 256.8840942382812 C 119.3859329223633 257.1620483398438 119.5738906860352 257.6895141601562 119.9901962280273 257.546630859375 C 121.369026184082 257.0735778808594 122.7467880249023 256.5976257324219 124.1244125366211 256.1211242675781 C 123.9921340942383 256.3458557128906 123.8099594116211 256.5400695800781 123.5734481811523 256.6948547363281 C 123.1423873901367 256.9769592285156 123.5143051147461 257.5780639648438 123.9703903198242 257.3739013671875 C 125.0326614379883 256.898193359375 126.0962600708008 256.4255676269531 127.1599655151367 255.9530944824219 C 127.146858215332 256.3088684082031 127.0038375854492 256.6437072753906 126.7372055053711 256.9158020019531 C 126.483039855957 257.1751708984375 126.7379989624023 257.7369995117188 127.1220016479492 257.5768127441406 C 128.2659606933594 257.0995788574219 129.4135589599609 256.6317443847656 130.5621032714844 256.1658325195312 C 130.3703155517578 256.6096496582031 130.0614013671875 256.9957885742188 129.6762237548828 257.306396484375 C 129.2922973632812 257.6159362792969 129.805908203125 258.2914123535156 130.2081146240234 257.9957580566406 C 131.2714080810547 257.2141418457031 132.4413299560547 256.6323852539062 133.6995849609375 256.2641296386719 C 133.6699981689453 256.5407104492188 133.5973205566406 256.8095397949219 133.4717712402344 257.0716552734375 C 133.2624053955078 257.5088195800781 133.8086242675781 258.0151062011719 134.1803283691406 257.6183471679688 C 134.6144409179688 257.1548461914062 135.1045837402344 256.5982055664062 135.7513885498047 256.4513854980469 C 136.2198028564453 256.3450622558594 137.0021209716797 256.6788940429688 136.8240966796875 257.2670288085938 C 136.7584075927734 257.48388671875 136.9026794433594 257.7799987792969 137.1388702392578 257.8213806152344 C 138.2509307861328 258.0166625976562 139.0514984130859 257.365966796875 139.9482116699219 256.8237609863281 C 140.31103515625 256.6044006347656 140.8362121582031 256.3108215332031 141.2744140625 256.4776000976562 C 141.5029449462891 256.5646362304688 141.8899536132812 256.9698181152344 141.6725463867188 257.224609375 C 141.3592071533203 257.5918579101562 141.7524871826172 258.1830444335938 142.2076263427734 257.9180908203125 C 143.1856994628906 257.3486633300781 144.2237548828125 256.9117126464844 145.3125152587891 256.6153564453125 C 145.3613891601562 256.8876342773438 145.3620758056641 257.1612243652344 145.3037872314453 257.4483947753906 C 145.2353973388672 257.7859191894531 145.5139770507812 258.1123046875 145.8704376220703 258.0150451660156 C 146.4065551757812 257.8687744140625 146.9425659179688 257.7221374511719 147.4787139892578 257.5760498046875 C 147.7199859619141 257.5103454589844 147.9611053466797 257.4436950683594 148.2027893066406 257.3796081542969 C 148.2209167480469 257.3747863769531 148.2417602539062 257.3708801269531 148.2635192871094 257.3672485351562 C 148.2169342041016 257.5521850585938 148.2718505859375 257.7555236816406 148.4712371826172 257.8565673828125 C 148.8883209228516 258.0678100585938 149.2325897216797 257.8701477050781 149.3908996582031 257.5578308105469 C 150.3391723632812 256.9685668945312 151.7487182617188 256.3209838867188 152.4143371582031 257.4876403808594 C 152.5306091308594 257.6914672851562 152.8408966064453 257.7939453125 153.0442962646484 257.65283203125 C 153.8493347167969 257.0941467285156 154.6543579101562 256.5354919433594 155.4593811035156 255.9768676757812 C 155.5167694091797 256.2310485839844 155.4927978515625 256.4930419921875 155.3912963867188 256.7676086425781 C 155.2449798583984 257.1630249023438 155.7395477294922 257.4645080566406 156.0657348632812 257.2861328125 C 156.7870941162109 256.8916015625 157.5084991455078 256.4970092773438 158.2298278808594 256.1025390625 C 158.4000396728516 256.35888671875 158.6849975585938 256.5614929199219 158.994140625 256.62939453125 C 159.4100189208984 256.7207946777344 159.8020782470703 256.5267944335938 160.14501953125 256.3094482421875 C 160.3192443847656 256.198974609375 160.4926147460938 256.0504150390625 160.6866302490234 255.9755859375 C 160.8012542724609 255.931396484375 160.8512420654297 255.9093933105469 160.9646759033203 255.9512634277344 C 161.1081390380859 256.0042724609375 161.0473175048828 256.101318359375 161.1533813476562 255.9696655273438 C 160.9366455078125 256.2387390136719 161.0419616699219 256.7760009765625 161.4717407226562 256.7382507324219 C 161.8404998779297 256.7058715820312 162.2092742919922 256.6734619140625 162.5780334472656 256.6410827636719 C 162.6277313232422 256.9041137695312 162.7816467285156 257.1553039550781 163.0148010253906 257.3050231933594 C 163.333740234375 257.5097045898438 163.7418823242188 257.4819030761719 164.0828704833984 257.3511657714844 C 164.4273529052734 257.2190856933594 164.819580078125 256.820068359375 165.2075347900391 256.7498474121094 C 165.3722991943359 257.2442932128906 165.7802886962891 257.6112365722656 166.2785034179688 257.7874145507812 C 163.7953948974609 257.9014587402344 161.3112945556641 257.9963684082031 158.8289031982422 258.1261596679688 C 157.3072509765625 258.2057800292969 155.7867126464844 258.3011779785156 154.2658996582031 258.3954772949219 C 152.745849609375 258.4896850585938 151.2236480712891 258.6005554199219 149.7001037597656 258.6012573242188 C 148.0138092041016 258.6020202636719 146.3307037353516 258.4701232910156 144.6484222412109 258.3703002929688 C 143.7932739257812 258.3195190429688 142.9373321533203 258.2781372070312 142.0806427001953 258.2682800292969 C 141.2249298095703 258.2584533691406 140.3700866699219 258.231689453125 139.5156707763672 258.2867736816406 C 139.1663970947266 258.3092956542969 139.1695556640625 258.86181640625 139.5156707763672 258.8299560546875 C 140.2777252197266 258.7596740722656 141.0401611328125 258.6995544433594 141.8056945800781 258.7059020996094 C 142.5702514648438 258.7122802734375 143.3353271484375 258.7585754394531 144.0979461669922 258.8097839355469 C 145.5976104736328 258.9105834960938 147.0938873291016 259.0601196289062 148.5952758789062 259.1351623535156 C 150.1092376708984 259.2107849121094 151.6343231201172 259.2196044921875 153.1483306884766 259.1413269042969 C 154.6697235107422 259.0626525878906 156.1897125244141 258.9579162597656 157.7111358642578 258.8785095214844 C 160.749755859375 258.7197570800781 163.8004913330078 258.5667419433594 166.8439636230469 258.5750732421875 C 169.8912658691406 258.5833740234375 172.9370880126953 258.5341796875 175.9842681884766 258.5909118652344 C 177.693603515625 258.6227722167969 179.4055938720703 258.5895385742188 181.1152954101562 258.5882568359375 C 182.8566589355469 258.5868835449219 184.5980529785156 258.5876770019531 186.3394165039062 258.58837890625 M 158.9879302978516 255.6516723632812 C 158.9559173583984 255.6168518066406 159.0367431640625 255.5894775390625 158.9879302978516 255.6516723632812 M 157.3766326904297 255.5283203125 C 157.0525054931641 255.70458984375 156.7283782958984 255.8808288574219 156.4042663574219 256.0570983886719 C 156.3871612548828 255.8684997558594 156.3460540771484 255.6821899414062 156.2804412841797 255.5026550292969 C 156.6458740234375 255.5111389160156 157.01123046875 255.5196838378906 157.3766326904297 255.5283203125 M 131.0869598388672 255.0695190429688 C 131.0438385009766 255.0757141113281 131.0021514892578 255.0867919921875 130.9642028808594 255.1029968261719 C 129.9416961669922 255.5391845703125 128.9191436767578 255.9747009277344 127.8940353393555 256.4044799804688 C 127.9806747436523 256.0396728515625 127.9751663208008 255.65234375 127.868293762207 255.2713317871094 C 127.8379745483398 255.1634216308594 127.7744979858398 255.0876770019531 127.6946640014648 255.0419006347656 C 127.8816604614258 255.0431823730469 128.068603515625 255.0441284179688 128.2555694580078 255.0454711914062 C 129.1994171142578 255.0523376464844 130.1431427001953 255.0606384277344 131.0869598388672 255.0695190429688 M 119.4926986694336 255.01318359375 C 119.3900375366211 255.0386962890625 119.2877426147461 255.0655517578125 119.1857376098633 255.0938415527344 C 119.2057266235352 255.067626953125 119.2258834838867 255.0416259765625 119.245491027832 255.0149841308594 L 119.2465744018555 255.0134582519531 C 119.3286361694336 255.013427734375 119.4106521606445 255.01318359375 119.4926986694336 255.01318359375 M 113.4041061401367 255.0314636230469 C 113.8383255004883 255.0289001464844 114.2725601196289 255.0265808105469 114.7067794799805 255.0245971679688 C 114.2974624633789 255.1940307617188 113.8930282592773 255.3742370605469 113.4939041137695 255.5656433105469 C 113.6337814331055 255.4012756347656 113.5683212280273 255.1351318359375 113.4041061401367 255.0314636230469 M 113.0816116333008 255.033203125 C 112.1923599243164 255.3652038574219 111.3247680664062 255.7469177246094 110.4822082519531 256.1799011230469 C 110.7014236450195 255.8357238769531 110.9206924438477 255.4915466308594 111.1398696899414 255.1473693847656 C 111.1613082885742 255.11376953125 111.1752319335938 255.0801086425781 111.1832427978516 255.0469970703125 C 111.8159942626953 255.0419006347656 112.448860168457 255.037109375 113.0816116333008 255.033203125 M 106.0624465942383 255.3110046386719 C 105.6536254882812 255.4608154296875 105.2448654174805 255.6106567382812 104.8362274169922 255.7607421875 C 104.994987487793 255.5668640136719 105.1537551879883 255.3729553222656 105.3125915527344 255.1790161132812 C 105.3272552490234 255.1611022949219 105.3391036987305 255.1424560546875 105.3490524291992 255.1234130859375 C 106.2127914428711 255.1085815429688 107.0764999389648 255.0948791503906 107.9402542114258 255.082763671875 C 107.3825912475586 255.3243408203125 106.8398208618164 255.5951538085938 106.3129425048828 255.8961181640625 C 106.3413848876953 255.8466796875 106.3697891235352 255.7972412109375 106.3982238769531 255.747802734375 C 106.5191040039062 255.5375366210938 106.3150787353516 255.2184143066406 106.0624465942383 255.3110046386719 M 108.9236679077148 255.0697326660156 C 109.2765502929688 255.0653381347656 109.6294479370117 255.0613708496094 109.9823684692383 255.0577697753906 C 109.4562835693359 255.3268432617188 108.9303283691406 255.5960998535156 108.404411315918 255.8654174804688 C 108.5542984008789 255.6948852539062 108.7042236328125 255.5243530273438 108.8541412353516 255.3538513183594 C 108.9223098754883 255.2762756347656 108.9418334960938 255.1687316894531 108.9236679077148 255.0697326660156 M 95.88502502441406 255.2803649902344 C 96.22584533691406 255.2763366699219 96.56661224365234 255.2720336914062 96.90737915039062 255.2673950195312 C 96.51040649414062 255.4263610839844 96.13303375244141 255.6198425292969 95.77272796630859 255.8470458984375 C 95.81208038330078 255.703857421875 95.85146331787109 255.5606384277344 95.89081573486328 255.4174194335938 C 95.90303802490234 255.3729553222656 95.89962768554688 255.3252258300781 95.88502502441406 255.2803649902344 M 93.44482421875 255.3025207519531 C 93.81909942626953 255.3002319335938 94.19335174560547 255.2974243164062 94.56760406494141 255.2940368652344 C 94.08048248291016 255.5667114257812 93.59513092041016 255.8422546386719 93.11042022705078 256.1189880371094 C 93.21617126464844 255.8901977539062 93.32185363769531 255.661376953125 93.42756652832031 255.4325866699219 C 93.44855499267578 255.38720703125 93.45253753662109 255.3428955078125 93.44482421875 255.3025207519531 M 95.07353210449219 255.2893981933594 C 95.11800384521484 255.2889709472656 95.16236114501953 255.2886352539062 95.20679473876953 255.2881774902344 C 95.17022705078125 255.3081359863281 95.13426208496094 255.3288269042969 95.09862518310547 255.3500061035156 C 95.09291076660156 255.3286437988281 95.08432769775391 255.3083190917969 95.07353210449219 255.2893981933594 M 92.51615142822266 255.7727966308594 C 92.55561828613281 255.6265563964844 92.61686706542969 255.5908508300781 92.72776794433594 255.5030517578125 C 92.80229949951172 255.4440612792969 92.84683990478516 255.3594970703125 92.85736846923828 255.272216796875 C 92.8966064453125 255.2932739257812 92.94401550292969 255.3056945800781 93.00022888183594 255.305419921875 C 93.01200103759766 255.3053588867188 93.02381134033203 255.3052368164062 93.03566741943359 255.30517578125 C 92.86704254150391 255.6471557617188 92.69850158691406 255.9890747070312 92.52996063232422 256.3310241699219 C 92.52902221679688 256.3245239257812 92.52837371826172 256.3182678222656 92.52744293212891 256.3117065429688 C 92.50196838378906 256.1339721679688 92.46852874755859 255.9493408203125 92.51615142822266 255.7727966308594 M 102.7081756591797 255.2971496582031 C 102.077751159668 255.5296936035156 101.4715347290039 255.8099365234375 100.8907241821289 256.1388854980469 C 100.9675903320312 255.9654846191406 101.0334320068359 255.7857666015625 101.0877838134766 255.5985412597656 C 101.1409530639648 255.4154357910156 100.9572448730469 255.2154541015625 100.768196105957 255.2789001464844 C 100.1220626831055 255.4956359863281 99.5262451171875 255.8034057617188 98.98397064208984 256.200439453125 C 98.89912414550781 256.0087585449219 98.73757934570312 255.840576171875 98.52584838867188 255.7481079101562 C 98.17631530761719 255.5955200195312 97.86476898193359 255.7057800292969 97.60318756103516 255.9198608398438 C 97.63062286376953 255.7514038085938 97.65808868408203 255.5829162597656 97.68561553955078 255.4144897460938 C 97.69430541992188 255.3611755371094 97.68765258789062 255.3061828613281 97.66905975341797 255.2566833496094 C 99.86893463134766 255.2241516113281 102.0688781738281 255.1815185546875 104.2687911987305 255.1423034667969 C 103.7892303466797 255.4240417480469 103.321403503418 255.7234802246094 102.8652496337891 256.0403137207031 C 102.926872253418 255.9044799804688 102.9830093383789 255.7651672363281 103.0329513549805 255.6219177246094 C 103.0964584350586 255.4397888183594 102.892822265625 255.2290649414062 102.7081756591797 255.2971496582031 M 116.4229049682617 255.0183410644531 C 116.5367202758789 255.0179748535156 116.650520324707 255.0175476074219 116.7644119262695 255.0172424316406 C 116.6440505981445 255.0635375976562 116.524528503418 255.1117553710938 116.406135559082 255.1630249023438 C 116.4136276245117 255.1153259277344 116.4191513061523 255.0670471191406 116.4229049682617 255.0183410644531 M 124.6493453979492 255.1043090820312 C 123.4383773803711 255.5201416015625 122.2277297973633 255.9368591308594 121.0175247192383 256.3546447753906 C 121.2761459350586 256.0239868164062 121.5346755981445 255.6932983398438 121.7932815551758 255.3625793457031 C 121.8680038452148 255.2670288085938 121.8986892700195 255.1363525390625 121.8847274780273 255.0157165527344 C 123.6813888549805 255.0193481445312 125.4780197143555 255.0274963378906 127.2746658325195 255.0391845703125 C 126.5253677368164 255.375244140625 125.7759170532227 255.7109985351562 125.0262222290039 256.0462646484375 C 125.0761947631836 255.9003601074219 125.1137008666992 255.7484741210938 125.1357955932617 255.5907897949219 C 125.1738967895508 255.319580078125 124.9671249389648 254.9951782226562 124.6493453979492 255.1043090820312 M 151.1389923095703 255.935791015625 C 150.4397125244141 255.9479370117188 149.8022918701172 256.2292175292969 149.2095947265625 256.58349609375 C 149.1637420654297 256.5469055175781 149.1119079589844 256.5138854980469 149.0532684326172 256.4855346679688 C 148.5803375244141 256.2566528320312 148.0259094238281 256.4767456054688 147.5567169189453 256.6043395996094 C 147.1268463134766 256.7212219238281 146.6968383789062 256.8373718261719 146.2667541503906 256.9534912109375 C 146.2639923095703 256.6099243164062 146.2066040039062 256.27001953125 146.0859680175781 255.9325561523438 C 146.0008697509766 255.6943969726562 145.7745971679688 255.5432739257812 145.5172576904297 255.6096801757812 C 144.4866333007812 255.8755798339844 143.4938201904297 256.2480163574219 142.5481719970703 256.7268981933594 C 142.4036407470703 256.17431640625 141.9150238037109 255.6908874511719 141.3090515136719 255.5872802734375 C 140.6700744628906 255.47802734375 140.0411987304688 255.740478515625 139.5020446777344 256.0605773925781 C 138.9709777832031 256.3758850097656 138.3900756835938 256.8948364257812 137.7467193603516 256.9645690917969 C 137.6662139892578 256.234130859375 136.9766540527344 255.647216796875 136.2332305908203 255.5383911132812 C 135.6326751708984 255.4505310058594 135.0926971435547 255.6677551269531 134.6139526367188 256.0026245117188 C 134.6141510009766 255.896240234375 134.6096649169922 255.7888793945312 134.599365234375 255.6803588867188 C 134.5715179443359 255.386962890625 134.3355255126953 255.1743469238281 134.0314331054688 255.2477111816406 C 133.1329803466797 255.4644165039062 132.2659301757812 255.7842102050781 131.4463195800781 256.1997375488281 C 131.5182037353516 255.96337890625 131.5686492919922 255.718017578125 131.5968017578125 255.4660339355469 C 131.6228790283203 255.2328491210938 131.4521789550781 255.1025695800781 131.2597503662109 255.0712280273438 C 139.0368957519531 255.1457214355469 146.8130340576172 255.287353515625 154.5884246826172 255.463623046875 C 154.02978515625 255.8512573242188 153.47119140625 256.2389526367188 152.9125518798828 256.6266174316406 C 152.4609527587891 256.1570434570312 151.8022613525391 255.9242553710938 151.1389923095703 255.935791015625 M 159.0493316650391 255.6816101074219 C 159.0158233642578 255.6723937988281 158.9973907470703 255.6618347167969 158.9880828857422 255.6518859863281 C 159.0113983154297 255.6248168945312 159.0305023193359 255.5968017578125 159.0457153320312 255.5681762695312 C 159.2360229492188 255.57275390625 159.4262542724609 255.5775146484375 159.6165466308594 255.5821228027344 C 159.4910888671875 255.6690673828125 159.3473052978516 255.7563171386719 159.2295532226562 255.7514038085938 C 159.1561126708984 255.7483215332031 159.1156616210938 255.6998596191406 159.0493316650391 255.6816101074219 M 166.0211791992188 256.3263244628906 C 166.013427734375 256.1318969726562 165.8884124755859 255.9472961425781 165.6940460205078 255.8966674804688 C 165.2208557128906 255.7734069824219 164.7938537597656 255.9073181152344 164.3833618164062 256.1534729003906 C 164.1875457763672 256.2709655761719 164.0063934326172 256.42431640625 163.7904052734375 256.5042724609375 C 163.6849212646484 256.5433044433594 163.5983581542969 256.5640869140625 163.4895324707031 256.5424194335938 C 163.4548034667969 256.5354614257812 163.4424133300781 256.5258178710938 163.4413757324219 256.5162658691406 C 163.4362030029297 256.5191040039062 163.4307556152344 256.5221557617188 163.4245910644531 256.525390625 C 163.4303741455078 256.5223083496094 163.4356842041016 256.518798828125 163.4412536621094 256.5154724121094 C 163.4403839111328 256.4953918457031 163.4882965087891 256.4761962890625 163.487548828125 256.4837646484375 C 163.7834167480469 256.2447509765625 163.6187591552734 255.6531677246094 163.1980895996094 255.6893615722656 C 162.7856903076172 255.7247924804688 162.3732299804688 255.7602844238281 161.9608306884766 255.7957458496094 C 161.9438781738281 255.7417602539062 161.9219818115234 255.6891174316406 161.8952026367188 255.638427734375 C 162.4356994628906 255.6519165039062 162.9762268066406 255.6654663085938 163.5166778564453 255.67919921875 C 166.2600250244141 255.7489013671875 169.0037994384766 255.8227233886719 171.7475128173828 255.9017944335938 C 171.6009063720703 255.9182739257812 171.4545135498047 255.9393005371094 171.3195495605469 255.9949645996094 C 171.1233825683594 256.075927734375 170.9351501464844 256.2113952636719 170.7500610351562 256.315673828125 C 170.4417266845703 256.4893798828125 170.1340026855469 256.6641540527344 169.8263092041016 256.8390502929688 C 169.6773223876953 256.6178283691406 169.5282135009766 256.3966064453125 169.3795166015625 256.1752014160156 C 169.2131805419922 255.9275207519531 168.9164276123047 255.8976745605469 168.6926879882812 256.086669921875 C 168.2234802246094 256.4830627441406 167.6663665771484 256.9792785644531 167.0213775634766 257.0226440429688 C 166.6005401611328 257.0509033203125 166.0401000976562 256.8025512695312 166.0211791992188 256.3263244628906 M 167.8333435058594 257.7131042480469 C 168.2185211181641 257.5509643554688 168.5763702392578 257.3028259277344 168.9092712402344 257.0381164550781 C 169.0444641113281 257.2378845214844 169.1798400878906 257.4374389648438 169.3144836425781 257.6375732421875 C 169.3170623779297 257.641357421875 169.3199157714844 257.6448364257812 169.3226013183594 257.6485595703125 C 168.8691253662109 257.6651306152344 168.4158172607422 257.6838684082031 167.9629211425781 257.7067565917969 C 167.9197235107422 257.7089538574219 167.8765411376953 257.7109375 167.8333435058594 257.7131042480469" fill="#2e79d9" stroke="none" stroke-width="0"/>
</svg>