<svg xmlns="http://www.w3.org/2000/svg" width="2" height="4" viewBox="36.40265274047852 88.52200317382812 2.1570167541503906 3.7560653686523438" fill="none">
  <path d="M 38.55105209350586 88.52200317382812 C 38.11964797973633 89.07405853271484 37.8017578125 89.68914794921875 37.4557991027832 90.29587554931641 C 37.13076782226562 90.86566162109375 36.65848922729492 91.32537841796875 36.42063140869141 91.94343566894531 C 36.40265274047852 91.98898315429688 36.42727661132812 92.27806854248047 36.49597549438477 92.1790771484375 C 36.53537368774414 92.12220001220703 36.57501602172852 92.06507110595703 36.61417007446289 92.00819396972656 C 36.62697601318359 91.98996734619141 36.6378059387207 91.87078857421875 36.59693145751953 91.87694549560547 C 36.5513801574707 91.88409423828125 36.50582504272461 91.89098358154297 36.46002960205078 91.89812469482422 C 36.47209167480469 91.99144744873047 36.48391342163086 92.08525848388672 36.49597549438477 92.1790771484375 C 36.79712295532227 91.60756683349609 37.20119094848633 91.10894012451172 37.51514053344727 90.54678344726562 C 37.88055419921875 89.89253997802734 38.17258834838867 89.20209503173828 38.55966949462891 88.55942535400391 L 38.55105209350586 88.52200317382812 Z" fill="#2777df" stroke="none" stroke-width="0"/>
</svg>