<svg xmlns="http://www.w3.org/2000/svg" width="74" height="47" viewBox="0.9433413743972778 0 73.60418975353241 46.5230712890625" fill="none">
  <path d="M 41.15042877197266 0.194066658616066 C 40.49765014648438 0.2646363377571106 37.7277946472168 0.6174848675727844 34.95793151855469 1.023260593414307 C 32.22335815429688 1.411393880844116 29.22414207458496 1.817169666290283 28.34202194213867 1.940666437149048 C 25.81915473937988 2.22294545173645 19.92658805847168 3.757835865020752 18.55047607421875 4.428247928619385 C 15.16313457489014 6.174848079681396 12.83433246612549 8.203727722167969 11.42294120788574 10.72659301757812 C 10.41732025146484 12.52612018585205 7.418109893798828 20.04179382324219 6.324279308319092 23.53499221801758 C 6.006715297698975 24.59353828430176 4.859957218170166 27.48689460754395 3.766128540039062 29.95683288574219 C 1.349116444587708 35.54948425292969 0.9433413743972778 37.22550964355469 1.649037003517151 38.68983459472656 C 2.337092399597168 40.08358764648438 3.836696147918701 40.78928375244141 5.212806701660156 40.31293869018555 C 6.483059406280518 39.90716171264648 7.276970863342285 39.0250358581543 7.982666969299316 37.24315643310547 L 8.529582023620605 35.81412124633789 L 8.90007495880127 37.24315643310547 C 9.094139099121094 38.03706359863281 9.341135025024414 38.81333160400391 9.394061088562012 38.9897575378418 C 9.69398307800293 39.64252471923828 11.56408023834229 42.48295211791992 11.56408023834229 42.25360107421875 C 11.56408023834229 42.11246871948242 11.91692733764648 42.34181976318359 12.35798835754395 42.78287506103516 C 13.39888954162598 43.80613708496094 16.87444686889648 45.4821662902832 19.18560409545898 46.08200836181641 C 20.5440731048584 46.39957809448242 21.99074935913086 46.5230712890625 24.05491256713867 46.43485641479492 C 26.80713081359863 46.34664916992188 27.19526481628418 46.2584342956543 29.3476390838623 45.16460418701172 C 32.20571517944336 43.71792221069336 34.25223541259766 41.93604278564453 35.13435745239258 40.10123062133789 C 35.68127059936523 39.0250358581543 35.82241058349609 38.10763549804688 35.9459114074707 35.16135025024414 C 36.03411865234375 32.81491088867188 35.96355438232422 31.36822700500488 35.73419952392578 30.96245384216309 C 35.43427658081055 30.39789772033691 35.48720932006836 30.32732582092285 36.65160751342773 30.15089988708496 C 37.35730361938477 30.06268692016602 40.02130508422852 30.04504585266113 42.61474609375 30.06268692016602 C 47.237060546875 30.15089988708496 47.36055755615234 30.15089988708496 49.53057098388672 29.26877975463867 C 51.11839294433594 28.6336555480957 52.15929412841797 27.98088073730469 53.35897445678711 26.79884147644043 L 54.98208236694336 25.21102333068848 L 58.06950378417969 25.52858734130859 C 59.78082275390625 25.74029541015625 64.05029296875 25.89907836914062 67.54349517822266 25.89907836914062 C 72.81857299804688 25.89907836914062 73.96533203125 25.79322242736816 74.2652587890625 25.44037437438965 C 74.45932006835938 25.21102333068848 74.54753112792969 24.80524826049805 74.42403411865234 24.55825233459473 C 74.31817626953125 24.20540428161621 73.61248016357422 24.1171932220459 70.70148468017578 24.1171932220459 C 67.331787109375 24.1171932220459 67.13771057128906 24.09955024719238 67.50820159912109 23.58791923522949 C 67.89633941650391 23.12921714782715 67.89633941650391 23.12921714782715 67.31414031982422 23.58791923522949 C 66.97893524169922 23.88784027099609 66.34380340576172 24.1171932220459 65.86746215820312 24.1171932220459 C 65.03826141357422 24.1171932220459 65.03826141357422 24.1171932220459 65.60282135009766 23.49970817565918 C 66.16738128662109 22.86458015441895 66.16738128662109 22.86458015441895 65.51461029052734 23.21742820739746 C 65.16175842285156 23.39385223388672 64.77362823486328 23.67613220214844 64.68541717529297 23.83491325378418 C 64.59720611572266 24.01133728027344 63.89151000976562 24.1171932220459 63.13288879394531 24.1171932220459 C 62.0743408203125 24.1171932220459 61.82733917236328 24.02898025512695 62.1801872253418 23.79962921142578 C 62.55068588256836 23.53499221801758 62.51539611816406 23.49970817565918 62.0390510559082 23.67613220214844 C 61.72149658203125 23.76434326171875 61.06871795654297 23.94076919555664 60.57473373413086 24.02898025512695 C 59.74553298950195 24.20540428161621 59.71025466918945 24.18776321411133 60.13367462158203 23.67613220214844 C 60.53944396972656 23.18214416503906 60.53944396972656 23.14686012268066 59.92196273803711 23.48206520080566 C 59.51619338989258 23.71141624450684 58.65170669555664 23.76434326171875 57.48730850219727 23.62320518493652 C 56.00534439086914 23.48206520080566 55.72306823730469 23.35856819152832 55.86420440673828 22.97043609619141 C 55.98770141601562 22.59994316101074 55.91713333129883 22.59994316101074 55.59956741333008 23.0057201385498 C 55.38785934448242 23.30564117431641 54.94679641723633 23.53499221801758 54.64687728881836 23.53499221801758 C 54.36459732055664 23.53499221801758 53.30605697631836 24.32890129089355 52.33572387695312 25.29923439025879 C 50.97725296020508 26.62241554260254 50.09513092041016 27.22225952148438 48.56024169921875 27.80445861816406 C 46.65485763549805 28.51015853881836 46.3020133972168 28.54544258117676 40.76229476928711 28.51015853881836 C 34.42866134643555 28.4748706817627 34.05817031860352 28.54544258117676 32.55856323242188 29.42756271362305 C 31.99400520324707 29.74512672424316 31.64115715026855 29.83333587646484 31.7646541595459 29.65691375732422 C 31.87050819396973 29.44520568847656 30.97074317932129 30.23911285400391 29.75341606140137 31.38587188720703 C 27.31876182556152 33.74995422363281 26.66599273681641 33.96166610717773 25.55451965332031 32.81491088867188 C 24.69004058837891 31.95042991638184 24.63711547851562 31.56229400634766 25.30752754211426 30.83895683288574 C 25.78387069702148 30.30968475341797 25.78387069702148 30.30968475341797 25.28988075256348 30.48611068725586 C 24.84882354736328 30.66253280639648 24.81353759765625 30.53903579711914 24.98996353149414 29.83333587646484 C 25.57216262817383 27.45161056518555 26.36607360839844 26.53420257568359 30.3532600402832 23.8525562286377 C 31.81757926940918 22.88222503662109 33.45832824707031 21.68253707885742 33.98760223388672 21.2061939239502 C 34.51687240600586 20.74748992919922 35.78712844848633 19.88300895690918 36.82803344726562 19.30081176757812 C 37.81600570678711 18.7186107635498 38.64519882202148 18.15405464172363 38.64519882202148 18.06584167480469 C 38.64519882202148 17.99527168273926 37.88656997680664 18.33047866821289 36.93388366699219 18.80682373046875 C 35.29314041137695 19.61837577819824 35.20492553710938 19.65365791320801 34.86972045898438 19.12438774108887 C 34.58744049072266 18.64804267883301 34.28752136230469 18.59511566162109 33.05255126953125 18.73625373840332 C 32.25864028930664 18.82446670532227 31.58822822570801 18.82446670532227 31.58822822570801 18.73625373840332 C 31.58822822570801 18.63039970397949 32.29392623901367 18.0834846496582 33.1054801940918 17.50128364562988 C 33.9699592590332 16.93672561645508 34.49922943115234 16.47802352905273 34.32280349731445 16.47802352905273 C 34.14638519287109 16.47802352905273 33.08783721923828 17.09550857543945 32.02928924560547 17.81884765625 C 30.88253402709961 18.59511566162109 29.78870391845703 19.12438774108887 29.43585586547852 19.07145881652832 C 28.95951080322266 19.00089073181152 29.17121696472168 18.73625373840332 30.52968597412109 17.8541316986084 C 31.46473121643066 17.23664855957031 32.17042922973633 16.65444755554199 32.08221817016602 16.58387756347656 C 32.02928924560547 16.49566650390625 31.0589542388916 17.06022262573242 29.92983818054199 17.80120277404785 C 28.46551895141602 18.73625373840332 27.60103797912598 19.12438774108887 26.87770080566406 19.08910369873047 L 25.83679962158203 19.08910369873047 L 27.5481128692627 18.20697975158691 C 28.46551895141602 17.73063659667969 29.22414207458496 17.28957557678223 29.22414207458496 17.20136260986328 C 29.22414207458496 17.06022262573242 27.98917388916016 17.50128364562988 27.07176971435547 17.99527168273926 C 26.71892166137695 18.18933868408203 26.1720027923584 18.36576271057129 25.83679962158203 18.4186897277832 C 25.51923370361328 18.45397567749023 24.77824974060059 18.55982971191406 24.23133850097656 18.68332672119141 L 23.19043350219727 18.85975074768066 L 24.01962471008301 18.3834056854248 C 24.4959774017334 18.11876678466797 25.11345863342285 17.64242362976074 25.43102264404297 17.32485961914062 C 25.7309455871582 17.02493667602539 26.13671875 16.76030158996582 26.34843063354492 16.76030158996582 C 26.52485466003418 16.76030158996582 26.61306381225586 16.67208862304688 26.48957061767578 16.58387756347656 C 26.40135383605957 16.47802352905273 25.30752754211426 16.93672561645508 24.07255363464355 17.62478065490723 C 21.16155624389648 19.24788284301758 20.5793571472168 19.07145881652832 23.40214538574219 17.41307258605957 C 24.58418655395508 16.74266052246094 25.39573669433594 16.17810249328613 25.25460052490234 16.17810249328613 C 25.07817459106445 16.17810249328613 23.89613151550293 16.76030158996582 22.64352226257324 17.50128364562988 C 19.6090202331543 19.21259880065918 18.39169311523438 19.30081176757812 20.77342224121094 17.62478065490723 C 21.69082641601562 16.97201156616211 22.46709632873535 16.35452461242676 22.46709632873535 16.30159950256348 C 22.46709632873535 16.12517356872559 20.06772613525391 17.64242362976074 19.39731407165527 18.27755165100098 C 18.6386890411377 19.00089073181152 18.25055885314941 18.98324775695801 18.47990989685059 18.20697975158691 C 18.6386890411377 17.76592063903809 18.6034049987793 17.64242362976074 18.37405204772949 17.76592063903809 C 18.19762992858887 17.88941764831543 18.03884506225586 18.20697975158691 18.03884506225586 18.50690269470215 C 18.03884506225586 18.80682373046875 17.84478187561035 19.21259880065918 17.59778785705566 19.42430686950684 C 17.227294921875 19.74187088012695 17.1920108795166 19.65365791320801 17.33314895629883 18.85975074768066 C 17.45664596557617 18.24226570129395 17.42136192321777 17.94234466552734 17.1920108795166 17.94234466552734 C 16.98030281066895 17.94234466552734 16.89209175109863 18.06584167480469 17.01558876037598 18.20697975158691 C 17.10379791259766 18.36576271057129 16.96265983581543 18.7186107635498 16.69802284240723 18.94796371459961 C 16.43338775634766 19.21259880065918 16.36281585693359 19.42430686950684 16.57452583312988 19.42430686950684 C 16.75095176696777 19.42430686950684 16.80387687683105 19.5654468536377 16.71566772460938 19.70658683776855 C 16.60981178283691 19.88300895690918 16.45102882385254 20.3593578338623 16.39810371398926 20.80041885375977 C 16.30989074707031 21.24147605895996 15.55126285552979 22.52937316894531 14.72207164764404 23.65848922729492 C 13.85759258270264 24.80524826049805 12.79904842376709 26.26956748962402 12.35798835754395 26.92233848571777 C 11.91692733764648 27.57510566711426 11.24651622772217 28.4748706817627 10.80545520782471 28.98650169372559 L 10.06447315216064 29.86862373352051 L 10.22325325012207 28.42194175720215 C 10.32910823822021 27.59275054931641 10.54081726074219 26.86941146850586 10.71724224090576 26.74591445922852 C 10.92895221710205 26.62241554260254 10.94659423828125 26.39306640625 10.8583812713623 26.21663856506348 C 10.75253009796143 26.04021644592285 10.80545520782471 25.10516929626465 11.017165184021 24.1171932220459 C 11.19358730316162 23.14686012268066 11.28180027008057 22.26473808288574 11.15830326080322 22.15888595581055 C 11.07009029388428 22.0706729888916 10.8936653137207 22.38823699951172 10.80545520782471 22.88222503662109 C 10.68195915222168 23.39385223388672 10.41732025146484 23.97605323791504 10.22325325012207 24.1524772644043 C 9.976260185241699 24.32890129089355 9.799838066101074 24.64646530151367 9.799838066101074 24.84053230285645 C 9.799838066101074 25.0169563293457 9.9586181640625 24.94638633728027 10.13504028320312 24.7170352935791 C 10.36439514160156 24.38182830810547 10.39967918395996 24.47004127502441 10.27618217468262 25.15809631347656 C 10.18796920776367 25.61679840087891 10.01154708862305 26.88705444335938 9.923334121704102 27.94559860229492 C 9.711625099182129 30.00976181030273 8.988284111022949 31.73871994018555 8.564866065979004 31.10359191894531 C 8.423727035522461 30.89188385009766 8.335514068603516 31.03302192687988 8.335514068603516 31.54465293884277 C 8.335514068603516 32.44441604614258 7.153474807739258 35.03784942626953 6.853552341461182 34.86142730712891 C 6.747697830200195 34.80850219726562 6.65948486328125 35.12606811523438 6.62420129776001 35.6376953125 C 6.588914394378662 36.69623947143555 5.565654754638672 38.46048355102539 4.807031631469727 38.68983459472656 C 4.471824169158936 38.77804565429688 3.94255256652832 38.72511672973633 3.589704990386963 38.5486946105957 C 3.06043004989624 38.24877548217773 2.972217082977295 38.01942443847656 3.095716953277588 36.80209732055664 C 3.1839280128479 36.00818252563477 3.501492023468018 34.80850219726562 3.836696147918701 34.10280227661133 C 4.154260158538818 33.3971061706543 4.73646068572998 32.03863906860352 5.124595642089844 31.10359191894531 C 5.653867244720459 29.74512672424316 5.86557674407959 29.51577186584473 6.041998863220215 29.92154884338379 C 6.183140754699707 30.2743968963623 6.236066341400146 30.13325881958008 6.218424320220947 29.42756271362305 C 6.183140754699707 28.86300659179688 6.412491798400879 27.92795562744141 6.712410926818848 27.36339950561523 C 7.012332916259766 26.79884147644043 7.682747840881348 25.06988334655762 8.212018013000488 23.53499221801758 C 10.71724224090576 16.14281845092773 12.42855548858643 12.06741714477539 13.80466651916504 10.19732093811035 C 14.91614246368408 8.680072784423828 18.03884506225586 6.492412090301514 20.35000228881836 5.592648029327393 C 22.39652442932129 4.781096935272217 28.0773868560791 3.581411600112915 31.42944526672363 3.228563547134399 C 33.05255126953125 3.052139282226562 35.43427658081055 2.734575510025024 36.73982238769531 2.487581729888916 C 38.02771377563477 2.293514966964722 39.35090255737305 2.117090702056885 39.66846084594727 2.081805944442749 C 40.00366592407227 2.081805944442749 41.78555679321289 1.993593811988831 43.6556510925293 1.870096802711487 C 46.61957168579102 1.693672657012939 47.09591674804688 1.76424241065979 47.46641159057617 2.205302953720093 C 47.8369026184082 2.61107873916626 47.8369026184082 2.734575510025024 47.44876861572266 2.999212026596069 C 47.11355972290039 3.228563547134399 47.14884948730469 3.263848304748535 47.58990859985352 3.105066537857056 C 48.26032257080078 2.875715017318726 49.53057098388672 4.057757377624512 53.53540802001953 8.591859817504883 C 55.08793258666992 10.35610294342041 56.56989669799805 11.76749610900879 56.83453369140625 11.76749610900879 C 57.13446044921875 11.76749610900879 57.50495147705078 11.90863609313965 57.71665954589844 12.12034511566162 C 57.98129653930664 12.38498115539551 58.06950378417969 12.38498115539551 58.06950378417969 12.12034511566162 C 58.06950378417969 11.94392013549805 58.51057434082031 11.73221206665039 59.03983688354492 11.64400005340576 C 60.8393669128418 11.37936305999756 67.93161773681641 10.26789093017578 68.81375122070312 10.10910892486572 C 69.43122863769531 10.00325298309326 69.13130187988281 10.23260498046875 67.89633941650391 10.81480503082275 C 65.77924346923828 11.85570812225342 63.53865814208984 13.23181819915771 63.71508026123047 13.40824222564697 C 63.80329132080078 13.47881126403809 65.03826141357422 12.86132621765137 66.52023315429688 12.06741714477539 C 67.98454284667969 11.20293807983398 69.99578857421875 10.37374496459961 71.05433654785156 10.14439296722412 L 72.92443084716797 9.703332901000977 L 71.31896209716797 9.826828956604004 L 69.69586181640625 9.932684898376465 L 70.84262084960938 9.579834938049316 C 72.20108795166016 9.174059867858887 72.81857299804688 8.433078765869141 72.289306640625 7.903806209564209 C 71.9893798828125 7.621527671813965 71.28368377685547 7.709739208221436 69.04309844970703 8.203727722167969 C 67.45527648925781 8.556575775146484 64.19142913818359 9.174059867858887 61.75677490234375 9.579834938049316 L 57.32852554321289 10.28553295135498 L 56.00534439086914 8.768284797668457 C 55.26436614990234 7.903806209564209 53.09434509277344 5.592648029327393 51.15367126464844 3.581411600112915 L 47.58990859985352 0 L 44.97883224487305 0.05292727053165436 C 43.49686431884766 0.08821211755275726 41.78555679321289 0.1411393880844116 41.15042877197266 0.194066658616066 M 15.03963947296143 42.65937805175781 C 14.45743656158447 42.65937805175781 11.86399841308594 39.69545364379883 11.86399841308594 39.0250358581543 C 11.8992862701416 38.68983459472656 12.07570838928223 37.5430793762207 12.3050594329834 36.48453140258789 L 12.69319438934326 34.57915115356445 L 12.60498142242432 37.22550964355469 L 12.48148441314697 39.87187957763672 L 12.88726139068604 36.78445434570312 C 13.09896755218506 35.07313919067383 13.2224645614624 32.63848495483398 13.13425445556641 31.33294296264648 C 13.01075839996338 29.44520568847656 13.06368732452393 28.86300659179688 13.45181560516357 28.38665771484375 C 14.12223052978516 27.57510566711426 16.69802284240723 23.92312622070312 17.66835594177246 22.441162109375 C 18.10941886901855 21.77075004577637 18.72690200805664 21.10033798217773 19.07975006103516 20.92391395568848 C 19.97951698303223 20.48285484313965 24.72532844543457 20.5004940032959 24.93703460693359 20.94155693054199 C 25.07817459106445 21.24147605895996 25.13110542297363 21.24147605895996 25.28988075256348 20.94155693054199 C 25.37809753417969 20.76513290405273 25.83679962158203 20.58870887756348 26.31314468383789 20.58870887756348 C 26.78948783874512 20.58870887756348 27.15998077392578 20.74748992919922 27.15998077392578 20.94155693054199 C 27.15998077392578 21.2061939239502 27.26583290100098 21.24147605895996 27.40697479248047 21.01212501525879 C 27.63632583618164 20.62399482727051 31.99400520324707 20.48285484313965 31.7646541595459 20.85334587097168 C 31.58822822570801 21.11798286437988 27.42461585998535 23.67613220214844 27.19526481628418 23.67613220214844 C 26.78948783874512 23.67613220214844 24.42540168762207 26.51656341552734 23.89613151550293 27.59275054931641 C 23.01401138305664 29.35699272155762 22.96108245849609 32.51498794555664 23.79027366638184 33.60881805419922 C 24.4959774017334 34.54386520385742 25.43102264404297 35.02021026611328 26.63070487976074 35.02021026611328 L 27.5481128692627 35.02021026611328 L 27.33640670776367 38.16056442260742 C 27.26583290100098 39.9248046875 27.07176971435547 41.98897171020508 27.00119781494141 42.81816482543945 C 26.89534378051758 43.78849792480469 26.93062973022461 44.1413459777832 27.1070556640625 43.8414192199707 C 27.26583290100098 43.61206817626953 27.45990371704102 42.02425003051758 27.58340072631836 40.34822082519531 C 27.84803199768066 35.86704635620117 27.98917388916016 35.24956130981445 28.99479103088379 34.45565032958984 C 29.47113609313965 34.06752014160156 29.91219902038574 33.83816909790039 29.96512603759766 33.89109420776367 C 30.05333518981934 33.97930526733398 29.91219902038574 35.65533828735352 29.66520690917969 37.68421173095703 C 28.94186592102051 43.89434814453125 29.04771995544434 43.48857116699219 27.5481128692627 44.15898513793945 C 26.40135383605957 44.68825912475586 25.74858474731445 44.75882720947266 22.78466033935547 44.67061614990234 C 19.97951698303223 44.58240127563477 19.04446601867676 44.42362213134766 17.59778785705566 43.8414192199707 L 15.8335428237915 43.10044479370117 M 12.62262344360352 31.685791015625 C 12.39327239990234 34.19101715087891 11.3700122833252 39.46610260009766 11.29944133758545 38.24877548217773 C 11.29944133758545 37.84299850463867 11.38765430450439 37.0138053894043 11.54643821716309 36.43160629272461 C 11.68757629394531 35.77883529663086 11.68757629394531 35.3730583190918 11.54643821716309 35.47891235351562 C 11.38765430450439 35.5671272277832 11.28180027008057 35.28484725952148 11.29944133758545 34.80850219726562 C 11.29944133758545 34.06752014160156 11.33472919464111 34.04987335205078 11.59936332702637 34.57915115356445 C 11.81107330322266 35.02021026611328 11.82871532440186 34.8967170715332 11.74050521850586 34.04987335205078 C 11.65229320526123 33.45003509521484 11.72286033630371 32.95604705810547 11.86399841308594 32.95604705810547 C 12.00514030456543 32.95604705810547 12.09335327148438 32.60319900512695 12.04042434692383 32.12685394287109 C 11.95221138000488 31.2800178527832 12.35798835754395 29.42756271362305 12.65790748596191 29.42756271362305 C 12.74611949920654 29.42756271362305 12.74611949920654 30.4508228302002 12.62262344360352 31.685791015625 M 11.29944133758545 33.04426193237305 C 11.12301635742188 34.06752014160156 11.03480625152588 35.302490234375 11.15830326080322 35.77883529663086 C 11.24651622772217 36.25518035888672 11.19358730316162 36.96087646484375 11.017165184021 37.36665344238281 C 10.75253009796143 37.98413848876953 10.71724224090576 37.89592742919922 10.84073925018311 36.78445434570312 C 10.94659423828125 35.77883529663086 10.92895221710205 35.6376953125 10.71724224090576 36.18461227416992 L 10.45260429382324 36.92559051513672 L 10.36439514160156 36.04347229003906 C 10.22325325012207 34.31451416015625 10.45260429382324 32.25034713745117 10.8936653137207 31.56229400634766 C 11.56408023834229 30.53903579711914 11.68757629394531 30.92716789245605 11.29944133758545 33.04426193237305 M 34.05817031860352 31.36822700500488 C 34.14638519287109 31.63286590576172 34.23459243774414 33.25596618652344 34.23459243774414 34.94964218139648 C 34.23459243774414 38.24877548217773 33.75825119018555 39.96009063720703 32.64677429199219 40.87749099731445 C 32.13514709472656 41.28326797485352 32.13514709472656 41.15977096557617 32.31156921386719 38.81333160400391 C 32.43506622314453 37.45486068725586 32.64677429199219 35.39070129394531 32.75263214111328 34.27922821044922 C 32.99962615966797 32.16213607788086 32.87612915039062 31.42115592956543 32.43506622314453 32.09156799316406 C 32.22335815429688 32.42677307128906 32.17042922973633 32.42677307128906 32.17042922973633 32.03863906860352 C 32.17042922973633 31.77400398254395 32.47035217285156 31.42115592956543 32.84084320068359 31.24473190307617 C 33.72296524047852 30.80367279052734 33.84645843505859 30.83895683288574 34.05817031860352 31.36822700500488 M 31.87050819396973 33.00897598266602 C 31.87050819396973 33.78524017333984 31.78229331970215 33.89109420776367 31.55294227600098 33.53824615478516 C 31.3235912322998 33.22068405151367 31.28830909729004 33.34417724609375 31.42944526672363 34.04987335205078 C 31.67643928527832 35.16135025024414 31.02367210388184 42.11246871948242 30.67082405090332 42.48295211791992 C 30.28269004821777 42.9063720703125 30.3532600402832 42.28889083862305 30.88253402709961 38.68983459472656 C 31.11188316345215 36.97851943969727 31.28830909729004 35.302490234375 31.23538017272949 34.93199920654297 C 31.1648120880127 34.57915115356445 30.88253402709961 36.21989440917969 30.54732704162598 38.60162353515625 C 30.19447708129883 41.33619689941406 29.87691307067871 42.95930099487305 29.64756202697754 42.95930099487305 C 29.40056800842285 42.95930099487305 29.38292694091797 42.51824188232422 29.55935096740723 41.49497985839844 C 29.66520690917969 40.66578674316406 29.92983818054199 38.42519760131836 30.14155006408691 36.48453140258789 C 30.4591121673584 33.22068405151367 30.61789512634277 32.81491088867188 31.37652015686035 32.9207649230957 C 31.5000171661377 32.9207649230957 31.58822822570801 32.74433898925781 31.58822822570801 32.51498794555664 C 31.58822822570801 32.26799392700195 31.64115715026855 32.07392501831055 31.72936820983887 32.07392501831055 C 31.81757926940918 32.07392501831055 31.87050819396973 32.51498794555664 31.87050819396973 33.00897598266602 M 12.95783233642578 33.74995422363281 C 12.86961936950684 34.04987335205078 12.79904842376709 33.87345123291016 12.79904842376709 33.3971061706543 C 12.79904842376709 32.90311813354492 12.86961936950684 32.69141387939453 12.95783233642578 32.86783599853516 C 13.01075839996338 33.07954406738281 13.01075839996338 33.48532104492188 12.95783233642578 33.74995422363281 M 31.55294227600098 41.90075302124023 C 31.28830909729004 42.13010787963867 31.25302314758301 41.98897171020508 31.41180610656738 41.23034286499023 C 31.5000171661377 40.70106887817383 31.60587120056152 39.69545364379883 31.64115715026855 39.0250358581543 C 31.67643928527832 38.24877548217773 31.72936820983887 38.47812652587891 31.78229331970215 39.69545364379883 C 31.87050819396973 40.89513778686523 31.78229331970215 41.68904495239258 31.55294227600098 41.90075302124023" fill="#ff4d16" stroke="none" stroke-width="0"/>
</svg>