<svg xmlns="http://www.w3.org/2000/svg" width="1" height="2" viewBox="256.4875183105469 265.0687255859375 1 1.8189697265625" fill="none">
  <path d="M 257.2833251953125 265.2198791503906 C 257.3445129394531 265.0687255859375 257.2900695800781 265.5281066894531 257.384033203125 265.2198791503906 C 257.4392700195312 265.2326354980469 257.4184265136719 265.3205871582031 257.4855346679688 265.3214416503906 C 257.4759216308594 265.3789367675781 257.4347839355469 265.349365234375 257.4347839355469 265.3214416503906 C 257.0286560058594 265.8073120117188 257.2452697753906 265.7489318847656 257.2322998046875 266.2308959960938 C 257.1465759277344 266.2289123535156 257.1014709472656 266.2684020996094 257.0808410644531 266.3315734863281 C 257.1026306152344 266.4068603515625 257.1457214355469 266.3118591308594 257.2322998046875 266.3315734863281 C 257.0802612304688 266.5845642089844 257.2807922363281 266.60205078125 257.0303649902344 266.7870483398438 C 256.9717102050781 266.77880859375 256.9880676269531 266.6954040527344 256.9804382324219 266.6355895996094 C 256.9046325683594 266.7452697753906 256.6902770996094 266.7153930664062 256.6767272949219 266.8876953125 C 256.4974060058594 266.8820495605469 256.7839050292969 266.7213134765625 256.6257019042969 266.7362670898438 C 256.6341247558594 266.6772766113281 256.71875 266.6936645507812 256.7779846191406 266.6854858398438 C 256.6135864257812 266.4373168945312 256.916748046875 266.0960998535156 256.7272033691406 265.8772888183594 C 256.68603515625 265.8868713378906 256.6767272949219 265.9280395507812 256.6257019042969 265.9271545410156 C 256.6361389160156 265.9849853515625 256.6767272949219 265.9562377929688 256.6767272949219 265.9271545410156 C 256.7117309570312 266.2283935546875 256.4875183105469 265.8876953125 256.7272033691406 265.7257995605469 C 256.7472229003906 265.9017944335938 256.8674011230469 265.7918090820312 256.8281860351562 265.5236206054688 C 256.8907775878906 265.5456237792969 256.9322509765625 265.5876770019531 256.9296569824219 265.6750183105469 C 257.0303649902344 265.5907287597656 256.9931640625 265.6787109375 257.1318969726562 265.6750183105469 C 257.1327514648438 265.4474792480469 256.8656921386719 265.6291198730469 257.0303649902344 265.3721923828125 C 257.0994567871094 265.4209899902344 257.0966491699219 265.5419311523438 257.1817932128906 265.5735473632812 C 257.2314453125 265.5724487304688 257.2210083007812 265.5120849609375 257.2322998046875 265.4728698730469 C 257.2229919433594 265.4153137207031 257.1817932128906 265.4446411132812 257.1817932128906 265.4728698730469 C 257.0165405273438 265.3831481933594 257.2413330078125 265.2672729492188 257.2833251953125 265.2198791503906 M 256.9296569824219 265.9779357910156 C 257.0534362792969 265.9107971191406 256.8383483886719 265.8256530761719 256.9804382324219 265.7757263183594 C 256.9830017089844 265.8067321777344 256.9869384765625 265.8360290527344 257.0303649902344 265.8267517089844 C 257.0224914550781 265.7666931152344 257.038818359375 265.6832885742188 256.9804382324219 265.6750183105469 C 256.89501953125 265.7319946289062 256.7300415039062 265.9285583496094 256.9296569824219 265.9779357910156" fill="#2777df" stroke="none" stroke-width="0"/>
</svg>