<svg xmlns="http://www.w3.org/2000/svg" width="1" height="1" viewBox="398.9465637207031 125.3239974975586 1 1" fill="none">
  <path d="M 399.3751831054688 125.7783203125 C 399.3156433105469 125.7030181884766 399.2288208007812 125.6548080444336 399.2237548828125 125.5262069702148 C 399.04296875 125.7089385986328 399.3537292480469 125.8304901123047 399.4250793457031 125.9308776855469 C 399.410400390625 126.0507354736328 399.2891845703125 125.8742065429688 399.27392578125 125.8290939331055 C 399.1842956542969 125.8660202026367 399.2669067382812 125.9207229614258 399.27392578125 125.9805145263672 C 399.264404296875 126.0383377075195 399.2229309082031 126.008430480957 399.2237548828125 125.9805145263672 C 399.1961059570312 125.9032516479492 399.1704406738281 125.9771270751953 399.1729736328125 126.0312805175781 C 399.1179809570312 126.0188598632812 399.1382751464844 125.9308776855469 399.0714721679688 125.9308776855469 C 399.3038635253906 125.8640518188477 398.9465637207031 125.3911209106445 399.0714721679688 125.3239974975586 C 399.2133178710938 125.3437423706055 399.1126403808594 125.5563888549805 399.3751831054688 125.4246826171875 C 399.1834411621094 125.6432342529297 399.433837890625 125.4280700683594 399.3751831054688 125.7783203125" fill="#2777df" stroke="none" stroke-width="0"/>
</svg>