<svg xmlns="http://www.w3.org/2000/svg" width="20" height="19" viewBox="27.97099876403809 22.73200035095215 19.906465530395497 19.155839920043938" fill="none">
  <path d="M 27.97099876403809 39.7812614440918 C 28.0128231048584 39.79080200195312 28.07592391967773 39.32707595825195 28.07592391967773 39.32707595825195 C 28.0876636505127 39.32927703857422 28.4266529083252 41.0689811706543 28.4266529083252 41.0689811706543 C 28.6878662109375 41.129150390625 29.2205638885498 37.62919616699219 29.2205638885498 37.62919616699219 L 29.08335304260254 41.48648452758789 C 29.64466857910156 41.61561965942383 33.41317749023438 22.73200035095215 33.41317749023438 22.73200035095215 C 34.26065063476562 22.92790985107422 28.84342002868652 41.402099609375 29.80462455749512 41.62442779541016 C 30.94486045837402 41.88784027099609 33.769775390625 23.13922882080078 34.05666732788086 23.20526504516602 C 34.29586791992188 23.26102828979492 29.14865684509277 41.32065963745117 30.55304336547852 41.64496994018555 C 30.55304336547852 41.64496994018555 34.24744415283203 23.57433700561523 34.70089721679688 23.67926406860352 L 31.32787704467773 41.54958343505859 C 31.38217163085938 41.56205749511719 35.34439086914062 24.15252685546875 35.34439086914062 24.15252685546875 C 35.34439086914062 24.15252685546875 31.32860946655273 41.27589797973633 32.10271072387695 41.45420074462891 C 32.10271072387695 41.45420074462891 35.31210708618164 24.46950531005859 35.98788070678711 24.62579154968262 C 37.03053283691406 24.8664608001709 32.87827682495117 41.35954666137695 32.87827682495117 41.35954666137695 C 34.09188842773438 41.63983535766602 36.20507049560547 25.00000190734863 36.63211059570312 25.09905624389648 C 37.72171783447266 25.35073089599609 33.58853912353516 41.24948501586914 33.65311050415039 41.26415634155273 C 34.09996032714844 41.36761856079102 37.27560043334961 25.57232093811035 37.27560043334961 25.57232093811035 C 37.57497024536133 25.64129447937012 33.11894607543945 40.86647033691406 34.42794418334961 41.16877365112305 C 34.45582580566406 41.17537689208984 37.91982650756836 26.04558563232422 37.91982650756836 26.04558563232422 L 35.20277786254883 41.07411956787109 C 35.30990219116211 41.09833145141602 38.56332397460938 26.51885032653809 38.56332397460938 26.51885032653809 C 38.56332397460938 26.51885032653809 34.83517074584961 40.7145881652832 35.97834396362305 40.97873306274414 C 36.5491943359375 41.11080551147461 39.37777709960938 26.25323486328125 39.37777709960938 26.25323486328125 C 40.140869140625 26.42933464050293 36.753173828125 40.88334655761719 36.753173828125 40.88334655761719 C 37.14499664306641 40.97359466552734 40.47472381591797 24.76300239562988 40.47472381591797 24.76300239562988 C 40.63101196289062 24.7989559173584 37.52800750732422 40.78796005249023 37.52800750732422 40.78796005249023 L 41.53791809082031 23.41878318786621 C 41.59808731079102 23.43199157714844 37.52654266357422 40.5135383605957 38.30284118652344 40.69330596923828 C 38.30284118652344 40.69330596923828 41.40364456176758 22.87508010864258 42.36558151245117 23.09667015075684 C 42.36558151245117 23.09667015075684 38.12087631225586 40.3770637512207 39.07841110229492 40.59791946411133 C 39.34255981445312 40.65882110595703 42.28413772583008 23.33293724060059 43.02448272705078 23.50389862060547 C 43.96514511108398 23.7210865020752 38.84948348999023 40.27140426635742 39.85324478149414 40.50253295898438 C 39.93909454345703 40.52234649658203 42.42428207397461 24.35577392578125 43.52269744873047 24.60891723632812 L 40.62807846069336 40.40787887573242 C 41.22607803344727 40.54582214355469 43.55204772949219 25.66990852355957 44.00623321533203 25.77483367919922 C 44.07960510253906 25.79171180725098 40.19149780273438 40.03293609619141 41.40291213989258 40.31249618530273 C 41.40291213989258 40.31249618530273 43.35393524169922 26.67807388305664 44.49050521850586 26.94075393676758 C 44.79940795898438 27.01192665100098 42.17040634155273 40.21564102172852 42.1784782409668 40.21710586547852 C 42.63193130493164 40.3220329284668 44.8214225769043 28.07071685791016 44.97404098510742 28.10667037963867 C 44.97404098510742 28.10667037963867 42.5064582824707 40.01899719238281 42.95331192016602 40.12245178222656 L 45.45831298828125 29.2718563079834 L 43.7391471862793 39.98084259033203 C 44.07960510253906 40.05935287475586 45.94184875488281 30.43777656555176 45.94184875488281 30.43777656555176 L 44.58368682861328 39.58241653442383 C 44.8096809387207 39.63451385498047 46.29697799682617 31.57361030578613 46.42612075805664 31.60369491577148 C 46.45620346069336 31.61029815673828 44.9446907043457 38.79511260986328 45.48986053466797 38.92131805419922 C 45.77822494506836 38.98808670043945 46.9096565246582 32.76961135864258 46.9096565246582 32.76961135864258 L 46.4495964050293 38.02614974975586 C 46.59854888916016 38.06063461303711 47.39392852783203 33.93479537963867 47.39392852783203 33.93479537963867 L 47.49151611328125 36.77511596679688 C 47.62945938110352 36.80666732788086 47.79454803466797 35.08163833618164 47.87746429443359 35.10071563720703" fill="none" stroke="#2777df" stroke-width="0.30000001192092896"/>
</svg>