<svg xmlns="http://www.w3.org/2000/svg" width="1" height="2" viewBox="183.7090301513672 170.4880065917969 1.2129058837890057 1.7185516357421875" fill="none">
  <path d="M 184.1134185791016 171.8529357910156 C 184.1216125488281 171.9118499755859 184.2056427001953 171.8955078125 184.2648620605469 171.9036712646484 C 184.2727355957031 172.0294494628906 184.1856079101562 172.0599060058594 184.1633453369141 172.1558074951172 C 184.0468597412109 172.0991058349609 184.2352447509766 171.9603729248047 184.0626373291016 171.9036712646484 C 183.9879302978516 171.9510650634766 184.1173706054688 172.1312713623047 183.9619903564453 171.9535980224609 C 183.8139495849609 172.0353851318359 183.9422454833984 172.1140594482422 183.8604583740234 172.2065582275391 C 183.8201446533203 172.1800537109375 183.7786712646484 172.1540985107422 183.7090301513672 172.1558074951172 C 183.8365020751953 171.9434509277344 183.8835906982422 171.5556945800781 184.1134185791016 171.4992828369141 C 184.2538604736328 171.2875061035156 184.0821075439453 171.3416442871094 184.214111328125 171.0948944091797 C 184.2595062255859 171.1174468994141 184.3049011230469 171.1394500732422 184.3156127929688 171.1955871582031 C 184.3071594238281 170.9713745117188 184.6712341308594 170.6713256835938 184.8209686279297 170.4880065917969 C 184.8621520996094 170.5311584472656 184.7933349609375 170.8515167236328 184.9219360351562 170.9431762695312 C 184.8644104003906 170.9699554443359 184.7019653320312 171.0587921142578 184.7197418212891 171.2968139648438 C 184.6706695556641 171.2956848144531 184.6805267333984 171.235595703125 184.6695251464844 171.1955871582031 C 184.6263885498047 171.1868133544922 184.6216125488281 171.2153167724609 184.6187744140625 171.246337890625 C 184.4986267089844 171.2310943603516 184.6745910644531 171.1098327636719 184.7197418212891 171.0948944091797 C 184.7098693847656 171.0534515380859 184.6689758300781 171.0449829101562 184.6695251464844 170.9939117431641 C 184.5634765625 170.9722290039062 184.5350189208984 171.0286407470703 184.4673309326172 171.0438537597656 C 184.4757995605469 171.1873779296875 184.5598449707031 171.2545166015625 184.5677642822266 171.3974761962891 C 184.2538604736328 171.1834259033203 184.5197906494141 171.3072357177734 184.4673309326172 171.4992828369141 C 184.4199523925781 171.4623565673828 184.390625 171.4076385498047 184.3658294677734 171.3478546142578 C 184.0919952392578 171.4347076416016 184.31787109375 171.7545013427734 184.1134185791016 171.8529357910156" fill="#2777df" stroke="none" stroke-width="0"/>
</svg>