<svg xmlns="http://www.w3.org/2000/svg" width="8" height="6" viewBox="2422.207275390625 344.9472961425781 8.46435546875 6.158233642578068" fill="none">
  <path d="M 2430.42724609375 345.1865844726562 C 2430.2998046875 344.9472961425781 2429.9541015625 345.0237731933594 2429.877685546875 345.2584228515625 C 2429.754638671875 345.6361694335938 2429.775146484375 346.0893859863281 2429.76953125 346.4834594726562 C 2429.763671875 346.8906555175781 2429.747802734375 347.2961730957031 2429.704833984375 347.7013854980469 C 2429.640869140625 348.3108215332031 2429.531982421875 348.981689453125 2429.0546875 349.4084167480469 C 2428.62744140625 349.7906188964844 2428.0224609375 349.9495849609375 2427.479736328125 350.0812683105469 C 2426.730712890625 350.2628784179688 2425.973388671875 350.3592834472656 2425.205078125 350.4090270996094 C 2424.761474609375 350.4377746582031 2424.319091796875 350.4463195800781 2423.874755859375 350.4383850097656 C 2423.408935546875 350.4301452636719 2422.930908203125 350.3738708496094 2422.47412109375 350.4669799804688 C 2422.207275390625 350.5213317871094 2422.2431640625 350.8987121582031 2422.47412109375 350.9720153808594 C 2422.89453125 351.1055297851562 2423.361572265625 351.0790710449219 2423.80078125 351.0686950683594 C 2424.23193359375 351.0585021972656 2424.66357421875 351.0367431640625 2425.094482421875 351.0125427246094 C 2425.525634765625 350.9883422851562 2425.953857421875 350.9407348632812 2426.384033203125 350.9055480957031 C 2426.782470703125 350.8730163574219 2427.180419921875 350.8489990234375 2427.57666015625 350.796630859375 C 2428.277099609375 350.7040100097656 2428.9599609375 350.5090637207031 2429.52099609375 350.0636901855469 C 2430.1171875 349.5901489257812 2430.40673828125 348.8842163085938 2430.520751953125 348.1499938964844 C 2430.59716796875 347.6597595214844 2430.64306640625 347.1642456054688 2430.6572265625 346.6683959960938 C 2430.671630859375 346.1885070800781 2430.657958984375 345.6196594238281 2430.42724609375 345.1865844726562" fill="#2e79d9" stroke="none" stroke-width="0"/>
</svg>