<svg xmlns="http://www.w3.org/2000/svg" width="1" height="2" viewBox="258.0044250488281 270.4970397949219 1.2994689941406818 2.196533203125" fill="none">
  <path d="M 259.2531433105469 272.3670043945312 C 259.2308654785156 272.2925720214844 259.1882629394531 272.3878784179688 259.1016845703125 272.3670043945312 C 259.1112670898438 272.3267211914062 259.1524963378906 272.3174133300781 259.1524963378906 272.2666015625 C 258.955322265625 272.2841186523438 259.1738891601562 272.5948791503906 259.0509033203125 272.5192565917969 C 258.6403503417969 272.3368530273438 258.7951965332031 271.9916687011719 258.4443359375 271.8619384765625 C 258.5551452636719 271.7570190429688 258.4003601074219 271.6989440917969 258.4948120117188 271.6087036132812 C 258.4062805175781 271.7195434570312 258.2540283203125 271.4747619628906 258.3433837890625 271.4078979492188 C 258.3030700683594 271.4332275390625 258.2615966796875 271.4595031738281 258.1919555664062 271.4575500488281 C 258.3411560058594 271.3021545410156 258.1868896484375 271.1244812011719 258.2926330566406 270.9521484375 C 258.271484375 270.8768615722656 258.2280578613281 270.9722290039062 258.1412048339844 270.9521484375 C 258.1042175292969 270.7973937988281 258.2280578613281 270.8035583496094 258.1919555664062 270.6493225097656 C 258.1429138183594 270.6507263183594 258.1524353027344 270.7111206054688 258.1412048339844 270.7499694824219 C 258.0044250488281 270.7040405273438 258.1928100585938 270.5731506347656 258.1919555664062 270.4970397949219 C 258.235107421875 270.5892028808594 258.3219299316406 270.6369323730469 258.3433837890625 270.7499694824219 C 258.3022155761719 270.7404174804688 258.2926330566406 270.69921875 258.2418823242188 270.69921875 C 258.2339172363281 270.9916687011719 258.7393493652344 270.991943359375 258.6465454101562 271.2054443359375 C 258.5893249511719 271.1960754394531 258.6188659667969 271.1546630859375 258.6465454101562 271.1546630859375 C 258.6239929199219 271.0810852050781 258.6025695800781 271.1594543457031 258.5456237792969 271.1546630859375 C 258.6894226074219 271.3545837402344 258.6084594726562 271.2581787109375 258.747802734375 271.2054443359375 L 258.747802734375 271.4078979492188 L 258.6465454101562 271.4078979492188 C 258.7051696777344 271.5618896484375 258.6231384277344 271.568359375 258.798828125 271.4575500488281 C 258.83154296875 271.5621643066406 258.7866821289062 271.5618896484375 258.6970520019531 271.8111877441406 C 258.7833251953125 271.8142700195312 258.8278503417969 271.773681640625 258.8484497070312 271.7107849121094 C 259.0078125 271.8159790039062 258.8785705566406 271.9160766601562 258.9502563476562 272.0644226074219 C 259.1084594726562 271.9310302734375 259.1000061035156 272.2886657714844 259.3038940429688 272.2666015625 C 259.2435607910156 272.4442749023438 259.229736328125 272.4324340820312 259.2032470703125 272.5694885253906 C 259.2782287597656 272.6935729980469 259.0416259765625 272.4002990722656 259.2531433105469 272.3670043945312" fill="#2777df" stroke="none" stroke-width="0"/>
</svg>