<svg xmlns="http://www.w3.org/2000/svg" width="1" height="1" viewBox="433.9963684082031 238.2360229492188 1 1" fill="none">
  <path d="M 434.0920104980469 238.5397338867188 C 434.1478271484375 238.3330078125 434.2462463378906 238.5972595214844 434.3948669433594 238.5904846191406 C 434.5370178222656 238.4689331054688 434.2975463867188 238.4542999267578 434.2944641113281 238.2360229492188 C 434.4458923339844 238.3039703369141 434.5332946777344 238.4342651367188 434.4966735839844 238.6911926269531 C 434.5415344238281 238.66015625 434.5869140625 238.6299591064453 434.5973510742188 238.6911926269531 C 434.6763000488281 238.6691741943359 434.639892578125 238.5321197509766 434.7995300292969 238.5904846191406 C 434.8348083496094 238.7935333251953 434.5869140625 238.7140350341797 434.5973510742188 238.8933715820312 C 434.4216613769531 238.8304748535156 434.5042724609375 238.7467498779297 434.4458923339844 238.6401062011719 C 434.3968200683594 238.6937255859375 434.1489562988281 238.6392669677734 434.2433776855469 238.741943359375 C 434.1331481933594 238.9179077148438 433.9963684082031 238.4359588623047 434.2433776855469 238.6401062011719 C 434.2211608886719 238.5780792236328 434.1791381835938 238.5371856689453 434.0920104980469 238.5397338867188" fill="#2777df" stroke="none" stroke-width="0"/>
</svg>