<svg xmlns="http://www.w3.org/2000/svg" width="1" height="1" viewBox="296.0755920410156 148.9810180664062 1 1" fill="none">
  <path d="M 296.2865295410156 149.2339782714844 C 296.390869140625 149.1332855224609 296.3338623046875 149.1332855224609 296.438232421875 149.2339782714844 C 296.4224548339844 149.3027801513672 296.3116455078125 149.2757110595703 296.2366027832031 149.2844543457031 C 296.2924194335938 149.3840179443359 296.225341796875 149.5064086914062 296.3372802734375 149.3349304199219 C 296.5129699707031 149.4973602294922 296.0755920410156 149.7201538085938 296.3372802734375 149.8403015136719 C 296.3192138671875 149.9195404052734 296.2475891113281 149.7965698242188 296.2366027832031 149.8910369873047 C 296.1610412597656 149.8476257324219 296.1274719238281 149.7632904052734 296.1350402832031 149.6380920410156 C 296.2467346191406 149.666015625 296.2075500488281 149.5410766601562 296.2865295410156 149.5374145507812 C 296.2710266113281 149.4683227539062 296.1602172851562 149.4951324462891 296.0840454101562 149.4866485595703 C 296.2193603515625 149.3608551025391 296.1714782714844 149.2026519775391 296.2865295410156 148.9810180664062 C 296.3271179199219 149.0080871582031 296.3680419921875 149.0337371826172 296.438232421875 149.0317993164062 C 296.4173583984375 149.1293640136719 296.2425537109375 149.0718231201172 296.2865295410156 149.2339782714844" fill="#2777df" stroke="none" stroke-width="0"/>
</svg>