<svg xmlns="http://www.w3.org/2000/svg" width="1" height="4" viewBox="659.4835205078125 280.3253173828125 1.48046875 4.0052490234375" fill="none">
  <path d="M 660.9639892578125 280.6709594726562 C 660.7974853515625 280.480224609375 660.55517578125 280.4159545898438 660.3370361328125 280.4623413085938 C 660.2696533203125 280.47705078125 660.2042236328125 280.5023803710938 660.1441650390625 280.537109375 C 660.0303955078125 280.603515625 659.9345703125 280.7056884765625 659.87548828125 280.8406372070312 L 659.8365478515625 280.93017578125 C 659.6646728515625 281.3231811523438 659.58251953125 281.7446899414062 659.5867919921875 282.167236328125 C 659.5888671875 282.3242797851562 659.6026611328125 282.4822998046875 659.62890625 282.6383056640625 C 659.644775390625 282.7278442382812 659.6636962890625 282.8173828125 659.6878662109375 282.9058837890625 C 659.7069091796875 282.980712890625 659.72900390625 283.0545043945312 659.75537109375 283.127197265625 L 660.1441650390625 284.240966796875 L 660.1600341796875 284.287353515625 C 660.146240234375 284.3010864257812 660.132568359375 284.3158569335938 660.118896484375 284.33056640625 L 660.0894775390625 284.2452392578125 L 659.6563720703125 283.007080078125 C 659.6109619140625 282.8795776367188 659.5751953125 282.7489013671875 659.5499267578125 282.6172485351562 C 659.54248046875 282.5845336914062 659.5362548828125 282.5518798828125 659.531005859375 282.5181274414062 C 659.5108642578125 282.400146484375 659.4971923828125 282.2831420898438 659.491943359375 282.1640625 C 659.4898681640625 282.1251220703125 659.4876708984375 282.0850219726562 659.4876708984375 282.0460815429688 C 659.4835205078125 281.62353515625 659.5667724609375 281.2020263671875 659.7374267578125 280.8090209960938 L 659.777587890625 280.7194213867188 C 659.8670654296875 280.5128784179688 660.0430908203125 280.38330078125 660.238037109375 280.3411254882812 C 660.2432861328125 280.340087890625 660.2496337890625 280.3390502929688 660.2548828125 280.3390502929688 C 660.2569580078125 280.3380126953125 660.2579345703125 280.3369140625 660.2601318359375 280.3380126953125 C 660.3033447265625 280.3295288085938 660.3475341796875 280.3253173828125 660.392822265625 280.3274536132812 C 660.455078125 280.3284912109375 660.518310546875 280.3390502929688 660.5782470703125 280.3580322265625 C 660.665771484375 280.3875122070312 660.748046875 280.4348754882812 660.8206787109375 280.5023803710938 C 660.838623046875 280.5192260742188 660.85546875 280.537109375 660.8724365234375 280.55712890625 C 660.9039306640625 280.5940551757812 660.9344482421875 280.6319580078125 660.9639892578125 280.6709594726562" fill="#a21822" stroke="none" stroke-width="0"/>
</svg>