<svg xmlns="http://www.w3.org/2000/svg" width="1" height="1" viewBox="90.33100891113281 297.2645568847656 1 1" fill="none">
  <path d="M 90.43224334716797 297.465087890625 C 90.53744506835938 297.5755920410156 90.59523773193359 297.4205017089844 90.68491363525391 297.5152893066406 C 90.63388061523438 297.44873046875 90.63698577880859 297.3277282714844 90.533203125 297.3139343261719 C 90.60004425048828 297.2645568847656 90.69902801513672 297.2910461425781 90.83635711669922 297.3139343261719 C 90.80647277832031 297.4746704101562 90.931396484375 297.4698181152344 90.83635711669922 297.5657348632812 C 90.69902801513672 297.6018371582031 90.87274169921875 297.3280334472656 90.73512268066406 297.3638610839844 C 90.63388061523438 297.4932556152344 90.83409881591797 297.8246459960938 90.58367919921875 297.9703979492188 C 90.64234161376953 298.0400390625 90.78504180908203 298.1669616699219 90.78588104248047 298.0211486816406 C 90.94098663330078 298.0702209472656 90.76359558105469 298.1912536621094 90.73512268066406 298.2233581542969 C 90.65699768066406 298.1664428710938 90.63021087646484 298.0584411621094 90.48244476318359 298.0716857910156 C 90.52869415283203 297.8988342285156 90.55886840820312 297.7090454101562 90.63388061523438 297.5657348632812 C 90.42095947265625 297.607177734375 90.49005126953125 297.8133850097656 90.48244476318359 297.9193420410156 C 90.37640380859375 297.9633483886719 90.42095947265625 297.7242736816406 90.33100891113281 297.5657348632812 C 90.50105285644531 297.65966796875 90.33692932128906 297.5527954101562 90.43224334716797 297.465087890625" fill="#2777df" stroke="none" stroke-width="0"/>
</svg>