<svg xmlns="http://www.w3.org/2000/svg" width="6" height="5" viewBox="3.428987503051758 54.69944381713867 5.868734359741211 4.813606262207031" fill="none">
  <path d="M 9.167430877685547 57.0486946105957 C 8.782150268554688 55.72739791870117 7.35853099822998 54.69944381713867 5.978874206542969 54.74660110473633 C 5.308230400085449 54.76897811889648 4.638385772705078 55.03755569458008 4.193953990936279 55.55393600463867 C 3.823861122131348 55.98397445678711 3.600046634674072 56.51153945922852 3.515316486358643 57.07187271118164 C 3.428987503051758 57.64980697631836 3.517714500427246 58.2389030456543 3.633618354797363 58.80884170532227 C 3.692769527435303 59.10458755493164 3.941363334655762 59.5130500793457 4.29307222366333 59.50825119018555 C 4.667161464691162 59.50345993041992 4.85020923614502 59.04304122924805 4.865396499633789 58.73050308227539 C 4.876587867736816 58.4707145690918 4.875788688659668 58.21173477172852 4.902166366577148 57.95194625854492 C 4.904565334320068 57.92157363891602 4.909360885620117 57.89199447631836 4.912558078765869 57.86162185668945 C 4.911758422851562 57.86881637573242 4.892574310302734 57.98791885375977 4.906963348388672 57.90478897094727 C 4.91655445098877 57.84723281860352 4.923748016357422 57.78967666625977 4.934939384460449 57.73212814331055 C 4.950127124786377 57.65139389038086 4.966114521026611 57.57146072387695 4.977304935455322 57.48913192749023 C 5.007679462432861 57.2645149230957 4.978103637695312 57.43478012084961 4.979702472686768 57.47473526000977 C 4.978103637695312 57.43877029418945 4.992492198944092 57.39640426635742 4.998086929321289 57.36123275756836 C 5.01887035369873 57.2501335144043 5.044448852539062 57.13981246948242 5.076422214508057 57.03110885620117 C 5.093208789825439 56.97835159301758 5.112392902374268 56.92639541625977 5.129978179931641 56.87443923950195 C 5.179536819458008 56.73295974731445 5.116389274597168 56.89761734008789 5.117189407348633 56.90481185913086 C 5.113991260528564 56.88322830200195 5.154757499694824 56.82727432250977 5.165148735046387 56.8080940246582 C 5.18912935256958 56.76093673706055 5.217105388641357 56.71377182006836 5.245082855224609 56.66901016235352 C 5.260269641876221 56.64662551879883 5.277854919433594 56.6258430480957 5.291443824768066 56.60266494750977 C 5.333808422088623 56.52433395385742 5.251477241516113 56.65541458129883 5.25307559967041 56.65061569213867 C 5.258671283721924 56.61625289916992 5.337806224822998 56.55550765991211 5.360986232757568 56.53071975708008 C 5.387364387512207 56.50514602661133 5.528847217559814 56.39483261108398 5.450512409210205 56.44758987426758 C 5.366581916809082 56.5035514831543 5.449712753295898 56.44999313354492 5.464900493621826 56.4420051574707 C 5.500869750976562 56.4204216003418 5.536041259765625 56.39803695678711 5.572012424468994 56.37644577026367 C 5.579205513000488 56.37245559692383 5.681520938873291 56.31730270385742 5.606383800506592 56.3548698425293 C 5.534442901611328 56.39004135131836 5.659139633178711 56.33649063110352 5.675126075744629 56.33088302612305 C 5.751062870025635 56.30611801147461 5.828598499298096 56.29092788696289 5.907732963562012 56.27334213256836 C 5.892545700073242 56.27653884887695 5.787034034729004 56.27893447875977 5.875759601593018 56.27893447875977 C 5.93331241607666 56.27812576293945 5.991663455963135 56.2717399597168 6.049215316772461 56.2717399597168 C 6.083586692810059 56.2717399597168 6.117959022521973 56.27334213256836 6.153929233551025 56.27493667602539 C 6.16831636428833 56.27573013305664 6.312197685241699 56.28852462768555 6.225869655609131 56.27812576293945 C 6.138741970062256 56.26694107055664 6.253845691680908 56.28372573852539 6.262639045715332 56.28612899780273 C 6.309000968933105 56.29571914672852 6.354562759399414 56.3053092956543 6.400924682617188 56.31730270385742 C 6.480858325958252 56.3372917175293 6.556795120239258 56.36925888061523 6.635929584503174 56.39004135131836 C 6.717462062835693 56.41242599487305 6.631133079528809 56.38604354858398 6.616744995117188 56.3796501159668 C 6.659110546112061 56.39882278442383 6.700675487518311 56.41881942749023 6.741442680358887 56.44040298461914 C 6.890918731689453 56.5179328918457 7.029203414916992 56.61065292358398 7.165889739990234 56.70817184448242 C 7.195465564727783 56.72895431518555 7.225040912628174 56.74894332885742 7.253817081451416 56.7689323425293 C 7.264208316802979 56.77612686157227 7.37531566619873 56.85764694213867 7.321762084960938 56.8168830871582 C 7.26261043548584 56.77212142944336 7.356133460998535 56.84486770629883 7.35853099822998 56.84726333618164 C 7.405691146850586 56.88643264770508 7.450453758239746 56.92480087280273 7.496015548706055 56.9655647277832 C 7.777382850646973 57.21655654907227 8.051556587219238 57.46115493774414 8.372889518737793 57.65938186645508 C 8.773358345031738 57.90718460083008 9.297721862792969 57.49712753295898 9.167430877685547 57.0486946105957" fill="#2473d8" stroke="none" stroke-width="0"/>
</svg>