<svg xmlns="http://www.w3.org/2000/svg" width="15" height="18" viewBox="19.02558898925781 11.200758934021 15.169021606445309 18.49826145172119" fill="none">
  <path d="M 28.83265686035156 11.57005310058594 C 25.6504955291748 12.64516162872314 22.56345367431641 14.51081562042236 20.42202949523926 17.13503646850586 C 19.72500610351562 17.98873138427734 20.93040657043457 19.21891021728516 21.64581489562988 18.35882377624512 C 22.41238021850586 17.43638801574707 23.3555965423584 16.56670951843262 24.61535453796387 16.47797966003418 C 24.48426055908203 15.99518489837646 24.35316848754883 15.5123815536499 24.22287750244141 15.02958393096924 C 22.86720085144043 15.91764736175537 21.52831077575684 16.91042518615723 20.26376152038574 17.92478561401367 C 19.29496383666992 18.70253753662109 19.02558898925781 19.94790458679199 20.11907958984375 20.76562690734863 C 21.20777702331543 21.57935333251953 22.8216381072998 21.69605827331543 24.06381034851074 22.20683288574219 C 25.32036972045898 22.7240047454834 26.47860717773438 23.57370376586914 26.76077270507812 24.97093963623047 C 27.21879577636719 24.61843299865723 27.67761421203613 24.26592445373535 28.1356315612793 23.91341781616211 C 26.55454254150391 22.97739601135254 25.32036972045898 21.70644569396973 24.47786712646484 20.06860733032227 C 24.0789966583252 20.46827507019043 23.68013000488281 20.86714172363281 23.28046035766602 21.26681518554688 C 26.76237487792969 23.13406562805176 29.76068496704102 25.91335868835449 32.03080749511719 29.13548851013184 C 32.31856536865234 28.63430213928223 32.60632705688477 28.13232421875 32.89408874511719 27.63113594055176 C 30.87416458129883 27.38493919372559 29.36581039428711 26.4073543548584 27.7255744934082 25.2858829498291 C 27.08051300048828 24.84464645385742 26.19244766235352 25.72551536560059 26.63927268981934 26.3721809387207 C 28.01893043518066 28.36652755737305 30.5384407043457 29.40566444396973 32.89408874511719 29.63027763366699 C 33.6110954284668 29.69902038574219 34.19461059570312 28.71343803405762 33.75737380981445 28.12592506408691 C 31.16831970214844 24.64641189575195 27.92380714416504 21.89988708496094 24.16452598571777 19.75526428222656 C 23.36359024047852 19.29804229736328 22.59862518310547 20.18850517272949 22.96631813049316 20.95267295837402 C 23.88555717468262 22.86069297790527 25.35233879089355 24.47375297546387 27.1908130645752 25.53047943115234 C 27.92780494689941 25.95412826538086 28.73513793945312 25.25790405273438 28.56647491455078 24.47295761108398 C 28.04290962219238 22.0445671081543 25.75840377807617 20.81039047241211 23.57621192932129 20.12136459350586 C 22.96791648864746 19.92952156066895 22.34922981262207 19.7696533203125 21.74493217468262 19.56582260131836 C 21.58985900878906 19.52265739440918 21.43878364562988 19.46750259399414 21.29170608520508 19.40115928649902 C 21.13264274597168 19.25168609619141 21.08467864990234 19.2724666595459 21.1478271484375 19.46350479125977 C 21.22536277770996 19.27966117858887 21.60345077514648 19.07262802124023 21.74093627929688 18.96392440795898 C 22.88398933410645 18.06386756896973 24.07100296020508 17.21017456054688 25.16449356079102 16.25017166137695 C 25.81355667114258 15.68104267120361 25.09255409240723 14.84893321990967 24.40832328796387 14.95125102996826 C 22.91676139831543 15.17346477508545 21.7968864440918 16.17263412475586 20.59708404541016 16.99995040893555 L 21.64581489562988 18.35882377624512 C 23.84559059143066 16.10149383544922 26.29796028137207 14.31257915496826 29.30666351318359 13.29102420806885 C 30.38816833496094 12.92332935333252 29.92535018920898 11.200758934021 28.83265686035156 11.57005310058594" fill="#2473d8" stroke="none" stroke-width="0"/>
</svg>