<svg xmlns="http://www.w3.org/2000/svg" width="37" height="29" viewBox="0.04024839401245117 0.8062973022460938 36.509701251983635 29.292625427246097" fill="none">
  <path d="M 0.5100767612457275 29.94534301757812 C 0.3001847267150879 29.87110137939453 0.1312482357025146 29.66890716552734 0.05189919471740723 29.38989639282227 C -0.04024839401245117 29.06226348876953 -0.09400033950805664 28.35068511962891 0.6559765338897705 27.31658172607422 C 5.409247398376465 20.80228042602539 12.27166843414307 15.14545440673828 21.04102516174316 10.49200248718262 C 23.66466522216797 9.091876983642578 26.38813591003418 7.650794982910156 29.28310203552246 6.752357482910156 C 29.82830238342285 6.578302383422852 30.28904151916504 6.632047653198242 30.82656669616699 6.685808181762695 C 31.13628578186035 6.719081878662109 31.45368003845215 6.752357482910156 31.79667472839355 6.74467658996582 C 31.98864936828613 6.734439849853516 32.15758514404297 6.757478713989258 32.28556442260742 6.806114196777344 C 32.40331268310547 6.849626541137695 32.4749870300293 6.923854827880859 32.4877815246582 6.985288619995117 C 32.48009872436523 7.082553863525391 32.34444427490234 7.259166717529297 32.02704620361328 7.412742614746094 C 30.87008094787598 7.978433609008789 29.7003173828125 8.523632049560547 28.55103492736816 9.073963165283203 C 19.50011444091797 13.37417221069336 10.96368503570557 17.43377304077148 4.277880668640137 25.24582672119141 C 3.709639310836792 25.91902542114258 3.361525774002075 26.76369857788086 3.023652791976929 27.57767105102539 C 2.383740186691284 29.14672470092773 1.912764310836792 30.09892272949219 0.6380589008331299 29.98373413085938 C 0.5996639728546143 29.97606658935547 0.5535907745361328 29.9658203125 0.5100767612457275 29.94534301757812 M 16.067626953125 27.3600959777832 L 15.98827743530273 27.22956848144531 C 17.31161689758301 25.34566116333008 21.24067878723145 22.73737335205078 24.81906700134277 20.4234504699707 C 29.43668174743652 17.45425415039062 33.70361709594727 15.64456939697266 36.54994964599609 15.42444229125977 C 34.49198913574219 16.6479606628418 32.36235809326172 18.03528594970703 30.29672050476074 19.37910842895508 C 25.58696365356445 22.44812774658203 20.7108325958252 25.61696624755859 16.067626953125 27.3600959777832 M 3.018536329269409 13.11309051513672 C 2.939185857772827 13.08749008178711 2.831680536270142 12.95694541931152 2.777926683425903 12.77009201049805 C 2.734413862228394 12.62676048278809 2.739531755447388 12.4808521270752 2.793286085128784 12.4194164276123 C 6.75050163269043 7.028804779052734 11.87748146057129 4.609935760498047 16.82528305053711 2.270408630371094 C 18.33291816711426 1.546037673950195 19.9019832611084 0.8062973022460938 21.54783630371094 -1.9073486328125e-06 C 21.67325973510742 0.05120277404785156 21.76028823852539 0.1663875579833984 21.73469352722168 0.2713241577148438 C 20.70315170288086 0.9470710754394531 19.55899238586426 1.415491104125977 18.46090126037598 1.868549346923828 C 16.12649917602539 2.82841682434082 13.71274757385254 3.826679229736328 12.11808967590332 6.688360214233398 C 10.85874080657959 7.351320266723633 9.62755012512207 8.293270111083984 8.442431449890137 9.207061767578125 C 7.958657264709473 9.585882186889648 7.46208667755127 9.967275619506836 6.978312492370605 10.32563400268555 C 6.576447486877441 10.60718727111816 6.177140235900879 10.95018196105957 5.772717475891113 11.31110000610352 C 4.917795181274414 12.07387351989746 4.024477958679199 12.84432220458984 3.051809549331665 13.12332344055176 C 3.046690702438354 13.12332344055176 3.039013147354126 13.12588691711426 3.018536329269409 13.11309051513672" fill="#2777df" stroke="none" stroke-width="0"/>
</svg>