<svg xmlns="http://www.w3.org/2000/svg" width="82" height="68" viewBox="0.1355986148118973 0.02081298828125 81.67171339690685 68.0267333984375" fill="none">
  <path d="M 24.35518646240234 67.05359649658203 C 24.55086517333984 66.95484161376953 24.6790714263916 66.89116668701172 24.83792495727539 66.811279296875 C 24.83182525634766 66.89781951904297 24.84907722473145 66.97581481933594 24.81962203979492 67.02483367919922 C 24.30911064147949 67.87150573730469 23.539794921875 68.04754638671875 22.61338424682617 67.92797088623047 C 20.33168029785156 67.63465881347656 18.17524147033691 66.96045684814453 16.03590965270996 66.11196136474609 C 13.45360851287842 65.08805847167969 10.78370952606201 64.28424072265625 8.152314186096191 63.38427352905273 C 6.014246940612793 62.65360641479492 3.919734239578247 61.83758163452148 2.001891851425171 60.60447692871094 C 1.026945114135742 59.97747039794922 0.6061347723007202 58.98407745361328 0.1355986148118973 58.04054641723633 C -0.2251760810613632 57.31850433349609 0.1631613671779633 56.56392288208008 0.9545649290084839 55.98404693603516 C 4.463279247283936 53.41220092773438 7.633944034576416 50.46189117431641 10.67071914672852 47.35688018798828 C 13.25238704681396 44.71749114990234 15.82297325134277 42.06961441040039 18.34089088439941 39.37026214599609 C 18.71877861022949 38.96466445922852 19.1268253326416 38.58986282348633 19.64820671081543 38.37013244628906 C 19.83476829528809 38.29165267944336 20.05386924743652 38.2082633972168 20.20844650268555 38.38549041748047 C 20.3636531829834 38.56342697143555 20.25627708435059 38.76534652709961 20.14153671264648 38.93647766113281 C 19.97713851928711 39.18067932128906 19.80475044250488 39.41878509521484 19.58074188232422 39.73713684082031 C 20.07407188415527 39.72352600097656 20.26918029785156 39.42671203613281 20.4887752532959 39.17205810546875 C 20.78018760681152 38.83519744873047 21.03667449951172 38.51251220703125 21.32135009765625 39.20698547363281 C 21.43174362182617 39.47699737548828 21.85079956054688 39.45175170898438 22.04156684875488 39.77150344848633 C 22.59065055847168 40.69230651855469 22.66121101379395 41.60581970214844 22.18268013000488 42.55495452880859 C 21.05750465393066 44.78504180908203 19.65319061279297 46.83543395996094 18.08749580383301 48.77339935302734 C 16.69973182678223 50.49184417724609 15.1978645324707 52.1103515625 13.65426254272461 53.69140625 C 13.25729942321777 54.09818267822266 12.70267200469971 54.35214996337891 12.41743278503418 55.01898574829102 C 13.13701725006104 54.80121994018555 13.79600524902344 54.63191223144531 14.43465518951416 54.40425872802734 C 17.66725158691406 53.25032806396484 21.00104904174805 52.42084503173828 24.2539119720459 51.33241271972656 C 32.79397201538086 48.47588729858398 40.72420883178711 44.43780517578125 47.91704177856445 39.01011657714844 C 51.72629165649414 36.13584899902344 55.35029983520508 33.0289421081543 58.72715377807617 29.65096282958984 C 64.07929992675781 24.29629135131836 69.03833770751953 18.60294723510742 73.31635284423828 12.34501266479492 C 75.10227203369141 9.732765197753906 76.80837249755859 7.060897827148438 77.65139770507812 3.952934265136719 C 77.8759765625 3.127731323242188 78.01162719726562 2.288490295410156 78.08820343017578 1.436843872070312 C 78.12572479248047 1.023391723632812 78.08518218994141 0.5539779663085938 78.50298309326172 0.28656005859375 C 78.91712188720703 0.02081298828125 79.37593841552734 -0.2791519165039062 79.6005859375 0.4945068359375 C 79.7257080078125 0.9264678955078125 80.2078857421875 0.716552734375 80.47110748291016 1.065055847167969 C 81.48526000976562 2.408073425292969 81.6920166015625 3.952239990234375 81.76256561279297 5.532588958740234 C 81.80731201171875 6.526538848876953 81.61901092529297 7.509975433349609 81.48526000976562 8.502105712890625 C 80.73804473876953 14.04389572143555 77.66676330566406 18.47523498535156 74.66366577148438 22.90292358398438 C 71.20838928222656 27.9981575012207 67.16965484619141 32.63688659667969 62.77865219116211 36.95608139038086 C 56.03440475463867 43.58930587768555 48.52315521240234 49.14532852172852 39.94444274902344 53.21659851074219 C 34.24246597290039 55.92267990112305 28.3343677520752 58.03192901611328 22.22504234313965 59.58969497680664 C 21.42803001403809 59.79273223876953 20.62007522583008 60.00678253173828 19.80538749694824 60.07012557983398 C 18.63602447509766 60.16093826293945 17.49549102783203 60.34553146362305 16.37578201293945 60.68366241455078 C 16.23530197143555 60.72650909423828 16.04635810852051 60.71311187744141 16.02307510375977 60.90072631835938 C 16.00035095214844 61.08910751342773 16.18683815002441 61.13883590698242 16.31624031066895 61.18484115600586 C 17.91391372680664 61.75412750244141 19.3249626159668 62.67633819580078 20.7746524810791 63.5260124206543 C 21.05505561828613 63.69097518920898 21.32626724243164 63.87873077392578 21.68395042419434 63.81560134887695 C 21.8311653137207 63.78916168212891 22.05321502685547 63.78495788574219 22.08330154418945 63.93645095825195 C 22.18822479248047 64.46408081054688 22.4648380279541 64.59901428222656 22.94652366638184 64.41189575195312 C 22.98334693908691 64.39780426025391 23.06862831115723 64.42051696777344 23.08455085754395 64.45123291015625 C 23.45878982543945 65.16899108886719 24.37538528442383 65.40941619873047 24.64225006103516 66.21498107910156 C 24.74471855163574 66.52169036865234 24.36065864562988 66.66841125488281 24.35518646240234 67.05359649658203 M 57.47125244140625 33.53208923339844 C 52.02758407592773 38.31002807617188 46.32806777954102 42.73099517822266 40.11865997314453 46.47472381591797 C 46.77777099609375 43.32427215576172 52.22936630249023 38.56041717529297 57.47125244140625 33.53208923339844 M 64.22476196289062 34.4082145690918 C 59.16452407836914 39.36591339111328 53.84359359741211 43.99426651000977 47.99307250976562 47.99427795410156 C 51.25329971313477 46.56786346435547 62.60514068603516 37.05363464355469 64.22476196289062 34.4082145690918 M 14.64260482788086 45.5721549987793 C 14.32110691070557 45.54641723632812 14.25798416137695 45.74020004272461 14.14759159088135 45.85255432128906 C 12.46035385131836 47.56062316894531 10.80018997192383 49.29680633544922 9.087912559509277 50.97913360595703 C 7.243081569671631 52.79143524169922 5.269481658935547 54.45888137817383 3.227640628814697 56.04611968994141 C 3.075517654418945 56.16443634033203 2.748477935791016 56.24116134643555 2.90186333656311 56.53748321533203 C 3.004331111907959 56.73688507080078 3.158978462219238 56.57304382324219 3.267547607421875 56.48348236083984 C 4.775520801544189 55.23928451538086 6.346755981445312 54.06311416625977 7.770706653594971 52.73006439208984 C 9.61609935760498 51.0024299621582 11.35236263275146 49.15822601318359 13.11625480651855 47.34579467773438 C 13.64388275146484 46.80414962768555 14.10649299621582 46.19923400878906 14.64260482788086 45.5721549987793 M 53.69203186035156 42.60594940185547 C 56.33991241455078 40.7874870300293 58.73564529418945 38.67508697509766 60.962158203125 36.36407089233398 C 58.5558967590332 38.46468353271484 56.15769577026367 40.57519149780273 53.69203186035156 42.60594940185547 M 11.01494312286377 55.41293334960938 C 12.94751071929932 53.85523986816406 14.68195056915283 52.09267425537109 16.20401763916016 50.12503814697266 C 14.44692993164062 51.85758590698242 12.79658031463623 53.69385528564453 11.01494312286377 55.41293334960938 M 53.65092849731445 39.84381484985352 C 54.56991577148438 39.26716613769531 55.48594665527344 38.70643615722656 56.08286666870117 37.7843017578125 C 55.27245712280273 38.47085571289062 54.46191024780273 39.15740966796875 53.65092849731445 39.84381484985352 M 13.27574443817139 51.83429718017578 C 13.33584880828857 51.89194869995117 13.39539527893066 51.95016479492188 13.45549964904785 52.00851440429688 C 14.13223457336426 51.41826248168945 14.69296169281006 50.71830749511719 15.3530740737915 50.12132263183594 C 14.66041851043701 50.69256973266602 13.9677677154541 51.26311492919922 13.27574443817139 51.83429718017578" fill="#ff4d16" stroke="none" stroke-width="0"/>
</svg>