<svg xmlns="http://www.w3.org/2000/svg" width="2" height="3" viewBox="287.4830322265625 269.9599914550781 2.277770996093693 2.621551513671875" fill="none">
  <path d="M 289.1508178710938 270.5666198730469 C 289.122314453125 270.4526977539062 289.0715637207031 270.6277770996094 288.9991149902344 270.5158386230469 C 289.2137451171875 270.3759460449219 289.3899536132812 270.1991882324219 289.5044250488281 269.9599914550781 C 289.607666015625 269.9749755859375 289.60400390625 270.0973510742188 289.7066650390625 270.1115112304688 C 289.6852111816406 270.1737976074219 289.6417846679688 270.2155151367188 289.5552062988281 270.2130126953125 C 289.7608032226562 270.3221130371094 289.5433654785156 270.4884948730469 289.605712890625 270.5666198730469 C 289.666015625 270.4961242675781 289.6260070800781 270.5626525878906 289.605712890625 270.6174011230469 C 289.5174255371094 270.63232421875 289.4285888671875 270.4211120605469 289.605712890625 270.4653625488281 C 289.5955505371094 270.4244995117188 289.5552062988281 270.4151611328125 289.5552062988281 270.3640747070312 C 289.3987121582031 270.4343872070312 289.3575439453125 270.5979614257812 289.5044250488281 270.6681518554688 C 289.4347839355469 270.7564392089844 289.2709655761719 270.6348876953125 289.2015686035156 270.6174011230469 C 289.105712890625 270.623046875 289.1663208007812 270.7845764160156 289.0498352050781 270.7691650390625 C 289.1084899902344 270.8001098632812 289.1812438964844 270.794189453125 289.2518005371094 270.9202575683594 C 289.2419128417969 270.9780578613281 289.2015686035156 270.9484558105469 289.2015686035156 270.9202575683594 C 289.1079406738281 270.9281311035156 289.1700134277344 271.0917053222656 289.0997924804688 271.1227111816406 C 289.0106506347656 271.0857849121094 289.0927124023438 271.0308227539062 289.0997924804688 270.9709777832031 C 288.904052734375 271.0519714355469 288.6392822265625 271.4566345214844 288.9991149902344 271.5268249511719 C 288.9342041015625 271.6681213378906 288.7579650878906 271.5037231445312 288.745849609375 271.4256286621094 C 288.6507873535156 271.4639587402344 288.7106018066406 271.5764770507812 288.5944213867188 271.4763793945312 C 288.5504455566406 271.5804138183594 288.7616271972656 271.6675720214844 288.745849609375 271.5770568847656 C 288.7737426757812 271.49951171875 288.7994384765625 271.5742492675781 288.7969055175781 271.6278381347656 C 288.6962280273438 271.712158203125 288.7334289550781 271.6238403320312 288.5944213867188 271.6278381347656 C 288.5712890625 271.7363586425781 288.6669006347656 271.7248229980469 288.745849609375 271.7293395996094 C 288.6361083984375 271.9862365722656 288.4697570800781 271.5702819824219 288.3414611816406 271.7293395996094 C 288.4723205566406 271.7622985839844 288.4799194335938 271.7846069335938 288.4940185546875 272.0321960449219 C 288.2571716308594 271.7637023925781 288.438720703125 272.1698608398438 288.1903076171875 272.1337280273438 C 288.1979370117188 272.2592468261719 288.3614807128906 272.1478271484375 288.3925170898438 272.1337280273438 C 288.4945983886719 272.0403747558594 288.2289428710938 272.34521484375 288.1903076171875 272.4368896484375 C 288.0733032226562 272.4225158691406 288.0738525390625 272.3015441894531 288.1392517089844 272.2344055175781 C 288.027587890625 272.2065124511719 288.0679321289062 272.3314208984375 287.9878234863281 272.3350830078125 C 288.0213623046875 272.3866577148438 288.10400390625 272.3880920410156 288.0896301269531 272.4873352050781 C 287.9996948242188 272.58154296875 287.9610595703125 272.4464721679688 287.7856140136719 272.4873352050781 C 287.7427673339844 272.4464721679688 287.7554626464844 272.348876953125 287.6849365234375 272.3350830078125 C 287.6945190429688 272.2783813476562 287.7356872558594 272.3079833984375 287.7356872558594 272.3350830078125 C 287.8727416992188 272.3714599609375 287.6995849609375 272.0973510742188 287.836669921875 272.1337280273438 C 287.8270874023438 272.0762023925781 287.7856140136719 272.1058349609375 287.7856140136719 272.1337280273438 C 287.6697387695312 272.1486511230469 287.7297973632812 271.987060546875 287.6338806152344 271.9814453125 C 287.5360107421875 272.0034484863281 287.7171020507812 272.1263732910156 287.4830322265625 272.0829772949219 C 287.49853515625 271.9639282226562 287.6581420898438 271.9890747070312 287.6338806152344 271.8300170898438 C 287.7227172851562 271.8739624023438 287.8098754882812 272.0184020996094 287.7856140136719 271.7800903320312 C 287.8580627441406 271.6191101074219 287.8580627441406 272.0265502929688 287.7856140136719 272.0321960449219 C 288.1917419433594 271.8548278808594 288.0820007324219 271.7155151367188 288.4432678222656 271.4763793945312 C 288.4630126953125 271.3548583984375 288.2125854492188 271.5040283203125 288.2915344238281 271.3249206542969 C 288.396728515625 271.4242248535156 288.5445556640625 271.2817687988281 288.5442199707031 271.1227111816406 C 288.6618041992188 271.1066284179688 288.738525390625 271.1306457519531 288.7969055175781 271.1732177734375 C 288.6387023925781 271.0581359863281 288.8078918457031 271.0220642089844 288.745849609375 270.9709777832031 C 288.7373657226562 270.861328125 288.92578125 270.9479064941406 288.9991149902344 270.9202575683594 L 288.9991149902344 270.7691650390625 C 288.7509155273438 270.9676208496094 288.9937438964844 270.5640869140625 289.1508178710938 270.5666198730469" fill="#2777df" stroke="none" stroke-width="0"/>
</svg>