<svg xmlns="http://www.w3.org/2000/svg" width="1" height="1" viewBox="445.8956909179688 320.5010375976562 1 1" fill="none">
  <path d="M 446.1128234863281 320.7037658691406 C 446.0643310546875 320.7977294921875 446.2642822265625 320.8726806640625 446.1128234863281 320.9057006835938 C 446.1283569335938 320.9925537109375 446.28857421875 320.8402404785156 446.2642822265625 321.0574340820312 C 446.105224609375 321.0921020507812 446.057861328125 321.0512390136719 446.0113830566406 321.10791015625 C 445.9225463867188 321.0963134765625 445.8956909179688 321.0204772949219 445.910400390625 320.9057006835938 C 446.03955078125 320.9034423828125 445.9715881347656 320.9432067871094 445.96142578125 321.0066528320312 C 446.1136779785156 321.0850830078125 446.1136779785156 320.7257690429688 445.96142578125 320.804443359375 C 445.9904479980469 320.7001647949219 446.0671691894531 320.6411437988281 446.1128234863281 320.5517883300781 C 446.1540222167969 320.6595153808594 446.3037719726562 320.6739196777344 446.3150329589844 320.5010375976562 C 446.3460998535156 320.5241088867188 446.4820556640625 320.8320617675781 446.2135009765625 320.855224609375 C 446.2719116210938 320.6287536621094 446.2437133789062 320.7908935546875 446.1128234863281 320.7037658691406" fill="#2777df" stroke="none" stroke-width="0"/>
</svg>