<svg xmlns="http://www.w3.org/2000/svg" width="2" height="3" viewBox="754.7239990234375 327.22900390625 1.572509765625 2.590057373046875" fill="none">
  <path d="M 756.2965087890625 327.22900390625 L 756.1978759765625 327.4834594726562 L 755.4689331054688 329.3932800292969 L 755.2896728515625 329.8143310546875 L 755.2322387695312 329.8190612792969 L 755.2259521484375 329.7616577148438 C 755.2136840820312 329.6526184082031 755.1956787109375 329.5466918945312 755.1732177734375 329.4438781738281 C 755.1732177734375 329.4423522949219 755.1731567382812 329.4394226074219 755.1700439453125 329.4380798339844 C 755.15625 329.3748168945312 755.1396484375 329.3147277832031 755.12158203125 329.257568359375 C 755.078369140625 329.1036071777344 755.0234985351562 328.9574279785156 754.9556884765625 328.819091796875 C 754.9269409179688 328.7519836425781 754.8924560546875 328.6864318847656 754.8563842773438 328.6239624023438 C 754.8204345703125 328.5599975585938 754.7876586914062 328.5063171386719 754.7613525390625 328.4656677246094 C 754.7457885742188 328.4411010742188 754.7332763671875 328.4222717285156 754.7239990234375 328.40771484375 L 754.8611450195312 328.4404907226562 L 755.5523071289062 328.6037902832031 L 756.2965087890625 327.22900390625 Z" fill="#a21822" stroke="none" stroke-width="0"/>
</svg>