<svg xmlns="http://www.w3.org/2000/svg" width="4" height="4" viewBox="32.35913848876953 102.42529296875 4.1045989990234375 4.240486145019503" fill="none">
  <path d="M 32.88349533081055 106.6338272094727 C 33.08093643188477 106.6042404174805 33.24719619750977 106.4883422851562 33.39907455444336 106.366828918457 C 33.52776336669922 106.2629165649414 33.6612548828125 106.1630020141602 33.78274917602539 106.0518951416016 C 34.02655029296875 105.8296737670898 34.257568359375 105.5930709838867 34.49416351318359 105.3644714355469 C 34.73876190185547 105.1270523071289 34.98575210571289 104.8920440673828 35.22396469116211 104.649055480957 C 35.45417404174805 104.4140625 35.69876098632812 104.1878280639648 35.90339660644531 103.9304504394531 C 36.1168212890625 103.6634674072266 36.46373748779297 103.212646484375 36.28468704223633 102.846549987793 C 36.07925415039062 102.42529296875 35.4517707824707 102.7522354125977 35.20557403564453 102.9528656005859 C 34.68760299682617 103.3741149902344 34.23757934570312 103.8856887817383 33.78435516357422 104.374885559082 C 33.53816223144531 104.6410751342773 33.29116058349609 104.9072418212891 33.04496383666992 105.1734161376953 C 32.75960540771484 105.4803695678711 32.44866180419922 105.8352737426758 32.39430236816406 106.2613143920898 C 32.35913848876953 106.538688659668 32.66767501831055 106.6657791137695 32.88349533081055 106.6338272094727" fill="#2473d8" stroke="none" stroke-width="0"/>
</svg>