<svg xmlns="http://www.w3.org/2000/svg" width="2" height="3" viewBox="675.4089965820312 313.344970703125 1.78009033203125 2.77392578125" fill="none">
  <path d="M 677.1808471679688 315.311279296875 C 677.17431640625 315.2355346679688 677.1644287109375 315.15966796875 677.1528930664062 315.08544921875 C 677.1133422851562 314.8464965820312 677.0424194335938 314.6206665039062 676.9468383789062 314.4180297851562 C 676.8956909179688 314.3091430664062 676.8380737304688 314.20703125 676.7738647460938 314.113037109375 C 676.465576171875 313.6565551757812 676.0123901367188 313.3630981445312 675.5046997070312 313.3466796875 C 675.50146484375 313.344970703125 675.4965209960938 313.344970703125 675.4932861328125 313.3466796875 C 675.4816284179688 313.344970703125 675.4700927734375 313.344970703125 675.45849609375 313.344970703125 C 675.4423217773438 313.344970703125 675.4257202148438 313.3460693359375 675.4089965820312 313.3468017578125 C 675.9163208007812 313.363525390625 676.3692016601562 313.6567993164062 676.6771240234375 314.113037109375 C 676.741455078125 314.20703125 676.7991943359375 314.3091430664062 676.8502197265625 314.4180297851562 C 676.9459228515625 314.6206665039062 677.0166625976562 314.8464965820312 677.0562133789062 315.08544921875 C 677.0677490234375 315.15966796875 677.07763671875 315.2355346679688 677.0842895507812 315.311279296875 C 677.0892333984375 315.3854370117188 677.0924682617188 315.4612426757812 677.0924682617188 315.5387573242188 C 677.0924682617188 315.7325439453125 677.072265625 315.9201049804688 677.0352783203125 316.0988159179688 L 677.1280517578125 316.118896484375 C 677.167724609375 315.9342041015625 677.1890869140625 315.7398681640625 677.1890869140625 315.5387573242188 C 677.1890869140625 315.4612426757812 677.185791015625 315.3854370117188 677.1808471679688 315.311279296875" fill="#a21822" stroke="none" stroke-width="0"/>
</svg>