<svg xmlns="http://www.w3.org/2000/svg" width="22" height="23" viewBox="157.5471496582031 230.5669250488281 21.792587280273494 22.708709716796903" fill="none">
  <path d="M 170.5809936523438 230.7815856933594 C 169.0937805175781 230.5669250488281 167.582275390625 230.7183227539062 166.0985107421875 230.8891906738281 C 165.0044555664062 231.0151519775391 163.9593200683594 231.1841125488281 163.1114501953125 231.9389038085938 C 163.057373046875 231.987060546875 163.030029296875 232.0411529541016 163.0222015380859 232.0954284667969 C 159.7060089111328 234.4192504882812 157.5471496582031 238.2666015625 157.7193603515625 242.3843994140625 C 157.906494140625 246.8556213378906 160.6746826171875 250.8938903808594 164.92724609375 252.4057922363281 C 166.9689331054688 253.1317138671875 169.3116760253906 253.275634765625 171.3849029541016 252.5862121582031 C 172.3826293945312 252.2546081542969 173.2115783691406 251.6632385253906 174.0342254638672 251.0217590332031 C 175.1156616210938 250.1786804199219 176.2001647949219 249.3204650878906 177.0422973632812 248.2272033691406 C 178.5054321289062 246.3276977539062 179.2451171875 243.8611145019531 179.2919616699219 241.4776611328125 C 179.3397369384766 239.0338134765625 178.2097473144531 236.5064392089844 176.7869415283203 234.5628051757812 C 175.3025817871094 232.5350494384766 173.0789184570312 231.1422424316406 170.5809936523438 230.7815856933594 M 174.9503326416016 249.5528869628906 C 174.0527648925781 250.3235778808594 173.1005401611328 251.1526794433594 172.0448913574219 251.6964721679688 C 170.2042846679688 252.6445007324219 167.8638305664062 252.6351318359375 165.9045104980469 252.1102905273438 C 161.8333435058594 251.0198669433594 158.9359436035156 247.5251770019531 158.3812561035156 243.3794555664062 C 157.7619934082031 238.7505493164062 160.2633666992188 234.2986450195312 164.2424011230469 231.9947204589844 C 164.3184814453125 231.9507446289062 164.3591918945312 231.8888244628906 164.3740844726562 231.8230743408203 C 165.0828247070312 231.5379028320312 165.8873138427734 231.482666015625 166.6485900878906 231.4033508300781 C 167.9043579101562 231.2724151611328 169.1734771728516 231.1692047119141 170.4305725097656 231.3410339355469 C 172.5160522460938 231.6260070800781 174.4466857910156 232.67724609375 175.8240051269531 234.2684478759766 C 176.2401123046875 234.7489624023438 176.6355590820312 235.2915954589844 176.9949035644531 235.8718872070312 L 176.3091125488281 236.5192413330078 C 176.2194671630859 236.6039123535156 176.35498046875 236.7388610839844 176.4442443847656 236.6545715332031 C 176.6619415283203 236.4489135742188 176.879638671875 236.2434387207031 177.0973510742188 236.0377807617188 C 177.1554565429688 236.1348876953125 177.2116394042969 236.2335052490234 177.2676391601562 236.33251953125 C 176.9763488769531 236.5580444335938 176.7108764648438 236.8120727539062 176.4765472412109 237.0985717773438 C 176.3993225097656 237.1931915283203 176.53369140625 237.3290863037109 176.6116638183594 237.2337036132812 C 176.8351135253906 236.9605712890625 177.0858764648438 236.7161254882812 177.3622741699219 236.499755859375 C 177.4205627441406 236.6065979003906 177.4767456054688 236.7147827148438 177.5321655273438 236.8235321044922 C 177.0902709960938 237.2042846679688 176.6648254394531 237.6024169921875 176.2620849609375 238.0250091552734 C 176.1772308349609 238.1138916015625 176.3121643066406 238.2494049072266 176.397216796875 238.1601409912109 C 176.7854156494141 237.7528381347656 177.1955871582031 237.3688354492188 177.6203002929688 237.0005187988281 C 177.7940368652344 237.3541259765625 177.951904296875 237.7159423828125 178.0901031494141 238.0825347900391 C 177.6097717285156 238.4936676025391 177.1623382568359 238.9384460449219 176.7515869140625 239.4201049804688 C 176.6722564697266 239.5133666992188 176.8068237304688 239.6490783691406 176.88671875 239.555419921875 C 177.2787170410156 239.0953674316406 177.7047729492188 238.6695098876953 178.1602478027344 238.2738647460938 C 178.2040100097656 238.3961791992188 178.2464599609375 238.5185241699219 178.2856292724609 238.6416015625 C 177.8767852783203 239.0309448242188 177.4939575195312 239.4449462890625 177.1409301757812 239.8868408203125 C 177.0648498535156 239.9820251464844 177.1994171142578 240.1181335449219 177.2760620117188 240.02197265625 C 177.6080627441406 239.6066589355469 177.9654846191406 239.2155914306641 178.3468017578125 238.8465118408203 C 178.3811950683594 238.9627075195312 178.4134979248047 239.0787353515625 178.4435119628906 239.1951293945312 C 178.1285095214844 239.519287109375 177.8135223388672 239.84326171875 177.49853515625 240.1674499511719 C 177.4127197265625 240.2557373046875 177.5478515625 240.3910522460938 177.6336669921875 240.3025512695312 C 177.9219055175781 240.0061340332031 178.2099304199219 239.7096557617188 178.4981689453125 239.4132080078125 C 178.5379333496094 239.5835266113281 178.5742492675781 239.7538146972656 178.6036682128906 239.9237365722656 C 178.3160095214844 240.2163696289062 178.0421142578125 240.5214233398438 177.7886810302734 240.8450012207031 C 177.7137451171875 240.9407653808594 177.8481140136719 241.0770568847656 177.9239959716797 240.9801330566406 C 178.1474456787109 240.694580078125 178.3886413574219 240.4248962402344 178.6390380859375 240.1634216308594 C 178.6573791503906 240.2890014648438 178.6723022460938 240.4141845703125 178.684326171875 240.5391845703125 C 178.6697998046875 240.5426330566406 178.6552886962891 240.5485534667969 178.6417236328125 240.5604248046875 C 178.2322998046875 240.9178161621094 177.87353515625 241.3213195800781 177.563720703125 241.7676086425781 C 177.4933776855469 241.8689270019531 177.6589050292969 241.9646911621094 177.7286682128906 241.8641357421875 C 178.0105895996094 241.4579772949219 178.3379974365234 241.0923461914062 178.7049865722656 240.762451171875 C 178.7055511474609 240.7714233398438 178.7068786621094 240.7805786132812 178.7074584960938 240.7895812988281 C 178.7080383300781 240.8008422851562 178.7082214355469 240.8121337890625 178.7088012695312 240.8233947753906 C 178.0419311523438 241.6777648925781 177.375244140625 242.5319519042969 176.7083892822266 243.3863220214844 C 176.6334686279297 243.4822692871094 176.767822265625 243.6183776855469 176.8435363769531 243.5214538574219 C 177.4692993164062 242.7198486328125 178.0950775146484 241.9180297851562 178.7208404541016 241.1162414550781 C 178.7265777587891 241.3146362304688 178.7260131835938 241.5143432617188 178.7198791503906 241.7148742675781 C 178.1648254394531 242.3601379394531 177.6546936035156 243.0388488769531 177.1940612792969 243.7557983398438 C 177.1275329589844 243.8595886230469 177.2928771972656 243.9555358886719 177.3591918945312 243.8523254394531 C 177.7697448730469 243.2129821777344 178.2202758789062 242.6045837402344 178.707275390625 242.0233459472656 C 178.6956176757812 242.2135314941406 178.6770629882812 242.4042663574219 178.6552886962891 242.5948486328125 C 178.3127746582031 242.9673767089844 178.0000610351562 243.3641662597656 177.7212066650391 243.7877197265625 C 177.6533508300781 243.8907470703125 177.8186950683594 243.9866943359375 177.8861541748047 243.8842468261719 C 178.1072998046875 243.5484008789062 178.3504333496094 243.2307434082031 178.6126708984375 242.9281921386719 C 178.5862884521484 243.1103210449219 178.5543518066406 243.2921142578125 178.518798828125 243.4732971191406 C 178.2640228271484 243.7254028320312 178.0189971923828 243.9865112304688 177.786376953125 244.2594299316406 C 177.7070617675781 244.3525085449219 177.8416137695312 244.4884033203125 177.9215240478516 244.3945617675781 C 178.0895233154297 244.1973266601562 178.2655639648438 244.0077209472656 178.4452209472656 243.8213500976562 C 178.4089202880859 243.9807434082031 178.3687744140625 244.139404296875 178.3255767822266 244.2970886230469 C 178.0983276367188 244.4780883789062 177.8664703369141 244.6531677246094 177.6285095214844 244.8202209472656 C 177.5287322998047 244.8905639648438 177.6241149902344 245.0562744140625 177.7250366210938 244.9853515625 C 177.8983917236328 244.8634033203125 178.068115234375 244.7366943359375 178.236328125 244.6076965332031 C 178.2011413574219 244.7231140136719 178.1648254394531 244.8380126953125 178.126220703125 244.9519348144531 C 177.796142578125 245.2290649414062 177.4603118896484 245.4985656738281 177.1111145019531 245.7520141601562 C 177.0124816894531 245.823486328125 177.107666015625 245.9893798828125 177.2074432373047 245.9169616699219 C 177.4773101806641 245.7212219238281 177.7405090332031 245.5174865722656 177.9993133544922 245.3080139160156 C 177.9484558105469 245.4427490234375 177.8949432373047 245.576171875 177.8391418457031 245.7082214355469 C 177.6177978515625 245.9274597167969 177.3934173583984 246.1436462402344 177.1625366210938 246.3529357910156 C 177.0711669921875 246.4358825683594 177.2066650390625 246.5706481933594 177.2976531982422 246.4880676269531 C 177.4079437255859 246.3881225585938 177.5153503417969 246.2852783203125 177.62353515625 246.1828308105469 C 177.4616394042969 246.5199890136719 177.28466796875 246.846435546875 177.0906677246094 247.1574096679688 C 176.5168762207031 248.0779113769531 175.7697296142578 248.8495483398438 174.9503326416016 249.5528869628906" fill="#231f20" stroke="#ffffff" stroke-width="1"/>
</svg>