<svg xmlns="http://www.w3.org/2000/svg" width="2" height="4" viewBox="54.39892196655273 271.6791687011719 1.9906806945800852 4.470062255859318" fill="none">
  <path d="M 56.22660446166992 271.9033203125 C 56.33855819702148 271.6791687011719 56.38960266113281 272.2200622558594 56.22660446166992 272.0048522949219 C 56.1890983581543 272.15966796875 56.36563491821289 272.1012878417969 56.32756042480469 272.2569885253906 C 56.18035507202148 272.2439880371094 56.13410568237305 272.4532775878906 56.27736663818359 272.4594421386719 C 55.99732971191406 272.4786376953125 56.09349822998047 272.8460998535156 56.02468872070312 273.0152893066406 C 56.01876831054688 273.0291137695312 55.89384078979492 272.8968505859375 55.87297058105469 272.913818359375 C 55.91385650634766 272.8801879882812 55.87409210205078 273.2950439453125 56.02468872070312 273.1667175292969 C 55.89806747436523 273.2558288574219 55.98915481567383 273.2507934570312 55.92372894287109 273.3689575195312 C 55.87409210205078 273.3675231933594 55.88452911376953 273.3074340820312 55.87297058105469 273.2685241699219 C 55.84955978393555 273.4984130859375 55.84336090087891 273.7141418457031 55.72124862670898 274.0257263183594 C 55.8543586730957 273.8948364257812 55.76157760620117 274.1080627441406 55.92372894287109 274.0764465332031 C 55.75706481933594 274.1774597167969 55.91301345825195 274.1565551757812 55.92372894287109 274.3297119140625 C 55.89384078979492 274.4239196777344 55.65130996704102 274.2690734863281 55.771728515625 274.3801879882812 C 55.68487548828125 274.5581665039062 55.68910217285156 274.2344360351562 55.51933670043945 274.3297119140625 C 55.55739974975586 274.4248046875 55.67020416259766 274.3644104003906 55.5698127746582 274.4808959960938 C 55.50833129882812 274.3052062988281 55.37973785400391 274.4309692382812 55.36761093139648 274.2786560058594 C 55.3788948059082 274.6305847167969 55.19925689697266 274.4227600097656 55.36761093139648 274.7338562011719 C 55.29373168945312 274.6167907714844 55.20714950561523 274.8330993652344 55.21589660644531 274.6325988769531 C 55.20038223266602 274.9219055175781 55.22181701660156 275.0335998535156 54.96321487426758 275.2391967773438 C 55.07037734985352 275.4075622558594 55.10985946655273 275.0874633789062 55.26665115356445 275.1385192871094 C 55.14511489868164 275.3297119140625 55.10647583007812 275.2899475097656 55.06417846679688 275.5423583984375 C 54.98239517211914 275.5567626953125 54.97731781005859 275.4949645996094 54.91273880004883 275.4921569824219 C 54.93952941894531 275.532470703125 54.96547317504883 275.5739440917969 54.96321487426758 275.6435852050781 C 55.02976989746094 275.6258239746094 55.04274368286133 275.5544738769531 55.11465072631836 275.5423583984375 C 55.22520446777344 275.4363403320312 55.01172637939453 275.7383422851562 54.91273880004883 275.7445373535156 C 54.84420776367188 275.728759765625 54.87071990966797 275.6178894042969 54.86225509643555 275.5423583984375 C 54.78047561645508 275.5285339355469 54.77512359619141 275.5899658203125 54.71053695678711 275.5931091308594 C 54.8552131652832 275.7355651855469 54.85605239868164 275.7919006347656 54.81178283691406 276.0477294921875 C 54.64257431030273 275.9625549316406 54.60253143310547 276.043212890625 54.50834274291992 276.1492309570312 C 54.40089797973633 276.007080078125 54.55487060546875 275.730712890625 54.4581413269043 275.5931091308594 C 54.39892196655273 275.4850769042969 54.5926628112793 275.705322265625 54.55882263183594 275.7953186035156 C 54.66428756713867 275.69091796875 54.42740631103516 275.2530517578125 54.76102066040039 275.1385192871094 C 54.5799674987793 275.0629272460938 54.77314376831055 274.9255981445312 54.81178283691406 274.7843322753906 C 54.79767990112305 274.6805419921875 54.67669677734375 274.6830749511719 54.60958099365234 274.6325988769531 C 54.88538360595703 274.6292114257812 54.98042297363281 274.6909790039062 55.06417846679688 274.4301452636719 C 55.05064010620117 274.326904296875 54.9290885925293 274.3297119140625 54.86225509643555 274.2786560058594 C 54.80473327636719 274.0575561523438 54.86254119873047 274.1131591796875 54.91273880004883 273.925048828125 C 55.1016845703125 273.9594421386719 54.87522888183594 274.0931091308594 55.06417846679688 274.1272583007812 C 55.21335983276367 274.0705871582031 55.16202926635742 273.8655395507812 55.16541290283203 273.8240966796875 C 55.18600463867188 273.5846862792969 55.21279144287109 272.8672790527344 55.21589660644531 273.3689575195312 C 55.22520446777344 273.410400390625 55.26665115356445 273.4197082519531 55.26665115356445 273.470458984375 C 55.45333862304688 273.3894958496094 55.3380012512207 273.0858154296875 55.41808700561523 273.0152893066406 C 55.35943603515625 273.0071411132812 55.32841491699219 273.0265808105469 55.31685638427734 273.0660400390625 C 55.18233871459961 273.1261291503906 55.45672607421875 272.830322265625 55.5698127746582 272.8130798339844 C 55.55570983886719 272.7068176269531 55.43473052978516 272.8864440917969 55.36761093139648 272.7623291015625 C 55.31685638427734 272.8026733398438 55.38650894165039 272.9391479492188 55.26665115356445 273.0152893066406 C 55.17613220214844 272.9380187988281 55.29400634765625 272.6416625976562 55.46885299682617 272.6616516113281 C 55.37917327880859 272.4769287109375 55.48690414428711 272.412109375 55.5698127746582 272.2062072753906 C 55.67020416259766 272.3029479980469 55.70207214355469 272.0006408691406 55.82249069213867 271.8526306152344 C 55.98830795288086 271.7313232421875 56.27567291259766 272.0149841308594 56.22660446166992 271.9033203125" fill="#2777df" stroke="none" stroke-width="0"/>
</svg>