<svg xmlns="http://www.w3.org/2000/svg" width="2" height="1" viewBox="160.1825866699219 21.69785118103027 2.007888793945284 1" fill="none">
  <path d="M 160.8757629394531 21.98267936706543 C 161.0034942626953 21.77963638305664 160.9299011230469 21.94235038757324 161.1284484863281 21.88143920898438 C 161.23193359375 21.89554023742676 161.2291259765625 22.01651954650879 161.2798614501953 22.0836353302002 C 161.3988800048828 22.00946998596191 161.3740692138672 21.97647476196289 161.5325469970703 22.03259468078613 C 161.5057525634766 22.07404899597168 161.4798126220703 22.11494064331055 161.4820861816406 22.18515968322754 C 161.5229797363281 22.14116668701172 161.6208190917969 22.15498352050781 161.6334991455078 22.0836353302002 C 161.9705200195312 22.23225402832031 161.7214813232422 22.33659553527832 161.7344818115234 22.28583526611328 C 161.6591796875 22.56530380249023 162.1044616699219 22.12594032287598 161.9369506835938 22.488037109375 C 162.0032196044922 22.4699878692627 162.0164794921875 22.3989200592041 162.08837890625 22.38651466369629 C 162.1904754638672 22.26637840270996 162.0661163330078 22.4426326751709 162.0381927490234 22.488037109375 C 162.0288848876953 22.5309009552002 162.057373046875 22.5354118347168 162.08837890625 22.53879547119141 C 162.0900726318359 22.67415809631348 161.8343048095703 22.40230369567871 161.8357238769531 22.53879547119141 C 161.6718444824219 22.54048919677734 161.83740234375 22.27963256835938 161.6842651367188 22.4372730255127 C 161.5255126953125 22.37269401550293 161.7942504882812 22.19672203063965 161.5833129882812 22.18515968322754 C 161.3515014648438 22.54697418212891 161.2381439208984 22.16767501831055 160.8757629394531 22.23507690429688 C 160.8938140869141 22.16880416870117 160.9643096923828 22.1552677154541 160.9764099121094 22.0836353302002 C 160.5229644775391 22.21420860290527 160.4541473388672 21.97844886779785 160.2186889648438 21.98267936706543 C 160.1825866699219 21.9124584197998 160.3616790771484 21.92740440368652 160.3193817138672 21.73000335693359 C 160.36474609375 21.76074028015137 160.4101715087891 21.79091453552246 160.4206085205078 21.73000335693359 C 160.4600982666016 21.94263458251953 160.6529846191406 21.69785118103027 160.8757629394531 21.98267936706543" fill="#2777df" stroke="none" stroke-width="0"/>
</svg>