<svg xmlns="http://www.w3.org/2000/svg" width="23" height="24" viewBox="350.2371215820312 231.48876953125 23.004150390625 23.681579589843807" fill="none">
  <path d="M 371.750244140625 237.9114685058594 C 371.3939819335938 237.4091644287109 370.9413757324219 237.0060729980469 370.5206909179688 236.5605316162109 C 370.0176086425781 236.0276489257812 369.6741333007812 235.3816070556641 369.2119750976562 234.8173828125 C 367.5254211425781 232.7586669921875 364.5733337402344 231.6802978515625 361.9761962890625 231.5923767089844 C 358.914794921875 231.48876953125 355.9631042480469 232.7735900878906 353.8541259765625 234.9710693359375 C 353.7752075195312 235.0532379150391 353.759521484375 235.1486206054688 353.7826538085938 235.2336730957031 C 350.8334350585938 238.8507080078125 350.2371215820312 244.1141662597656 352.6384887695312 248.1971893310547 C 354.8139953613281 251.8962097167969 360.0237426757812 255.1703491210938 364.3558349609375 253.40673828125 C 364.4043579101562 253.5252685546875 364.5194396972656 253.6060943603516 364.6755981445312 253.5458984375 C 367.1073913574219 252.6085662841797 369.2022399902344 251.0198669433594 370.816162109375 248.9760589599609 C 371.6227416992188 247.9548187255859 372.4058227539062 246.8095397949219 372.8096923828125 245.5616302490234 C 373.2412719726562 244.228271484375 373.1300659179688 242.6791229248047 372.9494018554688 241.3083190917969 C 372.7911376953125 240.1083679199219 372.4581909179688 238.9095764160156 371.750244140625 237.9114685058594 M 371.0376892089844 247.7025299072266 C 370.5783996582031 248.0740814208984 370.1458740234375 248.4747161865234 369.7420043945312 248.906494140625 C 369.6580810546875 248.9961090087891 369.7930297851562 249.1316375732422 369.8771362304688 249.0416259765625 C 370.0994262695312 248.8040313720703 370.330322265625 248.5760040283203 370.5693969726562 248.3567810058594 C 369.0892944335938 250.3128509521484 367.1437072753906 251.8960266113281 364.8720703125 252.8491973876953 C 364.799072265625 252.7270660400391 364.6452026367188 252.6456451416016 364.481201171875 252.7259368896484 C 360.273193359375 254.7869415283203 355.020263671875 251.3145904541016 352.9978637695312 247.6702270507812 C 350.7745971679688 243.6638488769531 351.5385437011719 238.5166015625 354.595703125 235.163330078125 C 354.6507568359375 235.1027526855469 354.67236328125 235.0358581542969 354.6719970703125 234.9710693359375 C 356.9390258789062 232.8517608642578 360.0520629882812 231.7940063476562 363.15625 232.2766418457031 C 364.8646240234375 232.5421142578125 366.5393676757812 233.2409057617188 367.8912353515625 234.3267364501953 C 369.003662109375 235.2201080322266 369.739501953125 236.5486755371094 370.7269287109375 237.5815734863281 C 370.5623474121094 237.7660217285156 370.39794921875 237.9502868652344 370.2333984375 238.1347045898438 C 370.1517944335938 238.2262725830078 370.2865295410156 238.3619689941406 370.3685302734375 238.2698364257812 C 370.531005859375 238.087890625 370.6932678222656 237.9059143066406 370.855712890625 237.7237854003906 C 370.9107666015625 237.7851257324219 370.9645080566406 237.8478088378906 371.0166625976562 237.9118499755859 C 370.7991638183594 238.1270751953125 370.5814819335938 238.3424682617188 370.36376953125 238.5578918457031 C 370.2762145996094 238.6444702148438 370.4113464355469 238.7796020507812 370.4990844726562 238.6930236816406 C 370.7116088867188 238.4823913574219 370.9243469238281 238.2719421386719 371.1370849609375 238.0615081787109 C 371.1760864257812 238.1127319335938 371.2129516601562 238.1656799316406 371.250244140625 238.2182312011719 C 370.9480590820312 238.4808654785156 370.6856079101562 238.78076171875 370.4652404785156 239.1154174804688 C 370.3973999023438 239.2184448242188 370.562744140625 239.314208984375 370.6301879882812 239.2117614746094 C 370.8354797363281 238.9002075195312 371.0805053710938 238.6232604980469 371.359375 238.3768768310547 C 371.376953125 238.4036407470703 371.3941650390625 238.4307861328125 371.4115600585938 238.4577331542969 C 371.075927734375 238.853759765625 370.740478515625 239.2497863769531 370.4050598144531 239.6458282470703 C 370.3258972167969 239.7392883300781 370.46044921875 239.8751831054688 370.5401611328125 239.7811431884766 C 370.8656616210938 239.3967895507812 371.1913452148438 239.0124053955078 371.516845703125 238.6280364990234 C 371.5707702636719 238.7184448242188 371.6221923828125 238.8107604980469 371.6716918945312 238.9044189453125 C 371.6422424316406 238.8558654785156 371.5757446289062 238.8298645019531 371.5260620117188 238.8831939697266 C 371.16748046875 239.269287109375 370.844482421875 239.6838531494141 370.5575561523438 240.1259460449219 C 370.490478515625 240.2293548583984 370.6558227539062 240.3253021240234 370.7225036621094 240.2222900390625 C 371.0007934570312 239.7937622070312 371.3135070800781 239.392578125 371.6611938476562 239.0183410644531 C 371.6904296875 238.9869842529297 371.6919555664062 238.9502868652344 371.6793212890625 238.9193267822266 C 371.8146362304688 239.1769714355469 371.9345092773438 239.4451293945312 372.0380859375 239.72265625 C 372.0369567871094 239.72265625 372.0359802246094 239.7222900390625 372.0348510742188 239.7224731445312 C 371.8318481445312 239.7476959228516 371.6728515625 240.0141296386719 371.5518493652344 240.1609344482422 C 371.3740844726562 240.3765258789062 371.2116394042969 240.60302734375 371.061767578125 240.8386993408203 C 370.9954528808594 240.9426727294922 371.1607666015625 241.038818359375 371.2267150878906 240.9352111816406 C 371.35400390625 240.7350921630859 371.4895324707031 240.5411071777344 371.6380615234375 240.3560791015625 C 371.7026672363281 240.2756042480469 371.7693481445312 240.1968688964844 371.8379516601562 240.1198425292969 C 371.8635864257812 240.0907897949219 371.9209289550781 240.0078277587891 371.9723510742188 239.9562225341797 C 371.9857177734375 239.9631042480469 372.0010070800781 239.9675140380859 372.0208740234375 239.9652099609375 C 372.0277709960938 239.9642639160156 372.0348510742188 239.9634857177734 372.0419311523438 239.9627227783203 C 372.0701904296875 239.9592895507812 372.0925903320312 239.9457092285156 372.1103515625 239.9264068603516 C 372.1242980957031 239.9676971435547 372.1380615234375 240.0089721679688 372.1512451171875 240.0504608154297 C 371.6346130371094 240.6588287353516 371.1590576171875 241.297607421875 370.7286376953125 241.9705963134766 C 370.662109375 242.0745697021484 370.8274536132812 242.1705169677734 370.8935852050781 242.0671234130859 C 371.2961120605469 241.4377136230469 371.7389526367188 240.8390808105469 372.2181396484375 240.2671966552734 C 372.2498779296875 240.3765258789062 372.2796630859375 240.4866180419922 372.3068237304688 240.5978698730469 C 371.9752197265625 240.9736328125 371.6571655273438 241.3604888916016 371.3546142578125 241.7599639892578 C 371.2804565429688 241.8580169677734 371.4463500976562 241.9533996582031 371.5197143554688 241.8564910888672 C 371.7729797363281 241.5220031738281 372.039794921875 241.1987915039062 372.3142700195312 240.8816986083984 C 372.3326416015625 240.8903045654297 372.3527221679688 240.8948822021484 372.3729553222656 240.8922119140625 C 372.3970336914062 241.0080413818359 372.4190063476562 241.1244506835938 372.4383239746094 241.2416076660156 C 372.2571411132812 241.3065948486328 372.120849609375 241.5848846435547 372.0101928710938 241.7309112548828 C 371.8081665039062 241.9977416992188 371.6149291992188 242.2708740234375 371.427978515625 242.5483856201172 C 371.3591918945312 242.6506500244141 371.5247192382812 242.7466125488281 371.5931396484375 242.6449127197266 C 371.7353515625 242.4333343505859 371.8811645507812 242.2242279052734 372.0323486328125 242.0189514160156 C 372.121826171875 241.8972015380859 372.2129821777344 241.7763977050781 372.3058471679688 241.6571350097656 C 372.336669921875 241.6175689697266 372.39208984375 241.5208587646484 372.4463500976562 241.4629364013672 C 372.4543762207031 241.4669494628906 372.4630126953125 241.4686737060547 372.4717712402344 241.4701995849609 C 372.4926147460938 241.6200561523438 372.510009765625 241.7704772949219 372.5233764648438 241.9214782714844 C 372.48974609375 241.8968200683594 372.4440612792969 241.8927917480469 372.40869140625 241.9338989257812 C 372.1025085449219 242.2901763916016 371.821533203125 242.6651916503906 371.5663757324219 243.0594787597656 C 371.499267578125 243.1630859375 371.664794921875 243.259033203125 371.7315063476562 243.156005859375 C 371.9017944335938 242.8926239013672 372.0881958007812 242.6414794921875 372.281982421875 242.3958740234375 C 372.3226928710938 242.4174652099609 372.3748779296875 242.4132537841797 372.4018249511719 242.3601226806641 C 372.4465637207031 242.2716217041016 372.491455078125 242.1829528808594 372.5361938476562 242.0944366455078 C 372.5438232421875 242.204345703125 372.549560546875 242.3144378662109 372.5534057617188 242.4247283935547 C 372.0744018554688 243.0474548339844 371.6047973632812 243.6770477294922 371.1475830078125 244.3160095214844 C 371.075927734375 244.4161682128906 371.2416381835938 244.5117340087891 371.3125610351562 244.4123229980469 C 371.7187194824219 243.8450469970703 372.1353759765625 243.2855987548828 372.5587463378906 242.7311096191406 C 372.5591125488281 242.9434661865234 372.55224609375 243.1556243896484 372.5386962890625 243.3668212890625 C 372.3536376953125 243.5654296875 372.18603515625 243.8331909179688 372.0902709960938 243.9432983398438 C 371.6309814453125 244.4710235595703 371.1808471679688 245.0065765380859 370.7379760742188 245.5482482910156 C 370.6607666015625 245.6426849365234 370.7951354980469 245.7787628173828 370.8731384277344 245.6833801269531 C 371.2005310058594 245.2831420898438 371.5313720703125 244.8857879638672 371.8676147460938 244.4929962158203 C 371.9400634765625 244.4083251953125 372.2445068359375 243.9970092773438 372.5126953125 243.6848754882812 C 372.4899291992188 243.9161529541016 372.4588012695312 244.1455078125 372.4194030761719 244.3722076416016 C 371.8926391601562 244.9192199707031 371.4266357421875 245.5146179199219 371.0245056152344 246.1596984863281 C 370.9593200683594 246.2644348144531 371.1246643066406 246.3603820800781 371.1896362304688 246.2562103271484 C 371.5300903320312 245.7099456787109 371.9188232421875 245.201904296875 372.3505859375 244.7275085449219 C 372.26953125 245.1038665771484 372.1646118164062 245.4694976806641 372.0377197265625 245.8198394775391 C 371.4857177734375 246.3028564453125 371.0141906738281 246.8601989746094 370.6372680664062 247.4934234619141 C 370.5744018554688 247.5993194580078 370.7395324707031 247.6956481933594 370.8024291992188 247.5899505615234 C 371.1034545898438 247.0840148925781 371.465087890625 246.6281585693359 371.8804016113281 246.2202758789062 C 371.7538757324219 246.5161590576172 371.6109008789062 246.7986450195312 371.4505615234375 247.0630035400391 C 371.31884765625 247.2801208496094 371.1799011230469 247.4924774169922 371.0376892089844 247.7025299072266" fill="#231f20" stroke="#ffffff" stroke-width="1"/>
</svg>