<svg xmlns="http://www.w3.org/2000/svg" width="2" height="1" viewBox="256.6530456542969 130.3870544433594 1.92071533203125 1.1889343261717897" fill="none">
  <path d="M 256.9570617675781 130.52099609375 C 257.0137329101562 130.5305633544922 256.9844055175781 130.5717468261719 256.9570617675781 130.5717468261719 C 257.1739196777344 130.62646484375 257.4646606445312 130.3870544433594 257.4620666503906 130.7231903076172 C 257.5387878417969 130.67919921875 257.4483032226562 130.6470489501953 257.5128479003906 130.52099609375 C 257.9990539550781 130.5985565185547 258.2846984863281 130.8066711425781 258.5737609863281 130.7739410400391 C 258.515380859375 130.9462585449219 258.4361572265625 131.1633911132812 258.5737609863281 131.2790374755859 C 258.0703735351562 131.5661010742188 257.4973449707031 131.4651489257812 256.9570617675781 131.3292083740234 C 256.9835510253906 131.3704071044922 257.0094909667969 131.4112854003906 257.0077819824219 131.4815063476562 C 256.9051208496094 131.2900238037109 256.8422546386719 131.5759887695312 256.7041015625 131.3796997070312 C 256.7607421875 131.4422912597656 256.747802734375 131.4837493896484 256.6530456542969 131.4815063476562 C 256.7675170898438 130.9143829345703 256.8103637695312 130.7959594726562 256.9570617675781 130.52099609375" fill="#2777df" stroke="none" stroke-width="0"/>
</svg>