<svg xmlns="http://www.w3.org/2000/svg" width="1" height="1" viewBox="294.2417907714844 216.7009735107422 1 1" fill="none">
  <path d="M 294.4087524414062 216.7805023193359 C 294.4267883300781 216.7009735107422 294.4981384277344 216.8244934082031 294.51025390625 216.7300262451172 C 294.5920104980469 216.7791137695312 294.62646484375 216.8648223876953 294.56103515625 216.9319458007812 C 294.8173522949219 216.9595794677734 294.5618896484375 216.7531585693359 294.7632446289062 216.7805023193359 C 294.78125 216.9841003417969 294.5945739746094 216.9838104248047 294.56103515625 217.1341400146484 C 294.4880065917969 217.1062316894531 294.4372253417969 217.0554656982422 294.4087524414062 216.9826965332031 C 294.2857666015625 216.9883422851562 294.3982849121094 217.1493682861328 294.4595031738281 217.1341400146484 C 294.3819274902344 217.2926330566406 294.2417907714844 216.9857940673828 294.3587646484375 216.9319458007812 C 294.4053344726562 216.9863739013672 294.5446472167969 216.9477386474609 294.51025390625 217.0836486816406 C 294.7359008789062 217.0083770751953 294.2908935546875 216.8574981689453 294.56103515625 216.8817443847656 C 294.5238037109375 216.8343811035156 294.4690551757812 216.8055877685547 294.4087524414062 216.7805023193359" fill="#2777df" stroke="none" stroke-width="0"/>
</svg>