<svg xmlns="http://www.w3.org/2000/svg" width="10" height="9" viewBox="477.9323120117188 224.7707824707031 9.646545410156193 9.17236328125" fill="none">
  <path d="M 482.1099243164062 225.4195098876953 C 482.0017700195312 225.3271789550781 481.8475341796875 225.2906799316406 481.6865844726562 225.3787994384766 C 479.6986083984375 226.4669189453125 477.9323120117188 228.5082397460938 478.5074157714844 230.9257202148438 C 479.1068420410156 233.4446716308594 481.6810302734375 233.9431457519531 483.9473266601562 233.6623687744141 C 486.2225952148438 233.3802490234375 487.578857421875 230.7378234863281 487.2040405273438 228.5822143554688 C 486.8602294921875 226.6043548583984 484.0927734375 224.7707824707031 482.1099243164062 225.4195098876953 M 482.7685852050781 232.9341430664062 C 481.8530578613281 232.8993682861328 480.797607421875 232.8781433105469 480.0841064453125 232.2250366210938 C 479.4974975585938 231.6879577636719 479.1873168945312 230.8721923828125 479.1620788574219 230.0875854492188 C 479.1083374023438 228.4230041503906 480.3165283203125 227.1240539550781 481.651611328125 226.2874450683594 C 481.7548217773438 226.3528137207031 481.8880310058594 226.3686828613281 482.0260314941406 226.2878265380859 C 483.0390625 225.6962585449219 484.0899047851562 226.2448272705078 484.9630126953125 226.8281707763672 C 485.7105102539062 227.3276062011719 486.2674865722656 227.8941192626953 486.4341735839844 228.6993713378906 C 486.27783203125 228.5950164794922 486.1220703125 228.4900817871094 485.9647216796875 228.3870544433594 C 485.9385375976562 228.3230285644531 485.91162109375 228.2591857910156 485.8854370117188 228.1949768066406 C 485.8445129394531 228.0940551757812 485.6927490234375 228.1238708496094 485.6952514648438 228.2133178710938 C 485.5264892578125 228.1041870117188 485.3582763671875 227.9944763183594 485.1885375976562 227.8868713378906 C 485.0843505859375 227.8207244873047 484.9882202148438 227.9860534667969 485.092041015625 228.0518035888672 C 485.3334350585938 228.2049102783203 485.573486328125 228.360107421875 485.8128051757812 228.5164489746094 C 485.8890380859375 228.7024383544922 485.96533203125 228.8883972167969 486.042724609375 229.0738067626953 C 485.7349853515625 228.8979644775391 485.4427490234375 228.6986083984375 485.1640625 228.4782409667969 C 485.0706176757812 228.2586212158203 484.9769897460938 228.0390014648438 484.8834838867188 227.819580078125 C 484.8355102539062 227.7066192626953 484.6707763671875 227.8039093017578 484.7185363769531 227.9159240722656 C 484.7634582519531 228.0218048095703 484.80859375 228.1275024414062 484.8536987304688 228.2332000732422 C 484.7669067382812 228.2045288085938 484.6719360351562 228.3169250488281 484.7533569335938 228.3883972167969 C 484.8364562988281 228.4612121582031 484.9230346679688 228.5286865234375 485.0086669921875 228.5973205566406 C 485.1010131835938 228.8138580322266 485.193115234375 229.0304107666016 485.2854309082031 229.2469787597656 C 485.0933532714844 229.1078186035156 484.9104309082031 228.9547424316406 484.7376708984375 228.7861480712891 C 484.6497192382812 228.7001342773438 484.514404296875 228.8350830078125 484.6025390625 228.9212799072266 C 484.8557739257812 229.1684112548828 485.1298828125 229.384765625 485.4232788085938 229.5707702636719 C 485.4786987304688 229.7005310058594 485.533935546875 229.8305053710938 485.5891723632812 229.9602966308594 C 485.470458984375 229.8937835693359 485.3538818359375 229.8224792480469 485.24169921875 229.7408752441406 C 485.14208984375 229.6682434082031 485.0467224121094 229.8341369628906 485.1451416015625 229.9058227539062 C 485.323486328125 230.0357971191406 485.5115356445312 230.1462707519531 485.7080383300781 230.2393493652344 C 485.7485656738281 230.3345336914062 485.7890625 230.4295196533203 485.82958984375 230.5247192382812 C 485.505615234375 230.3328247070312 485.181640625 230.1409149169922 484.8576965332031 229.9490051269531 C 484.809326171875 229.8536376953125 484.760986328125 229.7584533691406 484.7126159667969 229.6630859375 C 484.656982421875 229.5533599853516 484.4920654296875 229.6498870849609 484.5474853515625 229.7595977783203 C 484.585693359375 229.8345184326172 484.6237487792969 229.9096374511719 484.6618041992188 229.9847564697266 C 484.6546936035156 230.0197296142578 484.6659851074219 230.0577697753906 484.7057495117188 230.0812683105469 L 484.7130126953125 230.0854797363281 C 484.8043823242188 230.2655334472656 484.8957214355469 230.4457702636719 484.9870910644531 230.6258239746094 C 484.8905639648438 230.5541381835938 484.7949829101562 230.4809417724609 484.7020874023438 230.4033355712891 C 484.6128540039062 230.3287963867188 484.4878540039062 230.4467315673828 484.5572204589844 230.5262451171875 C 484.50390625 230.5411376953125 484.457275390625 230.6015472412109 484.4878540039062 230.6676788330078 C 484.548828125 230.7997436523438 484.60595703125 230.9331665039062 484.6648254394531 231.0660095214844 C 484.5157470703125 230.9662322998047 484.369140625 230.8628234863281 484.224853515625 230.7550354003906 C 484.1264038085938 230.6814270019531 484.0310363769531 230.8471527099609 484.1285095214844 230.9199829101562 C 484.3477478027344 231.0837707519531 484.5742492675781 231.2351684570312 484.8043823242188 231.3802185058594 C 484.8536987304688 231.4949035644531 484.9001159667969 231.6111145019531 484.9479064941406 231.7265625 C 484.7814331054688 231.6268005371094 484.6185913085938 231.5207214355469 484.4588012695312 231.4094696044922 C 484.4182739257812 231.3144836425781 484.3779296875 231.219482421875 484.3376159667969 231.1246795654297 C 484.2896118164062 231.01171875 484.1248779296875 231.1090087890625 484.1724853515625 231.2210083007812 L 484.2051391601562 231.2978515625 C 484.1575622558594 231.3326416015625 484.1392211914062 231.4180603027344 484.2032470703125 231.4647064208984 C 484.237060546875 231.4893798828125 484.2722473144531 231.5119171142578 484.3064575195312 231.5360107421875 C 484.406982421875 231.7722473144531 484.50732421875 232.0086822509766 484.6078796386719 232.2449188232422 C 484.4341430664062 232.1460876464844 484.2605590820312 232.0474853515625 484.0870361328125 231.9486694335938 C 484.0394287109375 231.7697601318359 483.9866943359375 231.5920104980469 483.9240112304688 231.4159698486328 C 483.8829040527344 231.3009033203125 483.6980590820312 231.3504028320312 483.7395629882812 231.4668121337891 C 483.787353515625 231.6007995605469 483.82958984375 231.7359313964844 483.8689575195312 231.8720245361328 C 483.8098754882812 231.9028015136719 483.7835083007812 231.9960632324219 483.8590087890625 232.0388793945312 C 483.8807983398438 232.0514831542969 483.9027709960938 232.0639190673828 483.924560546875 232.0763244628906 C 483.9580078125 232.2066955566406 483.9884033203125 232.3377990722656 484.0136108398438 232.4702758789062 C 483.8742980957031 232.3708801269531 483.7374267578125 232.2678527832031 483.6044006347656 232.15966796875 C 483.5843505859375 232.0574188232422 483.5650329589844 231.9549560546875 483.5478515625 231.8519439697266 C 483.5277709960938 231.7307739257812 483.343505859375 231.7821655273438 483.3635864257812 231.9028015136719 C 483.3668212890625 231.9224853515625 483.3710632324219 231.9419860839844 483.3744812011719 231.961669921875 C 483.3387451171875 231.9303131103516 483.3014526367188 231.9006805419922 483.26611328125 231.8685760498047 C 483.2389526367188 231.8437194824219 483.2081909179688 231.840087890625 483.1802978515625 231.8469848632812 C 483.1649780273438 231.6625366210938 483.146240234375 231.4780883789062 483.120849609375 231.29345703125 C 483.1040344238281 231.1722717285156 482.9197998046875 231.223876953125 482.9364013671875 231.3442993164062 C 483.0097961425781 231.8746948242188 483.0344543457031 232.4060363769531 483.0180053710938 232.9400787353516 C 482.9346923828125 232.9391174316406 482.8515625 232.9372100830078 482.7685852050781 232.9341430664062 M 486.3388061523438 230.2729797363281 C 486.3349609375 230.2714538574219 486.3324584960938 230.2687683105469 486.3282775878906 230.2676391601562 C 486.1629333496094 230.2215576171875 486.0050659179688 230.1615600585938 485.8517761230469 230.0925598144531 C 485.800537109375 229.9725189208984 485.7493286132812 229.852294921875 485.6980895996094 229.7322692871094 C 485.9196472167969 229.8532562255859 486.1509094238281 229.9589538574219 486.3921203613281 230.0472564697266 L 486.3932495117188 230.0474548339844 C 486.3777770996094 230.1227569580078 486.35791015625 230.1978759765625 486.3388061523438 230.2729797363281 M 485.5547485351562 231.9744720458984 C 485.5394897460938 231.9953002929688 485.5228271484375 232.0134582519531 485.5071716308594 232.0335235595703 C 485.4089050292969 231.9840087890625 485.31201171875 231.9324188232422 485.2156982421875 231.8792724609375 C 485.1715393066406 231.7697601318359 485.1268310546875 231.6602325439453 485.0811157226562 231.5511169433594 C 485.2626953125 231.6575622558594 485.4483032226562 231.7571411132812 485.6365661621094 231.8525238037109 C 485.6092224121094 231.8930358886719 485.583251953125 231.9354858398438 485.5547485351562 231.9744720458984 M 485.1214599609375 231.3542327880859 C 485.1088256835938 231.3334045410156 485.0880126953125 231.3184814453125 485.05859375 231.3146667480469 C 485.0232238769531 231.2932739257812 484.9888000488281 231.2703247070312 484.9536437988281 231.2483520507812 C 484.8634338378906 231.0394287109375 484.771484375 230.831298828125 484.6764831542969 230.6242980957031 C 484.8355102539062 230.7517700195312 484.99951171875 230.8717956542969 485.16845703125 230.9834289550781 C 485.2625122070312 231.1682586669922 485.3563537597656 231.353271484375 485.4501953125 231.5382995605469 C 485.3399047851562 231.4780883789062 485.2294311523438 231.41845703125 485.1214599609375 231.3542327880859 M 485.7420654296875 231.6919708251953 C 485.6547241210938 231.5197448730469 485.5673828125 231.3477325439453 485.480224609375 231.1757202148438 C 485.6195678710938 231.2567443847656 485.761962890625 231.3330078125 485.9077758789062 231.4037322998047 C 485.8559875488281 231.5025634765625 485.801513671875 231.5994567871094 485.7437744140625 231.6927337646484 L 485.7420654296875 231.6919708251953 M 486.0507507324219 231.0438232421875 C 486.0553283691406 231.0547180175781 486.0618286132812 231.0619812011719 486.0683288574219 231.0692443847656 C 486.0442504882812 231.1246795654297 486.0167236328125 231.1778259277344 485.9909057617188 231.2321014404297 C 485.7579345703125 231.1189422607422 485.532958984375 230.9933776855469 485.3167724609375 230.8536529541016 C 485.2174072265625 230.6581268310547 485.1182250976562 230.46240234375 485.018798828125 230.2666778564453 C 485.3313293457031 230.4516906738281 485.643798828125 230.6369018554688 485.9561462402344 230.8219299316406 C 485.9876708984375 230.8958892822266 486.0192260742188 230.9698486328125 486.0507507324219 231.0438232421875 M 486.1977233886719 230.7427978515625 C 486.1669616699219 230.7244415283203 486.1361694335938 230.706298828125 486.105224609375 230.6879272460938 C 486.056884765625 230.5744018554688 486.0085144042969 230.4606628417969 485.9599609375 230.3469543457031 C 486.0637512207031 230.3865203857422 486.16943359375 230.421875 486.2774353027344 230.4518890380859 C 486.2822265625 230.4532318115234 486.2862243652344 230.4522705078125 486.2908325195312 230.4528503417969 C 486.2621459960938 230.5501251220703 486.2319641113281 230.6470336914062 486.1977233886719 230.7427978515625 M 485.5738525390625 229.4402160644531 C 485.4869079589844 229.2362670898438 485.400146484375 229.0323333740234 485.3131713867188 228.8282012939453 C 485.583251953125 229.0225830078125 485.8659057617188 229.1978454589844 486.1612243652344 229.3538208007812 C 486.2286987304688 229.5136108398438 486.297119140625 229.6730194091797 486.3657531738281 229.8324279785156 C 486.0874633789062 229.7250061035156 485.8233032226562 229.5944519042969 485.5738525390625 229.4402160644531 M 486.4261474609375 229.4912414550781 C 486.4288330078125 229.4924011230469 486.4310913085938 229.4939270019531 486.43359375 229.4950561523438 C 486.4462280273438 229.5011901855469 486.4588317871094 229.503662109375 486.4708557128906 229.5044250488281 C 486.46875 229.5292663574219 486.4662780761719 229.5539398193359 486.463623046875 229.5787963867188 C 486.451171875 229.5497436523438 486.4387512207031 229.5204925537109 486.4261474609375 229.4912414550781 M 486.4840393066406 229.3062286376953 C 486.4244384765625 229.2773590087891 486.3668823242188 229.2456359863281 486.3084106445312 229.2154235839844 C 486.236328125 229.0449371337891 486.1656188964844 228.8738708496094 486.0949096679688 228.7028198242188 C 486.2218322753906 228.7865295410156 486.3483276367188 228.8708190917969 486.4744873046875 228.9554901123047 C 486.4853820800781 229.0675048828125 486.4874877929688 229.1850433349609 486.4840393066406 229.3062286376953 M 484.7718505859375 232.6308288574219 C 484.6692504882812 232.6816711425781 484.5635375976562 232.7252502441406 484.45458984375 232.7615661621094 C 484.3787231445312 232.7147216796875 484.303955078125 232.6663818359375 484.2300109863281 232.6172485351562 C 484.2074584960938 232.4786682128906 484.1812744140625 232.341064453125 484.1504821777344 232.2047729492188 C 484.3441162109375 232.3148803710938 484.5375366210938 232.4247741699219 484.7311401367188 232.5348815917969 C 484.7447204589844 232.5667877197266 484.75830078125 232.5989074707031 484.7718505859375 232.6308288574219 M 483.1951904296875 232.0589447021484 C 483.272216796875 232.1277465820312 483.3504028320312 232.1952209472656 483.429931640625 232.260986328125 C 483.4748229980469 232.4840240478516 483.526611328125 232.7051696777344 483.5855102539062 232.9247741699219 C 483.4608764648438 232.9339599609375 483.3351135253906 232.9389343261719 483.2088012695312 232.9402770996094 C 483.2177734375 232.6455383300781 483.2131652832031 232.3519592285156 483.1951904296875 232.0589447021484 M 483.778564453125 232.90625 C 483.7372436523438 232.7540893554688 483.7003784179688 232.6009979248047 483.665771484375 232.4473266601562 C 483.7932739257812 232.5453796386719 483.9234008789062 232.6396179199219 484.0562744140625 232.7300262451172 C 484.0617980957031 232.7674865722656 484.0692443847656 232.8045654296875 484.07421875 232.8422241210938 C 484.0749816894531 232.8487243652344 484.0782470703125 232.8534851074219 484.0799560546875 232.8592224121094 C 483.98095703125 232.87890625 483.8804321289062 232.8944091796875 483.778564453125 232.90625 M 485.0266723632812 232.4830627441406 C 484.9775390625 232.4551696777344 484.9285888671875 232.4272613525391 484.8794860839844 232.3993530273438 C 484.7852478027344 232.1776428222656 484.6908569335938 231.9557189941406 484.5966186523438 231.7338256835938 C 484.7498779296875 231.8332214355469 484.906982421875 231.9259185791016 485.0662231445312 232.0151824951172 C 485.0897216796875 232.0738525390625 485.1149597167969 232.1317749023438 485.1380615234375 232.1906433105469 C 485.1802978515625 232.2976684570312 485.3456420898438 232.2584838867188 485.3254089355469 232.1569976806641 C 485.3429565429688 232.1659851074219 485.361328125 232.1740112304688 485.37890625 232.1829833984375 C 485.2695922851562 232.2990112304688 485.15185546875 232.3985900878906 485.0266723632812 232.4830627441406" fill="#231f20" stroke="#ffffff" stroke-width="1"/>
</svg>