<svg xmlns="http://www.w3.org/2000/svg" width="1" height="1" viewBox="164.5330200195312 260.6390380859375 1.3632354736328978 1" fill="none">
  <path d="M 165.745361328125 260.6390380859375 C 165.8962554931641 260.7168884277344 165.5589447021484 260.86376953125 165.745361328125 260.9932556152344 C 165.6731719970703 260.9249877929688 165.5234375 261.0149536132812 165.2904663085938 261.043701171875 C 165.4252777099609 261.0880126953125 165.5087738037109 261.2149047851562 165.3412780761719 261.2966918945312 C 165.2704772949219 261.2786254882812 165.3370361328125 261.2076110839844 165.3917236328125 261.1951904296875 C 165.1283569335938 260.9249877929688 165.3485717773438 261.3905944824219 165.0381011962891 261.2966918945312 C 165.1610412597656 261.0964660644531 164.9819793701172 261.3335876464844 164.9368591308594 261.1951904296875 C 164.8226013183594 261.2205200195312 164.8263092041016 261.4436340332031 164.6844329833984 261.2966918945312 C 164.6494750976562 261.4323425292969 164.7888031005859 261.3940124511719 164.8356018066406 261.4481201171875 C 165.0183258056641 261.4212646484375 164.6071929931641 261.4734802246094 164.7346496582031 261.4988708496094 C 164.6906585693359 261.5750427246094 164.6593475341797 261.4841918945312 164.5330200195312 261.5487976074219 C 164.6275024414062 261.4529113769531 164.5380859375 261.4216003417969 164.5330200195312 261.2966918945312 C 164.5947570800781 261.3525390625 164.6362152099609 261.3406982421875 164.6336975097656 261.2458801269531 C 164.8711395263672 261.3767700195312 164.8700256347656 261.0273742675781 165.0888366699219 260.9932556152344 C 165.061767578125 261.0335693359375 165.0363922119141 261.0753173828125 165.0381011962891 261.145263671875 C 165.2428436279297 260.8378601074219 165.447265625 260.8434753417969 165.745361328125 260.6390380859375" fill="#2777df" stroke="none" stroke-width="0"/>
</svg>