<svg xmlns="http://www.w3.org/2000/svg" width="2" height="2" viewBox="226.6049957275391 33.08070755004883 1.637130737304716 1.7776222229003906" fill="none">
  <path d="M 228.0354461669922 34.85832977294922 C 227.8817596435547 34.65762710571289 227.8649139404297 34.39602279663086 227.8060455322266 34.10260772705078 C 227.7896728515625 34.02145767211914 227.7454376220703 33.92525863647461 227.7251129150391 33.83262252807617 C 227.7010650634766 33.72292709350586 227.7066497802734 33.61136245727539 227.6711120605469 33.54914474487305 C 227.6024627685547 33.42927932739258 227.3102874755859 33.39103317260742 227.1581573486328 33.36030960083008 C 226.9510803222656 33.31802749633789 226.7517852783203 33.29389953613281 226.6049957275391 33.21181869506836 C 226.6373443603516 33.12399673461914 226.8490600585938 33.08070755004883 226.9557342529297 33.09032821655273 C 227.2802581787109 33.11980819702148 227.7778778076172 33.17046737670898 227.9139556884766 33.36030960083008 C 227.9539794921875 33.41609191894531 227.9745483398438 33.53890228271484 228.0083770751953 33.61679458618164 C 228.0884399414062 33.79957580566406 228.2156677246094 33.97172927856445 228.2108612060547 34.15644836425781 C 228.2089233398438 34.23279190063477 228.1504211425781 34.31355285644531 228.1434326171875 34.39951324462891 C 228.1305541992188 34.55312347412109 228.2421264648438 34.80060577392578 228.0354461669922 34.85832977294922" fill="#ff4d16" stroke="none" stroke-width="0"/>
</svg>