<svg xmlns="http://www.w3.org/2000/svg" width="22" height="7" viewBox="43.907958984375 10.92703247070312 21.770751953125 6.853519439697271" fill="none">
  <path d="M 64.69551849365234 11.08290386199951 C 64.63157653808594 11.16843318939209 64.56682586669922 11.25316333770752 64.50287628173828 11.3386926651001 C 64.66835021972656 11.24357223510742 64.83461761474609 11.1484489440918 65.00007629394531 11.05332851409912 C 64.09202575683594 11.01416110992432 63.20396423339844 11.34108924865723 62.32709503173828 11.54572105407715 C 61.38386535644531 11.76553821563721 60.44065856933594 11.95737934112549 59.48225402832031 12.09886264801025 C 57.69972229003906 12.36264228820801 56.09705352783203 12.70396041870117 54.51596450805664 13.60721015930176 C 52.94607162475586 14.50486469268799 51.52404403686523 15.31539630889893 49.69756698608398 15.55119800567627 C 47.97738265991211 15.77421283721924 46.36032867431641 15.33617877960205 44.65693283081055 15.35935878753662 C 44.17573165893555 15.36575412750244 43.907958984375 15.97244930267334 44.25966262817383 16.31856536865234 C 45.5106315612793 17.54954147338867 47.35469818115234 17.78055191040039 49.05648803710938 17.73818588256836 C 50.91255569458008 17.692626953125 52.76381683349609 17.07473754882812 54.33530807495117 16.10194396972656 C 55.20658874511719 15.56238842010498 56.01552581787109 14.87096309661865 56.97872924804688 14.49367618560791 C 57.87158203125 14.14356899261475 58.85476684570312 14.02286624908447 59.79479217529297 13.87019443511963 C 61.59169769287109 13.57763671875 63.99769592285156 13.29067325592041 65.40773773193359 12.03651332855225 C 65.6787109375 11.79591274261475 65.60597229003906 11.29872608184814 65.29103088378906 11.13166427612305 L 65.03204345703125 10.99497699737549 C 64.90414428710938 10.92703247070312 64.77865600585938 10.97259616851807 64.69551849365234 11.08290386199951" fill="#2473d8" stroke="none" stroke-width="0"/>
</svg>