<svg xmlns="http://www.w3.org/2000/svg" width="252" height="261" viewBox="0.004691757261753082 0.03988273069262505 252.18198426812884 260.6782569177449" fill="none">
  <path d="M 207.1924285888672 196.3808441162109 L 185.4303131103516 203.8905944824219 C 182.9833679199219 205.4542388916016 177.5698089599609 207.3181762695312 174.4178924560547 207.6911926269531 L 114.9779968261719 228.2052001953125 C 115.6360778808594 232.5559997558594 115.6888656616211 237.5179290771484 113.9128875732422 241.7079925537109 C 111.3662490844727 247.7103881835938 110.6940841674805 256.6887817382812 110.688232421875 256.7791137695312 C 110.6401290893555 257.4395141601562 110.1697463989258 257.9943542480469 109.5257568359375 258.1503601074219 C 108.8817596435547 258.3040466308594 108.209602355957 258.0271911621094 107.8647384643555 257.4618225097656 C 105.9526977539062 254.3216247558594 104.7655868530273 251.0453186035156 104.0781860351562 248.6957550048828 C 102.7573547363281 252.0224609375 103.3391723632812 256.8541870117188 103.7954788208008 258.85302734375 C 103.9561996459961 259.5615539550781 103.596076965332 260.2853088378906 102.9333038330078 260.583251953125 C 102.7315444946289 260.6747436523438 102.5192413330078 260.7181396484375 102.3092651367188 260.7181396484375 C 101.8283081054688 260.7181396484375 101.3626327514648 260.4905700683594 101.0681915283203 260.0800170898438 C 100.7467803955078 259.6295776367188 93.22647094726562 248.9526214599609 96.32914733886719 240.1889038085938 C 97.10099792480469 238.012939453125 97.5526123046875 235.9882659912109 97.80715179443359 234.1313629150391 L 82.89674377441406 239.2774658203125 C 82.86859130859375 239.286865234375 82.83927154541016 239.2833251953125 82.81111907958984 239.2915496826172 C 82.70201873779297 239.3220520019531 82.59175872802734 239.3407897949219 82.47796630859375 239.3466644287109 C 82.45217132568359 239.3490447998047 82.42519378662109 239.3607330322266 82.39938354492188 239.3607330322266 C 82.37240600585938 239.3607330322266 82.34542083740234 239.3525543212891 82.31844329833984 239.3501892089844 C 82.29380798339844 239.3501892089844 82.26918029785156 239.3549041748047 82.24453735351562 239.3525543212891 C 72.31013488769531 238.3495941162109 62.976318359375 241.5719146728516 57.88536071777344 247.7784423828125 C 57.42787551879883 248.3368072509766 56.75455093383789 248.6605682373047 56.03900909423828 248.6675872802734 C 55.31993865966797 248.6675872802734 54.66186141967773 248.36376953125 54.20672607421875 247.8323669433594 L 40.90689086914062 232.2685852050781 C 40.87169647216797 232.2275238037109 40.84823989868164 232.1782684326172 40.81656646728516 232.1336822509766 C 40.79310607910156 232.0973052978516 40.76729965209961 232.0644989013672 40.74618148803711 232.0257720947266 C 40.71451187133789 231.9706573486328 40.68870544433594 231.9131469726562 40.66524505615234 231.8545227050781 C 40.64999389648438 231.8169555664062 40.63709259033203 231.7806243896484 40.62418746948242 231.7430877685547 C 40.61128234863281 231.7031860351562 40.59134292602539 231.6656494140625 40.58195877075195 231.6234130859375 L 0.2273106276988983 57.97359848022461 C -1.052467346191406 52.46621704101562 3.136430025100708 47.24621963500977 11.1587963104248 44.35000228881836 C 17.77352714538574 41.96405029296875 25.97771072387695 41.87959671020508 29.29856300354004 46.0391731262207 L 56.93754959106445 36.81327056884766 C 55.14163589477539 28.61963844299316 50.39320373535156 22.51987266540527 50.33220672607422 22.44362449645996 C 50.00727081298828 22.03306579589844 49.91460037231445 21.48525810241699 50.08704376220703 20.99258422851562 C 50.25830078125 20.49873924255371 50.67120742797852 20.12806129455566 51.18031311035156 20.00958442687988 L 62.17396545410156 17.45471954345703 C 62.88482284545898 17.2928409576416 63.61444473266602 17.65296173095703 63.91122436523438 18.3204174041748 C 64.10946655273438 18.76382446289062 67.32239532470703 26.04835510253906 69.00570678710938 32.78507614135742 L 73.38580322265625 31.3234806060791 C 71.70954132080078 24.04012298583984 67.13236999511719 12.78370571136475 63.71063232421875 5.481579303741455 C 63.44905090332031 4.923215866088867 63.54875564575195 4.26162576675415 63.96517944335938 3.806489706039429 C 64.38160705566406 3.350180149078369 65.03147125244141 3.191820621490479 65.61094665527344 3.401793479919434 L 71.59224700927734 5.571902751922607 L 74.20809936523438 0.7917965054512024 C 74.4779052734375 0.3002959489822388 75.01397705078125 0.03988273069262505 75.55826568603516 -3.680123086269305e-07 C 76.12014770507812 0.004691757261753082 76.63275909423828 0.317891389131546 76.89434814453125 0.8152570128440857 C 77.2110595703125 1.415849566459656 83.45980834960938 13.41479682922363 86.0662841796875 27.09117698669434 L 115.9304962158203 17.12274932861328 C 116.5052871704102 16.2769947052002 117.605598449707 15.4758129119873 119.2595672607422 14.69574642181396 C 121.93994140625 13.42887115478516 126.7165451049805 12.03882789611816 129.3159637451172 12.65466976165771 L 145.0733184814453 7.394794464111328 C 148.1020812988281 6.391851425170898 151.42529296875 6.722646713256836 154.1948089599609 8.298028945922852 C 156.6745910644531 9.711532592773438 158.5127410888672 12.01771450042725 159.3620147705078 14.71803379058838 L 164.8694152832031 17.4488525390625 C 168.2336578369141 16.42010307312012 171.2049560546875 16.55383110046387 173.4735870361328 17.86645317077637 C 175.731689453125 19.17438507080078 177.2261352539062 21.52748489379883 177.9158630371094 24.86359024047852 L 214.7924652099609 183.2276306152344 C 216.0265197753906 188.8699035644531 212.7572479248047 194.5157012939453 207.1924285888672 196.3808441162109 M 109.6958389282227 219.8637847900391 L 100.1497039794922 223.1435699462891 C 101.001335144043 226.0315856933594 102.2283248901367 232.6650848388672 99.20424652099609 241.2070922851562 C 97.94793701171875 244.7531585693359 98.92858123779297 248.8763885498047 100.2740631103516 252.1866760253906 C 100.4863815307617 249.1731567382812 101.3637924194336 245.9332580566406 103.8130722045898 243.9390716552734 C 104.2330322265625 243.5965576171875 104.8019485473633 243.5015258789062 105.3098831176758 243.6939239501953 C 105.8166275024414 243.8827819824219 106.1849517822266 244.3273773193359 106.2776260375977 244.8622436523438 C 106.2846603393555 244.9021453857422 106.8113555908203 247.8617248535156 108.2588729858398 251.4347686767578 C 108.7656173706055 248.1855010986328 109.6442260742188 243.9637451171875 111.105827331543 240.5161895751953 C 114.0677261352539 233.5343017578125 110.9803085327148 223.4520721435547 109.6958389282227 219.8637847900391 M 3.197427988052368 57.28268432617188 L 42.73916625976562 227.4415740966797 C 48.88468551635742 220.3153991699219 63.94172286987305 215.4121246337891 74.27378845214844 217.430908203125 L 27.25279808044434 48.4180793762207 C 26.27097129821777 46.64445495605469 23.61053276062012 45.71541595458984 20.24862289428711 45.71541595458984 C 17.80871772766113 45.71541595458984 14.99813270568848 46.20573806762695 12.19458389282227 47.21806335449219 C 7.369903087615967 48.95884323120117 2.11823844909668 52.64099502563477 3.197427988052368 57.28268432617188 M 54.08356094360352 22.4647388458252 C 55.75395584106445 25.00200843811035 58.51175689697266 29.845458984375 59.86894989013672 35.83496475219727 L 66.10948944091797 33.75165557861328 C 64.96343231201172 29.12169647216797 62.93643569946289 23.8137264251709 61.62498474121094 20.71223068237305 L 54.08356094360352 22.4647388458252 Z M 30.53494071960449 48.84037017822266 L 65.0760498046875 172.9917602539062 L 77.49610900878906 217.6361846923828 L 156.6781311035156 190.9133453369141 L 115.9058685302734 20.34506988525391 L 30.53494071960449 48.84037017822266 Z M 67.98046875 7.503886699676514 C 70.31832122802734 12.76728343963623 74.52013397216797 22.78380584716797 76.252685546875 30.36628341674805 L 83.13722229003906 28.06831359863281 C 81.31550598144531 18.28405380249023 77.46795654296875 9.163726806640625 75.46558380126953 4.845795631408691 L 73.63800048828125 8.183072090148926 C 73.27671051025391 8.842316627502441 72.48843383789062 9.137920379638672 71.78109741210938 8.883373260498047 L 67.98046875 7.503886699676514 Z M 146.0352172851562 10.28866481781006 L 131.1541137695312 15.25528240203857 L 172.7052459716797 185.5045013427734 L 188.37109375 180.2176361083984 C 192.3465118408203 178.87451171875 194.6690979003906 174.7700805664062 193.7717437744141 170.6703186035156 L 156.6546630859375 16.36262512207031 C 156.1502532958984 14.06113624572754 154.7074279785156 12.09865379333496 152.6862945556641 10.94790840148926 C 150.6663360595703 9.797163963317871 148.2428436279297 9.557864189147949 146.0352172851562 10.28866481781006 M 171.4231262207031 189.5033569335938 C 169.1732482910156 190.9063110351562 165.1603240966797 192.5110168457031 161.9567718505859 193.1948852539062 L 173.6859130859375 204.7563018798828 C 175.4079284667969 204.743408203125 180.5282135009766 203.0166931152344 182.9516906738281 201.8307647705078 L 171.4231262207031 189.5033569335938 Z M 159.7197875976562 190.5285949707031 C 161.9286193847656 190.36669921875 167.5732421875 188.4617004394531 169.9075775146484 186.8956909179688 L 128.0760803222656 15.5051383972168 C 125.78515625 15.37024021148682 119.9235076904297 17.2330150604248 118.6249618530273 18.60663604736328 L 159.7197875976562 190.5285949707031 Z M 160.3285980224609 18.60077285766602 L 196.7430114746094 169.9888000488281 C 197.1911163330078 172.0345764160156 197.0526885986328 174.0744781494141 196.4438934326172 175.9348907470703 L 202.6480560302734 181.2792358398438 L 166.4764556884766 21.64948272705078 L 160.3285980224609 18.60077285766602 Z M 195.0585327148438 178.7666015625 C 193.7212829589844 180.7361297607422 191.7564544677734 182.2915496826172 189.3458862304688 183.1056213378906 L 174.3475189208984 188.1672515869141 L 178.7780609130859 192.9039764404297 L 202.1495208740234 184.8734130859375 L 195.0585327148438 178.7666015625 Z M 162.8647003173828 198.3714904785156 L 158.0822601318359 193.6570587158203 L 78.51078033447266 220.5112762451172 L 81.07034301757812 226.4749755859375 L 97.71097564697266 220.7576141357422 L 104.5286331176758 218.4150848388672 L 162.8647003173828 198.3714904785156 Z M 43.88052749633789 231.0545196533203 L 49.47940826416016 237.6070556640625 C 53.39498901367188 235.1683349609375 66.48133850097656 227.5377655029297 77.928955078125 226.8831939697266 L 75.33303833007812 220.83740234375 C 65.57810211181641 217.8696136474609 48.08701705932617 223.6139678955078 43.88052749633789 231.0545196533203 M 51.48881149291992 239.9578247070312 L 56.02257919311523 245.2634582519531 C 61.45841598510742 239.0921478271484 70.61393737792969 235.6997222900391 80.45097351074219 236.1630706787109 L 79.01284027099609 229.8955383300781 C 68.55760192871094 230.1102294921875 55.75160980224609 237.3607330322266 51.48881149291992 239.9578247070312 M 83.50555419921875 235.8416595458984 L 98.06523132324219 230.8163909912109 C 98.11215972900391 227.7934722900391 97.6429443359375 225.4743957519531 97.26171112060547 224.1359710693359 L 82.02049255371094 229.3723754882812 L 83.50555419921875 235.8416595458984 Z M 114.4126129150391 225.1752777099609 L 170.4413146972656 205.8390045166016 L 165.29052734375 200.7621307373047 L 112.5861892700195 218.8702087402344 C 113.0894165039062 220.2649688720703 113.8202133178711 222.5031127929688 114.4126129150391 225.1752777099609 M 206.2105712890625 193.4940032958984 C 210.3091583251953 192.1203918457031 212.7150421142578 187.9971923828125 211.81884765625 183.8986206054688 L 174.9375305175781 25.5169677734375 C 174.4237518310547 23.03131484985352 173.4196472167969 21.35857009887695 171.9463043212891 20.50577545166016 C 171.0782775878906 20.00371742248535 170.0882110595703 19.81603050231934 169.0934906005859 19.81016731262207 C 169.1802978515625 19.95210456848145 169.2518463134766 20.10342597961426 169.2893829345703 20.26882171630859 L 206.6446075439453 185.1150512695312 C 206.6516418457031 185.1479034423828 206.6469421386719 185.1819000244141 206.6516418457031 185.2147521972656 C 206.6645202636719 185.2945251464844 206.6715698242188 185.3742828369141 206.6703948974609 185.4564056396484 C 206.6703948974609 185.5197601318359 206.6680603027344 185.5795593261719 206.6598510742188 185.6417388916016 C 206.6563415527344 185.6745758056641 206.6610260009766 185.7074279785156 206.6539916992188 185.7402648925781 C 206.6457672119141 185.7848358154297 206.6234893798828 185.8235473632812 206.6117706298828 185.8669586181641 C 206.5941619873047 185.9267883300781 206.5777282714844 185.9854431152344 206.5531158447266 186.0429229736328 C 206.5214385986328 186.1179962158203 206.4815673828125 186.18603515625 206.4393157958984 186.2540588378906 C 206.4088134765625 186.3021392822266 206.3806915283203 186.3514251708984 206.3442993164062 186.3971557617188 C 206.2879943847656 186.4687194824219 206.2223052978516 186.528564453125 206.1542663574219 186.5883636474609 C 206.1237640380859 186.6141815185547 206.1038360595703 186.648193359375 206.0709991455078 186.6716613769531 C 205.9255218505859 186.7713470458984 205.7953033447266 186.8452606201172 205.6533660888672 186.8945465087891 L 181.0596008300781 195.3439025878906 L 185.8889465332031 200.5075531005859 L 206.2105712890625 193.4940032958984 Z" fill="#2574da" stroke="none" stroke-width="0"/>
</svg>