<svg xmlns="http://www.w3.org/2000/svg" width="18" height="10" viewBox="30.22550010681152 94.37420654296875 17.76048088073731 9.803878784179645" fill="none">
  <path d="M 30.42214012145996 96.14152526855469 C 31.05201530456543 97.72981262207031 32.53558731079102 98.89285278320312 33.79374694824219 99.98553466796875 C 35.06309127807617 101.0878295898438 36.39958572387695 102.3028259277344 37.86877059936523 103.1333465576172 C 39.71683502197266 104.1780853271484 41.26754760742188 102.4866638183594 42.58405685424805 101.3580017089844 C 43.99009323120117 100.1534118652344 45.34896087646484 98.89204406738281 46.68145751953125 97.60751342773438 C 47.98598098754883 96.34854125976562 46.00521850585938 94.37420654296875 44.69430541992188 95.620361328125 C 43.58642959594727 96.673095703125 42.45775604248047 97.70343017578125 41.3043212890625 98.70661926269531 C 40.71041488647461 99.22297668457031 40.11489868164062 99.73774719238281 39.51459884643555 100.2469329833984 C 39.42587280273438 100.3228607177734 39.12612533569336 100.4971160888672 39.09095001220703 100.6050415039062 C 39.02540588378906 100.8024597167969 39.01660919189453 100.5626525878906 39.21884918212891 100.6985473632812 C 38.97345352172852 100.5330657958984 38.72405624389648 100.3532257080078 38.4770622253418 100.1829681396484 C 37.28125 99.35804748535156 36.08384704589844 98.5323486328125 34.92081451416016 97.66107177734375 C 33.78015899658203 96.80657958984375 32.65948486328125 95.72267150878906 31.27742958068848 95.28622436523438 C 30.80741691589355 95.13754272460938 30.22550010681152 95.6451416015625 30.42214012145996 96.14152526855469" fill="#2473d8" stroke="none" stroke-width="0"/>
</svg>