<svg xmlns="http://www.w3.org/2000/svg" width="10" height="16" viewBox="0.4956026673316956 50.89630889892578 9.833448350429535 16.017127990722656" fill="none">
  <path d="M 8.511358261108398 53.34547805786133 C 8.149257659912109 51.72921752929688 6.068583011627197 50.89630889892578 4.568226337432861 50.93467330932617 C 2.689783573150635 50.98342895507812 1.183032870292664 52.16484832763672 0.4956026673316956 53.88743209838867 C -0.8608728647232056 57.28461074829102 0.7394005656242371 61.36362838745117 3.213349580764771 63.80960464477539 C 4.660949230194092 65.24041748046875 6.509816646575928 66.27236175537109 8.512956619262695 66.66403961181641 C 9.785501480102539 66.91343688964844 10.32905101776123 64.96145629882812 9.050909996032715 64.71365356445312 C 5.622552394866943 64.04860687255859 2.839259624481201 61.27410507202148 2.155826330184937 57.84495162963867 C 1.850479602813721 56.31181716918945 1.964784741401672 54.10724258422852 3.447555541992188 53.18560791015625 C 4.013485908508301 52.83390426635742 4.724096775054932 52.77395248413086 5.366764545440674 52.90423965454102 C 6.182888031005859 53.06891250610352 6.653697967529297 53.56209945678711 7.278779029846191 54.06328201293945 C 7.841513156890869 54.51409530639648 8.682415962219238 54.10724258422852 8.511358261108398 53.34547805786133" fill="#2473d8" stroke="none" stroke-width="0"/>
</svg>