<svg xmlns="http://www.w3.org/2000/svg" width="12" height="12" viewBox="0.3343370258808136 0.334337055683136 12.168224543333057 12.168224513530735" fill="none">
  <path d="M 11.75290393829346 5.501487255096436 L 6.890693187713623 5.51618766784668 L 6.890694618225098 0.7496548295021057 C 6.890694618225098 0.334337055683136 6.556355476379395 -1.71827855410811e-06 6.141037940979004 -1.609432729310356e-06 C 5.72585391998291 -1.500622033745458e-06 5.391380786895752 0.3343374729156494 5.391380786895752 0.7496551871299744 L 5.406078815460205 5.501623153686523 L 0.7496551871299744 5.501624584197998 C 0.334337443113327 5.501624584197998 -1.529479391138011e-06 5.835963249206543 -1.638325215935765e-06 6.25128173828125 C -1.747135797813826e-06 6.666465282440186 0.3343370258808136 7.000804901123047 0.7496547698974609 7.000804901123047 L 5.398728847503662 7.000803470611572 L 5.398727893829346 11.75290489196777 C 5.398727416992188 12.16795635223389 5.733066082000732 12.50256156921387 6.148383617401123 12.50256156921387 C 6.56370210647583 12.50256156921387 6.898040771484375 12.16795539855957 6.898041248321533 11.75290393829346 L 6.89804220199585 7.000935077667236 L 11.75290393829346 7.00093412399292 C 12.16822242736816 7.000933647155762 12.50256156921387 6.666327953338623 12.50256156921387 6.251277446746826 C 12.50255966186523 5.835826396942139 12.16448020935059 5.501486778259277 11.75290393829346 5.501487255096436 Z" fill="#2777df" stroke="none" stroke-width="0"/>
</svg>