<svg xmlns="http://www.w3.org/2000/svg" width="1" height="1" viewBox="146.4136810302734 76.71648406982422 1 1" fill="none">
  <path d="M 146.7752075195312 76.95420837402344 C 146.8130187988281 76.83293914794922 146.7763519287109 76.82025146484375 146.9774169921875 76.75199890136719 C 147.0425567626953 76.87101745605469 146.9703826904297 76.84675598144531 147.0281677246094 77.00496673583984 C 146.8922424316406 76.96971893310547 146.9300384521484 77.10959625244141 146.8767395019531 77.15641021728516 C 146.7861938476562 77.11946105957031 146.8688354492188 77.06420135498047 146.8767395019531 77.00496673583984 C 146.6891937255859 76.96915435791016 146.7503967285156 77.18234252929688 146.6745452880859 77.25763702392578 C 146.6167297363281 77.248046875 146.6460723876953 77.20716857910156 146.6745452880859 77.20716857910156 C 146.6390075683594 77.08054351806641 146.5391693115234 77.30079650878906 146.4215850830078 77.25763702392578 C 146.4145355224609 77.13272094726562 146.4136810302734 77.01370239257812 146.4723510742188 76.95420837402344 C 146.5673980712891 76.96012878417969 146.5070343017578 77.12115478515625 146.6237640380859 77.10563659667969 C 146.6643829345703 77.09577178955078 146.6737213134766 77.05516815185547 146.7244415283203 77.05516815185547 C 146.7030181884766 76.97987365722656 146.6601715087891 77.07547760009766 146.5730133056641 77.05516815185547 L 146.5730133056641 76.90372467041016 C 146.7740783691406 77.07125091552734 146.6443634033203 76.71648406982422 146.7752075195312 76.95420837402344" fill="#2777df" stroke="none" stroke-width="0"/>
</svg>