<svg xmlns="http://www.w3.org/2000/svg" width="17" height="13" viewBox="19.41835594177246 1.906630754470825 17.259286880493157 12.750227689743046" fill="none">
  <path d="M 21.40311050415039 9.407611846923828 C 21.18249320983887 9.832859992980957 21.2712230682373 10.33963871002197 21.73083686828613 10.57304668426514 C 22.30956077575684 10.86720180511475 22.88428115844727 10.37401008605957 23.33430671691895 10.06226921081543 C 24.52851867675781 9.236553192138672 25.62840843200684 8.279747009277344 26.77865600585938 7.395680904388428 C 27.88973426818848 6.542786598205566 29.03598594665527 5.709878444671631 30.30293464660645 5.104779243469238 C 31.43239402770996 4.565226554870605 32.98710250854492 4.446125984191895 33.1221923828125 2.92338752746582 C 33.18773651123047 2.190395355224609 32.33804321289062 1.906630754470825 31.79050254821777 2.158421754837036 C 29.85290718078613 3.049682855606079 28.06238746643066 4.215916633605957 26.45332336425781 5.61475658416748 C 25.75869941711426 6.21905517578125 26.68033409118652 7.436446189880371 27.44609832763672 6.901689052581787 C 28.90409660339355 5.883334159851074 30.44281959533691 5.084795951843262 32.13900756835938 4.542046070098877 C 32.55306625366211 4.409355640411377 32.97111892700195 4.291053771972656 33.39237213134766 4.18554162979126 C 33.6033935546875 4.132784843444824 33.81521606445312 4.084025382995605 34.0278434753418 4.039262771606445 C 34.11256790161133 4.020079135894775 34.19809722900391 4.002492904663086 34.28443145751953 3.98570704460144 C 34.55940246582031 3.974516630172729 34.52982711791992 3.805056810379028 34.19650268554688 3.478927135467529 C 34.12376022338867 3.470934391021729 33.4475212097168 4.317431926727295 33.33961486816406 4.424542903900146 C 33.03266906738281 4.729889869689941 32.71612930297852 5.023247241973877 32.39159774780273 5.308610916137695 C 29.49959754943848 7.85210132598877 26.42455101013184 10.20215225219727 23.59968757629395 12.82078170776367 C 24.1104679107666 13.03260612487793 24.62124252319336 13.24443054199219 25.13202095031738 13.45545482635498 C 25.05208396911621 12.31320285797119 25.97451972961426 11.3555965423584 26.6523609161377 10.5258846282959 C 27.38774681091309 9.626630783081055 28.1742992401123 8.805710792541504 29.02079963684082 8.011969566345215 C 29.73380088806152 7.343722820281982 28.80417442321777 6.107148170471191 27.96806907653809 6.646700382232666 C 25.23193740844727 8.412436485290527 22.63968467712402 10.39799118041992 20.16653633117676 12.51543521881104 C 20.61016845703125 12.95906734466553 21.05379867553711 13.40190029144287 21.49663352966309 13.84553146362305 C 23.1057014465332 11.77684783935547 24.80908584594727 9.921585083007812 26.85618782043457 8.274151802062988 C 28.87211799621582 6.652296543121338 31.09427833557129 5.25585412979126 33.45711517333984 4.196732044219971 C 33.09181594848633 3.725123167037964 32.72812271118164 3.253513813018799 32.36362075805664 2.781105756759644 C 31.17980766296387 3.993700742721558 29.2286205291748 5.426912307739258 30.32451820373535 7.382091522216797 C 30.79852104187012 8.227790832519531 31.78809928894043 8.554718017578125 32.70014572143555 8.286142349243164 C 33.77125549316406 7.971202850341797 34.28522872924805 7.011998176574707 35.01182174682617 6.261419773101807 C 34.47467041015625 5.949678421020508 33.93832015991211 5.637137889862061 33.40195846557617 5.325396537780762 C 33.304443359375 5.876139640808105 33.23969650268555 6.421287536621094 33.24209213256836 6.98162317276001 C 33.2476921081543 8.147856712341309 34.74245452880859 8.189422607421875 35.13891983032227 7.238211154937744 C 35.58095550537109 6.171894550323486 36.02938461303711 5.10797643661499 36.48820495605469 4.048055648803711 C 35.89909362792969 3.888987302780151 35.30837631225586 3.729120492935181 34.71846771240234 3.569252967834473 C 34.74245452880859 5.296619892120361 34.07900238037109 6.855328559875488 33.10221099853516 8.253368377685547 C 32.09823989868164 9.692975997924805 30.69860649108887 10.77048110961914 29.66026878356934 12.1757173538208 C 29.21183586120605 12.78161430358887 30.04953956604004 13.38751220703125 30.6010799407959 13.11813545227051 C 32.38600158691406 12.24765777587891 33.84320068359375 10.674560546875 34.95187377929688 9.04311466217041 C 36.03817367553711 7.443641185760498 36.67764282226562 5.509243488311768 36.61769485473633 3.569252967834473 C 36.5913200378418 2.714760780334473 35.23963928222656 2.164017677307129 34.84796524047852 3.08965015411377 C 34.36596298217773 4.228705883026123 33.87356948852539 5.362965106964111 33.37398147583008 6.494826793670654 L 35.17249298095703 6.98162317276001 C 35.17889022827148 6.59634256362915 35.19647216796875 6.217457294464111 35.25881958007812 5.836972713470459 C 35.40190505981445 4.960099697113037 34.36996078491211 4.138380527496338 33.64975738525391 4.900148868560791 C 33.47550201416016 5.084795951843262 32.00871658325195 7.122306346893311 31.90880012512207 6.238239765167236 C 31.81208610534668 5.376554012298584 33.15496826171875 4.610788822174072 33.63856506347656 4.05604887008667 C 34.30920791625977 3.287086248397827 33.47709655761719 2.159221172332764 32.54587173461914 2.640421867370605 C 27.84656715393066 5.071206569671631 23.49018096923828 8.36287784576416 20.16653633117676 12.51543521881104 C 19.41835594177246 13.44985961914062 20.56860160827637 14.65685844421387 21.49663352966309 13.84553146362305 C 23.83469390869141 11.8008279800415 26.29745292663574 9.921585083007812 28.84494209289551 8.147856712341309 C 28.49483299255371 7.693034172058105 28.14312171936035 7.237411022186279 27.79221153259277 6.782588005065918 C 26.79543876647949 7.784956932067871 25.84103012084961 8.85047435760498 24.96735382080078 9.960753440856934 C 24.14963340759277 10.99669361114502 23.34709930419922 12.08139514923096 23.33671188354492 13.45545482635498 C 23.33031272888184 14.30275440216064 24.29191398620605 14.54814910888672 24.86903762817383 14.09012889862061 C 26.77466011047363 12.57938194274902 28.5755672454834 10.92235565185547 30.41324424743652 9.329277992248535 C 32.0998420715332 7.867288589477539 34.01265335083008 6.480438709259033 35.37472534179688 4.694719314575195 C 35.87990570068359 4.03366756439209 36.14768600463867 3.065669775009155 35.30678176879883 2.522119998931885 C 34.51863479614258 2.012942552566528 33.25727844238281 2.542903423309326 32.46433639526367 2.78190541267395 C 30.41563987731934 3.399792909622192 28.42289543151855 4.337415218353271 26.61878776550293 5.486862182617188 C 26.94971466064453 5.916106700897217 27.2806396484375 6.344551563262939 27.61236190795898 6.773795604705811 C 29.15827751159668 5.512441635131836 30.85687446594238 4.489289283752441 32.68415832519531 3.687554597854614 C 32.25011444091797 3.354230880737305 31.8168773651123 3.020906686782837 31.38363456726074 2.687582969665527 C 31.35725975036621 2.872230052947998 30.55472755432129 3.061673641204834 30.35728645324707 3.140807628631592 C 29.9272403717041 3.314264059066772 29.50519371032715 3.508502721786499 29.09593391418457 3.726722478866577 C 28.21186256408691 4.198330402374268 27.37415504455566 4.776251316070557 26.59160804748535 5.402132987976074 C 25.79227256774902 6.040802955627441 25.03530120849609 6.733029842376709 24.27193450927734 7.414063453674316 C 23.91862487792969 7.729002952575684 23.56451988220215 8.044742584228516 23.20401763916016 8.352486610412598 C 22.86110305786133 8.64664363861084 22.32874488830566 9.296504020690918 21.88591003417969 9.386829376220703 C 22.05217361450195 9.409210205078125 22.21923637390137 9.430791854858398 22.38629722595215 9.452374458312988 C 22.40787696838379 9.470758438110352 22.43026161193848 9.489143371582031 22.45183944702148 9.507528305053711 L 22.5165901184082 9.999120712280273 C 22.53017616271973 9.963950157165527 22.54456520080566 9.929577827453613 22.55895042419434 9.895206451416016 C 22.82992744445801 9.230957984924316 21.73004150390625 8.777734756469727 21.40311050415039 9.407611846923828" fill="#2473d8" stroke="none" stroke-width="0"/>
</svg>