<svg xmlns="http://www.w3.org/2000/svg" width="5" height="6" viewBox="82.21600341796875 63.81889724731445 4.8668975830078125 5.787548065185547" fill="none">
  <path d="M 83.84751129150391 69.520263671875 C 83.63475799560547 69.520263671875 83.45551300048828 69.48158264160156 83.38470458984375 69.38885498046875 C 83.17174530029297 69.10960388183594 82.21600341796875 66.74893188476562 82.21600341796875 66.2012939453125 C 82.21600341796875 65.92942810058594 82.48976898193359 65.60476684570312 82.81157684326172 65.32331848144531 C 82.58197021484375 65.14755249023438 82.41389465332031 64.97747802734375 82.41389465332031 64.85966491699219 C 82.41389465332031 64.80645751953125 82.44193267822266 64.75187683105469 82.49967193603516 64.69276428222656 C 82.8912353515625 64.292236328125 84.52717590332031 63.81889724731445 84.89049530029297 63.93807601928711 C 85.30714416503906 64.07452392578125 87.0106201171875 65.4525146484375 87.08290100097656 65.51109313964844 L 87.06446075439453 65.54998779296875 C 87.04686737060547 65.53564453125 85.29344940185547 64.11709594726562 84.88207244873047 63.98233413696289 C 84.52274322509766 63.86515426635742 82.90799713134766 64.33302307128906 82.52116394042969 64.72879028320312 C 82.47385406494141 64.77726745605469 82.44877624511719 64.82247924804688 82.44877624511719 64.85966491699219 C 82.44877624511719 64.94839477539062 82.59808349609375 65.10688781738281 82.84466552734375 65.29476928710938 C 83.20420074462891 64.98654174804688 83.61325836181641 64.73512268066406 83.76637268066406 64.67021179199219 C 84.08049011230469 64.53680419921875 85.36321258544922 64.62944030761719 85.56720733642578 64.89666748046875 C 85.65635681152344 65.01351928710938 85.61145782470703 65.25608825683594 85.43358612060547 65.61741638183594 C 85.29080963134766 65.90762329101562 85.09809112548828 66.19760131835938 85.00335693359375 66.32173156738281 C 84.86257171630859 66.50709533691406 83.92073822021484 66.00877380371094 83.7332763671875 65.906982421875 C 83.47447967529297 65.76661682128906 83.12116241455078 65.55534362792969 82.84519195556641 65.34883117675781 C 82.52411651611328 65.62753295898438 82.25098419189453 65.94638061523438 82.25098419189453 66.2012939453125 C 82.25098419189453 66.73605346679688 83.21778869628906 69.10530090332031 83.40936279296875 69.35649108886719 C 83.60062408447266 69.6064453125 84.69460296630859 69.42362976074219 84.88565063476562 69.17337036132812 L 84.91030120849609 69.205810546875 C 84.77700805664062 69.38041687011719 84.25172424316406 69.520263671875 83.84751129150391 69.520263671875 M 82.87849426269531 65.32026672363281 C 83.10515594482422 65.4893798828125 83.40672302246094 65.68031311035156 83.74665832519531 65.86471557617188 C 84.39449310302734 66.21626281738281 84.90103149414062 66.39138793945312 84.97869873046875 66.28938293457031 C 85.07237243652344 66.1666259765625 85.26299285888672 65.87979125976562 85.404296875 65.59275817871094 C 85.51957702636719 65.35830688476562 85.63717651367188 65.05303955078125 85.54254913330078 64.92900085449219 C 85.36162567138672 64.69192504882812 84.10545349121094 64.57389831542969 83.77711486816406 64.71383666992188 C 83.61168670654297 64.78390502929688 83.22241973876953 65.02752685546875 82.87849426269531 65.32026672363281" fill="#4b2337" stroke="none" stroke-width="0"/>
</svg>