<svg xmlns="http://www.w3.org/2000/svg" width="83" height="87" viewBox="2.669334650039673 5.735000610351562 82.51042914390564 86.53723907470703" fill="none">
  <path d="M 19.47624588012695 5.735000610351562 C 32.83757019042969 9.465254783630371 41.59091567993164 15.25338077545166 44.66289138793945 23.56195449829102 C 57.65652847290039 20.82208251953125 65.49065399169922 34.47991943359375 64.91539764404297 43.58316802978516 C 78.82825469970703 42.58686065673828 82.19674682617188 55.31953811645508 75.55463409423828 67.299072265625 C 79.80677795410156 69.84324645996094 82.86689758300781 71.94854736328125 83.22866058349609 75.15100860595703 C 85.17976379394531 92.27223968505859 58.37411117553711 89.41374206542969 55.77063751220703 76.11766815185547 C 45.90828704833984 82.1370849609375 30.94574737548828 74.33851623535156 26.42674255371094 64.8853759765625 C 26.06498146057129 62.48355484008789 27.29258918762207 59.36412048339844 26.99606323242188 56.92670822143555 C -4.518377780914307 61.43385696411133 -10.25906181335449 7.490415573120117 19.47624588012695 5.735000610351562 M 32.86128997802734 50.16004180908203 C 34.19564056396484 51.14450454711914 34.60483551025391 52.54409408569336 35.63080596923828 53.67681121826172 C 34.30238342285156 56.87926483154297 32.00136947631836 57.91709136962891 30.47131156921387 60.7103385925293 C 30.93388748168945 70.44813537597656 44.06985092163086 73.65058135986328 53.02483367919922 72.60682678222656 C 55.52748489379883 71.56900787353516 56.12646865844727 66.30276489257812 59.76183700561523 67.81501770019531 C 61.42236328125 72.95672607421875 61.43422317504883 79.94875335693359 68.11785125732422 82.48106384277344 C 71.72949981689453 83.84505462646484 75.04461669921875 83.17491149902344 78.61476135253906 80.76121520996094 C 79.50432586669922 73.62687683105469 74.58797454833984 71.81808471679688 68.46182250976562 68.68680572509766 C 67.92214965820312 65.27085876464844 71.31436157226562 66.27903747558594 72.79697418212891 63.80010223388672 C 80.83866882324219 51.61300659179688 69.28022766113281 42.8774528503418 61.47573471069336 50.45657348632812 C 56.56532669067383 47.30157089233398 60.2421989440918 40.34514236450195 57.95896911621094 36.01590728759766 C 52.97738265991211 31.99506187438965 46.72076034545898 25.80959320068359 42.53978729248047 33.38871383666992 C 38.42998504638672 24.33884429931641 34.31424713134766 12.41862297058105 18.71714782714844 11.99163055419922 C 6.56564474105835 17.67894172668457 2.787943601608276 36.66826248168945 9.738437652587891 46.22814559936523 C 16.11960792541504 51.93325424194336 27.49422454833984 56.90890884399414 32.86128997802734 50.16004180908203 M 15.14701080322266 10.63355541229248 C 10.39671802520752 8.421496391296387 4.644176483154297 15.43129634857178 2.669334650039673 23.87626647949219 C 6.945192337036133 19.68936920166016 9.477498054504395 11.6654577255249 15.14701080322266 10.63355541229248" fill="#2574da" stroke="none" stroke-width="0"/>
</svg>