<svg xmlns="http://www.w3.org/2000/svg" width="1" height="1" viewBox="153.2410125732422 73.34700775146484 1 1" fill="none">
  <path d="M 153.4431762695312 73.75139617919922 C 153.4725036621094 73.72095489501953 153.5610656738281 73.51170349121094 153.4431762695312 73.49844360351562 C 153.3853912353516 73.50831604003906 153.4147338867188 73.54920959472656 153.4431762695312 73.54892730712891 C 153.4414825439453 73.59798431396484 153.3811492919922 73.58840179443359 153.3416900634766 73.59940338134766 C 153.337158203125 73.67131042480469 153.33349609375 73.74238586425781 153.3924255371094 73.75139617919922 C 153.2762451171875 73.95840454101562 153.3253173828125 73.58953094482422 153.2410125732422 73.59940338134766 C 153.2503051757812 73.54243469238281 153.2917633056641 73.57120513916016 153.2911834716797 73.59940338134766 C 153.3614044189453 73.51789855957031 153.4344635009766 73.43951416015625 153.49365234375 73.34700775146484 C 153.5870208740234 73.35462188720703 153.5249786376953 73.51789855957031 153.5946350097656 73.54892730712891 C 153.6352386474609 73.5054931640625 153.7330932617188 73.51931762695312 153.7460632324219 73.44768524169922 C 153.8038787841797 73.45755767822266 153.7739868164062 73.49844360351562 153.7460632324219 73.49844360351562 C 153.7474822998047 73.54723358154297 153.80810546875 73.53765106201172 153.8473205566406 73.54892730712891 C 153.6149291992188 73.6036376953125 153.5997314453125 73.53285217285156 153.4431762695312 73.75139617919922" fill="#2777df" stroke="none" stroke-width="0"/>
</svg>