<svg xmlns="http://www.w3.org/2000/svg" width="2" height="3" viewBox="50.44599914550781 112.5120010375977 2.1957817077636648 2.5644912719725994" fill="none">
  <path d="M 50.44599914550781 114.5986709594727 C 50.58366012573242 114.6487503051758 50.71648025512695 114.7034301757812 50.85486602783203 114.7411651611328 C 50.99276733398438 114.7786712646484 51.12945938110352 114.8139953613281 51.26808929443359 114.8340759277344 C 51.40623092651367 114.856330871582 51.54509735107422 114.8640747070312 51.68179321289062 114.8623809814453 C 51.81533813476562 114.8609237670898 51.96049880981445 114.8391494750977 52.07009124755859 114.8060073852539 L 52.00162506103516 114.87060546875 C 52.13807678222656 114.5360107421875 52.27960586547852 114.2033538818359 52.43251037597656 113.8757781982422 L 52.42404174804688 113.9171447753906 C 52.44315338134766 113.4485244750977 52.48041152954102 112.9801406860352 52.54790878295898 112.5120010375977 C 52.60500717163086 112.9813537597656 52.63210296630859 113.4504547119141 52.64153671264648 113.9193267822266 L 52.64178085327148 113.9372253417969 L 52.63282775878906 113.960693359375 C 52.50339508056641 114.2984313964844 52.36259078979492 114.6310882568359 52.21694564819336 114.9618072509766 L 52.1944465637207 115.0126190185547 L 52.14847946166992 115.0264053344727 C 51.9805793762207 115.0762481689453 51.83348083496094 115.0764923095703 51.67864608764648 115.0723724365234 C 51.52598571777344 115.0665664672852 51.37695693969727 115.0358428955078 51.23228073120117 114.9981002807617 C 51.08857345581055 114.9545516967773 50.94873428344727 114.9030227661133 50.81809234619141 114.8326187133789 C 50.68720626831055 114.7641525268555 50.56188583374023 114.6874618530273 50.44599914550781 114.5986709594727" fill="#89bfff" stroke="none" stroke-width="0"/>
</svg>