<svg xmlns="http://www.w3.org/2000/svg" width="11" height="12" viewBox="28.19921875 124 10.60400390625 11.814697265625" fill="none">
  <path d="M 29.55195236206055 135.814697265625 L 37.45064926147461 135.814697265625 C 38.21222305297852 135.814697265625 38.80322265625 135.1447601318359 38.80322265625 134.311767578125 L 38.80322265625 124 L 28.19921875 124 L 28.19921875 134.311767578125 C 28.19921875 135.1447601318359 28.79021263122559 135.814697265625 29.55195236206055 135.814697265625 Z M 35.63037109375 125.5947418212891 C 35.63037109375 125.4103012084961 35.77991104125977 125.2607498168945 35.96435546875 125.2607498168945 C 36.14879608154297 125.2607498168945 36.29833984375 125.4103012084961 36.29833984375 125.5947418212891 L 36.29833984375 133.4851226806641 C 36.29833984375 133.6695556640625 36.14879608154297 133.8191070556641 35.96435546875 133.8191070556641 C 35.77991104125977 133.8191070556641 35.63037109375 133.6695556640625 35.63037109375 133.4851226806641 L 35.63037109375 125.5947418212891 Z M 33.167236328125 125.5947418212891 C 33.167236328125 125.4103012084961 33.31678009033203 125.2607498168945 33.501220703125 125.2607498168945 C 33.68566131591797 125.2607498168945 33.835205078125 125.4103012084961 33.835205078125 125.5947418212891 L 33.835205078125 133.4851226806641 C 33.835205078125 133.6695556640625 33.68566131591797 133.8191070556641 33.501220703125 133.8191070556641 C 33.31678009033203 133.8191070556641 33.167236328125 133.6695556640625 33.167236328125 133.4851226806641 L 33.167236328125 125.5947418212891 Z M 30.7041015625 125.5947418212891 C 30.7041015625 125.4103012084961 30.85364151000977 125.2607498168945 31.0380859375 125.2607498168945 C 31.2225284576416 125.2607498168945 31.37206649780273 125.4103012084961 31.37206649780273 125.5947418212891 L 31.37206649780273 133.4851226806641 C 31.37206649780273 133.6695556640625 31.2225284576416 133.8191070556641 31.0380859375 133.8191070556641 C 30.85364151000977 133.8191070556641 30.7041015625 133.6695556640625 30.7041015625 133.4851226806641 L 30.7041015625 125.5947418212891 Z M 30.7041015625 125.5947418212891" fill="#2573d9" stroke="none" stroke-width="0"/>
</svg>