<svg xmlns="http://www.w3.org/2000/svg" width="274" height="222" viewBox="0 0.2347647845745087 274.05859375 221.7148964703083" fill="none">
  <path d="M 0 221.9496612548828 L 0.1473433375358582 221.5444641113281 C 8.042490005493164 201.4812316894531 16.87081146240234 183.2720489501953 26.3867359161377 167.4449005126953 C 46.44998550415039 151.6914520263672 66.66057586669922 136.2572326660156 86.83434295654297 120.8107376098633 C 133.4807891845703 85.21504211425781 181.67431640625 48.37920761108398 226.4912414550781 8.657892227172852 C 235.8352966308594 13.47110843658447 242.5516815185547 22.65550994873047 249.0593566894531 31.5575008392334 C 250.3731689453125 33.35018157958984 251.6624145507812 35.09374618530273 252.9762268066406 36.83731079101562 C 256.1809387207031 35.06918716430664 259.2137451171875 32.36788940429688 262.5044250488281 27.95986747741699 C 261.2765502929688 21.12068367004395 256.4633483886719 16.65126800537109 251.8465881347656 12.29236316680908 C 248.5681915283203 9.210430145263672 245.1547241210938 6.054827213287354 243.0428314208984 1.966049075126648 C 240.9800109863281 2.678208827972412 239.1504974365234 4.163920402526855 237.4069213867188 5.551403999328613 C 234.9635009765625 7.515981674194336 232.4341125488281 9.541954040527344 228.3207702636719 9.394609451293945 C 231.3658599853516 2.187064170837402 237.4315032958984 -0.919424831867218 245.1793060302734 0.2347647845745087 C 256.4756164550781 1.916934728622437 268.8033752441406 12.23096942901611 272.1185913085938 22.7414608001709 C 274.05859375 28.90532302856445 272.7079162597656 34.38158416748047 268.2999267578125 38.58087158203125 C 268.3735961914062 39.03517913818359 269.0489196777344 39.20708465576172 270.1171569824219 39.42809677124023 C 270.9398498535156 39.59999847412109 271.7870788574219 39.75961685180664 272.1431274414062 40.38582992553711 C 272.3518676757812 40.71735000610352 272.3518676757812 41.13482666015625 272.2045288085938 41.66280364990234 C 223.5566711425781 76.49723052978516 176.0752716064453 114.3644790649414 130.1778411865234 150.9547271728516 C 107.1554412841797 169.3358306884766 84.14532470703125 187.7046051025391 60.90190887451172 205.7296142578125 C 60.57038879394531 205.705078125 60.28797912597656 205.6559753417969 60.00557708740234 205.6191101074219 L 59.30569076538086 205.5086212158203 C 54.55386734008789 204.8087463378906 49.22495269775391 206.6505279541016 44.52224349975586 208.2590179443359 C 39.13193130493164 210.1621856689453 34.36783218383789 211.8198089599609 30.04576110839844 211.1567840576172 C 28.98979949951172 210.9971466064453 28.01979064941406 210.7392883300781 27.0988941192627 210.3095550537109 C 20.11236572265625 217.0014038085938 11.03847122192383 220.9059753417969 0.4297513663768768 221.9005584716797 L 0 221.9496612548828 Z M 19.64577865600586 207.7801666259766 C 19.92818641662598 207.841552734375 20.21059226989746 207.8783874511719 20.46844482421875 207.9152221679688 C 31.75248718261719 209.5973815917969 46.96569061279297 203.44580078125 58.0655517578125 198.9395446777344 C 60.43532180786133 197.9572448730469 62.63319396972656 197.0486450195312 64.54865264892578 196.3487548828125 L 63.45586395263672 194.06494140625 C 62.5472412109375 191.4127655029297 61.58950805664062 188.6991882324219 59.91962051391602 186.5995330810547 C 58.59352874755859 189.5955352783203 60.03012466430664 191.7197265625 61.0615348815918 193.2668151855469 C 61.68774032592773 194.1631622314453 62.15432739257812 194.8876037597656 61.61407089233398 195.4524383544922 C 61.50356292724609 195.4155883789062 61.42988967895508 195.4033050537109 61.35622024536133 195.4033050537109 C 58.94961166381836 195.0349578857422 58.43391036987305 193.352783203125 57.96732330322266 191.6951904296875 C 57.61124420166016 190.4795684814453 57.24288940429688 189.3008422851562 56.22375869750977 188.6746368408203 C 50.25635147094727 192.9107666015625 42.42259979248047 196.5697937011719 34.87125396728516 200.0937347412109 C 29.24765205383301 202.733642578125 23.89417457580566 205.2261962890625 19.64577865600586 207.7801666259766 M 43.85919570922852 166.1065368652344 C 39.70902633666992 165.4926147460938 35.21505737304688 165.7381744384766 31.15083503723145 166.7941284179688 C 29.61600875854492 170.8952026367188 27.55320167541504 175.2541046142578 25.44128227233887 179.6866912841797 C 21.24199676513672 188.6255340576172 16.87081146240234 197.9081420898438 15.02901935577393 206.5400085449219 C 16.10953903198242 206.8224182128906 17.48474311828613 207.3135833740234 18.94589614868164 207.6450958251953 L 18.98273277282715 207.6573638916016 C 19.10551834106445 207.6942291259766 19.25285911560059 207.7187652587891 19.37564849853516 207.7433319091797 C 24.88874244689941 200.3884124755859 33.43465805053711 196.8890380859375 41.72272109985352 193.5001373291016 C 47.84974670410156 190.9830017089844 54.21006774902344 188.3799285888672 59.36708450317383 184.4016723632812 C 60.20203018188477 180.2515106201172 59.57582092285156 176.5188140869141 57.42706298828125 173.4000244140625 C 54.7994384765625 169.5936737060547 49.97394943237305 167.0151672363281 43.85919570922852 166.1065368652344 M 249.6978302001953 41.74875640869141 C 249.4890899658203 42.47319412231445 248.9856567382812 42.80471801757812 248.5681915283203 43.11167907714844 C 248.1875457763672 43.38180923461914 247.8192138671875 43.6151008605957 247.635009765625 44.06941223144531 C 226.3193511962891 58.15298080444336 206.3174896240234 74.43441772460938 186.9541320800781 90.18788146972656 C 176.1366729736328 98.99165344238281 164.9631500244141 108.1023788452148 153.7282104492188 116.6974029541016 C 144.3596343994141 123.9417953491211 134.6595153808594 131.8123779296875 124.8857498168945 139.7812042236328 C 111.379280090332 150.7582702636719 97.44304656982422 162.1405639648438 84.09621429443359 172.0125579833984 C 82.53681945800781 173.166748046875 80.53540802001953 174.2595367431641 78.43576812744141 175.4382781982422 C 71.55973815917969 179.2078399658203 63.79966735839844 183.5053253173828 66.50095367431641 191.5723876953125 C 85.32405853271484 180.6321411132812 104.0243911743164 165.3207244873047 122.0985107421875 150.5495452880859 C 134.8682708740234 140.1004333496094 148.1045989990234 129.2829895019531 161.5128479003906 120.0494766235352 C 167.7995147705078 115.1380233764648 174.1229858398438 109.8827819824219 180.5692596435547 104.5415802001953 C 189.6308746337891 97.02706909179688 199.0239868164062 89.25470733642578 208.6504364013672 82.10855102539062 C 211.6832427978516 79.87385559082031 214.8511352539062 77.6636962890625 218.0312805175781 75.42899322509766 C 231.5131988525391 65.97446441650391 245.4248809814453 56.22523880004883 251.6378479003906 42.79243469238281 C 251.4905090332031 42.87839126586914 251.4045715332031 42.90294647216797 251.2817687988281 42.89067077636719 C 251.0607757568359 42.85383224487305 250.8643035888672 42.66965103149414 250.7046813964844 42.49774932861328 C 250.4345397949219 42.23990249633789 250.2380828857422 42.05572128295898 249.8083343505859 41.98205184936523 L 249.6978302001953 41.74875640869141 Z M 237.6525115966797 22.15208625793457 C 217.8348236083984 37.8809928894043 197.9312133789062 53.47482681274414 177.9907379150391 69.06867218017578 C 137.2257537841797 100.9684982299805 95.09783935546875 133.9979705810547 54.46791839599609 167.5799713134766 C 59.37936401367188 169.6182250976562 60.71773147583008 174.7506866455078 62.01926803588867 179.7480773925781 L 62.69458770751953 182.3757019042969 C 104.9698486328125 147.7622985839844 148.8535919189453 113.3821868896484 191.3130493164062 80.13169860839844 C 210.0502014160156 65.4342041015625 228.7996520996094 50.73669815063477 247.4999542236328 36.03919982910156 C 246.210693359375 32.31877517700195 243.6076354980469 29.28595924377441 241.0782623291016 26.37592887878418 C 239.8995056152344 25.00072479248047 238.7207641601562 23.61323928833008 237.6525115966797 22.15208625793457 M 44.22755813598633 161.1214141845703 C 45.87289047241211 161.3670043945312 47.64101028442383 161.9809265136719 49.20039367675781 162.5089111328125 C 50.05989837646484 162.8035888671875 50.84572601318359 163.0860137939453 51.49649047851562 163.2456207275391 C 73.92951965332031 145.2328948974609 96.70633697509766 127.3184127807617 119.5199966430664 109.3793640136719 C 157.1293792724609 79.80017852783203 196.0157470703125 49.22643280029297 233.6988067626953 18.39483070373535 C 233.5760192871094 18.39483070373535 233.4900817871094 18.41938781738281 233.3672790527344 18.40710830688477 C 232.7042388916016 18.28432273864746 232.1517028808594 17.79317855834961 231.5991668701172 17.35114860534668 C 230.6414337158203 16.52848243713379 229.7451019287109 15.80404567718506 228.2593688964844 15.43568706512451 C 164.4351654052734 63.1503791809082 98.56041717529297 115.6782760620117 41.68588638305664 161.23193359375 C 42.34893035888672 160.9863739013672 43.20843124389648 160.9618072509766 44.22755813598633 161.1214141845703 M 246.5422515869141 3.942905902862549 C 253.1481323242188 9.333216667175293 258.2805786132812 15.96366691589355 263.2288513183594 22.37310218811035 L 265.8319091796875 25.76199913024902 C 266.5440673828125 23.55184745788574 266.6791381835938 21.24346733093262 265.8319091796875 18.91053199768066 C 263.1797485351562 11.86261177062988 251.9816436767578 6.300399303436279 246.5422515869141 3.942905902862549" fill="#2574da" stroke="none" stroke-width="0"/>
</svg>