<svg xmlns="http://www.w3.org/2000/svg" width="4" height="7" viewBox="36.12067031860352 102.9057769775391 4.409938812255859 7.020568847656193" fill="none">
  <path d="M 39.70409774780273 103.1951446533203 C 38.86479187011719 103.9785003662109 38.18215942382812 104.8633499145508 37.60583114624023 105.8545303344727 C 37.33166122436523 106.3261413574219 37.07747650146484 106.808952331543 36.84326934814453 107.300537109375 C 36.71457672119141 107.5715179443359 36.59468078613281 107.8448944091797 36.48596572875977 108.1238708496094 C 36.38204956054688 108.3916320800781 36.24056625366211 108.6793975830078 36.20139694213867 108.9647521972656 C 36.12067031860352 109.5514526367188 36.82968139648438 109.9263458251953 37.19018173217773 109.3820190429688 C 37.33166122436523 109.1677703857422 37.4131965637207 108.9008178710938 37.51950836181641 108.6666107177734 C 37.63621139526367 108.41162109375 37.75291442871094 108.1558380126953 37.87121963500977 107.9016418457031 C 38.10142517089844 107.4076385498047 38.35162353515625 106.9224472045898 38.62179183959961 106.4484481811523 C 39.1589469909668 105.5060272216797 39.7320671081543 104.5795974731445 40.29960250854492 103.6547546386719 C 40.53060913085938 103.2798614501953 40.0134391784668 102.9057769775391 39.70409774780273 103.1951446533203" fill="#2473d8" stroke="none" stroke-width="0"/>
</svg>