<svg xmlns="http://www.w3.org/2000/svg" width="38" height="35" viewBox="0.01219205930829048 0 37.57348985597491 35.48804092407227" fill="none">
  <path d="M 35.27650833129883 0.9887760877609253 C 35.19665145874023 0.8455193638801575 35.09789276123047 0.7193315029144287 34.99304580688477 0.5937533974647522 C 34.91440582275391 0.4974360167980194 34.7955322265625 0.4120917022228241 34.69617080688477 0.3407680988311768 C 34.55900955200195 0.2426220178604126 34.42001342773438 0.1780040860176086 34.26395797729492 0.1133861690759659 C 34.16398239135742 0.07193315774202347 34.07315063476562 0.04328181967139244 33.96586608886719 0.02499372512102127 C 33.87137222290039 0.009144045412540436 33.77323150634766 -1.439915547907233e-10 33.67568969726562 -1.439915547907233e-10 C 33.56352615356445 -1.439915547907233e-10 33.45074844360352 0.01219205930829048 33.34345626831055 0.03962419554591179 C 32.74116897583008 0.1944633722305298 32.26872634887695 0.5937533974647522 31.87919235229492 1.063147664070129 C 31.69569778442383 1.28382396697998 31.53964042663574 1.522788405418396 31.40796852111816 1.778821587562561 C 31.26653861999512 2.05314302444458 31.18850898742676 2.346362113952637 31.14279365539551 2.649335145950317 C 31.05805778503418 3.207731246948242 31.09645843505859 3.761250734329224 31.18180656433105 4.314160823822021 C 31.12693977355957 4.350127220153809 31.07207679748535 4.384874820709229 31.01660537719727 4.419013023376465 C 30.49600219726562 4.738444328308105 29.97844696044922 5.060924530029297 29.44199752807617 5.354144096374512 C 28.91408157348633 5.642485618591309 28.38921356201172 5.931437015533447 27.84971809387207 6.199663162231445 C 27.36325263977051 6.441065788269043 26.87618064880371 6.681858539581299 26.38849639892578 6.921432971954346 C 25.54785537719727 6.251479148864746 24.70903968811035 5.579696655273438 23.8714485168457 4.905475616455078 C 23.7452564239502 4.803671836853027 23.61846160888672 4.702477931976318 23.49288177490234 4.600674152374268 C 23.43070220947266 4.553124904632568 23.36913108825684 4.504966735839844 23.30817413330078 4.457417488098145 C 23.16491508483887 4.375730991363525 23.01190757751465 4.334277629852295 22.84731292724609 4.33305835723877 C 22.60652160644531 4.33305835723877 22.37243270874023 4.430595397949219 22.20235443115234 4.600674152374268 C 22.03227424621582 4.770753383636475 21.93534660339355 5.004230976104736 21.93534660339355 5.245633125305176 C 21.93534660339355 5.373650074005127 21.96948623657227 5.520564556121826 22.02983474731445 5.651020526885986 C 21.4860668182373 5.838167667388916 20.94596290588379 6.035679817199707 20.40524101257324 6.234410285949707 C 19.24638938903809 6.659913063049316 18.09423637390137 7.102484703063965 16.93904113769531 7.538961887359619 C 16.69885635375977 7.629792213439941 16.50439262390137 7.747445106506348 16.37150001525879 7.976045608520508 C 16.24226188659668 8.195503234863281 16.20751571655273 8.462509155273438 16.27457237243652 8.708179473876953 C 16.28920364379883 8.761214256286621 16.30992889404297 8.811811447143555 16.33370399475098 8.860580444335938 C 14.60243320465088 10.74851989746094 12.81629467010498 12.58342552185059 10.98138904571533 14.37017154693604 C 9.114784240722656 16.18556976318359 7.293290615081787 18.04668807983398 5.428514957427979 19.86391448974609 C 4.753684520721436 20.52228546142578 4.072758197784424 21.174560546875 3.410728931427002 21.84695625305176 C 3.046186685562134 22.21637344360352 2.683472394943237 22.58640098571777 2.322587728500366 22.9594783782959 C 2.16774845123291 23.11980438232422 2.015957117080688 23.28256988525391 1.862946748733521 23.44472312927246 C 1.79589056968689 23.51604652404785 1.730663061141968 23.58797836303711 1.664826035499573 23.65930557250977 C 1.615448117256165 23.61907005310059 1.567289352416992 23.57883834838867 1.517911672592163 23.53860092163086 C 1.327105760574341 23.38437271118164 1.144224882125854 23.27891159057617 0.8888012170791626 23.27891159057617 C 0.6541039943695068 23.27891159057617 0.4267221391201019 23.37339973449707 0.2603005170822144 23.53860092163086 C 0.09448846429586411 23.70502471923828 0 23.93301391601562 0 24.16771125793457 C 0 24.38290405273438 0.08717324584722519 24.65539360046387 0.2603005170822144 24.79682159423828 C 1.325276970863342 25.66184997558594 2.372575044631958 26.54577255249023 3.420482397079468 27.4327449798584 C 3.652132034301758 27.6278190612793 3.885609865188599 27.82045364379883 4.106895923614502 28.02771759033203 C 4.572022914886475 28.46175384521484 5.036540508270264 28.89640235900879 5.501667499542236 29.33105087280273 C 6.8592529296875 30.60146522521973 8.1522216796875 31.94502639770508 9.421414375305176 33.3026123046875 C 10.44554805755615 34.39685440063477 11.40750217437744 35.56607437133789 12.58281707763672 36.50302505493164 C 12.40115547180176 36.75053405761719 12.42919540405273 37.11445999145508 12.64804363250732 37.33391571044922 C 12.90102863311768 37.5856819152832 13.30275726318359 37.57532501220703 13.55696201324463 37.33391571044922 C 15.92831707000732 35.08021926879883 18.31552505493164 32.84357833862305 20.72833061218262 30.63499069213867 C 21.80489158630371 29.64987182617188 22.87291526794434 28.65439033508301 23.93240547180176 27.64976501464844 C 24.9675121307373 26.66708564758301 26.01846694946289 25.70269203186035 27.08283233642578 24.74988174438477 C 28.15024948120117 23.79402732849121 29.19205856323242 22.80768775939941 30.3161678314209 21.91766738891602 C 30.39907646179199 21.86524200439453 30.47832489013672 21.82256889343262 30.56915092468262 21.78172492980957 C 30.66729545593262 21.72442436218262 30.74472045898438 21.64578437805176 30.80324172973633 21.54763984680176 C 30.85566902160645 21.4586353302002 30.88248634338379 21.35683441162109 30.88797378540039 21.25381278991699 C 31.18362998962402 21.30806350708008 31.49453163146973 21.26173210144043 31.75422096252441 21.10872459411621 C 32.01696014404297 20.95571327209473 32.27543258666992 20.6643238067627 32.33395767211914 20.35586357116699 C 32.73873138427734 18.21310997009277 33.24592208862305 16.09169006347656 33.78664016723633 13.97941780090332 C 33.95672225952148 13.31433963775635 33.57693481445312 12.61390590667725 32.90576553344727 12.42919540405273 C 32.8003044128418 12.39993572235107 32.69240188598633 12.38652515411377 32.58510971069336 12.38591480255127 C 32.38088989257812 12.12195587158203 32.16631317138672 11.86714172363281 31.94502639770508 11.61537742614746 C 31.78775215148926 11.43554401397705 31.60548210144043 11.27277946472168 31.43722915649414 11.10270023345947 C 31.29641151428223 10.96249103546143 31.14828109741211 10.82898902893066 31.00136375427246 10.69426536560059 C 30.36554718017578 10.10782718658447 29.70351791381836 9.550651550292969 29.02381134033203 9.013590812683105 C 28.64463806152344 8.713056564331055 28.26607322692871 8.411911964416504 27.88689994812012 8.110769271850586 C 28.3215446472168 7.89496898651123 28.75497436523438 7.67855978012085 29.18961906433105 7.462151050567627 C 29.5291690826416 7.292071342468262 29.85774803161621 7.093340873718262 30.19059181213379 6.908630847930908 C 30.50270652770996 6.73611307144165 30.81055641174316 6.562377452850342 31.1147518157959 6.373400211334229 C 31.2982349395752 6.259403705596924 31.48234176635742 6.146018028259277 31.66461181640625 6.030802249908447 C 31.70972061157227 6.141140937805176 31.75605201721191 6.251479148864746 31.80359840393066 6.360598564147949 C 31.88772392272949 6.552013874053955 31.98770141601562 6.744647979736328 32.09438323974609 6.925089836120605 C 32.38394165039062 7.407896995544434 32.71007919311523 7.855344772338867 33.06181716918945 8.294869422912598 C 33.17398834228516 8.435687065124512 33.39710235595703 8.505790710449219 33.56901168823242 8.505790710449219 C 33.75798416137695 8.505790710449219 33.94147872924805 8.428981781005859 34.07559204101562 8.294869422912598 C 34.2097053527832 8.16075611114502 34.28529357910156 7.977265357971191 34.28529357910156 7.788289070129395 C 34.28529357910156 7.581633567810059 34.199951171875 7.43654727935791 34.07559204101562 7.28109884262085 C 34.03535842895508 7.2311110496521 33.99512481689453 7.181124210357666 33.95549774169922 7.130526065826416 C 33.77383804321289 6.886075973510742 33.59582901000977 6.639796733856201 33.43611526489258 6.380714893341064 C 33.21909713745117 6.028974056243896 33.02524566650391 5.666259765625 32.85699462890625 5.288915634155273 C 32.85028839111328 5.272456645965576 32.84419250488281 5.255997180938721 32.83748245239258 5.239537715911865 C 32.97830200195312 5.139563083648682 33.11851501464844 5.039588451385498 33.25872421264648 4.937175273895264 C 33.75067520141602 4.579947948455811 34.23835754394531 4.187973022460938 34.63520812988281 3.725284099578857 C 34.99852752685547 3.301000356674194 35.28870010375977 2.804783582687378 35.41245269775391 2.257359981536865 C 35.47463226318359 1.983648300170898 35.48804092407227 1.66848361492157 35.42281341552734 1.393552660942078 C 35.38989639282227 1.257001399993896 35.34539031982422 1.112525582313538 35.27650833129883 0.9887760877609253 M 29.54380416870117 11.79886722564697 C 30.14792060852051 12.33043956756592 30.75995826721191 12.86262321472168 31.32262420654297 13.43991756439209 C 30.79043960571289 15.50769138336182 30.28142356872559 17.58338928222656 29.90347099304199 19.68591117858887 C 29.84494400024414 20.01326942443848 29.84921264648438 20.31197357177734 30.00527381896973 20.60762977600098 C 29.47126007080078 20.74296379089355 29.04209899902344 21.14286231994629 28.64585876464844 21.51106071472168 C 28.38982391357422 21.74941825866699 28.13805770874023 21.99203872680664 27.88019561767578 22.22795677185059 C 27.33033180236816 22.73026657104492 26.77132987976074 23.22282791137695 26.21110534667969 23.71355819702148 C 25.14551734924316 24.6456413269043 24.09333992004395 25.58930778503418 23.06189346313477 26.5591869354248 C 20.95022773742676 28.54648971557617 18.82149505615234 30.5167293548584 16.72811889648438 32.52354049682617 C 15.73751354217529 33.47269439697266 14.74507713317871 34.42123413085938 13.75264549255371 35.36916732788086 L 13.74228096008301 35.35636520385742 C 13.03575229644775 34.66263961791992 12.40237331390381 33.89636611938477 11.75192737579346 33.15204238891602 C 11.16609859466553 32.48269653320312 10.56868839263916 31.81762313842773 9.948112487792969 31.18058586120605 C 9.551870346069336 30.77397727966309 9.155627250671387 30.36737823486328 8.75938606262207 29.96199035644531 C 8.433857917785645 29.62792587280273 8.093090057373047 29.30971527099609 7.760246753692627 28.98357582092285 C 7.036647796630859 28.27826499938965 6.291712760925293 27.59916687011719 5.549216270446777 26.91458511352539 C 5.071897029876709 26.47445106506348 4.568974494934082 26.06418800354004 4.070319652557373 25.64660835266113 C 3.540574789047241 25.20281791687012 3.009000301361084 24.7620735168457 2.474988460540771 24.32255172729492 C 2.509736061096191 24.28963279724121 2.544482946395874 24.25610542297363 2.579230308532715 24.22257804870605 C 2.711514234542847 24.09517288208008 2.844407796859741 23.96715354919434 2.976691484451294 23.83852767944336 C 3.185785293579102 23.63796806335449 3.394269704818726 23.43618965148926 3.604583024978638 23.23684692382812 C 4.114211082458496 22.75343322753906 4.625057697296143 22.2730655670166 5.137734413146973 21.79331016540527 C 6.046652317047119 20.94412994384766 6.962275981903076 20.10104942321777 7.863270282745361 19.24273109436035 C 8.874601364135742 18.28016662597656 9.88288402557373 17.31394577026367 10.89238739013672 16.34894561767578 C 11.36665821075439 15.89600849151611 11.84275817871094 15.44612121582031 12.3176383972168 14.99562358856201 C 12.78520393371582 14.553053855896 13.24240684509277 14.09950828552246 13.70387649536133 13.64962100982666 C 14.32323360443115 13.04672431945801 14.91881465911865 12.41761493682861 15.52415084838867 11.80069446563721 C 15.84724044799805 11.47211933135986 16.15387153625488 11.12769412994385 16.46842575073242 10.79119300842285 C 16.87868881225586 10.3528881072998 17.28651428222656 9.913973808288574 17.6906795501709 9.469573974609375 C 17.75956535339355 9.393374443054199 17.81199264526367 9.310466766357422 17.84795570373535 9.220245361328125 C 18.86843490600586 8.834366798400879 19.89012718200684 8.4503173828125 20.90816497802734 8.058952331542969 C 21.80184364318848 7.716355800628662 22.69857025146484 7.37619686126709 23.57334899902344 6.988489151000977 C 24.02262687683105 7.34815502166748 24.4712963104248 7.709039688110352 24.92118263244629 8.068095207214355 C 24.89557838439941 8.257681846618652 24.93032836914062 8.453366279602051 25.02847290039062 8.61978816986084 C 25.1418571472168 8.814249992370605 25.32961463928223 8.95872688293457 25.54663467407227 9.018466949462891 C 25.73561096191406 9.070282936096191 25.90873908996582 9.048947334289551 26.07942771911621 8.98737621307373 C 26.58296012878418 9.386667251586914 27.08526992797852 9.787785530090332 27.59002494812012 10.18585777282715 C 28.25266265869141 10.70889472961426 28.90981674194336 11.24107933044434 29.54380416870117 11.79886722564697 M 33.69763565063477 1.323448181152344 L 33.63058090209961 1.332592248916626 L 33.62997436523438 1.331982612609863 C 33.65252685546875 1.328324913978577 33.67508316040039 1.325276970863342 33.69763565063477 1.323448181152344 M 33.61960601806641 1.333811402320862 L 33.61960601806641 1.333811402320862 L 33.61899566650391 1.333811402320862 L 33.61838912963867 1.333811402320862 L 33.61960601806641 1.333811402320862 M 33.88783645629883 1.709936380386353 C 33.86954498291016 1.789184927940369 33.84638214111328 1.866604447364807 33.81955718994141 1.943414449691772 C 33.73908615112305 2.106178283691406 33.64582443237305 2.258579254150391 33.54035949707031 2.406712770462036 C 33.20447158813477 2.802954912185669 32.81249237060547 3.127263784408569 32.4095458984375 3.45157265663147 L 32.39491653442383 3.461935520172119 C 32.38150024414062 3.246745824813843 32.38211059570312 3.032774925231934 32.40345001220703 2.81575608253479 C 32.42783355712891 2.685301542282104 32.45831298828125 2.559723138809204 32.50037384033203 2.43353533744812 C 32.57718658447266 2.274428844451904 32.66680145263672 2.12446665763855 32.76860427856445 1.978771567344666 C 32.90210342407227 1.818445801734924 33.04536056518555 1.669702768325806 33.203857421875 1.534370899200439 C 33.3001708984375 1.469143271446228 33.39771270751953 1.413669347763062 33.50134658813477 1.363072395324707 C 33.52450561523438 1.355757117271423 33.54828262329102 1.349051475524902 33.57205581665039 1.343564987182617 C 33.59339141845703 1.342345714569092 33.61473083496094 1.342345714569092 33.63545608520508 1.342345714569092 C 33.67264556884766 1.362462759017944 33.70861053466797 1.383798956871033 33.74457931518555 1.40696394443512 C 33.77505493164062 1.435005784034729 33.8043212890625 1.463656902313232 33.83235931396484 1.493527412414551 C 33.85247421264648 1.525226831436157 33.87137222290039 1.557535767555237 33.8896598815918 1.590454459190369 C 33.89027404785156 1.630688190460205 33.8896598815918 1.669702768325806 33.88783645629883 1.709936380386353" fill="#fc4d16" stroke="none" stroke-width="0"/>
</svg>