<svg xmlns="http://www.w3.org/2000/svg" width="59" height="30" viewBox="9.408743858337402 0.02775446511805058 58.73610019683838 29.58711369894445" fill="none">
  <path d="M 11.81474781036377 15.84788417816162 C 11.17847633361816 13.40031433105469 11.08255481719971 10.85602283477783 11.34553623199463 8.346102714538574 C 11.41507911682129 7.677856922149658 11.49261474609375 6.962450504302979 11.68765449523926 6.318184375762939 C 11.74200916290283 6.138333797454834 11.80355739593506 5.82499361038208 11.94583892822266 5.6986985206604 C 12.61248779296875 5.109586715698242 12.67963027954102 5.714685440063477 12.76675987243652 6.04001522064209 C 13.14084911346436 7.438056468963623 13.28153133392334 8.840093612670898 13.23277187347412 10.2836971282959 C 13.20799350738525 11.00869560241699 14.26311779022217 11.29725646972656 14.60763263702393 10.65618801116943 C 15.92494106292725 8.201422691345215 17.2997989654541 5.643543720245361 19.29494476318359 3.664384841918945 C 19.78174018859863 3.181585073471069 20.3021125793457 2.735554933547974 20.87203788757324 2.351872682571411 C 21.15900421142578 2.159232616424561 21.46674537658691 1.93381929397583 21.78727722167969 1.80033016204834 C 22.09982109069824 1.670037984848022 22.1437816619873 1.634867310523987 22.24210166931152 1.780346751213074 C 22.40196990966797 2.017750024795532 21.53469085693359 4.133595943450928 21.43956756591797 4.450932502746582 C 21.17179107666016 5.341394424438477 20.91759872436523 6.236652374267578 20.62664222717285 7.119120597839355 C 20.36526107788086 7.910464286804199 21.47074127197266 8.547534942626953 22.02947998046875 7.936043262481689 C 24.31558609008789 5.433318138122559 27.06051063537598 3.259120941162109 30.37136077880859 2.330291032791138 C 31.14672088623047 2.112071514129639 31.9372673034668 1.959398150444031 32.74140167236328 1.905043125152588 C 33.25936889648438 1.869872331619263 34.72935104370117 1.646057963371277 34.99792861938477 2.207992315292358 C 35.31526565551758 2.872241497039795 34.43759536743164 3.661986589431763 34.03313064575195 4.02568531036377 C 33.42803192138672 4.570034503936768 32.8469123840332 5.060827255249023 32.37450408935547 5.732270240783691 C 31.82375717163086 6.515621185302734 32.85970306396484 7.259004592895508 33.56871795654297 6.926480293273926 C 36.94271469116211 5.342194080352783 40.61647033691406 4.467719078063965 44.34298324584961 4.360608100891113 C 45.28060150146484 4.334229469299316 46.22062301635742 4.352614402770996 47.15584945678711 4.420558452606201 C 47.94719696044922 4.477311134338379 48.86403274536133 4.470117092132568 49.61381530761719 4.727503776550293 C 49.80085754394531 4.774664878845215 49.96871948242188 4.860193252563477 50.11659240722656 4.984090805053711 C 50.18453979492188 4.673149108886719 50.10380554199219 4.61799430847168 49.87439727783203 4.817828178405762 C 49.52988433837891 4.809835433959961 48.86163711547852 5.277447700500488 48.53790664672852 5.419729709625244 C 47.6010856628418 5.832187652587891 46.65386581420898 6.218267440795898 45.70745468139648 6.608343601226807 C 44.70108413696289 7.023998737335205 45.05039978027344 8.569916725158691 46.17026519775391 8.287751197814941 C 49.19895935058594 7.52518367767334 52.39870834350586 7.467631816864014 55.4593620300293 8.093512535095215 C 55.82946014404297 8.169449806213379 59.97641754150391 9.350069999694824 59.84613037109375 9.569888114929199 C 60.00359725952148 9.303708076477051 59.23543548583984 9.571487426757812 59.21465301513672 9.575483322143555 C 58.80619430541992 9.64902400970459 58.39453506469727 9.712170600891113 57.98367309570312 9.766526222229004 C 57.12198257446289 9.880830764770508 56.25470733642578 9.948774337768555 55.38742446899414 9.994336128234863 C 54.16923141479492 10.05988216400146 54.22598266601562 11.70571804046631 55.38742446899414 11.84720039367676 C 58.35615921020508 12.20930194854736 61.24016952514648 13.40511035919189 63.57263946533203 15.28195476531982 C 63.88278198242188 15.53134727478027 64.98027038574219 16.25234985351562 64.98346710205078 16.73515129089355 C 64.98666381835938 17.2115535736084 64.2520751953125 17.47613525390625 63.89476776123047 17.59603691101074 C 62.40560913085938 18.09562110900879 60.60469818115234 17.79747009277344 59.14670562744141 17.34744071960449 C 58.09318542480469 17.0221118927002 57.35298919677734 18.67274475097656 58.38254547119141 19.16033744812012 C 59.85491943359375 19.85816192626953 61.33609771728516 20.57436752319336 62.67178344726562 21.5159854888916 C 63.30326080322266 21.96121597290039 63.89476776123047 22.4640007019043 64.41753387451172 23.03472518920898 C 64.85877227783203 23.51752471923828 65.61015319824219 24.27370071411133 64.73008728027344 24.67496681213379 C 63.24970245361328 25.34960746765137 61.14505004882812 25.07943344116211 59.60393142700195 24.79646492004395 C 57.74706649780273 24.45515060424805 55.95015716552734 23.84685325622559 54.16843795776367 23.23616027832031 C 53.19404220581055 22.9028377532959 52.34595108032227 24.31846237182617 53.14288711547852 24.99790000915527 C 53.72880172729492 25.4966869354248 54.3147087097168 25.99627304077148 54.90063095092773 26.49585723876953 C 55.09966278076172 26.66611671447754 55.52331161499023 26.89792442321777 55.62722778320312 27.14491844177246 C 55.70716094970703 27.33436012268066 55.7159538269043 27.20326995849609 55.39461898803711 27.32636642456055 C 54.31071853637695 27.74361991882324 52.64170455932617 27.50461959838867 51.5234260559082 27.32956504821777 C 48.8432502746582 26.91151237487793 46.30695343017578 25.74368286132812 44.25985336303711 23.96435546875 C 43.75467300415039 24.4687385559082 43.24949264526367 24.97391891479492 42.74510955810547 25.47910118103027 C 43.84979629516602 26.37995338439941 44.94728088378906 27.28960037231445 46.04636764526367 28.1976432800293 C 45.99041748046875 27.76200675964355 45.93446350097656 27.32636642456055 45.87770843505859 26.8907299041748 C 45.40530014038086 27.74122428894043 43.76906204223633 27.39751052856445 42.99530410766602 27.3095817565918 C 41.6004524230957 27.14971351623535 40.22079849243164 26.83956909179688 38.88111114501953 26.42311668395996 C 36.22731399536133 25.59900283813477 33.8604736328125 24.26570701599121 31.62313079833984 22.63825607299805 C 30.59357833862305 21.88847732543945 29.38258361816406 23.5223217010498 30.27704238891602 24.38320922851562 C 30.71587753295898 24.80605888366699 31.15951156616211 25.2241096496582 31.59115219116211 25.65495491027832 C 31.76380920410156 25.82681465148926 31.93486785888672 26.00026893615723 32.10672760009766 26.17372512817383 C 32.23542022705078 26.30321502685547 32.36411285400391 26.43270874023438 32.49280548095703 26.5629997253418 C 32.5831298828125 26.73885345458984 32.68624496459961 26.73725700378418 32.80215072631836 26.55900573730469 C 33.30973052978516 26.39193916320801 32.67505645751953 26.45908546447754 32.56954193115234 26.46148681640625 C 32.26339721679688 26.46947860717773 31.9460563659668 26.42072105407715 31.6439094543457 26.3807487487793 C 31.10195922851562 26.30881118774414 30.56640243530273 26.19290733337402 30.03883743286133 26.05142593383789 C 27.74474143981934 25.43993377685547 25.63688659667969 24.30967140197754 23.57459831237793 23.16102409362793 C 19.5731143951416 20.93326759338379 15.74588680267334 18.27147483825684 12.388671875 15.14846515655518 C 11.19845962524414 14.04138278961182 9.408743858337402 15.82150650024414 10.60055446624756 16.93737983703613 C 14.91697788238525 20.97723197937012 20.13664817810059 24.17618179321289 25.48821067810059 26.66451835632324 C 26.7695484161377 27.26002311706543 28.08845329284668 27.79957580566406 29.46011924743652 28.15048408508301 C 30.68870162963867 28.46542358398438 32.29616928100586 28.85869789123535 33.55432891845703 28.49819755554199 C 34.62064361572266 28.19204902648926 35.21694946289062 27.14252281188965 34.78930282592773 26.09778785705566 C 34.54950332641602 25.5142707824707 34.06350326538086 25.09302139282227 33.6270637512207 24.65338516235352 C 33.02516555786133 24.04748725891113 32.43684768676758 23.43119812011719 31.84853744506836 22.81171035766602 C 31.32417297363281 23.33527755737305 30.80060958862305 23.85884284973145 30.27704238891602 24.38320922851562 C 32.94363784790039 26.5102481842041 36.11300659179688 28.03538131713867 39.41906356811523 28.86909103393555 C 40.97537231445312 29.26076316833496 42.63320159912109 29.55492210388184 44.24386215209961 29.58609390258789 C 45.609130859375 29.61327171325684 47.04074478149414 29.2559700012207 47.74016189575195 27.97942543029785 C 47.95038986206055 27.59414482116699 47.94319915771484 26.9754581451416 47.57150268554688 26.67251014709473 C 46.46602249145508 25.77165985107422 45.35893630981445 24.87240219116211 44.25985336303711 23.96435546875 C 43.21192169189453 23.09867477416992 41.69877624511719 24.55746269226074 42.74510955810547 25.47910118103027 C 45.70745468139648 28.08733749389648 49.51469421386719 29.5916919708252 53.47541046142578 29.60847663879395 C 54.91821670532227 29.6148681640625 57.11318969726562 29.56371307373047 57.73028182983398 27.94265556335449 C 58.46726608276367 26.0058650970459 55.84225082397461 24.53508377075195 54.63285064697266 23.50713539123535 C 54.29153060913086 24.09464836120605 53.94941329956055 24.68136405944824 53.60810470581055 25.26887321472168 C 55.95175933837891 26.07140922546387 58.31859970092773 26.83956909179688 60.79813385009766 27.07697486877441 C 62.62063598632812 27.25123023986816 65.60535430908203 27.32636642456055 66.83553314208984 25.66214942932129 C 68.14484405517578 23.89081764221191 66.38230895996094 21.92684555053711 65.06020355224609 20.79818153381348 C 63.36960601806641 19.35617828369141 61.37525939941406 18.39617347717285 59.3833122253418 17.44735908508301 C 59.12911987304688 18.05165863037109 58.8741340637207 18.65595626831055 58.61914443969727 19.26025390625 C 60.59430694580078 19.87494659423828 63.08663940429688 20.17469787597656 65.02742767333984 19.28503608703613 C 66.56215667724609 18.58082008361816 67.55653381347656 16.92539215087891 66.47103118896484 15.37947273254395 C 65.35436248779297 13.78719234466553 63.25770568847656 12.57619571685791 61.54311752319336 11.74488544464111 C 59.59433746337891 10.80086803436279 57.53524398803711 10.23733520507812 55.38742446899414 9.994336128234863 L 55.38742446899414 11.84720039367676 C 56.52328109741211 11.77606010437012 57.65433883666992 11.65615844726562 58.77901077270508 11.48190402984619 C 59.66947555541992 11.34361839294434 60.80453491210938 11.29166126251221 61.39524459838867 10.51310634613037 C 62.78929138183594 8.679426193237305 59.92605972290039 7.534775733947754 58.64312362670898 7.109528541564941 C 54.45778656005859 5.721879005432129 49.99030303955078 5.645142555236816 45.70745468139648 6.608343601226807 C 45.86171722412109 7.167879581451416 46.0159912109375 7.72821569442749 46.17026519775391 8.287751197814941 C 47.38126373291016 7.824135780334473 48.57547378540039 7.314957618713379 49.75929260253906 6.78819465637207 C 50.58020782470703 6.422897815704346 51.70167922973633 6.08158016204834 51.83437347412109 5.04004430770874 C 52.11733627319336 2.813889741897583 48.53790664672852 2.773123979568481 47.15584945678711 2.678002595901489 C 42.18637084960938 2.334287643432617 37.20170211791992 3.341452598571777 32.68784713745117 5.419729709625244 C 33.08591079711914 5.816999912261963 33.48318862915039 6.215070724487305 33.88125610351562 6.613139629364014 C 34.97954559326172 5.076813697814941 37.18092346191406 4.236710548400879 36.76206970214844 1.955401539802551 C 36.35840225219727 -0.2395788729190826 33.65024948120117 -0.02775446511805058 31.96444320678711 0.1848692893981934 C 27.58008003234863 0.738010585308075 23.57779693603516 3.34385085105896 20.84246253967285 6.749027252197266 C 21.3100757598877 7.020802021026611 21.77768707275391 7.293375492095947 22.24530029296875 7.565950393676758 C 22.57622528076172 6.348559379577637 22.96230506896973 5.145556449890137 23.3252067565918 3.937758207321167 C 23.58499145507812 3.072875499725342 24.19568634033203 1.873869180679321 23.86556053161621 0.9634238481521606 C 23.23808097839355 -0.7679409384727478 21.04389381408691 0.2336288541555405 20.02714157104492 0.9074702262878418 C 16.80181312561035 3.047296285629272 14.93855571746826 6.502831935882568 13.33348846435547 9.912004470825195 C 13.78271770477295 9.970355987548828 14.23194408416748 10.02950763702393 14.68197154998779 10.08785915374756 C 14.40700054168701 9.102275848388672 14.13282680511475 8.121488571166992 13.90021991729736 7.125514507293701 C 13.73955249786377 6.440483093261719 13.66361522674561 5.483676910400391 13.22877597808838 4.900959491729736 C 12.51896476745605 3.950547695159912 11.44705295562744 4.652366161346436 11.0026216506958 5.461294651031494 C 10.22806262969971 6.868927478790283 10.11935520172119 8.959993362426758 10.12495040893555 10.53548812866211 C 10.13134384155273 12.40913391113281 10.51182842254639 14.26999187469482 11.09694385528564 16.04611968994141 C 11.24561977386475 16.49854469299316 11.93624782562256 16.31549644470215 11.81474781036377 15.84788417816162" fill="#2473d8" stroke="none" stroke-width="0"/>
</svg>