<svg xmlns="http://www.w3.org/2000/svg" width="1" height="1" viewBox="141.4129943847656 81.03878021240234 1.1170196533203125 1" fill="none">
  <path d="M 142.3227691650391 81.1044921875 C 142.3382568359375 81.19107818603516 142.4981689453125 81.03878021240234 142.4741821289062 81.25649261474609 C 142.4008636474609 81.19895935058594 142.3506622314453 81.20122528076172 142.3227691650391 81.30668640136719 C 142.3345947265625 81.36986541748047 142.4228668212891 81.35744476318359 142.4234466552734 81.30668640136719 C 142.5300140380859 81.32192230224609 142.3704071044922 81.48237609863281 142.2719879150391 81.45868682861328 C 142.1989440917969 81.35744476318359 142.3244476318359 81.28131103515625 142.1713104248047 81.20545196533203 C 142.1764068603516 81.30499267578125 141.8949432373047 81.50776672363281 142.1205444335938 81.50917816162109 C 141.9220275878906 81.65157318115234 141.9956207275391 81.32530212402344 141.8673095703125 81.30668640136719 C 141.8097839355469 81.31655120849609 141.8394012451172 81.35717010498047 141.8673095703125 81.35717010498047 C 141.7917327880859 81.46488952636719 141.7440643310547 81.32135772705078 141.6151885986328 81.40792846679688 C 141.6995086669922 81.48688507080078 141.8196563720703 81.36901092529297 141.8165588378906 81.61013031005859 C 141.7677764892578 81.60843658447266 141.7779235839844 81.548095703125 141.7666320800781 81.50917816162109 C 141.6772308349609 81.55401611328125 141.6101226806641 81.62168884277344 141.564453125 81.7108154296875 C 141.4301910400391 81.72716522216797 141.61181640625 81.42766571044922 141.4129943847656 81.50917816162109 C 141.4338836669922 81.41159820556641 141.4310455322266 81.29118347167969 141.564453125 81.30668640136719 C 141.5376586914062 81.3472900390625 141.5114135742188 81.38846588134766 141.513671875 81.45868682861328 C 141.6374816894531 81.24520874023438 141.5768432617188 81.22885131835938 141.8673095703125 81.15468597412109 C 141.9930877685547 81.39524078369141 142.1239166259766 81.18486785888672 142.3726654052734 81.05400848388672 C 142.3819427490234 81.09716033935547 142.3531951904297 81.10195159912109 142.3227691650391 81.1044921875" fill="#2777df" stroke="none" stroke-width="0"/>
</svg>