<svg xmlns="http://www.w3.org/2000/svg" width="1" height="1" viewBox="161.0080108642578 263.6880187988281 1 1" fill="none">
  <path d="M 161.6453552246094 264.0926818847656 C 161.6247406005859 263.9474487304688 161.4070434570312 264.2813415527344 161.5440979003906 264.295166015625 C 161.5283050537109 264.3202819824219 161.3686828613281 264.3922119140625 161.3926391601562 264.2441101074219 C 161.3187713623047 264.287841796875 161.1969604492188 264.2836303710938 161.2406616210938 264.4463195800781 C 161.2000579833984 264.41162109375 161.1024780273438 264.36767578125 161.0892333984375 264.4463195800781 C 161.0080108642578 264.3611450195312 161.2933959960938 264.2145080566406 161.3419036865234 264.0926818847656 C 161.3415985107422 263.97314453125 161.2042694091797 264.1110229492188 161.2406616210938 264.1933898925781 C 161.0849761962891 263.9175720214844 161.7254333496094 264.0046997070312 161.6955413818359 263.6880187988281 L 161.9487915039062 263.6880187988281 C 161.9620208740234 263.8724670410156 161.7468414306641 264.089599609375 161.8475341796875 264.1933898925781 C 161.8289184570312 264.335205078125 161.5299835205078 264.0836791992188 161.6453552246094 264.0926818847656" fill="#2777df" stroke="none" stroke-width="0"/>
</svg>