<svg xmlns="http://www.w3.org/2000/svg" width="2" height="5" viewBox="373.391357421875 12.94600105285645 2.107727050781193 5.063987731933588" fill="none">
  <path d="M 374.8924560546875 13.95727443695068 C 375.0371398925781 13.84193420410156 374.8216857910156 13.66088676452637 374.8924560546875 13.45191955566406 C 375.0653381347656 13.29484081268311 375.0876159667969 13.41300296783447 375.0436096191406 13.14819717407227 C 375.2415771484375 13.26325798034668 375.1711120605469 13.09800148010254 375.1451416015625 12.94600105285645 C 375.4197998046875 13.08249092102051 375.2608032226562 13.10561561584473 375.4990844726562 13.25000286102295 C 375.4928588867188 13.37295818328857 375.3321228027344 13.2595911026001 375.3473510742188 13.19895935058594 C 375.2046203613281 13.25000286102295 375.3611450195312 13.41328620910645 375.3473510742188 13.50211620330811 C 375.2441101074219 13.48745250701904 375.2486267089844 13.36562538146973 375.1451416015625 13.35039806365967 C 375.1668701171875 13.44684410095215 375.2889404296875 13.4417667388916 375.2461242675781 13.60363864898682 C 375.1541748046875 13.5277795791626 375.0752258300781 13.46743106842041 374.9937133789062 13.60363864898682 C 375.069580078125 13.66257858276367 375.116943359375 13.74943733215332 375.2461242675781 13.75507640838623 C 375.2201538085938 13.82924365997314 375.1711120605469 13.88226222991943 375.1451416015625 13.95727443695068 C 374.9759521484375 13.91046237945557 375.1203002929688 13.86308670043945 375.0943908691406 13.70431613922119 C 374.9739685058594 13.75958919525146 374.9739685058594 13.95219898223877 375.0943908691406 14.00803565979004 C 375.0720825195312 14.08248615264893 375.0298156738281 13.98745059967041 374.9432067871094 14.00803565979004 C 374.9190063476562 14.16652393341064 375.0055847167969 14.21418285369873 375.0943908691406 14.26015090942383 C 375.0825500488281 14.39015483856201 375.0075378417969 14.19077587127686 374.8924560546875 14.26015090942383 C 374.9990234375 14.41976547241211 374.8262023925781 14.26973819732666 374.7407531738281 14.41158676147461 C 374.7503356933594 14.46911716461182 374.79150390625 14.4395055770874 374.79150390625 14.41158676147461 C 374.8233947753906 14.64142227172852 375.0729370117188 14.51931381225586 374.9432067871094 14.71558952331543 C 374.8476257324219 14.70966815948486 374.9076843261719 14.5480785369873 374.79150390625 14.56387042999268 C 374.7029724121094 14.57571506500244 374.6761474609375 14.65101051330566 374.6899719238281 14.76635074615479 C 374.7399291992188 14.76437664031982 374.7297668457031 14.70374584197998 374.7407531738281 14.66454792022705 C 374.8189086914062 14.77001762390137 374.665771484375 14.95811557769775 374.6899719238281 15.06894397735596 C 374.5718078613281 15.05625343322754 374.66064453125 14.84700489044189 374.6899719238281 14.81626605987549 C 374.6806640625 14.77565765380859 374.6392211914062 14.76635074615479 374.6400756835938 14.71558952331543 C 374.6065063476562 14.76268482208252 374.593017578125 14.96065425872803 374.3871459960938 14.96742248535156 C 374.424072265625 15.05794620513916 374.4790649414062 14.97531700134277 374.5382385253906 14.96742248535156 C 374.4928894042969 14.91948127746582 374.5272827148438 15.17328548431396 374.4874877929688 15.37210083007812 C 374.5506591796875 15.35010433197021 374.5918273925781 15.30752182006836 374.589599609375 15.22038269042969 C 374.8208312988281 15.24294090270996 374.5126037597656 15.43780708312988 374.6400756835938 15.47362327575684 C 374.6220397949219 15.54412364959717 374.5506591796875 15.47757244110107 374.5382385253906 15.42286205291748 C 374.4542236328125 15.49477386474609 374.6220397949219 15.70345783233643 374.3363952636719 15.57429790496826 C 374.4266052246094 15.69669055938721 374.4773559570312 15.8574333190918 374.3871459960938 16.02973937988281 C 374.3002624511719 16.03171539306641 374.2562561035156 15.99167060852051 374.2356872558594 15.92793464660645 C 374.1685791015625 16.12252044677734 374.2365417480469 16.3402271270752 373.982666015625 16.43329048156738 C 374.0695495605469 16.46430969238281 373.9782104492188 16.67327690124512 374.084228515625 16.68624877929688 C 373.9644165039062 16.78692436218262 373.9127807617188 16.95359230041504 373.7805480957031 17.03988456726074 C 373.7898254394531 17.09741401672363 373.8309936523438 17.06836700439453 373.8309936523438 17.03988456726074 C 373.87841796875 17.07316207885742 373.8510131835938 17.26972198486328 373.982666015625 17.34360694885254 C 373.8955688476562 17.51591110229492 373.6177978515625 17.27197647094727 373.6795654296875 17.646484375 C 373.765869140625 17.66509246826172 373.7743225097656 17.60700225830078 373.7805480957031 17.54524040222168 C 373.6547546386719 17.42594909667969 373.9471740722656 17.6084098815918 373.7805480957031 17.69724082946777 C 373.9136047363281 18.00998878479004 373.6245727539062 17.60390090942383 373.5780334472656 17.49504280090332 C 373.5809020996094 17.32865905761719 373.7940368652344 17.373779296875 373.7805480957031 17.19132232666016 C 373.7311706542969 17.19273567199707 373.7416076660156 17.25364685058594 373.7297668457031 17.29312896728516 C 373.6832275390625 17.26408004760742 373.6527709960938 17.15240669250488 373.6291198730469 17.24208450317383 C 373.5030212402344 17.22149658203125 373.5904235839844 17.01083755493164 373.7297668457031 17.09064865112305 C 373.7080383300781 17.02832412719727 373.6651916503906 16.98743057250977 373.5780334472656 16.98996925354004 C 373.6651916503906 16.93695259094238 373.5791625976562 16.63210296630859 373.7297668457031 16.78777122497559 C 373.7604675292969 16.65607261657715 373.7100219726562 16.60531425476074 373.5780334472656 16.6363353729248 C 373.587646484375 16.59488105773926 373.6291198730469 16.58557510375977 373.6291198730469 16.53481292724609 C 373.4819030761719 16.57852363586426 373.5721130371094 16.61010932922363 373.5780334472656 16.73701095581055 C 373.5334777832031 16.70599174499512 373.4880676269531 16.67581558227539 373.4773864746094 16.73701095581055 C 373.391357421875 16.57175445556641 373.7500610351562 16.47587203979492 373.5281372070312 16.38337707519531 C 373.7026672363281 16.34192085266113 373.7407836914062 16.47699928283691 373.8309936523438 16.38337707519531 C 373.7923889160156 16.19386672973633 373.7511901855469 16.0054874420166 373.982666015625 15.97869682312012 C 373.9206848144531 16.142822265625 374.14599609375 16.01704978942871 374.084228515625 16.18117713928223 C 374.2571105957031 16.08501243591309 373.8862609863281 15.845871925354 373.8817443847656 15.92793464660645 C 373.853271484375 15.69584465026855 374.3363952636719 15.38845729827881 374.2356872558594 15.06894397735596 C 374.3016357421875 15.08671092987061 374.3146057128906 15.15805721282959 374.3871459960938 15.16990280151367 C 374.3036193847656 15.05738162994385 374.3975524902344 14.89607524871826 374.3363952636719 14.86702728271484 C 374.4232177734375 14.81965065002441 374.4378662109375 14.66116333007812 374.5382385253906 14.76635074615479 C 374.4818725585938 14.70374584197998 374.4948425292969 14.66172695159912 374.589599609375 14.66454792022705 C 374.6256713867188 14.50972461700439 374.5021667480469 14.51564693450928 374.5382385253906 14.36167240142822 C 374.6417541503906 14.51931381225586 374.8233947753906 13.53539371490479 374.8924560546875 13.95727443695068" fill="#2777df" stroke="none" stroke-width="0"/>
</svg>