<svg xmlns="http://www.w3.org/2000/svg" width="1" height="1" viewBox="379.2860412597656 29.60090065002441 1.100341796875 1.0752906799316406" fill="none">
  <path d="M 380.0835266113281 29.61499977111816 C 380.1602478027344 29.65871429443359 380.0697021484375 29.6902961730957 380.1345825195312 29.81719970703125 C 380.1938171386719 29.80901908874512 380.1774597167969 29.72470092773438 380.1850280761719 29.66576194763184 C 380.3863830566406 29.63304901123047 380.3297119140625 29.8575267791748 380.3364562988281 30.01968002319336 C 380.2101135253906 29.92012977600098 380.2817993164062 29.99486541748047 380.0835266113281 30.1203556060791 C 380.1430053710938 30.21905899047852 380.2496643066406 30.40320777893066 380.1345825195312 30.52475166320801 C 380.0426635742188 30.44325256347656 380.1694946289062 30.36513900756836 380.0339050292969 30.27179145812988 C 379.9710388183594 30.29435157775879 379.9295654296875 30.33721542358398 379.9320678710938 30.4240779876709 C 380.0277099609375 30.38572311401367 379.9676513671875 30.27348518371582 380.0835266113281 30.37331390380859 C 380.0398254394531 30.46214866638184 379.8598937988281 30.456787109375 379.9828491210938 30.57551574707031 C 379.9580078125 30.60428047180176 379.5192260742188 30.41843414306641 379.5277099609375 30.67619132995605 C 379.4735412597656 30.66406631469727 379.4929809570312 30.57635688781738 379.427001953125 30.57551574707031 C 379.4552307128906 30.46101760864258 379.5054321289062 30.63670921325684 379.5784606933594 30.52475166320801 C 379.5440673828125 30.48639869689941 379.3649291992188 30.36400985717773 379.5784606933594 30.37331390380859 C 379.2860412597656 30.24500274658203 379.6698303222656 30.18380928039551 379.47802734375 29.86824417114258 C 379.5596008300781 29.85329627990723 379.5646362304688 29.91533660888672 379.6292114257812 29.91787528991699 C 379.6732482910156 29.81381416320801 379.4983825683594 29.6914234161377 379.47802734375 29.81719970703125 C 379.3821716308594 29.81268882751465 379.4898986816406 29.60090065002441 379.6292114257812 29.66576194763184 C 379.6387634277344 29.70834541320801 379.6091918945312 29.71313667297363 379.5784606933594 29.71652221679688 C 379.6154174804688 29.76305389404297 379.67041015625 29.79266548156738 379.7298889160156 29.81719970703125 C 379.6900939941406 29.86203765869141 379.6757202148438 29.93085098266602 379.6791381835938 30.01968002319336 C 379.5982055664062 30.0340633392334 379.59228515625 29.97145652770996 379.5277099609375 29.9686393737793 C 379.6842041015625 30.1367130279541 379.6317749023438 30.02842140197754 379.5784606933594 30.27179145812988 C 379.8522644042969 30.22441864013672 379.8675537109375 29.89333915710449 380.1345825195312 29.91787528991699 C 380.0011901855469 29.82340621948242 380.0474243164062 29.72808265686035 380.0835266113281 29.61499977111816" fill="#2777df" stroke="none" stroke-width="0"/>
</svg>