<svg xmlns="http://www.w3.org/2000/svg" width="1" height="1" viewBox="360.6069946289062 31.76700401306152 1 1.0611858367920028" fill="none">
  <path d="M 361.4160461425781 31.96920204162598 C 361.4589233398438 31.97822189331055 361.46337890625 31.94946098327637 361.4668273925781 31.91844177246094 C 361.5460815429688 31.93648529052734 361.4222717285156 32.00755310058594 361.5164489746094 32.01911163330078 C 361.4986877441406 32.09864044189453 361.4278869628906 31.97512435913086 361.4160461425781 32.06987380981445 C 361.3568115234375 32.06169891357422 361.3731994628906 31.97822189331055 361.3652954101562 31.91844177246094 C 361.2705383300781 32.02334594726562 361.3057556152344 32.1795768737793 361.1123352050781 32.06987380981445 C 361.1261596679688 32.20298385620117 361.2172241210938 32.23598098754883 361.0116271972656 32.22159194946289 C 361.0683288574219 32.28363800048828 361.0553283691406 32.32537460327148 360.9606323242188 32.32283401489258 C 360.9625854492188 32.37246322631836 361.0226745605469 32.36203384399414 361.0624084472656 32.37359619140625 C 360.88671875 32.50444412231445 360.8041076660156 32.75374221801758 360.7076416015625 32.82818984985352 C 360.7502136230469 32.58876419067383 360.797607421875 32.53913497924805 360.6069946289062 32.5250358581543 L 360.6069946289062 32.32283401489258 C 360.7502136230469 32.33072662353516 360.7336120605469 32.1795768737793 360.8094482421875 32.12063598632812 C 360.9349670410156 32.12824630737305 360.8238220214844 32.29153442382812 360.8094482421875 32.32283401489258 C 361.0235290527344 32.27771759033203 360.9092407226562 32.01629638671875 361.1123352050781 32.06987380981445 C 361.1115112304688 32.02080535888672 361.0500183105469 32.03068161010742 361.0116271972656 32.01911163330078 C 361.057373046875 31.85047721862793 361.1241760253906 31.97512435913086 361.2135925292969 32.01911163330078 C 361.095947265625 31.83750152587891 361.3892211914062 31.91110801696777 361.3652954101562 31.76700401306152 C 361.4101257324219 31.7977409362793 361.455810546875 31.82791900634766 361.4668273925781 31.76700401306152 C 361.5863647460938 31.78053855895996 361.4084167480469 31.90208435058594 361.4160461425781 31.96920204162598" fill="#2777df" stroke="none" stroke-width="0"/>
</svg>