<svg xmlns="http://www.w3.org/2000/svg" width="5" height="7" viewBox="33.15700149536133 293.6180114746094 4.621238708496094 6.97515869140625" fill="none">
  <path d="M 35.27994155883789 296.8021545410156 C 35.29884338378906 296.8890380859375 35.24018096923828 296.8980407714844 35.17842102050781 296.9036865234375 C 35.20606231689453 296.9443054199219 35.23172378540039 296.9851989746094 35.22919082641602 297.0551147460938 C 35.05349731445312 296.9490966796875 35.13640594482422 297.1217041015625 35.0777473449707 297.2065124511719 C 35.08705139160156 297.248291015625 35.12850952148438 297.2575988769531 35.12850952148438 297.308349609375 C 35.18603897094727 297.2897033691406 35.25653839111328 297.21923828125 35.17842102050781 297.2065124511719 C 35.20069885253906 297.1273193359375 35.3377571105957 297.1636962890625 35.27994155883789 297.0046691894531 C 35.36934280395508 297.0387268066406 35.58987045288086 296.8438720703125 35.48214340209961 296.9036865234375 C 35.4068489074707 296.880859375 35.50188446044922 296.8382873535156 35.48214340209961 296.7513732910156 C 35.35636520385742 296.7572937011719 35.32563018798828 296.8470153808594 35.22919082641602 296.7513732910156 C 35.3033561706543 296.5562438964844 35.44012451171875 296.4231567382812 35.53318405151367 296.246337890625 L 35.63358306884766 296.246337890625 C 35.60791778564453 296.4905395507812 35.51485443115234 296.3512268066406 35.63358306884766 296.550048828125 C 35.53036499023438 296.6515808105469 35.53459548950195 296.5272216796875 35.43138122558594 296.4995422363281 C 35.33945083618164 296.5810546875 35.4677619934082 296.6588745117188 35.33070755004883 296.7513732910156 C 35.44745635986328 296.7113952636719 35.60058975219727 296.5410461425781 35.63358306884766 296.7015075683594 C 35.70690536499023 296.610107421875 35.64542770385742 296.5469665527344 35.68462371826172 296.3478088378906 C 35.76584243774414 296.3334350585938 35.77148056030273 296.3952331542969 35.83577728271484 296.3977661132812 C 35.79376220703125 296.3396606445312 35.76922988891602 296.2626953125 35.78530120849609 296.1456604003906 C 36.02585220336914 296.0821838378906 36.0932502746582 295.846435546875 36.18970108032227 295.6397399902344 C 36.23876571655273 295.6411437988281 36.22917556762695 295.7020263671875 36.24045562744141 295.7409362792969 C 36.31378173828125 295.7293701171875 36.25766372680664 295.590087890625 36.34113693237305 295.5898132324219 C 36.13301467895508 295.4820861816406 36.41360855102539 295.2612609863281 36.49257659912109 295.1343688964844 C 36.48749542236328 295.0108337402344 36.32618713378906 295.1242065429688 36.34113693237305 295.1851196289062 C 36.22240829467773 295.1707153320312 36.39923095703125 295.0500793457031 36.39189529418945 294.9832153320312 C 36.59239959716797 295.1448059082031 36.45732116699219 294.7204284667969 36.59409332275391 294.9832153320312 C 36.68011093139648 294.9665832519531 36.54755783081055 294.8261413574219 36.69477462768555 294.7807312011719 C 36.67333602905273 294.7057189941406 36.63075637817383 294.8004760742188 36.5433349609375 294.7807312011719 C 36.57012939453125 294.7401123046875 36.59663391113281 294.6986694335938 36.59409332275391 294.6293029785156 C 36.70436096191406 294.6194763183594 36.75483703613281 294.6701965332031 36.74552917480469 294.7807312011719 C 36.89696884155273 294.7477416992188 36.69730758666992 294.6730041503906 36.74552917480469 294.5782470703125 C 36.79065322875977 294.6007995605469 36.8360595703125 294.6228332519531 36.84705352783203 294.6803588867188 C 36.9051513671875 294.53369140625 36.97367858886719 294.328125 37.04896926879883 294.1242370605469 C 36.92432022094727 294.2697143554688 36.95985412597656 294.1834411621094 36.99848556518555 294.0224304199219 C 37.21535873413086 294.1657104492188 37.0760498046875 293.8560485839844 37.25116729736328 293.9721984863281 C 37.29713821411133 293.9578247070312 37.420654296875 293.7838745117188 37.3016471862793 293.7697448730469 C 37.33407592773438 293.6673889160156 37.53824996948242 293.7364501953125 37.55460739135742 293.6180114746094 C 37.6414680480957 293.6338195800781 37.48862075805664 293.7934265136719 37.70603942871094 293.7697448730469 C 37.77824020385742 293.620849609375 37.74467849731445 293.8873596191406 37.60480880737305 293.8205261230469 C 37.64203262329102 293.8678894042969 37.69702529907227 293.8966064453125 37.75680160522461 293.9217529296875 C 37.72832489013672 294.0263671875 37.67756271362305 294.0286560058594 37.60480880737305 293.9721984863281 C 37.62764739990234 294.0170593261719 37.64907836914062 294.0621948242188 37.70603942871094 294.0734558105469 C 37.64315795898438 294.0734558105469 37.558837890625 294.1986694335938 37.45308685302734 294.1242370605469 C 37.44885635375977 294.1950073242188 37.44519424438477 294.2666320800781 37.50384902954102 294.2754516601562 C 37.48551559448242 294.34619140625 37.41501235961914 294.2793273925781 37.40317153930664 294.224609375 C 37.44124603271484 294.4305114746094 37.17474365234375 294.3822631835938 37.25116729736328 294.5782470703125 C 37.16938781738281 294.5926208496094 37.16374969482422 294.5303344726562 37.09916687011719 294.5274963378906 C 37.12172317504883 294.590087890625 37.16374969482422 294.6318664550781 37.25116729736328 294.6293029785156 C 36.96944808959961 294.7610168457031 36.97621536254883 294.9590148925781 36.69477462768555 295.08447265625 C 36.67813110351562 295.1851196289062 36.70520401000977 295.2421264648438 36.79656982421875 295.2361755371094 C 36.83069610595703 295.2569885253906 36.56645965576172 295.4073486328125 36.44266128540039 295.4380798339844 C 36.6070671081543 295.6650695800781 36.57943344116211 295.6419677734375 36.34113693237305 295.7919921875 C 36.47452545166016 295.8154296875 36.4215087890625 295.908203125 36.39189529418945 296.0949096679688 C 36.34452056884766 296.0579833984375 36.31519317626953 296.002685546875 36.29122161865234 295.9434814453125 C 36.21592712402344 295.9651794433594 36.31096267700195 296.0079956054688 36.29122161865234 296.0949096679688 C 36.17926406860352 295.9784240722656 36.16460037231445 296.1828918457031 36.08901977539062 296.246337890625 C 36.04164123535156 296.2091064453125 36.01203536987305 296.1541137695312 35.98721694946289 296.0949096679688 C 35.99680328369141 296.2575988769531 35.95055389404297 296.3467102050781 36.03826141357422 296.4995422363281 C 35.89443969726562 296.424560546875 35.96550369262695 296.5861511230469 35.73510360717773 296.4995422363281 C 35.755126953125 296.5962829589844 35.96634674072266 296.5029907226562 35.88653945922852 296.7015075683594 C 36.00724029541016 296.7212219238281 35.85833740234375 296.4707946777344 36.03826141357422 296.550048828125 C 36.00667190551758 296.5946044921875 35.9770622253418 296.6405639648438 36.03826141357422 296.6510009765625 C 35.90656280517578 296.7829895019531 35.77599334716797 296.8658752441406 35.78530120849609 296.6510009765625 C 35.66827011108398 296.6726989746094 35.64993667602539 296.8743591308594 35.53318405151367 296.7513732910156 C 35.5424919128418 296.7928161621094 35.58366394042969 296.8021545410156 35.58310317993164 296.8532104492188 C 35.6279411315918 296.830322265625 35.67362594604492 296.808349609375 35.68462371826172 296.7513732910156 C 35.76358795166016 296.7697448730469 35.64006805419922 296.8407897949219 35.73510360717773 296.8532104492188 C 35.72748947143555 296.9632263183594 35.60735321044922 296.9614562988281 35.48214340209961 296.953857421875 C 35.446044921875 297.0359497070312 35.72072219848633 297.0359497070312 35.68462371826172 296.953857421875 C 35.81180953979492 296.9880065917969 35.50160217285156 297.1217041015625 35.73510360717773 297.1557922363281 C 35.50160217285156 297.1628112792969 35.64599227905273 297.2629699707031 35.27994155883789 297.2575988769531 C 35.46268844604492 297.4132995605469 35.21113586425781 297.5110778808594 35.33070755004883 297.7626647949219 C 35.29122543334961 297.6335144042969 35.07943344116211 297.6769409179688 35.0777473449707 297.5099487304688 C 34.97283935546875 297.5226745605469 35.06392288208008 297.7316284179688 34.97707366943359 297.7626647949219 C 35.16376113891602 297.5407409667969 35.08789825439453 297.9022827148438 35.27994155883789 297.8636474609375 C 35.23820495605469 297.8833618164062 34.9477424621582 298.0567932128906 34.97707366943359 298.2178344726562 C 34.95479202270508 298.2928466796875 34.91192626953125 298.1980895996094 34.82478332519531 298.2178344726562 C 34.82281112670898 298.1312866210938 34.86257934570312 298.0872497558594 34.92630386352539 298.0655212402344 C 34.9206657409668 297.8867492675781 34.75936126708984 298.1732788085938 34.77486419677734 298.0156555175781 C 34.64232635498047 298.0853271484375 34.69816207885742 298.3435974121094 34.5723876953125 298.4203186035156 C 34.58733749389648 298.5252075195312 34.70944595336914 298.3450317382812 34.72382736206055 298.5210266113281 C 34.87018966674805 298.5776977539062 34.64655303955078 298.5748291015625 34.6733512878418 298.4702453613281 C 34.65557861328125 298.59912109375 34.34199142456055 298.8212890625 34.62259292602539 298.72314453125 C 34.57690048217773 298.8122863769531 34.43703079223633 298.8066711425781 34.42123413085938 298.9251403808594 C 34.36173248291016 298.9172058105469 34.37808609008789 298.8328857421875 34.37047576904297 298.77392578125 C 34.2322883605957 298.7694396972656 34.26839065551758 298.857421875 34.16827774047852 298.77392578125 C 34.18576049804688 298.8314819335938 34.25682830810547 298.9014282226562 34.26867294311523 298.8238525390625 C 34.35835266113281 298.8687133789062 34.35270690917969 299.0480346679688 34.47087097167969 298.9251403808594 C 34.43308258056641 299.1261901855469 34.34086608886719 299.1441955566406 34.21875381469727 299.3799743652344 C 34.12936019897461 299.368408203125 34.10341262817383 299.2936706542969 34.11722946166992 299.1775207519531 C 34.07690811157227 299.1879272460938 34.06731414794922 299.2285766601562 34.01656341552734 299.2285766601562 C 34.202392578125 299.3715515136719 34.01656341552734 299.4623413085938 34.01656341552734 299.6837158203125 C 33.8806266784668 299.7651977539062 33.82394409179688 299.79931640625 33.71283721923828 299.6837158203125 C 33.76698303222656 299.7311096191406 33.72890853881836 299.8703918457031 33.86511993408203 299.8351135253906 C 33.76951599121094 299.9253845214844 33.80392074584961 300.1450805664062 33.66291809082031 300.1887817382812 C 33.67787170410156 300.2759094238281 33.83804702758789 300.1227722167969 33.81435394287109 300.3402099609375 C 33.95846176147461 300.2623901367188 33.83155822753906 300.2012023925781 34.01656341552734 300.1380310058594 C 34.13274002075195 300.1227722167969 34.07239151000977 300.2843627929688 34.16827774047852 300.290283203125 C 34.13471221923828 300.3573913574219 34.0597038269043 300.3841857910156 33.96579360961914 300.3909912109375 C 33.99258422851562 300.350341796875 34.01824951171875 300.3086242675781 34.01656341552734 300.2395324707031 C 33.96495056152344 300.2727966308594 33.96410751342773 300.3554077148438 33.86511993408203 300.3402099609375 C 33.95027923583984 300.5288696289062 33.83494567871094 300.4205932617188 33.81435394287109 300.5931701660156 C 33.71791458129883 300.5711975097656 33.72242736816406 300.4487609863281 33.56139755249023 300.4916381835938 C 33.57014083862305 300.4329833984375 33.6533317565918 300.4496154785156 33.71283721923828 300.4417724609375 C 33.74103546142578 300.3295288085938 33.61638641357422 300.3698120117188 33.61215972900391 300.290283203125 C 33.56055068969727 300.3224182128906 33.5597038269043 300.4059143066406 33.46072387695312 300.3909912109375 C 33.52445602416992 300.3317260742188 33.50104904174805 300.1806335449219 33.35919952392578 300.1887817382812 C 33.3876838684082 300.1160278320312 33.43815994262695 300.0655212402344 33.51063919067383 300.037353515625 C 33.43365097045898 300.0333862304688 33.30618286132812 299.9490356445312 33.15700149536133 299.8856201171875 C 33.20297241210938 299.7471618652344 33.33410263061523 299.9750061035156 33.40996551513672 299.8351135253906 C 33.40911483764648 299.7572937011719 33.27177429199219 299.6693115234375 33.30871963500977 299.8351135253906 C 33.36173629760742 299.5437927246094 33.70409774780273 299.3238525390625 33.76359939575195 299.2285766601562 C 33.91164779663086 298.9913940429688 34.12851715087891 298.6972351074219 34.06646728515625 298.6213989257812 C 34.1378173828125 298.4967346191406 34.24074935913086 298.5328674316406 34.37047576904297 298.5714721679688 C 34.28503036499023 298.2423400878906 34.6851921081543 297.319091796875 35.17842102050781 297.4598083496094 C 35.21987915039062 297.4502258300781 35.22919082641602 297.4087829589844 35.27994155883789 297.4087829589844 C 35.16432571411133 297.4995422363281 35.02528762817383 297.1557922363281 34.97707366943359 297.2065124511719 C 34.8479118347168 297.0909423828125 35.18716430664062 297.015625 35.12850952148438 296.8021545410156 L 35.27994155883789 296.8021545410156 Z" fill="#2777df" stroke="none" stroke-width="0"/>
</svg>