<svg xmlns="http://www.w3.org/2000/svg" width="26" height="25" viewBox="0.006495954468846321 0.02806098759174347 25.533819673582915 24.988248750567436" fill="none">
  <path d="M 23.04239273071289 5.794983386993408 C 22.23312759399414 4.515227317810059 21.18854522705078 3.476746797561646 20.00118255615234 2.625894784927368 C 18.75208282470703 1.647449254989624 17.31024551391602 0.9060218930244446 15.74195194244385 0.4681768119335175 C 14.45921516418457 0.05602061748504639 13.19265842437744 -0.06121115013957024 11.93390560150146 0.02806098759174347 C 10.36461734771729 0.092637799680233 8.871260643005371 0.4535584151744843 7.506632328033447 1.055755138397217 C 6.397614479064941 1.505380153656006 5.350050449371338 2.104596614837646 4.410351753234863 2.835236787796021 C 4.399281024932861 2.832114458084106 4.387360095977783 2.832256317138672 4.376431465148926 2.841055631637573 C 2.230634927749634 4.557522296905518 0.3086586594581604 6.662300109863281 0.04808058217167854 9.528518676757812 C -0.05084260180592537 10.6161060333252 0.006495954468846321 11.7925386428833 0.1857498586177826 12.9661340713501 C 0.2998591959476471 15.06934833526611 0.9460532069206238 17.03262710571289 1.991204500198364 18.72524833679199 C 2.822613477706909 20.50402069091797 3.948803663253784 22.32338333129883 5.70032787322998 23.13903999328613 C 8.285101890563965 24.34258079528809 11.53835582733154 25.01630973815918 14.37618637084961 24.59648513793945 C 15.49258327484131 24.43128395080566 16.74594306945801 24.11464309692383 17.77363967895508 23.6406078338623 C 18.67898941040039 23.22291946411133 19.43375968933105 22.54932975769043 20.14920997619629 21.84523010253906 C 20.96742248535156 21.18413543701172 21.69948196411133 20.42099189758301 22.32523727416992 19.57411575317383 C 23.76281929016113 17.85211372375488 24.8927001953125 15.79786014556885 25.1833667755127 13.59728336334229 C 25.54031562805176 10.89414024353027 24.47699928283691 8.063403129577637 23.04239273071289 5.794983386993408 M 3.725553512573242 20.52715492248535 C 5.000909805297852 21.68655395507812 6.556429862976074 22.49369430541992 8.271903991699219 23.30338668823242 C 9.10615062713623 23.69724082946777 9.971763610839844 23.99074172973633 10.85100364685059 24.17169952392578 C 10.55706977844238 24.13522148132324 10.2635669708252 24.09080123901367 9.970487594604492 24.03729629516602 C 7.53657865524292 23.52508163452148 5.373893737792969 22.27200508117676 3.725553512573242 20.52715492248535 M 0.5268006324768066 8.356769561767578 C 0.5370194315910339 8.319725036621094 0.5485155582427979 8.283247947692871 0.5591601133346558 8.246491432189941 C 0.5476639866828918 8.282965660095215 0.5378710031509399 8.320150375366211 0.5268006324768066 8.356769561767578 M 0.5964870452880859 8.12954044342041 C 0.7335885167121887 7.685453414916992 0.9080168008804321 7.25541353225708 1.117784976959229 6.840844631195068 C 0.9166744947433472 7.255555152893066 0.741962194442749 7.685312271118164 0.5964870452880859 8.12954044342041 M 16.96280860900879 23.40969276428223 C 19.57284927368164 22.11503410339355 21.63845443725586 19.74442672729492 23.196533203125 17.34259605407715 C 23.32625198364258 17.14262008666992 23.45781517028809 16.94307136535645 23.58810806274414 16.74281120300293 C 22.37760925292969 19.76372909545898 19.97464370727539 22.18117332458496 16.96280860900879 23.40969276428223 M 23.67468643188477 16.01188850402832 C 22.21439361572266 18.45487594604492 20.40340232849121 20.82974243164062 18.03634262084961 22.46843338012695 C 15.67113018035889 24.10584831237793 12.36096382141113 24.67170715332031 9.63681697845459 23.65849113464355 C 6.938357830047607 22.65478706359863 4.011962413787842 21.20826148986816 2.440829515457153 18.71162223815918 C 2.332680940628052 18.53974914550781 2.230777263641357 18.36319160461426 2.132279872894287 18.18436050415039 C 1.210321545600891 16.09789657592773 0.8318021297454834 14.03384971618652 0.5903841257095337 11.70014572143555 C 0.5567474365234375 11.37527275085449 0.5459608435630798 11.05593872070312 0.5478059649467468 10.74015045166016 C 0.9673423767089844 7.510598182678223 2.673873424530029 4.681139945983887 5.136451244354248 2.784001588821411 C 6.42174243927002 1.954863548278809 7.846405982971191 1.319313764572144 9.25517463684082 0.87380450963974 C 11.754225730896 0.0832706019282341 14.67834854125977 0.7067562937736511 17.04001617431641 1.629140615463257 C 17.67712593078613 1.877939224243164 18.34162902832031 2.153135299682617 18.98143577575684 2.47587776184082 C 19.65928268432617 2.917554616928101 20.30121421813965 3.41387414932251 20.88950538635254 3.971504688262939 C 21.41562843322754 4.470236778259277 21.90286445617676 5.025171279907227 22.34510612487793 5.6202712059021 C 22.66458702087402 6.20671272277832 22.9322624206543 6.823955535888672 23.17240524291992 7.421894073486328 C 23.66630935668945 8.651552200317383 24.14716148376465 9.904484748840332 24.39169883728027 11.16181468963623 C 24.42675590515137 11.53465747833252 24.44662475585938 11.91189956665039 24.44662475585938 12.29382514953613 C 24.44662475585938 13.28802394866943 24.32300567626953 14.25355339050293 24.09393310546875 15.17806720733643 C 23.97869110107422 15.45681190490723 23.84016990661621 15.73484420776367 23.67468643188477 16.01188850402832 M 4.743738174438477 22.14937782287598 C 4.275946617126465 21.73907089233398 3.86677098274231 21.23394966125488 3.503295660018921 20.69562149047852 C 4.472657680511475 21.7265796661377 5.617157459259033 22.58963775634766 6.889534473419189 23.23824501037598 C 6.103825569152832 22.98887825012207 5.336851596832275 22.66968727111816 4.743738174438477 22.14937782287598 M 24.26992607116699 15.59348773956299 C 24.31590843200684 15.50378894805908 24.36089897155762 15.41366672515869 24.40276718139648 15.32226467132568 C 24.31860733032227 15.58028793334961 24.22493171691895 15.83561515808105 24.12132453918457 16.08767890930176 C 24.17440986633301 15.92446327209473 24.22351264953613 15.75954246520996 24.26992607116699 15.59348773956299" fill="#2777df" stroke="none" stroke-width="0"/>
</svg>