<svg xmlns="http://www.w3.org/2000/svg" width="35" height="13" viewBox="35.97152709960938 17.2946949005127 34.74239349365234 12.730245590209961" fill="none">
  <path d="M 36.78445053100586 18.97889709472656 C 40.47019958496094 19.60397720336914 44.29582595825195 19.69350814819336 48.02553176879883 19.88614463806152 C 49.78487777709961 19.97727012634277 51.62175369262695 19.92131805419922 53.30515289306641 20.50243377685547 C 54.9342041015625 21.06436538696289 56.28588104248047 22.13867568969727 57.74547958374023 23.01714706420898 C 57.94131088256836 22.29215240478516 58.1379508972168 21.56795310974121 58.33378982543945 20.84375 C 54.34748840332031 20.4632682800293 50.37958526611328 19.73107528686523 46.42846298217773 19.09639739990234 C 46.34772872924805 19.69590377807617 46.26619338989258 20.29540634155273 46.18545532226562 20.89490699768066 C 49.12062072753906 21.24022483825684 51.92949295043945 22.76615905761719 54.45060348510742 24.2137565612793 C 55.74153518676758 24.95554351806641 57.01168441772461 25.73249626159668 58.30022048950195 26.47907829284668 C 59.66627883911133 27.26962089538574 61.02994918823242 28.19045829772949 62.47434616088867 28.82753372192383 C 62.76531600952148 28.13610649108887 63.05707168579102 27.44468116760254 63.34802627563477 26.75405120849609 C 61.79092788696289 26.24727249145508 60.36730575561523 25.39038276672363 59.09875106811523 24.36643028259277 C 58.87974166870117 24.89559364318848 58.66071701049805 25.4239559173584 58.44169235229492 25.95231437683105 C 61.22978591918945 26.30722236633301 63.97631454467773 27.07218742370605 66.60772705078125 28.04338264465332 C 66.79317474365234 27.37034225463867 66.97862243652344 26.69809722900391 67.16407012939453 26.02585411071777 C 65.08418273925781 25.56064224243164 63.11941909790039 24.84123992919922 61.35048294067383 23.63104248046875 C 61.08670425415039 24.25612449645996 60.82291793823242 24.88120460510254 60.55994033813477 25.50628471374512 C 63.1569938659668 26.26325798034668 65.75003814697266 27.04181289672852 68.35507965087891 27.77240753173828 C 69.80667877197266 28.1800708770752 70.35341644287109 26.0394401550293 68.96977233886719 25.5422534942627 C 68.60768127441406 25.41196441650391 68.33670043945312 25.24490165710449 68.04973602294922 24.98991394042969 C 67.69242858886719 25.60300636291504 67.33512878417969 26.21609687805176 66.97862243652344 26.82918739318848 C 67.65645599365234 27.04740715026855 68.1160888671875 27.54859352111816 68.33110046386719 28.21844100952148 C 68.59488677978516 27.75321960449219 68.85947418212891 27.28720855712891 69.12404632568359 26.82199287414551 C 67.91384887695312 27.03781509399414 66.65409088134766 26.94349479675293 65.51743316650391 26.4535026550293 C 64.36078643798828 25.95471382141113 63.22493362426758 27.22406196594238 64.1353759765625 28.24481582641602 C 64.85078430175781 29.04655456542969 66.18648529052734 30.02494049072266 67.29756164550781 29.42304229736328 C 68.32950592041016 28.8651008605957 68.17043304443359 27.20088386535645 66.9554443359375 27.00264167785645 C 66.44306945800781 26.91871643066406 65.99703979492188 27.06419372558594 65.70687866210938 27.51022338867188 C 65.68928527832031 27.5382022857666 65.67090606689453 27.56537818908691 65.6533203125 27.59335327148438 C 64.97148895263672 28.64208984375 66.51340484619141 29.80831909179688 67.37429046630859 28.92105484008789 C 67.39747619628906 28.89787292480469 67.42066192626953 28.87389755249023 67.44384002685547 28.84991455078125 C 67.08493041992188 28.94503784179688 66.72603607177734 29.0401611328125 66.36793518066406 29.13447952270508 L 66.47824096679688 29.17524719238281 C 66.25522613525391 29.00418472290039 66.03301239013672 28.83312606811523 65.80999755859375 28.66206741333008 L 65.88912963867188 28.76518249511719 C 65.8515625 28.47502517700195 65.81318664550781 28.18486595153809 65.77561950683594 27.89470672607422 C 65.76922607421875 27.9346752166748 65.76363372802734 27.97463798522949 65.75723266601562 28.01460647583008 C 65.93228912353516 27.78679656982422 66.10734558105469 27.55978584289551 66.28240203857422 27.33197402954102 C 66.66209411621094 27.11215400695801 66.66048431396484 27.36714172363281 66.28000640869141 27.06899070739746 C 66.08975982666016 26.92031669616699 65.92350006103516 26.80840492248535 65.74844360351562 26.63175201416016 C 65.37834930419922 27.26722717285156 65.00905609130859 27.9026985168457 64.63896179199219 28.53816986083984 C 66.27761077880859 29.22560501098633 67.99058532714844 29.36868667602539 69.7275390625 29.01218032836914 C 70.3006591796875 28.89387893676758 70.71392059326172 28.16648101806641 70.52127838134766 27.61494064331055 C 70.01210784912109 26.15934371948242 69.01693725585938 25.20493507385254 67.56374359130859 24.70694732666016 C 66.49182891845703 24.33925437927246 65.75483703613281 25.7972469329834 66.49262237548828 26.54622459411621 C 66.95943450927734 27.02023315429688 67.46701812744141 27.38872909545898 68.07851409912109 27.65650367736816 C 68.37586212158203 26.95148658752441 68.67241668701172 26.2464714050293 68.96977233886719 25.5422534942627 C 66.35514068603516 24.84603118896484 63.7269172668457 24.19777297973633 61.1050910949707 23.52792930603027 C 59.96603012084961 23.23616790771484 59.3337516784668 24.77889060974121 60.31454849243164 25.40316963195801 C 62.25213241577148 26.6357479095459 64.34081268310547 27.60694313049316 66.60772705078125 28.04338264465332 C 67.92503356933594 28.29677200317383 68.45100402832031 26.45750045776367 67.16407012939453 26.02585411071777 C 64.31602478027344 25.06984710693359 61.41523361206055 24.48713111877441 58.44169235229492 24.09465789794922 C 57.66154861450195 23.99154281616211 57.18913650512695 25.19454574584961 57.78464126586914 25.68054389953613 C 59.25542068481445 26.87954711914062 60.8341178894043 27.88031768798828 62.47434616088867 28.82753372192383 C 63.76288223266602 29.57171630859375 64.78363800048828 27.70606231689453 63.6190071105957 26.86835670471191 C 62.28731155395508 25.90995407104492 60.74298477172852 25.17136383056641 59.31217575073242 24.36802864074707 C 57.85977554321289 23.55350303649902 56.40179061889648 22.74217796325684 54.92461395263672 21.9740161895752 C 52.11414337158203 20.51202774047852 49.33324813842773 19.47848320007324 46.18545532226562 19.06362915039062 C 45.17029571533203 18.9293384552002 44.92569732666016 20.68628311157227 45.94165420532227 20.86213874816895 C 49.97032165527344 21.56235504150391 54.04694366455078 22.17624473571777 58.02363967895508 23.1346549987793 C 59.05318832397461 23.3824462890625 60.14028549194336 21.94843482971191 59.1587028503418 21.18506622314453 C 57.75345993041992 20.09237480163574 56.21954727172852 19.13157081604004 54.55531692504883 18.48570823669434 C 52.83354568481445 17.81665802001953 51.03503799438477 17.76869964599609 49.2109489440918 17.71194648742676 C 45.16070938110352 17.58485221862793 41.00735092163086 17.2946949005127 36.96589660644531 17.64000511169434 C 36.26008224487305 17.70075607299805 35.97152709960938 18.84061431884766 36.78445053100586 18.97889709472656" fill="#2473d8" stroke="none" stroke-width="0"/>
</svg>