<svg xmlns="http://www.w3.org/2000/svg" width="5" height="2" viewBox="28.6484375 38.6389045715332 4.979938507080078 2.1435203552246094" fill="none">
  <path d="M 33.15128326416016 40.05977249145508 C 32.78475570678711 40.18509292602539 32.41242218017578 40.22525405883789 32.06839370727539 40.2680778503418 C 31.72097969055176 40.30412292480469 31.38614654541016 40.32033538818359 31.05300521850586 40.33993148803711 C 30.72107315063477 40.36557769775391 30.4005126953125 40.40646362304688 30.06519317626953 40.45920562744141 C 29.72963333129883 40.51605987548828 29.40810394287109 40.61742782592773 29.01206207275391 40.73379516601562 L 28.9820613861084 40.74274826049805 C 28.84682083129883 40.78242492675781 28.70504760742188 40.70500946044922 28.66537094116211 40.57000732421875 C 28.6484375 40.51242828369141 28.65279006958008 40.45339965820312 28.6738395690918 40.4016227722168 C 28.84609603881836 39.97945404052734 29.15891456604004 39.60857009887695 29.53729629516602 39.33639526367188 C 29.91567993164062 39.06664276123047 30.34922218322754 38.87672424316406 30.79002380371094 38.77196502685547 C 31.2308235168457 38.66866302490234 31.68106079101562 38.6389045715332 32.11629867553711 38.69793701171875 C 32.55492401123047 38.76712799072266 32.96524047851562 38.88785171508789 33.36442565917969 39.17938232421875 C 33.58095550537109 39.33760452270508 33.62837600708008 39.64147186279297 33.46990966796875 39.85824584960938 C 33.40894317626953 39.94171142578125 33.32596206665039 40.00025939941406 33.2347526550293 40.03122711181641 L 33.15128326416016 40.05977249145508 Z" fill="#4f1c18" stroke="none" stroke-width="0"/>
</svg>