<svg xmlns="http://www.w3.org/2000/svg" width="5" height="2" viewBox="68.27780151367188 38.63869476318359 5.0036468505859375 2.1195716857910227" fill="none">
  <path d="M 68.53763580322266 39.17917251586914 C 68.93682098388672 38.88740158081055 69.34714508056641 38.76691818237305 69.7857666015625 38.69772720336914 C 70.22100067138672 38.63869476318359 70.67124176025391 38.668212890625 71.11203765869141 38.77151489257812 C 71.55284118652344 38.87651443481445 71.98638153076172 39.06618881225586 72.36476898193359 39.33618927001953 C 72.74314880371094 39.60836029052734 73.05596923828125 39.97924423217773 73.22822570800781 40.40141677856445 C 73.28144836425781 40.53181838989258 73.21878814697266 40.68060684204102 73.08838653564453 40.73383331298828 C 73.03274536132812 40.75657272338867 72.97370910644531 40.75826644897461 72.92024230957031 40.7425422668457 L 72.88999938964844 40.73358917236328 C 72.49395751953125 40.61697769165039 72.17243194580078 40.51585006713867 71.83686828613281 40.45875549316406 C 71.50154876708984 40.40625381469727 71.18099212646484 40.36512756347656 70.84906005859375 40.3397216796875 C 70.51591491699219 40.31988525390625 70.18108367919922 40.30391693115234 69.83366394042969 40.26762771606445 C 69.48963928222656 40.22504806518555 69.1173095703125 40.18464660644531 68.75077819824219 40.05956649780273 L 68.66706848144531 40.0310173034668 C 68.41328430175781 39.94416427612305 68.27780151367188 39.66811752319336 68.36465454101562 39.41432952880859 C 68.39804077148438 39.31610870361328 68.45973205566406 39.23602676391602 68.53763580322266 39.17917251586914" fill="#4f1c18" stroke="none" stroke-width="0"/>
</svg>