<svg xmlns="http://www.w3.org/2000/svg" width="1" height="1" viewBox="363.76513671875 28.43394660949707 1.2645263671875 1.05780029296875" fill="none">
  <path d="M 364.5714111328125 28.88571739196777 C 364.6672973632812 28.69508171081543 364.7510375976562 28.75486755371094 364.9258728027344 28.8349552154541 C 364.8251953125 28.73089599609375 364.8251953125 28.7875804901123 364.9258728027344 28.68351936340332 C 365.0296630859375 28.72497367858887 364.9056091308594 29.03518295288086 364.72314453125 28.88571739196777 C 364.8291625976562 29.05689430236816 364.7451477050781 29.07691955566406 364.72314453125 29.29039764404297 C 364.6173706054688 29.27516937255859 364.7983703613281 29.15306091308594 364.6221618652344 29.13811302185059 C 364.6235961914062 29.38712310791016 364.0728149414062 29.23822593688965 363.9149169921875 29.18887901306152 C 363.9413757324219 29.22920227050781 363.966796875 29.27093887329102 363.9656372070312 29.3403148651123 C 364.0753173828125 29.2314567565918 364.0739440917969 29.35300064086914 364.0657958984375 29.49174690246582 C 364.0169677734375 29.4903392791748 364.026611328125 29.43027114868164 364.0150451660156 29.39107131958008 L 363.8128051757812 29.39107131958008 C 363.76513671875 29.29716491699219 363.9648132324219 29.2221508026123 363.8128051757812 29.18887901306152 C 363.8593139648438 29.10088729858398 363.9902038574219 29.05887031555176 364.0657958984375 29.13811302185059 C 364.0056762695312 28.98385810852051 364.3345336914062 28.84398078918457 364.2174987792969 28.63275909423828 C 364.3074645996094 28.64742279052734 364.3212890625 28.5851001739502 364.2684936523438 28.58199882507324 C 364.3111267089844 28.43394660949707 364.3954467773438 28.64770698547363 364.521484375 28.58199882507324 L 364.521484375 28.78419494628906 C 364.6672973632812 28.71256828308105 364.578125 28.74584007263184 364.5714111328125 28.88571739196777" fill="#2777df" stroke="none" stroke-width="0"/>
</svg>