<svg xmlns="http://www.w3.org/2000/svg" width="3" height="2" viewBox="146.9116668701172 258.1980285644531 2.8818511962890057 2.362884521484375" fill="none">
  <path d="M 149.2373657226562 258.6402282714844 C 149.1953582763672 258.6988830566406 149.17138671875 258.7755737304688 149.1871948242188 258.8928833007812 C 149.3425750732422 258.9306640625 149.2486877441406 258.7185974121094 149.4398956298828 258.7913208007812 C 149.2331390380859 258.7251281738281 148.9221038818359 258.1980285644531 149.2884216308594 258.2865600585938 C 149.2797088623047 258.34521484375 149.1962127685547 258.328857421875 149.1364440917969 258.3367614746094 C 149.1866302490234 258.4041748046875 149.2729339599609 258.436279296875 149.2884216308594 258.5389404296875 C 149.3287658691406 258.5118713378906 149.3702239990234 258.4864807128906 149.4398956298828 258.4884948730469 C 149.4271697998047 258.4244689941406 149.3388977050781 258.4377136230469 149.3386077880859 258.4884948730469 C 149.1962127685547 258.3753662109375 149.6048278808594 258.3872375488281 149.6420593261719 258.2865600585938 C 149.7813873291016 258.2642517089844 149.6891479492188 258.4746398925781 149.7935180664062 258.4884948730469 C 149.7294769287109 258.5803833007812 149.5464630126953 258.4529724121094 149.7433166503906 258.5891418457031 C 149.6136016845703 258.6667175292969 149.4443817138672 258.8249206542969 149.1364440917969 259.0445861816406 C 149.0873565673828 259.0431518554688 149.0972290039062 258.9825439453125 149.0859527587891 258.9427795410156 C 149.0112152099609 258.9901733398438 149.0041656494141 259.3068542480469 148.9850006103516 258.9938354492188 C 148.7847595214844 259.0101928710938 149.022216796875 259.1500549316406 148.8837585449219 259.196044921875 C 148.8896636962891 259.2699279785156 148.7726593017578 259.0126953125 148.8329772949219 258.8928833007812 C 148.7546234130859 258.9493103027344 148.7280883789062 259.0567016601562 148.580322265625 259.0445861816406 C 148.6564331054688 259.15234375 148.7038269042969 259.0079345703125 148.8329772949219 259.0947875976562 C 148.7444305419922 259.174560546875 148.7283630371094 259.3268737792969 148.580322265625 259.3474426269531 C 148.6087799072266 259.2747192382812 148.6592559814453 259.2239074707031 148.7322998046875 259.196044921875 C 148.7306060791016 259.1464233398438 148.6702575683594 259.1567993164062 148.6307983398438 259.145263671875 C 148.5938415527344 259.4168090820312 148.2616577148438 259.3054504394531 148.378662109375 259.6511840820312 C 148.2407836914062 259.6867065429688 148.4144897460938 259.4123229980469 148.2771453857422 259.4490051269531 C 148.1257171630859 259.4817199707031 148.3256683349609 259.5567016601562 148.2771453857422 259.6511840820312 C 148.1767578125 259.56689453125 148.2128601074219 259.6551513671875 148.074951171875 259.6511840820312 C 148.0656433105469 259.6080322265625 148.0947113037109 259.6032409667969 148.1257171630859 259.6004028320312 C 148.2348480224609 259.6086120605469 148.1485443115234 259.4208068847656 148.1764678955078 259.3474426269531 C 148.1203460693359 259.4873352050781 148.0318145751953 259.7727355957031 147.8225708007812 259.6004028320312 C 147.8493347167969 259.6407775878906 147.8750305175781 259.6827697753906 147.8724670410156 259.7518310546875 C 147.9178771972656 259.7129211425781 147.9869689941406 259.6976928710938 148.074951171875 259.701416015625 C 148.0859527587891 259.7877197265625 147.9886474609375 259.8322143554688 148.074951171875 259.8525085449219 C 148.1358642578125 259.7820129394531 148.0947113037109 259.8482666015625 148.074951171875 259.903564453125 C 148.0129089355469 259.88134765625 147.9714660644531 259.8387451171875 147.9739837646484 259.7518310546875 C 147.9333953857422 259.7617492675781 147.9232482910156 259.8026428222656 147.8724670410156 259.8026428222656 C 147.8947448730469 259.8468933105469 147.9173126220703 259.8928527832031 147.9739837646484 259.903564453125 C 147.8451232910156 260.077880859375 147.82763671875 259.7168579101562 147.7210388183594 259.701416015625 C 147.6744995117188 259.792724609375 147.7909698486328 259.8858337402344 147.7210388183594 260.1054992675781 C 147.5662231445312 260.0335693359375 147.4937286376953 260.0829467773438 147.3674163818359 260.1565551757812 C 147.3814849853516 260.2625732421875 147.5024871826172 260.0829467773438 147.5695953369141 260.2073059082031 C 147.5760803222656 260.3320007324219 147.5075531005859 260.2927551269531 147.5188446044922 260.2073059082031 C 147.478515625 260.2335510253906 147.4370574951172 260.2597351074219 147.3674163818359 260.2569274902344 C 147.4051818847656 260.3530883789062 147.5185546875 260.2927551269531 147.4181671142578 260.4094848632812 C 147.3428649902344 260.3657836914062 147.309326171875 260.2814636230469 147.3166351318359 260.1565551757812 C 147.2844848632812 260.2293090820312 146.9116668701172 260.3717041015625 147.1652069091797 260.4094848632812 C 147.1513977050781 260.5138244628906 146.9413146972656 260.4208068847656 146.9630126953125 260.5609130859375 C 146.9491882324219 260.3209533691406 147.1259918212891 260.0928039550781 147.3674163818359 260.005126953125 C 147.2878723144531 259.9292602539062 147.3110198974609 259.7786865234375 147.4680633544922 259.8026428222656 C 147.4886627197266 259.9129028320312 147.6463012695312 259.7129211425781 147.6702880859375 259.2969970703125 C 147.8493347167969 259.4168090820312 147.8558349609375 259.4086608886719 148.0244903564453 259.4989013671875 C 147.9131011962891 259.1354064941406 148.2760314941406 258.8866882324219 148.580322265625 258.9938354492188 C 148.5478820800781 258.9419555664062 148.4644012451172 258.941650390625 148.4790802001953 258.8423767089844 C 148.6685791015625 258.7817687988281 148.8394775390625 258.6145324707031 149.0351867675781 258.4884948730469 C 149.1327514648438 258.5087890625 149.0752410888672 258.6842041015625 149.2373657226562 258.6402282714844" fill="#2777df" stroke="none" stroke-width="0"/>
</svg>