<svg xmlns="http://www.w3.org/2000/svg" width="2" height="2" viewBox="455.7598266601562 364.0549926757812 1.5436706542969318 2.031005859375" fill="none">
  <path d="M 457.2795715332031 364.156494140625 C 457.2304992675781 364.2377624511719 457.1444702148438 364.2723999023438 457.0770568847656 364.207275390625 C 457.0928344726562 364.2665100097656 457.2812805175781 364.3973388671875 457.1281433105469 364.4593811035156 C 457.1436157226562 364.5465393066406 457.3034973144531 364.3934020996094 457.2795715332031 364.6117248535156 C 457.2389526367188 364.5843200683594 457.1978149414062 364.5580749511719 457.1281433105469 364.5609130859375 C 457.1066589355469 364.6663818359375 457.1625366210938 364.6943054199219 457.1791076660156 364.7631225585938 C 457.1693115234375 364.820068359375 457.1281433105469 364.7910461425781 457.1281433105469 364.7631225585938 C 457.0996704101562 364.7115173339844 456.9543762207031 364.9032897949219 456.9259033203125 364.6615905761719 C 456.8311462402344 364.7693176269531 456.8931884765625 365.0338439941406 456.7742309570312 365.1167297363281 C 456.6926879882812 365.1311645507812 456.6873474121094 365.06884765625 456.623046875 365.0662841796875 C 456.521484375 365.2958068847656 456.4637145996094 365.2315063476562 456.7234497070312 365.5205688476562 C 456.3751831054688 365.3976440429688 456.7691040039062 365.6948547363281 456.4205932617188 365.5713500976562 C 456.5934448242188 365.6768493652344 456.3963012695312 365.7608337402344 456.470458984375 365.8243103027344 C 456.4490356445312 365.9037780761719 456.3119812011719 365.8674621582031 456.3697814941406 366.0267944335938 C 456.28125 365.9827880859375 456.1944274902344 365.8381652832031 456.2180480957031 366.0775451660156 C 456.1754760742188 366.0859985351562 456.1710510253906 366.0575561523438 456.1676330566406 366.0267944335938 L 456.0669250488281 366.0267944335938 C 456.0850219726562 365.9599609375 456.15576171875 365.9472961425781 456.1676330566406 365.8750610351562 C 456.0816040039062 365.8722229003906 456.0367126464844 365.91259765625 456.0164489746094 365.9757080078125 C 455.9267578125 365.9384765625 456.0091552734375 365.8835144042969 456.0164489746094 365.8243103027344 C 455.9714050292969 365.8550415039062 455.9256591796875 365.8855285644531 455.9143981933594 365.8243103027344 C 455.8519897460938 365.836181640625 455.8638610839844 365.9249572753906 455.9143981933594 365.9249572753906 C 455.806884765625 366.0705261230469 455.7598266601562 365.6712036132812 456.0164489746094 365.7735290527344 C 455.9721984863281 365.73291015625 455.9860229492188 365.6348266601562 455.9143981933594 365.6218566894531 C 456.0480651855469 365.6576538085938 456.0807495117188 365.4534912109375 456.0669250488281 365.4706420898438 C 456.1452941894531 365.3725280761719 456.4817199707031 365.0262451171875 456.3697814941406 365.2177429199219 C 456.5325012207031 364.9385070800781 456.524658203125 364.8062744140625 456.8749389648438 364.3587036132812 C 456.9344177246094 364.3669128417969 456.9183349609375 364.4503479003906 456.9259033203125 364.5101318359375 L 457.0770568847656 364.5101318359375 C 457.0765075683594 364.4608154296875 457.015625 364.4710083007812 456.9766540527344 364.4593811035156 C 456.9629211425781 364.2778015136719 457.0694580078125 364.2157592773438 457.0770568847656 364.0549926757812 C 457.1520690917969 364.0814819335938 457.2054138183594 364.1302795410156 457.2795715332031 364.156494140625" fill="#2777df" stroke="none" stroke-width="0"/>
</svg>