<svg xmlns="http://www.w3.org/2000/svg" width="23" height="2" viewBox="2107.20849609375 1416.50390625 22.783203125 1.508544921875" fill="none">
  <path d="M 2129.476806640625 1416.975830078125 C 2128.76171875 1416.97412109375 2128.053466796875 1417.024658203125 2127.339599609375 1417.0517578125 C 2126.6259765625 1417.07861328125 2125.915771484375 1417.06640625 2125.2021484375 1417.05029296875 C 2123.764892578125 1417.01806640625 2122.327392578125 1416.980712890625 2120.890380859375 1416.93798828125 C 2118.04150390625 1416.853759765625 2115.193603515625 1416.725830078125 2112.344482421875 1416.65478515625 C 2110.733154296875 1416.6142578125 2109.1220703125 1416.58984375 2107.51171875 1416.517333984375 C 2107.20849609375 1416.50390625 2107.2109375 1416.970458984375 2107.51171875 1416.98779296875 C 2110.372802734375 1417.15478515625 2113.2275390625 1417.38671875 2116.09228515625 1417.494140625 C 2118.940673828125 1417.60107421875 2121.7900390625 1417.68798828125 2124.639404296875 1417.754638671875 C 2125.439208984375 1417.7734375 2126.24169921875 1417.771240234375 2127.03955078125 1417.832275390625 C 2127.853271484375 1417.894287109375 2128.66064453125 1417.980712890625 2129.476806640625 1418.00439453125 C 2129.755126953125 1418.012451171875 2129.99169921875 1417.76220703125 2129.99169921875 1417.490234375 C 2129.99169921875 1417.210693359375 2129.756103515625 1416.976318359375 2129.476806640625 1416.975830078125" fill="#2e79d9" stroke="none" stroke-width="0"/>
</svg>