<svg xmlns="http://www.w3.org/2000/svg" width="2" height="2" viewBox="355.9070434570312 242.1957092285156 1.6906127929688068 1.821456909179716" fill="none">
  <path d="M 357.40478515625 242.29833984375 C 357.5012512207031 242.1957092285156 357.3633422851562 242.4579315185547 357.455810546875 242.5513000488281 C 357.3435668945312 242.5789489746094 357.3841857910156 242.4554443359375 357.3038330078125 242.4500732421875 C 357.2138671875 242.4348297119141 357.3007202148438 242.6460418701172 357.40478515625 242.6020660400391 C 357.59765625 242.631103515625 357.2087707519531 242.72021484375 357.2533569335938 242.6020660400391 C 357.1867980957031 242.6198272705078 357.1744079589844 242.6909027099609 357.1018981933594 242.7030029296875 C 357.1974792480469 242.7261352539062 357.4324035644531 242.6091003417969 357.455810546875 242.9049072265625 C 357.4064636230469 242.9035034179688 357.4169006347656 242.84375 357.40478515625 242.8036956787109 C 357.3461303710938 242.7955322265625 357.3153686523438 242.8155517578125 357.3038330078125 242.8544464111328 C 357.1896057128906 242.8265228271484 357.3650207519531 242.7754974365234 357.2533569335938 242.7030029296875 C 357.1244812011719 242.7072601318359 357.1811828613281 242.9384918212891 357.0508728027344 242.8036956787109 C 357.1224670410156 242.9012756347656 357.1856994628906 243.007568359375 357.2034606933594 243.1573333740234 C 357.0536804199219 242.97119140625 356.8641662597656 243.5806274414062 356.7990112304688 243.3099060058594 C 356.6749267578125 243.3149719238281 356.7877502441406 243.4762725830078 356.8489379882812 243.4610443115234 C 356.8291931152344 243.558349609375 356.6535034179688 243.5013732910156 356.6972351074219 243.6635284423828 C 356.5959777832031 243.5005340576172 356.5322570800781 243.651123046875 356.3943481445312 243.5617218017578 C 356.53369140625 243.6666259765625 356.490234375 243.8428649902344 356.3943481445312 243.9664154052734 C 356.3368530273438 243.9568328857422 356.3658752441406 243.9153594970703 356.3943481445312 243.9153594970703 C 356.415771484375 243.8318939208984 356.2059631347656 243.9207305908203 356.192138671875 243.9664154052734 C 356.102783203125 243.92919921875 356.1853942871094 243.8747711181641 356.192138671875 243.8146820068359 C 356.0881042480469 243.8296356201172 356.0917663574219 243.9497680664062 356.0407104492188 244.0171661376953 C 355.9070434570312 243.9461059570312 356.2206420898438 243.6308288574219 356.0906372070312 243.5617218017578 C 356.2480163574219 243.5174407958984 356.4014282226562 243.5027618408203 356.6972351074219 243.4610443115234 C 356.6602783203125 243.3462829589844 356.5460815429688 243.3099060058594 356.4454040527344 243.2588500976562 C 356.4820251464844 243.1440582275391 356.5968322753906 243.1082458496094 356.6972351074219 243.056640625 C 356.6878967285156 242.9988403320312 356.646484375 243.0287170410156 356.646484375 243.056640625 C 356.8452758789062 242.7379760742188 357.1492614746094 242.6186981201172 357.40478515625 242.29833984375" fill="#2777df" stroke="none" stroke-width="0"/>
</svg>