<svg xmlns="http://www.w3.org/2000/svg" width="2" height="8" viewBox="478.8902893066406 200.9451599121094 1.60235595703125 8.4012451171875" fill="none">
  <path d="M 479.1217956542969 200.9558563232422 C 479.1953735351562 201.1199951171875 479.2190856933594 201.0988464355469 479.425537109375 201.0562591552734 C 479.4486389160156 201.1648254394531 479.3533325195312 201.1532592773438 479.2740478515625 201.1577758789062 C 479.4007568359375 201.2189636230469 479.52197265625 201.54638671875 479.5769958496094 201.51171875 C 479.5657043457031 201.6995391845703 479.5039367675781 201.9541778564453 479.6280517578125 202.1690368652344 C 479.5992126464844 202.2739715576172 479.5484619140625 202.2759246826172 479.4757080078125 202.2189636230469 C 479.4125366210938 202.4338684082031 479.6437683105469 202.3543395996094 479.6776733398438 202.4722137451172 C 479.7489929199219 202.4544372558594 479.681884765625 202.3830718994141 479.6280517578125 202.3706817626953 C 479.6615600585938 202.2454681396484 479.7811279296875 202.4456939697266 479.8299560546875 202.4722137451172 C 479.8248596191406 202.6022338867188 479.6130676269531 202.5252227783203 479.6776733398438 202.7243041992188 C 479.5684814453125 202.7330780029297 479.6550903320312 202.5455322265625 479.6280517578125 202.4722137451172 C 479.4695434570312 202.6010894775391 479.6550903320312 202.8106231689453 479.6776733398438 202.926513671875 C 479.7227478027344 202.9045257568359 479.7681884765625 202.8827972412109 479.7794494628906 202.8258666992188 C 479.8177795410156 202.9642944335938 479.6393127441406 203.4268035888672 479.8299560546875 203.5331115722656 C 479.7963256835938 203.6013488769531 479.7215881347656 203.6273193359375 479.6280517578125 203.6349182128906 C 479.8206176757812 203.7178344726562 479.5707702636719 203.8935241699219 479.8299560546875 203.7860717773438 C 479.8679504394531 203.9073486328125 479.869384765625 204.0311584472656 479.7794494628906 204.1399993896484 C 479.7904052734375 204.20458984375 479.9297485351562 204.20654296875 479.9305725097656 204.1399993896484 C 480.0072937011719 204.1837158203125 479.9168090820312 204.2152862548828 479.9816284179688 204.3419342041016 C 479.940185546875 204.3325958251953 479.9305725097656 204.2914428710938 479.8798217773438 204.2914428710938 C 479.8482971191406 204.4019775390625 480.023681640625 204.4527587890625 479.8299560546875 204.4428558349609 C 479.8739318847656 204.5176086425781 479.869384765625 204.6391296386719 480.0315551757812 204.5945892333984 C 479.9410705566406 204.7246246337891 479.905517578125 204.8376922607422 480.0823059082031 204.8980255126953 C 480.0495910644531 205.0505981445312 479.8524475097656 205.0387573242188 479.7794494628906 205.1507110595703 C 479.7543334960938 205.2781524658203 480.0295715332031 205.0099792480469 479.9816284179688 205.2519226074219 C 479.9382019042969 205.260986328125 479.9334411621094 205.2322082519531 479.9305725097656 205.2011871337891 C 479.8050842285156 205.3813934326172 479.9029541015625 205.6072692871094 479.8798217773438 205.9090270996094 C 479.9212951660156 205.8655853271484 480.0182495117188 205.8794250488281 480.0315551757812 205.8077850341797 C 480.1621398925781 205.8204803466797 479.9624328613281 205.8952026367188 480.0315551757812 206.0099792480469 C 479.8935852050781 206.0147705078125 479.9297485351562 205.9256591796875 479.8299560546875 206.0099792480469 C 479.958251953125 206.10107421875 480.0992126464844 206.1780548095703 480.133056640625 206.3639068603516 C 480.0665588378906 206.4242401123047 480.0527038574219 206.3839111328125 479.9816284179688 206.3639068603516 C 479.9762573242188 206.5237884521484 480.1164245605469 206.6653594970703 479.8798217773438 206.6670532226562 C 479.9133911132812 206.8187561035156 479.9884033203125 206.6191253662109 480.0823059082031 206.6670532226562 L 480.0823059082031 206.8692626953125 C 480.1226806640625 206.8427429199219 480.163818359375 206.8162384033203 480.2334899902344 206.8187561035156 C 480.365478515625 206.8588104248047 480.0899353027344 206.9033966064453 480.0315551757812 206.9199981689453 C 480.0442504882812 207.0091247558594 480.1183776855469 207.0350799560547 480.2334899902344 207.0206909179688 C 480.1826782226562 207.0878143310547 480.1860656738281 207.2090606689453 480.0823059082031 207.2228851318359 C 480.1322326660156 207.2914123535156 480.2171630859375 207.3246765136719 480.2842712402344 207.3742980957031 C 480.071044921875 207.5722961425781 480.1826782226562 207.8337097167969 480.1835327148438 208.1836853027344 C 480.4367980957031 208.2209167480469 480.0967407226562 207.9783782958984 480.3349914550781 208.0319671630859 C 480.4091186523438 208.3895416259766 480.2447814941406 208.5257720947266 480.4867248535156 208.7395172119141 C 480.4926452636719 208.8297576904297 480.4246215820312 208.8461303710938 480.4359741210938 208.9417114257812 C 480.111083984375 208.9420013427734 479.9326171875 209.3094482421875 479.3747863769531 209.3464050292969 C 479.3206176757812 209.2524871826172 479.1331481933594 209.0328063964844 479.3236694335938 208.9924774169922 C 479.1717224121094 207.4978332519531 479.3231506347656 205.3255615234375 479.1217956542969 203.5841827392578 C 479.2044677734375 203.4566955566406 479.2611083984375 203.4129791259766 479.2740478515625 203.1287231445312 C 479.205322265625 203.1445159912109 479.2317810058594 203.2556304931641 479.2232971191406 203.3309020996094 C 479.0408630371094 203.1430969238281 479.1542663574219 202.6580505371094 479.0718688964844 202.3706817626953 C 479.2351684570312 202.4338684082031 479.1096801757812 202.2074127197266 479.2740478515625 202.2697296142578 C 479.1630249023438 202.1651000976562 479.3178405761719 202.1067352294922 479.2232971191406 202.0167694091797 C 479.1361694335938 202.0133819580078 479.2774658203125 202.2767791748047 479.0718688964844 202.2697296142578 C 479.1449584960938 201.98095703125 479.0422973632812 201.8560028076172 478.9703979492188 201.6123657226562 C 479.0693969726562 201.5023803710938 479.0735473632812 201.4050903320312 479.2740478515625 201.3095092773438 C 479.2066955566406 201.2133331298828 479.1069030761719 201.4262542724609 478.9703979492188 201.3095092773438 C 478.9762878417969 201.2144470214844 479.1369934082031 201.2742462158203 479.1217956542969 201.1577758789062 C 479.1034851074219 201.0872955322266 479.0330200195312 201.1532592773438 479.0208435058594 201.2088165283203 C 478.9334106445312 201.1625518798828 478.8902893066406 201.0311584472656 478.9703979492188 200.9558563232422 C 479.0572204589844 200.9451599121094 479.1009216308594 201.0421752929688 479.1217956542969 200.9558563232422 M 479.3747863769531 201.3602447509766 C 479.42919921875 201.5486297607422 479.2492370605469 201.5043792724609 479.2740478515625 201.6628570556641 C 479.4881286621094 201.7299652099609 479.5465087890625 201.3811340332031 479.3747863769531 201.3602447509766 M 479.7283325195312 204.7465972900391 C 479.7173461914062 204.8249816894531 479.5340881347656 204.9823303222656 479.6776733398438 205.0494537353516 C 479.6939697265625 204.9434356689453 480.0174255371094 204.8895416259766 479.8299560546875 204.7465972900391 C 479.7879333496094 205.0331115722656 479.7662048339844 204.8207550048828 479.7283325195312 204.7465972900391" fill="#2777df" stroke="none" stroke-width="0"/>
</svg>