<svg xmlns="http://www.w3.org/2000/svg" width="16" height="5" viewBox="13.74847221374512 0.102237194776535 15.94373512268066 4.633233577013016" fill="none">
  <path d="M 16.7490062713623 2.487086534500122 C 18.46913909912109 2.705788373947144 20.51557731628418 2.524015426635742 22.36348915100098 2.595157384872437 C 22.45487976074219 1.933388829231262 22.30413818359375 0.9643982648849487 22.59289741516113 0.4764118790626526 C 22.65496063232422 0.3712115883827209 22.78801345825195 0.2221778929233551 22.94379615783691 0.2605806291103363 C 23.09562301635742 0.2981300055980682 23.04480743408203 0.512332022190094 23.06521034240723 0.651745617389679 C 23.07995223999023 0.7518255114555359 23.15768814086914 0.8653268814086914 23.18655014038086 0.9894570112228394 C 23.23875999450684 1.212270498275757 23.2381420135498 1.489933967590332 23.26769828796387 1.758675694465637 C 23.29748916625977 2.028581142425537 23.29617118835449 2.308804750442505 23.29461860656738 2.568236589431763 C 25.06068229675293 2.596476316452026 26.97174072265625 2.562185287475586 28.6928825378418 2.649386882781982 C 28.68310737609863 2.48615574836731 28.57224464416504 2.335104942321777 28.53081703186035 2.136341571807861 C 28.48387718200684 1.908019661903381 28.43290901184082 1.568834185600281 28.49039459228516 1.326702833175659 C 28.53733062744141 1.129879117012024 28.73671531677246 0.9461665749549866 28.935791015625 1.137559652328491 C 29.06954002380371 1.266111850738525 29.15542221069336 1.579695701599121 29.20577239990234 1.839437961578369 C 29.26217269897461 2.129902124404907 29.24021911621094 2.450623512268066 29.3136100769043 2.703228235244751 C 29.36372756958008 2.297322750091553 29.34301376342773 1.772097229957581 29.35426330566406 1.380622148513794 C 29.67987060546875 1.874349355697632 29.69220733642578 2.953350305557251 29.6240119934082 3.823579788208008 C 29.5997314453125 4.134913921356201 29.53308868408203 4.735470771789551 29.20577239990234 4.41707706451416 C 29.1373462677002 4.494348049163818 29.12524223327637 4.593729972839355 28.97636413574219 4.565489768981934 C 28.75044822692871 4.523208141326904 28.90017890930176 4.023972511291504 28.92229080200195 3.796271085739136 C 28.95836639404297 3.425975561141968 28.92345237731934 3.115883111953735 28.935791015625 2.851718664169312 C 26.99617958068848 2.772508144378662 24.97696876525879 2.933101415634155 22.99771690368652 2.945979833602905 C 22.96978759765625 3.281984567642212 22.97490692138672 3.552588224411011 22.95729637145996 3.97168231010437 C 22.95054626464844 4.130414009094238 22.98530387878418 4.550439357757568 22.82230567932129 4.53856897354126 C 22.66186714172363 4.526699542999268 22.74953460693359 3.963691473007202 22.75480842590332 3.796271085739136 C 22.76458358764648 3.485247611999512 22.78312492370605 3.220772981643677 22.75480842590332 2.959789514541626 C 22.70895957946777 2.937911510467529 22.58467292785645 2.937911510467529 22.53890037536621 2.959789514541626 C 22.51733207702637 3.323956251144409 22.58707809448242 3.720939874649048 22.64689254760742 4.093175411224365 C 22.66209983825684 4.1884446144104 22.72129440307617 4.393647193908691 22.59289741516113 4.40357780456543 C 22.45100021362305 4.41443920135498 22.46124076843262 3.865241289138794 22.44425010681152 3.715509176254272 C 22.41414833068848 3.446146726608276 22.39646148681641 3.201145172119141 22.37690925598145 2.959789514541626 C 20.34730529785156 2.945592403411865 18.03157997131348 3.071040868759155 16.07443809509277 2.865140438079834 C 16.06512832641602 3.073601245880127 16.03494834899902 3.363755464553833 16.07443809509277 3.607438325881958 C 16.08933258056641 3.699759960174561 16.24115943908691 3.98549222946167 16.08785820007324 4.025912284851074 C 15.89615631103516 4.076262474060059 15.93781661987305 3.685019493103027 15.92594528198242 3.53978705406189 C 15.90701675415039 3.308595180511475 15.91182708740234 3.090591907501221 15.91244697570801 2.878639459609985 C 15.85992431640625 2.850399971008301 15.75728416442871 2.871890068054199 15.68288421630859 2.865140438079834 C 15.67357444763184 3.127753019332886 15.73424339294434 3.396494626998901 15.77753448486328 3.661279916763306 C 15.81966018676758 3.919392585754395 15.90476608276367 4.174015045166016 15.88552665710449 4.40357780456543 C 15.73098373413086 4.412267208099365 15.69126319885254 4.229795932769775 15.65596389770508 4.120173454284668 C 15.53850555419922 3.755541086196899 15.45525932312012 3.29129433631897 15.3859806060791 2.878639459609985 C 15.03523635864258 2.871269226074219 14.7211856842041 2.864830017089844 14.34677886962891 2.83821964263916 C 14.13327407836914 2.822858810424805 13.83637046813965 2.867778062820435 13.8071231842041 2.703228235244751 C 13.74847221374512 2.374904155731201 14.34646797180176 2.501904726028442 14.56292152404785 2.514395236968994 C 14.87425422668457 2.53200626373291 15.09567070007324 2.498646259307861 15.34556007385254 2.487086534500122 C 15.39847183227539 1.807707071304321 15.51135063171387 0.7996155619621277 15.81787490844727 0.2875013649463654 C 15.92881774902344 0.102237194776535 16.35931587219238 -0.1585135906934738 16.57367324829102 0.1255891621112823 C 16.60990333557129 0.1733792573213577 16.59159278869629 0.2317203730344772 16.6278247833252 0.314422070980072 C 16.66808891296387 0.4071317613124847 16.75436019897461 0.4629126787185669 16.77615928649902 0.516754150390625 C 16.81285667419434 0.6075242757797241 16.80936431884766 0.7530667781829834 16.83015632629395 0.9083069562911987 C 16.87267112731934 1.223830103874207 16.98663711547852 1.489623665809631 16.95157051086426 1.866358518600464 C 16.93582153320312 2.035951375961304 16.88787651062012 2.226103067398071 16.83015632629395 2.352095127105713 C 16.80672645568848 2.403454065322876 16.7496280670166 2.432003974914551 16.7490062713623 2.487086534500122 M 22.51190185546875 2.568236589431763 C 22.56582069396973 2.590037107467651 22.70088958740234 2.590037107467651 22.75480842590332 2.568236589431763 C 22.75884437561035 2.037270069122314 22.63502311706543 1.337952136993408 22.74131011962891 0.8271569013595581 C 22.77451515197754 0.6681152582168579 22.89414405822754 0.5633029341697693 22.87614631652832 0.4224928319454193 C 22.46186256408691 0.8447678685188293 22.56240844726562 1.78202760219574 22.51190185546875 2.568236589431763 M 22.97071647644043 0.840656042098999 C 22.96513175964355 0.6912344694137573 23.02137756347656 0.6036452054977417 23.02463531494141 0.4629126787185669 C 23.0073356628418 0.4622920453548431 23.00601577758789 0.4456120729446411 22.98421669006348 0.4494911432266235 C 22.92168617248535 0.5142715573310852 22.92890167236328 0.7572561502456665 22.97071647644043 0.840656042098999 M 15.65596389770508 2.473664999008179 C 15.71531295776367 2.492905139923096 15.85767364501953 2.489414215087891 15.89902687072754 2.446744203567505 C 15.88715553283691 1.785596489906311 15.92338562011719 1.059978246688843 16.06093788146973 0.5033325552940369 C 16.05806732177734 0.488281786441803 16.04588890075684 0.4824631810188293 16.03401756286621 0.4764118790626526 C 15.84611511230469 1.063159108161926 15.56503868103027 1.698007106781006 15.65596389770508 2.473664999008179 M 16.07443809509277 2.460165739059448 C 16.22750473022461 2.487086534500122 16.4256477355957 2.468854904174805 16.57367324829102 2.500586032867432 C 16.56661224365234 2.36078405380249 16.45792198181152 2.258842468261719 16.4251823425293 2.109420776367188 C 16.34566116333008 1.745797157287598 16.36280632019043 1.318401694297791 16.22284889221191 1.002568125724792 C 16.10934829711914 1.416231870651245 16.06194686889648 1.965429902076721 16.07443809509277 2.460165739059448 M 28.77403450012207 2.649386882781982 C 28.81941604614258 2.67723822593689 28.87961959838867 2.677936792373657 28.935791015625 2.662808418273926 C 28.93408203125 2.610596179962158 28.94657325744629 2.544186353683472 28.90886878967285 2.527816772460938 C 28.88497352600098 2.589416265487671 28.76984214782715 2.559547424316406 28.77403450012207 2.649386882781982 M 29.32726287841797 3.202463865280151 C 29.30282783508301 3.058550357818604 29.37986373901367 2.896250486373901 29.3136100769043 2.797489404678345 C 29.27753639221191 2.886630535125732 29.29638862609863 3.097031116485596 29.32726287841797 3.202463865280151" fill="#ff4d16" stroke="none" stroke-width="0"/>
</svg>