<svg xmlns="http://www.w3.org/2000/svg" width="1" height="1" viewBox="192.704345703125 170.1811828613281 1 1" fill="none">
  <path d="M 193.5387878417969 170.3642120361328 C 193.5568389892578 170.1811828613281 193.6673889160156 170.5742950439453 193.5890197753906 170.5663909912109 C 193.5562896728516 170.6179809570312 193.4730987548828 170.6183013916016 193.4880523681641 170.7178344726562 C 193.3907470703125 170.6972351074219 193.447998046875 170.5218353271484 193.2861175537109 170.5663909912109 C 193.31884765625 170.6179809570312 193.4023132324219 170.6183013916016 193.3873748779297 170.7178344726562 C 193.2926025390625 170.6194152832031 193.2018127441406 170.702880859375 193.0839080810547 170.7178344726562 C 193.1846160888672 170.9132537841797 192.7957153320312 171.0088653564453 193.033447265625 171.0215454101562 C 193.0255432128906 171.0804901123047 192.9409637451172 171.0641479492188 192.8817291259766 171.0714721679688 L 192.8817291259766 171.1729888916016 C 192.704345703125 171.1591949462891 193.0083618164062 170.984619140625 192.83154296875 170.9708099365234 C 192.8594512939453 170.8658905029297 192.9102172851562 170.8641815185547 192.9826812744141 170.9200286865234 C 192.9790191650391 170.8399505615234 193.0075073242188 170.7277069091797 192.9321899414062 170.7178344726562 C 193.0044097900391 170.5709228515625 193.0940704345703 170.6899108886719 193.1851654052734 170.5156402587891 C 193.1812133789062 170.7325134277344 193.2875366210938 170.4135589599609 193.4375610351562 170.5663909912109 C 193.4592742919922 170.4025573730469 193.6597900390625 170.4786987304688 193.5387878417969 170.3642120361328" fill="#2777df" stroke="none" stroke-width="0"/>
</svg>