<svg xmlns="http://www.w3.org/2000/svg" width="1" height="3" viewBox="1.735093832015991 37.90546417236328 1 3.3557815551757812" fill="none">
  <path d="M 2.55543851852417 38.23828887939453 C 2.516027450561523 38.21454620361328 2.5009765625 38.16644668579102 2.460867166519165 38.14371490478516 C 2.342245101928711 38.23347854614258 2.272344589233398 38.41881942749023 2.204383134841919 38.60253143310547 C 2.145343780517578 38.7621955871582 2.045651912689209 39.00075912475586 2.069546937942505 39.18291854858398 C 2.077227354049683 39.24126052856445 2.138283967971802 39.29417037963867 2.150464296340942 39.35832977294922 C 2.172574758529663 39.4763298034668 2.134792804718018 39.67796325683594 2.123543500900269 39.87129974365234 C 2.107406616210938 40.14515686035156 2.10368275642395 40.48023223876953 2.082968473434448 40.78900909423828 C 2.070632934570312 40.97396087646484 2.014852046966553 41.17117309570312 2.110121965408325 41.26124572753906 C 1.979629993438721 41.23727416992188 1.923151016235352 41.05192947387695 1.867059707641602 40.89707946777344 C 1.735093832015991 40.53151702880859 1.821829795837402 40.03165817260742 1.840138912200928 39.61481475830078 C 1.848284959793091 39.42846298217773 1.813838958740234 39.22264099121094 1.826484680175781 39.03442764282227 C 1.847819328308105 38.71828460693359 1.936960458755493 38.38034057617188 2.096467733383179 38.21136856079102 C 2.19313383102417 38.10873031616211 2.556292057037354 37.90546417236328 2.55543851852417 38.23828887939453" fill="#ff4d16" stroke="none" stroke-width="0"/>
</svg>