<svg xmlns="http://www.w3.org/2000/svg" width="3" height="18" viewBox="397.0303955078125 136.7920227050781 2.897674560546875 17.9434814453125" fill="none">
  <path d="M 397.6759643554688 137.2982177734375 C 397.7938232421875 137.3108978271484 397.7041625976562 137.5195922851562 397.6759643554688 137.5503082275391 C 397.6973571777344 137.595458984375 397.7196960449219 137.6411285400391 397.7766418457031 137.6518402099609 C 397.8341369628906 137.6422576904297 397.8051147460938 137.6010894775391 397.7766418457031 137.6010894775391 C 397.9263610839844 137.50634765625 398.0253601074219 137.6600189208984 398.1810302734375 137.6518402099609 C 398.2258605957031 137.7567596435547 397.836669921875 137.6653900146484 398.0295715332031 137.7525177001953 C 398.0287475585938 137.8943939208984 397.89111328125 137.6323852539062 397.9281005859375 137.853759765625 C 397.7695922851562 137.8771667480469 397.7861938476562 137.7265625 397.725830078125 137.6518402099609 C 397.5580749511719 137.7590026855469 397.8781433105469 137.7984924316406 397.827392578125 137.9547119140625 C 397.7368774414062 137.9406127929688 397.7230224609375 138.0029296875 397.7766418457031 138.0054626464844 C 397.7670288085938 138.0621795654297 397.725830078125 138.0333862304688 397.725830078125 138.0054626464844 L 397.6249084472656 138.0054626464844 C 397.6249084472656 137.9048004150391 397.7628173828125 137.9409027099609 397.725830078125 137.8032836914062 C 397.6099548339844 137.7872009277344 397.6697387695312 137.9490661621094 397.5744018554688 137.9547119140625 C 397.5967102050781 137.9998626708984 397.618408203125 138.0455169677734 397.6759643554688 138.0556945800781 C 397.6302490234375 138.1118011474609 397.5625610351562 138.0912170410156 397.4737548828125 138.0556945800781 C 397.5425415039062 138.142822265625 397.6372985839844 138.2545166015625 397.4230041503906 138.2584533691406 C 397.4348449707031 138.3131408691406 397.5236511230469 138.2928314208984 397.5236511230469 138.359130859375 C 397.6173095703125 138.3517761230469 397.5547180175781 138.1879425048828 397.6249084472656 138.1569213867188 C 397.6697387695312 138.1879425048828 397.7156982421875 138.2181091308594 397.725830078125 138.1569213867188 C 397.6034545898438 138.3148345947266 398.0194091796875 138.3455963134766 397.9281005859375 138.5613250732422 C 398.0095520019531 138.5759887695312 398.0149230957031 138.513671875 398.0794982910156 138.5105590820312 C 398.0580749511719 138.4482269287109 398.0149230957031 138.4073486328125 397.9281005859375 138.4098815917969 C 397.9477844238281 138.2443389892578 398.0761108398438 138.1870880126953 398.1302795410156 138.0556945800781 C 398.0870971679688 137.9073486328125 397.967529296875 138.0864105224609 397.8781433105469 138.0556945800781 C 397.9167785644531 138.0111236572266 397.9314575195312 137.9417572021484 397.9281005859375 137.853759765625 L 398.0794982910156 137.853759765625 C 398.0786437988281 137.9025421142578 398.0174560546875 137.8932342529297 397.9788208007812 137.9039611816406 C 398.0072937011719 137.9651641845703 398.3059387207031 138.0077362060547 398.2816772460938 137.9547119140625 C 398.4151000976562 138.0269165039062 398.1756591796875 138.1467742919922 398.0794982910156 138.1569213867188 C 398.0752868652344 138.2950897216797 398.1638488769531 138.2584533691406 398.0794982910156 138.359130859375 C 398.2799987792969 138.3435974121094 398.0234069824219 138.1834106445312 398.2317504882812 138.2076568603516 C 398.2154541015625 138.3875885009766 398.1336669921875 138.4713592529297 398.3834838867188 138.4603424072266 C 398.4179077148438 138.148193359375 398.4075012207031 139.1445159912109 398.0794982910156 138.9152526855469 C 398.3039855957031 138.9939270019531 398.1003723144531 139.2917022705078 398.3324584960938 139.4205780029297 C 398.3600769042969 139.190185546875 398.1889343261719 139.3066711425781 398.4339904785156 139.1678924560547 C 398.3902587890625 139.0915069580078 398.3584289550781 139.1820220947266 398.2317504882812 139.1171417236328 C 398.40576171875 138.6780548095703 398.6353454589844 138.5023956298828 398.3834838867188 138.0054626464844 C 398.5588989257812 138.1275787353516 398.3361511230469 137.8828277587891 398.6364440917969 137.9547119140625 C 398.4032592773438 137.6078643798828 398.3434448242188 137.6763763427734 398.2317504882812 137.2471771240234 C 398.2935180664062 137.2632446289062 398.5433959960938 137.2389984130859 398.3834838867188 137.1964111328125 C 398.4288940429688 137.1405792236328 398.4770812988281 137.1811676025391 398.6364440917969 137.1464996337891 C 398.6071472167969 137.2516632080078 398.5572204589844 137.2539367675781 398.48388671875 137.1964111328125 C 398.5194091796875 137.3523712158203 398.5194091796875 137.2942810058594 398.48388671875 137.4496612548828 C 398.4968872070312 137.504638671875 398.5848388671875 137.4840698242188 398.58544921875 137.5503082275391 C 398.6113891601562 137.4956207275391 398.6714172363281 137.3441772460938 398.7371520996094 137.1964111328125 C 398.8169555664062 137.2009124755859 398.9297790527344 137.1729888916016 398.9390258789062 137.2471771240234 C 398.9909362792969 137.1453704833984 399.0458984375 137.0793914794922 398.9390258789062 136.8935546875 C 398.9825134277344 136.8839569091797 398.9864196777344 136.9132690429688 398.9900817871094 136.9434356689453 C 399.0484313964844 136.9364166259766 399.0321655273438 136.851806640625 399.0400085449219 136.7920227050781 C 399.1716918945312 136.8751983642578 399.1277160644531 137.1383056640625 399.3939208984375 137.1964111328125 C 399.2241821289062 137.2288360595703 399.4339599609375 137.4612121582031 399.2422180175781 137.3478393554688 C 399.2190551757812 137.4564361572266 399.3144226074219 137.4448394775391 399.3939208984375 137.4496612548828 C 399.3465881347656 137.688232421875 399.3017578125 137.9302062988281 399.1923217773438 138.1061553955078 C 399.2360229492188 138.1831512451172 399.2670288085938 138.0929107666016 399.3939208984375 138.1569213867188 C 399.1748352050781 138.1972351074219 399.3696594238281 138.3580017089844 399.1415100097656 138.4098815917969 C 399.1829833984375 138.61572265625 399.1491088867188 138.5832977294922 399.1415100097656 138.8139953613281 C 399.2644958496094 138.6927490234375 399.1708374023438 138.5460815429688 399.2422180175781 138.4603424072266 C 399.4288635253906 138.5381927490234 399.1294250488281 138.8097534179688 399.292724609375 138.8641967773438 C 399.1415100097656 138.8780212402344 399.1311340332031 139.1625518798828 399.292724609375 138.9660034179688 C 399.162109375 139.1794586181641 399.1829833984375 139.4916687011719 399.2422180175781 139.7745056152344 C 399.1234741210938 139.8399353027344 399.1294250488281 139.7491302490234 399.0400085449219 139.8754730224609 C 399.11474609375 139.962890625 399.1465759277344 139.8097686767578 399.0907287597656 140.0274505615234 C 399.0501403808594 139.9922180175781 398.9520263671875 139.9482269287109 398.9390258789062 140.0274505615234 C 398.99853515625 140.064697265625 399.3085021972656 140.0740051269531 399.2422180175781 140.381103515625 C 399.1516723632812 140.3870239257812 399.1355895996094 140.3190612792969 399.0400085449219 140.3303680419922 C 399.2275390625 140.4194488525391 399.0538635253906 140.5193023681641 399.0400085449219 140.6839904785156 C 399.1260375976562 140.702880859375 399.1355895996094 140.644775390625 399.1415100097656 140.5833129882812 C 399.2991943359375 140.5342407226562 399.0290222167969 140.8080596923828 399.0400085449219 140.9372253417969 C 399.0873718261719 140.9002685546875 399.116455078125 140.8450164794922 399.1415100097656 140.7854919433594 C 399.1990661621094 140.7950897216797 399.169189453125 140.8359832763672 399.1415100097656 140.8359832763672 C 399.1209411621094 140.9572601318359 399.2334289550781 140.9456939697266 399.1923217773438 141.0886535644531 C 399.1249084472656 141.0705871582031 399.1124877929688 140.9989776611328 399.0400085449219 140.9879913330078 C 399.0682373046875 141.0601806640625 399.1189880371094 141.1109466552734 399.1923217773438 141.1394195556641 C 398.9427185058594 141.3277893066406 399.1934509277344 141.9315795898438 399.2422180175781 142.4535675048828 L 399.1415100097656 142.4535675048828 C 399.1322021484375 142.4964294433594 399.1612854003906 142.5006713867188 399.1923217773438 142.5043334960938 C 399.0966796875 142.6233062744141 398.9590759277344 142.1647796630859 399.0400085449219 142.0999298095703 C 398.9469299316406 142.4030914306641 398.9024047851562 142.8365325927734 399.1415100097656 143.1100769042969 C 399.1011962890625 143.2099151611328 398.9641723632812 143.2916870117188 398.8885803222656 143.2116088867188 C 399.0132141113281 143.3537292480469 398.9909362792969 143.5643920898438 399.0400085449219 143.6661987304688 C 399.0555419921875 143.4645538330078 399.116455078125 143.2174987792969 399.1415100097656 143.7677154541016 C 399.1011962890625 143.7409362792969 399.05859375 143.7146911621094 398.9900817871094 143.7166900634766 C 399.1647033691406 144.1642303466797 399.0417175292969 144.2163696289062 399.1415100097656 144.8286285400391 C 398.9728698730469 144.8635864257812 399.0597534179688 144.7245483398438 399.0907287597656 144.6771850585938 C 398.8916625976562 144.5962524414062 399.0724487304688 144.8948822021484 398.9390258789062 144.8796691894531 C 399.0132141113281 144.8864288330078 399.0921936035156 144.9755401611328 399.0907287597656 145.1822662353516 C 399.0086975097656 145.1972045898438 399.0039367675781 145.1343231201172 398.9390258789062 145.1318054199219 C 399.0067749023438 145.3441314697266 398.9881286621094 145.5198211669922 398.9900817871094 145.6376953125 C 399.03466796875 145.6148529052734 399.0803527832031 145.5928649902344 399.0907287597656 145.5361785888672 C 399.0890502929688 145.4876708984375 399.0290222167969 145.4969787597656 398.9900817871094 145.4854278564453 C 398.9825134277344 145.4191436767578 399.1598815917969 145.2975921630859 399.0400085449219 145.2840576171875 C 399.1460266113281 145.1893310546875 399.2084045410156 145.7062225341797 398.9900817871094 145.7383728027344 C 399.0047607421875 145.8585052490234 399.1260375976562 145.6825408935547 399.1415100097656 145.6376953125 C 399.3425903320312 145.7129974365234 398.8936462402344 145.9738464355469 399.1415100097656 145.9405517578125 C 399.0986633300781 146.0835571289062 398.9100036621094 146.0801696777344 398.8885803222656 146.2434692382812 C 399.0543823242188 146.2417755126953 399.0098266601562 146.0274353027344 399.1923217773438 146.0421142578125 C 399.3504943847656 146.1368560791016 399.069091796875 146.3046417236328 399.1923217773438 146.3449859619141 C 399.1734008789062 146.4157562255859 399.1026000976562 146.3492126464844 399.0907287597656 146.2945098876953 C 399.0467529296875 146.3004150390625 399.0433959960938 146.6325988769531 399.1415100097656 146.4964141845703 C 399.26025390625 146.4975280761719 399.1226196289062 146.6343078613281 399.0400085449219 146.5982055664062 C 399.1011962890625 146.6639099121094 399.0597534179688 146.6768798828125 399.0400085449219 146.7496643066406 C 399.0682373046875 146.8630065917969 399.1189880371094 146.6881713867188 399.1923217773438 146.8003997802734 C 399.3704833984375 146.7854766845703 399.0132141113281 146.6630859375 399.1923217773438 146.6481475830078 C 399.454833984375 146.7335815429688 399.05859375 147.2834930419922 399.3437194824219 147.3554077148438 C 399.2808227539062 147.4986419677734 399.2808227539062 147.6684265136719 399.3437194824219 147.8108520507812 C 399.2018737792969 147.6684265136719 399.2498474121094 147.9741363525391 399.1923217773438 148.0637969970703 C 399.2438659667969 148.0147094726562 399.2938232421875 147.9639892578125 399.3437194824219 147.9120788574219 C 399.3978881835938 147.9247589111328 399.3772888183594 148.0124664306641 399.4443969726562 148.0130462646484 C 399.4350891113281 148.0705718994141 399.3939208984375 148.041259765625 399.3939208984375 148.0130462646484 C 399.2887573242188 148.0257110595703 399.3800964355469 148.2349548339844 399.292724609375 148.2659912109375 C 399.3214416503906 148.3802185058594 399.3713684082031 148.2045135498047 399.4443969726562 148.31591796875 C 399.2610778808594 148.4337921142578 399.4754333496094 148.3545379638672 399.4443969726562 148.5688629150391 C 399.3781433105469 148.5088043212891 399.3651733398438 148.5491333007812 399.292724609375 148.5688629150391 C 399.5298461914062 148.6128540039062 399.1852416992188 148.9224853515625 399.4951782226562 148.8717498779297 L 399.4951782226562 149.0243072509766 C 399.3944702148438 149.1077728271484 399.4308776855469 149.0195159912109 399.292724609375 149.0243072509766 C 399.5442199707031 149.0285339355469 399.3254089355469 149.4853668212891 399.4951782226562 149.3271942138672 C 399.5580749511719 149.3601837158203 399.3575439453125 149.4715881347656 399.3939208984375 149.5293884277344 C 399.4024353027344 149.5883331298828 399.48583984375 149.5719757080078 399.5458984375 149.5798645019531 C 399.54931640625 149.6596832275391 399.5211181640625 149.7730407714844 399.5958251953125 149.7823333740234 C 399.5820007324219 149.8883819580078 399.4607849121094 149.7093200683594 399.3939208984375 149.8322601318359 C 399.3927917480469 149.9067230224609 399.6071166992188 149.9927062988281 399.3939208984375 149.9842834472656 C 399.3952941894531 150.0330505371094 399.4553833007812 150.0237426757812 399.4951782226562 150.0344543457031 C 399.4402160644531 150.0852203369141 399.3051147460938 150.3102874755859 399.4443969726562 150.3886566162109 C 399.4288635253906 150.4571838378906 399.3178100585938 150.4304046630859 399.2422180175781 150.4388580322266 C 399.3327026367188 150.5420684814453 399.4288635253906 150.4537963867188 399.3437194824219 150.6413726806641 C 399.6922912597656 150.4444885253906 399.4339599609375 150.8928985595703 399.4951782226562 151.0457305908203 C 399.5458984375 151.1723785400391 399.5115356445312 151.3852386474609 399.6976623535156 151.6520538330078 C 399.6000671386719 151.6303405761719 399.4796142578125 151.6339874267578 399.4951782226562 151.5006256103516 C 399.4461059570312 151.5017395019531 399.4553833007812 151.5621032714844 399.4443969726562 151.6015625 C 399.4523315429688 151.6949310302734 399.6158447265625 151.6325836181641 399.6466064453125 151.7028198242188 C 399.4237976074219 151.814208984375 399.9184875488281 152.17431640625 399.5458984375 152.4100799560547 C 399.6020812988281 152.5699768066406 399.5501403808594 152.5245819091797 399.5458984375 152.7138214111328 L 399.6976623535156 152.7138214111328 C 399.6742248535156 152.4422149658203 399.7678833007812 152.9196929931641 399.5958251953125 153.0169677734375 C 399.7224731445312 152.9295349121094 399.7791442871094 153.4842376708984 399.5458984375 153.472412109375 C 399.5659484863281 153.5973358154297 399.7413635253906 153.4749450683594 399.6976623535156 153.3703002929688 C 399.8067932128906 153.3798980712891 399.8171997070312 153.6957702636719 399.6976623535156 153.6737365722656 C 399.9015197753906 153.8040466308594 399.7224731445312 153.9371337890625 399.8488159179688 154.1796875 C 399.8203430175781 154.2933349609375 399.7698364257812 154.1176452636719 399.6976623535156 154.2301483154297 C 399.7498168945312 154.2828979492188 399.7291870117188 154.66357421875 399.7980346679688 154.5330352783203 C 399.9280700683594 154.5457153320312 399.7291870117188 154.6201477050781 399.7980346679688 154.7355041503906 C 399.6423950195312 154.69970703125 399.7010498046875 154.69970703125 399.5458984375 154.7355041503906 C 399.5312805175781 154.5643310546875 399.4452514648438 154.4258728027344 399.6976623535156 154.4318084716797 C 399.6009521484375 154.3728332519531 399.5805969238281 154.3046112060547 399.6976623535156 154.2301483154297 C 399.6767578125 154.1695098876953 399.4562377929688 154.2203063964844 399.3437194824219 154.1288909912109 C 399.4418640136719 154.0524749755859 399.2549133300781 153.9162750244141 399.4443969726562 153.8756561279297 C 399.4162292480469 153.8136138916016 399.249267578125 153.9134674072266 399.292724609375 153.6737365722656 C 399.3789978027344 153.8167419433594 399.4917602539062 153.6551361083984 399.4951782226562 153.8260345458984 C 399.5546875 153.7504730224609 399.6217956542969 153.683349609375 399.6976623535156 153.6235504150391 C 399.6790161132812 153.5440368652344 399.6079711914062 153.6675262451172 399.5958251953125 153.5727996826172 C 399.5442199707031 153.6224365234375 399.4934387207031 153.6731719970703 399.4443969726562 153.7242126464844 C 399.3877258300781 153.7149200439453 399.4162292480469 153.6737365722656 399.4443969726562 153.6737365722656 C 399.4364929199219 153.5804138183594 399.2729187011719 153.6424560546875 399.2422180175781 153.5727996826172 C 399.4015808105469 153.4887542724609 398.9435729980469 153.0846252441406 399.1923217773438 152.9662170410156 C 399.154541015625 152.9196929931641 399.1003723144531 152.8900451660156 399.0400085449219 152.8655395507812 C 399.083740234375 152.8240814208984 399.0699462890625 152.72705078125 399.1415100097656 152.7138214111328 C 399.0253601074219 152.6954650878906 399.0921936035156 152.492431640625 398.9390258789062 152.5118713378906 C 399.0140991210938 152.1872863769531 398.7421875 151.6785583496094 398.78759765625 151.5510864257812 C 398.9540100097656 151.3624420166016 398.5530090332031 150.9193878173828 398.7371520996094 150.6915283203125 C 398.7145690917969 150.6167907714844 398.6725463867188 150.7123870849609 398.58544921875 150.6915283203125 C 398.6629638671875 150.5925598144531 398.5459289550781 150.4388580322266 398.6364440917969 150.3886566162109 C 398.6215209960938 150.2848815917969 398.5013732910156 150.2877044677734 398.4339904785156 150.2366485595703 C 398.5735473632812 150.1616363525391 398.3463134765625 150.0307922363281 398.48388671875 149.9842834472656 C 398.4469604492188 149.9580383300781 398.2461853027344 149.9484405517578 398.3834838867188 149.7823333740234 C 398.36767578125 149.7070465087891 398.1708679199219 149.5646362304688 398.1302795410156 149.6808319091797 C 397.9720458984375 149.6963195800781 398.2585754394531 149.5350341796875 398.0794982910156 149.5293884277344 C 398.0639953613281 149.3708953857422 398.2258605957031 149.6574096679688 398.2317504882812 149.4786376953125 C 398.3065185546875 149.5009002685547 398.2112121582031 149.5431976318359 398.2317504882812 149.6300811767578 C 398.5451049804688 149.3534088134766 398.1252136230469 149.1266632080078 398.2816772460938 148.8717498779297 C 398.2368774414062 148.9036254882812 398.1914367675781 148.9329681396484 398.1810302734375 148.8717498779297 C 398.1319580078125 148.8734436035156 398.1415405273438 148.9346313476562 398.1302795410156 148.9735717773438 C 398.0391845703125 148.9800109863281 398.0234069824219 148.9118194580078 397.9281005859375 148.9224853515625 C 397.9325866699219 148.8012542724609 398.0668334960938 148.5637969970703 397.827392578125 148.6695404052734 L 397.827392578125 148.4673614501953 C 397.907470703125 148.4636993408203 398.020263671875 148.4924468994141 398.0295715332031 148.4174346923828 C 398.1756591796875 148.4459228515625 397.9520263671875 148.4966735839844 397.9788208007812 148.5688629150391 C 398.1003723144531 148.5894622802734 398.0882263183594 148.4763641357422 398.2317504882812 148.5181121826172 C 398.1252136230469 148.3731536865234 398.176513671875 148.2200317382812 398.1302795410156 148.1136932373047 C 398.0261840820312 148.1410675048828 398.1181030273438 148.3528442382812 397.9788208007812 148.2152404785156 C 397.9598999023438 148.3009796142578 398.0185546875 148.3108520507812 398.0794982910156 148.31591796875 C 397.9858703613281 148.5237579345703 397.8395080566406 148.0773468017578 397.8781433105469 148.4174346923828 C 397.836669921875 148.3906402587891 397.7955017089844 148.3649749755859 397.725830078125 148.3666839599609 C 398.0030822753906 148.1839294433594 397.5495910644531 148.1735076904297 397.725830078125 147.9120788574219 C 397.7893371582031 147.9247589111328 397.7766418457031 148.0124664306641 397.725830078125 148.0130462646484 C 397.7464294433594 148.1103363037109 397.9221496582031 148.0531005859375 397.8781433105469 148.2152404785156 C 397.9187622070312 148.2056579589844 397.9281005859375 148.1644897460938 397.9788208007812 148.1644897460938 C 397.958251953125 148.0671844482422 397.7828063964844 148.1247406005859 397.827392578125 147.9622955322266 C 397.8677062988281 147.9887847900391 397.9091491699219 148.0149993896484 397.9788208007812 148.0130462646484 C 397.9520263671875 147.9724273681641 397.9263610839844 147.9306945800781 397.9281005859375 147.8616180419922 C 397.7611083984375 147.8881225585938 397.6122131347656 147.8184661865234 397.725830078125 147.7101440429688 C 397.7997436523438 147.7319030761719 397.7205200195312 147.7538757324219 397.725830078125 147.8108520507812 C 397.8781433105469 147.8616180419922 397.8152770996094 147.6985931396484 397.827392578125 147.6083526611328 L 397.9281005859375 147.6083526611328 C 397.9187622070312 147.5677642822266 397.8773193359375 147.5584564208984 397.8781433105469 147.5077056884766 C 397.8178100585938 147.5830078125 397.7509460449219 147.6506652832031 397.6759643554688 147.7101440429688 C 397.618408203125 147.7005767822266 397.6474304199219 147.6591339111328 397.6759643554688 147.6591339111328 C 397.5518798828125 147.5640716552734 397.538330078125 147.3585205078125 397.4737548828125 147.2039642333984 C 397.5200500488281 147.2349853515625 397.6595764160156 147.3218383789062 397.6249084472656 147.1540374755859 C 397.6827392578125 147.2143859863281 397.7532043457031 147.1735076904297 397.6759643554688 147.1540374755859 C 397.7086791992188 147.0026092529297 397.7833862304688 147.2022552490234 397.8781433105469 147.1540374755859 C 397.6571044921875 147.2341461181641 397.9994201660156 147.2829132080078 397.7766418457031 147.3054809570312 C 397.8248291015625 147.4591827392578 397.9700927734375 147.5167236328125 398.0794982910156 147.6083526611328 C 398.0674133300781 147.6974792480469 397.9926452636719 147.7236938476562 397.8781433105469 147.7101440429688 C 397.9032592773438 147.8362274169922 398.0124206542969 147.8785247802734 398.0295715332031 148.0130462646484 C 398.1252136230469 148.0076904296875 398.0639953613281 147.8460845947266 398.1810302734375 147.8616180419922 C 398.1708679199219 147.8207092285156 398.1302795410156 147.8108520507812 398.1302795410156 147.7598114013672 C 397.8990173339844 147.9862670898438 398.3169555664062 147.3886566162109 397.9788208007812 147.5077056884766 C 397.9864501953125 147.4484710693359 398.0707702636719 147.465087890625 398.1302795410156 147.4569396972656 C 398.1742858886719 147.2961730957031 398.0509948730469 147.3006896972656 398.0295715332031 147.2039642333984 C 397.9650268554688 147.2155151367188 397.9633483886719 147.3551025390625 398.0295715332031 147.3554077148438 C 398.0115356445312 147.4349365234375 397.9399108886719 147.3117065429688 397.9281005859375 147.4061431884766 C 397.8135375976562 147.2998352050781 398.1017761230469 147.1075286865234 397.827392578125 147.0525207519531 C 397.8446350097656 146.9727020263672 397.9159240722656 147.0973510742188 397.9281005859375 147.0017700195312 C 398.0425720214844 147.0305023193359 397.8671569824219 147.0810089111328 397.9788208007812 147.1540374755859 C 398.0447998046875 147.1362915039062 398.0580749511719 147.06494140625 398.1302795410156 147.0525207519531 C 398.0975341796875 147.0012054443359 398.0140991210938 147.0006408691406 398.0295715332031 146.9010925292969 C 397.8022766113281 146.9983825683594 397.7833862304688 146.8585052490234 397.8781433105469 146.6988983154297 C 397.7131958007812 146.7634429931641 397.7704467773438 146.7716369628906 397.6249084472656 146.8003997802734 C 397.616455078125 146.8585052490234 397.6361694335938 146.890380859375 397.6759643554688 146.9010925292969 C 397.6658325195312 146.9586181640625 397.6249084472656 146.9295806884766 397.6249084472656 146.9010925292969 C 397.5735778808594 146.93408203125 397.5727233886719 147.0169677734375 397.4737548828125 147.0017700195312 C 397.5078735351562 146.9611511230469 397.5518798828125 146.8630065917969 397.4737548828125 146.850341796875 C 397.4949035644531 146.7880249023438 397.538330078125 146.7471160888672 397.6249084472656 146.7496643066406 C 397.34912109375 146.528564453125 397.6122131347656 146.5395660400391 397.3722534179688 146.2945098876953 C 397.3874206542969 146.1890258789062 397.5087280273438 146.3700714111328 397.5236511230469 146.1934967041016 C 397.5975341796875 146.2163848876953 397.5183410644531 146.2384033203125 397.5236511230469 146.2945098876953 C 397.6629638671875 146.2792816162109 397.6302490234375 146.1187896728516 397.4737548828125 146.1430511474609 C 397.4810791015625 146.0838470458984 397.5657043457031 146.1001739501953 397.6249084472656 146.092041015625 C 397.6612854003906 146.0108032226562 397.3866271972656 146.0108032226562 397.4230041503906 146.092041015625 C 397.3369445800781 146.0516967773438 397.416748046875 145.7536163330078 397.5744018554688 145.7891235351562 C 397.5140991210938 145.7228698730469 397.5547180175781 145.7096252441406 397.5744018554688 145.6376953125 C 397.502197265625 145.6656188964844 397.4514770507812 145.7164001464844 397.4230041503906 145.7891235351562 C 397.3651733398438 145.7795562744141 397.39453125 145.7383728027344 397.4230041503906 145.7383728027344 C 397.4243774414062 145.6518096923828 397.3852233886719 145.6075286865234 397.3211669921875 145.5869293212891 C 397.4444274902344 145.4862670898438 397.3722534179688 145.5074310302734 397.4230041503906 145.3336944580078 C 397.5087280273438 145.3153533935547 397.5183410644531 145.3737487792969 397.5236511230469 145.4355010986328 C 397.5783996582031 145.4228210449219 397.5580749511719 145.3348083496094 397.6249084472656 145.3336944580078 C 397.5123596191406 145.3407592773438 397.3772888183594 145.1165618896484 397.3722534179688 145.1822662353516 C 397.2628173828125 145.1915740966797 397.34912109375 145.0034637451172 397.3211669921875 144.9301452636719 C 397.3962097167969 144.9560852050781 397.4486694335938 145.0051422119141 397.5236511230469 145.0310974121094 C 397.538330078125 145.1126098632812 397.4762878417969 145.1179656982422 397.4737548828125 145.1822662353516 C 397.5321350097656 145.1907043457031 397.5631408691406 145.1718444824219 397.5744018554688 145.1318054199219 C 397.6234741210938 145.1329193115234 397.6130676269531 145.1941070556641 397.6249084472656 145.2333221435547 C 397.8115844726562 145.1278381347656 397.4717712402344 145.0198211669922 397.6249084472656 144.9301452636719 C 397.7842102050781 144.9053192138672 397.6629638671875 145.1619415283203 397.7766418457031 145.1822662353516 C 397.8807067871094 145.0505523681641 397.7628173828125 145.0082702636719 397.725830078125 144.8286285400391 C 397.6638488769531 144.8852996826172 397.621826171875 144.8726196289062 397.6249084472656 144.7781524658203 C 397.5795288085938 144.8094482421875 397.5349426269531 144.8399047851562 397.5236511230469 144.7781524658203 C 397.4745788574219 144.7792663574219 397.4847717285156 144.8404693603516 397.4737548828125 144.8796691894531 C 397.4280700683594 144.8480834960938 397.3823852539062 144.8184814453125 397.3722534179688 144.8796691894531 C 397.3155517578125 144.8244018554688 397.3048095703125 144.6007843017578 397.4230041503906 144.7279357910156 C 397.4151000976562 144.4910583496094 397.1604309082031 144.6853637695312 397.3722534179688 144.4749755859375 C 397.3634643554688 144.4160614013672 397.2799987792969 144.4324035644531 397.2208251953125 144.4242095947266 C 397.29296875 144.2854919433594 397.1922912597656 144.1272735595703 397.3211669921875 143.9699096679688 C 397.149169921875 143.9986877441406 397.103759765625 143.4947357177734 397.3211669921875 143.312255859375 C 397.2997741699219 143.2327575683594 397.1629943847656 143.2694091796875 397.2208251953125 143.1100769042969 L 397.3722534179688 143.1100769042969 C 397.3349914550781 143.0627136230469 397.2799987792969 143.0339202880859 397.2208251953125 143.0094146728516 C 397.3161010742188 143.0305786132812 397.3874206542969 142.8179168701172 397.1700439453125 142.7564392089844 C 397.2439270019531 142.6729583740234 397.16357421875 142.3018341064453 397.3211669921875 142.4535675048828 C 397.0303955078125 142.4470825195312 397.2695617675781 142.2053985595703 397.1700439453125 141.6952514648438 C 397.3417663574219 141.7460021972656 397.3417663574219 141.7615356445312 397.3722534179688 141.5940093994141 C 397.3270874023438 141.6160125732422 397.2817077636719 141.6380004882812 397.2712707519531 141.6952514648438 C 397.1020812988281 141.3162231445312 397.1847229003906 140.9882507324219 397.2712707519531 140.5833129882812 C 397.3428955078125 140.6797485351562 397.4272155761719 140.7640686035156 397.5236511230469 140.8359832763672 C 397.6406860351562 140.8509216308594 397.5795288085938 140.690185546875 397.6759643554688 140.6839904785156 C 397.6576232910156 140.604736328125 397.5865173339844 140.728271484375 397.5744018554688 140.6337738037109 C 397.5547180175781 140.8475341796875 397.3962097167969 140.62841796875 397.2712707519531 140.5325469970703 C 397.2808532714844 140.4752960205078 397.3211669921875 140.5040588378906 397.3211669921875 140.5325469970703 C 397.6138916015625 140.4000091552734 397.5870971679688 140.6484375 398.0295715332031 140.4315948486328 C 397.9720458984375 140.3706665039062 397.8852233886719 140.3399200439453 397.9281005859375 140.1789093017578 C 397.8228454589844 140.1918792724609 397.91455078125 140.4008483886719 397.827392578125 140.4315948486328 C 397.7523498535156 140.40478515625 397.6998901367188 140.3568572998047 397.6249084472656 140.3303680419922 C 397.4754028320312 140.3743286132812 397.741943359375 140.4062194824219 397.6759643554688 140.5325469970703 C 397.5887756347656 140.4673919677734 397.4771423339844 140.4284820556641 397.4737548828125 140.2798614501953 C 397.4054870605469 140.2902984619141 397.3789978027344 140.4899444580078 397.3722534179688 140.2798614501953 C 397.2895812988281 140.2429046630859 397.1525268554688 140.3802490234375 397.2712707519531 140.381103515625 C 397.1818237304688 140.5026397705078 397.1570434570312 140.2713928222656 397.2208251953125 140.1789093017578 C 397.3417663574219 140.1583251953125 397.3299560546875 140.2713928222656 397.4737548828125 140.2293701171875 C 397.4661254882812 140.1354675292969 397.3025817871094 140.1986541748047 397.2712707519531 140.1281433105469 C 397.316650390625 139.9595031738281 397.3843994140625 140.0841522216797 397.4737548828125 140.1281433105469 C 397.3843994140625 139.9882659912109 397.4365539550781 139.9854583740234 397.3722534179688 139.8754730224609 C 397.2851257324219 139.8915405273438 397.4376525878906 140.0511474609375 397.2208251953125 140.0274505615234 C 397.2594299316406 139.5455322265625 397.2628173828125 139.8613586425781 397.2208251953125 139.2688751220703 C 397.3282165527344 139.2925415039062 397.316650390625 139.1969604492188 397.3211669921875 139.1171417236328 C 397.443603515625 139.1380310058594 397.4317321777344 139.0249328613281 397.5744018554688 139.0666656494141 C 397.5087280273438 138.9403381347656 397.291259765625 139.0816040039062 397.2712707519531 139.1678924560547 C 397.1922912597656 139.1495819091797 397.3155517578125 139.0790863037109 397.2208251953125 139.0666656494141 C 397.2577209472656 139.0195770263672 397.312744140625 138.9899597167969 397.3722534179688 138.9660034179688 C 397.3507995605469 138.8904266357422 397.3073425292969 138.9857177734375 397.2208251953125 138.9660034179688 C 397.2514953613281 138.9208679199219 397.2817077636719 138.8757629394531 397.2208251953125 138.8641967773438 C 397.2577209472656 138.8173828125 397.312744140625 138.7877655029297 397.3722534179688 138.7637939453125 C 397.3437194824219 138.6492919921875 397.29296875 138.82470703125 397.2208251953125 138.7130432128906 C 397.4133911132812 138.6038970947266 397.1759643554688 138.2088165283203 397.3722534179688 138.1569213867188 C 397.3211669921875 138.0898132324219 397.2887268066406 138.0052032470703 397.2208251953125 137.9547119140625 C 397.2312316894531 137.9651641845703 397.4926452636719 137.8258514404297 397.2712707519531 137.8032836914062 C 397.3299560546875 137.6388702392578 397.4029846191406 137.8046875 397.4737548828125 137.6518402099609 C 397.398193359375 137.5429992675781 397.3305053710938 137.7068328857422 397.2712707519531 137.5503082275391 C 397.4666748046875 137.4817962646484 397.3817749023438 137.4248199462891 397.3722534179688 137.1964111328125 C 397.5191345214844 137.2404022216797 397.4289245605469 137.2725524902344 397.4230041503906 137.3986053466797 C 397.4529113769531 137.3120422363281 397.6621398925781 137.4031219482422 397.6759643554688 137.2982177734375 M 397.4737548828125 137.3986053466797 C 397.5405578613281 137.5974273681641 397.5031127929688 137.8605194091797 397.6759643554688 137.7525177001953 C 397.5916137695312 137.7017669677734 397.6209716796875 137.5381927490234 397.5744018554688 137.4496612548828 C 397.8051147460938 137.3743591308594 397.5061950683594 137.4657287597656 397.4737548828125 137.3986053466797 M 397.5744018554688 142.9078674316406 C 397.6861267089844 143.1182556152344 397.2608337402344 143.2392425537109 397.3211669921875 143.4645538330078 C 397.4075012207031 143.2727966308594 397.4049072265625 143.5739898681641 397.4737548828125 143.5652313232422 C 397.4737548828125 143.4986877441406 397.5625610351562 143.5192718505859 397.5744018554688 143.4645538330078 C 397.4703979492188 143.508544921875 397.3832092285156 143.2973327636719 397.4737548828125 143.312255859375 C 397.5400390625 143.3131256103516 397.5191345214844 143.4013824462891 397.5744018554688 143.4138031005859 C 397.6415100097656 143.2959289550781 397.6604309082031 143.1286926269531 397.725830078125 143.0094146728516 C 397.7602844238281 143.0875091552734 397.7354431152344 143.2513580322266 397.8781433105469 143.1100769042969 C 397.7774963378906 143.0584869384766 398.0337829589844 142.8765716552734 397.827392578125 142.8071899414062 C 397.7269897460938 142.9112701416016 397.7269897460938 142.8542938232422 397.827392578125 142.9586334228516 C 397.7241821289062 143.0468902587891 397.7272644042969 142.9208374023438 397.6249084472656 143.0094146728516 C 397.6914672851562 142.8695373535156 397.4252624511719 142.8359832763672 397.5744018554688 142.9078674316406 M 398.2317504882812 139.3703918457031 C 398.0337829589844 139.4524536132812 398.1141662597656 139.9860076904297 398.1302795410156 139.9259338378906 C 398.2343444824219 139.912109375 398.1423645019531 139.7023315429688 398.2816772460938 139.7240142822266 C 398.2749633789062 139.7837982177734 398.1922607421875 139.8385162353516 398.2816772460938 139.8754730224609 C 398.2799987792969 139.8058166503906 398.3059387207031 139.7646331787109 398.3324584960938 139.7240142822266 C 398.2585754394531 139.7237548828125 398.0786437988281 139.5830230712891 398.2317504882812 139.5218353271484 C 398.2368774414062 139.5838623046875 398.2461853027344 139.6411285400391 398.3324584960938 139.6230773925781 C 398.3902587890625 139.4744567871094 398.3623657226562 139.4349670410156 398.2317504882812 139.3703918457031 M 398.0794982910156 139.0164794921875 C 397.9306030273438 139.2443542480469 397.8496398925781 139.4561004638672 397.8781433105469 139.6732788085938 C 397.774658203125 139.6303863525391 397.5992126464844 139.7528076171875 397.725830078125 139.7745056152344 C 397.7662048339844 139.7541961669922 397.9858703613281 139.8303527832031 398.0794982910156 139.8252563476562 C 398.1122131347656 139.5630035400391 397.8386840820312 139.8858947753906 397.827392578125 139.7240142822266 C 398.2221984863281 139.6264495849609 397.8429260253906 139.4349670410156 398.1302795410156 139.4710693359375 C 398.1277465820312 139.4016876220703 398.1542358398438 139.3599548339844 398.1810302734375 139.3196258544922 C 397.8713989257812 139.2787475585938 398.1869506835938 139.1103820800781 398.0794982910156 139.0164794921875 M 397.6759643554688 138.6120758056641 C 397.725830078125 138.6120758056641 397.7362670898438 138.5711822509766 397.7766418457031 138.5613250732422 C 397.6759643554688 138.6766662597656 397.8575439453125 138.8165283203125 397.9281005859375 138.9152526855469 C 398.0899658203125 138.7415313720703 397.6533813476562 138.3935241699219 397.7766418457031 138.4098815917969 C 397.725830078125 138.4096069335938 397.7162780761719 138.4504699707031 397.6759643554688 138.4603424072266 C 397.7120666503906 138.2942504882812 397.5750122070312 138.3833770751953 397.5744018554688 138.4603424072266 C 397.872802734375 138.4146728515625 397.5495910644531 138.7412414550781 397.6759643554688 138.6120758056641 M 397.7766418457031 139.2183990478516 L 397.9281005859375 139.2183990478516 L 397.9281005859375 139.1171417236328 C 397.9255065917969 139.0866851806641 397.9201354980469 139.0581970214844 397.8781433105469 139.0666656494141 C 397.8282165527344 139.23388671875 397.7774963378906 139.0108184814453 397.725830078125 139.0164794921875 C 397.7464294433594 139.1030578613281 397.6508483886719 139.1456451416016 397.725830078125 139.1678924560547 C 397.729248046875 139.1377410888672 397.7335205078125 139.1078338623047 397.7766418457031 139.1171417236328 L 397.7766418457031 139.2183990478516 Z M 397.4737548828125 139.3703918457031 C 397.5414123535156 139.3864593505859 397.5699157714844 139.4417266845703 397.6759643554688 139.4205780029297 C 397.6060485839844 139.3052520751953 397.8059387207031 139.2305145263672 397.6759643554688 139.2183990478516 C 397.621826171875 139.2654876708984 397.6595764160156 139.4048156738281 397.5236511230469 139.3703918457031 C 397.5879516601562 139.3103179931641 397.5450744628906 139.1794586181641 397.4737548828125 139.1171417236328 C 397.443603515625 139.2787475585938 397.5684814453125 139.273681640625 397.4737548828125 139.3703918457031 M 397.9788208007812 140.0274505615234 C 397.8127136230469 139.9899597167969 397.9012756347656 140.1273040771484 397.9788208007812 140.1281433105469 C 397.9486389160156 140.0381622314453 398.1268920898438 139.9180603027344 397.9788208007812 139.8754730224609 C 397.958251953125 139.9611968994141 397.9136962890625 139.86474609375 397.827392578125 139.8754730224609 C 397.7551879882812 140.0153503417969 397.6722717285156 140.2779083251953 397.827392578125 140.2293701171875 C 397.7205200195312 140.2149963378906 397.9004516601562 140.0945892333984 397.7766418457031 140.0274505615234 C 397.8488159179688 140.0150756835938 397.8617858886719 139.9434356689453 397.9281005859375 139.9259338378906 C 397.9281005859375 139.9766998291016 397.9695129394531 139.9860076904297 397.9788208007812 140.0274505615234 M 397.5236511230469 140.2798614501953 C 397.6776428222656 140.2812805175781 397.6499938964844 140.1027679443359 397.6759643554688 139.9766998291016 C 397.5865173339844 139.9414672851562 397.5183410644531 139.9208679199219 397.4737548828125 139.9766998291016 C 397.6571044921875 140.112060546875 397.5887756347656 140.0037689208984 397.5236511230469 140.2798614501953 M 398.1302795410156 140.3303680419922 C 398.1390075683594 140.4566802978516 398.0530090332031 140.4888153076172 397.9788208007812 140.5325469970703 C 398.0160217285156 140.5861358642578 398.0234069824219 140.9177551269531 398.0794982910156 140.7854919433594 C 398.0916442871094 140.7465972900391 398.0811767578125 140.6854095458984 398.1302795410156 140.6839904785156 C 398.1942749023438 140.6958160400391 398.2334899902344 140.7626647949219 398.2317504882812 140.6337738037109 C 398.1998901367188 140.6337738037109 397.9720458984375 140.5077056884766 398.1810302734375 140.5833129882812 C 398.196533203125 140.4654083251953 398.2887878417969 140.3653106689453 398.1302795410156 140.3303680419922 M 397.7766418457031 141.1394195556641 C 397.8440246582031 141.1901702880859 397.8756103515625 141.2759094238281 397.9788208007812 141.2908477783203 C 397.8358459472656 141.1323547363281 397.9720458984375 141.0889434814453 398.0295715332031 140.886474609375 L 397.8781433105469 140.886474609375 C 397.9813232421875 141.0911865234375 397.8550415039062 141.117431640625 397.7766418457031 141.1394195556641 M 398.0794982910156 141.5437927246094 C 398.1172790527344 141.4490509033203 398.1105346679688 141.1549224853516 398.1302795410156 141.0886535644531 C 398.1277465820312 141.1191253662109 398.1226501464844 141.1487274169922 398.0794982910156 141.1394195556641 C 398.0682373046875 141.1002349853516 398.0786437988281 141.0390472412109 398.0295715332031 141.0379028320312 C 398.0456237792969 141.3915405273438 397.9314575195312 141.9200134277344 398.0794982910156 141.5437927246094 M 398.1302795410156 141.7460021972656 C 397.9720458984375 141.7609710693359 398.2585754394531 141.5999298095703 398.0794982910156 141.5940093994141 C 398.0484619140625 141.7206268310547 397.6474304199219 141.9383544921875 397.7766418457031 141.8974609375 C 397.9159240722656 141.7533416748047 397.8919677734375 141.9958648681641 397.9788208007812 142.0488739013672 C 397.9937744140625 141.8841857910156 398.1336669921875 141.8951721191406 397.9281005859375 141.7959136962891 C 397.9980163574219 141.7984619140625 398.0391845703125 141.7728118896484 398.0794982910156 141.7460021972656 C 398.0794982910156 141.7739410400391 398.1206665039062 141.802978515625 398.1302795410156 141.7460021972656 M 397.4737548828125 142.4535675048828 C 397.6285400390625 142.4143524169922 397.9306030273438 142.4854431152344 397.827392578125 142.3018341064453 C 397.8429260253906 142.5322265625 397.4762878417969 142.1797332763672 397.4737548828125 142.4535675048828 M 398.0295715332031 142.3520355224609 C 398.0185546875 142.4129486083984 397.972900390625 142.3833618164062 397.9281005859375 142.3520355224609 C 397.8925170898438 142.5091400146484 397.9212951660156 142.6791687011719 397.7766418457031 142.5043334960938 C 397.761962890625 142.5347900390625 397.6508483886719 142.6980743408203 397.7766418457031 142.7065124511719 C 397.7867736816406 142.6444549560547 397.8327331542969 142.6746520996094 397.8781433105469 142.7065124511719 C 397.8525085449219 142.5474700927734 398.0521850585938 142.5725708007812 397.9281005859375 142.4535675048828 C 398.0107116699219 142.4905090332031 398.1483154296875 142.3528747558594 398.0295715332031 142.3520355224609 M 397.725830078125 143.4138031005859 C 397.7695922851562 143.6566009521484 397.7205200195312 143.7987213134766 397.8781433105469 143.8184661865234 C 397.8663024902344 143.8571014404297 397.8349914550781 143.8765716552734 397.7766418457031 143.868408203125 C 397.7833862304688 144.0748443603516 397.9813232421875 144.0843963623047 398.0295715332031 144.0198364257812 C 397.8781433105469 144.0198364257812 398.2421569824219 143.87939453125 398.0295715332031 143.8184661865234 C 397.8945007324219 143.9064483642578 398.0278930664062 143.5657806396484 397.9281005859375 143.5147399902344 C 397.7740783691406 143.7443084716797 397.8609313964844 143.4394836425781 397.725830078125 143.4138031005859 M 398.0295715332031 143.4138031005859 C 397.93310546875 143.3717651367188 398.181884765625 143.2361297607422 397.9788208007812 143.1608428955078 C 398.0225524902344 143.3227081298828 397.9012756347656 143.3190307617188 397.827392578125 143.3633117675781 C 397.8189697265625 143.3032531738281 397.8358459472656 143.2197723388672 397.7766418457031 143.2116088867188 C 397.7602844238281 143.32861328125 397.7853698730469 143.4056243896484 397.827392578125 143.4645538330078 C 397.9032592773438 143.4555511474609 398.0132446289062 143.4823455810547 398.0295715332031 143.4138031005859 M 398.0794982910156 144.1213531494141 C 397.907470703125 144.1410980224609 397.9960327148438 144.2770080566406 397.8781433105469 144.1213531494141 C 397.8539428710938 144.3331298828125 397.8378295898438 144.1571655273438 397.725830078125 144.3235473632812 C 397.8219909667969 144.3948974609375 398.0865478515625 144.3088836669922 398.0794982910156 144.1213531494141 M 397.5236511230469 144.2727813720703 C 397.6897583007812 144.3627471923828 397.4652709960938 144.4775085449219 397.4230041503906 144.5260314941406 C 397.6026306152344 144.5781860351562 397.7281188964844 144.6763305664062 397.9281005859375 144.5765228271484 C 397.7912902832031 144.6117706298828 397.9641418457031 144.337646484375 397.827392578125 144.3734741210938 C 397.8189697265625 144.4495849609375 397.8451538085938 144.5606994628906 397.7766418457031 144.5765228271484 C 397.8446350097656 144.3221435546875 397.6026306152344 144.3791198730469 397.5744018554688 144.2220306396484 C 397.6361694335938 144.2383880615234 397.8865966796875 144.2144165039062 397.725830078125 144.172119140625 C 397.6105041503906 144.1574554443359 397.5357971191406 144.1836853027344 397.5236511230469 144.2727813720703 M 397.827392578125 145.5869293212891 C 397.7501220703125 145.7451324462891 397.8412170410156 145.8658447265625 397.9788208007812 145.9405517578125 C 397.9751586914062 145.8528442382812 397.9898071289062 145.7837829589844 398.0295715332031 145.7383728027344 C 397.9263610839844 145.7234191894531 397.8945007324219 145.6376953125 397.827392578125 145.5869293212891 M 397.9281005859375 146.3449859619141 C 397.9255065917969 146.3760070800781 397.9201354980469 146.405029296875 397.8781433105469 146.3960418701172 C 397.9390563964844 146.1554718017578 397.6835632324219 146.2005767822266 397.8781433105469 146.092041015625 C 397.4151000976562 145.9061737060547 397.9368286132812 146.6515045166016 397.9281005859375 146.3449859619141 M 398.8377990722656 146.9010925292969 C 398.8832397460938 146.6983184814453 398.4116821289062 146.5508270263672 398.5349426269531 146.5982055664062 C 398.6121826171875 146.7220001220703 398.7379760742188 146.7990112304688 398.8377990722656 146.9010925292969" fill="#2777df" stroke="none" stroke-width="0"/>
</svg>