<svg xmlns="http://www.w3.org/2000/svg" width="4" height="8" viewBox="7.813423633575439 15.7324275970459 4.363770961761472 7.9152145385742205" fill="none">
  <path d="M 7.814901351928711 21.94345092773438 C 7.835585117340088 23.25908088684082 9.146784782409668 23.64764213562012 9.595423698425293 22.29655075073242 C 9.939414024353027 21.26138114929199 9.929071426391602 20.12796211242676 10.25459384918213 19.07604789733887 C 10.63478088378906 17.84585952758789 11.37964057922363 16.88012504577637 12.1599588394165 15.88730812072754 C 12.17719459533691 15.86539363861084 12.1688232421875 15.7324275970459 12.13976764678955 15.7550802230835 C 11.0506706237793 16.59671020507812 10.44591903686523 17.89756774902344 10.05711364746094 19.18660736083984 C 9.90691089630127 19.68276977539062 9.804969787597656 20.20527839660645 9.73750114440918 20.71917152404785 C 9.688254356384277 21.09467887878418 9.641223907470703 21.47043228149414 9.579419136047363 21.84421730041504 C 9.547162055969238 22.38962745666504 9.267193794250488 22.78606796264648 8.740744590759277 23.03353118896484 C 8.172926902770996 22.88726806640625 7.880891799926758 22.52382659912109 7.866364002227783 21.94320487976074 C 7.863409042358398 21.86613273620605 7.813423633575439 21.86588668823242 7.814901351928711 21.94345092773438" fill="#2777df" stroke="none" stroke-width="0"/>
</svg>