<svg xmlns="http://www.w3.org/2000/svg" width="10" height="9" viewBox="478.8338317871094 135.0083618164062 10.083892822265625 9.180389404296903" fill="none">
  <path d="M 482.5332641601562 143.5075378417969 C 483.6517639160156 143.8452758789062 484.8826904296875 144.1887512207031 485.9033203125 143.4553527832031 C 487.9479064941406 141.9861145019531 488.917724609375 139.7383728027344 487.4953002929688 137.4980773925781 C 486.8433227539062 136.4711151123047 485.8066101074219 135.587890625 484.6695556640625 135.2522583007812 C 484.6754760742188 135.2459411621094 484.6810302734375 135.2392578125 484.6869506835938 135.2329406738281 C 484.7718200683594 135.1436767578125 484.6369018554688 135.0083618164062 484.5518188476562 135.0978088378906 C 484.5210571289062 135.1303100585938 484.4921875 135.1645202636719 484.4617919921875 135.1973876953125 C 483.707763671875 135.0215454101562 482.9180297851562 135.0924682617188 482.1725769042969 135.5265197753906 C 482.0424194335938 135.4640197753906 481.8803405761719 135.460205078125 481.7394714355469 135.5693359375 C 479.9684143066406 136.9407348632812 478.8338317871094 139.2953186035156 479.8887329101562 141.4639282226562 C 480.4177856445312 142.5513000488281 481.4049682617188 143.1669311523438 482.5332641601562 143.5075378417969 M 485.7855834960938 139.0586853027344 C 485.7896118164062 139.0168304443359 485.7726135253906 138.9711608886719 485.7240600585938 138.9512786865234 L 485.6105346679688 138.9048156738281 C 485.6151123046875 138.9000549316406 485.6204528808594 138.8970031738281 485.6244506835938 138.890869140625 C 485.7271118164062 138.7370147705078 485.834716796875 138.587158203125 485.9450073242188 138.4392242431641 C 486.0608520507812 138.4793701171875 486.17626953125 138.5208435058594 486.2915344238281 138.5623168945312 C 486.1611633300781 138.7416076660156 486.031005859375 138.9210815429688 485.900634765625 139.1003570556641 C 485.8624267578125 139.0860290527344 485.8236389160156 139.0730285644531 485.7855834960938 139.0586853027344 M 485.312744140625 136.3600616455078 C 485.2186889648438 136.4552459716797 485.1282958984375 136.5534973144531 485.0380859375 136.6517333984375 C 484.9069519042969 136.5726013183594 484.775634765625 136.4936676025391 484.6443481445312 136.4145355224609 C 484.7253723144531 136.3212585449219 484.8081359863281 136.2295227050781 484.891845703125 136.1385345458984 C 485.0352172851562 136.2023773193359 485.1758728027344 136.2763366699219 485.312744140625 136.3600616455078 M 485.7446899414062 136.6641540527344 C 485.66748046875 136.7553253173828 485.5912170410156 136.8470764160156 485.51611328125 136.9395751953125 C 485.4125061035156 136.8772888183594 485.30908203125 136.8147583007812 485.2056884765625 136.7526550292969 C 485.2945861816406 136.6561279296875 485.3826904296875 136.5590362548828 485.4755859375 136.4657592773438 C 485.567138671875 136.528076171875 485.6571655273438 136.5942077636719 485.7446899414062 136.6641540527344 M 486.5224304199219 137.4466552734375 C 486.48876953125 137.4829711914062 486.4557189941406 137.5196838378906 486.4226684570312 137.5563659667969 C 486.4297180175781 137.5213928222656 486.4186401367188 137.4831695556641 486.3790893554688 137.4592895507812 C 486.3375854492188 137.4344329833984 486.296142578125 137.4093933105469 486.254638671875 137.3843688964844 C 486.2896118164062 137.3403930664062 486.3236694335938 137.2958526611328 486.3590087890625 137.2520751953125 C 486.4149780273438 137.3157348632812 486.469482421875 137.3805236816406 486.5224304199219 137.4466552734375 M 486.81201171875 137.8461303710938 C 486.7764282226562 137.8948669433594 486.7410888671875 137.9436187744141 486.7055358886719 137.9925537109375 C 486.5998229980469 137.9544982910156 486.4935607910156 137.9181823730469 486.3859558105469 137.8868408203125 C 486.4689025878906 137.7897491455078 486.553955078125 137.6945648193359 486.640380859375 137.6005249023438 C 486.7001953125 137.6811828613281 486.7575073242188 137.7629852294922 486.81201171875 137.8461303710938 M 486.9627990722656 138.0930786132812 C 486.9383544921875 138.0829467773438 486.9140625 138.0726318359375 486.8895874023438 138.0628814697266 C 486.89990234375 138.0485534667969 486.9102478027344 138.0342102050781 486.9207458496094 138.0200805664062 C 486.9352416992188 138.0443420410156 486.9486694335938 138.0686187744141 486.9627990722656 138.0930786132812 M 487.2686157226562 138.732421875 C 487.2384033203125 138.7203979492188 487.2084045410156 138.7073822021484 487.1781921386719 138.6951599121094 C 487.1954040527344 138.6754760742188 487.2122192382812 138.6552124023438 487.2296142578125 138.6353302001953 C 487.2426147460938 138.6678161621094 487.2565612792969 138.7001190185547 487.2686157226562 138.732421875 M 487.1449584960938 138.4415283203125 C 487.0918273925781 138.5007629394531 487.0415344238281 138.5619201660156 486.98974609375 138.6221313476562 C 486.8580322265625 138.5705261230469 486.7263793945312 138.5193176269531 486.5939025878906 138.4698028564453 C 486.6541137695312 138.3868560791016 486.7142944335938 138.3038940429688 486.7747192382812 138.220947265625 C 486.8666381835938 138.2566833496094 486.9584350585938 138.2924346923828 487.0487976074219 138.3335266113281 C 487.0656127929688 138.3409881591797 487.0816955566406 138.3424987792969 487.09716796875 138.3413696289062 C 487.11376953125 138.3748168945312 487.1292724609375 138.4080810546875 487.1449584960938 138.4415283203125 M 485.7381896972656 138.1433563232422 C 485.8475341796875 138.1884613037109 485.8958740234375 138.020263671875 485.7993774414062 137.9661712646484 C 485.803955078125 137.9600524902344 485.8085327148438 137.9541320800781 485.8129272460938 137.9481964111328 C 485.8912963867188 137.9629211425781 485.9690856933594 137.9785919189453 486.0463256835938 137.9965515136719 C 485.98876953125 138.0680389404297 485.9331665039062 138.1410522460938 485.8773498535156 138.2140655517578 C 485.8066101074219 138.1899871826172 485.7353515625 138.1676177978516 485.6644287109375 138.1441040039062 C 485.6707153320312 138.1358947753906 485.6768188476562 138.127685546875 485.6831359863281 138.1194610595703 C 485.7016906738281 138.1271057128906 485.7196655273438 138.1357116699219 485.7381896972656 138.1433563232422 M 486.2514038085938 138.0481567382812 C 486.3651123046875 138.0791320800781 486.477294921875 138.1146850585938 486.5889282226562 138.1531066894531 C 486.5285339355469 138.2360534667969 486.4683227539062 138.3190002441406 486.4079284667969 138.4021453857422 C 486.2943725585938 138.3606719970703 486.1804809570312 138.3201599121094 486.0663757324219 138.2802124023438 C 486.126953125 138.2020263671875 486.1886901855469 138.1246185302734 486.2514038085938 138.0481567382812 M 486.2825622558594 137.6244201660156 C 486.3068237304688 137.6389465332031 486.330322265625 137.6404724121094 486.3511657714844 137.6349334716797 C 486.29345703125 137.7004852294922 486.2376403808594 137.767578125 486.1814575195312 137.83447265625 C 486.1024780273438 137.8146057128906 486.0235595703125 137.7951049804688 485.9434814453125 137.7788543701172 C 486.0067443847656 137.6972351074219 486.0713500976562 137.6167755126953 486.1351928710938 137.5355529785156 C 486.1845092773438 137.5651702880859 486.2334289550781 137.5947875976562 486.2825622558594 137.6244201660156 M 485.7322692871094 137.7406311035156 C 485.6951904296875 137.7345123291016 485.6590576171875 137.7259216308594 485.6217956542969 137.7205505371094 C 485.5466918945312 137.7098541259766 485.4981079101562 137.7775268554688 485.501953125 137.8341064453125 C 485.3924560546875 137.7866821289062 485.2823486328125 137.7408142089844 485.1741333007812 137.6911315917969 C 485.2997436523438 137.5217895507812 485.4260864257812 137.3528137207031 485.5575866699219 137.1876831054688 C 485.695556640625 137.2708129882812 485.8334045410156 137.3537750244141 485.9713745117188 137.4369201660156 C 485.8916625976562 137.5380249023438 485.81103515625 137.6387634277344 485.7322692871094 137.7406311035156 M 484.9990844726562 137.6070251464844 C 484.8748474121094 137.5485534667969 484.7504272460938 137.4900512695312 484.6277160644531 137.4286956787109 C 484.7698974609375 137.2463684082031 484.91748046875 137.0680236816406 485.0717163085938 136.8950500488281 C 485.1785583496094 136.95947265625 485.2855834960938 137.0238647460938 485.3926391601562 137.0882873535156 C 485.2572937011719 137.2583923339844 485.1278991699219 137.4325256347656 484.9990844726562 137.6070251464844 M 484.9040832519531 136.7941284179688 C 484.7477416992188 136.9707336425781 484.5982666015625 137.1528930664062 484.4539794921875 137.3388671875 C 484.322265625 137.2712097167969 484.1907653808594 137.2025909423828 484.0606079101562 137.1314697265625 C 484.2068176269531 136.9369201660156 484.3589782714844 136.7467346191406 484.5160827636719 136.5603637695312 C 484.6452941894531 136.6381683349609 484.7746887207031 136.7161560058594 484.9040832519531 136.7941284179688 M 484.3383178710938 137.492919921875 C 484.1714477539062 137.716552734375 484.0143432617188 137.9476318359375 483.8646850585938 138.1844482421875 C 483.7345581054688 138.1242370605469 483.5993957519531 138.059814453125 483.4619750976562 138.0065002441406 C 483.6170043945312 137.7616577148438 483.7788696289062 137.52197265625 483.948974609375 137.2886047363281 C 484.0778198242188 137.3589324951172 484.2081604003906 137.4258270263672 484.3383178710938 137.492919921875 M 484.5092163085938 137.5825500488281 C 484.6324768066406 137.6445007324219 484.7578735351562 137.702392578125 484.8826904296875 137.761474609375 C 484.7265014648438 137.9776306152344 484.575927734375 138.1980133056641 484.4295043945312 138.4210662841797 C 484.2999267578125 138.3681335449219 484.1705322265625 138.315185546875 484.0411071777344 138.2620391845703 C 484.1892700195312 138.0296325683594 484.3440551757812 137.8021850585938 484.5092163085938 137.5825500488281 M 485.0581359863281 137.8453674316406 C 485.205322265625 137.9132232666016 485.3545837402344 137.9776306152344 485.5038452148438 138.0416564941406 C 485.4937133789062 138.0548400878906 485.4837951660156 138.0682373046875 485.4736938476562 138.0814208984375 C 485.4122924804688 138.0615539550781 485.3515014648438 138.04052734375 485.2899780273438 138.0210266113281 C 485.1724243164062 137.9839477539062 485.1221923828125 138.1685791015625 485.2391357421875 138.2052917480469 C 485.2767944335938 138.2171325683594 485.3140869140625 138.2303161621094 485.3517150878906 138.2421569824219 C 485.2456665039062 138.3839874267578 485.1412963867188 138.5269470214844 485.0369262695312 138.669921875 C 484.8947143554688 138.6116333007812 484.7523193359375 138.5533447265625 484.6099243164062 138.4950256347656 C 484.7548217773438 138.2754211425781 484.9036865234375 138.0584869384766 485.0581359863281 137.8453674316406 M 485.5426635742188 138.3048553466797 C 485.6134033203125 138.3279724121094 485.6842956542969 138.3507232666016 485.7548217773438 138.3744354248047 C 485.6535034179688 138.5122375488281 485.5545043945312 138.6517639160156 485.4595336914062 138.7943420410156 C 485.4497680664062 138.8088684082031 485.4457397460938 138.8232116699219 485.4446105957031 138.8369750976562 L 485.2181091308594 138.7440795898438 C 485.3255310058594 138.5971069335938 485.433349609375 138.4505004882812 485.5426635742188 138.3048553466797 M 486.478271484375 138.6290283203125 C 486.6055603027344 138.6760406494141 486.7319030761719 138.7257385253906 486.8584594726562 138.774658203125 C 486.7171630859375 138.944580078125 486.5793762207031 139.1171875 486.4476928710938 139.2941741943359 C 486.326904296875 139.2534637451172 486.2066650390625 139.2110290527344 486.0866088867188 139.1678314208984 C 486.2171936035156 138.9881591796875 486.3477172851562 138.8086853027344 486.478271484375 138.6290283203125 M 487.0476684570312 138.8472900390625 C 487.1476440429688 138.8868713378906 487.2466430664062 138.9287261962891 487.3462219238281 138.9696197509766 C 487.3953247070312 139.1389770507812 487.4306945800781 139.3092651367188 487.4484558105469 139.4809112548828 C 487.4201965332031 139.5126342773438 487.3919067382812 139.5443725585938 487.3634033203125 139.5760803222656 C 487.1204833984375 139.5082397460938 486.879638671875 139.4346618652344 486.640380859375 139.3570556640625 C 486.7709045410156 139.1833190917969 486.9073486328125 139.0137634277344 487.0476684570312 138.8472900390625 M 487.2225341796875 139.7341613769531 C 487.0335083007812 139.9461364746094 486.8442993164062 140.1578979492188 486.6552734375 140.369873046875 C 486.4725341796875 140.2903747558594 486.2896118164062 140.2108459472656 486.1067199707031 140.13134765625 C 486.2391357421875 139.9230041503906 486.3771667480469 139.7186889648438 486.5218505859375 139.5193176269531 C 486.7537231445312 139.5953979492188 486.9872436523438 139.6672668457031 487.2225341796875 139.7341613769531 M 487.4284057617188 139.7899780273438 C 487.4400634765625 139.7909240722656 487.4509582519531 139.7905426025391 487.4608764648438 139.7876892089844 C 487.456298828125 140.0720825195312 487.402587890625 140.3585968017578 487.291748046875 140.6466369628906 C 487.1409301757812 140.5810852050781 486.9903259277344 140.5155181884766 486.8395080566406 140.4499664306641 C 487.0357971191406 140.2299652099609 487.2321166992188 140.0099639892578 487.4284057617188 139.7899780273438 M 486.2297973632812 137.1112213134766 C 486.2284545898438 137.1125640869141 486.2269287109375 137.1129455566406 486.2255859375 137.1144714355469 C 486.1801147460938 137.1712341308594 486.1359558105469 137.228759765625 486.0906677246094 137.2855377197266 C 485.9541625976562 137.2033538818359 485.8176879882812 137.1211547851562 485.6810302734375 137.0389709472656 C 485.750244140625 136.9541015625 485.8200073242188 136.8698120117188 485.8907165527344 136.7861022949219 C 486.0086669921875 136.8885498046875 486.1216125488281 136.997314453125 486.2297973632812 137.1112213134766 M 484.7047119140625 136.0613250732422 C 484.6284790039062 136.1452331542969 484.5518188476562 136.228759765625 484.4778442382812 136.3141784667969 C 484.3247375488281 136.2220611572266 484.1714477539062 136.1297607421875 484.0183715820312 136.0374298095703 C 484.0499267578125 135.9942321777344 484.0808715820312 135.9504699707031 484.1133422851562 135.9080352783203 C 484.3136596679688 135.9372863769531 484.5115051269531 135.9890747070312 484.7047119140625 136.0613250732422 M 483.8937377929688 135.8849029541016 C 483.8805541992188 135.9026794433594 483.8673706054688 135.920654296875 483.8541870117188 135.9385986328125 C 483.822265625 135.9193115234375 483.7903442382812 135.9001922607422 483.7584228515625 135.8808898925781 C 483.8037109375 135.8812713623047 483.8488159179688 135.8820495605469 483.8937377929688 135.8849029541016 M 481.85107421875 136.474365234375 C 481.9478149414062 136.5271148681641 482.0678405761719 136.5271148681641 482.1890258789062 136.4342193603516 C 482.6041564941406 136.1159820556641 483.034423828125 135.9485473632812 483.462158203125 135.897705078125 C 483.4680786132812 135.9175720214844 483.4799499511719 135.9363250732422 483.5025024414062 135.9498901367188 C 483.58203125 135.9978637695312 483.6614990234375 136.045654296875 483.7410278320312 136.0936279296875 C 483.6617126464844 136.2079162597656 483.5848999023438 136.3241271972656 483.5109252929688 136.442626953125 C 483.4457397460938 136.5473785400391 483.611083984375 136.6433258056641 483.6760559082031 136.5391540527344 C 483.7494506835938 136.4212341308594 483.8257141113281 136.3055877685547 483.9046325683594 136.1920471191406 C 484.0535278320312 136.2816925048828 484.2022705078125 136.371337890625 484.3511352539062 136.4609832763672 C 484.1930541992188 136.6494445800781 484.0401611328125 136.8415374755859 483.8930053710938 137.0380249023438 C 483.7369995117188 136.9506683349609 483.5816345214844 136.8627624511719 483.4279479980469 136.7708129882812 C 483.322265625 136.7073516845703 483.2261352539062 136.8724975585938 483.3316040039062 136.9357604980469 C 483.4803161621094 137.0248413085938 483.6309204101562 137.1096954345703 483.7819213867188 137.1941833496094 C 483.6049499511719 137.4376831054688 483.4365539550781 137.6878662109375 483.2758178710938 137.9436187744141 C 483.0997924804688 137.8945007324219 482.9220275878906 137.8765258789062 482.7469482421875 137.9290924072266 C 482.62939453125 137.9642639160156 482.679443359375 138.1488952636719 482.7977905273438 138.1133422851562 C 482.91015625 138.0797119140625 483.037841796875 138.082763671875 483.1720275878906 138.1085510253906 C 483.140869140625 138.1597900390625 483.1070556640625 138.2089080810547 483.0764770507812 138.2605285644531 C 483.0137634277344 138.3667907714844 483.1788940429688 138.4629211425781 483.2415771484375 138.3570251464844 C 483.2813720703125 138.2895812988281 483.3253173828125 138.225341796875 483.3662109375 138.1588287353516 C 483.5034790039062 138.2027893066406 483.6433715820312 138.2626190185547 483.7781066894531 138.3253173828125 C 483.7150268554688 138.4285278320312 483.6483459472656 138.5292510986328 483.5883178710938 138.6349487304688 C 483.5275268554688 138.7421722412109 483.6926879882812 138.8385009765625 483.7534790039062 138.7314758300781 C 483.8159790039062 138.6211853027344 483.8853149414062 138.515869140625 483.9514770507812 138.4082641601562 C 484.0887145996094 138.4751586914062 484.2160034179688 138.5388031005859 484.3234252929688 138.582763671875 C 484.1815795898438 138.8037109375 484.043212890625 139.0267639160156 483.9107666015625 139.2542114257812 C 483.8488159179688 139.3608703613281 484.0139770507812 139.4572143554688 484.075927734375 139.3507385253906 C 484.2127685546875 139.1154632568359 484.3553466796875 138.8841857910156 484.5023193359375 138.6561584472656 C 484.6422119140625 138.7135009765625 484.7819519042969 138.7706604003906 484.921875 138.8280029296875 C 484.7370300292969 139.0843048095703 484.5543212890625 139.3419494628906 484.3754272460938 139.6028594970703 C 484.3058471679688 139.7045288085938 484.4713745117188 139.80029296875 484.5405578613281 139.6991882324219 C 484.7230834960938 139.4331359863281 484.9096374511719 139.1701354980469 485.0982666015625 138.9088439941406 C 485.0953979492188 138.9499359130859 485.1126098632812 138.9940795898438 485.1598205566406 139.0137634277344 C 485.3675842285156 139.1009368896484 485.5770874023438 139.1829223632812 485.7872924804688 139.2620544433594 C 485.7412719726562 139.3555297851562 485.8912963867188 139.436767578125 485.9593505859375 139.3432922363281 C 485.9629516601562 139.3383178710938 485.9664306640625 139.3333587646484 485.9702453613281 139.3281860351562 C 486.0904541015625 139.3721618652344 486.2108764648438 139.4161071777344 486.3320617675781 139.4573974609375 C 486.192138671875 139.6519775390625 486.0579833984375 139.8511352539062 485.9293212890625 140.0541076660156 C 485.6820068359375 139.9467010498047 485.4346923828125 139.8390960693359 485.1871643066406 139.7314910888672 C 485.0755004882812 139.6829376220703 484.97802734375 139.8475036621094 485.0908203125 139.8966369628906 C 485.3356628417969 140.0030822753906 485.5806884765625 140.1095581054688 485.8255615234375 140.2162017822266 C 485.8217163085938 140.2225036621094 485.8173217773438 140.2286224365234 485.8132934570312 140.2351379394531 C 485.7492980957031 140.3406372070312 485.9146118164062 140.436767578125 485.9784545898438 140.3316497802734 C 485.9862670898438 140.3186492919922 485.9950866699219 140.3062286376953 486.0031127929688 140.2932434082031 C 486.1760864257812 140.3685455322266 486.3492431640625 140.44384765625 486.522216796875 140.5189666748047 C 486.3607177734375 140.7001647949219 486.19921875 140.8811645507812 486.0376892089844 141.0623474121094 C 485.9558715820312 141.1537170410156 486.0906677246094 141.2894287109375 486.1728515625 141.1974945068359 C 486.3505859375 140.9979553222656 486.5285339355469 140.798583984375 486.7064819335938 140.5992431640625 C 486.8767700195312 140.6732025146484 487.0473022460938 140.7473754882812 487.2175903320312 140.8213348388672 C 487.1929321289062 140.8740844726562 487.1675109863281 140.9270324707031 487.1388244628906 140.9797973632812 C 486.7514038085938 141.6936645507812 485.9239807128906 142.688720703125 485.1552429199219 143.0042877197266 C 484.3817138671875 143.3215637207031 483.2205810546875 142.9524841308594 482.444580078125 142.6774444580078 C 481.4680786132812 142.331298828125 480.7037353515625 141.6793365478516 480.3948364257812 140.6680450439453 C 479.9022827148438 139.0552673339844 480.6885986328125 137.5443420410156 481.85107421875 136.474365234375" fill="#231f20" stroke="#ffffff" stroke-width="1"/>
</svg>