<svg xmlns="http://www.w3.org/2000/svg" width="161" height="94" viewBox="0.05423637852072716 1.155066609382629 160.59331611171368 93.52595603466034" fill="none">
  <path d="M 148.5379028320312 71.32119750976562 C 146.2485961914062 69.91853332519531 143.9863128662109 68.58545684814453 141.7777709960938 67.16766357421875 C 138.8560791015625 65.29275512695312 135.8342895507812 63.55115127563477 133.3698425292969 61.03701782226562 C 132.1853332519531 59.82791137695312 131.2386474609375 58.46053314208984 130.4124755859375 57.00190353393555 C 130.0038299560547 56.27892684936523 129.7757263183594 55.48080444335938 130.5285797119141 54.84181976318359 C 131.2064361572266 54.26641082763672 131.8184814453125 54.28559112548828 132.7640533447266 54.69866943359375 C 135.9838409423828 56.10134506225586 138.1396179199219 58.88665008544922 141.0635070800781 60.68199157714844 C 146.3777160644531 63.94689559936523 151.5165405273438 67.49687194824219 156.7146453857422 70.95018768310547 C 158.0851135253906 71.86118316650391 159.2146301269531 73.04338073730469 160.2098999023438 74.35578155517578 C 160.4538879394531 74.67859649658203 160.3279571533203 74.91728973388672 160.1452026367188 75.18636322021484 C 159.9051666259766 75.54042053222656 159.6772918701172 75.90283203125 159.4394378662109 76.26955413818359 C 159.9030609130859 76.61805725097656 160.1807556152344 75.96186065673828 160.6173248291016 76.19219207763672 C 160.6109313964844 76.27827453613281 160.6475524902344 76.42979431152344 160.5873107910156 76.49988555908203 C 158.9737396240234 78.39533233642578 156.6682891845703 79.30535125732422 154.6146850585938 80.53488159179688 C 150.9700317382812 82.71440124511719 147.2114868164062 84.70354461669922 143.7014923095703 87.10577392578125 C 140.5858917236328 89.23670959472656 137.1209869384766 90.60286712646484 133.5721282958984 91.77975463867188 C 132.1078491210938 92.2650146484375 131.0849304199219 93.39124298095703 129.8208465576172 94.16242980957031 C 129.3927612304688 94.42398834228516 129.0753784179688 94.68102264404297 128.6912994384766 93.96356964111328 C 128.2557373046875 93.14811706542969 127.3336563110352 93.69573974609375 126.6624298095703 93.65255737304688 C 124.713264465332 93.52787017822266 123.0694427490234 91.15269470214844 123.8000411987305 89.30655670166016 C 124.0795593261719 88.60301208496094 124.5476150512695 88.01678466796875 125.0135650634766 87.4283447265625 C 128.2276916503906 83.37269592285156 132.115478515625 80.13692474365234 136.7337341308594 77.78978729248047 C 137.2812347412109 77.51112365722656 137.8061065673828 77.20134735107422 138.3773498535156 76.56764221191406 C 137.0456237792969 76.26425933837891 135.8440093994141 75.95547485351562 134.6283874511719 75.71885681152344 C 126.898063659668 74.21387481689453 119.1634368896484 72.72608947753906 111.4976806640625 70.91893768310547 C 107.8864669799805 70.06696319580078 104.327880859375 68.92217254638672 100.718620300293 68.14348602294922 C 96.82985687255859 67.30428314208984 93.09369659423828 66.08866882324219 89.35544586181641 64.83442687988281 C 84.71369171142578 63.27901077270508 80.09664916992188 61.628662109375 75.67957305908203 59.50509262084961 C 67.40691375732422 55.52703857421875 59.77571105957031 50.64523696899414 53.79226684570312 43.51835632324219 C 51.75491714477539 41.09054565429688 49.90460586547852 38.54209899902344 48.49763107299805 35.68694305419922 C 47.71968460083008 34.1077995300293 47.28729248046875 33.83134841918945 45.67912673950195 34.39064025878906 C 41.79563522338867 35.74179077148438 37.7723274230957 36.00644302368164 33.72872161865234 36.02807998657227 C 26.67059135437012 36.06792831420898 19.78364181518555 35.02114868164062 13.3290843963623 32.03490447998047 C 9.200508117675781 30.12323188781738 5.916165828704834 27.16046905517578 3.33758807182312 23.37302780151367 C 1.88437032699585 21.23962783813477 0.8129962086677551 18.9710750579834 0.09628725051879883 16.51731872558594 C -0.09395789355039597 15.86849308013916 -0.05423637852072716 14.81741142272949 0.6922329664230347 14.97236251831055 C 1.490475535392761 15.13813400268555 2.466419696807861 15.04344177246094 3.145128965377808 15.63188552856445 C 3.565709829330444 15.9965124130249 3.954070568084717 16.47402954101562 4.173461437225342 16.98081970214844 C 4.716650485992432 18.22768020629883 5.354530811309814 19.41637420654297 6.053900241851807 20.58035087585449 C 9.109135627746582 25.6632251739502 13.45058631896973 28.93551826477051 19.32543182373047 30.0803108215332 C 27.94426727294922 31.75943183898926 36.36854553222656 30.96771240234375 44.66566848754883 28.20516204833984 C 45.82866287231445 27.81888771057129 45.45100402832031 27.04978942871094 45.32187652587891 26.42359161376953 C 44.71412658691406 23.4889965057373 44.70981597900391 20.55009651184082 45.20996856689453 17.62091255187988 C 46.09318161010742 12.45945358276367 48.09512329101562 7.803671836853027 52.00664901733398 4.199835777282715 C 58.21045684814453 -1.516618251800537 64.39804840087891 -1.155066609382629 70.68043518066406 3.817993402481079 C 74.83189392089844 7.103318691253662 75.46755981445312 10.75228881835938 73.25704193115234 15.58466339111328 C 71.11085510253906 20.27795028686523 67.64363861083984 23.83001327514648 63.50633239746094 26.82621765136719 C 61.18588256835938 28.50632858276367 58.63103866577148 29.7166690826416 56.04815673828125 30.87941551208496 C 55.20490646362305 31.26027297973633 55.35641098022461 31.52159690856934 55.66840362548828 32.22637176513672 C 56.68394470214844 34.51780700683594 57.70600509643555 36.78635787963867 59.09576797485352 38.89159393310547 C 62.08841323852539 43.42710876464844 66.08589935302734 46.88435363769531 70.58045959472656 49.8201789855957 C 78.89812469482422 55.25157928466797 88.18396759033203 58.36054992675781 97.6710205078125 60.92634582519531 C 110.5972442626953 64.42244720458984 123.7159271240234 67.02685546875 136.9294128417969 69.17181396484375 C 140.0706024169922 69.68167877197266 143.0462799072266 70.81134033203125 146.0991516113281 71.65582275390625 C 146.9188079833984 71.88283538818359 147.7223358154297 72.08599853515625 148.5379028320312 71.32119750976562 M 54.50122833251953 23.32568550109863 C 57.15617752075195 22.0820198059082 60.82124710083008 18.50843811035156 62.81680679321289 15.28656768798828 C 64.03242492675781 13.3232421875 64.95439147949219 11.24923706054688 65.19960784912109 8.927803993225098 C 65.27277374267578 8.232861518859863 65.41788482666016 7.359357357025146 64.81235504150391 6.956976413726807 C 64.33041381835938 6.636375904083252 63.65156936645508 7.149681091308594 63.10185623168945 7.404489040374756 C 58.11145782470703 9.720635414123535 54.02149963378906 17.25198173522949 54.50122833251953 23.32568550109863 M 50.32739639282227 10.30575942993164 C 51.32141876220703 8.890049934387207 52.71229553222656 7.785470962524414 53.43084716796875 6.186771869659424 C 51.88834762573242 7.182761669158936 50.93625640869141 8.625404357910156 50.32739639282227 10.30575942993164 M 64.86178588867188 16.01692581176758 C 63.76347351074219 17.45735168457031 62.6651725769043 18.89777946472168 61.56674194335938 20.33722496032715 C 63.09214782714844 19.24850845336914 64.25723266601562 17.87695121765137 64.86178588867188 16.01692581176758 M 72.34259033203125 15.58244895935059 C 71.74984741210938 16.60758590698242 71.15697479248047 17.63271903991699 70.56434631347656 18.6578540802002 C 71.48629760742188 17.85223197937012 71.95102691650391 16.7850399017334 72.34259033203125 15.58244895935059" fill="#2574db" stroke="none" stroke-width="0"/>
</svg>