<svg xmlns="http://www.w3.org/2000/svg" width="1" height="1" viewBox="85.9378662109375 267.4519958496094 1 1" fill="none">
  <path d="M 86.24581909179688 267.4519958496094 C 86.28754425048828 267.5617370605469 86.43616485595703 267.56396484375 86.44772338867188 267.7046813964844 C 86.31210327148438 267.5953063964844 86.12879180908203 267.6863708496094 86.24581909179688 267.8564147949219 C 86.30475616455078 267.8482360839844 86.28811645507812 267.7636108398438 86.2960205078125 267.7046813964844 C 86.47904205322266 267.8214416503906 86.2469482421875 267.8699645996094 86.2960205078125 268.109375 C 86.24892425537109 268.0724182128906 86.21958923339844 268.0171508789062 86.19506072998047 267.9568176269531 C 86.06477355957031 267.969482421875 86.26471710205078 268.044189453125 86.19506072998047 268.1592712402344 C 86.14598083496094 268.1578369140625 86.15586090087891 268.0975341796875 86.14457702636719 268.05859375 C 86.10115051269531 268.0487365722656 86.09691619873047 268.0777893066406 86.09410095214844 268.109375 C 85.9378662109375 268.1040344238281 86.25005340576172 267.9119567871094 86.09410095214844 267.9068908691406 C 86.13780975341797 267.7576904296875 86.16968536376953 268.0238952636719 86.2960205078125 267.9568176269531 C 86.25118255615234 267.8507690429688 86.14203643798828 267.8076477050781 86.14457702636719 267.6539611816406 C 86.29658508300781 267.7046813964844 86.23370361328125 267.5416870117188 86.24581909179688 267.4519958496094" fill="#2777df" stroke="none" stroke-width="0"/>
</svg>