<svg xmlns="http://www.w3.org/2000/svg" width="5" height="6" viewBox="109.5609970092773 160.8609924316406 4.967361450195398 6.25711059570321" fill="none">
  <path d="M 112.8607177734375 160.8609924316406 C 112.5885467529297 161.0634918212891 112.3219299316406 161.2604217529297 112.0654830932617 161.4285736083984 C 111.5361328125 161.7750244140625 111.0205764770508 162.1400909423828 110.4975204467773 162.4942779541016 C 111.0769500732422 163.1716918945312 111.5312957763672 163.7789459228516 111.7850799560547 164.2695770263672 L 111.7797622680664 164.2703094482422 C 111.3133163452148 164.3201446533203 110.6032409667969 163.9069213867188 110.2834091186523 164.3591003417969 C 110.1307525634766 164.5749053955078 110.5984039306641 164.75634765625 110.7283248901367 164.8250579833984 C 110.386474609375 165.2344055175781 110.024055480957 165.4678649902344 109.5609970092773 165.7274627685547 C 110.4365539550781 167.1181030273438 113.2037811279297 166.4167327880859 113.9922332763672 165.3994140625 C 114.4927978515625 164.7534484863281 114.5283584594727 163.1915283203125 113.9752960205078 162.4393615722656 C 113.6012725830078 161.9303283691406 113.2299041748047 161.4017028808594 112.8607177734375 160.8609924316406" fill="#ff9e6e" stroke="none" stroke-width="0"/>
</svg>