<svg xmlns="http://www.w3.org/2000/svg" width="1" height="1" viewBox="90.00125885009766 272.0427551269531 1 1.23095703125" fill="none">
  <path d="M 90.60474395751953 272.1109924316406 C 90.83544158935547 272.2001342773438 90.54693603515625 272.3109436035156 90.65552520751953 272.4138488769531 C 90.48038482666016 272.5283813476562 90.45669555664062 272.5861511230469 90.3018798828125 272.7675170898438 C 90.28157043457031 272.8667907714844 90.53142547607422 272.8419799804688 90.45330810546875 272.7176208496094 C 90.56301116943359 272.7085571289062 90.47644805908203 272.8966369628906 90.50351715087891 272.969970703125 C 90.45444488525391 272.9685363769531 90.46459197998047 272.908203125 90.45330810546875 272.8693237304688 C 90.37153625488281 272.855224609375 90.36646270751953 272.9172668457031 90.3018798828125 272.9200439453125 C 90.31146240234375 272.9767456054688 90.35263824462891 272.9476928710938 90.35208129882812 272.9200439453125 C 90.51620483398438 272.9939575195312 90.3145751953125 273.1972961425781 90.50351715087891 273.1721496582031 C 90.49420928955078 273.21337890625 90.45330810546875 273.222900390625 90.45330810546875 273.2737121582031 L 90.35208129882812 273.2737121582031 C 90.35686492919922 273.2018127441406 90.36025238037109 273.1304321289062 90.3018798828125 273.1213989257812 C 90.32415771484375 273.048095703125 90.34587097167969 273.1270446777344 90.40283203125 273.1213989257812 C 90.35855865478516 272.9747924804688 90.32726287841797 273.0655822753906 90.20063018798828 273.0711975097656 C 90.29482269287109 273.0201721191406 90.20628356933594 272.8069763183594 90.20063018798828 273.020751953125 C 90.00125885009766 272.947998046875 90.46797943115234 272.7040710449219 90.14987945556641 272.6671142578125 C 90.13916015625 272.5805053710938 90.2364501953125 272.5362243652344 90.14987945556641 272.515380859375 C 90.22517395019531 272.3489685058594 90.22883605957031 272.6657104492188 90.3018798828125 272.6671142578125 C 90.38394927978516 272.68994140625 90.38394927978516 272.3916015625 90.3018798828125 272.4138488769531 C 90.31992340087891 272.3433532714844 90.39042663574219 272.4102172851562 90.40283203125 272.464599609375 C 90.44343566894531 272.4381103515625 90.48461151123047 272.411865234375 90.55455780029297 272.4138488769531 C 90.54185485839844 272.3512573242188 90.45416259765625 272.3633728027344 90.45330810546875 272.4138488769531 C 90.25957489013672 272.3365783691406 90.62532806396484 272.0427551269531 90.45330810546875 272.2624206542969 C 90.45444488525391 272.3120422363281 90.51535034179688 272.3016052246094 90.55455780029297 272.3134460449219 C 90.62279510498047 272.297119140625 90.59629058837891 272.1865844726562 90.60474395751953 272.1109924316406" fill="#2777df" stroke="none" stroke-width="0"/>
</svg>