<svg xmlns="http://www.w3.org/2000/svg" width="2" height="4" viewBox="421.1849975585938 362.8786010742188 1.8705139160155682 4.190612792968693" fill="none">
  <path d="M 421.3874816894531 363.0413513183594 C 421.3197937011719 362.8786010742188 421.4605407714844 363.1860046386719 421.4879455566406 363.2435302734375 C 421.3660583496094 363.2892456054688 421.3567504882812 363.1143798828125 421.3367309570312 363.3949890136719 C 421.3460388183594 363.435546875 421.3874816894531 363.4449157714844 421.3874816894531 363.495361328125 C 421.4453430175781 363.4860534667969 421.4159851074219 363.4449157714844 421.3874816894531 363.4457397460938 C 421.4005126953125 363.3904724121094 421.4879455566406 363.4113159179688 421.4879455566406 363.3439331054688 C 421.5166625976562 363.5411071777344 421.7109985351562 363.4494018554688 421.7921752929688 363.8501586914062 C 421.7239990234375 363.7993774414062 421.6923522949219 363.7131042480469 421.5899963378906 363.6978454589844 C 421.8265686035156 364.0774536132812 421.43994140625 363.9835205078125 421.6404418945312 364.2536926269531 C 421.7746887207031 364.2700500488281 421.5930480957031 363.9708251953125 421.7921752929688 364.051513671875 C 421.6475219726562 364.1298828125 421.890869140625 364.2940368652344 421.943603515625 364.1529846191406 C 422.0392150878906 364.1583862304688 421.9788818359375 364.3199768066406 422.0947570800781 364.304443359375 C 421.8858032226562 364.40087890625 422.2603149414062 364.6400146484375 422.1965942382812 365.011962890625 C 422.4012756347656 364.7486267089844 422.2092590332031 364.9937133789062 422.4486999511719 365.062744140625 L 422.4486999511719 365.2652282714844 C 422.376220703125 365.25341796875 422.4312133789062 365.1140747070312 422.3477478027344 365.113525390625 C 422.2360229492188 365.1196899414062 422.3265991210938 365.3273010253906 422.2972412109375 365.4164123535156 C 422.360107421875 365.5069274902344 422.4444580078125 365.377197265625 422.5502319335938 365.4671325683594 C 422.5234069824219 365.5077514648438 422.4974670410156 365.5486755371094 422.4994812011719 365.6188659667969 C 422.4591064453125 365.5920715332031 422.4173583984375 365.5655517578125 422.3477478027344 365.5681457519531 C 422.3866271972656 365.6129760742188 422.4024353027344 365.6823120117188 422.3978881835938 365.7700500488281 L 422.6001586914062 365.7700500488281 C 422.5062255859375 365.8670959472656 422.5947265625 365.8969421386719 422.6001586914062 366.0229797363281 C 422.7092590332031 365.9471130371094 422.5648803710938 365.8997497558594 422.6506042480469 365.7700500488281 C 422.8232116699219 365.9832153320312 422.7453308105469 366.1437072753906 422.8530578613281 366.2254943847656 C 422.830810546875 366.3004760742188 422.7887573242188 366.2057189941406 422.70166015625 366.2254943847656 C 422.7067260742188 366.3049926757812 423.0028381347656 366.4566955566406 422.752685546875 366.4778747558594 C 422.7679443359375 366.5461120605469 422.8790283203125 366.5193176269531 422.9540405273438 366.5283508300781 C 422.9402465820312 366.6098327636719 423.0019836425781 366.615234375 423.0045471191406 366.6797790527344 C 423.0417785644531 366.8176879882812 422.9047241210938 366.7824096679688 422.9038391113281 366.8820190429688 C 422.9546203613281 367.0249633789062 422.9512329101562 366.7218017578125 423.0555114746094 366.8820190429688 C 422.9504089355469 367.0692138671875 422.7803039550781 366.897216796875 422.70166015625 366.7815856933594 C 422.6810302734375 366.9234619140625 422.6441345214844 366.7731628417969 422.5502319335938 366.9327697753906 C 422.5606689453125 366.5455322265625 422.1827392578125 366.3811340332031 422.2972412109375 366.0229797363281 C 422.4033203125 366.0511779785156 422.2222595214844 366.175537109375 422.3978881835938 366.0740356445312 C 422.3393249511719 365.9744873046875 422.2507019042969 365.7404174804688 422.2464599609375 365.871826171875 C 422.1387634277344 365.942626953125 422.1379089355469 365.4906005859375 421.9941101074219 365.5681457519531 C 421.8443298339844 365.5069274902344 422.1517333984375 365.4070739746094 422.1965942382812 365.5170593261719 C 422.067138671875 365.3450317382812 422.038330078125 365.3923950195312 422.2464599609375 365.2652282714844 C 422.2292785644531 365.1857299804688 422.1576538085938 365.3089294433594 422.1460571289062 365.2142028808594 C 422.0880126953125 365.2235107421875 422.1173400878906 365.2652282714844 422.1460571289062 365.2652282714844 C 422.1122131347656 365.3329467773438 422.0375366210938 365.3588562011719 421.943603515625 365.3656616210938 C 422.1596069335938 365.2004089355469 421.9080810546875 365.2455139160156 421.7921752929688 365.062744140625 C 421.6838989257812 364.8927307128906 421.6227111816406 364.1011352539062 421.4382934570312 364.1025390625 C 421.3421020507812 363.9965209960938 421.4264526367188 363.8887329101562 421.4382934570312 363.7993774414062 C 421.5104370117188 363.81005859375 421.4554748535156 363.949951171875 421.5391845703125 363.9511108398438 C 421.6701049804688 363.8163146972656 421.45458984375 363.6005554199219 421.2360534667969 363.6468200683594 C 421.3012084960938 363.5802612304688 421.3023681640625 363.458740234375 421.1849975585938 363.4457397460938 C 421.2972412109375 363.3549499511719 421.3223571777344 363.1775207519531 421.3874816894531 363.0413513183594" fill="#2777df" stroke="none" stroke-width="0"/>
</svg>