<svg xmlns="http://www.w3.org/2000/svg" width="31" height="24" viewBox="21.3806266784668 4.114837646484375 31.178153991699222 23.722734451293945" fill="none">
  <path d="M 24.65151977539062 18.74750900268555 C 26.31813430786133 20.72187232971191 28.06788635253906 22.60990524291992 29.83841705322266 24.49154853820801 C 31.21407699584961 25.9543342590332 32.62491226196289 27.83757209777832 34.82868194580078 27.83037567138672 C 35.49053192138672 27.82877922058105 36.10122299194336 26.99586868286133 35.65279769897461 26.39397048950195 C 32.39309692382812 22.01120376586914 28.53150177001953 17.32148933410645 22.64437866210938 16.99935531616211 C 22.85620880126953 17.5101318359375 23.06723022460938 18.02090835571289 23.279052734375 18.53168487548828 C 25.52359008789062 16.38706398010254 28.26531982421875 14.81317043304443 30.92471313476562 13.24886798858643 C 31.97983551025391 12.62858104705811 31.05580902099609 11.13781642913818 29.98149108886719 11.6350040435791 C 27.69939041137695 12.69252777099609 25.41488265991211 13.74605369567871 23.13197708129883 14.80198001861572 C 23.45491027832031 15.35432147979736 23.77783966064453 15.90746212005615 24.1015739440918 16.46060371398926 C 28.08626556396484 13.60856819152832 32.13651275634766 10.94198036193848 36.40976715087891 8.536773681640625 L 35.24513244628906 7.026824474334717 C 31.33317565917969 10.45917892456055 25.92086791992188 12.20493125915527 23.19272613525391 16.89544296264648 C 22.69873809814453 17.74513816833496 23.69950485229492 18.8034610748291 24.56279373168945 18.26630592346191 C 32.84392547607422 13.11218166351318 41.90201568603516 9.292146682739258 51.30142593383789 6.71428394317627 C 52.55878067016602 6.369769096374512 52.19828414916992 4.666381359100342 51.00966644287109 4.55527400970459 C 46.30556106567383 4.114837646484375 41.44799041748047 4.879005432128906 37.05403518676758 6.590385913848877 C 32.78397369384766 8.253008842468262 28.32527160644531 10.77252101898193 25.67066955566406 14.61013889312744 C 25.06637191772461 15.48461437225342 26.32293319702148 16.21600723266602 27.02794647216797 15.65727138519287 C 30.52584838867188 12.88756656646729 33.8422966003418 10.13704776763916 38.07479095458984 8.534375190734863 C 42.23134231567383 6.95967960357666 46.58773422241211 6.388953685760498 51.00966644287109 6.753451347351074 C 50.91214752197266 6.034047603607178 50.81462478637695 5.313843727111816 50.71710586547852 4.594440937042236 C 41.15863037109375 7.331371784210205 32.07016754150391 11.42078304290771 23.55162811279297 16.53574180603027 C 24.00885009765625 16.99296379089355 24.46527481079102 17.4501838684082 24.92249298095703 17.9066047668457 C 27.5834846496582 13.49426364898682 32.89667892456055 11.7269287109375 36.60480880737305 8.386497497558594 C 37.42492294311523 7.646310329437256 36.37139892578125 6.336196899414062 35.44017028808594 6.876548767089844 C 31.23246383666992 9.319323539733887 27.06951141357422 11.94115161895752 23.13197708129883 14.80198001861572 C 22.13280487060547 15.52698040008545 22.97210693359375 16.99216270446777 24.1015739440918 16.46060371398926 C 26.37568664550781 15.39029216766357 28.64980316162109 14.31758117675781 30.92471313476562 13.24886798858643 C 30.61057662963867 12.71091270446777 30.29643630981445 12.17295837402344 29.98149108886719 11.6350040435791 C 27.17582702636719 13.32959938049316 24.45647811889648 15.06895923614502 22.00970840454102 17.26233863830566 C 21.3806266784668 17.82507133483887 21.92737579345703 18.73232078552246 22.64437866210938 18.79467010498047 C 27.74175262451172 19.23590278625488 31.12454986572266 23.61147689819336 34.00376129150391 27.35796928405762 C 34.27873611450195 26.87916564941406 34.5537109375 26.40036582946777 34.82868194580078 25.92076301574707 C 33.89984893798828 25.93914604187012 33.21561050415039 25.32285690307617 32.57455062866211 24.71776008605957 C 31.77841186523438 23.9671802520752 31.00944519042969 23.18542861938477 30.22849273681641 22.41966438293457 C 28.66898727416992 20.89053344726562 27.08629989624023 19.39577102661133 25.44606018066406 17.95296478271484 C 24.89850997924805 17.47096633911133 24.18630218505859 18.19596290588379 24.65151977539062 18.74750900268555" fill="#2473d8" stroke="none" stroke-width="0"/>
</svg>