<svg xmlns="http://www.w3.org/2000/svg" width="19" height="11" viewBox="0.00821553636342287 69.11199951171875 19.448083291761577 10.859451293945312" fill="none">
  <path d="M 18.95613098144531 69.11199951171875 C 18.97389793395996 69.11712646484375 18.9773120880127 69.13604736328125 18.99670791625977 69.13923645019531 C 19.18553924560547 70.53050231933594 19.18251419067383 72.1048583984375 19.25303649902344 73.66028594970703 C 19.27886962890625 74.23035430908203 19.30617904663086 74.82834625244141 19.33403015136719 75.41478729248047 C 19.34737586975098 75.69314575195312 19.36258125305176 76.01634979248047 19.36118507385254 76.30557250976562 C 19.35947799682617 76.61784362792969 19.28802299499512 76.93499755859375 19.33403015136719 77.1962890625 C 19.34753036499023 77.27200317382812 19.41518020629883 77.31785583496094 19.41518020629883 77.41211700439453 C 19.41518020629883 77.50700378417969 19.31750679016113 77.673095703125 19.25303649902344 77.74943542480469 C 19.22859764099121 77.77853393554688 19.16094589233398 77.79172515869141 19.15861892700195 77.8170166015625 C 19.15605926513672 77.84400939941406 19.23496055603027 77.89490509033203 19.25303649902344 77.95207977294922 C 19.26475143432617 77.98854827880859 19.25862121582031 78.05239868164062 19.26653480529785 78.07326507568359 C 19.2971019744873 78.15434265136719 19.361572265625 78.21051025390625 19.37452697753906 78.26240539550781 C 19.43915367126465 78.52121734619141 19.456298828125 79.05668640136719 19.37452697753906 79.28779602050781 C 19.1403865814209 79.949951171875 18.24657440185547 79.66584777832031 17.37711906433105 79.66584777832031 C 16.89735794067383 79.66584777832031 16.42294692993164 79.69471740722656 16.0275936126709 79.7332763671875 C 15.93045997619629 79.74281311035156 15.85419845581055 79.75149536132812 15.78468418121338 79.74700164794922 C 15.71121501922607 79.7421875 15.65985584259033 79.69308471679688 15.56877613067627 79.69277191162109 C 15.48118591308594 79.69246673583984 15.37296104431152 79.73544311523438 15.27187252044678 79.74700164794922 C 14.97737407684326 79.78005981445312 14.6509895324707 79.78672790527344 14.31358814239502 79.80084228515625 C 13.18252944946289 79.8486328125 11.84324264526367 79.81310272216797 10.66982650756836 79.80084228515625 C 10.02147960662842 79.79417419433594 9.420302391052246 79.83040618896484 8.861406326293945 79.78742218017578 C 8.54045295715332 79.76268005371094 8.235480308532715 79.82807922363281 7.984117031097412 79.85507202148438 C 7.624062061309814 79.89324951171875 7.449503898620605 79.7822265625 7.390309810638428 79.50393676757812 C 7.334839344024658 79.51130676269531 7.302952766418457 79.54250335693359 7.241818904876709 79.54435729980469 C 7.190925598144531 79.59820556640625 7.307297229766846 79.65336608886719 7.255318164825439 79.70626831054688 C 7.077346801757812 79.92047119140625 6.771831035614014 79.81209564208984 6.53994083404541 79.78742218017578 C 6.4106125831604 79.77361297607422 6.272905826568604 79.76624298095703 6.135198593139648 79.74700164794922 C 6.013784408569336 79.73008728027344 5.887171745300293 79.68253326416016 5.770722389221191 79.67927551269531 C 5.607724189758301 79.67524719238281 5.435958385467529 79.74607086181641 5.271486759185791 79.74700164794922 C 4.793120384216309 79.74964141845703 4.261843681335449 79.68284606933594 3.760047435760498 79.62551116943359 C 3.227917432785034 79.56460571289062 2.688727378845215 79.68609619140625 2.207955837249756 79.66584777832031 C 2.135805368423462 79.66297912597656 2.073895454406738 79.64443969726562 2.005468845367432 79.65235900878906 C 1.785215377807617 79.67811584472656 1.462322115898132 79.92427825927734 1.344165802001953 79.61201477050781 C 1.139118194580078 79.70372009277344 0.7570303678512573 79.97145080566406 0.6289436221122742 79.63900756835938 C -0.1007862091064453 79.86686706542969 0.1373108327388763 78.80361938476562 0.06205696240067482 78.24867248535156 C 0.05266962572932243 78.17869567871094 0.01403413433581591 78.11748504638672 0.008215536363422871 78.07326507568359 C -0.02483410015702248 77.824462890625 0.04444600641727448 77.52236175537109 0.06205696240067482 77.25020599365234 C 0.1260615438222885 76.25654602050781 0.07043574750423431 75.16885375976562 0.1162087246775627 74.13259887695312 C 0.1453792899847031 73.46818542480469 0.1773428022861481 72.82240295410156 0.2509674727916718 72.17568969726562 C 0.2873530983924866 71.8572998046875 0.3112481236457825 71.53378295898438 0.3320399522781372 71.21763610839844 C 0.3598915934562683 70.79629516601562 0.3719167113304138 70.42018127441406 0.3993805050849915 69.97579193115234 C 0.4962019324302673 70.01939392089844 0.4554717838764191 70.13227844238281 0.4670313894748688 70.21885681152344 C 0.5058220028877258 70.51319885253906 0.5549309849739075 70.88411712646484 0.5614478588104248 71.20413208007812 C 1.041133165359497 70.54104614257812 1.398472785949707 69.75584411621094 2.072964429855347 69.28764343261719 C 1.792585730552673 69.6875 1.490872025489807 70.09635162353516 1.20932936668396 70.51576232910156 C 1.009247183799744 70.81327819824219 0.7713828682899475 71.14836120605469 0.6289436221122742 71.51454162597656 C 0.5834808945655823 71.63160705566406 0.5183126330375671 71.79351806640625 0.6018677353858948 71.91920471191406 C 0.9900845289230347 71.81113433837891 1.17038357257843 71.35929870605469 1.371241450309753 71.02841186523438 C 1.438892483711243 70.91716003417969 1.533464193344116 70.79955291748047 1.573573708534241 70.69117736816406 C 1.626639246940613 70.54780578613281 1.607554316520691 70.3955078125 1.803136706352234 70.39426422119141 C 1.76465630531311 70.32917785644531 1.609804153442383 70.38046264648438 1.573573708534241 70.31343078613281 C 1.67985999584198 70.26687622070312 1.763725399971008 70.29131317138672 1.883976459503174 70.24577331542969 C 1.953877091407776 70.21947479248047 2.032079219818115 70.14088439941406 2.100040435791016 70.13801574707031 C 2.150235414505005 70.13576507568359 2.193991422653198 70.18037414550781 2.248530864715576 70.19193267822266 C 2.394694089889526 70.22265625 2.598345041275024 70.19441223144531 2.70734691619873 70.29962158203125 C 2.602224111557007 70.49170684814453 2.354662179946899 70.37626647949219 2.153959274291992 70.42118835449219 C 2.076688289642334 70.43849182128906 1.900113463401794 70.64431762695312 1.883976459503174 70.74531555175781 C 1.870787620544434 70.82771301269531 1.925947904586792 70.95440673828125 1.937973022460938 71.06914520263672 C 1.972263932228088 71.39204406738281 1.918577551841736 71.84162902832031 1.978548049926758 72.14877319335938 C 1.859615802764893 72.67011260986328 1.949998140335083 73.55671691894531 1.924551248550415 74.24066925048828 C 1.917181253433228 74.43717956542969 1.871097922325134 74.73346710205078 1.924551248550415 74.86140441894531 C 1.951239466667175 74.92587280273438 2.076688289642334 74.95697784423828 2.086463451385498 75.05023193359375 C 2.102290153503418 75.20127868652344 1.926878929138184 75.31222534179688 1.911052227020264 75.46870422363281 C 1.872727155685425 75.84481811523438 1.932542204856873 76.29564666748047 1.762561678886414 76.54824829101562 C 1.764811396598816 76.28951263427734 1.668610692024231 76.12954711914062 1.627647638320923 75.91410064697266 C 1.299711585044861 76.45018005371094 1.015065670013428 77.02894592285156 0.8312756419181824 77.70902252197266 C 0.9675860404968262 77.54710388183594 1.038107395172119 77.34764099121094 1.16875422000885 77.14213562011719 C 1.258050322532654 77.001708984375 1.420971155166626 76.70023345947266 1.613993525505066 76.69673919677734 C 1.978548049926758 76.69061279296875 1.720124840736389 77.11932373046875 1.627647638320923 77.27712249755859 C 1.405377268791199 77.65548706054688 1.166349411010742 78.08063507080078 1.033762812614441 78.49165344238281 C 1.192339062690735 78.41633605957031 1.261774301528931 78.13478088378906 1.506233096122742 78.10057067871094 C 1.557514309883118 78.23261260986328 1.56108295917511 78.36148071289062 1.519577026367188 78.50508117675781 C 1.580323219299316 78.53176879882812 1.665740370750427 78.40283203125 1.721986532211304 78.42431640625 C 1.7880859375 78.43843841552734 1.625553011894226 78.49647521972656 1.681644439697266 78.5458984375 C 1.800886750221252 78.50741577148438 2.017804384231567 78.56707000732422 2.018967866897583 78.41089630126953 C 2.033087730407715 78.5458984375 2.183440208435059 78.48979187011719 2.302372455596924 78.47824096679688 C 2.343878269195557 78.45706176757812 2.242557287216187 78.46768951416016 2.261797428131104 78.42431640625 C 2.468629121780396 78.38498687744141 2.668711185455322 78.28102874755859 2.923178195953369 78.26240539550781 C 3.081909418106079 78.25053405761719 3.25871729850769 78.25697326660156 3.435990571975708 78.24867248535156 C 3.596195936203003 78.24130249023438 3.756478786468506 78.20088195800781 3.90846061706543 78.19475555419922 C 4.12266206741333 78.18645477294922 4.342993259429932 78.20693969726562 4.569608211517334 78.19475555419922 C 5.228894233703613 78.15976715087891 5.959943294525146 78.17039489746094 6.621090412139893 78.19475555419922 C 6.797743320465088 78.20120239257812 6.989834785461426 78.25341033935547 7.17440128326416 78.27583312988281 C 7.266567230224609 78.28707885742188 7.372310638427734 78.28871154785156 7.471303939819336 78.30282592773438 C 7.561221122741699 78.31570434570312 7.654008388519287 78.36024475097656 7.727632999420166 78.35666656494141 C 7.869219303131104 78.34991455078125 8.019415855407715 78.186767578125 8.173027992248535 78.24867248535156 C 8.249289512634277 78.27978515625 8.255728721618652 78.37435913085938 8.294519424438477 78.46473693847656 C 8.458371162414551 78.45256042480469 8.597862243652344 78.48684692382812 8.753334999084473 78.45131683349609 C 8.868621826171875 78.42494201660156 8.964201927185059 78.34193420410156 9.077238082885742 78.32981872558594 C 9.154819488525391 78.32176208496094 9.222159385681152 78.35449981689453 9.306800842285156 78.35666656494141 C 9.428603172302246 78.35992431640625 9.561965942382812 78.32431793212891 9.698121070861816 78.31632232666016 C 10.91669082641602 78.24479675292969 12.24348640441895 78.23843383789062 13.50379467010498 78.18133544921875 C 14.00822830200195 78.15829467773438 14.5253849029541 78.20212554931641 14.96146965026855 78.14091491699219 C 15.04595565795898 78.12873840332031 15.12159729003906 78.07388305664062 15.20437717437744 78.07326507568359 C 15.26442432403564 78.07295227050781 15.31624889373779 78.10856628417969 15.37986469268799 78.11392211914062 C 15.61323070526123 78.133544921875 15.91742610931396 78.07675170898438 16.20300483703613 78.05976867675781 C 16.62698554992676 78.03509521484375 17.04848480224609 77.97186279296875 17.40411758422852 78.0462646484375 C 17.4848804473877 77.8170166015625 17.42514228820801 77.52398681640625 17.44477081298828 77.29054260253906 C 17.48875999450684 76.76306915283203 17.43391036987305 76.17950439453125 17.45811462402344 75.60361480712891 C 17.49419021606445 74.74882507324219 17.43181419372559 73.90715026855469 17.60652732849121 73.22838592529297 C 17.6577320098877 73.66765594482422 17.66471290588379 74.15113830566406 17.67402267456055 74.63214874267578 C 17.77131080627441 74.57442474365234 17.78325843811035 74.46859741210938 17.84959030151367 74.38908386230469 C 17.97829627990723 74.23454284667969 18.155029296875 74.11428833007812 18.3219051361084 73.99760437011719 C 18.49398231506348 73.87735748291016 18.69196701049805 73.80458068847656 18.86171531677246 73.6737060546875 C 18.83929443359375 73.48937225341797 18.84503555297852 73.27641296386719 18.82121849060059 73.09339904785156 C 18.65472793579102 73.23063659667969 18.48529052734375 73.33133697509766 18.33540534973145 73.47145080566406 C 18.10816955566406 73.68341064453125 18.00428581237793 73.99435424804688 17.74159622192383 74.17301940917969 C 17.76572418212891 73.65896606445312 18.14377784729004 73.28579711914062 18.48381614685059 73.09339904785156 C 18.59545707702637 73.03024291992188 18.72051811218262 72.99525451660156 18.83471870422363 72.93148803710938 C 18.91788482666016 71.70082092285156 18.7998046875 70.26951599121094 18.95613098144531 69.11199951171875 M 1.600649476051331 71.12306213378906 C 1.339510798454285 71.50112152099609 0.9783698320388794 72.13627624511719 0.7908558249473572 72.6614990234375 C 0.6762681603431702 72.98245239257812 0.5226572155952454 73.38774108886719 0.7908558249473572 73.57913208007812 C 0.9772836565971375 73.28385925292969 1.179382920265198 72.92147827148438 1.398162245750427 72.62107849121094 C 1.480243325233459 72.50851440429688 1.596848011016846 72.42805480957031 1.627647638320923 72.32410430908203 C 1.64719820022583 72.25839233398438 1.636259198188782 72.12347412109375 1.641069412231445 72.01377868652344 C 1.655034065246582 71.69895172119141 1.705694556236267 71.26185607910156 1.627647638320923 71.0826416015625 C 1.602123498916626 71.08233642578125 1.611278057098389 71.10762786865234 1.600649476051331 71.12306213378906 M 0.5614478588104248 72.08111572265625 C 0.5580342411994934 72.24046325683594 0.4972105026245117 72.48384094238281 0.5614478588104248 72.62107849121094 C 0.6443046927452087 72.43379974365234 0.7187827229499817 72.23853302001953 0.7908558249473572 72.04069519042969 C 0.7162225246429443 72.05606079101562 0.6411238312721252 72.07118988037109 0.5614478588104248 72.08111572265625 M 0.9932653903961182 73.79527282714844 C 0.7687451243400574 74.23834228515625 0.5167610049247742 74.72446441650391 0.5344495177268982 75.34713745117188 C 0.7084644436836243 75.32890319824219 0.7762704491615295 75.15861511230469 0.8447747826576233 75.02330780029297 C 0.990627646446228 74.7357177734375 1.118326425552368 74.47822570800781 1.30366837978363 74.19993591308594 C 1.385982036590576 74.07643127441406 1.548670053482056 73.92321014404297 1.573573708534241 73.82218933105469 C 1.595839381217957 73.73212432861328 1.567134380340576 73.5640869140625 1.573573708534241 73.41753387451172 C 1.584124684333801 73.17897033691406 1.633543968200684 72.88268280029297 1.573573708534241 72.78298950195312 C 1.374577522277832 73.106201171875 1.178219199180603 73.43032836914062 0.9932653903961182 73.79527282714844 M 0.5208728313446045 74.06486511230469 C 0.6069880723953247 73.9713134765625 0.6529937982559204 73.83724975585938 0.7097833156585693 73.71412658691406 C 0.6367793083190918 73.69744873046875 0.5970576405525208 73.6470947265625 0.5208728313446045 73.63328552246094 L 0.5208728313446045 74.06486511230469 Z M 18.86171531677246 73.83561706542969 C 18.84806060791016 73.83561706542969 18.84550094604492 73.82475280761719 18.83471870422363 73.82218933105469 C 18.81175422668457 73.82218933105469 18.8051586151123 73.85362243652344 18.79437446594238 73.86260986328125 C 18.63347053527832 73.99403381347656 18.44231224060059 74.12483978271484 18.26790809631348 74.26759338378906 C 18.10056495666504 74.40412902832031 17.89210319519043 74.55743408203125 17.86293411254883 74.79405212402344 C 18.24595260620117 74.94184875488281 18.60104179382324 74.63377380371094 18.87521362304688 74.49716186523438 C 18.86381149291992 74.28326416015625 18.85752487182617 74.06486511230469 18.86171531677246 73.83561706542969 M 1.533153653144836 74.44300079345703 C 1.158979058265686 75.15318298339844 0.801794707775116 75.95219421386719 0.6018677353858948 76.79131317138672 C 0.7336007952690125 76.68487548828125 0.7860457301139832 76.51589965820312 0.8584290742874146 76.37291717529297 C 1.014367461204529 76.06344604492188 1.161849617958069 75.80595397949219 1.344165802001953 75.50904846191406 C 1.420660853385925 75.38468933105469 1.577297449111938 75.20608520507812 1.600649476051331 75.09095764160156 C 1.647043108940125 74.86170959472656 1.554954051971436 74.66961669921875 1.573573708534241 74.44300079345703 L 1.533153653144836 74.44300079345703 Z M 18.84821701049805 74.73989868164062 C 18.5673713684082 74.93029022216797 18.19366264343262 75.1063232421875 17.93042945861816 75.33371734619141 C 17.83857154846191 75.41323852539062 17.72794151306152 75.53115844726562 17.72794151306152 75.67134857177734 C 17.93966293334961 75.65396881103516 18.1496753692627 75.59089660644531 18.37590217590332 75.48212432861328 C 18.49087715148926 75.42704772949219 18.85946655273438 75.2740478515625 18.90213394165039 75.15830230712891 C 18.94185638427734 75.05023193359375 18.88499069213867 74.88894653320312 18.88863563537598 74.73989868164062 L 18.86171531677246 74.73989868164062 L 18.84821701049805 74.73989868164062 Z M 17.71459770202637 75.21214294433594 C 17.79109382629395 75.13137817382812 17.90071678161621 75.08358764648438 17.97100448608398 74.99639129638672 C 17.84237480163574 74.98102569580078 17.7516040802002 74.92781066894531 17.7011775970459 74.83447265625 C 17.68480682373047 74.92935943603516 17.6654109954834 75.13844299316406 17.71459770202637 75.21214294433594 M 17.94408416748047 76.52133178710938 C 18.16821670532227 76.4241943359375 18.46969795227051 76.22442626953125 18.71306991577148 76.075927734375 C 18.88770484924316 75.96949005126953 19.0279712677002 75.86785888671875 18.90213394165039 75.61711120605469 C 18.5720272064209 75.89865875244141 18.15215682983398 76.16259765625 17.94408416748047 76.52133178710938 M 17.7011775970459 75.88710021972656 C 17.7011775970459 75.99485778808594 17.69621276855469 76.10805511474609 17.71459770202637 76.19750213623047 C 17.89225959777832 76.07826232910156 18.00995063781738 75.89897155761719 18.17349243164062 75.76560974121094 C 18.00459671020508 75.79478454589844 17.86836433410645 75.85630035400391 17.7011775970459 75.88710021972656 M 18.91555786132812 76.31900024414062 C 18.65635681152344 76.53831481933594 18.3342399597168 76.79263305664062 18.09234237670898 77.03414154052734 C 18.01840591430664 77.108154296875 17.89854431152344 77.20939636230469 17.91693115234375 77.29054260253906 C 18.26728820800781 77.08758544921875 18.60662841796875 76.87339782714844 18.94271087646484 76.65632629394531 C 18.93898582458496 76.54701232910156 18.98033905029297 76.41814422607422 18.94271087646484 76.31900024414062 L 18.91555786132812 76.31900024414062 Z M 18.90213394165039 77.16905212402344 C 18.59235382080078 77.47138977050781 18.18854331970215 77.75129699707031 17.95750427246094 78.08706665039062 C 18.1152286529541 77.99598693847656 18.2525463104248 77.86131286621094 18.44331932067871 77.72251892089844 C 18.61772155761719 77.59552001953125 18.96590805053711 77.47340393066406 18.94271087646484 77.18278503417969 C 18.92533302307129 77.18185424804688 18.92393684387207 77.16517639160156 18.90213394165039 77.16905212402344 M 0.453609824180603 78.58622741699219 C 0.4728499948978424 78.53813171386719 0.501322329044342 78.49934387207031 0.5075288414955139 78.43782043457031 C 0.4763411283493042 78.42408752441406 0.4638505578041077 78.39134979248047 0.4130347967147827 78.3970947265625 C 0.4003114402294159 78.44681549072266 0.4174569249153137 78.54457092285156 0.453609824180603 78.58622741699219 M 16.39199256896973 78.57289123535156 C 16.08143424987793 78.79306030273438 15.72479248046875 78.9669189453125 15.47428226470947 79.24745178222656 C 15.92976188659668 79.15094757080078 16.34435653686523 78.95016479492188 16.7428150177002 78.80213928222656 C 16.8554630279541 78.76040649414062 17.10124015808105 78.73410034179688 17.09371566772461 78.57289123535156 C 16.90177917480469 78.56124877929688 16.62527847290039 78.58049011230469 16.39199256896973 78.57289123535156 M 14.70490837097168 78.775146484375 C 14.78962802886963 78.96817016601562 14.61902523040771 79.05412292480469 14.39458274841309 79.01820373535156 C 14.29403781890869 79.09773254394531 14.19333744049072 79.17693328857422 14.12467765808105 79.28779602050781 C 14.64641189575195 79.19772338867188 15.04820537567139 78.871337890625 15.46086025238037 78.62665557861328 C 15.17644786834717 78.59042358398438 14.81972885131836 78.59717559814453 14.70490837097168 78.775146484375 M 1.533153653144836 78.66706848144531 C 1.321201682090759 78.99958038330078 0.9944291114807129 79.21696472167969 0.8584290742874146 79.62551116943359 C 1.199398994445801 79.5927734375 1.453632950782776 79.35716247558594 1.641069412231445 79.12620544433594 C 1.45844292640686 79.03899383544922 1.517171859741211 78.78025817871094 1.708565235137939 78.74814605712891 C 1.62904417514801 78.74209594726562 1.580943822860718 78.70492553710938 1.533153653144836 78.66706848144531 M 8.321440696716309 79.1531982421875 C 8.251850128173828 79.19741821289062 8.185983657836914 79.25514221191406 8.119109153747559 79.30160522460938 C 8.050836563110352 79.34877777099609 7.934154510498047 79.39137268066406 7.957041263580322 79.45001983642578 C 8.468301773071289 79.34040832519531 8.901670455932617 79.15288543701172 9.239150047302246 78.86971282958984 C 8.792125701904297 78.8289794921875 8.564502716064453 78.99765014648438 8.321440696716309 79.1531982421875 M 9.779115676879883 79.08546447753906 C 9.668484687805176 79.14862060546875 9.548543930053711 79.21185302734375 9.495633125305176 79.30160522460938 C 9.768642425537109 79.22822570800781 10.03715038299561 79.11952209472656 10.26485157012939 79.01820373535156 C 10.34057140350342 78.98422241210938 10.44988441467285 78.95412445068359 10.48083877563477 78.86971282958984 C 10.14367008209229 78.84310150146484 9.966629028320312 78.97840881347656 9.779115676879883 79.08546447753906 M 7.592641830444336 78.89663696289062 C 7.52786111831665 78.98027038574219 7.33514928817749 79.00757598876953 7.33646821975708 79.11246490478516 C 7.501250743865967 79.03899383544922 7.701875686645508 79.00121307373047 7.83570384979248 78.89663696289062 C 7.772164821624756 78.86521911621094 7.661223888397217 78.88957214355469 7.592641830444336 78.89663696289062 M 5.946288585662842 78.93705749511719 C 5.851562023162842 78.97452545166016 5.760170936584473 79.08103942871094 5.676305294036865 79.13938903808594 C 5.584449291229248 79.20378112792969 5.436191558837891 79.25187683105469 5.446897983551025 79.32852935791016 C 5.891982078552246 79.25607299804688 6.231865406036377 79.07879638671875 6.58051586151123 78.91014099121094 C 6.356926441192627 78.91781616210938 6.128604412078857 78.86490631103516 5.946288585662842 78.93705749511719 M 11.03407096862793 79.16669464111328 C 11.17356204986572 79.14807891845703 11.31685447692871 79.09485626220703 11.45254421234131 79.05854797363281 C 11.58908653259277 79.02200317382812 11.74300956726074 79.00726318359375 11.83036518096924 78.91014099121094 C 11.43842506408691 78.86909484863281 11.23865222930908 79.0201416015625 11.03407096862793 79.16669464111328 M 12.4377498626709 78.93705749511719 C 12.23627090454102 79.0865478515625 12.02493953704834 79.22589111328125 11.88444042205811 79.43621826171875 C 12.2324686050415 79.3709716796875 12.45978260040283 79.18422698974609 12.64023780822754 78.95055389404297 C 12.58996391296387 78.92868041992188 12.50741767883301 78.93930053710938 12.4377498626709 78.93705749511719 M 4.137712955474854 79.27438354492188 C 4.437875270843506 79.21929931640625 4.679929256439209 79.10610961914062 4.907086849212646 78.97740173339844 C 4.535317420959473 78.90756988525391 4.295358657836914 79.08546447753906 4.137712955474854 79.27438354492188 M 12.74807548522949 79.35545349121094 C 13.09129428863525 79.2894287109375 13.36290740966797 79.15156555175781 13.61186504364014 78.9912109375 C 13.17050457000732 78.88639068603516 12.91689109802246 79.10959625244141 12.74807548522949 79.35545349121094 M 2.936599731445312 79.16669464111328 C 3.062979459762573 79.19361877441406 3.161663055419922 79.10152435302734 3.287577390670776 79.08546447753906 C 3.193161010742188 78.98670959472656 2.975234985351562 79.0784912109375 2.936599731445312 79.16669464111328 M 1.762561678886414 79.45001983642578 C 2.023932933807373 79.37857055664062 2.24310040473938 79.26467895507812 2.42394232749939 79.11246490478516 C 2.045190334320068 79.06692504882812 1.878468036651611 79.23302459716797 1.762561678886414 79.45001983642578 M 3.355072975158691 79.39595031738281 C 3.428309917449951 79.41262817382812 3.515588998794556 79.41549682617188 3.598057985305786 79.42279052734375 C 3.616056680679321 79.3824462890625 3.611712217330933 79.31983947753906 3.611401796340942 79.26126861572266 C 3.516985416412354 79.296875 3.401854515075684 79.31224060058594 3.355072975158691 79.39595031738281 M 13.51737213134766 79.40937042236328 C 13.54770469665527 79.43598175048828 13.61892414093018 79.42124176025391 13.65244007110596 79.40937042236328 L 13.65244007110596 79.34202575683594 C 13.58944511413574 79.34652709960938 13.54499053955078 79.369873046875 13.51737213134766 79.40937042236328 M 6.297266483306885 79.46351623535156 C 6.340867042541504 79.50393676757812 6.491684913635254 79.49850463867188 6.553595542907715 79.47702026367188 C 6.554681777954102 79.293701171875 6.357857227325439 79.38214111328125 6.297266483306885 79.46351623535156" fill="#ff4d16" stroke="none" stroke-width="0"/>
</svg>