<svg xmlns="http://www.w3.org/2000/svg" width="57" height="1" viewBox="421.2623596191406 1417.192504882812 56.579803466796875 1.1851806640629547" fill="none">
  <path d="M 477.3976440429688 1417.313720703125 C 475.5426635742188 1417.218505859375 473.678466796875 1417.378540039062 471.8241577148438 1417.439819335938 C 470.0038452148438 1417.500122070312 468.1819458007812 1417.52880859375 466.3609008789062 1417.5517578125 C 462.722412109375 1417.597045898438 459.0795288085938 1417.605102539062 455.44189453125 1417.5048828125 C 451.775146484375 1417.403686523438 448.109130859375 1417.24609375 444.4408569335938 1417.218994140625 C 440.8348388671875 1417.192504882812 437.2291259765625 1417.369384765625 433.6283569335938 1417.546020507812 C 431.6227722167969 1417.644287109375 429.6161804199219 1417.731201171875 427.6077575683594 1417.711303710938 C 425.5660400390625 1417.691040039062 423.5459594726562 1417.500854492188 421.5118713378906 1417.357543945312 C 421.30810546875 1417.343139648438 421.2623596191406 1417.673217773438 421.4634094238281 1417.715454101562 C 423.2219543457031 1418.08447265625 425.05126953125 1418.15234375 426.8431701660156 1418.189819335938 C 428.6294250488281 1418.22705078125 430.4183959960938 1418.192993164062 432.2039489746094 1418.139038085938 C 433.99365234375 1418.084716796875 435.7824096679688 1418.00439453125 437.572021484375 1417.948364257812 C 439.4193725585938 1417.890380859375 441.260009765625 1417.9169921875 443.1074829101562 1417.934448242188 C 450.4147338867188 1418.003295898438 457.7137451171875 1418.377685546875 465.0228881835938 1418.309326171875 C 467.067138671875 1418.290161132812 469.111328125 1418.25244140625 471.1552124023438 1418.207763671875 C 473.2315673828125 1418.161987304688 475.3321533203125 1418.231201171875 477.3976440429688 1417.98974609375 C 477.8216552734375 1417.940185546875 477.8421630859375 1417.336669921875 477.3976440429688 1417.313720703125" fill="#2e79d9" stroke="none" stroke-width="0"/>
</svg>