<svg xmlns="http://www.w3.org/2000/svg" width="33" height="14" viewBox="26.70201110839844 18.51426124572754 32.79521560668945 14.099512100219734" fill="none">
  <path d="M 27.37425231933594 20.07137298583984 C 31.91528701782227 20.68765830993652 36.22211456298828 21.86508369445801 40.25957107543945 24.07444953918457 C 42.19556427001953 25.13357353210449 43.91494369506836 26.44848442077637 45.65349960327148 27.79696846008301 C 47.41203689575195 29.16063690185547 49.24971771240234 30.47714233398438 51.44070053100586 31.02548980712891 C 52.83074569702148 31.37320327758789 53.46382522583008 29.59067535400391 52.3751220703125 28.81052780151367 C 51.52303314208984 28.19983291625977 50.66534042358398 27.59873008728027 49.8044548034668 27.00162315368652 C 49.63739395141602 27.62031364440918 49.46953582763672 28.23820495605469 49.30247497558594 28.85688781738281 C 51.37516021728516 28.97678756713867 53.31034851074219 29.6578254699707 55.0640983581543 30.75131607055664 C 56.09764099121094 31.39558410644531 57.24788665771484 29.91041564941406 56.36621475219727 29.06391906738281 C 55.24954605102539 27.9928035736084 53.97220230102539 27.42767143249512 52.43507766723633 27.28938865661621 C 51.71407699584961 27.22463798522949 51.22488021850586 28.32452774047852 51.81398773193359 28.78814697265625 C 53.00980377197266 29.7281608581543 54.11528396606445 30.87441253662109 55.38703155517578 31.70652770996094 C 56.45095062255859 32.40115356445312 57.68112564086914 32.61377334594727 58.67869186401367 31.71772003173828 C 59.49722671508789 30.98232269287109 58.40852355957031 29.5251350402832 57.48688888549805 30.1725959777832 C 56.82024383544922 30.64101028442383 55.97693634033203 29.85366439819336 55.44618225097656 29.45558929443359 C 54.63085556030273 28.84489822387695 53.8363151550293 28.20143508911133 53.05536270141602 27.54677391052246 C 52.77080154418945 28.03596878051758 52.48623275756836 28.52436447143555 52.2016716003418 29.01355743408203 C 53.25440216064453 29.26215744018555 54.12407684326172 29.77852249145508 54.84667587280273 30.58345794677734 C 55.28072357177734 30.02072143554688 55.71475982666016 29.45878982543945 56.14879989624023 28.89605712890625 C 54.02655410766602 27.69225120544434 51.7276611328125 27.04958534240723 49.30247497558594 26.8657398223877 C 48.43599319458008 26.80019187927246 47.99555206298828 27.99679946899414 48.59825897216797 28.56512832641602 C 49.36322402954102 29.28693389892578 50.13058471679688 30.00393676757812 50.90594863891602 30.71374893188477 C 51.29921340942383 30.03830718994141 51.69248962402344 29.36286544799805 52.08496475219727 28.68822860717773 C 49.96912384033203 27.99839973449707 48.22336578369141 26.68828582763672 46.48880767822266 25.33420944213867 C 44.67590713500977 23.91858100891113 42.82144165039062 22.56770515441895 40.74237060546875 21.56533241271973 C 36.68013763427734 19.60695648193359 32.03838729858398 18.51426124572754 27.52212524414062 18.9810733795166 C 26.95939636230469 19.03942489624023 26.70201110839844 19.98024368286133 27.37425231933594 20.07137298583984" fill="#2473d8" stroke="none" stroke-width="0"/>
</svg>