<svg xmlns="http://www.w3.org/2000/svg" width="3" height="1" viewBox="40.42050552368164 76.5728530883789 2.772899627685547 1.3452835083007812" fill="none">
  <path d="M 40.66350173950195 77.70072937011719 L 40.71385955810547 77.73189544677734 L 40.56278991699219 77.58161926269531 C 40.64511871337891 77.72231292724609 40.76581954956055 77.83260345458984 40.93048095703125 77.86618041992188 C 41.02560424804688 77.88536071777344 41.12471771240234 77.89096832275391 41.22063827514648 77.90055084228516 C 41.34453582763672 77.91413879394531 41.46443176269531 77.91813659667969 41.58993530273438 77.91573333740234 C 41.70823287963867 77.91335296630859 41.82334136962891 77.89974975585938 41.94004821777344 77.88455963134766 L 42.03276824951172 77.87258148193359 C 42.19182968139648 77.851806640625 42.19343185424805 77.85418701171875 42.31493377685547 77.80303192138672 C 42.39326477050781 77.770263671875 42.46919631958008 77.73269653320312 42.54753875732422 77.69992065429688 C 42.50117874145508 77.71910095214844 42.4548225402832 77.73829650878906 42.40845108032227 77.75827789306641 C 42.48998641967773 77.73189544677734 42.57311630249023 77.70711517333984 42.65385055541992 77.67835235595703 C 42.76736450195312 77.63837432861328 42.85848617553711 77.58322143554688 42.95759582519531 77.51766204833984 C 43.10787200927734 77.41696166992188 43.19340515136719 77.26028442382812 43.16862106323242 77.07643890380859 C 43.14464950561523 76.89659118652344 43.02154541015625 76.76709747314453 42.85128784179688 76.70874786376953 C 42.73538208007812 76.66878509521484 42.63946533203125 76.64000701904297 42.51236724853516 76.63121032714844 C 42.42683792114258 76.62482452392578 42.34050750732422 76.62081146240234 42.25418090820312 76.61602020263672 C 42.30534362792969 76.62322235107422 42.3572998046875 76.63040924072266 42.40845108032227 76.63681030273438 C 42.24538803100586 76.61282348632812 42.08792114257812 76.57285308837891 41.92165756225586 76.59445190429688 C 41.75379943847656 76.61602020263672 41.5859375 76.63360595703125 41.42127227783203 76.67356872558594 C 41.30617141723633 76.70154571533203 41.19746017456055 76.7335205078125 41.08634948730469 76.77589416503906 C 41.01281356811523 76.80386352539062 40.93927383422852 76.83103179931641 40.86653518676758 76.86220550537109 C 40.68588256835938 76.93816375732422 40.57477188110352 77.06603240966797 40.52042007446289 77.25789642333984 L 40.62832641601562 77.07322692871094 L 40.5883674621582 77.11560821533203 C 40.42050552368164 77.29386901855469 40.45647048950195 77.57122802734375 40.66350173950195 77.70072937011719" fill="#2473d8" stroke="none" stroke-width="0"/>
</svg>