<svg xmlns="http://www.w3.org/2000/svg" width="1" height="2" viewBox="377.8838195800781 56.52192687988281 1.099822998046875 2.0344009399414062" fill="none">
  <path d="M 378.1051940917969 57.13331985473633 C 377.965576171875 57.04899215698242 378.3778686523438 57.12062454223633 378.3578491210938 57.23484039306641 C 378.4390563964844 57.15869522094727 378.31494140625 56.98188018798828 378.56005859375 56.98188018798828 C 378.4646911621094 56.89361190795898 378.6480407714844 56.80619430541992 378.4088745117188 56.83044815063477 C 378.4689636230469 56.52192687988281 378.7487182617188 57.04560852050781 378.7117919921875 56.67900085449219 C 378.8149719238281 56.76727676391602 378.8107299804688 56.64093780517578 378.9136962890625 56.72977447509766 C 378.7591247558594 57.09722137451172 378.983642578125 57.57268524169922 378.4587707519531 57.58847427368164 C 378.4811096191406 57.65079879760742 378.5239868164062 57.69225311279297 378.6102905273438 57.69028091430664 C 378.5662841796875 57.76331329345703 378.5704956054688 57.88542938232422 378.4088745117188 57.84171295166016 C 378.424072265625 57.90995788574219 378.5351867675781 57.88345336914062 378.6102905273438 57.891357421875 C 378.6186828613281 58.06929397583008 378.4328308105469 58.05068588256836 378.3578491210938 58.14459228515625 C 378.380126953125 58.2196044921875 378.4226989746094 58.12485504150391 378.5095520019531 58.14459228515625 C 378.4523010253906 58.2069206237793 378.4653015136719 58.24836730957031 378.56005859375 58.24526596069336 C 378.20556640625 58.4015007019043 378.6015319824219 58.42067337036133 378.3070983886719 58.54899597167969 C 378.3287963867188 58.44351577758789 378.27294921875 58.4150390625 378.2563171386719 58.34678649902344 C 378.1886291503906 58.35723114013672 378.1623840332031 58.55632781982422 378.1559448242188 58.34678649902344 C 378.0453796386719 58.33776092529297 377.99462890625 58.38824462890625 378.0042114257812 58.49822616577148 C 378.0533142089844 58.49681854248047 378.0428161621094 58.43674850463867 378.0541381835938 58.39754867553711 C 378.1136474609375 58.40572738647461 378.0972595214844 58.48920059204102 378.1051940917969 58.54899597167969 L 377.9534606933594 58.54899597167969 C 377.8838195800781 58.43365478515625 378.0843200683594 58.35919952392578 377.9534606933594 58.34678649902344 C 378.1099853515625 58.28784942626953 377.9269104003906 58.20099639892578 378.1051940917969 58.19534683227539 C 377.9164733886719 58.05548477172852 378.0825805664062 57.87217330932617 378.2064208984375 57.69028091430664 C 378.0453796386719 57.81380081176758 378.1747741699219 57.31380462646484 378.1051940917969 57.18407821655273 C 378.2221984863281 57.21848678588867 378.2408142089844 57.35187530517578 378.3578491210938 57.38628005981445 C 378.3615112304688 57.21424865722656 378.208984375 57.19790267944336 378.1051940917969 57.13331985473633" fill="#2777df" stroke="none" stroke-width="0"/>
</svg>