<svg xmlns="http://www.w3.org/2000/svg" width="25" height="25" viewBox="0.06948661804199219 0.02806098759174347 25.23420906066895 24.988248750567436" fill="none">
  <path d="M 2.210460662841797 5.794983386993408 C 3.019725799560547 4.515227317810059 4.064308166503906 3.476746797561646 5.251670837402344 2.625894784927368 C 6.500770568847656 1.647449254989624 7.942607879638672 0.9060218930244446 9.51090145111084 0.4681768119335175 C 10.79363822937012 0.05602061748504639 12.06019496917725 -0.06121115013957024 13.31894779205322 0.02806098759174347 C 14.8882360458374 0.092637799680233 16.381591796875 0.4535584151744843 17.7462215423584 1.055755138397217 C 18.85523986816406 1.505380153656006 19.90280342102051 2.104596614837646 20.84250259399414 2.835236787796021 C 20.85357284545898 2.832114458084106 20.86549377441406 2.832256317138672 20.87642288208008 2.841055631637573 C 23.02221870422363 4.557522296905518 24.94419479370117 6.662300109863281 25.20477294921875 9.528518676757812 C 25.30369567871094 10.6161060333252 25.24635696411133 11.7925386428833 25.06710433959961 12.9661340713501 C 24.95299339294434 15.06934833526611 24.30680084228516 17.03262710571289 23.26164817810059 18.72524833679199 C 22.43024063110352 20.50402069091797 21.30405044555664 22.32338333129883 19.55252456665039 23.13903999328613 C 16.96775054931641 24.34258079528809 13.71449756622314 25.01630973815918 10.87666702270508 24.59648513793945 C 9.760270118713379 24.43128395080566 8.50691032409668 24.11464309692383 7.479213714599609 23.6406078338623 C 6.573863983154297 23.22291946411133 5.819093704223633 22.54932975769043 5.103643417358398 21.84523010253906 C 4.285430908203125 21.18413543701172 3.553371429443359 20.42099189758301 2.927616119384766 19.57411575317383 C 1.490034103393555 17.85211372375488 0.3601531982421875 15.79786014556885 0.06948661804199219 13.59728336334229 C -0.2874622344970703 10.89414024353027 0.7758541107177734 8.063403129577637 2.210460662841797 5.794983386993408 M 21.52729988098145 20.52715492248535 C 20.25194358825684 21.68655395507812 18.6964225769043 22.49369430541992 16.98094940185547 23.30338668823242 C 16.14670181274414 23.69724082946777 15.28108978271484 23.99074172973633 14.4018497467041 24.17169952392578 C 14.6957836151123 24.13522148132324 14.98928642272949 24.09080123901367 15.2823657989502 24.03729629516602 C 17.71627426147461 23.52508163452148 19.87895965576172 22.27200508117676 21.52729988098145 20.52715492248535 M 24.72605323791504 8.356769561767578 C 24.71583366394043 8.319725036621094 24.70433807373047 8.283247947692871 24.69369316101074 8.246491432189941 C 24.7051887512207 8.282965660095215 24.7149829864502 8.320150375366211 24.72605323791504 8.356769561767578 M 24.6563663482666 8.12954044342041 C 24.51926422119141 7.685453414916992 24.3448371887207 7.25541353225708 24.13506889343262 6.840844631195068 C 24.33617973327637 7.255555152893066 24.51089096069336 7.685312271118164 24.6563663482666 8.12954044342041 M 8.290044784545898 23.40969276428223 C 5.680004119873047 22.11503410339355 3.614398956298828 19.74442672729492 2.056320190429688 17.34259605407715 C 1.926601409912109 17.14262008666992 1.795038223266602 16.94307136535645 1.664745330810547 16.74281120300293 C 2.875244140625 19.76372909545898 5.278209686279297 22.18117332458496 8.290044784545898 23.40969276428223 M 1.578166961669922 16.01188850402832 C 3.038459777832031 18.45487594604492 4.849451065063477 20.82974243164062 7.216510772705078 22.46843338012695 C 9.581723213195801 24.10584831237793 12.89188957214355 24.67170715332031 15.6160364151001 23.65849113464355 C 18.31449508666992 22.65478706359863 21.24089050292969 21.20826148986816 22.8120231628418 18.71162223815918 C 22.9201717376709 18.53974914550781 23.02207565307617 18.36319160461426 23.12057304382324 18.18436050415039 C 24.04253196716309 16.09789657592773 24.42105102539062 14.03384971618652 24.6624698638916 11.70014572143555 C 24.69610595703125 11.37527275085449 24.7068920135498 11.05593872070312 24.70504760742188 10.74015045166016 C 24.2855110168457 7.510598182678223 22.5789794921875 4.681139945983887 20.11640167236328 2.784001588821411 C 18.83111190795898 1.954863548278809 17.40644836425781 1.319313764572144 15.99767875671387 0.87380450963974 C 13.49862766265869 0.0832706019282341 10.57450485229492 0.7067562937736511 8.212837219238281 1.629140615463257 C 7.575727462768555 1.877939224243164 6.911224365234375 2.153135299682617 6.271417617797852 2.47587776184082 C 5.593570709228516 2.917554616928101 4.951639175415039 3.41387414932251 4.363348007202148 3.971504688262939 C 3.837224960327148 4.470236778259277 3.34998893737793 5.025171279907227 2.907747268676758 5.6202712059021 C 2.588266372680664 6.20671272277832 2.320590972900391 6.823955535888672 2.080448150634766 7.421894073486328 C 1.586544036865234 8.651552200317383 1.105691909790039 9.904484748840332 0.8611545562744141 11.16181468963623 C 0.8260974884033203 11.53465747833252 0.8062286376953125 11.91189956665039 0.8062286376953125 12.29382514953613 C 0.8062286376953125 13.28802394866943 0.9298477172851562 14.25355339050293 1.158920288085938 15.17806720733643 C 1.274162292480469 15.45681190490723 1.412683486938477 15.73484420776367 1.578166961669922 16.01188850402832 M 20.50911521911621 22.14937782287598 C 20.97690582275391 21.73907089233398 21.38608169555664 21.23394966125488 21.74955749511719 20.69562149047852 C 20.78019523620605 21.7265796661377 19.63569641113281 22.58963775634766 18.36331939697266 23.23824501037598 C 19.14902877807617 22.98887825012207 19.91600227355957 22.66968727111816 20.50911521911621 22.14937782287598 M 0.9829273223876953 15.59348773956299 C 0.9369449615478516 15.50378894805908 0.8919544219970703 15.41366672515869 0.8500862121582031 15.32226467132568 C 0.9342460632324219 15.58028793334961 1.027921676635742 15.83561515808105 1.131528854370117 16.08767890930176 C 1.07844352722168 15.92446327209473 1.029340744018555 15.75954246520996 0.9829273223876953 15.59348773956299" fill="#2777df" stroke="none" stroke-width="0"/>
</svg>