<svg xmlns="http://www.w3.org/2000/svg" width="1" height="1" viewBox="359.1898193359375 230.3500213623047 1 1.0888214111328125" fill="none">
  <path d="M 359.8209838867188 230.3500213623047 C 359.71240234375 230.5353088378906 359.6314392089844 230.6624755859375 359.7704772949219 230.85595703125 L 359.6187438964844 230.85595703125 C 359.6771240234375 231.0192108154297 359.75244140625 231.2214202880859 359.6187438964844 231.3108062744141 C 359.470703125 231.2679595947266 359.6841735839844 231.1836395263672 359.6187438964844 231.0584259033203 C 359.5146789550781 231.1582336425781 359.5713806152344 231.1582336425781 359.4673156738281 231.0584259033203 C 359.4120483398438 231.0702819824219 359.4326171875 231.1582336425781 359.3658142089844 231.1590881347656 C 359.388916015625 231.2042083740234 359.4103698730469 231.2496185302734 359.4673156738281 231.2597961425781 C 359.4526672363281 231.4388427734375 359.33056640625 231.08154296875 359.31591796875 231.2597961425781 C 359.1898193359375 231.0790100097656 359.2151794433594 230.9912872314453 359.31591796875 230.8054656982422 C 359.3130493164062 230.9800262451172 359.4690551757812 230.8277435302734 359.4673156738281 230.6029815673828 C 359.7597351074219 230.5832366943359 359.5899963378906 230.3793487548828 359.8209838867188 230.3500213623047 M 359.2650756835938 231.1083374023438 C 359.4867553710938 231.0945281982422 359.5160827636719 230.8883666992188 359.6187438964844 230.7546997070312 L 359.51806640625 230.7546997070312 C 359.4340515136719 230.9304046630859 359.3914794921875 230.9225158691406 359.2650756835938 231.1083374023438" fill="#2777df" stroke="none" stroke-width="0"/>
</svg>