<svg xmlns="http://www.w3.org/2000/svg" width="2" height="3" viewBox="682.8837890625 282.518798828125 2.04571533203125 3.483337402343807" fill="none">
  <path d="M 684.9295043945312 283.096923828125 C 684.8246459960938 282.8546142578125 684.6051025390625 282.7134399414062 684.3740844726562 282.6902465820312 C 684.3031005859375 282.68359375 684.2310791015625 282.6870727539062 684.16064453125 282.7019653320312 C 684.0261840820312 282.7314453125 683.8980712890625 282.802490234375 683.7965698242188 282.9181518554688 L 683.7294311523438 282.9949951171875 C 683.4335327148438 283.3306274414062 683.218017578125 283.7219848632812 683.0880126953125 284.1422729492188 C 683.039794921875 284.298095703125 683.0029907226562 284.4600219726562 682.9789428710938 284.6226806640625 C 682.9664306640625 284.7078247070312 682.957763671875 284.7941284179688 682.9527587890625 284.8790893554688 L 682.9528198242188 284.8828735351562 C 682.947998046875 284.9716186523438 682.9469604492188 285.0589599609375 682.948486328125 285.1474609375 L 682.969970703125 286.0021362304688 C 682.9517822265625 285.989990234375 682.933837890625 285.9779052734375 682.9143676757812 285.9671630859375 L 682.8893432617188 284.9961547851562 C 682.8837890625 284.8192749023438 682.8948974609375 284.6443481445312 682.9198608398438 284.4713745117188 C 682.92626953125 284.4307250976562 682.9324951171875 284.3900146484375 682.9401245117188 284.3492431640625 C 682.960693359375 284.2373657226562 682.986328125 284.1277465820312 683.0197143554688 284.0191040039062 C 683.0220336914062 284.0101318359375 683.024169921875 284.0000610351562 683.0276489257812 283.9910888671875 C 683.04833984375 283.92333984375 683.0728149414062 283.85546875 683.099853515625 283.7888793945312 C 683.13134765625 283.7018432617188 683.169189453125 283.6158447265625 683.2095336914062 283.5324096679688 C 683.3309326171875 283.284423828125 683.4856567382812 283.0531616210938 683.67041015625 282.8436889648438 L 683.7374267578125 282.7669677734375 C 683.8926391601562 282.5900268554688 684.108154296875 282.518798828125 684.3150024414062 282.5389404296875 C 684.3226928710938 282.5399780273438 684.3289794921875 282.5410766601562 684.3365478515625 282.5421142578125 L 684.337890625 282.5421142578125 C 684.3836669921875 282.5469360351562 684.4281616210938 282.5582275390625 684.4717407226562 282.5746459960938 C 684.6444091796875 282.6337890625 684.7952270507812 282.76318359375 684.87451171875 282.954345703125 C 684.8909301757812 282.9931030273438 684.9059448242188 283.0305786132812 684.9198608398438 283.0693969726562 C 684.9227294921875 283.078125 684.9267578125 283.088134765625 684.9295043945312 283.096923828125" fill="#a21822" stroke="none" stroke-width="0"/>
</svg>