<svg xmlns="http://www.w3.org/2000/svg" width="21" height="4" viewBox="1933.310302734375 201.9332885742188 20.712158203125 3.672546386718693" fill="none">
  <path d="M 1953.338623046875 203.6222534179688 C 1952.883544921875 203.1746978759766 1952.265625 202.9566040039062 1951.648681640625 202.8472137451172 C 1950.23291015625 202.5962677001953 1948.78173828125 202.5055541992188 1947.35107421875 202.3820037841797 C 1944.41650390625 202.1286315917969 1941.479248046875 201.9609375 1938.533203125 201.9513397216797 C 1936.881103515625 201.9459838867188 1935.2060546875 201.9332885742188 1933.5615234375 202.1064300537109 C 1933.322021484375 202.1316375732422 1933.310302734375 202.4855346679688 1933.5615234375 202.488525390625 C 1934.970703125 202.5053253173828 1936.381103515625 202.4344482421875 1937.790771484375 202.4340972900391 C 1939.188720703125 202.4337768554688 1940.5869140625 202.4643249511719 1941.9833984375 202.5257263183594 C 1943.38037109375 202.5871124267578 1944.775634765625 202.6793670654297 1946.16845703125 202.8023529052734 C 1947.57177734375 202.92626953125 1948.9677734375 203.1221160888672 1950.36181640625 203.3218994140625 C 1951.0341796875 203.4182891845703 1951.7685546875 203.4847717285156 1952.37890625 203.8066864013672 C 1952.831787109375 204.0453948974609 1953.30078125 204.5418701171875 1953.20166015625 205.0987091064453 C 1953.16650390625 205.2966003417969 1953.255126953125 205.5001983642578 1953.4619140625 205.5570068359375 C 1953.6396484375 205.6058349609375 1953.8876953125 205.4965057373047 1953.920166015625 205.2967681884766 C 1954.0224609375 204.6671600341797 1953.791015625 204.0669403076172 1953.338623046875 203.6222534179688" fill="#2e79d9" stroke="none" stroke-width="0"/>
</svg>