<svg xmlns="http://www.w3.org/2000/svg" width="1" height="1" viewBox="303.0017395019531 261.5971374511719 1 1" fill="none">
  <path d="M 303.2482604980469 261.748291015625 C 303.1405029296875 261.6253662109375 303.3193359375 261.8047180175781 303.348876953125 261.8492736816406 C 303.4123840332031 261.8368835449219 303.3994140625 261.748291015625 303.348876953125 261.748291015625 C 303.3825073242188 261.5971374511719 303.4572143554688 261.7967834472656 303.5508422851562 261.748291015625 C 303.5606994628906 261.7909240722656 303.5310668945312 261.795654296875 303.5003967285156 261.7987976074219 C 303.6842041015625 261.8865051269531 303.4030456542969 261.9460144042969 303.5508422851562 262.1527099609375 C 303.3985290527344 262.0263977050781 303.3221435546875 262.2240600585938 303.3994140625 262.3546447753906 C 303.35400390625 262.3236083984375 303.3094482421875 262.293701171875 303.2981262207031 262.3546447753906 C 303.2601013183594 262.2750854492188 303.1376647949219 262.2793273925781 303.1464233398438 262.1527099609375 C 303.0827026367188 262.1656494140625 303.095703125 262.2530822753906 303.1464233398438 262.2539367675781 C 303.0900573730469 262.4160766601562 303.0017395019531 262.2054443359375 303.0457458496094 262.1025085449219 C 303.27392578125 262.0920715332031 303.1585998535156 261.9750671386719 303.3994140625 262.0517578125 C 303.3875732421875 261.77197265625 303.0855407714844 262.0649719238281 303.2482604980469 261.748291015625" fill="#2777df" stroke="none" stroke-width="0"/>
</svg>