<svg xmlns="http://www.w3.org/2000/svg" width="1" height="1" viewBox="131.3088684082031 89.12001037597656 1 1" fill="none">
  <path d="M 132.0818634033203 89.12001037597656 C 131.86669921875 89.31657409667969 132.1481018066406 89.13974761962891 132.0310821533203 89.37213134765625 C 132.0739288330078 89.38170623779297 132.0787353515625 89.3526611328125 132.0818634033203 89.32221221923828 C 132.1548614501953 89.34420776367188 132.0764770507812 89.36620330810547 132.0818634033203 89.42288208007812 L 131.9805908203125 89.42288208007812 C 132.0226135253906 89.27991485595703 131.9098205566406 89.29203033447266 131.9298553466797 89.169921875 C 131.8365020751953 89.17755126953125 131.8993835449219 89.34111022949219 131.8289031982422 89.37213134765625 C 131.8717498779297 89.38170623779297 131.8765258789062 89.3526611328125 131.8796539306641 89.32221221923828 C 131.9484710693359 89.45870208740234 132.057861328125 89.51821136474609 131.9805908203125 89.67584991455078 C 131.7727661132812 89.69022369384766 131.6678619384766 89.83800506591797 131.5762023925781 89.72576141357422 C 131.5008850097656 89.76891326904297 131.5034484863281 89.88904571533203 131.4752502441406 89.97872161865234 C 131.3976898193359 89.97815704345703 131.3088684082031 89.84109497070312 131.4752502441406 89.87832641601562 C 131.4191284179688 89.85633087158203 131.4106597900391 89.45729064941406 131.3740081787109 89.72576141357422 C 131.4337921142578 89.45729064941406 131.7366638183594 89.18290710449219 132.0818634033203 89.12001037597656" fill="#2777df" stroke="none" stroke-width="0"/>
</svg>