<svg xmlns="http://www.w3.org/2000/svg" width="2" height="4" viewBox="748.264892578125 294.5157165527344 2.39111328125 4.071441650390625" fill="none">
  <path d="M 750.656005859375 295.1913757324219 C 750.5333862304688 294.9082641601562 750.2767333984375 294.7432250976562 750.0068359375 294.7161560058594 C 749.923828125 294.7083740234375 749.839599609375 294.7123718261719 749.75732421875 294.7297668457031 C 749.60009765625 294.7642517089844 749.4503173828125 294.8472595214844 749.331787109375 294.9825439453125 L 749.2533569335938 295.0722045898438 C 748.9075317382812 295.4645385742188 748.655517578125 295.9219360351562 748.5036010742188 296.413330078125 C 748.4471435546875 296.5953979492188 748.4041748046875 296.7846374511719 748.376220703125 296.9747009277344 C 748.3615112304688 297.0743408203125 748.351318359375 297.1752624511719 748.345458984375 297.2744140625 L 748.3456420898438 297.2789306640625 C 748.3400268554688 297.3826293945312 748.3387451171875 297.4847412109375 748.3403930664062 297.5881042480469 L 748.3655395507812 298.587158203125 C 748.3443603515625 298.5730590820312 748.3232421875 298.5589294433594 748.3006591796875 298.5462646484375 L 748.2713012695312 297.4114379882812 C 748.264892578125 297.2045288085938 748.27783203125 297.0000305175781 748.3070068359375 296.7979431152344 C 748.3143920898438 296.7503967285156 748.3218994140625 296.702880859375 748.330810546875 296.6552124023438 C 748.354736328125 296.5243835449219 748.3848266601562 296.3962707519531 748.4237670898438 296.2693786621094 C 748.4263916015625 296.2588195800781 748.4290161132812 296.2470397949219 748.4330444335938 296.2364807128906 C 748.4572143554688 296.1573791503906 748.48583984375 296.0780944824219 748.5175170898438 296.000244140625 C 748.5542602539062 295.8984680175781 748.5984497070312 295.7980346679688 748.6456909179688 295.7004699707031 C 748.7875366210938 295.4105834960938 748.968505859375 295.1402587890625 749.1841430664062 294.8954162597656 L 749.2627563476562 294.8056945800781 C 749.444091796875 294.5989685058594 749.6959838867188 294.5157165527344 749.937744140625 294.5392456054688 C 749.9466552734375 294.5404968261719 749.9541015625 294.5417785644531 749.9629516601562 294.5429077148438 L 749.9644165039062 294.5429077148438 C 750.0178833007812 294.5486145019531 750.070068359375 294.5617980957031 750.1209106445312 294.5809936523438 C 750.32275390625 294.6500854492188 750.4990234375 294.8013916015625 750.5917358398438 295.0248107910156 C 750.61083984375 295.0700073242188 750.6285400390625 295.1138305664062 750.6446533203125 295.1592407226562 C 750.6478881835938 295.16943359375 750.6527709960938 295.1811828613281 750.656005859375 295.1913757324219" fill="#a21822" stroke="none" stroke-width="0"/>
</svg>