<svg xmlns="http://www.w3.org/2000/svg" width="1" height="2" viewBox="321.5845031738281 178.1789093017578 1.44244384765625 2.138992309570284" fill="none">
  <path d="M 322.2728576660156 178.8506469726562 C 322.1524353027344 178.7412261962891 322.3960876464844 178.8571319580078 322.42431640625 178.9014129638672 C 322.3616943359375 178.6887664794922 322.6171875 178.5209808349609 322.6775207519531 178.1929931640625 C 322.8357238769531 178.2508239746094 322.8109436035156 178.1789093017578 322.9305114746094 178.2437744140625 C 323.0269470214844 178.2790069580078 322.8760681152344 178.3230285644531 322.8800354003906 178.2437744140625 C 322.8013610839844 178.4180297851562 322.7531127929688 178.6224975585938 322.5260925292969 178.6484527587891 C 322.656982421875 178.7936706542969 322.488037109375 178.946533203125 322.42431640625 179.0528564453125 C 322.2220764160156 178.8354187011719 322.5052490234375 179.2059631347656 322.3239135742188 179.2550354003906 C 322.3693237304688 179.3935241699219 322.509765625 179.1566314697266 322.5260925292969 179.3557281494141 C 322.4992980957031 179.4341125488281 322.4733581542969 179.359375 322.4750061035156 179.3055114746094 C 322.42431640625 179.3379669189453 322.422607421875 179.4219970703125 322.3239135742188 179.406494140625 C 322.3289489746094 179.2688598632812 322.2395935058594 179.3055114746094 322.3239135742188 179.2042694091797 C 322.2829895019531 179.2141571044922 322.2728576660156 179.2550354003906 322.2220764160156 179.2550354003906 C 322.1981506347656 179.4140777587891 322.3777465820312 179.3695373535156 322.3239135742188 179.5579071044922 C 322.2074279785156 179.5195465087891 322.1067504882812 179.8269653320312 322.2728576660156 179.7601318359375 C 322.2170104980469 179.9623260498047 322.0732116699219 179.7945251464844 322.020751953125 179.7099304199219 C 322.0119934082031 179.7519378662109 322.0201416015625 179.9084625244141 322.0706481933594 180.0133666992188 C 322.0534362792969 180.0835876464844 321.9820861816406 180.017578125 321.9700012207031 179.9623260498047 C 321.6284790039062 180.3179016113281 321.5845031738281 179.3472595214844 321.7173156738281 179.9623260498047 C 321.839111328125 179.7933807373047 321.7979736328125 179.7434844970703 321.7677612304688 179.5579071044922 C 321.9319152832031 179.6467437744141 322.0371398925781 179.3072052001953 322.0706481933594 179.1036071777344 C 322.2263488769531 179.1233367919922 322.2894897460938 178.9668426513672 322.2728576660156 178.8506469726562 M 321.9700012207031 179.6594543457031 C 322.0656127929688 179.6478881835938 322.0813598632812 179.7164154052734 322.1724853515625 179.7099304199219 C 322.087890625 179.5514221191406 322.3600158691406 179.5032043457031 322.2220764160156 179.4572296142578 C 322.1687622070312 179.5548248291016 322.0517883300781 179.5889434814453 321.9700012207031 179.6594543457031" fill="#2777df" stroke="none" stroke-width="0"/>
</svg>