<svg xmlns="http://www.w3.org/2000/svg" width="28" height="14" viewBox="24.6241626739502 97.53257751464844 27.64188575744628 13.966796874999957" fill="none">
  <path d="M 24.76324844360352 98.35029602050781 C 25.24045181274414 99.8426513671875 26.32355499267578 100.9920959472656 27.32512664794922 102.1751251220703 C 28.32349395751953 103.3549346923828 29.35863876342773 104.50439453125 30.42815017700195 105.6210479736328 C 31.49607086181641 106.7361297607422 32.59115600585938 107.8264312744141 33.71822357177734 108.8815612792969 C 34.32571792602539 109.4498748779297 34.95239639282227 109.9958343505859 35.59427261352539 110.5249938964844 C 36.06507873535156 110.9126739501953 36.52629852294922 111.3363189697266 37.16416549682617 111.3890838623047 C 38.50465393066406 111.4993743896484 40.04578018188477 110.0653839111328 41.08731460571289 109.3483734130859 C 42.30710220336914 108.5082702636719 43.49172210693359 107.6162109375 44.6435661315918 106.6857757568359 C 47.0639533996582 104.7297973632812 49.32209014892578 102.5619964599609 51.35000610351562 100.2007598876953 C 52.26604843139648 99.13365173339844 50.75210571289062 97.57972717285156 49.78969955444336 98.64044189453125 C 47.92804336547852 100.6939544677734 45.96007537841797 102.6355438232422 43.83303833007812 104.4140625 C 42.8018913269043 105.2773590087891 41.73717880249023 106.0974731445312 40.64048767089844 106.8760223388672 C 40.07615280151367 107.2756805419922 39.50382614135742 107.665771484375 38.92510986328125 108.0438385009766 C 38.63495254516602 108.2332916259766 38.34399032592773 108.4195251464844 38.05063247680664 108.6033935546875 C 37.94112396240234 108.672119140625 37.20413589477539 109.1069793701172 37.40476608276367 109.0909881591797 C 37.606201171875 109.0749969482422 37.08503341674805 108.7840423583984 36.94834518432617 108.6689300537109 C 36.6757698059082 108.438720703125 36.40718841552734 108.2045288085938 36.13622283935547 107.9727172851562 C 35.59267044067383 107.5098876953125 35.0443229675293 107.0526885986328 34.50717163085938 106.5818634033203 C 33.43286514282227 105.6426544189453 32.38812255859375 104.670654296875 31.37456512451172 103.6658782958984 C 30.36260604858398 102.6627197265625 29.37862396240234 101.6307678222656 28.42421340942383 100.5716400146484 C 27.50737380981445 99.55409240722656 26.7048397064209 98.482177734375 25.52661895751953 97.76356506347656 C 25.14853096008301 97.53257751464844 24.6241626739502 97.91705322265625 24.76324844360352 98.35029602050781" fill="#2473d8" stroke="none" stroke-width="0"/>
</svg>