<svg xmlns="http://www.w3.org/2000/svg" width="3" height="1" viewBox="59.07099914550781 118.3249969482422 2.6462554931640696 1.1811141967773011" fill="none">
  <path d="M 59.07099914550781 118.3249969482422 C 59.27881622314453 118.6264419555664 59.45325088500977 118.9433746337891 59.62066650390625 119.2634506225586 L 59.56671905517578 119.2107086181641 C 59.72349166870117 119.2569198608398 59.9206657409668 119.2711944580078 60.10187530517578 119.2588577270508 C 60.28743743896484 119.2496643066406 60.47082138061523 119.2085342407227 60.65323638916016 119.1586990356445 C 60.83589553833008 119.1083755493164 61.01226806640625 119.0326461791992 61.19008636474609 118.9552307128906 L 61.45379257202148 118.8272476196289 C 61.53919219970703 118.7791061401367 61.62677383422852 118.7326507568359 61.71725463867188 118.6878967285156 C 61.64830780029297 118.7599945068359 61.57717895507812 118.8311157226562 61.50290679931641 118.8993453979492 C 61.42500305175781 118.9622497558594 61.34734344482422 119.0270843505859 61.26387786865234 119.0844192504883 C 61.09548950195312 119.1959533691406 60.91742706298828 119.2994995117188 60.72267150878906 119.3679656982422 C 60.53009414672852 119.440788269043 60.32493591308594 119.4857864379883 60.11566162109375 119.4988555908203 C 59.90397262573242 119.5061111450195 59.69832992553711 119.4932861328125 59.48252487182617 119.4049835205078 L 59.44333267211914 119.3887710571289 L 59.42857360839844 119.3522415161133 C 59.29357528686523 119.0169219970703 59.16559600830078 118.6787033081055 59.07099914550781 118.3249969482422" fill="#89bfff" stroke="none" stroke-width="0"/>
</svg>