<svg xmlns="http://www.w3.org/2000/svg" width="7" height="1" viewBox="137.6713714599609 81.19546508789062 6.989212036132898 1" fill="none">
  <path d="M 144.6605834960938 81.47701263427734 C 144.5802154541016 81.697265625 144.3132629394531 81.60820007324219 144.1206207275391 81.59850311279297 C 143.0091094970703 81.54335021972656 141.8566436767578 81.49462127685547 140.7196960449219 81.47701263427734 C 140.2532043457031 81.46995544433594 139.7994995117188 81.52030181884766 139.3835906982422 81.51774597167969 C 138.99560546875 81.51518249511719 138.5259246826172 81.55326843261719 138.0474853515625 81.53116607666016 C 137.9231262207031 81.52542114257812 137.7095336914062 81.52123260498047 137.6967468261719 81.43659210205078 C 137.6713714599609 81.27180480957031 138.0287933349609 81.27313232421875 138.1421203613281 81.26118469238281 C 138.77294921875 81.19546508789062 139.44921875 81.25288391113281 140.1258850097656 81.24775695800781 C 140.7421875 81.24325561523438 141.4045867919922 81.26118469238281 142.0558776855469 81.26118469238281 C 142.3766784667969 81.26118469238281 142.6883239746094 81.29997253417969 143.0006561279297 81.30191040039062 C 143.3348846435547 81.30354309082031 143.6651458740234 81.29104614257812 143.9586334228516 81.30191040039062 C 144.1941680908203 81.31028747558594 144.4891357421875 81.33302307128906 144.6605834960938 81.47701263427734" fill="#ff4d16" stroke="none" stroke-width="0"/>
</svg>