<svg xmlns="http://www.w3.org/2000/svg" width="1" height="1" viewBox="449.4998474121094 321.7570190429688 1 1.494384765625" fill="none">
  <path d="M 450.3143005371094 321.8074951171875 C 450.3193664550781 321.9369812011719 450.3424377441406 322.0486145019531 450.4154968261719 322.1109619140625 C 450.4095764160156 322.2062683105469 450.2480163574219 322.146240234375 450.2635192871094 322.2621154785156 C 450.3385009765625 322.3686828613281 450.1414184570312 322.1960754394531 450.3143005371094 322.1109619140625 C 450.2110290527344 322.1394348144531 450.2149963378906 322.2621154785156 450.11181640625 322.1614379882812 C 450.1332092285156 322.2575378417969 450.2564392089844 322.2527770996094 450.2132873535156 322.4137878417969 C 450.0440673828125 322.3622131347656 450.1340637207031 322.5708923339844 450.11181640625 322.6670837402344 C 450.0717163085938 322.6575317382812 450.0618286132812 322.6160583496094 450.0113830566406 322.6160583496094 C 449.9922180175781 322.70263671875 450.0505981445312 322.7116088867188 450.11181640625 322.717529296875 C 450.0474548339844 322.9197082519531 450.0076599121094 322.7034606933594 449.8599548339844 322.717529296875 C 449.9158020019531 322.82275390625 449.913818359375 322.8246459960938 449.8088989257812 322.7680053710938 C 449.7299194335938 322.7855224609375 449.8534545898438 322.8571472167969 449.7581481933594 322.8690185546875 C 449.7803955078125 322.9437255859375 449.8227233886719 322.8492431640625 449.9092712402344 322.8690185546875 C 449.9270935058594 323.0480346679688 449.9132385253906 323.1289672851562 449.9606323242188 323.1723937988281 C 449.9423217773438 323.2514038085938 449.8720397949219 323.1278686523438 449.8599548339844 323.2232055664062 C 449.821044921875 323.18310546875 449.8238220214844 323.0463562011719 449.8599548339844 322.9701843261719 C 449.7691650390625 323.0443725585938 449.6614074707031 322.9386291503906 449.5556640625 323.0714416503906 C 449.4998474121094 323.0246887207031 449.5404663085938 322.9766845703125 449.5060119628906 322.8182678222656 C 449.7195129394531 322.7220764160156 449.9862976074219 322.0556945800781 450.11181640625 321.7570190429688 C 450.1566162109375 321.7962646484375 450.2262878417969 321.8114624023438 450.3143005371094 321.8074951171875" fill="#2777df" stroke="none" stroke-width="0"/>
</svg>