<svg xmlns="http://www.w3.org/2000/svg" width="13" height="11" viewBox="0.02112658508121967 0.003241539001464844 12.72458569519222 10.598674774169925" fill="none">
  <path d="M 3.794577836990356 10.44705772399902 C 3.825064897537231 10.43167209625244 3.845039844512939 10.42175102233887 3.869789361953735 10.40930461883545 C 3.868839025497437 10.4227876663208 3.871526718139648 10.43493938446045 3.866937875747681 10.44257640838623 C 3.787399053573608 10.57448959350586 3.66753888130188 10.60191631317139 3.523202180862427 10.58328628540039 C 3.167709112167358 10.53758811950684 2.831732511520386 10.43254661560059 2.498421192169189 10.30034923553467 C 2.096094131469727 10.14082431793213 1.680119514465332 10.01558780670166 1.270143985748291 9.875370979309082 C 0.9370294809341431 9.761531829833984 0.6107010841369629 9.634394645690918 0.3118981420993805 9.44227409362793 C 0.1599998027086258 9.344585418701172 0.094436876475811 9.189813613891602 0.02112658508121967 9.042810440063477 C -0.03508270159363747 8.930314064025879 0.02542091906070709 8.812748908996582 0.1487228870391846 8.722403526306152 C 0.6953862309455872 8.32170581817627 1.189381122589111 7.862042903900146 1.662515640258789 7.378277778625488 C 2.064743757247925 6.967056274414062 2.465245485305786 6.554512977600098 2.857541084289551 6.133949756622314 C 2.916416645050049 6.070756435394287 2.97999095916748 6.012361526489258 3.061222791671753 5.978127479553223 C 3.090290069580078 5.965900421142578 3.124426126480103 5.952908039093018 3.148509502410889 5.980520248413086 C 3.172690868377686 6.008243083953857 3.155961513519287 6.039702892303467 3.138084888458252 6.066364765167236 C 3.112471342086792 6.10441255569458 3.085613250732422 6.141510009765625 3.050711631774902 6.191109180450439 C 3.127573251724243 6.188988208770752 3.157971620559692 6.142744541168213 3.192184925079346 6.103068828582764 C 3.237587690353394 6.050585269927979 3.277548551559448 6.000309944152832 3.321901321411133 6.108510494232178 C 3.33910059928894 6.150579452514648 3.404390811920166 6.146645545959473 3.434112310409546 6.196463108062744 C 3.519660472869873 6.339925765991211 3.530654191970825 6.482253074645996 3.456098318099976 6.630128860473633 C 3.280793905258179 6.977580547332764 3.061999797821045 7.297035217285156 2.818061828613281 7.598974227905273 C 2.601845979690552 7.86670970916748 2.367852210998535 8.118875503540039 2.12735652923584 8.365205764770508 C 2.06550931930542 8.428583145141602 1.979097247123718 8.468151092529297 1.934656381607056 8.57204532623291 C 2.046768665313721 8.538117408752441 2.149440288543701 8.511738777160645 2.248942852020264 8.476269721984863 C 2.752586841583252 8.296485900878906 3.271997451782227 8.167250633239746 3.778799295425415 7.997671604156494 C 5.109355449676514 7.552620410919189 6.344898223876953 6.92348051071167 7.465554237365723 6.07783842086792 C 8.059040069580078 5.630022525787354 8.62366771697998 5.145961284637451 9.149787902832031 4.619666576385498 C 9.983660697937012 3.785400390625 10.75628471374512 2.898367404937744 11.42280673980713 1.923371315002441 C 11.70105743408203 1.516378402709961 11.96687030792236 1.100098609924316 12.0982141494751 0.6158714294433594 C 12.13320541381836 0.4873037338256836 12.15433788299561 0.3565483093261719 12.16626930236816 0.2238607406616211 C 12.17211627960205 0.1594448089599609 12.16580009460449 0.08631038665771484 12.23089408874512 0.04464626312255859 C 12.29541683197021 0.003241539001464844 12.36690235137939 -0.04349327087402344 12.40190315246582 0.07704448699951172 C 12.42139530181885 0.144343376159668 12.49652194976807 0.1116399765014648 12.53753185272217 0.1659364700317383 C 12.69553661346436 0.3751802444458008 12.72775077819824 0.6157636642456055 12.73874092102051 0.8619842529296875 C 12.74571228027344 1.016843795776367 12.71637630462646 1.170064926147461 12.69553661346436 1.324641227722168 C 12.57911968231201 2.18805980682373 12.10060882568359 2.878469944000244 11.63272094726562 3.568310260772705 C 11.09438228607178 4.362156867980957 10.46514129638672 5.084878444671631 9.78101634979248 5.757815837860107 C 8.730252265930176 6.791283130645752 7.559987545013428 7.656920433044434 6.223410606384277 8.291230201721191 C 5.335032939910889 8.71284294128418 4.414540767669678 9.041467666625977 3.462697744369507 9.284170150756836 C 3.338521957397461 9.315803527832031 3.21264123916626 9.349152565002441 3.085711717605591 9.359021186828613 C 2.903522968292236 9.373169898986816 2.725826025009155 9.40192985534668 2.551373481750488 9.454611778259277 C 2.529486656188965 9.461286544799805 2.500049114227295 9.459199905395508 2.496421575546265 9.488430023193359 C 2.492881059646606 9.517780303955078 2.521935939788818 9.525527954101562 2.542096853256226 9.532695770263672 C 2.791017293930054 9.621391296386719 3.010860681533813 9.765072822570801 3.236724853515625 9.897454261779785 C 3.280411958694458 9.923155784606934 3.322667121887207 9.952408790588379 3.378395080566406 9.942572593688965 C 3.401331424713135 9.938453674316406 3.435927152633667 9.937798500061035 3.440614700317383 9.961400985717773 C 3.456961870193481 10.04360580444336 3.500058650970459 10.06462860107422 3.575105905532837 10.035475730896 C 3.580842971801758 10.03328037261963 3.594129800796509 10.0368185043335 3.59661078453064 10.04160499572754 C 3.65491771697998 10.15343379974365 3.797725200653076 10.19089221954346 3.839302778244019 10.3164005279541 C 3.855267286300659 10.36418628692627 3.795430183410645 10.38704490661621 3.794577836990356 10.44705772399902 M 8.954115867614746 5.22435188293457 C 8.105983734130859 5.968762874603271 7.21798849105835 6.657556533813477 6.250553131103516 7.240835189819336 C 7.288053035736084 6.749989986419678 8.137420654296875 6.007773876190186 8.954115867614746 5.22435188293457 M 10.00632286071777 5.360854148864746 C 9.217929840087891 6.133271217346191 8.388920783996582 6.854376316070557 7.477399349212646 7.477584838867188 C 7.985348701477051 7.25534725189209 9.753983497619629 5.77301549911499 10.00632286071777 5.360854148864746 M 2.281342029571533 7.10021448135376 C 2.231252193450928 7.09620475769043 2.221417665481567 7.126396179199219 2.204217910766602 7.143900871276855 C 1.941343665122986 7.41002082824707 1.682687282562256 7.680521011352539 1.415911674499512 7.942629814147949 C 1.128484129905701 8.224989891052246 0.8209940195083618 8.484781265258789 0.5028718709945679 8.732074737548828 C 0.4791707694530487 8.750508308410645 0.4282175004482269 8.762462615966797 0.4521151781082153 8.808629989624023 C 0.4680798351764679 8.839696884155273 0.4921741187572479 8.814169883728027 0.5090894103050232 8.800216674804688 C 0.7440340518951416 8.606369018554688 0.9888350963592529 8.42311954498291 1.210689067840576 8.215428352355957 C 1.498203992843628 7.946259498596191 1.7687166929245 7.658929824829102 2.04353404045105 7.376550197601318 C 2.125739336013794 7.292160987854004 2.19781494140625 7.197914123535156 2.281342029571533 7.10021448135376 M 8.365306854248047 6.638073921203613 C 8.777851104736328 6.35475492477417 9.15110969543457 6.025639533996582 9.498003005981445 5.665579795837402 C 9.123105049133301 5.992858409881592 8.74946117401123 6.32167911529541 8.365306854248047 6.638073921203613 M 1.716146349906921 8.6334228515625 C 2.017243385314941 8.390731811523438 2.287472248077393 8.116121292114258 2.524612903594971 7.809560775756836 C 2.250855445861816 8.079494476318359 1.993728399276733 8.365588188171387 1.716146349906921 8.6334228515625 M 8.358901977539062 6.207729339599609 C 8.502082824707031 6.117887020111084 8.644801139831543 6.030523777008057 8.737802505493164 5.886854648590088 C 8.611539840698242 5.993819713592529 8.485254287719727 6.100785732269287 8.358901977539062 6.207729339599609 M 2.068382740020752 8.075865745544434 C 2.077747106552124 8.084848403930664 2.087024688720703 8.093917846679688 2.096389055252075 8.103009223937988 C 2.201825380325317 8.01104736328125 2.289187669754028 7.901992797851562 2.39203405380249 7.808981895446777 C 2.284117460250854 7.897983074188232 2.176201343536377 7.986874580383301 2.068382740020752 8.075865745544434" fill="#2777df" stroke="none" stroke-width="0"/>
</svg>