<svg xmlns="http://www.w3.org/2000/svg" width="27" height="14" viewBox="45.24644470214844 9.118489265441895 27.31255340576172 13.788565635681156" fill="none">
  <path d="M 51.48607635498047 15.94562911987305 C 53.85050964355469 16.18063545227051 56.21254730224609 16.17983436584473 58.58179473876953 16.00717735290527 C 59.60894012451172 15.93203926086426 59.6273193359375 14.44047546386719 58.58179473876953 14.39571380615234 C 54.49877166748047 14.22385787963867 50.41096496582031 14.27261543273926 46.32875061035156 14.42209053039551 L 46.53977203369141 15.985595703125 C 50.78424835205078 15.02559089660645 54.95679473876953 13.76263809204102 59.02143096923828 12.20952701568604 C 59.82395935058594 11.90337944030762 59.81276702880859 10.43899536132812 58.79920959472656 10.56448936462402 C 56.08306121826172 10.90021133422852 53.37331390380859 11.28629016876221 50.66115570068359 11.65238666534424 L 51.27983856201172 13.11997127532959 C 53.29737091064453 11.82984066009521 55.47955322265625 11.06087970733643 57.87117767333984 10.88102722167969 L 57.65055847167969 9.250378608703613 C 55.78971099853516 9.506167411804199 54.01677703857422 10.07609462738037 52.33017730712891 10.89621448516846 C 51.44530487060547 11.32705879211426 52.08797454833984 12.6171875 52.97364044189453 12.42215061187744 C 56.72173309326172 11.59563541412354 60.60810852050781 10.78830432891846 64.44412994384766 11.53088760375977 L 64.44412994384766 9.88425350189209 C 60.53777313232422 10.43659496307373 56.75849914550781 11.64279460906982 53.15909576416016 13.24067211151123 C 52.24063873291016 13.64753341674805 52.77940368652344 14.97683143615723 53.63789367675781 15.01040458679199 C 55.62104797363281 15.08713912963867 57.60340118408203 15.18066024780273 59.58576202392578 15.26858901977539 C 60.41867065429688 15.30535888671875 64.35859680175781 15.02798843383789 64.11000061035156 16.59149360656738 L 65.13395690917969 15.8121395111084 C 62.46177673339844 15.55235481262207 59.85992431640625 14.98162841796875 57.29805755615234 14.18229103088379 C 57.21572875976562 14.78898811340332 57.13418579101562 15.396484375 57.05185699462891 16.00398063659668 C 60.90225982666016 15.75538635253906 64.73348999023438 16.16624641418457 68.46879577636719 17.1214542388916 C 68.65023803710938 16.46200180053711 68.83249664306641 15.80334663391113 69.01393890380859 15.14389419555664 C 66.69745635986328 14.68347358703613 64.35700225830078 14.34615707397461 62.03812408447266 13.89133071899414 C 61.95179748535156 14.52840232849121 61.86546325683594 15.16547584533691 61.77912902832031 15.8017463684082 C 63.68875122070312 15.95042610168457 65.56079864501953 16.37887001037598 67.34413146972656 17.07829093933105 C 68.11627960205078 17.38043785095215 68.93320465087891 17.73214721679688 69.63423156738281 18.1829719543457 C 69.80368041992188 18.27009963989258 69.95635986328125 18.3812084197998 70.09144592285156 18.51549911499023 C 70.26650238037109 18.28289222717285 70.24172973632812 18.21894454956055 70.01710510253906 18.32285690307617 C 69.79090118408203 18.22693824768066 69.15541839599609 18.29088401794434 68.90363311767578 18.26370620727539 C 64.89015960693359 17.82886695861816 60.88867950439453 17.24934768676758 56.90317535400391 16.60747909545898 C 55.58826446533203 16.39565467834473 54.99755096435547 18.37721252441406 56.34284210205078 18.63939476013184 C 58.22688293457031 19.00629043579102 60.10212707519531 19.40196228027344 61.94940185546875 19.92712783813477 C 63.30027770996094 20.31081008911133 65.33858489990234 20.62335014343262 66.01962280273438 22.0181941986084 C 66.43368530273438 21.47863960266113 66.84853363037109 20.93988990783691 67.26338958740234 20.40033531188965 C 62.93177795410156 18.78247833251953 59.49063110351562 15.14069557189941 54.79533386230469 14.44367218017578 C 54.05754089355469 14.33416557312012 53.11112976074219 15.11271858215332 53.68104553222656 15.8920726776123 C 54.53394317626953 17.05910491943359 55.90241241455078 17.09667587280273 57.23171234130859 17.32048797607422 C 58.97586822509766 17.61464500427246 60.70482635498047 17.98713493347168 62.43779754638672 18.33884620666504 C 63.99489593505859 18.65458297729492 65.60237121582031 19.12858963012695 67.18505859375 19.26927185058594 C 68.40724182128906 19.37878227233887 69.60623931884766 18.64099311828613 69.56548309326172 17.3108959197998 C 69.54630279541016 16.68821144104004 69.08187866210938 16.27655410766602 68.48078155517578 16.22699546813965 C 67.70223236083984 16.16225051879883 66.91329193115234 16.3197193145752 66.1395263671875 16.41244125366211 C 65.31301116943359 16.51155853271484 64.93572235107422 17.82247352600098 65.92290496826172 18.01351356506348 C 66.76460266113281 18.17657852172852 67.62069702148438 18.4059886932373 68.48078155517578 18.39559936523438 C 68.11948394775391 18.0342960357666 67.7581787109375 17.67299652099609 67.39688110351562 17.3108959197998 C 67.37449645996094 17.10546875 64.98686981201172 16.84408378601074 64.69271850585938 16.79292678833008 L 61.39625549316406 16.22060012817383 C 60.36270904541016 16.04154777526855 59.32516479492188 15.87688636779785 58.29801940917969 15.66506195068359 C 57.78564453125 15.55954933166504 57.27326965332031 15.45243644714355 56.76089477539062 15.34532737731934 C 56.4091796875 15.27258682250977 55.60665893554688 15.23661422729492 55.38443756103516 14.89689826965332 C 55.0135498046875 15.37969779968262 54.64186096191406 15.86249732971191 54.27096557617188 16.34609603881836 C 58.89591979980469 17.28451919555664 62.34906768798828 20.84316444396973 66.67747497558594 22.5241756439209 C 67.66385650634766 22.90705490112305 68.28573608398438 21.6784725189209 67.92124938964844 20.90631484985352 C 67.12989807128906 19.23250389099121 65.22747802734375 18.66337585449219 63.58404541015625 18.18457412719727 C 61.38825988769531 17.54510307312012 59.14452362060547 17.06150436401367 56.90317535400391 16.60747909545898 C 56.71613311767578 17.28451919555664 56.52989196777344 17.96235656738281 56.34284210205078 18.63939476013184 C 59.14452362060547 19.11659812927246 61.95179748535156 19.55383682250977 64.76705932617188 19.94391441345215 C 66.14432525634766 20.13495635986328 67.52318572998047 20.3235969543457 68.90363311767578 20.48746109008789 C 69.84844207763672 20.60016822814941 70.91635894775391 20.63454055786133 71.68532562255859 19.97189331054688 C 72.45509338378906 19.30844116210938 72.55899810791016 18.22134017944336 72.01224517822266 17.3780403137207 C 71.39437103271484 16.42523002624512 70.14100646972656 15.9592170715332 69.14583587646484 15.53317070007324 C 66.80297088623047 14.52920150756836 64.32343292236328 13.98325538635254 61.77912902832031 13.85616016387939 C 60.70162963867188 13.8026065826416 60.43144989013672 15.5731372833252 61.52095031738281 15.76737785339355 C 63.84462738037109 16.18223190307617 66.14511871337891 16.71379089355469 68.46879577636719 17.1214542388916 C 69.74692535400391 17.34526634216309 70.31766510009766 15.44604301452637 69.01393890380859 15.14389419555664 C 65.08439636230469 14.2342472076416 61.07651519775391 13.93609619140625 57.05185699462891 14.14871788024902 C 55.99353790283203 14.20467185974121 55.80968475341797 15.62509346008301 56.80486297607422 15.97040748596191 C 59.41709899902344 16.87685585021973 62.11566925048828 17.50673294067383 64.85179138183594 17.89760971069336 C 65.38974761962891 17.97434616088867 66.03080749511719 17.77291107177734 66.15791320800781 17.15582656860352 C 66.67267608642578 14.65549850463867 64.35299682617188 13.43890476226807 62.20918273925781 13.30861473083496 C 59.3619384765625 13.13595676422119 56.48992919921875 13.18871402740479 53.63789367675781 13.11037826538086 L 54.11749267578125 14.8801097869873 C 57.56822204589844 13.30222034454346 61.18043518066406 12.25828552246094 64.89815521240234 11.53088760375977 C 65.69029998779297 11.37581729888916 65.73505401611328 10.00095653533936 64.89815521240234 9.88425350189209 C 60.72241973876953 9.303134918212891 56.63300323486328 10.03532791137695 52.53001403808594 10.81228446960449 L 53.17267608642578 12.33821773529053 C 54.75057220458984 11.6140193939209 56.38360595703125 11.14161109924316 58.09178924560547 10.8514518737793 C 59.004638671875 10.69717979431152 58.80400848388672 9.118489265441895 57.87117767333984 9.220804214477539 C 55.24775695800781 9.507765769958496 52.71465301513672 10.33667850494385 50.46931457519531 11.73311996459961 C 49.85302734375 12.11680221557617 50.03367614746094 13.33339309692383 50.87458038330078 13.2294807434082 C 53.59073638916016 12.89375877380371 56.31007385253906 12.57562351226807 59.02143096923828 12.20952701568604 C 58.87354278564453 11.6715726852417 58.72487640380859 11.1328182220459 58.57618713378906 10.5940637588501 C 54.52195739746094 12.19593715667725 50.36700439453125 13.48207092285156 46.11692047119141 14.45086860656738 C 45.24644470214844 14.64910507202148 45.42949676513672 16.04874229431152 46.32875061035156 16.01437187194824 C 50.41336822509766 15.85849952697754 54.49637603759766 15.8968677520752 58.58179473876953 16.00717735290527 L 58.58179473876953 14.39571380615234 C 56.22054290771484 14.60433959960938 53.85370635986328 14.71944427490234 51.48607635498047 14.807373046875 C 50.74188232421875 14.83535003662109 50.76746368408203 15.87448692321777 51.48607635498047 15.94562911987305" fill="#2473d8" stroke="none" stroke-width="0"/>
</svg>