<svg xmlns="http://www.w3.org/2000/svg" width="4" height="3" viewBox="16.46544647216797 5.777474880218506 3.800045013427731 2.7952828407287598" fill="none">
  <path d="M 19.7027587890625 5.796659469604492 C 19.33346557617188 5.777474880218506 18.95218276977539 5.777474880218506 18.598876953125 5.900572776794434 C 18.24396896362305 6.02446985244751 17.89545822143555 6.175544738769531 17.5621337890625 6.349800586700439 C 17.21362686157227 6.531250953674316 16.89948272705078 6.728686332702637 16.68126678466797 7.066006660461426 C 16.52299499511719 7.309804916381836 16.46544647216797 7.615949630737305 16.53818130493164 7.898917198181152 C 16.57015609741211 8.023612976074219 16.62371444702148 8.137918472290039 16.70284652709961 8.239434242248535 C 16.91786575317383 8.517602920532227 17.20402908325195 8.572757720947266 17.53335571289062 8.515205383300781 C 17.47100830078125 8.523198127746582 17.40945816040039 8.531991004943848 17.34711074829102 8.539983749389648 L 17.36310195922852 8.539983749389648 C 17.58292007446289 8.532792091369629 17.7675666809082 8.442466735839844 17.90185165405273 8.269808769226074 C 18.04253768920898 8.086760520935059 18.06411743164062 7.894919395446777 18.02415084838867 7.671905517578125 L 18.02095031738281 7.655117988586426 C 17.99777221679688 7.834969520568848 17.97459411621094 8.01482105255127 17.95061111450195 8.19387149810791 C 18.03454208374023 8.044395446777344 18.06251907348633 7.901313781738281 18.07450866699219 7.733452796936035 C 18.06491851806641 7.80219554901123 18.05612564086914 7.871738433837891 18.04653167724609 7.940481185913086 C 18.05132675170898 7.910107612609863 18.06011962890625 7.882928848266602 18.07210922241211 7.854952812194824 C 18.0449333190918 7.91810131072998 18.0185546875 7.982048034667969 17.99138259887695 8.045194625854492 C 18.04093933105469 7.943679809570312 18.08010482788086 7.838166236877441 18.12246704101562 7.7342529296875 C 18.09529113769531 7.798199653625488 18.06811141967773 7.862146377563477 18.0417366027832 7.926094055175781 C 18.06891632080078 7.864544868469238 18.10328674316406 7.809391021728516 18.1440544128418 7.756634712219238 L 18.01935577392578 7.917300224304199 C 18.05532836914062 7.874136924743652 18.09289169311523 7.836567878723145 18.13685607910156 7.80219554901123 L 17.97698974609375 7.925294876098633 C 18.29113006591797 7.695086479187012 18.62285232543945 7.491254806518555 18.97136688232422 7.318596839904785 C 19.14402008056641 7.233067512512207 19.31907653808594 7.153933525085449 19.4853401184082 7.056414604187012 C 19.64760589599609 6.961294174194336 19.79867935180664 6.846189498901367 19.96094131469727 6.749469757080078 C 20.14799118041992 6.637560844421387 20.2654914855957 6.387369155883789 20.19594955444336 6.172348022460938 C 20.12400817871094 5.949331760406494 19.9361686706543 5.808649063110352 19.7027587890625 5.796659469604492" fill="#2473d8" stroke="none" stroke-width="0"/>
</svg>