<svg xmlns="http://www.w3.org/2000/svg" width="235" height="214" viewBox="0.2140530943870544 0 235.48969751596454 214.2483215332031" fill="none">
  <path d="M 155.7381896972656 214.2483215332031 L 155.6741027832031 214.2242889404297 C 130.9553070068359 207.1251525878906 105.1307678222656 200.5708618164062 80.14753723144531 194.2008666992188 C 55.8133430480957 188.0231628417969 30.62178993225098 181.6291046142578 6.463864803314209 174.7142791748047 C 3.73157525062561 167.9436340332031 3.987978219985962 159.8749694824219 7.016731739044189 153.5770874023438 C 9.132053375244141 149.2022247314453 12.35310935974121 146.1414184570312 16.1430606842041 145.0196685791016 C 14.04376411437988 143.5854034423828 11.12718677520752 142.7360687255859 8.330795288085938 141.8867340087891 C 6.063236236572266 141.2136993408203 3.699525356292725 140.5085906982422 1.824581623077393 139.3868255615234 C -0.7714941501617432 132.6402282714844 -0.5791921615600586 125.5250625610352 2.289311170578003 119.2912673950195 C 4.861349105834961 113.7225341796875 9.292304992675781 109.459831237793 14.44439220428467 107.6089324951172 C 8.346820831298828 106.8797836303711 3.603374004364014 102.8975372314453 1.456002831459045 96.96021270751953 C 15.14148712158203 107.1041412353516 32.06405258178711 114.3635330200195 48.40971755981445 121.4145965576172 C 54.73164367675781 124.130859375 61.27791213989258 126.92724609375 67.51971435546875 129.8758850097656 L 73.95380401611328 133.2892456054688 C 82.47919464111328 137.8003234863281 91.30104827880859 142.4636535644531 100.3071899414062 146.7023010253906 C 102.871208190918 148.3528747558594 105.8118362426758 149.7150268554688 108.6482849121094 151.0130767822266 C 111.3885955810547 152.2550201416016 114.2089996337891 153.5450286865234 116.7089309692383 155.1074829101562 C 117.9749145507812 155.4680480957031 119.5213470458984 156.2052154541016 121.1559219360352 157.0144958496094 C 123.7920532226562 158.2884826660156 126.5403671264648 159.6426086425781 128.8479919433594 159.6426086425781 C 130.7149200439453 159.6426086425781 132.0450134277344 158.7291717529297 132.8863220214844 156.8622436523438 C 132.5898590087891 156.9904632568359 132.2853851318359 156.9984588623047 131.9969482421875 156.9984588623047 L 131.7806091308594 156.9984588623047 C 130.1380310058594 156.9984588623047 129.8495635986328 157.5112762451172 129.3768157958984 158.3926544189453 C 129.2486267089844 158.6089782714844 129.1204223632812 158.8413543701172 128.9441528320312 159.0977478027344 C 125.0179672241211 156.2052154541016 124.2808227539062 150.2198181152344 123.5837249755859 144.4347381591797 C 123.2792434692383 141.8226470947266 122.9587478637695 139.1544494628906 122.3738174438477 136.7987518310547 C 122.9988021850586 136.3340148925781 123.671875 134.9959106445312 124.2968444824219 133.6898651123047 C 125.1061172485352 132.0793304443359 125.8592987060547 130.5329132080078 126.6765823364258 130.3165893554688 C 122.2616577148438 131.3261566162109 118.760139465332 133.14501953125 115.3788452148438 134.9157867431641 C 112.3340682983398 136.5102996826172 109.1851196289062 138.1368560791016 105.3070297241211 139.0022125244141 C 93.06380462646484 131.8309478759766 82.34298706054688 122.9690399169922 71.97470855712891 114.3715438842773 C 53.5698127746582 99.13963317871094 34.51590347290039 83.38690185546875 6.896543979644775 76.80055999755859 C 3.170695066452026 82.20906066894531 1.383889436721802 88.70726013183594 1.624266862869263 96.57560729980469 C -0.739443838596344 90.51810455322266 0.2140530943870544 83.17056274414062 3.859776973724365 76.99286651611328 C 6.936606407165527 75.62271881103516 9.30031681060791 73.5634765625 11.58390331268311 71.59239196777344 C 13.12231731414795 70.23826599121094 14.72483539581299 68.85208892822266 16.50362586975098 67.69026947021484 C 12.60951232910156 66.36818695068359 9.276279449462891 62.71445465087891 7.144934177398682 57.6905632019043 C 3.923877477645874 49.97444915771484 3.947915077209473 40.30326843261719 7.209034442901611 32.45895767211914 C 8.394896507263184 31.6576976776123 10.14163875579834 31.54552268981934 11.82427978515625 31.45738410949707 C 12.89796543121338 31.37725639343262 13.97165012359619 31.3211669921875 14.89309692382812 31.0968189239502 C 16.19113540649414 30.54394912719727 17.12860870361328 29.54237747192383 18.03402900695801 28.56484413146973 C 18.72310829162598 27.81967163085938 19.44424247741699 27.08251762390137 20.30960273742676 26.49759483337402 C 57.27162933349609 17.21101760864258 89.73058319091797 8.549422264099121 119.5293579101562 0 C 138.3028411865234 11.618239402771 156.3231201171875 24.91110610961914 173.7665100097656 37.74725723266602 C 188.3173675537109 48.46809005737305 203.3730010986328 59.56550979614258 218.4366302490234 69.37290191650391 C 217.8516998291016 71.06356048583984 216.2572326660156 71.59239196777344 214.6867523193359 72.11320495605469 C 214.2460632324219 72.26544189453125 213.7813110351562 72.40165710449219 213.3406372070312 72.59396362304688 C 214.9992370605469 76.45602416992188 219.3500671386719 77.85823059082031 223.5887298583984 79.22035980224609 C 226.4251861572266 80.12577819824219 229.3658142089844 81.06325531005859 231.4730987548828 82.83403778076172 C 230.6718444824219 84.94134521484375 228.8850402832031 86.01502990722656 227.1463165283203 87.03263092041016 C 224.5662536621094 88.60309600830078 222.3147277832031 89.94920349121094 223.5246276855469 93.81127166748047 C 209.4545288085938 100.1091537475586 194.8796691894531 105.998405456543 180.7935485839844 111.6713104248047 C 162.7812652587891 118.9226913452148 144.1680450439453 126.4224624633789 126.580436706543 134.4991302490234 C 126.6765823364258 134.5472106933594 126.7967681884766 134.7074737548828 126.8608703613281 135.0039367675781 C 127.1252822875977 136.2859497070312 126.2839584350586 139.3066864013672 125.0981063842773 139.8275146484375 C 127.3336181640625 140.5166015625 128.1348724365234 144.4507751464844 128.8960571289062 148.2407073974609 C 129.1925354003906 149.7150268554688 129.4809875488281 151.125244140625 129.8495635986328 152.3351287841797 C 128.864013671875 151.1893463134766 127.7903289794922 150.1076354980469 126.2038421630859 149.0660095214844 C 126.4201736450195 149.8031463623047 127.1332931518555 150.5002746582031 127.8944931030273 151.2053680419922 C 128.9601593017578 152.2229614257812 130.1700897216797 153.3527374267578 129.3768157958984 155.2917938232422 C 141.9325408935547 149.5547790527344 154.5603485107422 143.8578338623047 167.1961975097656 138.1608734130859 C 187.0673980712891 129.2268676757812 207.6196594238281 119.9563064575195 228.3802642822266 111.3988723754883 C 228.4122924804688 109.7643051147461 227.651123046875 108.9229888916016 226.8498382568359 108.0335922241211 C 226.1287231445312 107.2002792358398 225.3835296630859 106.3669815063477 225.3354644775391 104.8045196533203 C 226.5694122314453 105.2051620483398 227.6350860595703 105.637825012207 228.7087707519531 106.086540222168 C 231.3529052734375 107.2002792358398 234.0932159423828 108.3621139526367 235.7037506103516 110.6056289672852 C 233.6765594482422 113.5462493896484 230.2471771240234 114.964469909668 226.9620056152344 116.3426361083984 C 224.7104797363281 117.272102355957 222.3788299560547 118.2416229248047 220.5439300537109 119.627799987793 C 221.4974365234375 119.8521499633789 222.6592712402344 120.156623840332 223.8130950927734 120.4771347045898 C 226.0405731201172 121.0780715942383 228.3802642822266 121.7030563354492 229.3978424072266 123.6661376953125 C 228.4443664550781 127.8967819213867 225.3835296630859 130.0120849609375 222.4268951416016 132.0633239746094 C 220.8804779052734 133.1289825439453 219.3100128173828 134.2186889648438 218.0199737548828 135.5808410644531 C 218.5087432861328 138.1929321289062 221.208984375 138.6096038818359 224.0774993896484 139.0823364257812 C 226.8017578125 139.4989776611328 229.6382141113281 139.9557037353516 230.2712249755859 142.5918273925781 C 221.4012756347656 154.6587829589844 210.2157287597656 164.5943756103516 199.3827362060547 174.1854553222656 C 191.4422607421875 181.2285003662109 183.2293548583984 188.4959106445312 175.9940032958984 196.5325164794922 C 177.5083618164062 196.9571685791016 178.9987487792969 197.2937164306641 180.4970855712891 197.2937164306641 C 184.6555938720703 197.2937164306641 188.0689392089844 194.7296905517578 191.6826324462891 192.0054016113281 C 195.1520690917969 189.393310546875 198.7417297363281 186.6930541992188 203.1886901855469 186.1882934570312 C 197.3315124511719 194.1287384033203 186.6587371826172 203.3271942138672 169.7041320800781 203.3271942138672 L 168.7586517333984 203.3031616210938 C 166.4189910888672 204.6252288818359 164.5760803222656 206.5883178710938 162.7812652587891 208.5113220214844 C 160.7701110839844 210.6506958007812 158.6788330078125 212.8861846923828 155.7862854003906 214.2242889404297 L 155.7381896972656 214.2483215332031 Z M 16.9843807220459 148.2407073974609 C 11.23134899139404 152.3832092285156 5.830871105194092 161.8781127929688 7.922154426574707 172.8633728027344 C 28.98722457885742 178.6163940429688 51.35834121704102 184.113037109375 73.00833892822266 189.4413757324219 C 99.93860626220703 196.0517578125 127.7743072509766 202.8864898681641 153.190185546875 210.4423522949219 C 152.3088226318359 209.3206329345703 151.6678161621094 208.1026916503906 151.1069183349609 207.0049591064453 C 150.0893249511719 205.0498962402344 149.2079315185547 203.3832855224609 147.2769165039062 202.8864898681641 C 149.0717468261719 202.0291442871094 149.0717468261719 201.9730682373047 148.8473815917969 201.0916900634766 C 147.7576599121094 199.5052032470703 147.8538055419922 198.0468902587891 147.9900360107422 196.22802734375 C 148.1022186279297 194.6015167236328 148.2143859863281 192.7586059570312 147.5894165039062 190.1625213623047 C 127.3336181640625 184.6899261474609 107.0457611083984 177.3744354248047 87.41493988037109 170.307373046875 C 62.72018051147461 161.4374542236328 39.39556121826172 153.0402526855469 16.9843807220459 148.2407073974609 M 157.4288482666016 184.5617370605469 C 156.5314331054688 185.2668304443359 155.7381896972656 186.1001586914062 154.968994140625 186.9094085693359 C 153.5507659912109 188.3917388916016 152.0764465332031 189.9141235351562 149.8970336914062 190.6913452148438 C 150.0652923583984 193.7121124267578 151.0829010009766 195.9796447753906 152.0924682617188 198.1591033935547 C 153.0299530029297 200.2343292236328 153.9994506835938 202.3736877441406 154.1917572021484 205.2422027587891 C 155.8343353271484 205.5867462158203 156.1788940429688 206.3318939208984 156.6596527099609 207.3735504150391 C 156.8679504394531 207.8302459716797 157.1163635253906 208.35107421875 157.541015625 208.9520111083984 C 157.9416656494141 206.1075439453125 160.0569763183594 204.5451049804688 162.0761566162109 203.0547485351562 C 163.3902282714844 202.0932312011719 164.7523498535156 201.067626953125 165.6898498535156 199.7215270996094 C 164.7042999267578 198.984375 164.0071868896484 197.7664489746094 163.3180999755859 196.5885925292969 C 162.5168609619141 195.1383361816406 161.6675262451172 193.6479949951172 160.2653198242188 192.7746124267578 C 159.2637481689453 192.8387298583984 158.3182525634766 193.6239776611328 157.5009765625 194.3531036376953 C 156.8840026855469 194.8739013671875 156.3631896972656 195.3466491699219 155.8824157714844 195.3466491699219 C 172.7168579101562 178.2878875732422 186.8831024169922 165.2273864746094 198.9179992675781 155.1155090332031 C 193.0207366943359 161.3012237548828 186.7869415283203 167.1263580322266 180.5611572265625 172.9354858398438 C 176.4907989501953 176.741455078125 172.4524536132812 180.5314025878906 168.4461669921875 184.3373870849609 C 169.8002777099609 185.443115234375 170.7457733154297 187.1818389892578 171.6511993408203 188.8885040283203 C 172.3402862548828 190.1625213623047 173.0373840332031 191.4605712890625 173.9107208251953 192.5502624511719 C 181.0740051269531 184.7940979003906 189.3429565429688 177.1741180419922 197.3315124511719 169.8265991210938 C 205.9610290527344 161.8781127929688 214.8710174560547 153.6812591552734 222.4509429931641 145.4924163818359 C 218.6770172119141 148.3448791503906 215.2556457519531 151.6540679931641 211.9464416503906 154.8591003417969 C 208.7494201660156 157.9519653320312 205.4242095947266 161.1649932861328 201.6182250976562 163.7691040039062 C 207.6036071777344 157.1667327880859 214.2220153808594 151.0691528320312 220.6320648193359 145.1478576660156 L 221.1929779052734 144.6190338134766 C 219.4782867431641 142.02294921875 217.8597259521484 139.3066864013672 216.5296325683594 136.3981323242188 C 212.7236633300781 139.7553863525391 208.8055267333984 142.9524078369141 204.9995422363281 146.0853271484375 C 186.2581329345703 161.3733367919922 170.0406646728516 174.5700531005859 151.2110900878906 192.7586059570312 C 151.9402313232422 190.0823974609375 153.72705078125 188.3196563720703 155.4577484130859 186.6289825439453 C 156.1147766113281 185.9559173583984 156.8038635253906 185.2748413085938 157.4288482666016 184.5617370605469 M 167.3804626464844 186.4126434326172 C 167.4606170654297 187.1177368164062 166.7394866943359 187.6465759277344 166.0984497070312 188.0952758789062 C 165.2651672363281 188.6962127685547 164.784423828125 189.0808258056641 165.0968933105469 189.6336822509766 L 164.3276977539062 189.8340148925781 C 163.9190521240234 189.8340148925781 163.8549499511719 189.8820648193359 163.846923828125 189.8981323242188 C 164.0071868896484 190.5631713867188 164.0472717285156 191.0839538574219 162.91748046875 191.5407104492188 C 163.494384765625 192.7586059570312 164.3276977539062 193.8563232421875 165.1129302978516 194.9139862060547 C 166.2186737060547 196.3802947998047 167.3484344482422 197.8626251220703 167.6449127197266 200.2022857666016 C 168.3980712890625 200.3064422607422 169.1672973632812 200.6750183105469 169.8723907470703 201.0275726318359 L 170.4973602294922 201.3400726318359 C 170.8178863525391 200.3385009765625 171.8434753417969 199.7695922851562 172.8290557861328 199.2087097167969 C 173.6062622070312 198.7600250244141 174.4235229492188 198.3032989501953 174.9363403320312 197.6062164306641 C 174.1991729736328 197.6623077392578 173.7024078369141 197.9587554931641 173.2056274414062 198.2712707519531 C 172.4684906005859 198.7279663085938 171.8915405273438 199.0644989013672 171.2986297607422 199.0644989013672 C 170.9460754394531 199.0644989013672 170.6175689697266 198.9282989501953 170.3211059570312 198.6558380126953 C 170.8579254150391 197.4379425048828 171.8915405273438 196.8770599365234 172.9091644287109 196.3402099609375 L 173.7264404296875 195.8915100097656 C 171.6992492675781 193.2634124755859 169.6079559326172 189.9942474365234 167.3804626464844 186.4126434326172 M 9.420506477355957 112.5286407470703 C 2.810128927230835 116.7512817382812 -0.2907393872737885 129.5634002685547 3.282871007919312 138.3692169189453 C 26.34307289123535 145.30810546875 48.75425720214844 153.5450286865234 70.45232391357422 161.5255889892578 C 94.91471862792969 170.523681640625 120.1944046020508 179.8102722167969 146.6439361572266 187.3821563720703 C 146.4596405029297 186.9013977050781 146.267333984375 186.3244781494141 146.0750579833984 185.755615234375 C 145.4100036621094 183.7364501953125 144.6568145751953 181.4528503417969 143.5430755615234 181.4608612060547 C 143.2305755615234 181.3166351318359 142.9341125488281 181.1563873291016 142.8699951171875 181.1323394775391 C 143.1664733886719 181.4528503417969 143.3667907714844 181.9496307373047 143.2626190185547 182.5906524658203 C 141.1392822265625 179.0971374511719 141.1392822265625 176.3328094482422 141.2755126953125 174.5540313720703 L 141.7642822265625 175.0668487548828 C 142.1729125976562 176.2446746826172 142.5575256347656 177.3343811035156 143.5991668701172 177.7991180419922 C 143.0943450927734 177.2622680664062 143.1905059814453 176.7334289550781 143.2626190185547 176.3247833251953 C 143.3667907714844 175.8760986328125 143.4068450927734 175.5315551757812 143.0142517089844 175.0908508300781 C 143.2305755615234 175.7719421386719 143.2145538330078 176.4369659423828 142.5254669189453 176.4369659423828 C 142.2129669189453 175.8760986328125 142.1729125976562 175.3392333984375 142.1328582763672 174.8344573974609 C 142.0286865234375 173.9370574951172 141.9325408935547 172.9755401611328 142.6536712646484 172.7431793212891 C 142.8619995117188 173.0556640625 142.8619995117188 173.2479553222656 142.8619995117188 173.4482879638672 C 142.8539733886719 173.9931335449219 142.8699951171875 174.3697204589844 143.1584625244141 174.4258117675781 C 141.7001647949219 166.97412109375 143.4549102783203 161.73388671875 148.4948272705078 158.0721435546875 C 158.1499938964844 154.0738525390625 167.1481170654297 147.96826171875 175.8657836914062 142.0710296630859 C 178.3577117919922 140.3803863525391 180.8736724853516 138.6817169189453 183.3735656738281 137.0631713867188 C 177.8208923339844 139.6432189941406 172.3723297119141 142.3514709472656 167.1000518798828 144.9635620117188 C 158.3663177490234 149.2743225097656 149.3521575927734 153.7693786621094 138.9598846435547 156.6378936767578 C 138.4871215820312 157.1106414794922 137.9582824707031 157.6555023193359 137.4535064697266 158.1763000488281 C 135.9391174316406 159.7948760986328 134.3606262207031 161.4614715576172 131.8046264648438 162.1024780273438 C 114.6416854858398 156.0609893798828 98.76076507568359 148.4330291748047 83.37660217285156 141.0774688720703 C 60.66896438598633 130.1963958740234 37.16806411743164 118.9307098388672 9.420506477355957 112.5286407470703 M 148.4467468261719 182.0457763671875 L 148.9595489501953 182.1259002685547 C 149.3521575927734 182.3262176513672 149.7127227783203 182.4303741455078 149.9931793212891 182.4303741455078 L 150.1534271240234 182.4303741455078 L 150.4018096923828 182.5505828857422 L 150.4018096923828 185.9238739013672 C 162.1242218017578 174.8024139404297 175.1767272949219 164.4661712646484 187.7885284423828 154.4664916992188 C 199.0622100830078 145.5084381103516 210.7445678710938 136.2699127197266 221.6176452636719 126.5426483154297 C 220.5279235839844 125.7333831787109 219.6385192871094 124.4593811035156 218.7731781005859 123.2574996948242 C 218.1962738037109 122.4562377929688 217.6193389892578 121.6229248046875 216.9783630371094 120.8617248535156 C 193.1569671630859 134.1385650634766 165.8821258544922 149.8272094726562 145.7625427246094 168.3442840576172 C 145.3539123535156 173.0396575927734 146.7721405029297 178.4962005615234 148.398681640625 181.8775024414062 C 148.398681640625 181.9255828857422 148.4227142333984 181.9736785888672 148.4467468261719 182.0457763671875 M 155.9224853515625 158.9855651855469 L 155.6100158691406 159.1618499755859 C 151.7639617919922 159.1618499755859 148.9835815429688 160.4759063720703 147.3490142822266 163.0719909667969 C 146.4275817871094 164.5462951660156 145.9468383789062 166.3651733398438 145.7625427246094 168.3041839599609 C 147.9259338378906 164.4661712646484 153.7991485595703 160.2435760498047 155.9224853515625 158.9855651855469 M 188.4936218261719 131.0056610107422 C 179.0067291259766 135.3805389404297 169.3595733642578 139.6592407226562 159.9608459472656 143.8418121337891 C 153.2302703857422 146.8304901123047 146.5077056884766 149.8272094726562 139.8252258300781 152.8639526367188 C 136.2515869140625 152.9200439453125 134.2324371337891 154.1379547119141 133.5754089355469 156.5497589111328 C 137.4535064697266 154.5225524902344 141.7963256835938 152.5674896240234 146.2753601074219 150.5723876953125 C 160.2172241210938 144.3225555419922 175.7055511474609 137.3836669921875 188.4936218261719 131.0056610107422 M 7.257110118865967 37.25849151611328 C 5.374153614044189 46.25661468505859 6.319638252258301 54.7819938659668 9.981387138366699 59.99017715454102 C 12.28099727630615 63.23526763916016 15.49404048919678 65.11022186279297 19.56443023681641 65.55891418457031 C 47.11968994140625 91.05494689941406 74.21022033691406 115.5173416137695 103.5923385620117 135.011962890625 L 102.9673614501953 133.9222412109375 C 99.53797912597656 127.90478515625 95.98839569091797 121.671012878418 96.30088806152344 111.9517440795898 C 86.79798126220703 104.0192947387695 77.08674621582031 95.68621063232422 67.32740783691406 87.28903198242188 C 47.35205459594727 70.15012359619141 26.68761444091797 52.41828918457031 7.257110118865967 37.25849151611328 M 103.6965103149414 111.7113723754883 C 101.7254104614258 117.6967620849609 104.6980819702148 126.6708526611328 107.1018447875977 132.9046478271484 C 131.1315612792969 121.8632965087891 157.4769134521484 112.4324951171875 182.9328765869141 103.3061676025391 C 194.0623626708984 99.32392120361328 205.1918334960938 95.32564544677734 216.2011260986328 91.21518707275391 C 213.0441741943359 87.73773193359375 211.1131439208984 77.11305999755859 212.7477111816406 72.810302734375 C 197.3475189208984 79.45273590087891 180.6973876953125 85.18972778320312 164.5921020507812 90.73443603515625 C 145.5462188720703 97.31276702880859 125.8753280639648 104.0833969116211 107.8630447387695 112.0719375610352 C 107.5024795532227 112.1280288696289 107.1739654541016 112.1440505981445 106.909553527832 112.1440505981445 C 106.1724014282227 112.1440505981445 105.5634384155273 112.0238571166992 104.9865341186523 111.9196929931641 C 104.5698623657227 111.8155288696289 104.1532211303711 111.7434310913086 103.6965103149414 111.7113723754883 M 215.6001892089844 85.34197235107422 C 215.8165283203125 86.47975921630859 216.3934326171875 87.25698852539062 216.9863739013672 88.082275390625 C 217.6914672851562 89.05179595947266 218.4446563720703 90.08541870117188 218.5087432861328 91.76004791259766 C 203.3088836669922 98.39446258544922 187.1715545654297 104.219612121582 171.5790710449219 109.8684692382812 C 153.4866638183594 116.40673828125 134.769287109375 123.1533279418945 117.5422439575195 131.0056610107422 C 154.8167724609375 118.6342239379883 192.4839019775391 104.2276306152344 220.8083648681641 91.21518707275391 C 219.3981475830078 90.82257843017578 218.6609954833984 89.50850677490234 217.9318237304688 88.24251556396484 C 217.2908325195312 87.08872222900391 216.6578521728516 85.97496795654297 215.6001892089844 85.34197235107422 M 15.26968955993652 107.8733444213867 C 15.37385272979736 109.0111236572266 14.75688457489014 109.7723236083984 14.15594100952148 110.5094757080078 C 13.8754997253418 110.8540267944336 13.59506034851074 111.2065734863281 13.36269569396973 111.6152191162109 C 17.87377738952637 112.6488342285156 22.29672050476074 114.1712341308594 26.58345222473145 115.6295166015625 C 29.98879623413086 116.7913513183594 33.40215301513672 117.9692001342773 36.92769622802734 119.0268478393555 C 34.66012954711914 117.7528533935547 31.57528686523438 116.2545013427734 28.32217979431152 114.6920471191406 C 23.92327499389648 112.568717956543 18.93143653869629 110.1408996582031 15.26968955993652 107.8733444213867 M 10.63841819763184 33.89320373535156 L 10.49419212341309 33.92525863647461 C 9.869211196899414 33.92525863647461 9.420506477355957 34.04544448852539 9.132053375244141 34.29383850097656 C 40.99007034301758 61.48051452636719 69.73118591308594 86.27944183349609 98.66460418701172 112.2642288208008 C 98.71267700195312 112.5046157836914 98.72870635986328 112.8010787963867 98.72870635986328 113.1376037597656 C 99.00914764404297 112.1280288696289 99.65815734863281 111.5350952148438 100.3071899414062 110.9581832885742 C 100.6837768554688 110.5896148681641 101.092414855957 110.2130126953125 101.3728637695312 109.7643051147461 C 95.00286865234375 104.3878707885742 88.56875610351562 98.74702453613281 82.13465881347656 93.07411193847656 C 59.01837158203125 72.71414947509766 35.12485885620117 51.66510009765625 10.63841819763184 33.89320373535156 M 17.94589042663574 32.39485549926758 C 17.2487964630127 32.39485549926758 16.55971527099609 32.61920547485352 15.83056926727295 33.05989837646484 C 32.90537261962891 48.35591125488281 51.5907096862793 64.17273712158203 69.65908050537109 79.49278259277344 C 81.39749908447266 89.42838287353516 93.13591766357422 99.38001251220703 104.5378265380859 109.3075942993164 C 118.760139465332 103.8590469360352 132.9344024658203 99.01143646240234 146.6599578857422 94.31606292724609 C 170.4653167724609 86.18328857421875 192.9486236572266 78.48320007324219 214.50244140625 68.50754547119141 C 195.0078735351562 56.13612747192383 175.969970703125 42.52275466918945 157.5650787353516 29.35007476806641 C 144.8891754150391 20.29586219787598 131.7966156005859 10.91313076019287 118.6559982299805 1.947056651115417 C 101.8856582641602 7.403623104095459 83.82530975341797 12.08296871185303 66.36590576171875 16.58603668212891 C 50.98175048828125 20.56027603149414 35.06075668334961 24.66271781921387 20.01313591003418 29.26994895935059 C 32.29641723632812 40.63178253173828 45.51717758178711 51.64107131958008 58.30524444580078 62.28177261352539 C 74.98743438720703 76.16756439208984 92.23050689697266 90.54213714599609 107.5024795532227 106.3669815063477 C 97.1422119140625 98.77105712890625 87.23867034912109 90.40591430664062 77.66364288330078 82.31320953369141 C 72.28720092773438 77.77008819580078 66.91075897216797 73.23497009277344 61.46220397949219 68.77196502685547 C 54.65953063964844 62.31382751464844 47.19180297851562 56.26432037353516 40.00452041625977 50.42315673828125 L 38.78660583496094 49.44562149047852 C 36.97576522827148 47.53062057495117 34.84441757202148 45.88803863525391 32.80120849609375 44.30956268310547 C 30.97434234619141 42.86729431152344 29.08337593078613 41.41701889038086 27.42477226257324 39.7584114074707 C 26.02256774902344 39.10138320922852 24.70049285888672 37.66713333129883 23.46655464172363 36.25691604614258 C 21.74385452270508 34.34191131591797 20.01313591003418 32.39485549926758 17.94589042663574 32.39485549926758 M 18.60292053222656 69.18060302734375 C 16.64785385131836 70.37448120117188 14.86906051635742 71.94493865966797 13.1463565826416 73.475341796875 C 12.37714767456055 74.14038848876953 11.62396430969238 74.84548950195312 10.81469535827637 75.50252532958984 C 14.50849342346191 76.82460021972656 18.09813117980957 78.52327728271484 21.60763931274414 80.18186950683594 C 28.1939811706543 83.29076385498047 34.41975021362305 86.22335052490234 40.74969100952148 88.0582275390625 C 37.42446899414062 85.35799407958984 34.23545837402344 82.53756713867188 31.03844451904297 79.71715545654297 C 27.04818153381348 76.19160461425781 22.90567398071289 72.54588317871094 18.60292053222656 69.18060302734375 M 215.5280609130859 78.98799896240234 C 215.1835327148438 83.27471923828125 217.4110260009766 84.88525390625 219.7747497558594 86.57591247558594 C 220.1673583984375 86.87237548828125 220.5760040283203 87.16082763671875 220.9685974121094 87.45729064941406 L 222.4268951416016 86.68808746337891 C 224.6463775634766 85.69452667236328 226.9219512939453 84.65289306640625 228.7728729248047 83.25870513916016 C 223.3403472900391 82.42539215087891 218.9894866943359 80.94307708740234 215.5280609130859 78.98799896240234 M 173.4380035400391 183.9848327636719 L 173.0774383544922 183.9848327636719 L 173.2777557373047 183.7284393310547 C 179.8480682373047 177.1981811523438 186.7469024658203 170.8201446533203 193.4213714599609 164.6184234619141 C 201.5460968017578 157.0946197509766 209.9513092041016 149.2983856201172 217.8196716308594 141.2617645263672 C 210.3359069824219 151.9906005859375 195.7690582275391 164.3940734863281 189.8717803955078 169.2256622314453 C 188.5817718505859 171.4050903320312 186.9632415771484 173.2800445556641 185.6732025146484 174.6661987304688 C 185.2004699707031 175.0347747802734 184.6796569824219 175.18701171875 184.0546569824219 175.18701171875 C 183.8623657226562 175.18701171875 183.6540374755859 175.18701171875 183.4376831054688 175.1389312744141 C 181.1220550537109 177.8712158203125 175.168701171875 183.9848327636719 173.4380035400391 183.9848327636719 M 168.0054779052734 163.3524322509766 L 167.8051452636719 163.1200561523438 C 175.9058685302734 155.387939453125 185.5690460205078 147.7839965820312 194.9197082519531 140.4044189453125 C 202.3313598632812 134.5472106933594 210.0314331054688 128.4896850585938 216.9863739013672 122.3520736694336 C 208.4689788818359 131.2861022949219 197.7241058349609 139.6592407226562 187.3237915039062 147.7839965820312 C 180.8656616210938 152.8399353027344 174.1591033935547 158.0801544189453 168.0054779052734 163.3524322509766 M 130.3864135742188 154.4905242919922 C 130.0899353027344 153.9696960449219 129.841552734375 153.3287048339844 129.5611114501953 152.4313049316406 C 130.2261505126953 153.0322570800781 130.4825592041016 153.6812591552734 130.6508178710938 154.3703460693359 L 130.3864135742188 154.4905242919922 Z M 155.7862854003906 135.2122497558594 L 155.6500549316406 134.9318237304688 C 165.2090606689453 130.2524871826172 175.3129272460938 125.8776168823242 185.0963134765625 121.671012878418 C 198.2289276123047 116.0061111450195 211.8022308349609 110.1408996582031 224.1656341552734 103.4263610839844 C 208.4289398193359 113.522216796875 186.7709197998047 122.4321899414062 165.8340606689453 131.0537414550781 L 155.7862854003906 135.2122497558594 Z M 138.9598846435547 112.5126266479492 L 138.8637237548828 112.2241668701172 C 145.337890625 109.7883453369141 151.8280639648438 107.3685455322266 158.3022308349609 104.9247055053711 C 174.1270751953125 99.01143646240234 190.5047760009766 92.86578369140625 206.3777008056641 86.60796356201172 C 183.3174896240234 98.03389739990234 151.5476226806641 108.5143585205078 138.9598846435547 112.5126266479492 M 206.4978942871094 86.88840484619141 L 206.7062377929688 86.46373748779297 C 207.5074920654297 86.07912445068359 208.292724609375 85.71856689453125 209.0298767089844 85.34197235107422 C 209.2302093505859 85.6624755859375 209.2141571044922 86.04708862304688 208.7895050048828 86.04708862304688 L 207.4433746337891 86.52783203125 L 206.4978942871094 86.88840484619141 Z" fill="#3f85de" stroke="none" stroke-width="0"/>
</svg>