<svg xmlns="http://www.w3.org/2000/svg" width="13" height="11" viewBox="0 0.02364985458552837 12.5421257019043 11.465533571317792" fill="none">
  <path d="M 1.192092895507812e-07 5.245652675628662 C 0.02364985458552837 5.250946998596191 0.1351919025182724 4.319077491760254 0.2100238353013992 4.336372852325439 C 0.2608531415462494 4.348374843597412 0.2266140282154083 5.454617023468018 0.309564620256424 5.473679065704346 L 0.7384365200996399 3.616291999816895 C 0.8888064622879028 3.650883913040161 0.5958322882652283 5.696410179138184 0.6191290616989136 5.701704025268555 L 1.266849398612976 2.896210432052612 C 1.357212543487549 2.917036056518555 0.9209277629852295 5.927966117858887 0.9290463328361511 5.92972993850708 C 1.159190058708191 5.983030796051025 1.673130750656128 2.147890329360962 1.795614957809448 2.17612886428833 C 2.078706026077271 2.241430282592773 1.238610863685608 6.157755374908447 1.238610863685608 6.157755374908447 L 2.32402777671814 1.456047296524048 L 1.548175454139709 6.385781764984131 C 1.763140797615051 6.435199737548828 2.852441072463989 0.735612690448761 2.852441072463989 0.735612690448761 C 3.039873838424683 0.7790294289588928 1.857739686965942 6.613808155059814 1.857739686965942 6.613808155059814 L 3.381206750869751 0.0155312167480588 C 3.381206750869751 0.0155312167480588 1.922335147857666 6.785003662109375 2.167304277420044 6.841833591461182 C 2.446159601211548 6.906076431274414 3.746894836425781 0 3.746894836425781 0 C 3.746894836425781 0 2.187424182891846 7.002793312072754 2.476868867874146 7.069859504699707 C 2.863030433654785 7.158810615539551 4.055047988891602 0.2273198068141937 4.056459903717041 0.2280256897211075 C 4.308135032653809 0.2859146595001221 2.288729906082153 7.182812213897705 2.786786317825317 7.297884464263916 C 2.786786317825317 7.297884464263916 4.071637630462646 0.3875733613967896 4.366376876831055 0.4556984901428223 C 4.639937877655029 0.518882155418396 2.912800550460815 7.483553409576416 3.096350908279419 7.525910377502441 C 3.539695024490356 7.628275394439697 4.116466045379639 0.5541805624961853 4.675940990447998 0.6833714842796326 C 4.925498962402344 0.7409075498580933 3.405915498733521 7.753583908081055 3.405915498733521 7.753583908081055 C 3.720421314239502 7.826298713684082 4.9855055809021 0.9110445976257324 4.9855055809021 0.9110445976257324 C 5.109049320220947 0.9392828345298767 3.715479612350464 7.981608867645264 3.715479612350464 7.981608867645264 C 4.238245010375977 8.102329254150391 5.295423030853271 1.13871705532074 5.295423030853271 1.13871705532074 C 5.295423030853271 1.13871705532074 3.872909545898438 8.174690246582031 4.025043964385986 8.209634780883789 C 4.174355030059814 8.244227409362793 5.27812671661377 1.290851831436157 5.604988098144531 1.366389989852905 C 5.604988098144531 1.366389989852905 3.771250486373901 8.307764053344727 4.334608554840088 8.437662124633789 C 4.334608554840088 8.437662124633789 5.903256893157959 1.591239333152771 5.914905071258545 1.594062924385071 C 6.04797887802124 1.624772071838379 4.105876445770264 8.541439056396484 4.644525527954102 8.66568660736084 C 4.644525527954102 8.66568660736084 5.778301239013672 1.718665242195129 6.224469661712646 1.821735978126526 L 4.954090118408203 8.893712997436523 C 4.954090118408203 8.893712997436523 6.527327060699463 2.047996759414673 6.534034252166748 2.049408435821533 C 6.534034252166748 2.049408435821533 4.750067234039307 9.003137588500977 5.263654232025146 9.121738433837891 C 5.282715797424316 9.126328468322754 6.84395170211792 2.277081489562988 6.84395170211792 2.277081489562988 C 7.076212882995605 2.330734252929688 5.573219299316406 9.349764823913574 5.573219299316406 9.349764823913574 C 5.573219299316406 9.349764823913574 6.852423191070557 2.435216903686523 7.153515338897705 2.504754066467285 C 7.662867546081543 2.622296810150146 5.88278341293335 9.577789306640625 5.88278341293335 9.577789306640625 C 6.068099498748779 9.620501518249512 7.463433265686035 2.73242712020874 7.463433265686035 2.73242712020874 C 7.543559551239014 2.751134872436523 6.0472731590271 9.772283554077148 6.192348003387451 9.805814743041992 C 6.496970653533936 9.876059532165527 7.772998332977295 2.960099935531616 7.772998332977295 2.960099935531616 C 7.866890430450439 2.981984853744507 6.502265930175781 10.03384113311768 6.502265930175781 10.03384113311768 C 6.845363616943359 10.11326313018799 8.082561492919922 3.187772750854492 8.082561492919922 3.187772750854492 C 8.082561492919922 3.187772750854492 6.380839824676514 10.16232681274414 6.811829566955566 10.26186847686768 L 8.39247989654541 3.415445566177368 C 8.46378231048584 3.432035684585571 6.895487785339355 10.43765449523926 7.121394157409668 10.48989486694336 C 7.454256534576416 10.56684303283691 8.702043533325195 3.643118143081665 8.702043533325195 3.643118143081665 C 8.702043533325195 3.643118143081665 7.134101390838623 10.64943885803223 7.430959224700928 10.71791839599609 C 7.781469821929932 10.79875183105469 9.011609077453613 3.871143817901611 9.011609077453613 3.871143817901611 C 9.170804023742676 3.907853841781616 7.740522861480713 10.94594383239746 7.740522861480713 10.94594383239746 C 8.280585289001465 11.07054710388184 9.055378913879395 4.037398338317871 9.321526527404785 4.098816871643066 C 9.566847801208496 4.155293941497803 8.050440788269043 11.17397117614746 8.050440788269043 11.17397117614746 C 8.090681076049805 11.18314933776855 9.289051055908203 4.247421741485596 9.631092071533203 4.32649040222168 C 9.631092071533203 4.32649040222168 8.085033416748047 11.33846187591553 8.360005378723145 11.40199661254883 C 8.883123397827148 11.5227165222168 9.941009521484375 4.554162979125977 9.941009521484375 4.554162979125977 C 9.941009521484375 4.554162979125977 8.486372947692871 11.58766555786133 8.669569969177246 11.63002300262451 C 8.986546516418457 11.70308876037598 10.25057315826416 4.781836032867432 10.25057315826416 4.781836032867432 C 10.25057315826416 4.781836032867432 8.475783348083496 11.74191761016846 8.979135513305664 11.8580493927002 C 9.476838111877441 11.97276782989502 10.06984615325928 4.896201610565186 10.56013774871826 5.00950813293457 C 10.56013774871826 5.00950813293457 8.775111198425293 11.9674711227417 9.288699150085449 12.08607578277588 C 9.288699150085449 12.08607578277588 10.66073799133301 5.188823223114014 10.87005424499512 5.237181186676025 C 11.31975173950195 5.340958118438721 9.429537773132324 12.2749195098877 9.598263740539551 12.31410121917725 C 10.1351490020752 12.43799591064453 11.17961883544922 5.46485424041748 11.17961883544922 5.46485424041748 C 11.17961883544922 5.46485424041748 9.679097175598145 12.48917961120605 9.908181190490723 12.5421257019043 C 9.908181190490723 12.5421257019043 11.26998233795166 5.642050743103027 11.48918342590332 5.692527294158936" fill="none" stroke="#2777df" stroke-width="0.30000001192092896"/>
</svg>