<svg xmlns="http://www.w3.org/2000/svg" width="1" height="1" viewBox="303.7940063476562 256.1600036621094 1 1.21319580078125" fill="none">
  <path d="M 303.9959411621094 256.1600036621094 C 304.0528564453125 256.1693115234375 304.0238342285156 256.21044921875 303.9959411621094 256.21044921875 C 304.0083312988281 256.2745056152344 304.095703125 256.260986328125 304.0966186523438 256.21044921875 C 304.1392517089844 256.6585998535156 304.111572265625 256.5514221191406 303.9450988769531 256.9183044433594 C 304.048583984375 256.9044799804688 304.0460815429688 256.7829284667969 304.0966186523438 256.7158508300781 C 304.1992492675781 256.8091735839844 304.0348205566406 256.9549560546875 304.1476745605469 257.1205139160156 C 304.0582580566406 257.1658935546875 304.0331420898438 257.1244812011719 304.0966186523438 257.3227233886719 C 304.0379943847656 257.3145141601562 304.0062866210938 257.3334350585938 303.9959411621094 257.3731994628906 C 303.9248352050781 257.3551330566406 303.9908752441406 257.2837829589844 304.0460815429688 257.2716369628906 C 304.0281066894531 257.2140808105469 303.9572143554688 257.1436157226562 303.9450988769531 257.22119140625 C 303.8650207519531 257.3725891113281 303.8884582519531 257.0364685058594 304.0460815429688 257.1205139160156 C 304.0418701171875 257.0483093261719 304.0379943847656 256.9772644042969 304.0966186523438 256.9687805175781 C 304.0511779785156 256.8906860351562 303.9110717773438 256.9425659179688 303.8946533203125 256.9687805175781 C 303.80078125 256.9174499511719 304.1019287109375 256.6887512207031 303.7940063476562 256.7158508300781 C 303.8216552734375 256.6112365722656 303.8724060058594 256.6087036132812 303.9450988769531 256.6656494140625 C 303.8464660644531 256.5669555664062 304.0469360351562 256.5102844238281 304.0460815429688 256.3621826171875 C 303.9618225097656 256.19580078125 303.8402709960938 256.3721008300781 303.9959411621094 256.1600036621094" fill="#2777df" stroke="none" stroke-width="0"/>
</svg>