<svg xmlns="http://www.w3.org/2000/svg" width="9" height="10" viewBox="191.0933532714844 260.0587768554688 9.259338378906193 10.210205078125" fill="none">
  <path d="M 200.0359802246094 264.0769958496094 C 199.4941101074219 262.3032836914062 198.0487365722656 260.5276489257812 196.1181030273438 260.3066711425781 C 193.9498596191406 260.0587768554688 192.0696716308594 262.1419677734375 191.5859069824219 264.0869445800781 C 191.0933532714844 266.0663146972656 191.9114074707031 268.2676391601562 193.7119140625 269.2999572753906 C 195.4022979736328 270.2689819335938 197.60302734375 269.8584594726562 198.8520812988281 268.3805847167969 C 198.8755950927734 268.3526916503906 198.8912658691406 268.3232421875 198.9031219482422 268.2934265136719 C 198.9516754150391 268.2745056152344 198.9973449707031 268.2424011230469 199.0346221923828 268.1923217773438 C 199.4851226806641 267.5873718261719 199.7731628417969 266.9132690429688 199.9686889648438 266.1871032714844 C 200.1403350830078 265.5502624511719 200.3526916503906 264.8443908691406 200.1219787597656 264.2022094726562 C 200.1026916503906 264.1482849121094 200.0720977783203 264.1077575683594 200.0359802246094 264.0769958496094 M 199.5476226806641 265.7987365722656 C 199.3366088867188 265.7918701171875 199.1297912597656 265.7669982910156 198.9275817871094 265.7200012207031 C 199.0483703613281 265.6131591796875 199.1689758300781 265.5063171386719 199.2895965576172 265.3994445800781 C 199.3992919921875 265.4246826171875 199.5092010498047 265.4497375488281 199.6189117431641 265.4749755859375 C 199.6005706787109 265.5820007324219 199.5755310058594 265.690185546875 199.5476226806641 265.7987365722656 M 199.6449127197266 265.2849731445312 C 199.5850830078125 265.2712097167969 199.5252685546875 265.2574462890625 199.4654388427734 265.2438659667969 C 199.5069122314453 265.2070007324219 199.548583984375 265.1701049804688 199.5900573730469 265.1333923339844 C 199.682373046875 265.0516052246094 199.5466766357422 264.9168395996094 199.4549255371094 264.9982604980469 C 199.3821105957031 265.0626831054688 199.3094787597656 265.1270751953125 199.2366485595703 265.1914978027344 C 199.1139373779297 265.1634216308594 198.9912414550781 265.1353149414062 198.8683166503906 265.1072082519531 C 198.944580078125 265.0309753417969 199.0221862792969 264.9564208984375 199.0963592529297 264.8784484863281 C 199.2832946777344 264.9237365722656 199.4723205566406 264.9577331542969 199.6645965576172 264.9759216308594 C 199.6642150878906 265.0766296386719 199.6571502685547 265.1800231933594 199.6449127197266 265.2849731445312 M 198.8022155761719 262.7786254882812 C 198.7947387695312 262.7853088378906 198.7872924804688 262.7922058105469 198.7813720703125 262.8025207519531 C 198.7028198242188 262.9420471191406 198.6208190917969 263.0792846679688 198.5367126464844 263.2151794433594 C 198.5258178710938 263.2023620605469 198.5118713378906 263.1914672851562 198.4912261962891 263.1861267089844 C 198.4283447265625 263.1694946289062 198.3650817871094 263.1551818847656 198.302001953125 263.1390991210938 C 198.4285278320312 262.9598083496094 198.5554504394531 262.7810974121094 198.6798706054688 262.6004943847656 C 198.7217254638672 262.6591491699219 198.7628173828125 262.7182312011719 198.8022155761719 262.7786254882812 M 199.2349243164062 263.5756530761719 C 199.2265319824219 263.5815734863281 199.2181091308594 263.5877075195312 199.2110290527344 263.5968627929688 L 199.1473846435547 263.6817321777344 C 199.0894775390625 263.6591796875 199.0319519042969 263.6354675292969 198.974609375 263.6117858886719 C 199.0164642333984 263.5443115234375 199.0583190917969 263.4766540527344 199.1003723144531 263.4089660644531 C 199.1653442382812 263.3042297363281 199.0000305175781 263.2080993652344 198.9352264404297 263.3126525878906 C 198.8887939453125 263.3873901367188 198.842529296875 263.4621276855469 198.7960815429688 263.536865234375 C 198.7339782714844 263.5097045898438 198.6724243164062 263.4812316894531 198.6110534667969 263.4525451660156 C 198.7150421142578 263.2899169921875 198.8161468505859 263.1251525878906 198.9122924804688 262.9569396972656 C 199.03271484375 263.157470703125 199.1405029296875 263.3644409179688 199.2349243164062 263.5756530761719 M 198.4369506835938 263.371337890625 C 198.4342651367188 263.3699951171875 198.431396484375 263.3688354492188 198.4287261962891 263.3675231933594 C 198.4317932128906 263.3682556152344 198.4348449707031 263.3688354492188 198.4380950927734 263.3697814941406 L 198.4369506835938 263.371337890625 M 198.3662261962891 263.3520202636719 C 198.2805938720703 263.3568115234375 198.2255554199219 263.4802856445312 198.3188171386719 263.5261535644531 C 198.3237915039062 263.5286254882812 198.3287658691406 263.5307312011719 198.333740234375 263.5332336425781 C 198.2601318359375 263.6442565917969 198.1840667724609 263.7537841796875 198.1064758300781 263.8623352050781 C 198.0155029296875 263.8394165039062 197.9244995117188 263.8164672851562 197.8335266113281 263.7937316894531 C 197.9510803222656 263.6318359375 198.0684204101562 263.469970703125 198.1844482421875 263.3069152832031 C 198.2450408935547 263.3222045898438 198.3058166503906 263.336181640625 198.3662261962891 263.3520202636719 M 198.5072784423828 263.6142578125 C 198.569580078125 263.643310546875 198.6317138671875 263.6729431152344 198.694580078125 263.7006530761719 C 198.63916015625 263.7899169921875 198.5839233398438 263.8791809082031 198.5284881591797 263.9684448242188 L 198.3025665283203 263.9116516113281 C 198.3719482421875 263.8134155273438 198.4407653808594 263.714599609375 198.5072784423828 263.6142578125 M 198.8729248046875 263.7755737304688 C 198.9247131347656 263.7971801757812 198.9761352539062 263.8197326660156 199.0283203125 263.840576171875 L 198.8683166503906 264.0538635253906 C 198.8197937011719 264.0416564941406 198.7714233398438 264.0294189453125 198.7230682373047 264.0173645019531 C 198.7729644775391 263.9367065429688 198.8230285644531 263.8562316894531 198.8729248046875 263.7755737304688 M 199.2137145996094 263.9099426269531 C 199.2752685546875 263.9328918457031 199.3366088867188 263.9565734863281 199.3987426757812 263.9783630371094 C 199.4260559082031 264.0540466308594 199.4505310058594 264.130126953125 199.4744262695312 264.2062072753906 C 199.3388977050781 264.1721801757812 199.2033996582031 264.1379699707031 199.0680541992188 264.1039428710938 C 199.1166076660156 264.0393371582031 199.1651611328125 263.9747619628906 199.2137145996094 263.9099426269531 M 199.3075561523438 264.3612365722656 C 199.2169647216797 264.4646301269531 199.1246337890625 264.5663146972656 199.0307922363281 264.6664428710938 C 198.9266357421875 264.6380004882812 198.8230285644531 264.6049194335938 198.7201995849609 264.567626953125 C 198.7947387695312 264.46826171875 198.8691101074219 264.3690490722656 198.9436340332031 264.2698669433594 C 199.0648193359375 264.3002624511719 199.1861877441406 264.3308410644531 199.3075561523438 264.3612365722656 M 199.2431488037109 264.7165222167969 C 199.3377532958984 264.6137084960938 199.4333190917969 264.51220703125 199.5245056152344 264.4061279296875 C 199.5269775390625 264.4032592773438 199.5275573730469 264.3998107910156 199.5296630859375 264.3967590332031 C 199.5449523925781 264.4521789550781 199.5615844726562 264.5076293945312 199.5747680664062 264.5628662109375 C 199.5883331298828 264.6186828613281 199.6137542724609 264.6605224609375 199.6456756591797 264.6928405761719 C 199.6496887207031 264.7232360839844 199.6552429199219 264.7528381347656 199.65771484375 264.7839965820312 C 199.5178070068359 264.7698669433594 199.3800048828125 264.74560546875 199.2431488037109 264.7165222167969 M 198.56787109375 262.4498901367188 C 198.5541076660156 262.4567565917969 198.5412902832031 262.4661254882812 198.5307922363281 262.4813842773438 C 198.3902893066406 262.685546875 198.2467651367188 262.8875732421875 198.1037902832031 263.0899658203125 C 198.05810546875 263.0787048339844 198.0122375488281 263.0668640136719 197.9663696289062 263.0559692382812 C 198.1204223632812 262.8021240234375 198.2685546875 262.5448608398438 198.4036865234375 262.2801513671875 C 198.4084625244141 262.2709655761719 198.409423828125 262.2623596191406 198.4113159179688 262.2535705566406 C 198.4652404785156 262.3172302246094 198.5170288085938 262.3831481933594 198.56787109375 262.4498901367188 M 197.6303558349609 262.1585693359375 C 197.5374603271484 262.1413879394531 197.4449615478516 262.1222839355469 197.3522644042969 262.1044921875 C 197.4554748535156 261.9382019042969 197.5588684082031 261.7720947265625 197.6620788574219 261.6058349609375 C 197.7031860351562 261.6180725097656 197.7446594238281 261.6285705566406 197.7855529785156 261.6415710449219 C 197.8599090576172 261.701171875 197.93310546875 261.7625427246094 198.0036315917969 261.8273315429688 C 197.774658203125 262.1364135742188 197.5693817138672 262.460205078125 197.3914489746094 262.8028869628906 C 197.3616180419922 262.8602294921875 197.3935394287109 262.9131774902344 197.4382629394531 262.935546875 C 197.2608947753906 262.8969421386719 197.0829467773438 262.8596801757812 196.9048004150391 262.8248901367188 C 197.0179595947266 262.6425476074219 197.1313171386719 262.460205078125 197.2446441650391 262.27783203125 C 197.3562622070312 262.2992553710938 197.4676971435547 262.3222045898438 197.5797119140625 262.3428344726562 C 197.6999206542969 262.3652038574219 197.7513427734375 262.1809387207031 197.6303558349609 262.1585693359375 M 197.0720520019531 261.1885986328125 C 197.0636291503906 261.2103576660156 197.0546569824219 261.2317810058594 197.0460510253906 261.2533569335938 C 196.9306030273438 261.2300415039062 196.8146057128906 261.2109375 196.6981811523438 261.1931457519531 C 196.7247619628906 261.1492004394531 196.7513275146484 261.1054382324219 196.7778930664062 261.0614624023438 C 196.8780517578125 261.0995178222656 196.9762878417969 261.1417236328125 197.0720520019531 261.1885986328125 M 197.3014068603516 261.3103332519531 C 197.279052734375 261.3049621582031 197.2565002441406 261.3003845214844 197.234130859375 261.2952270507812 C 197.23681640625 261.2883605957031 197.2396697998047 261.2816772460938 197.2423400878906 261.2745666503906 C 197.2624206542969 261.2858581542969 197.2815246582031 261.2986755371094 197.3014068603516 261.3103332519531 M 196.9738159179688 261.4324645996094 C 196.8948669433594 261.6182556152344 196.8082885742188 261.8004150390625 196.7165374755859 261.9800720214844 C 196.5701293945312 261.9502563476562 196.4241027832031 261.9181213378906 196.278076171875 261.8869934082031 C 196.3826293945312 261.7143859863281 196.4871826171875 261.5415954589844 196.5917358398438 261.3689880371094 C 196.7197875976562 261.3871765136719 196.8472747802734 261.4074096679688 196.9738159179688 261.4324645996094 M 197.1620788574219 261.4747009277344 C 197.2654724121094 261.4980163574219 197.3688812255859 261.5224914550781 197.4715270996094 261.5503845214844 C 197.3648681640625 261.7220458984375 197.2582092285156 261.8938598632812 197.1515502929688 262.0654907226562 C 197.0712890625 262.0498352050781 196.9908142089844 262.0347290039062 196.9107360839844 262.0186767578125 C 197.0001831054688 261.8401489257812 197.08447265625 261.6591491699219 197.1620788574219 261.4747009277344 M 197.5565795898438 262.8992309570312 C 197.7268676757812 262.571044921875 197.9218444824219 262.258544921875 198.1403045654297 261.9611511230469 C 198.1974487304688 262.0182800292969 198.2532653808594 262.0769653320312 198.3075561523438 262.1371765136719 C 198.2807922363281 262.1387023925781 198.2551727294922 262.1515197753906 198.2387390136719 262.1836242675781 C 198.0948181152344 262.4655456542969 197.9363708496094 262.7386779785156 197.7712249755859 263.0081787109375 C 197.6758422851562 262.9859924316406 197.5798950195312 262.9667053222656 197.4843292236328 262.9456787109375 C 197.5122375488281 262.9449157714844 197.5393676757812 262.9322814941406 197.5565795898438 262.8992309570312 M 198.5411071777344 267.900634765625 C 198.508056640625 267.9159240722656 198.4761199951172 267.9402160644531 198.4465026855469 267.9751892089844 C 197.3593292236328 269.26171875 195.4837188720703 269.6493530273438 194.00146484375 268.8047180175781 C 192.4202117919922 267.9039001464844 191.7080535888672 265.9705810546875 192.138671875 264.2394714355469 C 192.574462890625 262.4880981445312 194.3338623046875 260.4815673828125 196.3216552734375 260.9213562011719 C 196.4143676757812 260.9418334960938 196.5047607421875 260.9678344726562 196.5942077636719 260.9959106445312 C 196.5605773925781 261.0511474609375 196.5271301269531 261.1065673828125 196.4936676025391 261.1618041992188 C 196.3457336425781 261.1432800292969 196.1970367431641 261.1287536621094 196.0471954345703 261.1189880371094 C 195.9242858886719 261.1109924316406 195.9248657226562 261.3020935058594 196.0471954345703 261.3101196289062 C 196.1603393554688 261.3175964355469 196.2721557617188 261.3302001953125 196.3841552734375 261.3428039550781 C 196.2828674316406 261.51025390625 196.1813659667969 261.677490234375 196.0800628662109 261.8449401855469 C 196.0221405029297 261.8323059082031 195.9638366699219 261.8208312988281 195.9059448242188 261.8078308105469 C 195.7861022949219 261.7814636230469 195.73486328125 261.9655456542969 195.8551025390625 261.9923095703125 C 195.8950500488281 262.0010986328125 195.9353637695312 262.0091247558594 195.9755096435547 262.0177307128906 C 195.95849609375 262.0458068847656 195.9414978027344 262.07373046875 195.9246673583984 262.1016235351562 C 195.86083984375 262.2071228027344 196.0259704589844 262.3032836914062 196.0896301269531 262.1981506347656 C 196.1175231933594 262.1520690917969 196.1454315185547 262.1060180664062 196.17333984375 262.0597534179688 C 196.3243255615234 262.0922546386719 196.4753265380859 262.1251525878906 196.6265106201172 262.1560974121094 C 196.5634460449219 262.2732543945312 196.4978790283203 262.3890991210938 196.4292602539062 262.5037536621094 C 196.3659973144531 262.6096801757812 196.5313262939453 262.7059936523438 196.5943908691406 262.6002807617188 C 196.6739196777344 262.4672546386719 196.7486572265625 262.3319396972656 196.8207092285156 262.1954650878906 C 196.8950653076172 262.2103881835938 196.9696044921875 262.22412109375 197.0439453125 262.2388610839844 L 196.7033538818359 262.7870483398438 C 196.3627624511719 262.723388671875 196.0213928222656 262.664306640625 195.6779174804688 262.6148376464844 C 195.5574951171875 262.597412109375 195.5055236816406 262.7816772460938 195.6270751953125 262.799072265625 C 195.9514312744141 262.8459167480469 196.2738647460938 262.9013366699219 196.5955505371094 262.9606018066406 L 196.3495635986328 263.3562316894531 C 196.2845764160156 263.461181640625 196.44970703125 263.55712890625 196.5146942138672 263.4527587890625 C 196.6087341308594 263.3013610839844 196.7027740478516 263.1499938964844 196.7968139648438 262.9984436035156 C 197.087158203125 263.0544128417969 197.376708984375 263.1142578125 197.6649475097656 263.1803894042969 C 197.6347503662109 263.227783203125 197.6072235107422 263.2767333984375 197.5762634277344 263.32373046875 C 197.5086059570312 263.4269714355469 197.6741180419922 263.5229187011719 197.7413940429688 263.4202575683594 C 197.7830810546875 263.3568115234375 197.8205261230469 263.2908630371094 197.8608703613281 263.2266235351562 C 197.9027099609375 263.2366027832031 197.9443969726562 263.2474670410156 197.9860534667969 263.2575988769531 C 197.8702239990234 263.4204711914062 197.7521057128906 263.5819702148438 197.6345520019531 263.74365234375 C 197.3247375488281 263.6658630371094 197.014892578125 263.587890625 196.705078125 263.5101013183594 C 196.5858001708984 263.4800720214844 196.5349731445312 263.6643371582031 196.6542358398438 263.6943359375 C 196.9405517578125 263.7662048339844 197.2268676757812 263.8382873535156 197.51318359375 263.91015625 C 197.4371185302734 264.013916015625 197.3623962402344 264.1188659667969 197.2857360839844 264.2222595214844 C 197.212158203125 264.3208923339844 197.3780517578125 264.416259765625 197.45068359375 264.318603515625 C 197.5390014648438 264.1998901367188 197.6248168945312 264.0794982910156 197.7119750976562 263.960205078125 C 197.8025665283203 263.9829711914062 197.8931579589844 264.0057067871094 197.9835662841797 264.0284729003906 C 197.9325408935547 264.0974426269531 197.882080078125 264.1670227050781 197.8293151855469 264.2348937988281 C 197.7545776367188 264.3308410644531 197.8889617919922 264.4671020507812 197.9644470214844 264.3700256347656 C 198.0391845703125 264.2740783691406 198.1112365722656 264.1765747070312 198.1831207275391 264.0785522460938 C 198.2630004882812 264.0987854003906 198.3428955078125 264.1188659667969 198.4227905273438 264.138916015625 C 198.3383178710938 264.2750244140625 198.2538299560547 264.4112854003906 198.1693420410156 264.5473937988281 C 198.1043701171875 264.6523132324219 198.2695007324219 264.7482604980469 198.3343048095703 264.6439208984375 C 198.4287261962891 264.491943359375 198.52294921875 264.3398132324219 198.6171875 264.1878662109375 C 198.659423828125 264.1983642578125 198.70166015625 264.2090759277344 198.743896484375 264.2195739746094 C 198.6345825195312 264.365234375 198.5254364013672 264.5106811523438 198.4162902832031 264.6561279296875 C 198.3423309326172 264.7545776367188 198.5082397460938 264.8499450683594 198.5812530517578 264.7526550292969 C 198.5888977050781 264.7423400878906 198.5967254638672 264.7322082519531 198.6043701171875 264.7218933105469 C 198.6129760742188 264.7291564941406 198.6223449707031 264.7360229492188 198.6343841552734 264.7404174804688 C 198.7171325683594 264.7713928222656 198.8008728027344 264.796630859375 198.8843841552734 264.8218688964844 C 198.8071746826172 264.9015502929688 198.7272796630859 264.978759765625 198.64794921875 265.0565490722656 C 198.3964233398438 264.9990234375 198.1446838378906 264.9414978027344 197.8931579589844 264.8837890625 C 197.7733154296875 264.8564453125 197.7222900390625 265.0407104492188 197.8423156738281 265.0682067871094 C 198.0573425292969 265.1173400878906 198.2725677490234 265.1666564941406 198.4875793457031 265.2159729003906 C 198.480712890625 265.2224731445312 198.4742126464844 265.2295532226562 198.4673461914062 265.2360534667969 C 198.3775024414062 265.3207092285156 198.5128173828125 265.4556579589844 198.6024780273438 265.3713684082031 C 198.6385803222656 265.337158203125 198.6724243164062 265.3008422851562 198.7081604003906 265.2664184570312 C 198.8257141113281 265.2933959960938 198.9432678222656 265.3201599121094 199.0610046386719 265.3470764160156 C 198.9434509277344 265.4512634277344 198.8258972167969 265.5552368164062 198.7083435058594 265.6593933105469 C 198.5760955810547 265.6181335449219 198.4451599121094 265.5709228515625 198.3169097900391 265.5112609863281 C 198.2060546875 265.4598693847656 198.1087646484375 265.6246032714844 198.2203979492188 265.6763916015625 C 198.3473052978516 265.7352905273438 198.476318359375 265.7840270996094 198.6068572998047 265.8268432617188 C 198.6299896240234 265.8782348632812 198.6995544433594 265.9113159179688 198.7567138671875 265.8690795898438 C 198.9971618652344 265.935791015625 199.2437133789062 265.9751586914062 199.4962158203125 265.98681640625 C 199.2769775390625 266.7182922363281 198.8820953369141 267.4422912597656 198.5411071777344 267.900634765625" fill="#231f20" stroke="#ffffff" stroke-width="1"/>
</svg>