<svg xmlns="http://www.w3.org/2000/svg" width="1" height="1" viewBox="102.3389892578125 301.4738464355469 1 1" fill="none">
  <path d="M 102.3897552490234 301.5860900878906 C 102.397087097168 301.4738464355469 102.5169448852539 301.652099609375 102.642707824707 301.5860900878906 C 102.5928039550781 301.7225646972656 102.5307540893555 301.8452453613281 102.4907150268555 301.990478515625 C 102.5127182006836 302.0654907226562 102.5552978515625 301.9710083007812 102.642707824707 301.990478515625 C 102.6339645385742 302.0499877929688 102.6539993286133 302.0807495117188 102.6926345825195 302.0914611816406 C 102.7947158813477 301.9132385253906 102.6703567504883 302.2696228027344 102.642707824707 302.0914611816406 C 102.5835037231445 302.0993347167969 102.5995712280273 302.1839294433594 102.5919570922852 302.2437133789062 C 102.5488052368164 302.252197265625 102.5437316894531 302.2239990234375 102.5411987304688 302.1929626464844 C 102.4921264648438 302.194091796875 102.502555847168 302.2544555664062 102.4907150268555 302.2936401367188 C 102.3528060913086 302.2129821777344 102.5987319946289 301.9952697753906 102.3389892578125 301.990478515625 C 102.3742523193359 301.9492797851562 102.4182357788086 301.8520202636719 102.3389892578125 301.8390502929688 C 102.4145736694336 301.8243713378906 102.4292373657227 301.7710876464844 102.5411987304688 301.686767578125 C 102.4904403686523 301.617431640625 102.4582824707031 301.7090454101562 102.3897552490234 301.5860900878906" fill="#2777df" stroke="none" stroke-width="0"/>
</svg>