<svg xmlns="http://www.w3.org/2000/svg" width="5" height="16" viewBox="243.2239074707031 299.3560180664062 4.7503662109375 15.893585205078182" fill="none">
  <path d="M 244.2763671875 299.9617919921875 C 244.2986145019531 299.8867492675781 244.3417510986328 299.9814758300781 244.4286193847656 299.9617919921875 C 244.4379272460938 299.8514709472656 244.387451171875 299.8013000488281 244.2763671875 299.8103637695312 C 244.3366851806641 299.6845397949219 244.3502349853516 299.5125732421875 244.3781280517578 299.3560180664062 C 244.4269409179688 299.3568725585938 244.4176177978516 299.4171752929688 244.4286193847656 299.4567260742188 C 244.4779663085938 299.4552307128906 244.4675445556641 299.3943481445312 244.4788360595703 299.3560180664062 C 244.5958557128906 299.3955078125 244.4528656005859 299.5928955078125 244.3781280517578 299.6080932617188 C 244.4215850830078 299.6839904785156 244.4537353515625 299.5942993164062 244.5800476074219 299.6588439941406 C 244.5716094970703 299.7178039550781 244.4881286621094 299.7014465332031 244.4286193847656 299.7096862792969 C 244.5637054443359 299.7584533691406 244.5213928222656 299.9268188476562 244.4286193847656 300.0125427246094 C 244.4407653808594 300.075927734375 244.529296875 300.0635681152344 244.529296875 300.0125427246094 C 244.6043243408203 300.0345153808594 244.5095520019531 300.0773315429688 244.529296875 300.1639709472656 C 244.4889678955078 300.1371459960938 244.4477996826172 300.1109008789062 244.3781280517578 300.1132202148438 C 244.4043426513672 300.1543579101562 244.4306182861328 300.195556640625 244.4286193847656 300.2654724121094 C 244.529296875 300.2440795898438 244.7187957763672 300.0551147460938 244.6311340332031 300.0125427246094 C 244.8296356201172 299.8117370605469 244.5758361816406 300.3071899414062 244.7825317382812 300.1132202148438 C 244.8891754150391 299.9693603515625 244.7160034179688 300.3334350585938 244.6311340332031 300.1639709472656 L 244.6311340332031 300.3661804199219 C 244.6756439208984 300.3433532714844 244.7213745117188 300.3212890625 244.7315063476562 300.2654724121094 C 244.8513488769531 300.279296875 244.6739959716797 300.4005737304688 244.6810150146484 300.4677124023438 C 244.6404113769531 300.4583740234375 244.6311340332031 300.4169616699219 244.5800476074219 300.4169616699219 C 244.5699005126953 300.63916015625 244.8005981445312 300.4628601074219 244.7825317382812 300.3661804199219 C 244.9932098388672 300.49560546875 244.658447265625 300.5071411132812 244.7315063476562 300.7197875976562 C 244.6672210693359 300.877197265625 244.6672210693359 300.5768432617188 244.7315063476562 300.568359375 C 244.3753356933594 300.5545349121094 244.7205047607422 300.7178039550781 244.5800476074219 300.9730224609375 C 244.5312652587891 300.971923828125 244.5406036376953 300.9110412597656 244.529296875 300.8712463378906 C 244.3916778564453 301.0235290527344 244.6508331298828 301.0111389160156 244.529296875 301.2260131835938 C 244.5679168701172 301.0311279296875 244.7721252441406 301.057373046875 244.7825317382812 301.275634765625 C 244.8254089355469 301.2852172851562 244.8296356201172 301.2570190429688 244.8321838378906 301.2260131835938 C 245.0053100585938 301.368408203125 244.6491546630859 301.3240966796875 244.5800476074219 301.275634765625 C 244.6181335449219 301.3717956542969 244.7306671142578 301.3117370605469 244.6311340332031 301.42822265625 C 244.7633819580078 301.2965393066406 244.6705780029297 301.5093688964844 244.8321838378906 301.4781494140625 C 244.9613342285156 301.4425964355469 244.7021636962891 301.5345153808594 244.6311340332031 301.528564453125 C 244.681884765625 301.5962524414062 244.6784820556641 301.7164001464844 244.7825317382812 301.7310485839844 C 244.774658203125 301.8565063476562 244.6113739013672 301.7454223632812 244.5800476074219 301.7310485839844 C 244.6068572998047 301.7716674804688 244.6325073242188 301.8131713867188 244.6311340332031 301.8825073242188 C 244.6756439208984 301.8515319824219 244.7213745117188 301.8212890625 244.7315063476562 301.8825073242188 C 244.7892913818359 301.86669921875 244.9252471923828 301.6436767578125 244.7315063476562 301.6803283691406 C 244.8719329833984 301.4516296386719 244.9063415527344 301.9716491699219 244.9847259521484 301.6803283691406 C 245.0414276123047 301.7079772949219 244.932861328125 301.9961547851562 244.8321838378906 302.0339660644531 C 245.0044708251953 302.1343078613281 244.9348449707031 302.1481628417969 244.9847259521484 302.4894104003906 C 244.8552856445312 302.4152221679688 244.8865966796875 302.1828002929688 244.7315063476562 302.1354675292969 C 244.6113739013672 302.1498413085938 244.78759765625 302.2719421386719 244.8321838378906 302.2871398925781 C 244.8254089355469 302.4126586914062 244.6618499755859 302.3018493652344 244.6311340332031 302.2871398925781 C 244.6937255859375 302.4617309570312 244.7771911621094 302.3805236816406 244.8829345703125 302.4383239746094 C 244.8727874755859 302.506591796875 244.6731262207031 302.5322265625 244.8829345703125 302.5401000976562 C 244.87109375 302.5948486328125 244.7830963134766 302.5743103027344 244.7825317382812 302.6408386230469 C 245.0011138916016 302.6836853027344 244.9802398681641 302.8881530761719 245.1866760253906 302.9436645507812 C 244.9999847412109 303.03759765625 245.0405578613281 303.2090759277344 245.0346527099609 303.4498901367188 C 244.9599151611328 303.4276123046875 245.0543975830078 303.3850708007812 245.0346527099609 303.29736328125 C 244.9664001464844 303.3481140136719 244.9339904785156 303.4324035644531 244.8829345703125 303.4997863769531 C 244.9974365234375 303.5654907226562 245.1136322021484 303.7767333984375 244.8829345703125 303.8035583496094 C 244.8925323486328 303.8435974121094 244.9339904785156 303.8534240722656 244.9339904785156 303.9039306640625 C 244.9813690185547 303.866943359375 245.0103759765625 303.8125610351562 245.0346527099609 303.7528076171875 C 245.1722717285156 303.7987365722656 244.9926452636719 303.9383544921875 244.9339904785156 303.9550170898438 C 245.2069549560547 303.9679565429688 245.1697387695312 304.1552124023438 245.1361694335938 304.4600830078125 C 244.9822082519531 304.4631652832031 245.0149078369141 304.2781372070312 244.8321838378906 304.3085632324219 C 244.8341522216797 304.3582458496094 244.8942413330078 304.3477783203125 244.9339904785156 304.3594055175781 C 244.8874664306641 304.4478759765625 244.840087890625 304.5350646972656 244.6810150146484 304.5108337402344 C 244.840087890625 304.6422424316406 244.9294738769531 304.3895568847656 245.1361694335938 304.5108337402344 C 245.1240539550781 304.7011108398438 244.9458312988281 304.7245483398438 244.9339904785156 304.9152221679688 C 244.8677215576172 304.85400390625 244.8538818359375 304.8954467773438 244.7825317382812 304.9152221679688 C 244.8005981445312 304.9944458007812 244.87109375 304.8709411621094 244.8829345703125 304.9651184082031 C 245.0138244628906 304.9611206054688 244.9365234375 304.7493591308594 245.1361694335938 304.8139343261719 C 245.0792083740234 304.752197265625 245.0922088623047 304.7107849121094 245.1866760253906 304.7129821777344 C 245.1793365478516 304.806884765625 245.1533966064453 304.8816528320312 245.0854339599609 304.9152221679688 C 245.1294250488281 304.9916381835938 245.1610107421875 304.9010620117188 245.2876129150391 304.9651184082031 C 245.1429290771484 305.1531982421875 245.4071655273438 305.3094482421875 245.1866760253906 305.4205017089844 C 245.1962432861328 305.4620056152344 245.2376861572266 305.4713439941406 245.2368774414062 305.5220947265625 C 245.3065185546875 305.4713439941406 245.2154235839844 305.4386291503906 245.3383941650391 305.3700866699219 C 245.4071655273438 305.3855590820312 245.3798217773438 305.4967041015625 245.3882904052734 305.5716857910156 C 245.2272644042969 305.6289367675781 245.2935180664062 305.5612487792969 245.2368774414062 305.6735534667969 C 245.3634796142578 305.7518920898438 245.4839019775391 305.8004150390625 245.3882904052734 305.9766540527344 C 245.4570922851562 305.8537292480469 245.4898071289062 305.9450988769531 245.5405883789062 305.875732421875 C 245.6646575927734 305.9391784667969 245.4399108886719 306.0742492675781 245.3882904052734 306.1278381347656 C 245.4706268310547 306.1376342773438 245.5707702636719 306.259521484375 245.6415252685547 306.2798767089844 C 245.6017761230469 306.2398071289062 245.5775299072266 306.5886535644531 245.8944854736328 306.5833129882812 C 245.7650604248047 306.7273864746094 245.9630126953125 306.8500671386719 245.9949188232422 306.9877014160156 C 245.9726104736328 307.0613098144531 245.9508666992188 306.9822998046875 245.8944854736328 306.9877014160156 C 245.9038238525391 307.2374877929688 246.0862579345703 307.2011108398438 246.1973571777344 307.2400512695312 C 246.3056488037109 307.1029968261719 245.8660125732422 307.4806213378906 246.2481231689453 307.5435180664062 C 246.2126007080078 307.7019958496094 246.1127624511719 307.6094665527344 245.9949188232422 307.5937194824219 C 246.0975189208984 307.7434692382812 246.1765289306641 307.7719421386719 246.2988739013672 307.7459411621094 C 246.2213287353516 307.76123046875 246.416748046875 308.2561340332031 246.2988739013672 308.5542297363281 C 246.349365234375 308.5212707519531 246.3505249023438 308.4385681152344 246.4503173828125 308.4535217285156 C 246.4717407226562 308.5590515136719 246.4159088134766 308.5871887207031 246.3992767333984 308.6560668945312 C 246.4452514648438 308.6332092285156 246.4898071289062 308.6111755371094 246.4999389648438 308.5542297363281 C 246.4226837158203 308.8627319335938 246.4012603759766 309.1323547363281 246.2481231689453 309.5149841308594 C 246.0760803222656 309.4188842773438 246.3349761962891 309.3382263183594 246.2988739013672 309.2121276855469 C 246.1931304931641 309.257568359375 246.1449127197266 309.3604736328125 246.1466217041016 309.5149841308594 C 245.9881439208984 309.4580688476562 246.0140686035156 309.5290832519531 245.8944854736328 309.4639587402344 C 246.0301361083984 309.6732177734375 245.8321533203125 309.4933166503906 245.8432006835938 309.6661682128906 C 245.7960815429688 309.6123046875 245.6576080322266 309.6503601074219 245.6920013427734 309.5149841308594 C 245.452880859375 309.8257446289062 245.2616882324219 309.3920288085938 245.0346527099609 309.7169189453125 C 244.9209899902344 309.5254821777344 244.7239074707031 309.6701049804688 244.529296875 309.7679443359375 L 244.529296875 309.6154174804688 C 244.4252319335938 309.7403259277344 244.5871276855469 309.8740234375 244.5800476074219 309.9698791503906 C 244.5301666259766 310.03759765625 244.4450073242188 310.0708618164062 244.3781280517578 310.1216125488281 C 244.4805145263672 310.2837219238281 244.5544128417969 309.9989318847656 244.6810150146484 310.0200805664062 C 244.5560760498047 309.9809265136719 244.5544128417969 309.7691040039062 244.7315063476562 309.7679443359375 C 244.6660766601562 309.8348388671875 244.6655120849609 309.9552612304688 244.7825317382812 309.9698791503906 C 244.7179260253906 310.03955078125 244.5352325439453 310.1125793457031 244.7315063476562 310.1714782714844 C 244.7306671142578 310.2614440917969 244.4932250976562 310.0914306640625 244.4286193847656 310.2222595214844 C 244.4466552734375 310.2888488769531 244.5174560546875 310.3018188476562 244.529296875 310.3736877441406 C 244.5741577148438 310.3520202636719 244.6198272705078 310.3297424316406 244.6311340332031 310.2727355957031 C 244.5786437988281 310.2578125 244.5950164794922 310.2998352050781 244.5800476074219 310.3238220214844 C 244.7179260253906 310.1021118164062 244.7205047607422 310.6901550292969 244.529296875 310.5762023925781 C 244.7582855224609 310.7755432128906 244.6593170166016 310.6985778808594 244.7825317382812 310.9803161621094 C 244.6231994628906 310.9563293457031 244.5758361816406 311.0437316894531 244.529296875 311.1317749023438 C 244.69287109375 311.1943359375 244.5679168701172 310.9687805175781 244.7315063476562 311.0313415527344 C 244.5811920166016 311.2208862304688 244.8959350585938 310.9840087890625 244.8829345703125 311.2332763671875 C 244.7160034179688 311.0590209960938 244.8493804931641 311.5028686523438 244.9339904785156 311.5364074707031 C 244.9915008544922 311.527099609375 244.962158203125 311.4856262207031 244.9339904785156 311.4856262207031 C 244.9348449707031 311.3435974121094 245.0715942382812 311.6066284179688 245.0346527099609 311.3849792480469 C 245.1446380615234 311.5638122558594 245.0157775878906 311.7200622558594 245.2368774414062 311.8401489257812 C 245.1663665771484 311.9083862304688 244.9872741699219 311.9484252929688 244.9339904785156 311.8900756835938 C 245.0335083007812 312.0005798339844 245.1818695068359 311.952392578125 245.3383941650391 312.09228515625 C 245.4641571044922 311.9881896972656 245.2314910888672 312.2033386230469 245.1866760253906 312.2437438964844 C 245.2306671142578 312.3931579589844 245.2616882324219 312.1266784667969 245.3882904052734 312.1940612792969 C 245.3279418945312 312.2516174316406 245.369384765625 312.3212280273438 245.3882904052734 312.2437438964844 C 245.5665130615234 312.2583618164062 245.2616882324219 312.432373046875 245.4390716552734 312.4458923339844 C 245.4968719482422 312.4365844726562 245.4672546386719 312.3954467773438 245.4390716552734 312.3954467773438 C 245.452880859375 312.2772827148438 245.6612854003906 312.3663330078125 245.6920013427734 312.3954467773438 C 245.66552734375 312.4365844726562 245.6395568847656 312.4774780273438 245.6415252685547 312.5476684570312 C 245.5518646240234 312.5104675292969 245.6342163085938 312.4560546875 245.6415252685547 312.3954467773438 C 245.5791931152344 312.4182739257812 245.5380249023438 312.4605407714844 245.5405883789062 312.5476684570312 C 245.6646575927734 312.52880859375 245.7058410644531 312.8468933105469 245.7926788330078 312.6990966796875 C 245.9305877685547 312.7451171875 245.7503967285156 312.885009765625 245.6920013427734 312.9013366699219 C 245.6844024658203 312.9698486328125 245.9740295410156 312.9190673828125 245.8944854736328 312.7490539550781 C 245.9667205810547 312.7609252929688 245.9125518798828 312.9010620117188 245.9949188232422 312.9013366699219 C 245.9881439208984 312.9946899414062 245.8245544433594 312.9323425292969 245.7926788330078 313.0020141601562 C 245.8031158447266 313.059814453125 245.8432006835938 313.0304870605469 245.8432006835938 313.0020141601562 C 245.9029541015625 313.0098876953125 245.8865814208984 313.0945129394531 245.8944854736328 313.1531677246094 C 246.1319427490234 312.805419921875 246.4339904785156 313.6142883300781 246.3992767333984 313.7603149414062 C 246.5208129882812 313.5682678222656 246.7058258056641 313.7555236816406 246.8042602539062 313.5581359863281 C 246.7608032226562 313.5493774414062 246.7568817138672 313.578125 246.7532196044922 313.608642578125 C 246.6344757080078 313.6080627441406 246.7721099853516 313.4710083007812 246.8547210693359 313.5070495605469 C 246.7142944335938 313.3531188964844 247.0321044921875 313.3491821289062 247.0061798095703 313.1531677246094 C 247.2997131347656 313.1822509765625 247.1291198730469 312.9479064941406 247.309326171875 313.2044982910156 C 247.4587707519531 313.1604919433594 247.1922760009766 313.12890625 247.2591400146484 313.0020141601562 C 247.3668365478516 313.0262756347656 247.354736328125 312.9301147460938 247.3598022460938 312.8503112792969 C 247.4046478271484 312.881591796875 247.4503173828125 312.9115295410156 247.4616088867188 312.8503112792969 C 247.5656433105469 312.8784790039062 247.5682220458984 312.928955078125 247.5112609863281 313.0020141601562 C 247.6353149414062 312.9574584960938 247.7309112548828 312.8840942382812 247.9159240722656 312.9013366699219 C 247.7895660400391 312.9430847167969 247.9742736816406 313.2964782714844 247.7644958496094 313.2552490234375 C 247.79296875 313.3023681640625 247.9046020507812 313.3319396972656 247.8152160644531 313.3556213378906 C 247.8231201171875 313.4154052734375 247.9071807861328 313.3990478515625 247.9666595458984 313.4064331054688 C 247.9353790283203 313.4517822265625 247.9054718017578 313.4972534179688 247.9666595458984 313.5070495605469 C 247.8702392578125 313.50537109375 247.8287506103516 313.4873657226562 247.613037109375 313.5581359863281 C 247.8462524414062 313.7366638183594 247.5250701904297 314.0654602050781 247.56201171875 314.3668823242188 C 247.4923553466797 314.5273742675781 247.5121002197266 314.1883850097656 247.5112609863281 314.1137084960938 C 247.4004211425781 314.1714782714844 247.5081176757812 314.4476318359375 247.3598022460938 314.4678955078125 C 247.5112609863281 314.46142578125 247.5439453125 314.6297912597656 247.5112609863281 314.7208557128906 C 247.6559295654297 314.7792663574219 247.4306030273438 314.7792663574219 247.4108581542969 314.7208557128906 C 247.3696746826172 314.7307434082031 247.3598022460938 314.7713623046875 247.309326171875 314.7713623046875 C 247.5166015625 314.8799438476562 247.2842102050781 314.9227600097656 247.309326171875 315.125 C 247.2196502685547 315.1133728027344 247.0560913085938 315.1757507324219 247.1068420410156 315.0239868164062 C 247.0665283203125 315.0333251953125 247.0569152832031 315.074462890625 247.0061798095703 315.074462890625 C 246.9974365234375 315.1331176757812 247.0174407958984 315.1641235351562 247.0569152832031 315.1757507324219 C 246.93115234375 315.2196960449219 246.5766754150391 315.2461547851562 246.4503173828125 315.074462890625 C 246.1635589599609 315.2496032714844 245.8432006835938 315.1133728027344 245.8944854736328 314.8215637207031 C 245.7955017089844 314.84521484375 245.5580596923828 314.67431640625 245.6920013427734 314.5184020996094 C 245.6697387695312 314.4439086914062 245.6277008056641 314.5386657714844 245.5405883789062 314.5184020996094 C 245.5346374511719 314.3931274414062 245.4458160400391 314.3621826171875 245.5405883789062 314.2656860351562 C 245.4776916503906 314.3226928710938 245.4365081787109 314.3102416992188 245.4390716552734 314.2154541015625 C 245.1294250488281 314.27783203125 245.0992431640625 313.7000122070312 244.7825317382812 313.608642578125 C 244.8874664306641 313.4307250976562 244.7842254638672 313.51611328125 244.6810150146484 313.4571838378906 C 244.6824188232422 313.4078369140625 244.7427673339844 313.4182434082031 244.7825317382812 313.4064331054688 C 244.4004211425781 313.2157287597656 244.3366851806641 312.7067565917969 244.0242462158203 312.4458923339844 C 244.1776275634766 312.35595703125 243.8375701904297 312.2479553222656 244.0242462158203 312.14306640625 C 243.7805786132812 312.1001586914062 243.6220855712891 311.4403076171875 243.6198272705078 311.4354553222656 C 243.2349090576172 310.6568603515625 243.2239074707031 309.4664611816406 243.9226989746094 308.9081420898438 C 244.0467834472656 308.8009338378906 243.8477020263672 308.96142578125 243.8728179931641 309.0595703125 C 243.9508972167969 309.0028686523438 243.9776916503906 308.8957214355469 244.1249084472656 308.9081420898438 C 244.1327819824219 309.0930786132812 244.2402648925781 309.0736694335938 244.1756591796875 308.857666015625 C 244.3425903320312 308.8898315429688 244.8149719238281 308.8362121582031 245.1361694335938 308.857666015625 C 245.4097290039062 308.5384216308594 244.9940490722656 308.1718444824219 245.1361694335938 307.8469543457031 C 244.8443145751953 307.3991088867188 244.8987274169922 307.2716369628906 244.6810150146484 306.8359375 C 244.5501708984375 306.572265625 244.2557525634766 306.3714904785156 244.2763671875 306.0274353027344 C 244.2591400146484 305.9569702148438 244.1875 306.0226745605469 244.1756591796875 306.07763671875 C 244.0166015625 306.0059814453125 244.1198425292969 305.6168518066406 244.0749816894531 305.5716857910156 C 244.1198425292969 305.5150451660156 244.1962738037109 305.5844116210938 244.2264251708984 305.4205017089844 C 244.0309906005859 305.5671997070312 244.223876953125 305.1380004882812 244.3781280517578 305.1675720214844 C 244.2137451171875 304.93603515625 244.5050506591797 304.7234191894531 244.2763671875 304.6115112304688 C 244.2943725585938 304.54638671875 244.36572265625 304.5325012207031 244.3781280517578 304.4600830078125 C 244.2340545654297 304.610107421875 244.2805633544922 304.3339538574219 244.4286193847656 304.3594055175781 C 244.1912078857422 304.0900573730469 244.2394256591797 303.2773132324219 244.3781280517578 303.2474060058594 C 244.4012908935547 303.1388549804688 244.3056793212891 303.1506652832031 244.2264251708984 303.1461791992188 C 244.3287811279297 302.7899780273438 244.0837249755859 302.2767639160156 244.4286193847656 302.1856994628906 C 244.4528656005859 301.9622802734375 244.3589630126953 301.9346923828125 244.4286193847656 301.7817993164062 C 244.3333282470703 301.7875061035156 244.3933868408203 301.9485473632812 244.2763671875 301.9335021972656 C 244.3401031494141 302.0004272460938 244.4286193847656 302.0328369140625 244.3271179199219 302.1354675292969 C 244.1412506103516 302.0827026367188 244.3333282470703 301.9346923828125 244.2264251708984 301.8825073242188 C 244.2368469238281 301.8145751953125 244.4365234375 301.78857421875 244.2264251708984 301.7817993164062 C 244.2684326171875 301.7232055664062 244.2927093505859 301.6455993652344 244.2763671875 301.528564453125 C 244.3770141601562 301.6131896972656 244.3409118652344 301.5240478515625 244.4788360595703 301.528564453125 C 244.4898071289062 301.4425964355469 244.3925170898438 301.3979797363281 244.4788360595703 301.3774719238281 C 244.4666748046875 301.288330078125 244.3916778564453 301.2620849609375 244.2763671875 301.275634765625 L 244.2763671875 301.0235290527344 C 244.4466552734375 301.0691833496094 244.2834014892578 301.1368713378906 244.3781280517578 301.2260131835938 C 244.5837097167969 301.1580505371094 244.2523651123047 300.9606323242188 244.3781280517578 300.9730224609375 C 244.349365234375 300.8588256835938 244.2986145019531 301.0342102050781 244.2264251708984 300.9219970703125 C 244.3694000244141 300.7561645507812 244.2927093505859 300.0740051269531 244.2763671875 299.9617919921875 M 244.9847259521484 302.9436645507812 C 244.9088745117188 303.1571960449219 244.8942413330078 302.9154968261719 244.7825317382812 302.893798828125 C 244.9063415527344 303.0587768554688 244.769287109375 303.1727600097656 244.9339904785156 303.29736328125 C 244.8468627929688 303.2955932617188 244.8039703369141 303.3368225097656 244.7825317382812 303.3988647460938 C 244.9201507568359 303.4360961914062 244.8840637207031 303.2981872558594 244.9847259521484 303.29736328125 C 244.8056640625 303.1061096191406 245.0532531738281 303.0697326660156 244.9847259521484 302.9436645507812 M 244.529296875 302.6916198730469 C 244.6412811279297 302.7736511230469 244.8079071044922 302.6853637695312 244.6810150146484 302.590087890625 C 244.4853057861328 302.8151245117188 244.6903228759766 302.253662109375 244.5800476074219 302.4383239746094 C 244.5372009277344 302.49755859375 244.5140838623047 302.5743103027344 244.529296875 302.6916198730469 M 246.2481231689453 308.301513671875 C 246.2608184814453 308.1669921875 246.1987609863281 307.8506164550781 246.0964050292969 307.9986572265625 C 246.136474609375 308.0091247558594 246.1550750732422 308.0409240722656 246.1466217041016 308.099609375 C 245.9965972900391 308.10498046875 246.0490417480469 308.3218688964844 246.0964050292969 308.4027709960938 C 246.1088409423828 308.3080139160156 246.1798858642578 308.4318542480469 246.1973571777344 308.3522644042969 C 246.0752563476562 308.1571350097656 246.1931304931641 308.0392761230469 246.2481231689453 308.301513671875" fill="#2777df" stroke="none" stroke-width="0"/>
</svg>