<svg xmlns="http://www.w3.org/2000/svg" width="5" height="2" viewBox="66.55602264404297 48.82699966430664 5.187034606933594 2.3358612060546875" fill="none">
  <path d="M 66.58892822265625 51.16286087036133 C 66.55602264404297 50.85270309448242 66.6361083984375 50.53359222412109 66.77497100830078 50.24762725830078 C 66.91964721679688 49.96263122558594 67.12843322753906 49.71126556396484 67.37327575683594 49.50465393066406 C 67.86245727539062 49.0916748046875 68.49196624755859 48.83401489257812 69.14954376220703 48.82699966430664 C 69.80711364746094 48.83401489257812 70.43662261962891 49.0916748046875 70.92581176757812 49.50465393066406 C 71.17064666748047 49.71126556396484 71.37919616699219 49.96263122558594 71.52410888671875 50.24762725830078 C 71.66273498535156 50.53359222412109 71.74305725097656 50.85270309448242 71.71015930175781 51.16286087036133 C 71.65233612060547 50.53794860839844 71.25774383544922 50.02843856811523 70.78718566894531 49.67957305908203 C 70.31008911132812 49.33288192749023 69.72897338867188 49.11369323730469 69.14954376220703 49.11344909667969 C 68.57011413574219 49.11369323730469 67.98875427246094 49.33288192749023 67.51165771484375 49.67957305908203 C 67.04109954833984 50.02843856811523 66.64675140380859 50.53794860839844 66.58892822265625 51.16286087036133" fill="#4f1c18" stroke="none" stroke-width="0"/>
</svg>