<svg xmlns="http://www.w3.org/2000/svg" width="1" height="1" viewBox="93.8251724243164 112.6817855834961 1 1" fill="none">
  <path d="M 94.50368499755859 113.0015716552734 C 94.32939147949219 112.7790756225586 94.26482391357422 113.0424652099609 94.09955596923828 113.1028137207031 C 94.10915374755859 113.1439895629883 94.15060424804688 113.1529998779297 94.15003967285156 113.2037811279297 C 94.24649047851562 113.1823425292969 94.27694702148438 113.0946350097656 94.40271759033203 113.1028137207031 C 94.44503021240234 113.1620330810547 94.46955108642578 113.2387466430664 94.45347595214844 113.3552093505859 C 94.27864074707031 113.3955383300781 94.23971557617188 113.2996597290039 94.15003967285156 113.2542572021484 C 94.28822326660156 113.5148162841797 94.01975250244141 113.1028137207031 94.04879760742188 113.3552093505859 C 93.82517242431641 113.2813262939453 94.12718963623047 113.2215347290039 94.04879760742188 113.0015716552734 C 93.9971923828125 113.034294128418 93.99691009521484 113.1183166503906 93.89736175537109 113.1028137207031 C 93.85337829589844 112.9073944091797 94.02088165283203 112.9234619140625 94.04879760742188 112.799934387207 C 94.11254119873047 112.8123397827148 94.10012817382812 112.9000549316406 94.04879760742188 112.9006118774414 C 94.08659362792969 112.9959335327148 94.19939422607422 112.9358673095703 94.09955596923828 113.0520553588867 C 94.30007171630859 112.9728012084961 94.16498565673828 112.8712844848633 94.30204010009766 112.748893737793 C 94.42838287353516 112.6817855834961 94.45967864990234 112.948844909668 94.50368499755859 112.799934387207 C 94.63396453857422 112.8115005493164 94.43430328369141 112.88623046875 94.50368499755859 113.0015716552734" fill="#2777df" stroke="none" stroke-width="0"/>
</svg>