<svg xmlns="http://www.w3.org/2000/svg" width="1" height="1" viewBox="187.8320007324219 168.3028717041016 1 1" fill="none">
  <path d="M 188.4383392333984 168.8784027099609 C 188.5302734375 168.9175872802734 188.4078826904297 168.9325714111328 188.3370819091797 168.92919921875 C 188.3385009765625 168.9776763916016 188.3991241455078 168.9681091308594 188.4383392333984 168.9790802001953 C 188.2575531005859 169.0346374511719 188.2598266601562 169.2723693847656 188.0341949462891 169.2828063964844 C 188.0556335449219 169.2204742431641 188.0988159179688 169.1787567138672 188.1859436035156 169.1813049316406 C 188.1630706787109 169.1370086669922 188.1413726806641 169.0918884277344 188.0847015380859 169.0805969238281 C 188.0742645263672 169.269287109375 187.9456634521484 169.0896148681641 187.8320007324219 168.9790802001953 C 187.9084320068359 168.8434295654297 188.0048828125 168.7280883789062 188.1859436035156 168.82763671875 C 188.1487121582031 168.7802734375 188.0934448242188 168.7512054443359 188.0341949462891 168.7269897460938 C 188.0497283935547 168.5546569824219 188.3450012207031 168.5541229248047 188.2361145019531 168.5247802734375 C 188.3965911865234 168.3028717041016 188.3638763427734 168.6953735351562 188.4383392333984 168.7269897460938 C 188.3469543457031 168.8033905029297 188.2837829589844 168.909423828125 188.0847015380859 168.8784027099609 C 188.1444702148438 169.0146179199219 188.3483581542969 168.8784027099609 188.4383392333984 168.8784027099609" fill="#2777df" stroke="none" stroke-width="0"/>
</svg>