<svg xmlns="http://www.w3.org/2000/svg" width="1" height="1" viewBox="478.1852416992188 193.4100799560547 1 1.4142456054687216" fill="none">
  <path d="M 478.7447204589844 194.5358428955078 C 478.90234375 194.5206146240234 478.6155395507812 194.6819000244141 478.7954711914062 194.6884002685547 C 478.7032470703125 194.8243255615234 478.6096496582031 194.5400848388672 478.3908081054688 194.6373443603516 C 478.4066162109375 194.2552490234375 478.1852416992188 193.8181304931641 478.28955078125 193.4238891601562 C 478.3797607421875 193.4100799560547 478.3936157226562 193.4718322753906 478.3399963378906 193.4746398925781 C 478.373046875 193.6260833740234 478.4486083984375 193.4264221191406 478.542236328125 193.4746398925781 C 478.2869873046875 193.6489105224609 478.4804382324219 193.9774780273438 478.4409484863281 194.2329559326172 C 478.5467224121094 194.3020477294922 478.6636962890625 194.2284545898438 478.49169921875 194.3843841552734 C 478.5140075683594 194.4596862792969 478.5559997558594 194.3646697998047 478.6432189941406 194.3843841552734 C 478.6423645019531 194.4850616455078 478.5052490234375 194.448974609375 478.542236328125 194.5865936279297 C 478.6282348632812 194.3728485107422 478.64404296875 194.6813354492188 478.7447204589844 194.5358428955078" fill="#2777df" stroke="none" stroke-width="0"/>
</svg>