<svg xmlns="http://www.w3.org/2000/svg" width="17" height="2" viewBox="33.69599914550781 22.73444938659668 17.17721176147461 1.753768920898441" fill="none">
  <path d="M 33.69599914550781 24.427734375 C 35.08251571655273 23.9450798034668 36.5118522644043 23.58895492553711 37.95401382446289 23.3061351776123 C 39.39762496948242 23.02912330627441 40.86083221435547 22.84380340576172 42.33177947998047 22.769287109375 C 43.06749725341797 22.73831939697266 43.80490875244141 22.73444938659668 44.54111099243164 22.77339935302734 C 45.27634429931641 22.81307601928711 46.01327133178711 22.87138366699219 46.73858642578125 23.00831604003906 C 47.46317291259766 23.14162063598633 48.18509674072266 23.30395889282227 48.88017272949219 23.55097198486328 C 49.57282257080078 23.80137252807617 50.24781799316406 24.10330390930176 50.87321090698242 24.48821830749512 C 49.57088851928711 23.80887222290039 48.15147018432617 23.40000534057617 46.70906829833984 23.19194412231445 C 45.26618194580078 22.98001098632812 43.80055236816406 22.93331718444824 42.34291076660156 23.0107364654541 C 40.88309097290039 23.06444549560547 39.4300422668457 23.25194358825684 37.98691558837891 23.48831176757812 C 37.26498794555664 23.60685729980469 36.54620742797852 23.74742126464844 35.83153915405273 23.9061279296875 C 35.11493682861328 24.05806350708008 34.40316772460938 24.23297882080078 33.69599914550781 24.427734375" fill="#4f1c18" stroke="none" stroke-width="0"/>
</svg>