<svg xmlns="http://www.w3.org/2000/svg" width="10" height="4" viewBox="26.82099914550781 3.575000047683716 10.04019927978516 4.475752592086792" fill="none">
  <path d="M 26.82099914550781 8.050752639770508 C 27.45752334594727 7.363179683685303 28.18937110900879 6.766332626342773 28.95895767211914 6.229000091552734 C 29.72806167602539 5.688522815704346 30.55595397949219 5.234415054321289 31.40804100036621 4.83643627166748 C 31.8328742980957 4.632970809936523 32.27947998046875 4.481521129608154 32.71762084960938 4.310717105865479 L 33.39140319824219 4.100477695465088 C 33.50414276123047 4.067574501037598 33.61470794677734 4.026446342468262 33.72938537597656 3.999833583831787 L 34.07389450073242 3.922899007797241 C 34.98574066162109 3.689192295074463 35.92806625366211 3.604032039642334 36.86119842529297 3.575000047683716 C 36.62942886352539 3.610080242156982 36.39813995361328 3.643224954605103 36.16685485839844 3.673224687576294 C 35.93556976318359 3.702256441116333 35.70476531982422 3.732982158660889 35.47782897949219 3.788626670837402 L 34.79364776611328 3.924350738525391 C 34.56695556640625 3.975156307220459 34.34437561035156 4.044349193572998 34.11986541748047 4.10313892364502 C 33.66914367675781 4.215153694152832 33.23342132568359 4.377974033355713 32.79141235351562 4.51805305480957 C 32.36174011230469 4.693454265594482 31.92432403564453 4.849984645843506 31.50820159912109 5.056353092193604 C 30.65925979614258 5.430622577667236 29.84443092346191 5.881585121154785 29.0617790222168 6.383111000061035 L 28.47944641113281 6.767300128936768 L 27.912841796875 7.175440311431885 C 27.53566741943359 7.449550151824951 27.17301177978516 7.742530345916748 26.82099914550781 8.050752639770508" fill="#4f1c18" stroke="none" stroke-width="0"/>
</svg>