<svg xmlns="http://www.w3.org/2000/svg" width="10" height="4" viewBox="333.5196533203125 174.1867828369141 9.8963623046875 3.6996002197265057" fill="none">
  <path d="M 342.644775390625 174.7699432373047 C 341.7227783203125 174.2187194824219 340.1162719726562 174.2764282226562 339.0791625976562 174.23876953125 C 337.6510009765625 174.1867828369141 336.2316589355469 174.2926635742188 334.8204956054688 174.5113372802734 C 334.8157348632812 174.5119018554688 334.8122863769531 174.5136260986328 334.80810546875 174.5145874023438 C 334.389892578125 174.4629821777344 333.9669189453125 174.5380859375 333.7723388671875 174.9773254394531 C 333.5196533203125 175.5472717285156 333.5771789550781 176.7413024902344 334.0639953613281 177.1988830566406 C 334.7948913574219 177.8863830566406 336.314208984375 177.7397766113281 337.2133178710938 177.7130279541016 C 337.9530029296875 177.6910400390625 338.6902160644531 177.6394348144531 339.4306640625 177.6746215820312 C 340.0923461914062 177.7059631347656 340.7489013671875 177.8147125244141 341.4104614257812 177.7149353027344 C 342.1552734375 177.6027526855469 342.9165649414062 177.2197113037109 343.1866455078125 176.4718017578125 C 343.416015625 175.8362731933594 343.236572265625 175.1237182617188 342.644775390625 174.7699432373047 M 340.8963012695312 175.6285095214844 C 340.8250122070312 175.5706024169922 340.7548522949219 175.5113525390625 340.6879577636719 175.4492340087891 C 340.7202758789062 175.3746948242188 340.7498779296875 175.2987976074219 340.779296875 175.2229309082031 C 340.8397216796875 175.2957458496094 340.9020080566406 175.3672332763672 340.9668273925781 175.4364318847656 C 340.9425659179688 175.5000610351562 340.920166015625 175.5646820068359 340.8963012695312 175.6285095214844 M 340.3452453613281 175.0899047851562 C 340.3683471679688 175.0203247070312 340.3899841308594 174.9501800537109 340.4136657714844 174.8807983398438 C 340.4581909179688 174.8834838867188 340.5025634765625 174.88671875 340.5470581054688 174.8897857666016 C 340.5432739257812 174.9092712402344 340.546142578125 174.9310607910156 340.5621948242188 174.9532470703125 C 340.586669921875 174.9864959716797 340.6145629882812 175.0165100097656 340.6395874023438 175.0493774414062 C 340.6084594726562 175.1359558105469 340.5791931152344 175.2235107421875 340.5436401367188 175.3081665039062 C 340.4746704101562 175.2378387451172 340.4087219238281 175.1650085449219 340.3452453613281 175.0899047851562 M 339.969482421875 175.2904052734375 C 340.008056640625 175.2185363769531 340.0470886230469 175.1468505859375 340.0872192382812 175.0757446289062 C 340.1015625 175.0942993164062 340.1152954101562 175.1136016845703 340.1302185058594 175.1319427490234 C 340.1038513183594 175.2114562988281 340.0778503417969 175.2909698486328 340.0518798828125 175.3704833984375 C 340.0233764648438 175.3456420898438 339.9954833984375 175.3184814453125 339.969482421875 175.2904052734375 M 339.6392211914062 175.5142211914062 C 339.6369018554688 175.5113525390625 339.6359558105469 175.50830078125 339.6332702636719 175.5054321289062 C 339.5946655273438 175.4691162109375 339.5585327148438 175.4302978515625 339.5205078125 175.3934326171875 C 339.5551147460938 175.3253784179688 339.589111328125 175.2571411132812 339.62353515625 175.1891021728516 C 339.661376953125 175.2315368652344 339.6999816894531 175.2735900878906 339.7395629882812 175.3144836425781 C 339.7051391601562 175.3804321289062 339.6724548339844 175.447509765625 339.6392211914062 175.5142211914062 M 339.2061157226562 175.5942993164062 C 339.17529296875 175.56640625 339.1441650390625 175.5384979248047 339.11376953125 175.5098266601562 C 339.1424560546875 175.4524841308594 339.1711120605469 175.3968658447266 339.1988220214844 175.3429565429688 C 339.2280883789062 175.3729705810547 339.2584838867188 175.4018249511719 339.2880859375 175.431640625 C 339.2605590820312 175.4857330322266 339.2332153320312 175.5400238037109 339.2061157226562 175.5942993164062 M 338.602294921875 174.8018646240234 C 338.58740234375 174.8322448730469 338.5732421875 174.8628234863281 338.558349609375 174.8930358886719 C 338.5401611328125 174.8693237304688 338.52294921875 174.8450622558594 338.50537109375 174.8209686279297 C 338.5092163085938 174.8140869140625 338.5130310058594 174.8072204589844 338.5170593261719 174.8003234863281 C 338.5453491210938 174.8005218505859 338.5737915039062 174.8016662597656 338.602294921875 174.8018646240234 M 339.2378234863281 174.81982421875 C 339.2076110839844 174.8832855224609 339.1777954101562 174.9467468261719 339.1479797363281 175.0101928710938 C 339.125244140625 174.9855499267578 339.1030578613281 174.9603118896484 339.0806884765625 174.9354553222656 C 339.1011352539062 174.8955078125 339.1204833984375 174.8553771972656 339.1399536132812 174.8150634765625 C 339.1728515625 174.8163757324219 339.2051391601562 174.8182983398438 339.2378234863281 174.81982421875 M 338.2311096191406 174.8010864257812 C 338.23876953125 174.8010864257812 338.2467651367188 174.8010864257812 338.2544250488281 174.8009033203125 C 338.2620849609375 174.8121795654297 338.2706909179688 174.8226928710938 338.2785034179688 174.8337707519531 C 338.2106628417969 174.9547729492188 338.1422119140625 175.0755615234375 338.0740051269531 175.1963500976562 C 338.0550842285156 175.1734313964844 338.0363464355469 175.1502990722656 338.0177917480469 175.1271667480469 C 338.0871887207031 175.0176544189453 338.1588745117188 174.9092712402344 338.2311096191406 174.8010864257812 M 337.8899536132812 174.9708251953125 C 337.8465576171875 174.9165344238281 337.8027954101562 174.8626403808594 337.7593994140625 174.8085632324219 C 337.83984375 174.8062438964844 337.9205017089844 174.8045349121094 338.0006103515625 174.8031921386719 C 337.964111328125 174.8591918945312 337.9258728027344 174.9144439697266 337.8899536132812 174.9708251953125 M 338.4025573730469 175.0029296875 C 338.423583984375 175.0302734375 338.4440307617188 175.0583648681641 338.4654541015625 175.0853118896484 C 338.4067687988281 175.2057189941406 338.3484497070312 175.3261413574219 338.2905578613281 175.4469299316406 C 338.262451171875 175.4152221679688 338.2335815429688 175.3842468261719 338.2056884765625 175.3519439697266 C 338.2716064453125 175.2355346679688 338.3370056152344 175.119140625 338.4025573730469 175.0029296875 M 338.599609375 175.2456665039062 C 338.6183471679688 175.2676544189453 338.6361083984375 175.2904052734375 338.6554260253906 175.3121948242188 C 338.5916137695312 175.4186401367188 338.5252685546875 175.5237731933594 338.4560546875 175.6273803710938 C 338.4470825195312 175.6180114746094 338.4371337890625 175.6097717285156 338.4281616210938 175.6004180908203 C 338.4849243164062 175.4819183349609 338.5420837402344 175.3638000488281 338.599609375 175.2456665039062 M 338.6903991699219 175.0577850341797 C 338.7190856933594 174.9991149902344 338.7467651367188 174.9398498535156 338.775634765625 174.8813781738281 C 338.7999267578125 174.9100341796875 338.8262939453125 174.9369964599609 338.8509521484375 174.9652709960938 C 338.820556640625 175.0230102539062 338.788818359375 175.0799560546875 338.7571105957031 175.1367340087891 C 338.7345581054688 175.1107482910156 338.71240234375 175.0841674804688 338.6903991699219 175.0577850341797 M 338.9862670898438 175.1159057617188 C 339.0109558105469 175.1428527832031 339.0346374511719 175.1707458496094 339.0595092773438 175.1973266601562 C 339.0386352539062 175.2416687011719 339.017822265625 175.2860107421875 338.9967651367188 175.3301544189453 C 338.9899291992188 175.3448791503906 338.9828491210938 175.3592071533203 338.9759521484375 175.3737182617188 C 338.9478759765625 175.3452453613281 338.9199829101562 175.3163909912109 338.8926391601562 175.2871398925781 C 338.9249267578125 175.2305755615234 338.9555053710938 175.1732330322266 338.9862670898438 175.1159057617188 M 339.2873229980469 175.1611938476562 C 339.3245849609375 175.0814971923828 339.3622436523438 175.0019836425781 339.3997192382812 174.9222717285156 C 339.428955078125 174.9595489501953 339.4587707519531 174.9960479736328 339.4885864257812 175.0323791503906 C 339.4520874023438 175.1055755615234 339.4149780273438 175.1785888671875 339.3782958984375 175.2517852783203 C 339.3482971191406 175.2214050292969 339.3169555664062 175.1921691894531 339.2873229980469 175.1611938476562 M 340.1697998046875 174.8670349121094 C 340.1852722167969 174.8677978515625 340.200927734375 174.8687591552734 340.2166137695312 174.8695068359375 C 340.2116394042969 174.8834838867188 340.2076416015625 174.8976135253906 340.20263671875 174.9115600585938 C 340.1915893554688 174.8968505859375 340.1804809570312 174.8819580078125 340.1697998046875 174.8670349121094 M 340.8551940917969 175.014404296875 C 340.8660888671875 174.9822998046875 340.8794555664062 174.9513244628906 340.8899841308594 174.9190368652344 C 340.9821166992188 174.9281921386719 341.0728759765625 174.9394836425781 341.1635131835938 174.9520874023438 C 341.1229553222656 175.049560546875 341.0834045410156 175.1474304199219 341.0442199707031 175.2453002929688 C 340.9775390625 175.1716918945312 340.9171142578125 175.0923767089844 340.8551940917969 175.014404296875 M 339.9237976074219 174.8546142578125 C 339.93603515625 174.8725891113281 339.9497985839844 174.8888244628906 339.9620361328125 174.9064025878906 C 339.9180908203125 174.9834289550781 339.8765869140625 175.0616149902344 339.8343505859375 175.139404296875 C 339.7867431640625 175.0891265869141 339.7449035644531 175.03369140625 339.6999816894531 174.9813385009766 C 339.6919555664062 174.9524688720703 339.6707458496094 174.9293518066406 339.6449584960938 174.9165344238281 C 339.6221923828125 174.889404296875 339.5980834960938 174.8635864257812 339.5761108398438 174.8358764648438 C 339.5929565429688 174.8368377685547 339.6095581054688 174.8372192382812 339.6260070800781 174.8383636474609 C 339.7231140136719 174.8442993164062 339.8228759765625 174.8496398925781 339.9237976074219 174.8546142578125 M 341.5101928710938 177.1161193847656 C 340.830322265625 177.2772521972656 340.1162719726562 177.1333160400391 339.4306640625 177.1011962890625 C 338.6907958984375 177.0662231445312 337.9528198242188 177.11669921875 337.2133178710938 177.1396179199219 C 336.5971069335938 177.158935546875 335.3356323242188 177.3179626464844 334.8227844238281 176.9679870605469 C 334.4466552734375 176.7114868164062 334.274658203125 176.3590393066406 334.273681640625 175.9358520507812 C 334.2725219726562 175.4071807861328 334.468994140625 174.9702453613281 335.1297607421875 175.1718902587891 C 335.2985229492188 175.2233123779297 335.4202880859375 175.1239318847656 335.4640502929688 174.9943237304688 C 336.14794921875 174.9033508300781 336.8346557617188 174.8441009521484 337.5227661132812 174.8171539306641 C 337.6099243164062 174.924560546875 337.6967163085938 175.0329437255859 337.7838439941406 175.1415100097656 C 337.7205810546875 175.2422332763672 337.6569213867188 175.3425750732422 337.595947265625 175.4444580078125 C 337.5325317382812 175.5501403808594 337.6974487304688 175.6463012695312 337.7609252929688 175.5409698486328 C 337.8100280761719 175.4591674804688 337.8612670898438 175.37890625 337.9115295410156 175.2980499267578 C 337.932373046875 175.3234558105469 337.9528198242188 175.348876953125 337.9740600585938 175.3741149902344 L 337.8736877441406 175.5514831542969 C 337.8134765625 175.6587219238281 337.9782409667969 175.7552337646484 338.038818359375 175.6480102539062 C 338.0615844726562 175.6078796386719 338.0841064453125 175.5677490234375 338.1068725585938 175.527587890625 C 338.1376342773438 175.5629577636719 338.1690063476562 175.5981292724609 338.2007141113281 175.6329040527344 C 338.1630859375 175.7124328613281 338.123291015625 175.7907867431641 338.0860290527344 175.8704833984375 C 338.0342407226562 175.9811553955078 338.1990051269531 176.0782470703125 338.2509765625 175.9668273925781 C 338.280029296875 175.9046936035156 338.3114013671875 175.8433532714844 338.3408203125 175.7812194824219 C 338.3432922363281 175.7837219238281 338.3457946777344 175.7860107421875 338.3482666015625 175.7884979248047 C 338.287109375 175.8756408691406 338.4025573730469 175.9586029052734 338.4803466796875 175.9146423339844 C 338.5162963867188 175.9479064941406 338.549560546875 175.9840393066406 338.5869750976562 176.0161437988281 C 338.6795043945312 176.0958557128906 338.8154296875 175.9612731933594 338.7221374511719 175.8810119628906 C 338.677978515625 175.8431549072266 338.638427734375 175.8007202148438 338.59619140625 175.760986328125 C 338.6636352539062 175.6610107421875 338.7288208007812 175.5595245361328 338.7913208007812 175.4566955566406 C 338.8237915039062 175.4910888671875 338.8557434082031 175.5262451171875 338.8893737792969 175.5597076416016 C 338.85400390625 175.6434326171875 338.8261108398438 175.7296142578125 338.8176879882812 175.8230895996094 C 338.8070068359375 175.9456024169922 338.9981384277344 175.9448547363281 339.0088500976562 175.8230895996094 C 339.012451171875 175.7816162109375 339.0237426757812 175.7397613525391 339.0367431640625 175.6977081298828 C 339.0680847167969 175.7265625 339.0986633300781 175.7560119628906 339.1307983398438 175.7841033935547 C 339.1416625976562 175.8649597167969 339.2586669921875 175.9142608642578 339.303955078125 175.8240509033203 C 339.34619140625 175.7405090332031 339.3880615234375 175.6567993164062 339.4302978515625 175.5730895996094 C 339.4532470703125 175.5952606201172 339.4748229980469 175.6187744140625 339.4981384277344 175.6405639648438 C 339.5184020996094 175.6598663330078 339.5411376953125 175.6665649414062 339.5632934570312 175.6661682128906 C 339.558349609375 175.6761169433594 339.552978515625 175.6858520507812 339.5484008789062 175.6959838867188 C 339.4953002929688 175.8064575195312 339.6600341796875 175.9033660888672 339.71337890625 175.7925109863281 C 339.7668762207031 175.6806945800781 339.8228759765625 175.5706024169922 339.879638671875 175.460693359375 C 339.9142456054688 175.4954833984375 339.9507446289062 175.5296936035156 339.9895629882812 175.5595245361328 C 339.9505615234375 175.6795501708984 339.9094543457031 175.798828125 339.8713989257812 175.9192199707031 C 339.8343505859375 176.0367736816406 340.018798828125 176.0870361328125 340.0554809570312 175.9700775146484 C 340.0897216796875 175.8618927001953 340.126953125 175.7546691894531 340.1621704101562 175.6468658447266 C 340.1837463378906 175.6516418457031 340.2066650390625 175.6543273925781 340.2297973632812 175.6541290283203 C 340.3529052734375 175.6537475585938 340.353271484375 175.4626159667969 340.2297973632812 175.4629974365234 C 340.2275085449219 175.4629974365234 340.2250366210938 175.4618530273438 340.2227172851562 175.4616546630859 C 340.2405090332031 175.4079437255859 340.2578735351562 175.3540344238281 340.27587890625 175.3003234863281 C 340.3345336914062 175.3659057617188 340.3955078125 175.4291687011719 340.4580078125 175.4909057617188 C 340.4219055175781 175.5692749023438 340.3882446289062 175.6487731933594 340.3481140136719 175.7256164550781 C 340.2909545898438 175.8345642089844 340.4559326171875 175.9312744140625 340.5132446289062 175.8221282958984 C 340.546142578125 175.7592468261719 340.572509765625 175.6938781738281 340.6030883789062 175.6300354003906 C 340.675537109375 175.6950378417969 340.7493286132812 175.75830078125 340.8265380859375 175.8185119628906 C 340.8001403808594 175.8915100097656 340.7718505859375 175.9639587402344 340.7464599609375 176.037353515625 C 340.7059326171875 176.1539459228516 340.8905639648438 176.2038269042969 340.9304809570312 176.0881958007812 C 340.9889831542969 175.9196166992188 341.05126953125 175.7521667480469 341.1145629882812 175.5853271484375 C 341.1567993164062 175.6268005371094 341.1954345703125 175.6715087890625 341.2393798828125 175.7114562988281 C 341.3305358886719 175.7940368652344 341.4658813476562 175.6592864990234 341.37451171875 175.5763244628906 C 341.3099060058594 175.5176696777344 341.2514038085938 175.4532470703125 341.1898803710938 175.3913116455078 C 341.242431640625 175.2577209472656 341.2959594726562 175.1246795654297 341.3515625 174.9922180175781 C 341.3546447753906 174.9891662597656 341.357666015625 174.9861145019531 341.3603515625 174.9822998046875 C 341.5365905761719 175.0136413574219 341.708251953125 175.0530090332031 341.8705139160156 175.1053771972656 C 343.383544921875 175.594482421875 342.5498046875 176.8697509765625 341.5101928710938 177.1161193847656" fill="#231f20" stroke="#ffffff" stroke-width="1"/>
</svg>