<svg xmlns="http://www.w3.org/2000/svg" width="82" height="68" viewBox="0.1356090009212494 0.03366851806640625 81.67179456353188 68.20718383789062" fill="none">
  <path d="M 24.35522079467773 0.9080429077148438 C 24.55089950561523 1.006797790527344 24.67910575866699 1.070472717285156 24.83795928955078 1.150360107421875 C 24.83185958862305 1.063819885253906 24.84911155700684 0.9858245849609375 24.81965637207031 0.9368057250976562 C 24.30914497375488 0.0901336669921875 23.53982925415039 -0.085906982421875 22.61341667175293 0.03366851806640625 C 20.33171081542969 0.3269805908203125 18.17527008056641 1.001182556152344 16.03593635559082 1.849678039550781 C 13.45363140106201 2.873580932617188 10.78372955322266 3.677398681640625 8.152332305908203 4.577369689941406 C 6.014263153076172 5.308036804199219 3.919748306274414 6.124061584472656 2.001904249191284 7.357170104980469 C 1.02695631980896 7.984176635742188 0.6061455607414246 8.977569580078125 0.1356090009212494 9.921100616455078 C -0.2251660078763962 10.64314651489258 0.1631718575954437 11.39772796630859 0.9545761942863464 11.97760391235352 C 4.46329402923584 14.54945373535156 7.633962154388428 17.49976348876953 10.67074012756348 20.60477828979492 C 13.25241088867188 23.24416732788086 15.82300090789795 25.89204788208008 18.34092140197754 28.59140014648438 C 18.71880912780762 28.99700164794922 19.12685585021973 29.37180328369141 19.64823722839355 29.59153366088867 C 19.83480072021484 29.67001342773438 20.05390167236328 29.75340270996094 20.2084789276123 29.57617568969727 C 20.36368560791016 29.39823913574219 20.25630950927734 29.19631958007812 20.14156913757324 29.02518844604492 C 19.97717094421387 28.78098297119141 19.80478286743164 28.54287719726562 19.58077239990234 28.22452545166016 C 20.07410430908203 28.23814010620117 20.26921272277832 28.53495025634766 20.48880767822266 28.78960800170898 C 20.78022003173828 29.12646865844727 21.03670692443848 29.44915390014648 21.32138252258301 28.75468063354492 C 21.43177604675293 28.48466491699219 21.85083389282227 28.50991439819336 22.04160118103027 28.19016265869141 C 22.59068489074707 27.26935958862305 22.66124534606934 26.35584259033203 22.18271446228027 25.40671157836914 C 21.05753707885742 23.17662048339844 19.65322113037109 21.12622451782227 18.08752632141113 19.18825531005859 C 16.69976043701172 17.46981048583984 15.19789028167725 15.85130310058594 13.65428733825684 14.27024841308594 C 13.25732326507568 13.86346817016602 12.7026948928833 13.60950469970703 12.41745567321777 12.94266510009766 C 13.13704109191895 13.16043090820312 13.79603004455566 13.32973861694336 14.43467998504639 13.55739593505859 C 17.66727828979492 14.71132659912109 21.00107955932617 15.54080963134766 24.25394630432129 16.62924194335938 C 32.79401779174805 19.48577117919922 40.72426223754883 23.52385711669922 47.9171028137207 28.9515495300293 C 51.72635650634766 31.82582092285156 55.35037231445312 34.93273162841797 58.72723007202148 38.31071472167969 C 64.07937622070312 43.66539001464844 69.03841400146484 49.35874176025391 73.31643676757812 55.61668014526367 C 75.10235595703125 58.22893142700195 76.80845642089844 60.90079879760742 77.65148162841797 64.00876617431641 C 77.87606048583984 64.83396911621094 78.01171112060547 65.67321014404297 78.08828735351562 66.52485656738281 C 78.12580871582031 66.93830871582031 78.08527374267578 67.40772247314453 78.50307464599609 67.67514038085938 C 78.91721343994141 67.94088745117188 79.37603759765625 68.24085235595703 79.60068511962891 67.46719360351562 C 79.72579956054688 67.03523254394531 80.20798492431641 67.24514770507812 80.47119903564453 66.89664459228516 C 81.4853515625 65.55362701416016 81.69210815429688 64.00946044921875 81.76265716552734 62.42911148071289 C 81.80740356445312 61.43515777587891 81.61910247802734 60.45172119140625 81.4853515625 59.45959091186523 C 80.73813629150391 53.91779708862305 77.66684722900391 49.48645401000977 74.66374969482422 45.05876159667969 C 71.20846557617188 39.96352005004883 67.16973114013672 35.32478713989258 62.77872848510742 31.00558853149414 C 56.03447341918945 24.37235641479492 48.52321624755859 18.81632995605469 39.94449615478516 14.74505615234375 C 34.24251174926758 12.03897094726562 28.33440589904785 9.929718017578125 22.22507476806641 8.371952056884766 C 21.42806053161621 8.168914794921875 20.6201057434082 7.954864501953125 19.80541801452637 7.891521453857422 C 18.63605308532715 7.800708770751953 17.49551773071289 7.616115570068359 16.37580871582031 7.277984619140625 C 16.23532867431641 7.235137939453125 16.04638481140137 7.24853515625 16.02310180664062 7.060920715332031 C 16.0003776550293 6.872539520263672 16.18686485290527 6.822811126708984 16.3162670135498 6.776805877685547 C 17.91394233703613 6.20751953125 19.32499122619629 5.285308837890625 20.77468299865723 4.435630798339844 C 21.05508613586426 4.270668029785156 21.32629776000977 4.082912445068359 21.68398284912109 4.146041870117188 C 21.83119773864746 4.172481536865234 22.05324745178223 4.176685333251953 22.08333396911621 4.025192260742188 C 22.18825721740723 3.497566223144531 22.46487045288086 3.362632751464844 22.94655609130859 3.549751281738281 C 22.98337936401367 3.5638427734375 23.06866073608398 3.541130065917969 23.0845832824707 3.510414123535156 C 23.45882225036621 2.792648315429688 24.37541961669922 2.552223205566406 24.64228439331055 1.746658325195312 C 24.74475288391113 1.439949035644531 24.36069297790527 1.293228149414062 24.35522079467773 0.9080429077148438 M 57.4713249206543 34.42958450317383 C 52.02764892578125 29.65163803100586 46.328125 25.23067092895508 40.11871337890625 21.4869384765625 C 46.77782821655273 24.63739395141602 52.22943115234375 29.40125274658203 57.4713249206543 34.42958450317383 M 64.22483825683594 33.55345916748047 C 59.16459655761719 28.59575271606445 53.84365844726562 23.9673957824707 47.99313354492188 19.96738052368164 C 51.25336456298828 21.39379501342773 62.60521697998047 30.90803146362305 64.22483825683594 33.55345916748047 M 14.6426305770874 22.38950347900391 C 14.32113170623779 22.41524124145508 14.25800895690918 22.22145843505859 14.14761638641357 22.10910415649414 C 12.46037673950195 20.40103530883789 10.80021095275879 18.66484832763672 9.087932586669922 16.98252105712891 C 7.243099212646484 15.17021942138672 5.269497394561768 13.50276947021484 3.227654457092285 11.91553115844727 C 3.075531244277954 11.79721450805664 2.748491287231445 11.72048950195312 2.90187668800354 11.42416763305664 C 3.004344701766968 11.22476577758789 3.158992052078247 11.38860702514648 3.267561435699463 11.47816848754883 C 4.775536060333252 12.72236633300781 6.34677267074585 13.89853668212891 7.770725250244141 15.23158645629883 C 9.616119384765625 16.95922470092773 11.35238456726074 18.80342864990234 13.11627864837646 20.61586380004883 C 13.64390659332275 21.15750885009766 14.10651779174805 21.76242446899414 14.6426305770874 22.38950347900391 M 53.69209671020508 25.35571670532227 C 56.33998107910156 27.17417907714844 58.7357177734375 29.28657913208008 60.96223068237305 31.59759902954102 C 58.55596923828125 29.49698257446289 56.15776443481445 27.386474609375 53.69209671020508 25.35571670532227 M 11.01496505737305 12.5487174987793 C 12.94753456115723 14.10641479492188 14.68197631835938 15.86898040771484 16.20404624938965 17.83661651611328 C 14.44695472717285 16.10406875610352 12.79660415649414 14.26779556274414 11.01496505737305 12.5487174987793 M 53.65099334716797 28.11785125732422 C 54.56998062133789 28.69449996948242 55.48601531982422 29.25523376464844 56.08293533325195 30.17736434936523 C 55.27252578735352 29.49081420898438 54.46197509765625 28.80426025390625 53.65099334716797 28.11785125732422 M 13.2757682800293 16.12735748291016 C 13.33587265014648 16.06970596313477 13.39541912078857 16.01148986816406 13.45552349090576 15.95314025878906 C 14.13225936889648 16.54339218139648 14.6929874420166 17.24334716796875 15.35309982299805 17.84033203125 C 14.66044425964355 17.26908493041992 13.96779251098633 16.69853973388672 13.2757682800293 16.12735748291016" fill="#ff4d16" stroke="none" stroke-width="0"/>
</svg>