<svg xmlns="http://www.w3.org/2000/svg" width="1" height="1" viewBox="271.4222717285156 255.0840301513672 1 1" fill="none">
  <path d="M 272.1875915527344 255.0840301513672 C 272.1814270019531 255.1584625244141 272.2254028320312 255.3981781005859 272.0353698730469 255.4379119873047 C 272.1788635253906 255.2391510009766 271.7900085449219 255.4731750488281 271.8336791992188 255.64013671875 C 271.7823791503906 255.8544464111328 271.7837829589844 255.3750457763672 271.7324523925781 255.5896453857422 C 271.6574401855469 255.5679321289062 271.7522583007812 255.5250854492188 271.7324523925781 255.4379119873047 C 271.6918334960938 255.4810791015625 271.5939636230469 255.4683990478516 271.5807495117188 255.5388946533203 C 271.4222717285156 255.5543975830078 271.7090759277344 255.3925323486328 271.5299987792969 255.3874664306641 C 271.5421447753906 255.3324890136719 271.6306457519531 255.3530578613281 271.6317749023438 255.2864990234375 C 271.688232421875 255.2963562011719 271.6591491699219 255.3369903564453 271.6317749023438 255.3364410400391 C 271.6645202636719 255.4043731689453 271.7392578125 255.4311676025391 271.8336791992188 255.4379119873047 C 272.0026245117188 255.3914337158203 271.8588256835938 255.3440551757812 271.8839111328125 255.1852569580078 C 272.0773620605469 255.1762542724609 271.9019165039062 255.2270202636719 271.9344177246094 255.3364410400391 C 272.1893310546875 255.314697265625 272.0421142578125 255.1542358398438 272.1875915527344 255.0840301513672" fill="#2777df" stroke="none" stroke-width="0"/>
</svg>