<svg xmlns="http://www.w3.org/2000/svg" width="8" height="7" viewBox="27.13300132751465 23.44900131225586 7.541399002075188 6.60017013549805" fill="none">
  <path d="M 31.78000831604004 26.37022018432617 C 30.72538948059082 25.47043991088867 29.6591968536377 24.58407974243164 28.5923900604248 23.69893646240234 C 28.41133880615234 23.54897689819336 28.23089408874512 23.44900131225586 27.98766326904297 23.44900131225586 C 27.76211166381836 23.44900131225586 27.54326438903809 23.53983306884766 27.3829345703125 23.69893646240234 C 27.22382926940918 23.85926055908203 27.13300132751465 24.07810974121094 27.13300132751465 24.30366516113281 C 27.13300132751465 24.51153945922852 27.21773529052734 24.7706184387207 27.3829345703125 24.90839004516602 C 28.45035171508789 25.79414367675781 29.51532745361328 26.68172454833984 30.57786750793457 27.57235336303711 C 31.48922538757324 28.33435821533203 32.40972900390625 29.08356094360352 33.33205032348633 29.83154296875 C 33.49115753173828 29.96078109741211 33.64416885375977 30.04917144775391 33.8575325012207 30.04917144775391 C 34.0544319152832 30.04917144775391 34.2452392578125 29.96992492675781 34.38362121582031 29.83154296875 C 34.67440032958984 29.5407600402832 34.66464233398438 29.07137298583984 34.38362121582031 28.77936935424805 C 33.56248474121094 27.92592620849609 32.67977905273438 27.1395378112793 31.78000831604004 26.37022018432617" fill="#fc4d16" stroke="none" stroke-width="0"/>
</svg>