<svg xmlns="http://www.w3.org/2000/svg" width="2" height="2" viewBox="285.8670349121094 277.8450317382812 2.49261474609375 1.772705078125" fill="none">
  <path d="M 287.7372436523438 278.0472412109375 C 287.8131408691406 278.0692443847656 287.717529296875 278.11181640625 287.7372436523438 278.1986694335938 C 287.8049621582031 278.1659851074219 287.83203125 278.0912475585938 287.8388061523438 277.9964599609375 C 287.9386596679688 278.0968933105469 288.0607299804688 278.0968933105469 287.8895568847656 277.9964599609375 C 287.9222717285156 277.9462890625 288.0057678222656 277.9443054199219 287.990234375 277.8450317382812 C 288.0652770996094 277.8882141113281 288.0984802246094 277.9727783203125 288.0917663574219 278.0982971191406 C 288.1407775878906 278.0968933105469 288.1306457519531 278.0365295410156 288.1416931152344 277.9964599609375 C 288.2829895019531 278.0452575683594 288.3596496582031 278.3780212402344 288.3439025878906 278.3002014160156 C 288.2804260253906 278.3129272460938 288.2933959960938 278.4005737304688 288.3439025878906 278.401123046875 C 288.2787475585938 278.3893127441406 287.9772338867188 278.3452758789062 288.1924438476562 278.1986694335938 C 288.0669250488281 278.2257385253906 288.0127563476562 278.3224487304688 287.9397583007812 278.401123046875 C 288.1236267089844 278.428466796875 287.9671020507812 278.5023803710938 287.8388061523438 278.6033630371094 C 287.8828125 278.7528381347656 287.9146423339844 278.4863586425781 288.041015625 278.5534362792969 C 288.1185913085938 278.5796813964844 288.0444030761719 278.6053466796875 287.990234375 278.6033630371094 C 287.9318542480469 278.6115417480469 287.9482421875 278.6958618164062 287.9397583007812 278.7547912597656 C 287.781005859375 278.6391906738281 287.7976379394531 278.8472595214844 287.7372436523438 278.7547912597656 C 287.6537780761719 278.733642578125 287.7426452636719 278.9434509277344 287.7880859375 278.9570007324219 C 287.673583984375 278.9913940429688 287.6005249023438 278.8343200683594 287.4344177246094 278.8052978515625 C 287.4998474121094 278.6865539550781 287.4273681640625 278.7116088867188 287.48486328125 278.5534362792969 C 287.5274963378906 278.3926696777344 287.5514526367188 278.6422729492188 287.5359497070312 278.7048645019531 C 287.6529235839844 278.62841796875 287.6126098632812 278.5810546875 287.5858764648438 278.451904296875 C 287.3966369628906 278.41357421875 287.4152221679688 278.5841979980469 287.3334350585938 278.6541137695312 C 287.3430480957031 278.7221069335938 287.5435485839844 278.7479858398438 287.3334350585938 278.7547912597656 C 287.3703918457031 278.8021545410156 287.4259643554688 278.8315124511719 287.48486328125 278.8563537597656 C 287.4309997558594 278.8963317871094 287.1659240722656 278.8760375976562 287.3334350585938 279.0585021972656 C 287.3904418945312 279.0492248535156 287.361083984375 279.0077514648438 287.3334350585938 279.0077514648438 C 287.43017578125 278.9784545898438 287.5477600097656 278.8732299804688 287.6873474121094 278.9570007324219 C 287.4789428710938 279.1622924804688 287.3269348144531 279.0494995117188 287.3334350585938 279.3108825683594 C 287.2527770996094 279.1727294921875 287.2296752929688 278.977294921875 287.232177734375 278.7547912597656 C 287.12109375 278.7615356445312 287.2107849121094 278.9693908691406 287.1811828613281 279.0585021972656 C 287.1140441894531 279.0480651855469 287.0875549316406 278.8481140136719 287.0807495117188 279.0585021972656 C 286.8974609375 278.9597778320312 286.8644714355469 279.17724609375 286.5757141113281 279.1089782714844 C 286.8058166503906 279.2429504394531 286.9628601074219 279.1451110839844 287.1315612792969 279.2099304199219 C 287.1106567382812 279.2799072265625 286.8439025878906 279.353515625 286.9789733886719 279.4121704101562 C 286.9405822753906 279.4761657714844 286.7073669433594 279.3481140136719 286.8275451660156 279.2099304199219 C 286.6151428222656 279.1321105957031 286.8196411132812 279.4719543457031 286.6760864257812 279.4629211425781 C 286.591796875 279.5816040039062 286.6814270019531 279.4443054199219 286.6760864257812 279.3613586425781 C 286.5384826660156 279.3565979003906 286.5745849609375 279.4457092285156 286.4739074707031 279.3613586425781 C 286.4964294433594 279.406494140625 286.5187683105469 279.4522094726562 286.5757141113281 279.4629211425781 C 286.5255126953125 279.6177368164062 286.4403381347656 279.4048156738281 286.3731994628906 279.4121704101562 C 286.3015747070312 279.4301452636719 286.3687133789062 279.5012817382812 286.4231567382812 279.5130920410156 C 286.2951354980469 279.5666809082031 286.1572265625 279.3458557128906 285.9688110351562 279.3613586425781 C 285.8763122558594 279.3636474609375 286.0649719238281 279.1070251464844 285.8670349121094 279.1089782714844 C 285.899169921875 278.9874572753906 286.0787963867188 279.2122192382812 286.0694885253906 279.0077514648438 C 286.2541809082031 279.0745544433594 286.3162231445312 278.9972839355469 286.4739074707031 279.0585021972656 C 286.4470825195312 279.0182189941406 286.4214477539062 278.9761657714844 286.4231567382812 278.9070739746094 C 286.3562927246094 278.9164123535156 286.3292236328125 279.1169128417969 286.3224487304688 278.9070739746094 C 286.091796875 278.9149475097656 286.1241760253906 278.9482421875 285.9180908203125 278.9070739746094 C 285.9360961914062 278.8489685058594 286.0071411132812 278.779052734375 286.0195922851562 278.8563537597656 C 286.0779418945312 278.7801513671875 286.1651000976562 278.7330627441406 286.1707458496094 278.6033630371094 C 286.2200317382812 278.6045227050781 286.2096862792969 278.6656799316406 286.220947265625 278.7048645019531 C 286.2624206542969 278.6780700683594 286.3035583496094 278.6521301269531 286.3731994628906 278.6541137695312 C 286.2465515136719 278.5641174316406 286.3182373046875 278.58984375 286.3224487304688 278.401123046875 C 286.4036865234375 278.471923828125 286.3757629394531 278.6506958007812 286.4739074707031 278.7048645019531 C 286.58837890625 278.7784729003906 286.2243041992188 278.5339965820312 286.3224487304688 278.9070739746094 C 286.5779418945312 278.7150268554688 286.4248352050781 279.0018310546875 286.6760864257812 278.8052978515625 C 286.7268676757812 278.9471130371094 286.9366760253906 278.813720703125 286.8275451660156 279.0077514648438 C 286.8731994628906 278.9854736328125 286.9189147949219 278.9634704589844 286.9293212890625 278.9070739746094 C 286.89208984375 278.8597106933594 286.83740234375 278.8303833007812 286.7770080566406 278.8052978515625 C 286.8531799316406 278.6437072753906 286.995361328125 278.7835693359375 287.0807495117188 278.7048645019531 C 286.8379211425781 278.4595336914062 287.5841369628906 278.5001525878906 287.48486328125 278.1986694335938 C 287.6433410644531 278.2229309082031 287.6918640136719 278.1358032226562 287.7372436523438 278.0472412109375" fill="#2777df" stroke="none" stroke-width="0"/>
</svg>