<svg xmlns="http://www.w3.org/2000/svg" width="3" height="3" viewBox="78.53953552246094 92.58658599853516 2.8791961669921875 2.7771072387695312" fill="none">
  <path d="M 81.12966918945312 92.96627044677734 C 81.37815856933594 93.03485107421875 81.31454467773438 93.3436279296875 81.3321533203125 93.69476318359375 C 81.34976196289062 94.04845428466797 81.41873168945312 94.65924835205078 81.25100708007812 94.90968322753906 C 81.34719848632812 95.36369323730469 80.60575866699219 95.16585540771484 80.31986999511719 95.15274047851562 C 80.06881713867188 95.14087677001953 79.78471374511719 95.19339752197266 79.52372741699219 95.17966461181641 C 79.23823547363281 95.16422271728516 79.00735473632812 95.09114837646484 78.80843353271484 95.07159423828125 C 78.78919219970703 95.01325225830078 78.65194702148438 94.99238586425781 78.61952209472656 94.92310333251953 C 78.59322357177734 94.86701202392578 78.61502075195312 94.76887512207031 78.61952209472656 94.66661834716797 C 78.6348876953125 94.31324005126953 78.53953552246094 93.82331848144531 78.55187225341797 93.49273681640625 C 78.55606079101562 93.38211059570312 78.59515380859375 93.26287078857422 78.61952209472656 93.15510559082031 C 78.63651275634766 93.07977294921875 78.63558197021484 92.98776245117188 78.68685913085938 92.95277404785156 C 78.74140167236328 92.95603179931641 78.71510314941406 93.08714294433594 78.72743225097656 93.15510559082031 C 78.74171447753906 93.23462677001953 78.78880310058594 93.31352233886719 78.80843353271484 93.39816284179688 C 78.92061614990234 93.88359069824219 78.93217468261719 94.47103881835938 78.82185363769531 94.95002746582031 C 78.94148254394531 94.98020172119141 79.04490661621094 94.88493347167969 79.18624877929688 94.86895751953125 C 79.30316925048828 94.85575866699219 79.42062377929688 94.8984375 79.56415557861328 94.90968322753906 C 79.92506408691406 94.93753051757812 80.5360107421875 94.96321868896484 80.77876281738281 94.86895751953125 C 80.87954711914062 94.83016204833984 80.92810821533203 94.74070739746094 81.04875183105469 94.74769592285156 C 81.11376190185547 94.32192993164062 81.08203125 93.77009582519531 81.04875183105469 93.33051300048828 C 81.03974914550781 93.21181488037109 80.97915649414062 93.07915496826172 81.07566833496094 92.99319458007812 C 80.48954010009766 92.94253540039062 79.80332946777344 93.03485107421875 79.22682952880859 92.97969055175781 C 79.06553649902344 92.96433258056641 78.91162109375 92.89800262451172 78.76785278320312 92.93934631347656 C 79.00750732421875 92.67378997802734 79.73149108886719 92.722900390625 80.30644226074219 92.6962890625 C 80.61452484130859 92.68186187744141 81.41392517089844 92.58658599853516 81.12966918945312 92.96627044677734" fill="#ff4d16" stroke="none" stroke-width="0"/>
</svg>