<svg xmlns="http://www.w3.org/2000/svg" width="26" height="15" viewBox="3.022724151611328 0.01137170754373074 26.46137237548828 15.23860635794699" fill="none">
  <path d="M 27.85105133056641 13.74806118011475 L 26.86203193664551 14.30595684051514 C 26.71541976928711 14.38869762420654 26.53542327880859 14.40442371368408 26.38421630859375 14.3303918838501 C 24.9074592590332 13.60798168182373 24.13133811950684 8.576752662658691 24.13133811950684 8.576752662658691 C 22.43781089782715 9.121100425720215 17.35722732543945 8.425544738769531 17.35722732543945 8.425544738769531 L 17.85585021972656 9.27714729309082 C 17.96060752868652 9.456418991088867 17.83456039428711 9.681174278259277 17.62698364257812 9.687464714050293 C 14.14242839813232 9.790043830871582 10.00852680206299 8.486027717590332 10.00852680206299 8.486027717590332 C 10.00852680206299 8.486027717590332 8.284756660461426 15.24997806549072 7.377510070800781 15.17957592010498 C 6.939128875732422 15.14546394348145 6.533649444580078 14.79829025268555 6.231717586517334 14.44845581054688 C 5.834948062896729 13.9890251159668 5.223100662231445 13.77685070037842 4.624075889587402 13.87555980682373 L 3.990454196929932 13.97983264923096 C 3.990454196929932 13.97983264923096 3.022724151611328 12.04437160491943 3.66795825958252 8.294417381286621 C 4.312950134277344 4.544462203979492 7.982341766357422 4.988166332244873 7.982341766357422 4.988166332244873 C 7.982341766357422 4.988166332244873 10.17642784118652 1.442402839660645 14.40468311309814 0.01137170754373074 C 14.58613300323486 -0.05007916316390038 14.74121189117432 0.1577409207820892 14.63064765930176 0.3137874007225037 L 13.74832057952881 1.560707807540894 C 13.74832057952881 1.560707807540894 16.4666748046875 0.4381407201290131 19.70252227783203 0.4879788458347321 C 23.8373908996582 0.5518490672111511 27.53000831604004 3.261009693145752 28.76216888427734 7.208381652832031 C 28.86208724975586 7.528215885162354 28.94265174865723 7.852164268493652 28.99515151977539 8.17345142364502 C 29.01426315307617 8.290545463562012 28.90007019042969 8.385867118835449 28.7868480682373 8.351271629333496 L 27.63936042785645 8.002162933349609 C 27.63936042785645 8.002162933349609 29.48409652709961 11.24817180633545 29.24216461181641 13.86902713775635 C 29.24216461181641 13.86902713775635 28.65257453918457 13.58185291290283 27.85105133056641 13.74806118011475" fill="#4f1c18" stroke="none" stroke-width="0"/>
</svg>