<svg xmlns="http://www.w3.org/2000/svg" width="1" height="1" viewBox="436.6608276367188 324.9840087890625 1 1.212890625" fill="none">
  <path d="M 437.4879150390625 324.9840087890625 C 437.6401977539062 325.1808471679688 437.2919006347656 325.4375 437.3365173339844 325.8433227539062 C 437.2572326660156 325.824951171875 437.3801879882812 325.754150390625 437.2854614257812 325.7420654296875 C 437.2597961425781 325.935791015625 437.0609741210938 325.95556640625 437.0324401855469 326.146728515625 C 436.9740905761719 326.1382751464844 436.9901733398438 326.0539855957031 436.9826049804688 325.9944763183594 C 436.9140625 326.0443725585938 436.9165649414062 326.1653442382812 436.8314208984375 326.1968994140625 C 436.6608276367188 326.0398559570312 436.9639282226562 325.9287414550781 437.08349609375 325.8937683105469 C 437.0550537109375 325.7786865234375 437.0043029785156 325.9547119140625 436.9317932128906 325.8433227539062 C 436.9532775878906 325.7463073730469 437.0764465332031 325.7518920898438 437.0324401855469 325.5900268554688 C 437.0784606933594 325.6126098632812 437.1230163574219 325.6346130371094 437.1343078613281 325.6918640136719 C 437.181640625 325.5717468261719 437.1531982421875 325.4656982421875 437.2349548339844 325.2367248535156 C 437.3449401855469 325.2282409667969 437.2583618164062 325.415771484375 437.2854614257812 325.4893493652344 C 437.3968505859375 325.304931640625 437.4241943359375 325.1929626464844 437.4879150390625 324.9840087890625" fill="#2777df" stroke="none" stroke-width="0"/>
</svg>