<svg xmlns="http://www.w3.org/2000/svg" width="1" height="1" viewBox="398.9478454589844 135.7180023193359 1 1.000564575195284" fill="none">
  <path d="M 399.163818359375 135.7180023193359 C 399.2557678222656 135.9698333740234 399.2396850585938 136.0149536132812 399.4667053222656 136.2233581542969 C 399.4711608886719 136.3037261962891 399.4424438476562 136.4165344238281 399.5174560546875 136.4255523681641 C 399.4176330566406 136.5885467529297 399.3051147460938 136.5073699951172 399.1130676269531 136.5769958496094 C 398.9478454589844 136.7185668945312 399.3104858398438 136.4182281494141 399.0625915527344 136.4763336181641 C 399.1277160644531 136.4537506103516 399.2912902832031 136.4018707275391 399.1130676269531 136.1226806640625 C 399.1796264648438 136.1827392578125 399.1923217773438 136.1421508789062 399.2648010253906 136.1226806640625 C 399.0552673339844 135.9402313232422 399.0777893066406 136.3043060302734 398.9616394042969 136.2741241455078 C 398.9504089355469 136.1875457763672 399.0468444824219 136.1432647705078 398.9616394042969 136.1226806640625 C 398.9726257324219 136.0335693359375 399.0487670898438 136.0070648193359 399.163818359375 136.0208740234375 C 399.1311340332031 135.9100494384766 399.0970153808594 135.8530883789062 399.163818359375 135.7180023193359" fill="#2777df" stroke="none" stroke-width="0"/>
</svg>