<svg xmlns="http://www.w3.org/2000/svg" width="10" height="4" viewBox="234.6239929199219 174.1867828369141 9.896179199218693 3.6996002197265057" fill="none">
  <path d="M 243.7489318847656 174.7699432373047 C 242.826904296875 174.2187194824219 241.2204284667969 174.2764282226562 240.1833343505859 174.23876953125 C 238.7549896240234 174.1867828369141 237.3358154296875 174.2926635742188 235.9246520996094 174.5113372802734 C 235.9200744628906 174.5119018554688 235.9164428710938 174.5136260986328 235.9120483398438 174.5145874023438 C 235.4942321777344 174.4629821777344 235.0708618164062 174.5380859375 234.8762817382812 174.9773254394531 C 234.6239929199219 175.5472717285156 234.6813354492188 176.7413024902344 235.1681518554688 177.1988830566406 C 235.8990478515625 177.8863830566406 237.4183654785156 177.7397766113281 238.3174743652344 177.7130279541016 C 239.0573577880859 177.6910400390625 239.7943725585938 177.6394348144531 240.5348358154297 177.6746215820312 C 241.196533203125 177.7059631347656 241.8529052734375 177.8147125244141 242.5146179199219 177.7149353027344 C 243.2594604492188 177.6027526855469 244.020751953125 177.2197113037109 244.2908020019531 176.4718017578125 C 244.5201721191406 175.8362731933594 244.3406982421875 175.1237182617188 243.7489318847656 174.7699432373047 M 241.6329040527344 175.3712463378906 C 241.5939025878906 175.333984375 241.556640625 175.2949829101562 241.5184020996094 175.2567596435547 C 241.5384826660156 175.1990356445312 241.5585632324219 175.1415100097656 241.5784301757812 175.0837860107422 C 241.61376953125 175.1294555664062 241.6497192382812 175.1745758056641 241.6871643066406 175.2179565429688 C 241.6690063476562 175.2691802978516 241.6510620117188 175.3202209472656 241.6329040527344 175.3712463378906 M 240.5589141845703 175.6697998046875 C 240.5101623535156 175.6220092773438 240.4627685546875 175.5732727050781 240.4151763916016 175.5245361328125 C 240.4593353271484 175.4085235595703 240.5044403076172 175.2926940917969 240.5506896972656 175.1774444580078 C 240.5885314941406 175.2179565429688 240.6261901855469 175.2586669921875 240.6644287109375 175.2987976074219 C 240.6250457763672 175.4209442138672 240.5915832519531 175.5453796386719 240.5589141845703 175.6697998046875 M 239.4946899414062 175.594482421875 C 239.4887390136719 175.5860900878906 239.4826354980469 175.5778656005859 239.4734497070312 175.57080078125 C 239.3755950927734 175.4972076416016 239.2838439941406 175.416748046875 239.1951599121094 175.3334045410156 C 239.2207794189453 175.2494964599609 239.24658203125 175.1655883789062 239.2721862792969 175.0814971923828 C 239.3650817871094 175.1988525390625 239.4623718261719 175.3117980957031 239.564453125 175.4205627441406 C 239.5411071777344 175.4786682128906 239.5179901123047 175.5365753173828 239.4946899414062 175.594482421875 M 238.9321594238281 175.5677490234375 C 238.8721618652344 175.5176696777344 238.8167266845703 175.4593505859375 238.7639617919922 175.3991546630859 C 238.7851867675781 175.3418273925781 238.8073577880859 175.2844848632812 238.8301086425781 175.2275085449219 C 238.8782653808594 175.2821807861328 238.9273986816406 175.3360748291016 238.9788055419922 175.3876953125 C 238.9644775390625 175.4345092773438 238.9503173828125 175.4811401367188 238.9359893798828 175.5277862548828 C 238.9315795898438 175.5423126220703 238.9306335449219 175.5554962158203 238.9321594238281 175.5677490234375 M 238.4726867675781 175.6845245361328 C 238.4375152587891 175.6518249511719 238.4036865234375 175.6180114746094 238.3704223632812 175.5835876464844 C 238.4019622802734 175.5037078857422 238.4335021972656 175.4236145019531 238.46484375 175.3435363769531 C 238.4713439941406 175.3509826660156 238.4770812988281 175.358642578125 238.4835815429688 175.3660888671875 C 238.5044097900391 175.3899841308594 238.5258178710938 175.4154052734375 238.5470275878906 175.4404296875 C 238.5191345214844 175.521484375 238.4935150146484 175.6029052734375 238.4726867675781 175.6845245361328 M 238.4656066894531 174.8230743408203 C 238.4457397460938 174.87353515625 238.4258422851562 174.9239959716797 238.4059753417969 174.9746398925781 C 238.3987121582031 174.9652709960938 238.3918151855469 174.9557189941406 238.3845672607422 174.9465484619141 C 238.4031066894531 174.9064025878906 238.418212890625 174.86474609375 238.435791015625 174.8240356445312 C 238.4457397460938 174.8236389160156 238.4556579589844 174.8234558105469 238.4656066894531 174.8230743408203 M 239.1575012207031 174.8028106689453 C 239.1191101074219 174.9287719726562 239.0804901123047 175.0549163818359 239.0418701171875 175.1810607910156 C 238.99658203125 175.1325225830078 238.95166015625 175.0834045410156 238.9092254638672 175.0323791503906 C 238.9407653808594 174.9557189941406 238.9713439941406 174.8796539306641 239.0007934570312 174.8041534423828 C 239.0529632568359 174.8030090332031 239.1053314208984 174.8033905029297 239.1575012207031 174.8028106689453 M 238.7752380371094 174.8578643798828 C 238.76416015625 174.8425750732422 238.7519226074219 174.8284301757812 238.7410278320312 174.8129577636719 C 238.7588043212891 174.8123779296875 238.7763977050781 174.8116149902344 238.7941741943359 174.81103515625 C 238.7878723144531 174.8265228271484 238.7815551757812 174.8421936035156 238.7752380371094 174.8578643798828 M 238.1213684082031 174.9132995605469 C 238.1345520019531 174.9310607910156 238.14794921875 174.9486541748047 238.1613159179688 174.9664306640625 C 238.1230926513672 175.0447998046875 238.0850524902344 175.1231536865234 238.0428161621094 175.1997985839844 C 238.0288696289062 175.1812591552734 238.0151062011719 175.1625366210938 238.0013427734375 175.143798828125 C 238.04052734375 175.0665893554688 238.0795135498047 174.9891662597656 238.1213684082031 174.9132995605469 M 237.875 174.9721527099609 C 237.8491973876953 174.93603515625 237.8237915039062 174.9001007080078 237.7981567382812 174.8639831542969 C 237.8438415527344 174.8603515625 237.8895263671875 174.8580474853516 237.9352111816406 174.8547973632812 C 237.9141845703125 174.8934173583984 237.895263671875 174.9331665039062 237.875 174.9721527099609 M 238.2037506103516 175.3043518066406 C 238.2347106933594 175.2483520507812 238.2612915039062 175.1900634765625 238.2903442382812 175.1329040527344 C 238.3021850585938 175.1476135253906 238.3146057128906 175.1617736816406 238.3264617919922 175.1764831542969 C 238.2933959960938 175.2601928710938 238.2605285644531 175.3441162109375 238.2274475097656 175.4278259277344 C 238.2037506103516 175.4002990722656 238.1804351806641 175.3724060058594 238.1576843261719 175.3441162109375 C 238.1752624511719 175.3374176025391 238.19189453125 175.3259582519531 238.2037506103516 175.3043518066406 M 238.6187133789062 175.23095703125 C 238.5932922363281 175.2017211914062 238.5693969726562 175.171142578125 238.5445404052734 175.1415100097656 C 238.5682525634766 175.0814971923828 238.5917510986328 175.0212707519531 238.6154479980469 174.9612731933594 C 238.6403045654297 174.9952850341797 238.6661071777344 175.0285339355469 238.6921081542969 175.0617980957031 C 238.6685943603516 175.1193389892578 238.6450805664062 175.1770629882812 238.6223449707031 175.2351684570312 L 238.6187133789062 175.23095703125 M 239.9272155761719 175.2774047851562 C 239.9039001464844 175.3311157226562 239.8782958984375 175.3836669921875 239.8542022705078 175.43701171875 C 239.8322143554688 175.4154052734375 239.81005859375 175.3941955566406 239.7884521484375 175.3722076416016 C 239.8119506835938 175.3143005371094 239.8350830078125 175.2561950683594 239.8583984375 175.1980895996094 C 239.8811645507812 175.2246551513672 239.9042663574219 175.2510375976562 239.9272155761719 175.2774047851562 M 239.9382934570312 174.9991149902344 C 239.9432678222656 174.9866790771484 239.9482421875 174.9742736816406 239.9532165527344 174.9620361328125 C 239.9683074951172 174.9243774414062 239.9839782714844 174.8632202148438 240.003662109375 174.8075866699219 C 240.0418853759766 174.8087463378906 240.0801239013672 174.8085632324219 240.1181640625 174.8098754882812 C 240.0833740234375 174.9006805419922 240.0451354980469 174.98974609375 240.008056640625 175.0795745849609 C 239.9849395751953 175.0526275634766 239.9610595703125 175.0262603759766 239.9382934570312 174.9991149902344 M 240.2909545898438 174.8888244628906 C 240.330322265625 174.9337463378906 240.3685455322266 174.9796142578125 240.4084930419922 175.0239562988281 C 240.3609008789062 175.14111328125 240.3138732910156 175.25830078125 240.2682037353516 175.376220703125 C 240.2268981933594 175.3318786621094 240.1879272460938 175.2854309082031 240.1475830078125 175.2405090332031 C 240.1967163085938 175.1239318847656 240.2454528808594 175.0069580078125 240.2909545898438 174.8888244628906 M 241.1714935302734 174.88671875 C 241.1638488769531 174.8781127929688 241.1562042236328 174.8695068359375 241.1487579345703 174.8607330322266 C 241.164794921875 174.8614807128906 241.1804809570312 174.8622589111328 241.196533203125 174.8632202148438 C 241.1869812011719 174.869140625 241.1785736083984 174.8768005371094 241.1714935302734 174.88671875 M 240.9884033203125 174.9652709960938 C 241.0239410400391 175.0071411132812 241.0606384277344 175.0480346679688 241.0971527099609 175.0889434814453 C 241.0654144287109 175.1828002929688 241.0338745117188 175.2766418457031 241.0023498535156 175.3704833984375 C 240.9625854492188 175.3307189941406 240.9216918945312 175.2919311523438 240.8825073242188 175.2515869140625 C 240.9150085449219 175.1552734375 240.9516906738281 175.0602722167969 240.9884033203125 174.9652709960938 M 241.2439422607422 175.2510375976562 C 241.2620849609375 175.2701416015625 241.2806396484375 175.2886810302734 241.2987976074219 175.3076019287109 C 241.2682189941406 175.3959045410156 241.2374420166016 175.4844055175781 241.2068481445312 175.5727081298828 C 241.1886901855469 175.5554962158203 241.1713104248047 175.5377197265625 241.1533355712891 175.5203247070312 C 241.1835327148438 175.4305114746094 241.2137451171875 175.3408508300781 241.2439422607422 175.2510375976562 M 241.3137054443359 175.0436401367188 C 241.3226928710938 175.0170745849609 241.3316650390625 174.9905090332031 241.3404541015625 174.9639282226562 C 241.3546142578125 174.9220886230469 241.3395080566406 174.889404296875 241.3131256103516 174.869140625 C 241.3578491210938 174.8716125488281 241.4031524658203 174.8742980957031 241.4484558105469 174.8768005371094 C 241.4220886230469 174.9528503417969 241.3956909179688 175.0289306640625 241.369140625 175.1049957275391 C 241.3504028320312 175.0849304199219 241.3324279785156 175.0639038085938 241.3137054443359 175.0436401367188 M 241.6711120605469 174.89111328125 C 241.7162170410156 174.8943786621094 241.7611389160156 174.8976135253906 241.8062438964844 174.9012451171875 C 241.799560546875 174.9094696044922 241.7932739257812 174.9182586669922 241.7892456054688 174.9297180175781 C 241.7796936035156 174.9566802978516 241.7701416015625 174.9834289550781 241.7607727050781 175.0101928710938 C 241.72998046875 174.9714050292969 241.7001953125 174.931640625 241.6711120605469 174.89111328125 M 241.9731140136719 174.9815216064453 C 242.03466796875 175.0466918945312 242.0960083007812 175.1118774414062 242.1575622558594 175.1770629882812 C 242.1361694335938 175.2388000488281 242.11474609375 175.3007202148438 242.0935363769531 175.3624572753906 C 242.0274047851562 175.3033905029297 241.9645080566406 175.2410888671875 241.904296875 175.1761016845703 C 241.92724609375 175.1112976074219 241.9501953125 175.0465087890625 241.9731140136719 174.9815216064453 M 242.1984558105469 174.9419555664062 C 242.2097473144531 174.9434967041016 242.2208251953125 174.9454040527344 242.2321166992188 174.9469299316406 C 242.2298278808594 174.9551544189453 242.2276916503906 174.9626007080078 242.2254028320312 174.9706420898438 L 242.1984558105469 174.9419555664062 M 240.830322265625 174.8439025878906 C 240.796875 174.9274291992188 240.7668609619141 175.0119171142578 240.7366638183594 175.0965881347656 C 240.7011108398438 175.0587463378906 240.6651916503906 175.0210876464844 240.6300201416016 174.982666015625 C 240.6500854492188 174.9339294433594 240.669189453125 174.885009765625 240.6896514892578 174.8364562988281 C 240.7032165527344 174.8372192382812 240.716796875 174.83740234375 240.7303619384766 174.8383636474609 C 240.7630310058594 174.8402709960938 240.7970581054688 174.8419952392578 240.830322265625 174.8439025878906 M 239.7981872558594 174.8037719726562 C 239.7920837402344 174.8213500976562 239.7861633300781 174.8389434814453 239.7804260253906 174.8565216064453 C 239.7125701904297 174.8565216064453 239.6491088867188 174.9517211914062 239.7073974609375 175.0237731933594 C 239.7110443115234 175.0281677246094 239.7148590087891 175.0321807861328 239.7184906005859 175.0365753173828 C 239.6932678222656 175.0996398925781 239.6680297851562 175.1627197265625 239.6426086425781 175.2256011962891 C 239.5361480712891 175.1086273193359 239.4352264404297 174.9864959716797 239.3400421142578 174.8593902587891 C 239.3459777832031 174.8399047851562 239.3518981933594 174.8204040527344 239.3580169677734 174.8009033203125 C 239.5046081542969 174.8003234863281 239.6513977050781 174.8012847900391 239.7981872558594 174.8037719726562 M 242.6141662597656 177.1161193847656 C 241.934326171875 177.2772521972656 241.2204284667969 177.1333160400391 240.5348358154297 177.1011962890625 C 239.7947540283203 177.0662231445312 239.0569763183594 177.11669921875 238.3174743652344 177.1396179199219 C 237.7012634277344 177.158935546875 236.4397583007812 177.3179626464844 235.9269714355469 176.9679870605469 C 235.5508117675781 176.7114868164062 235.3787841796875 176.3590393066406 235.3778381347656 175.9358520507812 C 235.3764953613281 175.4071807861328 235.5731658935547 174.9702453613281 236.2339172363281 175.1718902587891 C 236.4026794433594 175.2233123779297 236.5246276855469 175.1239318847656 236.5683898925781 174.9943237304688 C 236.9044189453125 174.9496154785156 237.2411956787109 174.9132995605469 237.5785522460938 174.8836669921875 C 237.6445007324219 174.9765625 237.7108154296875 175.0690612792969 237.7775268554688 175.1617736816406 C 237.7752380371094 175.1665344238281 237.7725524902344 175.171142578125 237.770263671875 175.1761016845703 C 237.7282104492188 175.2636413574219 237.8226318359375 175.3410491943359 237.8902893066406 175.3144836425781 C 237.9722900390625 175.4232482910156 238.0567626953125 175.5298919677734 238.1475524902344 175.630615234375 C 238.13818359375 175.6543273925781 238.1290283203125 175.6780242919922 238.1196594238281 175.7017211914062 C 238.0777893066406 175.8078002929688 238.2320404052734 175.8563537597656 238.29052734375 175.773193359375 C 238.3262634277344 175.8079833984375 238.3591461181641 175.8452606201172 238.3968048095703 175.8779449462891 C 238.4206848144531 175.8989715576172 238.4474487304688 175.9048919677734 238.4726867675781 175.9014587402344 C 238.521240234375 175.9473266601562 238.6118316650391 175.9467468261719 238.627685546875 175.8638000488281 C 238.6443176269531 175.7776031494141 238.6674499511719 175.6915893554688 238.6938171386719 175.6055755615234 C 238.7803955078125 175.6971282958984 238.8742523193359 175.7802734375 238.9843444824219 175.8318786621094 C 239.0950164794922 175.8838653564453 239.1921081542969 175.7191162109375 239.0808715820312 175.6669311523438 C 239.06787109375 175.6608276367188 239.0565948486328 175.6506958007812 239.0439758300781 175.6436157226562 C 239.0768585205078 175.6392211914062 239.1078186035156 175.6197204589844 239.1202392578125 175.5786285400391 C 239.1246337890625 175.5641021728516 239.1290283203125 175.5497741699219 239.1336364746094 175.5352478027344 C 239.2116088867188 175.6050109863281 239.2924499511719 175.6720886230469 239.3769378662109 175.7357482910156 C 239.4272155761719 175.7735900878906 239.476318359375 175.7485504150391 239.4996490478516 175.7053527832031 C 239.5428314208984 175.7487487792969 239.6376495361328 175.7485504150391 239.6686096191406 175.6713256835938 C 239.6821746826172 175.6376953125 239.695556640625 175.6038513183594 239.7091217041016 175.5702209472656 C 239.7282409667969 175.5889587402344 239.7481231689453 175.6067199707031 239.7674255371094 175.6250762939453 C 239.7465972900391 175.6692199707031 239.7276611328125 175.7141418457031 239.7062683105469 175.7581176757812 C 239.6525573730469 175.8681945800781 239.8173065185547 175.9652862548828 239.8712158203125 175.8546142578125 C 239.8870697021484 175.8221282958984 239.9010314941406 175.7886962890625 239.9166870117188 175.7560119628906 C 240.0048217773438 175.7951965332031 240.1080322265625 175.6793518066406 240.0246887207031 175.6050109863281 C 240.0153198242188 175.5965881347656 240.0074768066406 175.5872344970703 239.9981384277344 175.5788269042969 C 240.0201110839844 175.5308532714844 240.0428466796875 175.4834442138672 240.0642547607422 175.4352722167969 C 240.1064910888672 175.4817199707031 240.1502685546875 175.5270385742188 240.1936645507812 175.572509765625 C 240.1653747558594 175.6476287841797 240.1357421875 175.72216796875 240.1082153320312 175.7976684570312 C 240.0659790039062 175.9134979248047 240.2506103515625 175.96337890625 240.29248046875 175.8485107421875 C 240.3081359863281 175.8058776855469 240.3249664306641 175.7636413574219 240.3406372070312 175.7210235595703 C 240.4075317382812 175.7881164550781 240.4717559814453 175.8578796386719 240.5407562255859 175.9230651855469 C 240.6089782714844 175.9874572753906 240.7032165527344 175.9240112304688 240.7045593261719 175.8527221679688 C 240.705322265625 175.8502502441406 240.7070465087891 175.8486938476562 240.7076110839844 175.8460388183594 C 240.7395324707031 175.7147216796875 240.7789001464844 175.5858917236328 240.8180847167969 175.4570770263672 C 240.8565063476562 175.4958648681641 240.8955078125 175.5340881347656 240.9345092773438 175.572509765625 L 240.8576507568359 175.8007202148438 C 240.8184661865234 175.9176940917969 241.0029296875 175.9677734375 241.0421142578125 175.8515625 C 241.056640625 175.8079833984375 241.0713500976562 175.7646026611328 241.0858764648438 175.7210235595703 C 241.103271484375 175.7374572753906 241.1212310791016 175.7531433105469 241.1386108398438 175.7693786621094 C 241.1321105957031 175.7879180908203 241.1258239746094 175.8062744140625 241.1193237304688 175.8248138427734 C 241.0831909179688 175.9291687011719 241.2267303466797 175.9790649414062 241.2861785888672 175.9052734375 C 241.32421875 175.9400634765625 241.3612976074219 175.9757995605469 241.39990234375 176.0100250244141 C 241.4916381835938 176.0914459228516 241.6271667480469 175.9566955566406 241.5350341796875 175.8748931884766 C 241.4755859375 175.8221282958984 241.4182434082031 175.7674865722656 241.3599548339844 175.7135620117188 C 241.3895874023438 175.6283264160156 241.4192199707031 175.5428771972656 241.4488220214844 175.4574584960938 C 241.4866943359375 175.4943542480469 241.52490234375 175.5308532714844 241.5635070800781 175.5669555664062 C 241.55126953125 175.6019592285156 241.5388488769531 175.6369171142578 241.5264282226562 175.6719055175781 C 241.4853515625 175.7881164550781 241.6699829101562 175.8379974365234 241.710693359375 175.7227478027344 C 241.7127990722656 175.7172088623047 241.7147216796875 175.7114562988281 241.716796875 175.7059326171875 C 241.7338256835938 175.7210235595703 241.7500610351562 175.7370910644531 241.7674560546875 175.7519836425781 C 241.8601684570312 175.8320770263672 241.9958801269531 175.697509765625 241.902587890625 175.6168518066406 C 241.8628234863281 175.5824584960938 241.8247985839844 175.546142578125 241.7857971191406 175.5107727050781 C 241.8013000488281 175.4668273925781 241.8169555664062 175.4226684570312 241.8326416015625 175.3786926269531 C 241.8943786621094 175.4410095214844 241.958984375 175.5006408691406 242.0260620117188 175.5578002929688 L 241.9100341796875 175.8943786621094 C 241.8699035644531 176.0107879638672 242.0543518066406 176.0608520507812 242.0942993164062 175.9450378417969 C 242.103271484375 175.9192199707031 242.1376953125 175.8135375976562 242.1814575195312 175.6793518066406 C 242.207275390625 175.6988525390625 242.2313537597656 175.7198791503906 242.2577209472656 175.7386169433594 C 242.3584594726562 175.8097229003906 242.4540100097656 175.6440124511719 242.354248046875 175.5734558105469 C 242.3160095214844 175.5465240478516 242.2804565429688 175.5165100097656 242.2437744140625 175.4878387451172 C 242.2615356445312 175.4335632324219 242.2795104980469 175.3785095214844 242.2970886230469 175.3249969482422 C 242.3976440429688 175.431640625 242.4983520507812 175.5384979248047 242.5989074707031 175.6451416015625 C 242.6835632324219 175.7347869873047 242.8185119628906 175.5994567871094 242.7342224121094 175.510009765625 L 242.3649597167969 175.1183776855469 C 242.3846435546875 175.0589294433594 242.4010620117188 175.0094299316406 242.4134826660156 174.9732971191406 C 242.6076965332031 175.0057983398438 242.7967224121094 175.0478515625 242.9746704101562 175.1053771972656 C 244.4877014160156 175.594482421875 243.6537475585938 176.8697509765625 242.6141662597656 177.1161193847656" fill="#231f20" stroke="#ffffff" stroke-width="1"/>
</svg>