<svg xmlns="http://www.w3.org/2000/svg" width="1" height="1" viewBox="280.3370361328125 249.3480224609375 1 1" fill="none">
  <path d="M 280.7994995117188 249.3480224609375 C 280.8666381835938 249.3984985351562 280.8985290527344 249.4848022460938 281.0017395019531 249.4997406005859 C 281.0008850097656 249.6007232666016 280.9258422851562 249.7185974121094 280.9509887695312 249.7521362304688 C 280.9300842285156 249.8497009277344 280.754638671875 249.7924652099609 280.7994995117188 249.9543609619141 C 280.7445068359375 249.9421997070312 280.7651062011719 249.8545227050781 280.6979675292969 249.8536529541016 C 280.6083679199219 249.8908996582031 280.69091796875 249.9455871582031 280.6979675292969 250.0050964355469 C 280.8087768554688 250.1274871826172 280.6024169921875 249.9264373779297 280.5465698242188 249.9047393798828 C 280.505126953125 249.9140319824219 280.4966735839844 249.9552154541016 280.4456176757812 249.9543609619141 C 280.4955139160156 250.0225982666016 280.5290832519531 250.1074829101562 280.5973205566406 250.1565551757812 C 280.612548828125 250.3150177001953 280.450927734375 250.0287780761719 280.4456176757812 250.2075805664062 C 280.3370361328125 249.7191619873047 280.7357482910156 249.6083068847656 280.7994995117188 249.3480224609375" fill="#2777df" stroke="none" stroke-width="0"/>
</svg>