<svg xmlns="http://www.w3.org/2000/svg" width="1" height="1" viewBox="408.26806640625 113.1349945068359 1 1" fill="none">
  <path d="M 408.2785339355469 113.3876800537109 C 408.2878112792969 113.330436706543 408.3292846679688 113.3597717285156 408.3283996582031 113.3876800537109 C 408.4144592285156 113.3549652099609 408.3600158691406 113.2714996337891 408.2785339355469 113.2864379882812 C 408.3052978515625 113.2461166381836 408.3309631347656 113.2046585083008 408.3283996582031 113.1349945068359 C 408.3961181640625 113.1685791015625 408.4231872558594 113.2430038452148 408.4296569824219 113.3369216918945 C 408.4891662597656 113.3287582397461 408.4722290039062 113.2452774047852 408.480712890625 113.1854858398438 C 408.55517578125 113.2452774047852 408.7063293457031 113.2294845581055 408.6820983886719 113.3876800537109 C 408.6372680664062 113.365119934082 408.591796875 113.3434143066406 408.5813903808594 113.2864379882812 C 408.5365295410156 113.3016662597656 408.3600158691406 113.423225402832 408.480712890625 113.4384460449219 C 408.4358825683594 113.5145950317383 408.4048461914062 113.424072265625 408.2785339355469 113.4886474609375 C 408.26806640625 113.4463500976562 408.2973937988281 113.4412612915039 408.3283996582031 113.4384460449219 C 408.3377380371094 113.3952941894531 408.3083801269531 113.3908004760742 408.2785339355469 113.3876800537109" fill="#2777df" stroke="none" stroke-width="0"/>
</svg>