<svg xmlns="http://www.w3.org/2000/svg" width="4" height="4" viewBox="172.487548828125 117.4759979248047 3.9339294433594034 4.413055419921903" fill="none">
  <path d="M 176.2919158935547 117.4759979248047 C 176.4214782714844 117.6552886962891 176.2550659179688 117.8604965209961 176.1836853027344 118.0156555175781 C 176.1019287109375 118.1939392089844 176.0282287597656 118.387580871582 175.9541168212891 118.5690383911133 C 175.8825988769531 118.7457733154297 175.75 118.8893737792969 175.6708679199219 119.0686721801758 C 175.4372863769531 119.5990142822266 175.2351837158203 120.1889419555664 175.0502319335938 120.7690124511719 C 174.9271850585938 121.1537399291992 174.8309020996094 121.555534362793 174.6182556152344 121.8890533447266 C 174.1391906738281 121.7577896118164 173.8656311035156 121.3490142822266 173.5115661621094 120.9713516235352 C 173.3688812255859 120.818977355957 173.1756286621094 120.6513290405273 172.9851684570312 120.4855346679688 C 172.8296813964844 120.3499221801758 172.487548828125 120.1947631835938 172.4994201660156 119.9724884033203 C 172.5059509277344 119.8538665771484 172.6534271240234 119.8356399536133 172.6883392333984 119.7567367553711 C 173.037841796875 119.8282699584961 173.2840881347656 120.0212860107422 173.5653076171875 120.1886291503906 C 173.8557739257812 120.3610992431641 174.0824890136719 120.4842147827148 174.2807769775391 120.7282867431641 C 174.5438537597656 119.9997940063477 174.9517822265625 119.3870620727539 175.3470458984375 118.7713775634766 C 175.640625 118.3144989013672 175.8914489746094 117.8133239746094 176.2646179199219 117.4759979248047 L 176.2919158935547 117.4759979248047 Z" fill="#ff4d16" stroke="none" stroke-width="0"/>
</svg>