<svg xmlns="http://www.w3.org/2000/svg" width="1" height="1" viewBox="134.5517120361328 87.32601165771484 1 1" fill="none">
  <path d="M 134.6907501220703 87.47828674316406 C 134.7243041992188 87.54539489746094 134.7987670898438 87.57191467285156 134.8929290771484 87.57895660400391 C 134.8715057373047 87.51663208007812 134.8283538818359 87.47518920898438 134.7415161132812 87.47828674316406 C 134.7680053710938 87.43711090087891 134.7945098876953 87.39566040039062 134.7922668457031 87.32601165771484 C 134.8951873779297 87.41625213623047 134.8060913085938 87.51240539550781 134.9942016601562 87.42752075195312 C 135.0720062255859 87.45401763916016 134.9969940185547 87.47998046875 134.9437103271484 87.47828674316406 C 134.8836364746094 87.53383636474609 134.8551483154297 87.88324737548828 134.6402740478516 87.93260192871094 C 134.6856842041016 87.84349060058594 134.7623748779297 87.78511047363281 134.7922668457031 87.67963409423828 C 134.782958984375 87.53749847412109 134.5517120361328 87.61731719970703 134.5900726318359 87.42752075195312 C 134.6757965087891 87.44585418701172 134.6856842041016 87.38748168945312 134.6907501220703 87.32601165771484 C 134.7812652587891 87.36293792724609 134.6980743408203 87.41765594482422 134.6907501220703 87.47828674316406" fill="#2777df" stroke="none" stroke-width="0"/>
</svg>