<svg xmlns="http://www.w3.org/2000/svg" width="73" height="62" viewBox="0.006230354309082031 0.1961965262889862 72.60447216033936 61.8104181587696" fill="none">
  <path d="M 23.68042182922363 60.99042510986328 C 23.49612998962402 60.92132568359375 23.35279655456543 60.82661056518555 23.15057563781738 60.632080078125 C 22.87158012390137 60.35564041137695 22.57978248596191 60.06895446777344 22.35196495056152 59.72851943969727 C 22.26749992370605 59.59286117553711 22.19071006774902 59.46487808227539 22.1471996307373 59.32922744750977 C 21.87075996398926 58.65090942382812 21.75556755065918 58.16201782226562 21.97314262390137 57.65520477294922 L 22.03457832336426 57.48371505737305 C 22.24189949035645 56.95898818969727 22.58490562438965 56.12709426879883 22.82806587219238 55.53836441040039 L 22.91254234313965 55.30288696289062 C 23.80329322814941 53.22444915771484 24.79388236999512 50.86701202392578 25.17527198791504 48.48397827148438 C 25.15734672546387 48.49166107177734 25.12663459777832 48.49166107177734 25.10103797912598 48.49678039550781 L 25.03192329406738 48.64523696899414 L 25.01656913757324 48.64267349243164 C 24.20516014099121 48.74506378173828 23.48591041564941 48.68107223510742 22.86902046203613 48.44302749633789 C 22.2214298248291 48.19474029541016 21.68646812438965 47.75959777832031 21.28972434997559 47.1580810546875 L 21.20269203186035 47.01218032836914 L 21.19757652282715 47.0045051574707 C 21.06447410583496 46.76133728027344 21.01072120666504 46.52072525024414 20.95440483093262 46.24940490722656 C 20.9108943939209 46.04463577270508 20.86993598937988 45.84497833251953 20.76754951477051 45.68115997314453 C 20.66004753112793 45.5327033996582 20.50390434265137 45.40983963012695 20.27354621887207 45.30745697021484 C 20.22234535217285 45.2818603515625 20.0918025970459 45.29465484619141 19.96893501281738 45.29209518432617 C 19.7718448638916 45.31513977050781 19.66178703308105 45.30489730834961 19.57731056213379 45.26906204223633 C 19.52612113952637 45.24858474731445 19.48772239685059 45.23066711425781 19.4416561126709 45.199951171875 C 19.36741828918457 45.1282844543457 19.30855369567871 45.0463752746582 19.2752742767334 44.99773406982422 L 19.16777229309082 44.78784561157227 L 19.19848442077637 44.67010116577148 C 19.24456214904785 44.52164459228516 19.39557838439941 44.4550895690918 19.6822566986084 44.33478546142578 C 19.7795238494873 44.29383850097656 19.88447380065918 44.25032043457031 19.98941993713379 44.19656753540039 C 20.28377723693848 44.02250671386719 20.54485893249512 43.98667907714844 20.77522850036621 44.07114410400391 C 21.0081615447998 44.16585159301758 21.1668529510498 44.37062454223633 21.27435493469238 44.5369987487793 C 21.36394691467285 44.66754913330078 21.43305778503418 44.80576324462891 21.54056358337402 45.00285720825195 C 21.60967826843262 45.14619445800781 21.69670295715332 45.30233001708984 21.78629112243652 45.44311904907227 C 21.8809986114502 45.58901596069336 22.02689552307129 45.79122924804688 22.24703407287598 45.87570190429688 C 22.40316200256348 45.93712615966797 22.6079273223877 45.91920852661133 22.7999095916748 45.85265731811523 C 23.01492881774902 45.63509368896484 22.87926292419434 45.05660629272461 22.48763084411621 44.4602165222168 C 22.28286170959473 44.1402587890625 22.02945518493652 43.85613632202148 21.85027885437012 43.75630950927734 L 21.7299747467041 43.68975830078125 L 21.71462059020996 43.54641723632812 C 21.71205711364746 43.4107551574707 21.70694541931152 43.26997375488281 21.70950126647949 43.12919616699219 C 21.70438957214355 42.79643630981445 21.70950126647949 42.56351470947266 21.53287696838379 42.29475021362305 C 21.45097541809082 42.17699813842773 21.35371208190918 42.06693267822266 21.3178768157959 41.97223663330078 C 19.76928520202637 42.26914596557617 18.5560131072998 43.28533172607422 17.28131103515625 44.36806488037109 C 16.39567184448242 45.1077995300293 15.47675895690918 45.87570190429688 14.41449737548828 46.43881988525391 L 14.27116012573242 46.52584838867188 L 14.07919120788574 46.56424331665039 L 13.94864654541016 46.51817321777344 C 13.59029579162598 46.37482833862305 13.13467407226562 46.49513626098633 12.67650032043457 46.60519409179688 C 12.5971508026123 46.63079833984375 12.5152416229248 46.64615631103516 12.44357299804688 46.6589469909668 L 12.27718925476074 46.64871978759766 L 12.20296478271484 46.62567520141602 C 12.03914642333984 46.55912399291992 11.86509132385254 46.43370056152344 11.65775489807129 46.28268051147461 C 11.50162315368652 46.16493988037109 11.35060119628906 46.05743026733398 11.23541641235352 46.01391983032227 L 11.08951187133789 45.91665267944336 C 11.19190406799316 46.12398529052734 11.21237945556641 46.28524398803711 11.14070892333984 46.44137573242188 C 11.0280818939209 46.62567520141602 10.79771614074707 46.62823104858398 10.49567413330078 46.63591384887695 C 10.33442115783691 46.63847732543945 10.11429023742676 46.63847732543945 10.07845497131348 46.69734191894531 C 10.0502986907959 46.74341583251953 10.04774284362793 46.81509017944336 10.09637832641602 46.91747665405273 C 10.11684417724609 47.0045051574707 10.16292190551758 47.09153747558594 10.21411323547363 47.17088317871094 C 10.33954048156738 47.36285018920898 10.50591278076172 47.49595260620117 10.72604751586914 47.58042526245117 C 11.64751625061035 47.93621826171875 13.31640815734863 47.35773086547852 14.66534233093262 46.80996704101562 C 14.99810218811035 46.68199157714844 15.33342170715332 46.54376983642578 15.64569473266602 46.41066360473633 L 15.9374942779541 46.28012084960938 C 17.53215980529785 45.6094970703125 18.28725242614746 45.32025146484375 18.62000846862793 45.44823455810547 L 18.81966209411621 45.5327033996582 L 18.80685997009277 45.72723770141602 C 18.74798774719238 46.44905853271484 18.05688285827637 46.5130500793457 17.40417289733887 46.5796012878418 C 17.23267936706543 46.60007858276367 17.05606651306152 46.62055587768555 16.89224433898926 46.64871978759766 C 15.13632202148438 47.05825424194336 14.46057319641113 47.76984024047852 13.92560768127441 48.33808517456055 C 13.0809154510498 49.22372055053711 12.47428131103516 49.67678451538086 9.709861755371094 48.61964797973633 C 9.52301025390625 48.54796981811523 9.333597183227539 48.4711799621582 9.136501312255859 48.39439010620117 L 8.954769134521484 48.3073616027832 L 8.895889282226562 48.27665328979492 C 8.501705169677734 48.06931686401367 8.156152725219727 47.76471710205078 7.813165664672852 47.28606796264648 C 6.904483795166016 47.71864318847656 5.965095520019531 48.00788879394531 5.133213043212891 48.25617599487305 C 4.181018829345703 48.5402946472168 3.290264129638672 48.81417846679688 2.509568214416504 49.24164581298828 L 2.294559478759766 49.3568229675293 L 2.156335830688477 49.15205383300781 L 1.797988891601562 48.60172653198242 L 1.713521003723145 48.46863174438477 L 1.782627105712891 48.33040237426758 C 2.217771530151367 47.47292327880859 2.297120094299316 46.51049041748047 2.376467704772949 45.57110214233398 C 2.504452705383301 43.88685607910156 2.645228385925293 42.14629364013672 4.846534729003906 40.86902618408203 L 5.361021041870117 40.40573120117188 C 5.609308242797852 39.91938781738281 5.926702499389648 39.75301742553711 6.172430038452148 39.61991500854492 C 6.436069488525391 39.47913360595703 6.65620231628418 39.36139678955078 6.837940216064453 39.01327514648438 C 6.991519927978516 38.69844055175781 7.521366119384766 38.02781295776367 7.628868103027344 37.87935638427734 C 9.282407760620117 36.15671157836914 10.61086082458496 34.32143783569336 11.58864784240723 32.39146041870117 C 11.23029899597168 31.69524955749512 11.06135940551758 30.98366165161133 11.07671928405762 30.21320724487305 C 10.80795860290527 29.48882484436035 11.35827827453613 28.97945785522461 11.76270866394043 28.61087036132812 C 12.10057640075684 28.30115127563477 12.24136161804199 28.14501190185547 12.12105751037598 28.00934791564941 C 11.89836120605469 27.92488098144531 11.36852264404297 27.82761383056641 9.973512649536133 27.79434204101562 C 9.69450569152832 27.78922080993652 9.402704238891602 27.78409767150879 9.128829956054688 27.79434204101562 L 8.854944229125977 27.79689598083496 L 8.675765991210938 27.8071346282959 C 8.092168807983398 27.81737899780273 7.426656723022461 27.83017539978027 6.796985626220703 27.76618385314941 C 6.389999389648438 27.7277889251709 5.686101913452148 27.69451141357422 4.831171035766602 27.65355682373047 C 3.541112899780273 27.59468650817871 2.202413558959961 27.53325653076172 1.582982063293457 27.38479995727539 C 1.334697723388672 27.28752899169922 1.104323387145996 27.08019638061523 0.8790760040283203 26.74744415283203 C 0.7869300842285156 26.59130668640137 0.6947832107543945 26.4249324798584 0.5565605163574219 26.16128730773926 L 0.4413738250732422 25.92579650878906 C 0.1060562133789062 25.36267471313477 -0.03216266632080078 24.78419303894043 0.006230354309082031 24.21339225769043 C 0.1163034439086914 22.63409042358398 1.329572677612305 21.51040077209473 2.33039665222168 20.58380699157715 C 3.653736114501953 19.36029624938965 8.755121231079102 15.53874015808105 9.965835571289062 14.91418361663818 C 13.91793823242188 12.86902523040771 17.88794898986816 11.14638137817383 21.76838111877441 9.794883728027344 C 22.12417411804199 9.666902542114258 22.51067924499512 9.50052547454834 22.8792667388916 9.33670711517334 C 23.33488273620605 9.142173767089844 23.7725772857666 8.955320358276367 24.16165351867676 8.850373268127441 L 25.36213111877441 8.517620086669922 L 25.89198112487793 8.376839637756348 C 27.56598854064941 7.926340579986572 29.86199760437012 7.304346561431885 30.80394554138184 7.107252597808838 C 31.41570472717285 6.976710796356201 31.96346473693848 6.925518035888672 32.55218505859375 6.869205951690674 C 33.49925994873047 6.771938323974609 34.38745880126953 6.674672603607178 35.49578094482422 6.160182952880859 C 38.53664398193359 4.701181411743164 40.92479705810547 3.95376443862915 43.49724578857422 3.144914388656616 C 44.46735382080078 2.850554704666138 45.47329711914062 2.528038740158081 46.51763916015625 2.179926633834839 C 51.82123565673828 0.3651345670223236 58.35346221923828 -0.3925223052501678 63.56746673583984 0.1961965262889862 C 64.67323303222656 0.3190595805644989 65.9095458984375 0.6262173652648926 67.04090118408203 1.056238412857056 C 68.25930023193359 1.52209460735321 69.93330383300781 2.361659288406372 70.99556732177734 3.659401655197144 C 71.04932403564453 3.713153839111328 71.2156982421875 3.97423791885376 71.40766906738281 4.26347827911377 C 71.56124877929688 4.506644725799561 71.68154907226562 4.698619365692139 71.71227264404297 4.762609958648682 C 72.61070251464844 6.567162990570068 72.44688415527344 8.213017463684082 72.26770782470703 10.09691905975342 C 72.15508270263672 11.25643920898438 71.81210327148438 12.13696002960205 71.43325805664062 13.10450553894043 C 71.27712249755859 13.51916885375977 71.11330413818359 13.9363956451416 70.98276519775391 14.39456844329834 C 70.93157196044922 14.57886505126953 70.93413543701172 14.79131507873535 70.93413543701172 15.05239868164062 C 70.94181060791016 15.34419727325439 70.93669128417969 15.5976037979126 70.85735321044922 15.82541179656982 C 70.51690673828125 16.8006420135498 70.17134857177734 17.51990127563477 69.53400421142578 18.69734191894531 C 67.99821472167969 21.5129566192627 65.53327941894531 24.93520545959473 62.21596527099609 28.87705993652344 C 61.68100738525391 29.51185607910156 60.60338592529297 30.62018775939941 59.36450958251953 31.90256881713867 C 58.52751159667969 32.76517105102539 57.60347747802734 33.71992111206055 56.66664886474609 34.71050262451172 C 54.64964294433594 36.84012985229492 52.56607818603516 39.05166625976562 52.01575469970703 39.81700134277344 C 51.32464599609375 40.76663589477539 49.40746307373047 43.08823394775391 48.27610778808594 44.44741058349609 L 47.68995666503906 45.14619064331055 C 47.19337463378906 45.7733039855957 44.67469024658203 48.34831237792969 44.05525207519531 48.85000228881836 C 43.59450531005859 49.22627258300781 42.90339660644531 49.850830078125 42.15854644775391 50.52658081054688 L 41.92817687988281 50.74927139282227 C 40.78145599365234 51.77825164794922 39.49140167236328 52.95824813842773 38.7900390625 53.4471435546875 L 38.62622833251953 53.55720138549805 C 34.18267822265625 56.76444244384766 26.32454109191895 62.00661468505859 23.68042182922363 60.99042510986328 M 49.660888671875 40.34684753417969 L 49.43563079833984 40.49275207519531 C 48.52182769775391 41.11474227905273 47.73602294921875 41.66250991821289 46.66607666015625 42.02085876464844 L 46.38452911376953 42.08484649658203 L 46.26934814453125 41.89543533325195 C 46.06456756591797 41.54220581054688 46.70960998535156 41.0328369140625 46.78128051757812 40.97396087646484 C 47.86656951904297 40.13695907592773 49.06192016601562 39.35882949829102 50.03202819824219 38.70867919921875 C 50.85880279541016 38.15579223632812 51.58318328857422 37.67969512939453 51.98504638671875 37.34182357788086 C 56.41323852539062 33.70968246459961 64.44029998779297 23.8012809753418 65.33873748779297 22.68015670776367 C 67.94189453125 19.45755767822266 68.74562835693359 17.17434883117676 69.0860595703125 16.17352676391602 C 69.16541290283203 15.92012214660645 69.23197174072266 15.75886249542236 69.28572082519531 15.64623832702637 C 69.44953918457031 15.35699653625488 69.52632904052734 15.04471969604492 69.55192565917969 14.85018539428711 L 69.42138671875 14.73244285583496 L 69.39579010009766 14.68125152587891 C 69.3343505859375 14.58142375946045 69.25756072998047 14.41248607635498 69.15005493164062 14.1872386932373 C 69.06558227539062 13.9696683883667 68.94528198242188 13.70090579986572 68.79682159423828 13.45517539978027 L 68.79426574707031 13.36814975738525 L 68.66628265380859 13.31951427459717 C 68.30793762207031 13.18129634857178 67.99053955078125 12.95092678070068 67.68593597412109 12.60281467437744 C 67.12538146972656 11.95010566711426 64.75258636474609 8.471542358398438 63.09905242919922 5.924692630767822 C 62.00864410400391 4.232763767242432 61.42503356933594 3.267775774002075 61.38408660888672 3.063004016876221 C 61.13066864013672 2.44868803024292 61.36616516113281 1.970033526420593 61.44551849365234 1.839491128921509 C 61.56837463378906 1.632159948348999 61.74755859375 1.504177451133728 61.95487976074219 1.481140732765198 C 62.32091522216797 1.442746043205261 62.70998382568359 1.468342304229736 63.12975311279297 1.509296655654907 L 63.17840576171875 1.511856436729431 C 63.03504943847656 1.488819718360901 62.89683532714844 1.450424671173096 62.75860595703125 1.404350996017456 C 62.62550354003906 1.355717658996582 62.51033020019531 1.291726469993591 62.46936798095703 1.232854604721069 C 59.99674987792969 1.232854962348938 56.66408538818359 1.345479726791382 52.75295257568359 2.192724227905273 L 52.48161315917969 2.261834859848022 C 47.94591522216797 3.237061500549316 40.35912322998047 4.885476589202881 30.3892879486084 10.86481666564941 C 28.45418357849121 12.01922035217285 24.77596092224121 15.18294811248779 22.57210350036621 17.07196807861328 L 22.35965919494629 17.25626182556152 C 21.78629493713379 17.72979736328125 21.35371589660645 18.11630249023438 21.11566734313965 18.29547882080078 C 19.81024360656738 19.35261535644531 18.83246040344238 20.57612419128418 17.76508522033691 22.08888053894043 C 16.94343757629395 23.25352096557617 14.5578441619873 27.11347198486328 14.10734558105469 28.17828369140625 C 14.28396224975586 28.18084526062012 14.44009780883789 28.1347713470459 14.61672019958496 28.08357810974121 C 14.89827919006348 28.01702880859375 15.20543670654297 27.93256187438965 15.54330444335938 28.06054306030273 C 15.70713043212891 28.12453079223633 15.86326026916504 28.2294807434082 16.0040397644043 28.39330101013184 C 16.10643577575684 28.49824333190918 16.3470401763916 28.82075500488281 16.61068344116211 29.23542022705078 C 17.29667091369629 30.29511642456055 19.19592475891113 33.41532897949219 19.22664833068848 34.09619522094727 L 19.20871925354004 34.14226531982422 C 21.91683387756348 32.44521331787109 25.61809349060059 30.35910224914551 26.9644603729248 30.62531089782715 L 27.11292839050293 30.65346908569336 L 27.16155815124512 30.79680442810059 C 27.25370216369629 31.04253387451172 27.18203544616699 31.21659088134766 27.07708168029785 31.34457206726074 C 27.31258201599121 31.31897354125977 27.54550743103027 31.3112964630127 27.78099632263184 31.30874061584473 C 27.97552299499512 31.3112964630127 28.20845222473145 31.28825950622559 28.4388256072998 31.27033805847168 C 28.92259788513184 31.22426986694336 29.34238624572754 31.19867324829102 29.58555030822754 31.28825950622559 L 29.89782524108887 31.42391967773438 L 29.81080055236816 31.67476463317871 C 29.6392879486084 32.15597534179688 27.73491477966309 33.53562545776367 27.07196998596191 34.01172256469727 C 25.13431358337402 35.38881301879883 22.78967475891113 36.9450798034668 20.09692573547363 38.62933349609375 C 18.11831092834473 39.85795974731445 15.88374710083008 41.25040817260742 13.82834625244141 42.67613983154297 C 13.69523620605469 42.79132461547852 13.63381195068359 43.01912689208984 13.58261871337891 43.22901916503906 C 13.55702209472656 43.34933090209961 13.52373695373535 43.46962738037109 13.42136383056641 43.66671371459961 C 13.41623497009277 43.67695236206055 13.41623497009277 43.7409553527832 13.47255325317383 43.82541275024414 C 13.53141975402832 43.91757202148438 13.62868690490723 43.99179458618164 13.81810188293457 44.06858062744141 C 13.84370231628418 44.07882690429688 13.86161994934082 44.08394241333008 13.8948917388916 44.09930419921875 C 14.15341377258301 44.14793395996094 14.45801734924316 44.06346893310547 14.79077529907227 43.84589385986328 C 17.21987915039062 42.21795654296875 20.1890697479248 40.47995758056641 23.15825843811035 38.74451446533203 C 24.14116477966309 38.1685905456543 27.58389854431152 35.86235046386719 30.35344505310059 34.00404357910156 L 31.05477714538574 33.53562545776367 C 33.09994506835938 32.16622543334961 34.93777465820312 30.93246841430664 35.70310974121094 30.45892524719238 L 36.03074645996094 30.90431022644043 L 35.52649688720703 31.35736465454102 C 34.14427947998047 32.56807708740234 25.15990257263184 39.26412582397461 23.22225379943848 40.61817932128906 C 23.44238090515137 40.91509628295898 23.67019081115723 41.24785232543945 23.91080284118652 41.62411880493164 C 24.13605308532715 41.96711349487305 24.19492530822754 42.07205963134766 24.30754280090332 42.28451538085938 L 24.6019115447998 42.77596282958984 C 24.94745826721191 43.35700225830078 25.30069160461426 43.94572448730469 25.65648078918457 44.49092864990234 C 25.75631141662598 44.64194488525391 25.85357475280762 44.79296875 25.93803977966309 44.92350769042969 L 26.19400978088379 44.68546295166016 C 26.84927940368652 44.05578994750977 27.61974143981934 43.88429260253906 28.37995719909668 43.72815322875977 C 28.73830223083496 43.64624404907227 29.13761329650879 43.55921173095703 29.53691673278809 43.41331100463867 C 29.69561958312988 43.35956192016602 29.83638954162598 43.27253341674805 30.05396842956543 43.12663269042969 C 30.07955741882324 43.12150955200195 30.10770988464355 43.10359573364258 30.12051582336426 43.09848022460938 C 29.73912239074707 43.13431167602539 29.31167411804199 43.28276824951172 28.87909126281738 43.42866897583008 C 28.14190864562988 43.67951583862305 27.37145042419434 43.93548583984375 26.73153495788574 43.69231414794922 C 26.59843635559082 43.6411247253418 26.4781322479248 43.57457733154297 26.37063407897949 43.48242950439453 L 26.02507209777832 43.20086288452148 L 26.44485664367676 43.02936553955078 C 27.25626182556152 42.68637466430664 28.9302806854248 41.97990798950195 30.08723258972168 42.42272567749023 C 30.2075366973877 42.46623992919922 30.31761360168457 42.51999282836914 30.40975379943848 42.5788688659668 L 30.78090476989746 42.81947708129883 C 31.24419975280762 42.73500442504883 31.78428840637207 42.82971572875977 32.2603759765625 42.9218635559082 C 32.86445617675781 43.03448104858398 33.62211608886719 43.17526626586914 34.37209320068359 42.99865341186523 C 34.83026885986328 42.87835311889648 35.29357147216797 42.73500442504883 35.71334838867188 42.59423065185547 C 36.80375671386719 42.24868011474609 37.75850677490234 41.94663238525391 38.49568176269531 42.22819137573242 L 38.92058563232422 42.39457702636719 L 38.58272552490234 42.68381881713867 C 37.94535827636719 43.23413848876953 36.97525787353516 43.44659423828125 35.93092346191406 43.66928100585938 L 35.75942230224609 43.70511627197266 L 35.15278625488281 43.83822250366211 C 33.43270111083984 44.25287628173828 31.2851619720459 44.76992416381836 29.25023078918457 44.93375015258789 C 28.97123146057129 44.9619026184082 28.67431449890137 45.00797653198242 28.28524971008301 45.06684875488281 C 27.60182762145996 45.17179489135742 26.96959114074707 45.26649856567383 26.31942939758301 45.13851928710938 L 26.0506649017334 45.08220672607422 C 26.15817070007324 45.24346160888672 26.26823997497559 45.39704132080078 26.35014152526855 45.5173454284668 C 26.43205833435059 45.56597900390625 26.51140022277832 45.60437393188477 26.59587287902832 45.63764953613281 C 26.66754341125488 45.66580581665039 26.73921394348145 45.68371963500977 26.84161186218262 45.71699905395508 L 27.06172752380371 45.79379272460938 C 27.21787071228027 45.85522079467773 27.44056129455566 45.94992828369141 27.51735496520996 46.10094833374023 C 28.03951072692871 45.96273040771484 28.54889106750488 45.98831939697266 29.06593894958496 46.18541717529297 C 29.1580867767334 46.21868515014648 29.25535011291504 46.26220321655273 29.28095054626465 46.30571365356445 C 32.76462554931641 45.61717224121094 36.1817626953125 44.88255310058594 39.90348815917969 43.52337646484375 C 41.21403503417969 43.75886917114258 43.58171844482422 42.74011993408203 44.36240386962891 42.40224838256836 C 44.91016387939453 42.1744384765625 45.07910919189453 42.24099349975586 45.13797760009766 42.26146697998047 L 45.36833953857422 42.39457321166992 L 45.31970977783203 42.61981582641602 C 45.30179595947266 42.71964645385742 45.23268890380859 42.84251022338867 44.92807769775391 43.01400375366211 C 41.94610595703125 44.69314193725586 37.67660522460938 45.8424186706543 33.91391754150391 46.86884307861328 L 33.36614227294922 47.02242279052734 C 33.19721221923828 47.0684928894043 33.03339385986328 47.11713027954102 32.87470245361328 47.16063690185547 C 32.94125366210938 47.16831588745117 33.01291656494141 47.18623352050781 33.07947540283203 47.21438980102539 L 33.31495666503906 47.30654525756836 L 33.24584197998047 47.55226516723633 C 33.01291656494141 48.28688812255859 32.29365539550781 48.381591796875 31.65887641906738 48.45581817626953 C 30.9600772857666 48.54029083251953 30.52493858337402 48.6298828125 30.37392234802246 49.10597610473633 L 30.32529258728027 49.23907852172852 L 30.20242500305176 49.28514862060547 C 29.94133567810059 49.3619384765625 29.69050025939941 49.39265823364258 29.37566566467285 49.42337036132812 C 29.09665870666504 49.4515266418457 28.86372566223145 49.48480224609375 28.63592338562012 49.59742736816406 C 28.68967247009277 49.72796630859375 28.77926063537598 50.01720809936523 28.4260311126709 50.27061462402344 C 27.05149269104004 50.55730056762695 26.67266654968262 50.93612670898438 26.56772041320801 51.12810134887695 C 26.4781322479248 51.32263565063477 24.47904014587402 56.869384765625 24.2665958404541 57.68592834472656 C 24.10276985168457 58.35655212402344 24.1002140045166 58.90431594848633 24.27426719665527 59.1705207824707 C 24.31522178649902 59.23706436157227 24.36897087097168 59.28058242797852 24.44063758850098 59.3164176940918 C 24.85530281066895 59.33433532714844 28.95074653625488 58.07755279541016 30.15890693664551 57.4529914855957 C 33.92159271240234 55.45391082763672 36.98549652099609 53.17580795288086 39.72175598144531 51.00523376464844 C 42.07407379150391 49.15972137451172 44.69004058837891 46.32363128662109 46.94508361816406 43.81518173217773 C 47.13449859619141 43.61552429199219 47.33160400390625 43.41075134277344 47.51332855224609 43.21877670288086 L 47.76418304443359 42.95001602172852 C 48.28122711181641 42.42272186279297 48.81107330322266 41.88007736206055 49.06960296630859 41.42702102661133 C 49.16175079345703 41.26064300537109 49.26157379150391 41.08403396606445 49.36139678955078 40.88694000244141 L 49.45610809326172 40.71800231933594 L 49.45867156982422 40.71288681030273 C 49.52010345458984 40.59513854980469 49.5789794921875 40.4671516418457 49.660888671875 40.34684753417969 M 5.051298141479492 42.05414581298828 C 3.338895797729492 43.05241012573242 3.361932754516602 44.39110946655273 3.382417678833008 45.80659103393555 C 3.392646789550781 46.13166427612305 3.40032958984375 46.45929718017578 3.374732971191406 46.78437805175781 C 3.712604522705078 46.44137954711914 4.157985687255859 46.11375045776367 4.641759872436523 45.76051712036133 C 5.266313552856445 45.29977416992188 5.913904190063477 44.81855773925781 6.233863830566406 44.37574005126953 C 6.157068252563477 43.6436882019043 6.062362670898438 43.16503143310547 5.819192886352539 42.78876113891602 C 5.663059234619141 42.55071258544922 5.44293212890625 42.3433837890625 5.051298141479492 42.05414581298828 M 10.48543548583984 45.66580581665039 L 10.42912673950195 45.58901596069336 C 10.29346466064453 45.37144470214844 10.22690963745117 45.21530914306641 10.2883472442627 44.92350769042969 C 10.42400741577148 44.74689483642578 10.5417537689209 44.5549201965332 10.67485237121582 44.33990478515625 C 10.74908256530762 44.15304946899414 10.85146331787109 43.95851516723633 11.00248908996582 43.7204704284668 C 11.30964469909668 43.11895751953125 11.55537414550781 42.49696350097656 11.79853630065918 41.89543914794922 C 12.20552635192871 40.87670516967773 12.61506652832031 39.82980346679688 13.32153129577637 38.84433746337891 C 13.1551513671875 38.99280548095703 12.9810962677002 39.1489372253418 12.80960273742676 39.3101921081543 C 11.97259902954102 40.07297134399414 11.0229663848877 40.9458122253418 10.15268516540527 41.44494247436523 L 9.909513473510742 41.58316802978516 L 9.781536102294922 41.32719802856445 C 9.730339050292969 41.23249053955078 9.684267044067383 41.119873046875 9.674032211303711 40.94837188720703 C 9.589559555053711 40.25982284545898 10.2115535736084 39.74277877807617 10.79515647888184 39.24876403808594 C 10.99224853515625 39.07470703125 11.17910194396973 38.9134521484375 11.33267974853516 38.73939895629883 C 11.6910343170166 38.340087890625 11.90604019165039 37.71297836303711 12.12361717224121 37.03978729248047 C 12.33094215393066 36.46130752563477 12.5152416229248 35.92122268676758 12.830078125 35.57822799682617 L 12.91454696655273 35.39905166625977 L 12.96061706542969 35.37601089477539 C 12.96573638916016 35.29922866821289 12.95038223266602 35.23523712158203 12.90174674987793 35.1661262512207 C 12.85311508178711 35.08933258056641 12.77376365661621 35.01254653930664 12.66369819641113 34.90248107910156 C 12.54595947265625 34.79241561889648 12.43076705932617 34.68235015869141 12.338623046875 34.53901290893555 C 12.32070541381836 34.49805450439453 12.29255485534668 34.45966339111328 12.26695442199707 34.4161491394043 C 11.96235466003418 34.61835861206055 11.90604019165039 34.86408996582031 11.85741424560547 35.1661262512207 C 11.82669448852539 35.3197021484375 11.79598045349121 35.4758415222168 11.71919059753418 35.6370964050293 L 11.6884765625 35.71133041381836 L 11.60400581359863 35.74971771240234 C 11.05880165100098 36.06200408935547 10.76187705993652 36.41011810302734 10.43168449401855 36.79662704467773 C 10.19875526428223 37.09098434448242 9.96583366394043 37.36998748779297 9.658676147460938 37.57731246948242 C 9.592123031616211 37.72577285766602 9.697071075439453 38.13788223266602 9.789215087890625 38.52438354492188 C 9.848089218139648 38.79058837890625 9.912078857421875 39.03886795043945 9.909513473510742 39.21037673950195 L 9.906957626342773 39.34859466552734 L 9.789215087890625 39.42282485961914 C 9.333599090576172 39.74277877807617 9.113466262817383 40.30077743530273 8.877973556518555 40.88181686401367 C 8.752555847167969 41.19921875 8.632251739501953 41.50125885009766 8.463319778442383 41.76490020751953 C 8.309730529785156 41.98502349853516 7.997455596923828 42.08997344970703 7.63398551940918 42.19492721557617 C 7.426654815673828 42.24868011474609 7.132299423217773 42.32802200317383 7.096460342407227 42.44064712524414 C 7.075986862182617 42.48928070068359 7.111825942993164 42.56606292724609 7.14765739440918 42.62238311767578 L 7.183492660522461 42.6607780456543 C 7.749172210693359 42.37409973144531 8.494033813476562 42.53023147583008 9.087869644165039 42.65822601318359 C 9.287525177001953 42.70684814453125 9.471820831298828 42.74524688720703 9.640750885009766 42.76828765869141 L 9.850650787353516 42.79132461547852 L 9.878805160522461 43.00888442993164 C 9.986305236816406 44.03530883789062 8.793506622314453 44.66498565673828 7.523923873901367 45.34328842163086 C 6.661321640014648 45.79122924804688 5.778242111206055 46.2596435546875 5.314947128295898 46.85093307495117 C 6.78162956237793 46.74341583251953 8.842145919799805 46.26988220214844 10.48543548583984 45.66580581665039 M 26.68033790588379 32.8803596496582 C 25.3109188079834 33.09792709350586 23.55756950378418 33.73271942138672 21.97059440612793 34.58764266967773 C 21.29227638244629 34.93575668334961 17.4732837677002 36.93996047973633 16.85896492004395 37.46212768554688 C 16.66955375671387 37.63106536865234 16.49037742614746 37.77952575683594 16.30864906311035 37.91263198852539 C 15.65848922729492 38.41176223754883 15.30526542663574 38.9134521484375 15.20799827575684 39.61735534667969 C 15.96309280395508 39.50216674804688 19.02187156677246 37.85887908935547 22.8613452911377 35.48608016967773 L 22.86645698547363 35.48352432250977 L 22.86902046203613 35.4784049987793 C 24.07461738586426 34.77705764770508 25.72815895080566 33.70200729370117 26.72641563415527 32.94435119628906 L 26.68033790588379 32.8803596496582 Z M 18.56113243103027 34.55180740356445 C 18.42803192138672 34.5850830078125 18.28725242614746 34.59532165527344 18.1439094543457 34.54668426513672 L 17.99033737182617 34.45709991455078 L 17.95705604553223 34.423828125 C 17.07654190063477 33.57658386230469 15.31805801391602 31.06813049316406 14.77029609680176 30.21832466125488 C 14.53224945068359 29.8625373840332 14.4528980255127 29.69871520996094 14.46313858032227 29.67312049865723 C 14.36842346191406 29.61681175231934 14.28396034240723 29.57329368591309 14.20717239379883 29.54257583618164 C 13.90256881713867 29.42483901977539 13.78738784790039 29.5221061706543 13.54421997070312 29.72687721252441 C 13.32153129577637 29.91373062133789 13.00925254821777 30.17225074768066 12.5971508026123 30.0929012298584 C 12.55107688903809 30.28487777709961 12.53315925598145 30.38726615905762 12.6739387512207 30.60227584838867 L 12.79168510437012 30.72513389587402 L 12.69441795349121 30.52548027038574 C 12.80191993713379 30.40006065368652 13.00669097900391 30.1671314239502 13.26266098022461 30.2643985748291 L 13.40855598449707 30.33095169067383 L 13.45207786560059 30.42565727233887 C 13.77203178405762 31.11164283752441 13.59797096252441 31.35993003845215 13.20122718811035 31.5595817565918 C 13.12699508666992 31.59797859191895 13.04252624511719 31.63893508911133 12.94526100158691 31.7285213470459 L 13.22682571411133 32.26092147827148 C 13.50070953369141 32.76517486572266 13.82066535949707 33.36413192749023 14.16621398925781 33.91189956665039 C 14.77541542053223 34.84360885620117 15.67640495300293 35.93145751953125 16.17042541503906 36.15927124023438 C 16.37264060974121 36.00569152832031 17.30946922302246 35.35809707641602 18.56113243103027 34.55180740356445 M 30.70411491394043 8.56113338470459 C 28.90468406677246 8.806859970092773 24.18724632263184 10.23770427703857 21.96803092956543 11.03375339508057 C 19.23176383972168 12.01154327392578 17.15589332580566 12.86134624481201 15.64314079284668 13.63180065155029 C 12.01866912841797 15.47474575042725 8.058895111083984 17.96016883850098 5.299592971801758 20.1281909942627 L 5.1588134765625 20.23825645446777 C 2.471181869506836 22.32692909240723 1.339813232421875 23.87551879882812 1.872218132019043 24.70228385925293 C 2.018122673034668 24.91985511779785 2.291999816894531 25.10926818847656 2.67595100402832 25.25516700744629 C 2.755302429199219 25.28844451904297 2.83464241027832 25.31148147583008 2.924234390258789 25.33963584899902 C 4.303886413574219 25.75941848754883 9.525571823120117 25.91811561584473 10.64157867431641 25.83365058898926 C 11.17654228210449 25.47273826599121 13.48535537719727 23.05387115478516 15.39741134643555 20.91399955749512 C 18.21302223205566 18.01391983032227 27.57110023498535 10.93904781341553 30.6401309967041 8.609766006469727 L 30.70411491394043 8.56113338470459 Z M 67.71920776367188 2.804478883743286 C 67.53237152099609 2.842873573303223 67.16632080078125 2.822396755218506 66.38051605224609 2.76608419418335 C 65.31057739257812 2.69185471534729 63.72872161865234 2.584349155426025 62.70486450195312 2.784002304077148 C 62.80213165283203 2.91710376739502 62.89171600341797 3.047646045684814 62.99411010742188 3.206344604492188 C 63.20143127441406 3.533979177474976 63.41387939453125 3.892330408096313 63.65961456298828 4.309553146362305 L 63.92325592041016 4.747253894805908 C 64.12290954589844 5.072328567504883 64.38655090332031 5.502349376678467 64.74234008789062 6.052674293518066 C 65.14676666259766 6.666990280151367 65.5870361328125 7.345295906066895 65.99913024902344 7.964731693267822 L 66.20389556884766 8.264211654663086 L 66.38051605224609 8.530413627624512 L 67.06137847900391 9.56963062286377 L 67.27382659912109 9.899826049804688 L 67.376220703125 10.05596446990967 L 67.69618225097656 10.54229831695557 L 67.91374206542969 10.86481285095215 L 68.35912322998047 11.52264213562012 C 68.73796081542969 12.103684425354 68.97599792480469 12.5465030670166 69.12702178955078 12.95092678070068 C 69.51097869873047 12.68216419219971 70.17648315429688 12.1267204284668 70.25070953369141 11.96034240722656 C 71.05699920654297 9.835834503173828 71.43325805664062 6.823126792907715 70.07664489746094 4.721656322479248 C 69.51609039306641 3.864174127578735 68.70467376708984 3.219141960144043 67.71920776367188 2.804478883743286 M 44.1832275390625 27.84296989440918 C 42.62440490722656 27.24657440185547 41.36249542236328 26.23551177978516 40.46405029296875 24.84561729431152 C 38.15269470214844 21.28514671325684 38.80541229248047 16.30663108825684 40.83265686035156 14.06949615478516 C 43.35391235351562 11.29227828979492 46.38965606689453 10.3093729019165 49.15918731689453 11.36650562286377 C 49.78373718261719 11.60455417633057 50.3955078125 11.95778560638428 50.96630859375 12.39804458618164 C 51.785400390625 13.03539657592773 52.51233673095703 13.82633018493652 53.10874176025391 14.75036239624023 C 53.60274505615234 15.51825618743896 54.01228332519531 16.3680591583252 54.35273742675781 17.34328842163086 C 54.43206787109375 17.54293823242188 54.51398468017578 17.81426429748535 54.58821868896484 18.16749382019043 C 55.00030517578125 19.84150314331055 55.01312255859375 21.50015830993652 54.61635589599609 22.79533958435059 C 54.37065124511719 23.56579208374023 53.92269134521484 24.99151802062988 52.89628601074219 25.1195011138916 L 52.69151306152344 25.1195011138916 C 52.60959625244141 25.11694145202637 52.52513885498047 25.1041431427002 52.45347595214844 25.08878517150879 L 52.29221343994141 25.04527282714844 L 52.25637817382812 24.88401412963867 C 52.23588562011719 24.77139091491699 52.23333740234375 24.65620994567871 52.25637817382812 24.5487003326416 C 52.13095855712891 24.65620994567871 51.98504638671875 24.74835205078125 51.785400390625 24.79186630249023 L 51.57550048828125 24.84306335449219 L 51.48335266113281 24.65108489990234 C 51.04822540283203 23.78848648071289 51.30418395996094 23.0820198059082 51.56526947021484 22.40627670288086 C 51.65485382080078 22.16054916381836 51.74188232421875 21.90202522277832 51.82891845703125 21.54111671447754 L 52.07976531982422 21.34658050537109 L 52.30500030517578 21.40033149719238 C 52.49953460693359 21.45152473449707 52.56353759765625 21.4489631652832 52.60703277587891 21.2851448059082 C 52.64031982421875 21.03686141967773 52.71711730957031 20.76553726196289 52.79390716552734 20.47629928588867 C 52.96796417236328 19.83894538879395 53.17017364501953 19.11968421936035 52.86555480957031 18.52072715759277 L 52.79134368896484 18.39274215698242 C 52.43299102783203 17.83985900878906 51.70347595214844 17.50454902648926 51.05590057373047 17.1897087097168 C 50.91511535644531 17.1205997467041 50.79737854003906 17.05916786193848 50.70010375976562 17.00029563903809 C 50.44413757324219 16.84927558898926 50.23935699462891 16.62914848327637 50.02690887451172 16.39366149902344 C 49.78373718261719 16.10954093933105 49.58922576904297 15.90988349914551 49.34860229492188 15.8126163482666 C 48.94417572021484 15.66415691375732 47.46981811523438 15.48498153686523 46.83246612548828 15.54129409790039 C 45.95706939697266 15.61808395385742 45.07398986816406 16.08650207519531 44.00405120849609 17.04125213623047 C 45.02791595458984 17.25370216369629 46.11064910888672 17.32281303405762 47.19850158691406 17.40472030639648 C 48.45016479492188 17.48406982421875 49.75303649902344 17.56597709655762 50.99190521240234 17.89873123168945 L 51.54990386962891 18.04718971252441 L 51.08661651611328 18.37738609313965 C 50.25982666015625 18.96610641479492 49.15918731689453 18.78437232971191 48.07645416259766 18.5975170135498 C 47.64899444580078 18.51816749572754 47.18313598632812 18.44649887084961 46.74800872802734 18.42090034484863 C 46.40757751464844 18.40298652648926 46.04920959472656 18.35946655273438 45.70111083984375 18.32107353210449 L 45.47840881347656 18.29035949707031 C 45.10215759277344 18.24428749084473 44.71820831298828 18.18797302246094 44.30097961425781 18.1726131439209 L 44.01940155029297 18.15469741821289 C 43.29502105712891 18.1009464263916 42.63720703125 18.09838676452637 42.34029388427734 18.51048851013184 C 43.51261138916016 18.86116027832031 44.76171112060547 18.96866607666016 46.01850128173828 19.07873153686523 C 47.45703125 19.21439361572266 48.94416809082031 19.34493637084961 50.34687042236328 19.88246154785156 C 50.81272888183594 20.0616340637207 51.25043487548828 20.27664756774902 51.65741729736328 20.52493286132812 L 52.01831817626953 20.75274085998535 L 51.65997314453125 20.98055076599121 C 51.49359893798828 21.08037948608398 51.33489990234375 21.1290111541748 51.18900299072266 21.17508506774902 C 50.94071197509766 21.24419593811035 50.75896453857422 21.29282760620117 50.61818695068359 21.66141891479492 L 50.54139709472656 21.86107063293457 L 50.32894134521484 21.83035278320312 C 48.80339813232422 21.64862060546875 47.28041076660156 21.35169982910156 45.75997161865234 21.05221939086914 C 45.04583740234375 20.91399765014648 44.31888580322266 20.76553916931152 43.59194946289062 20.64011764526367 L 43.38717651367188 20.51725196838379 L 43.32830047607422 20.41998672485352 C 43.24384307861328 20.28432464599609 43.20288848876953 20.16146278381348 43.14912414550781 19.95413208007812 C 43.14145660400391 19.92341423034668 43.128662109375 19.8927001953125 43.11329650878906 19.84662818908691 C 42.85478210449219 19.90294075012207 42.62696075439453 19.84918594360352 42.40171051025391 19.79031372070312 C 42.14061737060547 19.73399925231934 41.89234161376953 19.67256927490234 41.64661407470703 19.80311012268066 C 40.78658294677734 20.69387054443359 40.79425048828125 21.97625732421875 41.67221069335938 23.32007026672363 C 42.05103302001953 23.91135025024414 42.59368133544922 24.48727416992188 43.19520568847656 24.97104263305664 C 44.48526763916016 25.72358131408691 45.54240417480469 26.29182243347168 46.46387481689453 26.64761734008789 C 48.05596923828125 27.25680923461914 49.17965698242188 27.17234039306641 50.4722900390625 26.34045791625977 C 50.88697052001953 26.07681083679199 51.21204376220703 26.00002288818359 51.48847961425781 26.1100902557373 C 51.60621643066406 26.15103912353516 51.71884155273438 26.23551177978516 51.81099700927734 26.35581398010254 L 51.85962677001953 26.63737678527832 L 51.68813323974609 26.80119132995605 L 51.50895690917969 26.97269058227539 C 50.44924926757812 27.87880325317383 48.84178924560547 28.50080108642578 47.59781646728516 28.47007942199707 C 46.34613037109375 28.44448280334473 45.20452880859375 28.23459815979004 44.1832275390625 27.84296989440918 M 53.11641693115234 23.02314949035645 C 52.93468475341797 23.21256446838379 52.83485412597656 23.46596908569336 52.74270629882812 23.72961044311523 L 52.72991180419922 23.75520896911621 C 52.74526214599609 23.74497222900391 52.75295257568359 23.72961044311523 52.76317596435547 23.7193717956543 C 53.00379180908203 23.40965461730957 53.17017364501953 23.18440437316895 53.11641693115234 23.02314949035645 M 47.82049560546875 14.19491767883301 C 47.71554565429688 14.12068939208984 47.59267425537109 14.06181812286377 47.46981811523438 14.01830291748047 C 46.41012573242188 13.6087589263916 44.88458251953125 14.125807762146 43.81720733642578 14.74780368804932 C 42.42731475830078 15.56177043914795 41.08350372314453 16.93886375427246 40.92736053466797 18.15213966369629 C 42.22254180908203 16.3885383605957 45.50144958496094 14.15396499633789 47.82049560546875 14.19491767883301 M 52.91676330566406 16.51140213012695 C 52.85532379150391 16.26567459106445 52.75295257568359 16.03274536132812 52.59424591064453 15.79725742340088 C 51.98760223388672 14.85274791717529 50.83320617675781 14.28450584411621 50.48509216308594 14.12324714660645 L 50.33406829833984 14.00038433074951 L 50.29055786132812 13.93383312225342 C 50.11394500732422 13.65739154815674 50.21376800537109 13.4295825958252 50.27264404296875 13.29136085510254 L 50.27520751953125 13.26064777374268 C 49.89893341064453 12.9918851852417 49.35628509521484 12.61817455291748 48.73941040039062 12.38524723052979 C 47.93825531005859 12.07552909851074 47.17034149169922 12.04225444793701 46.3973388671875 12.28030300140381 C 46.67120361328125 12.35453224182129 46.95532989501953 12.3852481842041 47.28553009033203 12.41852474212646 C 47.68482971191406 12.46203708648682 48.14300537109375 12.50299072265625 48.58071899414062 12.66936779022217 C 48.66261291503906 12.70264339447021 48.73686218261719 12.73335933685303 48.91858673095703 12.86902141571045 C 50.20609283447266 14.79899597167969 51.39121246337891 15.98155307769775 52.44578552246094 16.380859375 C 52.60192108154297 16.44229125976562 52.76317596435547 16.48324394226074 52.91676330566406 16.51140213012695 M 46.31798553466797 22.6775951385498 C 46.15671539306641 22.61616897583008 45.99034118652344 22.54193687438965 45.83420562744141 22.44467163085938 L 45.49632263183594 22.2552547454834 L 45.79580688476562 22.00440979003906 C 46.10295867919922 21.75612449645996 46.49715423583984 21.63582038879395 46.97068786621094 21.65629959106445 C 47.25736236572266 21.66909408569336 47.56452941894531 21.73052597045898 47.85888671875 21.84315490722656 C 48.27867126464844 22.00696754455566 48.66261291503906 22.26293563842773 48.88275146484375 22.52913665771484 L 49.20526123046875 23.0026741027832 L 48.63702392578125 23.0001163482666 C 47.95616149902344 22.98987579345703 47.11146545410156 22.98219680786133 46.31798553466797 22.6775951385498" fill="#2777df" stroke="none" stroke-width="0"/>
</svg>