<svg xmlns="http://www.w3.org/2000/svg" width="17" height="17" viewBox="367.45751953125 247.0879821777344 16.5950927734375 16.99969482421872" fill="none">
  <path d="M 383.9247436523438 254.7027893066406 C 383.789794921875 253.3130493164062 383.2998962402344 251.9655456542969 382.4151611328125 250.8307800292969 C 380.362548828125 248.1980895996094 376.7422485351562 247.0879821777344 373.5795593261719 248.0090637207031 C 373.5369262695312 248.0077209472656 373.4920043945312 248.0149841308594 373.4461669921875 248.0352478027344 C 373.4176635742188 248.0478820800781 373.3897705078125 248.0618286132812 373.3612976074219 248.0746154785156 C 373.1441650390625 248.144775390625 372.9293212890625 248.2246704101562 372.7177429199219 248.3145141601562 C 372.6300048828125 248.3517761230469 372.5852661132812 248.4127502441406 372.5718994140625 248.4798278808594 C 369.6416015625 250.1679382324219 367.5752563476562 253.4696044921875 367.8674926757812 256.9145812988281 C 368.1738891601562 260.5281677246094 371.3545532226562 263.1671752929688 374.8026123046875 263.6417541503906 C 378.0421752929688 264.0876770019531 381.2060241699219 262.6562805175781 382.833740234375 259.7865905761719 C 383.6607666015625 258.32861328125 384.0526123046875 256.6284790039062 383.9467163085938 254.9721069335938 C 383.9560546875 254.9179992675781 383.9656372070312 254.8641052246094 383.9749755859375 254.8102111816406 C 383.9839782714844 254.7593688964844 383.9595031738281 254.7207641601562 383.9247436523438 254.7027893066406 M 376.0184326171875 263.1541748046875 C 372.8744506835938 263.1526489257812 369.6991577148438 261.2894897460938 368.7058410644531 258.1997985839844 C 367.45751953125 254.3167114257812 370.1418151855469 250.1841735839844 373.6204833984375 248.5841979980469 C 376.239990234375 247.75390625 379.2536010742188 248.5002746582031 381.2471313476562 250.395751953125 C 381.3836059570312 250.5253601074219 381.51318359375 250.6593322753906 381.6362915039062 250.7973327636719 C 381.4741821289062 250.990966796875 381.31689453125 251.1885986328125 381.1693115234375 251.3938903808594 C 381.0974731445312 251.4940185546875 381.26318359375 251.589599609375 381.33447265625 251.4903869628906 C 381.4688415527344 251.3032836914062 381.6116333007812 251.1232299804688 381.7587890625 250.9464111328125 C 381.8375244140625 251.040283203125 381.9176025390625 251.1331481933594 381.9906311035156 251.2302551269531 C 381.7228393554688 251.5618896484375 381.4768676757812 251.9091796875 381.2555236816406 252.2744140625 C 381.1915283203125 252.3799133300781 381.3566284179688 252.47607421875 381.4204711914062 252.3709411621094 C 381.6272888183594 252.0295715332031 381.8551025390625 251.7040710449219 382.1033935546875 251.3929138183594 C 382.1376342773438 251.4412841796875 382.171630859375 251.4896240234375 382.2043151855469 251.5385437011719 C 381.8289184570312 252.022705078125 381.4686279296875 252.5177307128906 381.1301574707031 253.0286254882812 C 381.0619201660156 253.1314697265625 381.2274475097656 253.2272338867188 381.2951049804688 253.1251831054688 C 381.6173706054688 252.6387329101562 381.95947265625 252.1669921875 382.3157348632812 251.7054138183594 C 382.3482666015625 251.7572021484375 382.376708984375 251.8110961914062 382.40771484375 251.8636779785156 L 382.3836059570312 251.8963623046875 C 382.3736572265625 251.9095458984375 382.3687133789062 251.9227294921875 382.3667602539062 251.9353637695312 C 381.8975524902344 252.6018371582031 381.4495239257812 253.2822570800781 381.0252075195312 253.978759765625 C 380.9609985351562 254.0840759277344 381.1263122558594 254.1802368164062 381.1901550292969 254.0751037597656 C 381.610107421875 253.3858642578125 382.0533447265625 252.7123107910156 382.5172119140625 252.0523376464844 C 382.5852661132812 252.1767578125 382.6473693847656 252.303466796875 382.7072143554688 252.4313354492188 C 382.6756591796875 252.4288635253906 382.6429748535156 252.4395751953125 382.62060546875 252.4729919433594 C 382.5720520019531 252.5458374023438 382.5233154296875 252.6188354492188 382.474609375 252.6916809082031 C 382.4344482421875 252.7054443359375 382.413818359375 252.7432861328125 382.4141845703125 252.7820739746094 C 382.0529174804688 253.322998046875 381.69189453125 253.8637084960938 381.3306274414062 254.4046325683594 C 381.26220703125 254.507080078125 381.4275512695312 254.6028137207031 381.49560546875 254.5009460449219 C 381.92333984375 253.8606567382812 382.3509216308594 253.2203369140625 382.7786865234375 252.5800476074219 C 382.9143981933594 252.888916015625 383.0258178710938 253.2071533203125 383.1158447265625 253.5313415527344 C 383.099609375 253.5517883300781 383.0831909179688 253.5722351074219 383.0669250488281 253.5926818847656 C 383.0477905273438 253.6163940429688 383.0418701171875 253.6427612304688 383.0451049804688 253.6674194335938 C 382.6093444824219 254.3294982910156 382.1798706054688 254.9954223632812 381.7589721679688 255.6668701171875 C 381.6934204101562 255.7714233398438 381.8587646484375 255.8675537109375 381.9239196777344 255.7633972167969 C 382.3366088867188 255.1051330566406 382.7576599121094 254.452392578125 383.1844482421875 253.8031311035156 C 383.2244262695312 253.9714965820312 383.2584228515625 254.1412353515625 383.2863159179688 254.3122863769531 C 382.7593688964844 255.1662902832031 382.2326049804688 256.0202941894531 381.7058410644531 256.874267578125 C 381.6410522460938 256.9792175292969 381.806396484375 257.0753479003906 381.8709716796875 256.9707946777344 C 382.3572387695312 256.1823425292969 382.8434753417969 255.3939514160156 383.3298950195312 254.6054992675781 C 383.360107421875 254.8515014648438 383.376953125 255.0992126464844 383.3828735351562 255.3478698730469 C 382.784423828125 256.2431335449219 382.2417907714844 257.1724548339844 381.7626342773438 258.138427734375 C 381.7079467773438 258.2483520507812 381.8728637695312 258.3452453613281 381.9275512695312 258.2349548339844 C 382.3637084960938 257.355712890625 382.8501586914062 256.5059509277344 383.3851318359375 255.6854248046875 C 383.3794250488281 255.9908447265625 383.35302734375 256.2966613769531 383.3115844726562 256.6015319824219 C 382.6731567382812 257.4474792480469 382.1001586914062 258.3358764648438 381.6026306152344 259.2734069824219 C 381.544921875 259.3819580078125 381.7098388671875 259.4786682128906 381.767578125 259.3699035644531 C 382.2048950195312 258.5459289550781 382.6993408203125 257.7578735351562 383.2467651367188 257.0048217773438 C 383.1642150878906 257.4426879882812 383.0458984375 257.8760070800781 382.8905029296875 258.2999572753906 C 382.8696594238281 258.3051147460938 382.849609375 258.3161926269531 382.8342895507812 258.3377990722656 C 382.3780517578125 258.9830627441406 381.9218139648438 259.6281433105469 381.4657592773438 260.2734069824219 C 381.3944702148438 260.3739624023438 381.5601806640625 260.4695129394531 381.6307373046875 260.3699340820312 C 381.9518432617188 259.9158020019531 382.2727661132812 259.4618530273438 382.5936584472656 259.0079040527344 C 381.3726806640625 261.5377807617188 378.880126953125 263.155517578125 376.0184326171875 263.1541748046875" fill="#231f20" stroke="#ffffff" stroke-width="1"/>
</svg>