<svg xmlns="http://www.w3.org/2000/svg" width="8" height="8" viewBox="24.47900009155273 26.1609992980957 8.271709442138683 8.464950561523441" fill="none">
  <path d="M 29.67037773132324 30.130126953125 C 29.19367218017578 29.6424446105957 28.71696090698242 29.15658950805664 28.2548828125 28.65549468994141 C 27.58675575256348 27.9294605255127 26.91984939575195 27.20342063903809 26.26391792297363 26.46580123901367 C 26.0798168182373 26.25792694091797 25.81524848937988 26.1609992980957 25.54824256896973 26.1609992980957 C 25.26721572875977 26.1609992980957 24.9831428527832 26.26828956604004 24.78562927246094 26.46580123901367 C 24.59055519104004 26.66087532043457 24.47900009155273 26.92788124084473 24.47900009155273 27.20464324951172 C 24.47900009155273 27.49420356750488 24.59726333618164 27.7325553894043 24.78562927246094 27.94408798217773 C 25.42266464233398 28.65976333618164 26.0712833404541 29.36446380615234 26.72294807434082 30.06733322143555 C 27.18624877929688 30.56721305847168 27.6660041809082 31.04696464538574 28.15002822875977 31.52855491638184 C 29.14429092407227 32.51610946655273 30.1568431854248 33.49025344848633 31.25107955932617 34.36869812011719 C 31.44128036499023 34.52049255371094 31.61928367614746 34.62594985961914 31.87165832519531 34.62594985961914 C 32.10391998291016 34.62594985961914 32.32886123657227 34.53207015991211 32.49345016479492 34.36869812011719 C 32.65743255615234 34.2041015625 32.75070953369141 33.97916030883789 32.75070953369141 33.74690246582031 C 32.75070953369141 33.50427627563477 32.65195083618164 33.30249786376953 32.49345016479492 33.12632369995117 C 31.57600212097168 32.10401916503906 30.63050270080566 31.11158561706543 29.67037773132324 30.130126953125" fill="#fc4d16" stroke="none" stroke-width="0"/>
</svg>