<svg xmlns="http://www.w3.org/2000/svg" width="56" height="33" viewBox="4.436185836791992 84.43677520751953 55.92164039611817 33.379539489746065" fill="none">
  <path d="M 41.13136291503906 94.69306182861328 C 43.21763229370117 95.47164154052734 45.22476959228516 96.29095458984375 47.07044219970703 97.56108093261719 C 48.77862548828125 98.73611450195312 50.30695343017578 100.1765365600586 51.67942047119141 101.7264404296875 C 53.80326461791992 104.1260604858398 55.64972686767578 106.9660949707031 56.72163391113281 109.8940734863281 C 57.19964599609375 111.2001953125 57.81273651123047 112.7588958740234 57.80713272094727 114.1689300537109 C 57.87348556518555 114.1313629150391 57.9398307800293 114.0929870605469 58.00617218017578 114.055419921875 C 57.81353378295898 114.0906066894531 57.61929321289062 114.0985870361328 57.42266464233398 114.0809783935547 C 57.1684684753418 114.0865783691406 56.91427993774414 114.0738067626953 56.66008758544922 114.0785980224609 C 55.77042770385742 114.0929870605469 54.87677001953125 114.1417541503906 53.9879035949707 114.1912994384766 C 50.92643737792969 114.3607788085938 47.86658477783203 114.5638122558594 44.80271911621094 114.7012939453125 C 38.6885871887207 114.9762573242188 32.5584716796875 115.0945587158203 26.44194221496582 114.8155975341797 C 19.57883262634277 114.5022430419922 12.75249195098877 113.6541748046875 6.081223487854004 111.9875335693359 C 6.37218189239502 112.4999084472656 6.663939476013184 113.0130920410156 6.954898834228516 113.5254669189453 C 8.573555946350098 103.5673294067383 18.01852607727051 98.193359375 26.64737510681152 94.94725799560547 C 27.18132972717285 94.74583435058594 27.58339881896973 94.31418609619141 27.58419799804688 93.71549224853516 C 27.58739471435547 91.15121459960938 27.53703498840332 88.58613586425781 27.53703498840332 86.02185821533203 C 27.53703498840332 84.43997955322266 25.07827377319336 84.43677520751953 25.07827377319336 86.02185821533203 C 25.07827377319336 88.58613586425781 25.02791786193848 91.15121459960938 25.03111457824707 93.71549224853516 C 25.34365463256836 93.305419921875 25.65619468688965 92.89536285400391 25.9687385559082 92.48450469970703 C 16.57892036437988 96.04236602783203 6.306636810302734 102.0134048461914 4.54329776763916 112.8604278564453 C 4.436185836791992 113.5150604248047 4.704764366149902 114.2208862304688 5.416173934936523 114.3991546630859 C 18.47015571594238 117.6604309082031 32.01332473754883 117.8163146972656 45.37744140625 117.140869140625 C 48.69309616088867 116.9730072021484 52.01913452148438 116.8131408691406 55.32439804077148 116.5069885253906 C 56.12453842163086 116.4326477050781 56.91827774047852 116.3415222167969 57.71441650390625 116.2384033203125 C 58.34189224243164 116.1576843261719 58.98775863647461 116.0985412597656 59.44977569580078 115.6061248779297 C 60.35782623291016 114.6365203857422 59.82706451416016 112.9283752441406 59.5584831237793 111.8124847412109 C 58.62805938720703 107.9476776123047 56.67768096923828 104.4961471557617 54.21891021728516 101.4083099365234 C 51.09110260009766 97.478759765625 46.52129745483398 93.5635986328125 41.37036514282227 92.92654418945312 C 40.29765701293945 92.79384613037109 40.25369262695312 94.3653564453125 41.13136291503906 94.69306182861328" fill="#2473d8" stroke="none" stroke-width="0"/>
</svg>