<svg xmlns="http://www.w3.org/2000/svg" width="1" height="1" viewBox="478.6814270019531 197.9120483398438 1 1" fill="none">
  <path d="M 478.7200012207031 198.3155822753906 C 478.7417602539062 198.2408447265625 478.7846069335938 198.3361663818359 478.8714294433594 198.3155822753906 C 478.837890625 198.1365051269531 478.6814270019531 198.081787109375 478.7702331542969 197.9120483398438 C 478.9526977539062 197.9492645263672 479.1247253417969 198.0284881591797 479.0228881835938 198.2149047851562 C 479.0677185058594 198.1923522949219 479.1134338378906 198.1697845458984 479.1247253417969 198.1139526367188 C 479.2597351074219 198.0989990234375 478.9896240234375 198.3096618652344 479.2253723144531 198.2656555175781 C 479.1314697265625 198.4842376708984 479.1012878417969 198.5662841796875 479.17431640625 198.8215026855469 C 478.9757995605469 198.7219696044922 478.8672485351562 198.8034515380859 478.8206787109375 198.5177917480469 C 479.0223693847656 198.4912719726562 478.9909973144531 198.509033203125 479.0739440917969 198.2656555175781 C 478.9955444335938 198.3217926025391 478.9679260253906 198.4295196533203 478.8206787109375 198.4168090820312 C 478.7984313964844 198.3717041015625 478.7758178710938 198.3268737792969 478.7200012207031 198.3155822753906" fill="#2777df" stroke="none" stroke-width="0"/>
</svg>