<svg xmlns="http://www.w3.org/2000/svg" width="10" height="10" viewBox="521.5111083984375 178.7730712890625 10.0625 9.740020751953097" fill="none">
  <path d="M 524.9614868164062 179.2560729980469 C 524.8492431640625 179.2778625488281 524.7756958007812 179.3350067138672 524.732666015625 179.4078216552734 C 523.6825561523438 179.7675476074219 522.6573486328125 180.331787109375 522.1070556640625 181.3354187011719 C 521.5111083984375 182.4231719970703 521.6212158203125 183.7760314941406 522.0816650390625 184.8887939453125 C 522.9920043945312 187.08837890625 525.3051147460938 188.5130920410156 527.6837768554688 188.0144348144531 C 529.996337890625 187.5296936035156 531.5736083984375 185.3230590820312 531.1160278320312 182.9682922363281 C 530.60107421875 180.3183898925781 527.4521484375 178.7730712890625 524.9614868164062 179.2560729980469 M 528.3831787109375 181.7994995117188 C 528.3046264648438 181.7799987792969 528.2275390625 181.7562866210938 528.1494140625 181.7356567382812 C 528.1937255859375 181.6783142089844 528.2369384765625 181.6200256347656 528.281494140625 181.5630493164062 C 528.3814697265625 181.5951690673828 528.4810180664062 181.6288146972656 528.5819091796875 181.6578674316406 C 528.5357055664062 181.720947265625 528.4892578125 181.7838134765625 528.4427490234375 181.8468933105469 C 528.432861328125 181.8251037597656 528.4137573242188 181.8071441650391 528.3831787109375 181.7994995117188 M 526.4152221679688 181.1546020507812 L 526.7764892578125 180.6477203369141 C 526.8775634765625 180.6817321777344 526.978515625 180.7159423828125 527.07958984375 180.7501678466797 C 526.9526977539062 180.9223785400391 526.8240356445312 181.0934448242188 526.6923828125 181.2618408203125 C 526.60009765625 181.2262878417969 526.5069580078125 181.1922607421875 526.4152221679688 181.1546020507812 M 525.5404052734375 179.9403381347656 C 525.6294555664062 179.9321136474609 525.7192993164062 179.9273376464844 525.8096923828125 179.925048828125 C 525.7678833007812 179.9758911132812 525.7244873046875 180.0255737304688 525.6834106445312 180.0769958496094 C 525.6187744140625 180.0552062988281 525.55419921875 180.0334167480469 525.4895629882812 180.0116271972656 C 525.5059814453125 179.987548828125 525.5237426757812 179.9642181396484 525.5404052734375 179.9403381347656 M 526.0564575195312 179.9256134033203 C 526.1669311523438 179.9288635253906 526.2779541015625 179.9357452392578 526.389404296875 179.947021484375 C 526.32080078125 180.0467834472656 526.2523803710938 180.1463623046875 526.1837768554688 180.2461547851562 C 526.081298828125 180.2115478515625 525.9788818359375 180.1769561767578 525.8764038085938 180.1421661376953 C 525.935302734375 180.0691528320312 525.9959106445312 179.9974822998047 526.0564575195312 179.9256134033203 M 526.5968017578125 179.9818115234375 C 526.6226196289062 179.99365234375 526.6514892578125 179.9961395263672 526.67578125 179.9856262207031 C 526.7753295898438 180.0018768310547 526.8746948242188 180.0200347900391 526.973876953125 180.0424041748047 C 526.8837280273438 180.1687316894531 526.793701171875 180.2952575683594 526.70361328125 180.4216003417969 C 526.593017578125 180.3841552734375 526.4823608398438 180.3468627929688 526.3716430664062 180.3094177246094 C 526.44677734375 180.2002868652344 526.5219116210938 180.0909423828125 526.5968017578125 179.9818115234375 M 527.4957275390625 180.1901397705078 C 527.445068359375 180.2568359375 527.3953857421875 180.3245086669922 527.3452758789062 180.3919830322266 C 527.2476196289062 180.349365234375 527.1503295898438 180.3048248291016 527.0535888671875 180.2583770751953 C 527.0933837890625 180.2027587890625 527.1329345703125 180.1471252441406 527.1727294921875 180.0913391113281 C 527.2810668945312 180.1203765869141 527.388671875 180.1540222167969 527.4957275390625 180.1901397705078 M 528.0502319335938 180.41357421875 C 527.9962768554688 180.4779968261719 527.9428100585938 180.5427856445312 527.8901977539062 180.6085357666016 C 527.7677001953125 180.5647583007812 527.6463012695312 180.5175476074219 527.5253295898438 180.4682464599609 C 527.5776977539062 180.397705078125 527.6296997070312 180.3268127441406 527.6824951171875 180.2572326660156 C 527.806884765625 180.3048248291016 527.9295654296875 180.3568115234375 528.0502319335938 180.41357421875 M 528.6773071289062 180.7646942138672 C 528.6591796875 180.7872467041016 528.6414184570312 180.8099975585938 528.6232299804688 180.8323669433594 C 528.4414672851562 180.7853393554688 528.2614135742188 180.7327728271484 528.0834350585938 180.6740875244141 C 528.1306762695312 180.6157989501953 528.1798095703125 180.5590362548828 528.2281494140625 180.5016784667969 C 528.382568359375 180.5819702148438 528.5330200195312 180.6695098876953 528.6773071289062 180.7646942138672 M 529.2791748046875 182.2091064453125 C 529.179443359375 182.2022247314453 529.079833984375 182.1926574707031 528.9801025390625 182.1850128173828 C 529.065673828125 182.0609741210938 529.1557006835938 181.9399719238281 529.2503051757812 181.8220520019531 C 529.337890625 181.8405914306641 529.4259643554688 181.8577880859375 529.5144653320312 181.8738403320312 C 529.4364624023438 181.9858551025391 529.3577270507812 182.0974731445312 529.2791748046875 182.2091064453125 M 528.7797241210938 181.7092742919922 C 528.8680419921875 181.7326049804688 528.95556640625 181.7572631835938 529.0444946289062 181.7780914306641 C 528.9462280273438 181.9044189453125 528.8531494140625 182.0345764160156 528.7642822265625 182.1676177978516 C 528.6629638671875 182.1592102050781 528.5618896484375 182.1525268554688 528.4607543945312 182.1433410644531 C 528.5647583007812 182.0018920898438 528.668701171875 181.8606567382812 528.7728881835938 181.7192077636719 C 528.7752075195312 181.7159729003906 528.7774658203125 181.7123413085938 528.7797241210938 181.7092742919922 M 529.6397094726562 181.7043151855469 C 529.5567016601562 181.6897888183594 529.474365234375 181.6725769042969 529.3919677734375 181.6561431884766 C 529.435546875 181.6054992675781 529.4768676757812 181.5533142089844 529.5220947265625 181.5038146972656 C 529.5255737304688 181.5 529.5265502929688 181.4957885742188 529.5293579101562 181.4917602539062 C 529.5850219726562 181.5534973144531 529.6383056640625 181.6169738769531 529.6897583007812 181.6819458007812 C 529.6719970703125 181.6836700439453 529.6549682617188 181.6914978027344 529.6397094726562 181.7043151855469 M 529.3870239257812 181.3686828613281 C 529.31396484375 181.4483947753906 529.2455444335938 181.5313415527344 529.1767578125 181.6142883300781 C 529.0817260742188 181.5928955078125 528.9880981445312 181.5664978027344 528.8936767578125 181.5424194335938 C 528.9827270507812 181.4078674316406 529.0784912109375 181.2645263671875 529.1928100585938 181.1578674316406 C 529.2654418945312 181.2220764160156 529.3348388671875 181.2889709472656 529.4022827148438 181.3574066162109 C 529.3970947265625 181.3612213134766 529.3917846679688 181.3633270263672 529.3870239257812 181.3686828613281 M 528.6937866210938 181.0481567382812 C 528.7883911132812 181.0712890625 528.8837280273438 181.0924987792969 528.9794921875 181.112548828125 C 528.8931274414062 181.2178649902344 528.8185424804688 181.3363800048828 528.7406005859375 181.4422607421875 C 528.7281494140625 181.4592742919922 528.7155151367188 181.4762878417969 528.702880859375 181.4934997558594 C 528.6041259765625 181.4659729003906 528.5062255859375 181.4353942871094 528.4083862304688 181.4046173095703 C 528.5026245117188 181.28515625 528.59814453125 181.1668395996094 528.6937866210938 181.0481567382812 M 528.2147827148438 181.3426818847656 C 528.0442504882812 181.28515625 527.8751220703125 181.2224731445312 527.707275390625 181.1549835205078 C 527.790283203125 181.0468139648438 527.8739624023438 180.9393920898438 527.9580688476562 180.8325500488281 C 528.134521484375 180.8923645019531 528.3126220703125 180.9468383789062 528.49267578125 180.9953918457031 C 528.3999633789062 181.1110229492188 528.3062744140625 181.2260894775391 528.2147827148438 181.3426818847656 M 528.8585205078125 180.8900756835938 C 528.8477783203125 180.8876037597656 528.8369140625 180.885498046875 528.8259887695312 180.8828125 L 528.8340454101562 180.8728790283203 C 528.8421020507812 180.8787994384766 528.8504638671875 180.8841552734375 528.8585205078125 180.8900756835938 M 527.1989135742188 180.5888519287109 C 527.0966186523438 180.5542602539062 526.994384765625 180.5198516845703 526.8921508789062 180.4852600097656 C 526.9085083007812 180.4621276855469 526.9249877929688 180.4391937255859 526.94140625 180.4160766601562 C 527.03662109375 180.4621276855469 527.1321411132812 180.5064697265625 527.228515625 180.5488891601562 C 527.2185668945312 180.5622863769531 527.2086181640625 180.5754699707031 527.1989135742188 180.5888519287109 M 526.5880126953125 180.5840759277344 C 526.4710693359375 180.7482604980469 526.3540649414062 180.9126281738281 526.2368774414062 181.0768127441406 C 526.135986328125 181.0336303710938 526.034912109375 180.9906158447266 525.9346923828125 180.9449310302734 C 526.0429077148438 180.7876281738281 526.151123046875 180.6303100585938 526.25927734375 180.4730224609375 C 526.3687744140625 180.5099182128906 526.478271484375 180.5469970703125 526.5880126953125 180.5840759277344 M 527.271484375 180.8101806640625 C 527.3397216796875 180.8176422119141 527.3778076171875 180.7472839355469 527.3617553710938 180.688232421875 C 527.377197265625 180.6672058105469 527.3928833007812 180.6463775634766 527.4083862304688 180.6253662109375 C 527.5270385742188 180.6746826171875 527.6463012695312 180.7220764160156 527.7667236328125 180.7660217285156 C 527.745361328125 180.7935485839844 527.7235107421875 180.8206939697266 527.7023315429688 180.8482208251953 C 527.64306640625 180.9252471923828 527.5844116210938 181.0053405761719 527.5256958007812 181.0859985351562 C 527.4278564453125 181.0546417236328 527.34716796875 181.1783142089844 527.4150390625 181.2367858886719 C 527.35888671875 181.3128662109375 527.3017578125 181.3883666992188 527.2426147460938 181.4623413085938 C 527.1205444335938 181.4208679199219 526.9991455078125 181.3772888183594 526.878173828125 181.3323669433594 C 527.0113525390625 181.16015625 527.1422729492188 180.98583984375 527.271484375 180.8101806640625 M 527.5874633789062 181.3113403320312 C 527.7537231445312 181.3788146972656 527.9210205078125 181.4424591064453 528.0894165039062 181.5005645751953 C 528.04296875 181.5603942871094 527.9982299804688 181.6215515136719 527.9519653320312 181.6815643310547 C 527.7753295898438 181.6318664550781 527.60009765625 181.578369140625 527.42578125 181.52197265625 C 527.4800415039062 181.4520111083984 527.5337524414062 181.3816833496094 527.5874633789062 181.3113403320312 M 528.338623046875 182.3090515136719 C 528.3521728515625 182.3190002441406 528.36767578125 182.3268432617188 528.3875122070312 182.3285522460938 C 528.4737548828125 182.3365783691406 528.5597534179688 182.3430786132812 528.645751953125 182.350341796875 C 528.6168823242188 182.3971710205078 528.5880737304688 182.4440002441406 528.5601196289062 182.4915924072266 C 528.4913330078125 182.4640808105469 528.4219360351562 182.4388427734375 528.3536987304688 182.4094085693359 C 528.3178100585938 182.3939208984375 528.2841796875 182.4015655517578 528.257568359375 182.4193420410156 C 528.2847290039062 182.3826446533203 528.3116455078125 182.3457641601562 528.338623046875 182.3090515136719 M 528.861572265625 182.3686981201172 C 528.958251953125 182.3763427734375 529.05517578125 182.3836059570312 529.15185546875 182.3904724121094 C 529.0918579101562 182.4755401611328 529.0322265625 182.560791015625 528.9718627929688 182.6454467773438 C 528.89404296875 182.6185150146484 528.8160400390625 182.5917358398438 528.7387084960938 182.5626831054688 C 528.77783203125 182.4967651367188 528.8203125 182.43310546875 528.861572265625 182.3686981201172 M 529.3740234375 182.4055786132812 C 529.4515991210938 182.4107360839844 529.5289916992188 182.4168701171875 529.6066284179688 182.4214477539062 C 529.7063598632812 182.4273681640625 529.8074951171875 182.4384613037109 529.9076538085938 182.4428558349609 C 529.7979125976562 182.5709075927734 529.6914672851562 182.7010803222656 529.5870971679688 182.8329620361328 C 529.4439086914062 182.794921875 529.3017578125 182.7538299560547 529.160888671875 182.7087097167969 C 529.2323608398438 182.6081848144531 529.3029174804688 182.5066986083984 529.3740234375 182.4055786132812 M 530.3170776367188 182.9138031005859 C 530.2870483398438 182.9029235839844 530.2526245117188 182.9059753417969 530.2237548828125 182.9363708496094 C 530.2120971679688 182.9486083984375 530.201416015625 182.9616088867188 530.18994140625 182.9738159179688 C 530.0548095703125 182.9474487304688 529.9204711914062 182.9180145263672 529.7870483398438 182.8857116699219 C 529.8875732421875 182.7605285644531 529.989990234375 182.6366577148438 530.0953369140625 182.5151062011719 C 530.11669921875 182.4904479980469 530.1220703125 182.4631042480469 530.1181030273438 182.4375 C 530.1282348632812 182.4363555908203 530.1381225585938 182.4340515136719 530.1480712890625 182.4327239990234 C 530.2169189453125 182.5873565673828 530.2733154296875 182.7480926513672 530.3170776367188 182.9138031005859 M 529.4603881835938 182.9954223632812 C 529.35107421875 183.1383972167969 529.2438354492188 183.2830810546875 529.1404418945312 183.4304504394531 C 528.9934692382812 183.4044494628906 528.846435546875 183.3765563964844 528.6998901367188 183.3480682373047 C 528.8153076171875 183.1892395019531 528.93017578125 183.0298309326172 529.0444946289062 182.8700256347656 C 529.1820678710938 182.9153442382812 529.3208618164062 182.9568176269531 529.4603881835938 182.9954223632812 M 529.6585693359375 183.0508422851562 C 529.7855224609375 183.082763671875 529.9139404296875 183.110107421875 530.0427856445312 183.1368713378906 C 529.9299926757812 183.2635803222656 529.8204956054688 183.3927917480469 529.71630859375 183.5260162353516 C 529.593994140625 183.5070953369141 529.4718627929688 183.4866333007812 529.3499145507812 183.4661865234375 C 529.4498901367188 183.3255310058594 529.5529174804688 183.1871337890625 529.6585693359375 183.0508422851562 M 530.3551025390625 183.0758972167969 C 530.3787841796875 183.1894226074219 530.3982543945312 183.3025817871094 530.4107055664062 183.4149627685547 C 530.3569946289062 183.4768981933594 530.30517578125 183.5403442382812 530.2537841796875 183.60400390625 C 530.147705078125 183.58984375 530.0418090820312 183.5739898681641 529.9359130859375 183.5585021972656 C 530.0693359375 183.3926086425781 530.2077026367188 183.2308959960938 530.3551025390625 183.0758972167969 M 530.0630493164062 182.2555389404297 C 529.8831787109375 182.2765655517578 529.6752319335938 182.2509460449219 529.4970703125 182.2301330566406 C 529.5743408203125 182.1202087402344 529.6519165039062 182.0108947753906 529.7283325195312 181.9006042480469 C 529.7640991210938 181.8874206542969 529.7879638671875 181.8554992675781 529.7948608398438 181.8209075927734 C 529.8946533203125 181.9596557617188 529.98486328125 182.1043395996094 530.0630493164062 182.2555389404297 M 527.4805908203125 187.2772216796875 C 525.63330078125 187.6516418457031 523.8322143554688 186.6195220947266 522.9692993164062 184.9924011230469 C 522.459716796875 184.0321350097656 522.2207641601562 182.7188415527344 522.7672119140625 181.7213287353516 C 523.2517700195312 180.8371276855469 524.1956176757812 180.380126953125 525.119140625 180.0840759277344 C 525.12451171875 180.0871276855469 525.1287231445312 180.0911254882812 525.1351928710938 180.0934295654297 C 525.1550903320312 180.1001129150391 525.1747436523438 180.1066131591797 525.1944580078125 180.1133117675781 C 525.1373291015625 180.2012329101562 525.0792236328125 180.28857421875 525.02490234375 180.37841796875 C 524.9610595703125 180.4839172363281 525.1264038085938 180.5800476074219 525.1900634765625 180.4747467041016 C 525.251220703125 180.3736267089844 525.3162231445312 180.2750091552734 525.3807983398438 180.1763763427734 C 525.4406127929688 180.1964416503906 525.5003051757812 180.2167053222656 525.5599365234375 180.2367858886719 C 525.4490356445312 180.3808898925781 525.3389892578125 180.525390625 525.2341918945312 180.6742858886719 C 525.163330078125 180.7750244140625 525.3290405273438 180.8707733154297 525.3993530273438 180.7708129882812 C 525.511962890625 180.61083984375 525.6294555664062 180.4548645019531 525.7493286132812 180.3008117675781 C 525.8567504882812 180.3371276855469 525.9641723632812 180.3732452392578 526.0714111328125 180.4095611572266 C 525.95654296875 180.5768127441406 525.8414306640625 180.7440490722656 525.7265625 180.9112854003906 C 525.708251953125 180.9256286621094 525.6950073242188 180.9451293945312 525.688720703125 180.9663391113281 C 525.5872192382812 181.1138916015625 525.4857788085938 181.2614593505859 525.3844604492188 181.4090118408203 C 525.3145141601562 181.510498046875 525.47998046875 181.6062622070312 525.5493774414062 181.5053405761719 C 525.6412963867188 181.3717346191406 525.7332763671875 181.2379455566406 525.8251953125 181.1043395996094 C 525.9241943359375 181.1496429443359 526.0243530273438 181.1920776367188 526.1243286132812 181.2350769042969 C 526.0986938476562 181.27099609375 526.0728759765625 181.3069458007812 526.0473022460938 181.3430786132812 C 525.975830078125 181.4434204101562 526.1414794921875 181.5389709472656 526.21240234375 181.4393920898438 C 526.242431640625 181.3973388671875 526.2724609375 181.3551025390625 526.302490234375 181.3128662109375 C 526.3643798828125 181.3384704589844 526.4266967773438 181.3627624511719 526.4886474609375 181.3874053955078 C 526.3301391601562 181.4879455566406 526.2481689453125 181.6356964111328 526.251220703125 181.8296813964844 C 526.2523803710938 181.908447265625 526.3572998046875 181.9608154296875 526.4142456054688 181.8971710205078 C 526.5324096679688 181.7654724121094 526.6459350585938 181.6288146972656 526.7569580078125 181.4898529052734 C 526.8743286132812 181.5338134765625 526.99169921875 181.5781555175781 527.1101684570312 181.6190795898438 C 526.9957275390625 181.7478942871094 526.872802734375 181.8669586181641 526.7342529296875 181.9650268554688 C 526.6346435546875 182.0355529785156 526.7300415039062 182.2012634277344 526.8307495117188 182.1301574707031 C 527.0100708007812 182.0034332275391 527.1587524414062 181.8468933105469 527.2974853515625 181.680419921875 C 527.4729614257812 181.738525390625 527.6495361328125 181.7941436767578 527.8275146484375 181.8453674316406 C 527.6857299804688 182.0309600830078 527.5423583984375 182.2157897949219 527.4031982421875 182.4036712646484 C 527.3300170898438 182.502685546875 527.4957275390625 182.5980529785156 527.568359375 182.5001983642578 C 527.718017578125 182.2979736328125 527.8718872070312 182.0989990234375 528.0247802734375 181.8994445800781 C 528.12744140625 181.9273681640625 528.2289428710938 181.9581298828125 528.332275390625 181.9837493896484 C 528.3357543945312 181.9847106933594 528.3384399414062 181.9837493896484 528.3416748046875 181.984130859375 C 528.2533569335938 182.1043395996094 528.1648559570312 182.2245788574219 528.076416015625 182.3447875976562 C 528.0100708007812 182.4350280761719 528.1402587890625 182.520263671875 528.2188110351562 182.4617767333984 C 528.1983032226562 182.5021057128906 528.2034912109375 182.5512237548828 528.2572021484375 182.5743560791016 C 528.3267822265625 182.6043701171875 528.3972778320312 182.6303558349609 528.4672241210938 182.658447265625 C 528.4381713867188 182.7113952636719 528.4068603515625 182.7630004882812 528.379150390625 182.8169097900391 C 528.3229370117188 182.9262390136719 528.4878540039062 183.02294921875 528.5441284179688 182.9134216308594 C 528.576171875 182.8509216308594 528.6121215820312 182.7911071777344 528.6459350585938 182.7299346923828 C 528.7156982421875 182.7565002441406 528.785888671875 182.7813568115234 528.8560180664062 182.8059997558594 C 528.7357788085938 182.9738159179688 528.6154174804688 183.1414489746094 528.4938354492188 183.3085021972656 C 528.4762573242188 183.3048706054688 528.4584350585938 183.3018188476562 528.440673828125 183.2981872558594 C 528.3212280273438 183.2737121582031 528.2702026367188 183.4554748535156 528.3883056640625 183.4816741943359 C 528.3873901367188 183.5585021972656 528.5097045898438 183.6106872558594 528.5693359375 183.5290832519531 C 528.5719604492188 183.525634765625 528.574462890625 183.5220031738281 528.5769653320312 183.5185546875 C 528.7254638671875 183.547607421875 528.8739624023438 183.57666015625 529.0228881835938 183.6034240722656 C 528.9701538085938 183.6810302734375 528.9169921875 183.7582397460938 528.865966796875 183.8369750976562 C 528.799072265625 183.9405822753906 528.9644165039062 184.0365295410156 529.0309448242188 183.9335174560547 C 529.0953369140625 183.8339233398438 529.1620483398438 183.7360687255859 529.2291259765625 183.6383972167969 C 529.3482055664062 183.6588592529297 529.46728515625 183.6800689697266 529.5867309570312 183.6989898681641 C 529.4559936523438 183.8759765625 529.3304443359375 184.0569915771484 529.2142333984375 184.2450561523438 C 529.1494140625 184.3500061035156 529.3145751953125 184.4459533691406 529.379150390625 184.3415832519531 C 529.5098876953125 184.1301879882812 529.6509399414062 183.9270172119141 529.8002319335938 183.7303466796875 C 529.905517578125 183.7462005615234 530.0110473632812 183.7622528076172 530.11669921875 183.7767791748047 C 529.9397583007812 184.0109252929688 529.7765502929688 184.2553863525391 529.629150390625 184.5113067626953 C 529.567626953125 184.6181640625 529.7327270507812 184.7144775390625 529.7941284179688 184.6078491210938 C 529.9561767578125 184.3262939453125 530.1387329101562 184.0600433349609 530.3374633789062 183.8058319091797 C 530.3682861328125 183.8098449707031 530.3990478515625 183.8132934570312 530.4298095703125 183.8172912597656 C 530.41796875 185.4946899414062 529.17578125 186.9337463378906 527.4805908203125 187.2772216796875" fill="#231f20" stroke="#ffffff" stroke-width="1"/>
</svg>