<svg xmlns="http://www.w3.org/2000/svg" width="2" height="4" viewBox="10.77623558044434 41.72461700439453 2.3188781738281197 4.361183166503906" fill="none">
  <path d="M 12.15589141845703 45.54863739013672 C 12.26220321655273 45.20492553710938 12.36691665649414 44.85961151123047 12.48282051086426 44.51909637451172 C 12.53877449035645 44.35523223876953 12.61071586608887 44.18897247314453 12.65307998657227 44.02109527587891 C 12.68025588989258 43.91558837890625 12.59712409973145 44.1466064453125 12.63789367675781 44.04827880859375 C 12.64908409118652 44.022705078125 12.66107368469238 43.99713134765625 12.67226219177246 43.97074890136719 C 12.64828300476074 43.9979248046875 12.62510108947754 44.02429962158203 12.60112380981445 44.05147552490234 C 12.70264053344727 43.94757080078125 12.80815124511719 43.82846832275391 12.87289810180664 43.69976806640625 C 13.09511375427246 43.25533294677734 13.00638771057129 42.64944458007812 12.53157997131348 42.39844512939453 C 12.10393333435059 42.1722412109375 11.46446418762207 42.26335906982422 11.23105812072754 42.73977661132812 C 11.01363754272461 43.18259429931641 10.91212272644043 43.71016693115234 10.88734245300293 44.20095825195312 L 12.55156326293945 43.75012969970703 C 12.54357147216797 43.73653411865234 12.53477478027344 43.72295379638672 12.5259838104248 43.70935821533203 C 12.55556106567383 43.77890777587891 12.58433723449707 43.84764862060547 12.61391067504883 43.91719055175781 C 12.61151313781738 43.89960479736328 12.60831642150879 43.88201904296875 12.60591888427734 43.86522674560547 L 12.63709259033203 44.09544372558594 C 12.59472846984863 43.77890777587891 12.5931282043457 43.46156311035156 12.63149833679199 43.14422607421875 C 12.6211051940918 43.21696472167969 12.61151313781738 43.29050445556641 12.60272026062012 43.36325073242188 C 12.62190628051758 43.21377563476562 12.64988327026367 43.06589508056641 12.68825149536133 42.91961669921875 C 12.72741889953613 42.77093505859375 12.75939178466797 42.63106536865234 12.73860931396484 42.47518157958984 C 12.71942329406738 42.33769989013672 12.66986656188965 42.20899963378906 12.59152984619141 42.09549713134766 C 12.41167831420898 41.83571624755859 12.14709854125977 41.72461700439453 11.83775520324707 41.78855895996094 C 11.68428230285645 41.81972503662109 11.50363159179688 41.90285491943359 11.39652061462402 42.01956176757812 C 11.27182579040527 42.15544891357422 11.20707893371582 42.32251739501953 11.14393043518066 42.49356842041016 C 11.08637809753418 42.65184020996094 11.03921890258789 42.81330871582031 11.00484657287598 42.9771728515625 C 10.92331314086914 43.36005401611328 10.88334655761719 43.75732421875 10.90412902832031 44.14820098876953 L 10.93610382080078 43.91719055175781 L 10.91931533813477 43.96355438232422 C 10.77623558044434 44.38560485839844 11.04960823059082 44.85400390625 11.43648910522461 45.01788330078125 C 11.82976341247559 45.18334197998047 12.34133911132812 45.04664611816406 12.55156326293945 44.65178680419922 C 12.78417015075684 44.21694183349609 12.96162414550781 43.71256256103516 13.00238800048828 43.22016143798828 L 11.10076713562012 43.22016143798828 C 11.09836578369141 43.39122772216797 11.14233016967773 43.55828857421875 11.18469619750977 43.72295379638672 C 11.17510414123535 43.65021514892578 11.16551208496094 43.57667541503906 11.15512275695801 43.50313568115234 C 11.15432167053223 43.55668640136719 11.16950988769531 43.68459320068359 11.14233016967773 43.73014831542969 C 11.1583194732666 43.61903381347656 11.15911865234375 43.60784912109375 11.14712715148926 43.69657135009766 C 11.14153099060059 43.73493957519531 11.13433837890625 43.77410888671875 11.12874412536621 43.81248474121094 C 11.10556221008301 43.96755218505859 11.08158111572266 44.12261962890625 11.05840301513672 44.27768707275391 C 11.0112419128418 44.5870361328125 10.95129013061523 44.89398193359375 10.89533615112305 45.200927734375 C 10.83458709716797 45.53665161132812 10.98645973205566 45.92192077636719 11.35175895690918 46.00506591796875 C 11.70586395263672 46.08580017089844 12.0463809967041 45.89794921875 12.15589141845703 45.54863739013672" fill="#2473d8" stroke="none" stroke-width="0"/>
</svg>