<svg xmlns="http://www.w3.org/2000/svg" width="1" height="1" viewBox="363.461669921875 35.3489990234375 1 1" fill="none">
  <path d="M 364.2293395996094 35.3489990234375 C 364.1706848144531 35.4561653137207 364.0984802246094 35.62537002563477 364.1782836914062 35.55120086669922 C 364.1957397460938 35.73252868652344 364.0798645019531 35.68740844726562 363.9264526367188 35.80415725708008 C 363.92138671875 35.87663650512695 363.9177551269531 35.94770050048828 363.9766845703125 35.95587921142578 C 363.9273071289062 36.12310791015625 363.8765258789062 35.90003967285156 363.8246765136719 35.90512084960938 C 363.6768798828125 35.94854736328125 363.8551025390625 36.06839752197266 363.8246765136719 36.15807723999023 C 363.70849609375 36.17387008666992 363.7688293457031 36.01227951049805 363.6735229492188 36.00663757324219 C 363.5942687988281 36.02468872070312 363.7172241210938 36.09575271606445 363.6226806640625 36.10731506347656 C 363.63037109375 36.20150756835938 363.7939453125 36.13805389404297 363.8246765136719 36.20883941650391 C 363.8093872070312 36.31374359130859 363.6881408691406 36.133544921875 363.6735229492188 36.30951309204102 C 363.5218200683594 36.27567291259766 363.6407775878906 35.9716682434082 363.4713134765625 35.95587921142578 C 363.461669921875 35.9127311706543 363.4910583496094 35.90793991088867 363.5218200683594 35.90512084960938 C 363.565185546875 35.91498947143555 363.5691833496094 35.88593673706055 363.5717163085938 35.85520172119141 C 363.6295471191406 35.86478805541992 363.6001892089844 35.90512084960938 363.5717163085938 35.90512084960938 C 363.5804138183594 35.96490097045898 363.6639099121094 35.94770050048828 363.7242736816406 35.95587921142578 C 363.6845092773438 35.9107551574707 363.6692810058594 35.84223175048828 363.6735229492188 35.75368499755859 C 363.7707824707031 35.84786987304688 363.7129821777344 35.84617614746094 363.8753967285156 35.80415725708008 C 363.6165771484375 35.52243804931641 364.1069030761719 35.49225997924805 364.2293395996094 35.3489990234375" fill="#2777df" stroke="none" stroke-width="0"/>
</svg>