<svg xmlns="http://www.w3.org/2000/svg" width="161" height="96" viewBox="0.0540882907807827 0.00647735595703125 160.59370834007862 95.94075012207031" fill="none">
  <path d="M 148.5381469726562 23.10929107666016 C 146.2488403320312 24.51195526123047 143.9865570068359 25.84503173828125 141.7780151367188 27.26283264160156 C 138.8563079833984 29.13774108886719 135.8345184326172 30.87934875488281 133.3700714111328 33.39348602294922 C 132.1855621337891 34.60259246826172 131.2388763427734 35.96997451782227 130.4127044677734 37.42860412597656 C 130.0040588378906 38.15158462524414 129.7759552001953 38.94971084594727 130.52880859375 39.58869171142578 C 131.2066650390625 40.16410064697266 131.8187103271484 40.14492034912109 132.7642822265625 39.73184204101562 C 135.9840698242188 38.32916259765625 138.1398468017578 35.54385757446289 141.0637512207031 33.74850845336914 C 146.3779602050781 30.48360061645508 151.5167846679688 26.93361663818359 156.7148895263672 23.48029327392578 C 158.0853576660156 22.56929779052734 159.2148742675781 21.38710021972656 160.2101440429688 20.07469177246094 C 160.4541320800781 19.75187683105469 160.3282012939453 19.51318359375 160.1454467773438 19.24411010742188 C 159.9054107666016 18.89005279541016 159.6775360107422 18.52764129638672 159.4396820068359 18.16091918945312 C 159.9033050537109 17.81241607666016 160.1809997558594 18.46861267089844 160.6175689697266 18.23828125 C 160.6111755371094 18.15219879150391 160.6477966308594 18.00067901611328 160.5875549316406 17.93058776855469 C 158.9739837646484 16.03514099121094 156.6685333251953 15.1251220703125 154.6149291992188 13.89559173583984 C 150.9702758789062 11.71607208251953 147.2117309570312 9.7269287109375 143.7017364501953 7.324691772460938 C 140.5861206054688 5.193756103515625 137.1212310791016 3.827598571777344 133.5723724365234 2.650718688964844 C 132.1080932617188 2.165458679199219 131.0851745605469 1.039222717285156 129.8210906982422 0.268035888671875 C 129.3930053710938 0.00647735595703125 129.0756225585938 -0.2505569458007812 128.6915435791016 0.4668960571289062 C 128.2559814453125 1.2823486328125 127.3339004516602 0.7347259521484375 126.6626739501953 0.7779083251953125 C 124.713508605957 0.9025955200195312 123.0696868896484 3.277778625488281 123.8002853393555 5.123916625976562 C 124.0798034667969 5.827461242675781 124.5478591918945 6.413688659667969 125.0138092041016 7.002128601074219 C 128.2279205322266 11.05778503417969 132.1157073974609 14.29355621337891 136.7339630126953 16.64069366455078 C 137.2814636230469 16.91935729980469 137.8063354492188 17.22913360595703 138.3775787353516 17.86283874511719 C 137.0458526611328 18.16622161865234 135.84423828125 18.47500610351562 134.6286163330078 18.71163177490234 C 126.8983001708984 20.21661376953125 119.1636657714844 21.70440673828125 111.4979095458984 23.51156616210938 C 107.8866882324219 24.36354064941406 104.3281021118164 25.50833129882812 100.7188415527344 26.28701782226562 C 96.830078125 27.126220703125 93.09391021728516 28.34185028076172 89.35565948486328 29.59609222412109 C 84.71390533447266 31.15150833129883 80.09685516357422 32.80186080932617 75.67977905273438 34.92543411254883 C 67.40711212158203 38.90349960327148 59.77590179443359 43.78530502319336 53.79245376586914 50.91219711303711 C 51.75510406494141 53.34001159667969 49.90479278564453 55.88846206665039 48.4978141784668 58.74362182617188 C 47.71986389160156 60.3227653503418 47.28747177124023 60.59921646118164 45.67930603027344 60.0399284362793 C 41.79581451416016 58.68877792358398 37.77250289916992 58.42412567138672 33.7288932800293 58.40249252319336 C 26.67076110839844 58.36264419555664 19.7838077545166 59.40942764282227 13.32924461364746 62.39567947387695 C 9.200665473937988 64.30735778808594 5.91632080078125 67.27012634277344 3.337740182876587 71.05757141113281 C 1.884521245956421 73.19097137451172 0.8131458759307861 75.45952606201172 0.09643586724996567 77.91328430175781 C -0.09380956739187241 78.56211090087891 -0.0540882907807827 79.61319732666016 0.6923815011978149 79.45824432373047 C 1.4906245470047 79.29247283935547 2.466569185256958 79.38716125488281 3.145279169082642 78.79872131347656 C 3.565860271453857 78.43409729003906 3.954221487045288 77.95657348632812 4.173612594604492 77.44978332519531 C 4.716802597045898 76.20292663574219 5.354683399200439 75.01422882080078 6.054053783416748 73.85025024414062 C 9.109292030334473 68.76736450195312 13.45074558258057 65.49507141113281 19.32559585571289 64.35027313232422 C 27.94443702697754 62.67114639282227 36.36872100830078 63.46286392211914 44.66584777832031 66.22541046142578 C 45.82884216308594 66.61168670654297 45.4511833190918 67.38078308105469 45.32205581665039 68.00698852539062 C 44.71430587768555 70.94158172607422 44.70999145507812 73.88048553466797 45.21014404296875 76.80967712402344 C 46.09335708618164 81.97113800048828 48.09530258178711 86.62693023681641 52.0068244934082 90.23076629638672 C 58.21063613891602 95.94722747802734 64.39823150634766 95.58567047119141 70.68062591552734 90.61260223388672 C 74.83208465576172 87.3272705078125 75.46775054931641 83.67829895019531 73.25724029541016 78.84591674804688 C 71.11105346679688 74.15262603759766 67.64382934570312 70.60055541992188 63.50652313232422 67.60435485839844 C 61.18607330322266 65.92424011230469 58.6312255859375 64.71389770507812 56.04834365844727 63.55115509033203 C 55.20509338378906 63.17029571533203 55.35659790039062 62.90896987915039 55.6685905456543 62.20419692993164 C 56.68413162231445 59.91275787353516 57.70619201660156 57.64420318603516 59.0959587097168 55.53896331787109 C 62.08860778808594 51.00344085693359 66.08609771728516 47.54619216918945 70.58066558837891 44.61035919189453 C 78.89833068847656 39.17895126342773 88.18418121337891 36.06997680664062 97.67124176025391 33.50417327880859 C 110.5974731445312 30.00806427001953 123.7161636352539 27.40364837646484 136.9296417236328 25.25867462158203 C 140.0708312988281 24.74880981445312 143.0465240478516 23.61914825439453 146.0993957519531 22.77466583251953 C 146.9190521240234 22.54765319824219 147.7225799560547 22.34449005126953 148.5381469726562 23.10929107666016 M 54.50141525268555 71.10488891601562 C 57.1563606262207 72.34855651855469 60.82143402099609 75.92214202880859 62.81699371337891 79.14402008056641 C 64.03260803222656 81.10734558105469 64.95457458496094 83.18135070800781 65.19979095458984 85.50278472900391 C 65.27295684814453 86.19773101806641 65.41806793212891 87.07123565673828 64.81253814697266 87.47361755371094 C 64.33059692382812 87.79421997070312 63.65175247192383 87.28091430664062 63.1020393371582 87.02610778808594 C 58.11164093017578 84.7099609375 54.02167892456055 77.17860412597656 54.50141525268555 71.10488891601562 M 50.32757568359375 84.12483215332031 C 51.32159805297852 85.54054260253906 52.71247482299805 86.64512634277344 53.43102264404297 88.24382781982422 C 51.88852310180664 87.24783325195312 50.93643569946289 85.80519104003906 50.32757568359375 84.12483215332031 M 64.86197662353516 78.41365814208984 C 63.7636604309082 76.97322845458984 62.66535949707031 75.53279876708984 61.56692886352539 74.09335327148438 C 63.09233474731445 75.18206787109375 64.25742340087891 76.55363464355469 64.86197662353516 78.41365814208984 M 72.34278869628906 78.84812927246094 C 71.75004577636719 77.822998046875 71.15717315673828 76.79785919189453 70.56454467773438 75.77272033691406 C 71.48649597167969 76.57834625244141 71.95122528076172 77.64553833007812 72.34278869628906 78.84812927246094" fill="#ff5f2e" stroke="none" stroke-width="0"/>
</svg>