<svg xmlns="http://www.w3.org/2000/svg" width="9" height="16" viewBox="61.86211013793945 48.01467132568359 8.751148223876953 16.067481994628913" fill="none">
  <path d="M 66.26725769042969 48.20171356201172 C 65.69572448730469 49.01783752441406 65.75728607177734 50.19366836547852 65.56623077392578 51.15206527709961 C 65.34642028808594 52.2607536315918 65.02667999267578 53.3206672668457 64.63580322265625 54.37979125976562 C 63.83166885375977 56.56037902832031 62.79253768920898 58.64985656738281 62.08432388305664 60.86562347412109 C 61.86211013793945 61.56264495849609 62.35370254516602 62.14057159423828 62.95080947875977 62.39075469970703 C 63.7077751159668 62.70808410644531 64.46474456787109 63.02622222900391 65.22252655029297 63.34355926513672 C 65.96031188964844 63.65290832519531 66.71168518066406 64.0821533203125 67.51823425292969 63.75681304931641 C 68.30797576904297 63.43948364257812 68.49820709228516 62.60816955566406 68.69243621826172 61.86957550048828 C 68.89946746826172 61.079833984375 69.08090972900391 60.28369903564453 69.24240112304688 59.48355865478516 C 69.88345336914062 56.29660797119141 70.21037292480469 53.05289077758789 70.54130554199219 49.82197570800781 C 70.61325836181641 49.11855697631836 69.88904571533203 48.51506042480469 69.23440551757812 48.51506042480469 C 68.47181701660156 48.51506042480469 67.99542236328125 49.11615371704102 67.92748260498047 49.82197570800781 C 67.73085021972656 51.87786483764648 67.54061126708984 53.93695449829102 67.24005126953125 55.98086547851562 C 67.09535217285156 56.96884918212891 66.92909240722656 57.95362854003906 66.73007965087891 58.93202209472656 C 66.62216186523438 59.46517944335938 66.50465393066406 59.99673461914062 66.37676239013672 60.52590179443359 C 66.31281280517578 60.79047393798828 66.24647521972656 61.05426025390625 66.17613220214844 61.31725311279297 C 66.15294647216797 61.40516662597656 66.12896728515625 61.49309539794922 66.10579681396484 61.58021545410156 C 66.00107574462891 61.89756774902344 66.0042724609375 61.92874145507812 66.11377716064453 61.67294311523438 C 66.41672515869141 61.54744720458984 66.71968078613281 61.42195129394531 67.02342987060547 61.29646301269531 C 66.58699798583984 61.34122467041016 65.80844116210938 60.86161041259766 65.3887939453125 60.69775390625 C 64.79567718505859 60.46435546875 64.20336151123047 60.23174285888672 63.61026382446289 59.99913787841797 L 64.47673797607422 61.52507019042969 C 65.16736602783203 59.17501831054688 66.27285003662109 56.96725463867188 66.94189453125 54.61400604248047 C 67.25843048095703 53.49811935424805 67.51902008056641 52.32789611816406 67.56777191162109 51.16646194458008 C 67.61014556884766 50.15610122680664 67.60374450683594 48.81240463256836 66.74205780029297 48.14096450805664 C 66.57979583740234 48.01467132568359 66.38874816894531 48.02825927734375 66.26725769042969 48.20171356201172" fill="#2473d8" stroke="none" stroke-width="0"/>
</svg>