<svg xmlns="http://www.w3.org/2000/svg" width="12" height="3" viewBox="128.7199096679688 2.640072345733643 12.001647949218693 3.403253078460693" fill="none">
  <path d="M 137.3264617919922 2.909388542175293 C 137.5337371826172 3.118073463439941 137.7232360839844 3.044187784194946 137.9327850341797 3.212263345718384 C 137.9288330078125 3.060544013977051 138.0371398925781 3.183216333389282 138.2362213134766 3.212263345718384 C 138.2077484130859 3.315195798873901 138.0839538574219 3.311811447143555 138.1857452392578 3.414743661880493 C 138.3402862548828 3.291506767272949 138.460693359375 3.155579805374146 138.5898590087891 3.515701770782471 C 138.7503204345703 3.292916774749756 139.315185546875 3.654731035232544 139.2469482421875 3.819140911102295 C 139.6674194335938 3.792350053787231 139.9993438720703 4.275709629058838 140.3586120605469 4.476215839385986 C 140.2483367919922 4.763298511505127 140.3605804443359 4.743839263916016 140.5108947753906 4.880612373352051 C 140.4925689697266 4.946884632110596 140.4217681884766 4.959856510162354 140.40966796875 5.032050609588623 C 140.5796966552734 4.938705921173096 140.4152984619141 5.045022964477539 140.5108947753906 5.133573055267334 C 140.5596923828125 5.131880760192871 140.5500793457031 5.071813106536865 140.5610809326172 5.032050609588623 C 140.6019744873047 5.058840751647949 140.6434173583984 5.084504127502441 140.7131042480469 5.08281135559082 C 140.7215576171875 5.151338577270508 140.4203643798828 5.148236751556396 140.6112823486328 5.234248638153076 C 140.4367523193359 5.341975688934326 140.5202026367188 5.001875877380371 140.2579498291016 4.981853485107422 C 140.2946014404297 4.891329288482666 140.3498840332031 4.974521160125732 140.40966796875 4.981853485107422 C 140.4237365722656 4.90035343170166 140.3617095947266 4.894995212554932 140.3586120605469 4.829852104187012 C 140.1609191894531 4.881176948547363 140.1380615234375 4.810675621032715 139.9547882080078 4.678413867950439 C 139.5949401855469 4.418968200683594 139.0233001708984 4.255687236785889 138.9945373535156 4.072100639343262 C 138.838623046875 4.10706901550293 138.8972320556641 4.10706901550293 138.7418823242188 4.072100639343262 C 138.8070068359375 4.004983425140381 138.8084259033203 3.88372015953064 138.6911010742188 3.869338035583496 C 138.7116851806641 4.145704746246338 138.4996185302734 4.086765289306641 138.3372039794922 3.869338035583496 C 137.4116516113281 3.911638975143433 136.8436737060547 3.674189329147339 136.0628204345703 3.869338035583496 C 135.98779296875 3.847623109817505 136.0828247070312 3.804758787155151 136.0628204345703 3.717900514602661 C 135.9736785888672 3.730026721954346 135.9474639892578 3.804758787155151 135.9615631103516 3.920381307601929 C 135.8755493164062 3.938147068023682 135.865966796875 3.881182193756104 135.8609008789062 3.819140911102295 C 135.8081359863281 3.958452224731445 135.6180877685547 4.035158157348633 135.4054565429688 3.869338035583496 C 135.3363494873047 3.920381307601929 135.4271697998047 3.95281195640564 135.3050537109375 4.021339893341064 C 135.3803558349609 3.76104736328125 134.8933410644531 4.277400970458984 134.8496246337891 4.021339893341064 C 134.8304443359375 4.287835121154785 134.3462219238281 4.053206443786621 134.1930999755859 4.324778079986572 C 134.1335754394531 4.316035747528076 134.1499481201172 4.23256254196167 134.142333984375 4.172776699066162 C 134.0997772216797 4.348466873168945 133.6869201660156 4.193081855773926 133.6869201660156 4.526977062225342 C 133.5828399658203 4.407406330108643 133.3814849853516 4.452527523040771 133.2325744628906 4.678413867950439 C 133.1573028564453 4.656417369842529 133.2526092529297 4.613834381103516 133.2325744628906 4.526977062225342 C 133.2015838623047 4.601426601409912 132.9229431152344 4.838029861450195 132.9288787841797 4.6276535987854 C 132.7808074951172 4.748915195465088 132.6028747558594 4.840286254882812 132.4745635986328 4.981853485107422 C 132.2963104248047 4.683490753173828 132.0321044921875 5.21281623840332 131.9184417724609 5.133573055267334 C 131.9099884033203 5.192230224609375 131.9297180175781 5.223250389099121 131.9692077636719 5.234248638153076 C 131.8589324951172 5.185179710388184 131.7675628662109 5.319132804870605 131.6147155761719 5.234248638153076 C 131.6009063720703 5.305032730102539 131.5264587402344 5.48100471496582 131.3118591308594 5.487490653991699 C 131.2856140136719 5.412476539611816 131.2368316650391 5.359741687774658 131.2106170654297 5.28501033782959 C 131.2523193359375 5.41106653213501 131.0377349853516 5.447446346282959 131.0084381103516 5.638927936553955 C 130.8862762451172 5.463237762451172 130.8747406005859 5.941802978515625 130.856689453125 5.5881667137146 C 130.6671905517578 5.628493309020996 130.8535919189453 5.764985084533691 130.7557067871094 5.841126441955566 C 130.5518341064453 5.805594444274902 130.5227966308594 5.94434118270874 130.402099609375 5.992563247680664 C 130.3236999511719 5.895835876464844 130.3643035888672 5.811516284942627 130.4525756835938 5.739604473114014 C 130.4500427246094 5.691380977630615 130.1866302490234 5.806721687316895 130.0986633300781 5.841126441955566 C 130.0738220214844 5.968593120574951 130.3496551513672 5.699559688568115 130.3005523681641 5.941802978515625 C 130.2283782958984 5.864532947540283 130.0371856689453 5.893297672271729 130.0478820800781 6.043325424194336 C 129.7715301513672 5.933623790740967 129.625732421875 5.950263023376465 129.4418487548828 5.941802978515625 C 129.3823547363281 5.933907032012939 129.3986968994141 5.849867820739746 129.3908081054688 5.790364742279053 C 129.23291015625 5.764139175415039 129.1654968261719 5.928830146789551 129.1886291503906 5.689406394958496 C 129.1274108886719 5.796287536621094 128.9988250732422 5.836050987243652 128.9869842529297 5.992563247680664 C 128.9480743408203 5.95815896987915 128.8262481689453 5.779085159301758 128.8349914550781 5.992563247680664 C 128.7630615234375 5.930522441864014 128.7199096679688 5.799953460693359 128.7845153808594 5.739604473114014 C 128.8299102783203 5.770907402038574 128.8752899169922 5.801082134246826 128.8857421875 5.739604473114014 C 128.9446563720703 5.747782707214355 128.9283447265625 5.83210277557373 128.9362335205078 5.891887187957764 C 128.9872589111328 5.8586106300354 128.9886932373047 5.775136947631836 129.0876617431641 5.790364742279053 C 129.0876617431641 5.706045627593994 129.0879516601562 5.621725082397461 129.0876617431641 5.5376877784729 C 129.2103271484375 5.768651008605957 129.1818542480469 5.359741687774658 129.3908081054688 5.38568639755249 C 129.1860809326172 5.213662624359131 129.8891143798828 4.775706768035889 130.0478820800781 4.476215839385986 C 130.1105041503906 4.532899379730225 130.1516723632812 4.520490646362305 130.1491241455078 4.425736427307129 C 130.2309112548828 4.411636352539062 130.2359771728516 4.473114013671875 130.3005523681641 4.476215839385986 C 130.3575439453125 4.454219341278076 130.2907104492188 4.253149032592773 130.4525756835938 4.374975681304932 C 130.351318359375 4.23679256439209 130.7041168212891 4.215359210968018 130.7557067871094 4.072100639343262 C 130.8050842285156 4.073511123657227 130.7949371337891 4.134142398834229 130.8061981201172 4.172776699066162 C 131.0163116455078 3.976218223571777 131.3019714355469 3.749767065048218 131.5140533447266 3.819140911102295 C 131.4226684570312 3.726642847061157 131.8868560791016 3.45704460144043 131.9184417724609 3.66770339012146 C 132.0117797851562 3.659525156021118 131.949462890625 3.496525764465332 132.0191192626953 3.465504884719849 C 132.1090850830078 3.502447843551636 132.0267333984375 3.557439088821411 132.0191192626953 3.616942167282104 C 132.1079559326172 3.570411443710327 132.1948089599609 3.523034572601318 132.1705627441406 3.364264249801636 C 132.4181671142578 3.261050462722778 132.6826782226562 3.340575933456421 132.8281860351562 3.111586809158325 C 133.1711120605469 3.184344291687012 133.8518829345703 2.704652070999146 134.2430267333984 2.960149765014648 C 134.3217010498047 2.725802183151245 134.6000518798828 2.969737768173218 134.6473999023438 2.757387161254883 C 134.6928253173828 2.788971662521362 134.7376708984375 2.819146633148193 134.7489318847656 2.757387161254883 C 134.8073120117188 2.765847206115723 134.7912292480469 2.850167036056519 134.7988433837891 2.909388542175293 C 134.8437042236328 2.708600044250488 135.0501251220703 2.862011432647705 135.0520782470703 2.707190036773682 C 135.9669036865234 2.640072345733643 136.9686126708984 2.957893371582031 137.3264617919922 2.909388542175293" fill="#2777df" stroke="none" stroke-width="0"/>
</svg>