<svg xmlns="http://www.w3.org/2000/svg" width="15" height="15" viewBox="176.4515533447266 249.2035217285156 14.771072387695312 14.818847656250028" fill="none">
  <path d="M 189.6220550537109 252.3858947753906 C 187.5319976806641 249.3650207519531 183.6768188476562 249.2035217285156 180.4747314453125 250.2591552734375 C 180.4277191162109 250.2559204101562 180.3780364990234 250.26318359375 180.3267974853516 250.2874450683594 C 180.2855224609375 250.3069458007812 180.2472839355469 250.3304443359375 180.2065734863281 250.3507080078125 C 180.1406555175781 250.3742065429688 180.0743103027344 250.3973388671875 180.0089569091797 250.421630859375 C 179.9458770751953 250.4453125 179.8996124267578 250.4835510253906 179.8678894042969 250.5292358398438 C 177.5926208496094 251.8536071777344 176.4515533447266 254.5203247070312 176.8487243652344 257.1290893554688 C 177.2852783203125 259.9965209960938 179.5318756103516 263.1081848144531 182.4960021972656 263.6661071777344 C 183.9444122314453 263.9388427734375 185.7697448730469 264.0223693847656 187.1917877197266 263.5863952636719 C 188.5364074707031 263.17431640625 189.1841735839844 262.0450744628906 189.7283325195312 260.8321228027344 C 190.3543090820312 259.4366760253906 191.2226257324219 258.2026977539062 191.0792846679688 256.6109313964844 C 190.9468078613281 255.1416931152344 190.4651489257812 253.6044006347656 189.6220550537109 252.3858947753906 M 189.0327911376953 261.1006774902344 C 188.7481994628906 261.4550476074219 188.4429626464844 261.7914428710938 188.1170654296875 262.1098937988281 C 188.0316314697266 262.1932067871094 188.1554870605469 262.3207092285156 188.243408203125 262.2505798339844 C 188.0098266601562 262.5013427734375 187.7487487792969 262.7140502929688 187.447509765625 262.863525390625 C 186.0518493652344 263.5573425292969 183.682373046875 263.39697265625 182.2041320800781 263.01318359375 C 180.4577331542969 262.5599975585938 179.1002960205078 261.0152587890625 178.2512817382812 259.4815979003906 C 176.5922241210938 256.4851684570312 177.2677001953125 252.5160827636719 180.4208374023438 250.8816833496094 C 183.5883178710938 249.7786560058594 187.3790893554688 249.9284973144531 189.2990417480469 252.947265625 C 189.1333312988281 253.2383728027344 188.9674224853516 253.529296875 188.8017120361328 253.8203735351562 C 188.7407379150391 253.9273986816406 188.9056854248047 254.0237426757812 188.9666595458984 253.9167175292969 C 189.1159362792969 253.6550598144531 189.2650146484375 253.3931884765625 189.4140930175781 253.1315307617188 C 189.4490966796875 253.1909484863281 189.4819641113281 253.2538452148438 189.5155944824219 253.3153991699219 C 189.3221740722656 253.6923217773438 189.1285400390625 254.0692443847656 188.9349365234375 254.4461669921875 C 188.8787384033203 254.5554809570312 189.0436706542969 254.6521911621094 189.0998840332031 254.5426635742188 C 189.2749633789062 254.2018737792969 189.4498443603516 253.8612670898438 189.6249389648438 253.5204772949219 C 189.6543579101562 253.5789794921875 189.6830444335938 253.6382141113281 189.7113189697266 253.6976623535156 C 189.4444885253906 254.2376403808594 189.1776733398438 254.777587890625 188.9106597900391 255.3175354003906 C 188.8563842773438 255.4274291992188 189.0211334228516 255.5245361328125 189.0758056640625 255.4140625 C 189.32177734375 254.9161376953125 189.5679626464844 254.4182434082031 189.81396484375 253.9205322265625 C 189.85888671875 254.021240234375 189.9022674560547 254.1229553222656 189.9437408447266 254.2259521484375 C 189.9332275390625 254.236083984375 189.9240417480469 254.2485046386719 189.9185180664062 254.2653198242188 C 189.6910552978516 254.9530334472656 189.3871612548828 255.6011657714844 189.0058441162109 256.2164306640625 C 188.9408569335938 256.3213806152344 189.1060028076172 256.4175109863281 189.1707916259766 256.3129577636719 C 189.5297546386719 255.7340087890625 189.8175964355469 255.1223754882812 190.0429382324219 254.4811096191406 C 190.0989379882812 254.6338500976562 190.1499633789062 254.7884521484375 190.1969909667969 254.9442443847656 C 190.1409912109375 254.9310607910156 190.0777282714844 254.9591369628906 190.0855712890625 255.0314025878906 C 190.11767578125 255.3290100097656 189.7566223144531 255.7735595703125 189.6142272949219 256.0317993164062 C 189.4502258300781 256.3297729492188 189.2860412597656 256.6277465820312 189.1218566894531 256.925537109375 C 189.0624237060547 257.0333251953125 189.2273559570312 257.1298828125 189.2868041992188 257.0220642089844 C 189.4980163574219 256.6390380859375 189.7090301513672 256.2560119628906 189.9200439453125 255.8729858398438 C 190.0322265625 255.6694030761719 190.2204895019531 255.4312744140625 190.2667541503906 255.1885070800781 C 190.3191223144531 255.3846130371094 190.364990234375 255.5824584960938 190.4003601074219 255.7814025878906 C 190.3888854980469 255.7890625 190.3783874511719 255.7993774414062 190.3701629638672 255.8146667480469 C 189.9448852539062 256.6103515625 189.5020141601562 257.3959350585938 189.0411987304688 258.1717529296875 C 188.9783172607422 258.27783203125 189.1434631347656 258.3739624023438 189.2063446044922 258.2682495117188 C 189.6348571777344 257.5463562011719 190.0465698242188 256.8150634765625 190.4447021484375 256.0761413574219 C 190.4743347167969 256.3020629882812 190.4911499023438 256.5287475585938 190.4944000244141 256.7546691894531 C 190.1350708007812 257.4924621582031 189.7151489257812 258.1925659179688 189.2298583984375 258.855224609375 C 189.1570281982422 258.9546508789062 189.32275390625 259.0500183105469 189.3948059082031 258.9517822265625 C 189.8030700683594 258.3942260742188 190.1641235351562 257.8097229003906 190.4831237792969 257.199462890625 C 190.4611511230469 257.5148315429688 190.4091491699219 257.8271179199219 190.3235168457031 258.1331481933594 C 189.8877410888672 258.9479370117188 189.3839111328125 259.7195434570312 188.8019104003906 260.4401245117188 C 188.7252502441406 260.5349426269531 188.8598022460938 260.6710205078125 188.9370422363281 260.5752563476562 C 189.2564086914062 260.1798095703125 189.5532531738281 259.7698059082031 189.8300170898438 259.3466491699219 C 189.5870971679688 259.9053344726562 189.3378295898438 260.5263366699219 189.0327911376953 261.1006774902344" fill="#231f20" stroke="#ffffff" stroke-width="1"/>
</svg>