<svg xmlns="http://www.w3.org/2000/svg" width="2" height="1" viewBox="136.6145172119141 76.7452392578125 1.8547515869140057 1.3209304809570312" fill="none">
  <path d="M 138.4692687988281 77.25763702392578 C 138.4407653808594 77.33490753173828 138.1895141601562 77.44292449951172 138.3685913085938 77.56108856201172 C 138.2507171630859 77.73960113525391 138.1429901123047 77.48831939697266 138.0657043457031 77.45984649658203 C 137.9828033447266 77.43756866455078 137.9828033447266 77.73480224609375 138.0657043457031 77.71251678466797 C 138.1680908203125 77.68714141845703 137.858154296875 77.74579620361328 137.7617034912109 77.71251678466797 C 137.7532653808594 77.8707275390625 137.6085815429688 77.77484130859375 137.5595245361328 78.01567840576172 C 137.5287780761719 77.94602966308594 137.3651885986328 78.00862121582031 137.3573150634766 77.91472625732422 C 137.2825927734375 77.93671417236328 137.3773498535156 77.97959136962891 137.3573150634766 78.06616973876953 C 137.2236328125 77.97140502929688 137.1869964599609 78.05713653564453 137.1551055908203 77.91472625732422 C 137.1060485839844 77.91613006591797 137.1164703369141 77.97620391845703 137.1052093505859 78.01567840576172 C 137.0372314453125 78.00579833984375 137.0104522705078 77.80615234375 137.0036773681641 78.01567840576172 C 136.8778991699219 78.00862121582031 136.989013671875 77.84449768066406 137.0036773681641 77.8134765625 C 136.9450378417969 77.85606384277344 136.8683319091797 77.88031768798828 136.7510223388672 77.86396026611328 C 137.0155487060547 77.47789764404297 136.6145172119141 77.82814788818359 136.9029998779297 77.40965270996094 C 136.989013671875 77.39075469970703 136.9980621337891 77.44827270507812 137.0036773681641 77.51004028320312 C 137.0702362060547 77.44997406005859 137.0832061767578 77.49087524414062 137.1551055908203 77.51004028320312 C 137.1551055908203 77.40992736816406 137.0174865722656 77.44658660888672 137.0544586181641 77.30841827392578 C 137.1018218994141 77.27146911621094 137.130859375 77.21591949462891 137.1551055908203 77.15668487548828 C 137.2453765869141 77.33943176269531 137.3525238037109 77.00975799560547 137.4591217041016 77.10563659667969 C 137.5014190673828 76.87327575683594 137.7143402099609 76.85746765136719 137.7617034912109 76.75199890136719 C 138.1060485839844 76.86537170410156 138.0753021240234 76.7452392578125 138.1661224365234 77.05544281005859 C 138.1232604980469 77.06420135498047 138.1190032958984 77.03570556640625 138.1156311035156 77.00496673583984 C 138.0363922119141 77.02668762207031 138.0724945068359 77.16373443603516 137.9131774902344 77.10563659667969 L 137.9131774902344 77.20716857910156 C 138.1100006103516 77.32421112060547 138.1740264892578 77.23057556152344 138.4692687988281 77.25763702392578" fill="#2777df" stroke="none" stroke-width="0"/>
</svg>