<svg xmlns="http://www.w3.org/2000/svg" width="4" height="15" viewBox="53.19599914550781 200.6660003662109 4.357448577880859 15.128768920898494" fill="none">
  <path d="M 53.19599914550781 201.7425994873047 L 55.30105590820312 201.2067260742188 L 57.41070556640625 200.691162109375 L 57.51377105712891 200.6660003662109 L 57.51570892333984 200.7748718261719 C 57.5379638671875 202.0266265869141 57.53602981567383 203.2781372070312 57.54352951049805 204.5299072265625 C 57.55344772338867 205.7816619873047 57.54836654663086 207.0331726074219 57.54110717773438 208.2849426269531 C 57.5382080078125 209.5364532470703 57.52925491333008 210.7882232666016 57.50796508789062 212.0399780273438 C 57.49344635009766 213.2914886474609 57.46659469604492 214.5432434082031 57.4298210144043 215.7947692871094 C 57.39304733276367 214.5432434082031 57.36619186401367 213.2914886474609 57.35167694091797 212.0399780273438 C 57.33038711547852 210.7882232666016 57.32143402099609 209.5364532470703 57.31853103637695 208.2849426269531 C 57.31127166748047 207.0331726074219 57.30619049072266 205.7816619873047 57.31611251831055 204.5299072265625 C 57.32361221313477 203.2781372070312 57.32167816162109 202.0266265869141 57.34393310546875 200.7748718261719 L 57.44893646240234 200.8585815429688 L 55.32476425170898 201.3107452392578 L 53.19599914550781 201.7425994873047 Z" fill="#0d315c" stroke="none" stroke-width="0"/>
</svg>