<svg xmlns="http://www.w3.org/2000/svg" width="103" height="94" viewBox="0.09395482391119003 0 103.16239283233881 93.85707092285156" fill="none">
  <path d="M 68.22535705566406 93.85707092285156 L 68.19728088378906 93.84654235839844 C 57.36856460571289 90.73657989501953 46.05545425415039 87.86530303955078 35.11090087890625 85.07476043701172 C 24.4506721496582 82.36845397949219 13.41485691070557 79.56737518310547 2.831847667694092 76.53814697265625 C 1.634897112846375 73.57209014892578 1.747220993041992 70.03740692138672 3.074045658111572 67.27845001220703 C 4.000717163085938 65.36193084716797 5.411784648895264 64.02105712890625 7.072071075439453 63.52964782714844 C 6.152420043945312 62.90133285522461 4.87473726272583 62.52925872802734 3.649705410003662 62.15719223022461 C 2.656342029571533 61.86234283447266 1.620856761932373 61.55345153808594 0.7994887232780457 61.06203842163086 C -0.3377898335456848 58.10651016235352 -0.2535469233989716 54.98952865600586 1.0030757188797 52.25865173339844 C 2.129823923110962 49.81912231445312 4.070919036865234 47.95173645019531 6.327925682067871 47.14089965820312 C 3.656725645065308 46.82147979736328 1.57873523235321 45.07695007324219 0.6380232572555542 42.47594833374023 C 6.63330602645874 46.91976165771484 14.0466775894165 50.09992980957031 21.20732116699219 53.18883514404297 C 23.976806640625 54.37876129150391 26.84457015991211 55.60379409790039 29.57895088195801 56.8955192565918 L 32.39757537841797 58.39083480834961 C 36.13234710693359 60.36702728271484 39.99698638916016 62.40991973876953 43.94235992431641 64.26676940917969 C 45.06559753417969 64.98985290527344 46.35381317138672 65.58657073974609 47.59639358520508 66.15522003173828 C 48.79685592651367 66.69928741455078 50.03241348266602 67.26441192626953 51.1275749206543 67.94888305664062 C 51.68217468261719 68.10683441162109 52.35962295532227 68.42977142333984 53.07569122314453 68.7843017578125 C 54.23051834106445 69.3424072265625 55.43449020385742 69.93561553955078 56.44540405273438 69.93561553955078 C 57.26325607299805 69.93561553955078 57.845947265625 69.53546142578125 58.21450424194336 68.71759796142578 C 58.08462905883789 68.77376556396484 57.95124816894531 68.77727508544922 57.82488632202148 68.77727508544922 L 57.73011016845703 68.77727508544922 C 57.01053619384766 68.77727508544922 56.88416290283203 69.00193023681641 56.67707061767578 69.38803100585938 C 56.62091064453125 69.48280334472656 56.56474685668945 69.5845947265625 56.48752593994141 69.69692230224609 C 54.76756286621094 68.42977142333984 54.44463729858398 65.80770874023438 54.13925552368164 63.27339935302734 C 54.00586700439453 62.12910842895508 53.8654670715332 60.96023941040039 53.60922241210938 59.92826080322266 C 53.88301467895508 59.72467422485352 54.17787170410156 59.13848114013672 54.45165634155273 58.56633758544922 C 54.80617523193359 57.86079788208008 55.13612747192383 57.183349609375 55.49416351318359 57.08858108520508 C 53.56008529663086 57.53084945678711 52.02615737915039 58.3276481628418 50.54489135742188 59.10337829589844 C 49.2110481262207 59.80190277099609 47.83156967163086 60.51445388793945 46.13267135620117 60.89353942871094 C 40.76921081542969 57.75198745727539 36.07267379760742 53.86980056762695 31.53057861328125 50.10343933105469 C 23.46783447265625 43.43070220947266 15.12077617645264 36.52981185913086 3.0213942527771 33.64448928833008 C 1.389188766479492 36.01382446289062 0.6064320802688599 38.86053085327148 0.7117356657981873 42.30746841430664 C -0.3237493336200714 39.65381240844727 0.09395482391119003 36.43503570556641 1.691059231758118 33.72873306274414 C 3.038944482803345 33.12850189208984 4.074429512023926 32.22640228271484 5.074813365936279 31.3629150390625 C 5.748755931854248 30.76970291137695 6.450780391693115 30.16245269775391 7.230026721954346 29.65348815917969 C 5.524108409881592 29.07431411743164 4.06389856338501 27.47370338439941 3.130207777023315 25.27285766601562 C 1.7191401720047 21.89261245727539 1.729670405387878 17.65589904785156 3.158288717269897 14.2194938659668 C 3.677786350250244 13.86848068237305 4.442992210388184 13.81933975219727 5.180116653442383 13.78072834014893 C 5.650473117828369 13.74562549591064 6.120828628540039 13.72105503082275 6.524492263793945 13.62277221679688 C 7.093131542205811 13.38057422637939 7.503815650939941 12.94180965423584 7.900459289550781 12.51357555389404 C 8.202328681945801 12.18713283538818 8.518240928649902 11.86420345306396 8.897334098815918 11.6079626083374 C 25.08951187133789 7.539736270904541 39.30900192260742 3.745297431945801 52.36313629150391 0 C 60.58734130859375 5.089673042297363 68.48160552978516 10.91296005249023 76.12313842773438 16.53617095947266 C 82.49751281738281 21.23271179199219 89.09302520751953 26.0942268371582 95.69204711914062 30.39060974121094 C 95.43579864501953 31.13124656677246 94.73729705810547 31.3629150390625 94.04931640625 31.59107208251953 C 93.85625457763672 31.65776443481445 93.65266418457031 31.71743583679199 93.45960998535156 31.80167770385742 C 94.18620300292969 33.49355697631836 96.09220123291016 34.10783004760742 97.94905853271484 34.70454406738281 C 99.19164276123047 35.10119247436523 100.4798583984375 35.51187133789062 101.4030075073242 36.28761291503906 C 101.0519943237305 37.21077346801758 100.2692489624023 37.68112564086914 99.50755310058594 38.12691497802734 C 98.37728881835938 38.81489944458008 97.39094543457031 39.40459823608398 97.92097473144531 41.09647750854492 C 91.75720977783203 43.85542678833008 85.37229919433594 46.43536758422852 79.20150756835938 48.92052841186523 C 71.31076049804688 52.09718704223633 63.15674591064453 55.38265991210938 55.45204162597656 58.92085266113281 C 55.49416351318359 58.94191360473633 55.54681396484375 59.01211929321289 55.57489395141602 59.14199829101562 C 55.69072723388672 59.70361328125 55.32216262817383 61.02692413330078 54.80266571044922 61.25509262084961 C 55.78199005126953 61.55696105957031 56.13300704956055 63.28042602539062 56.46646499633789 64.94071197509766 C 56.59634399414062 65.58657073974609 56.72270202636719 66.20435333251953 56.88416290283203 66.73438262939453 C 56.45242691040039 66.23243713378906 55.9820671081543 65.75856781005859 55.28706741333008 65.30226135253906 C 55.3818359375 65.62518310546875 55.69423294067383 65.93057250976562 56.0276985168457 66.23945617675781 C 56.49454498291016 66.68523406982422 57.02458190917969 67.18016815185547 56.67707061767578 68.02962493896484 C 62.17742538452148 65.51637268066406 67.70938110351562 63.02067947387695 73.24483489990234 60.52498245239258 C 81.94992828369141 56.61120223999023 90.95339202880859 52.54998779296875 100.0481109619141 48.80118179321289 C 100.062141418457 48.08512115478516 99.72868347167969 47.71656036376953 99.37767028808594 47.32693481445312 C 99.061767578125 46.96187973022461 98.73532104492188 46.59683227539062 98.71425628662109 45.91235733032227 C 99.25482177734375 46.08786392211914 99.72167205810547 46.27740859985352 100.1920166015625 46.47397613525391 C 101.3503646850586 46.96187973022461 102.5508270263672 47.47085189819336 103.25634765625 48.45368194580078 C 102.3682861328125 49.74189376831055 100.8659591674805 50.36318588256836 99.42681121826172 50.9669303894043 C 98.44046020507812 51.37410354614258 97.41902923583984 51.798828125 96.61520385742188 52.40608215332031 C 97.03290557861328 52.50436401367188 97.54187774658203 52.63774490356445 98.04734039306641 52.77815246582031 C 99.02314758300781 53.04140853881836 100.0481109619141 53.31520080566406 100.4938888549805 54.17517852783203 C 100.0761795043945 56.02852249145508 98.73532104492188 56.9551887512207 97.44008636474609 57.85378265380859 C 96.76263427734375 58.32062530517578 96.07464599609375 58.79800033569336 95.50951385498047 59.39472198486328 C 95.7236328125 60.53902053833008 96.90654754638672 60.72155380249023 98.16316986083984 60.92864608764648 C 99.35660552978516 61.11116790771484 100.5991973876953 61.31124877929688 100.8764953613281 62.4660758972168 C 96.99078369140625 67.75231170654297 92.09066009521484 72.1048583984375 87.34498596191406 76.30648803710938 C 83.866455078125 79.39186859130859 80.26857757568359 82.57554626464844 77.09894561767578 86.09619903564453 C 77.76235198974609 86.2822265625 78.41524505615234 86.42965698242188 79.07164001464844 86.42965698242188 C 80.89338684082031 86.42965698242188 82.38868713378906 85.30641937255859 83.97175598144531 84.11297607421875 C 85.49163818359375 82.96868133544922 87.06417846679688 81.78577423095703 89.01229095458984 81.56464385986328 C 86.44638824462891 85.04316711425781 81.77091217041016 89.07278442382812 74.343505859375 89.07278442382812 L 73.92931365966797 89.062255859375 C 72.90435028076172 89.64142608642578 72.09703063964844 90.50140380859375 71.31076049804688 91.34383392333984 C 70.42971801757812 92.28102874755859 69.51357269287109 93.26034545898438 68.24642181396484 93.84654235839844 L 68.22535705566406 93.85707092285156 Z M 7.440633296966553 64.94071197509766 C 4.920368194580078 66.75543975830078 2.554548263549805 70.91493225097656 3.470689535140991 75.72731018066406 C 12.69879150390625 78.24757385253906 22.49904441833496 80.655517578125 31.98338508605957 82.98974609375 C 43.78089141845703 85.88558959960938 55.97504425048828 88.87972259521484 67.10913848876953 92.18976593017578 C 66.72303009033203 91.6983642578125 66.44222259521484 91.16481781005859 66.19651031494141 90.68392181396484 C 65.750732421875 89.82745361328125 65.36460876464844 89.09735107421875 64.51866912841797 88.87972259521484 C 65.30493927001953 88.50414276123047 65.30493927001953 88.47956848144531 65.20665740966797 88.09346008300781 C 64.72927856445312 87.39845275878906 64.77139282226562 86.75960540771484 64.83106994628906 85.96281433105469 C 64.88021850585938 85.25026702880859 64.92935180664062 84.44293212890625 64.65557861328125 83.30565643310547 C 55.78199005126953 80.90824127197266 46.89436721801758 77.70349884033203 38.29457473754883 74.60758209228516 C 27.47639274597168 70.72188568115234 17.25843620300293 67.04327392578125 7.440633296966553 64.94071197509766 M 68.96599578857422 80.85208892822266 C 68.57285308837891 81.16096496582031 68.22535705566406 81.52602386474609 67.88838958740234 81.88054656982422 C 67.26709747314453 82.52992248535156 66.62123107910156 83.19683837890625 65.66648864746094 83.53732299804688 C 65.74019622802734 84.86064147949219 66.18598937988281 85.85399627685547 66.62825775146484 86.80876159667969 C 67.0389404296875 87.71787261962891 67.46365356445312 88.65507507324219 67.54790496826172 89.91169738769531 C 68.26747894287109 90.06263732910156 68.41841888427734 90.38906860351562 68.6290283203125 90.84539794921875 C 68.72028350830078 91.04547119140625 68.8291015625 91.27362823486328 69.01513671875 91.53688049316406 C 69.19064331054688 90.29079437255859 70.11731719970703 89.6063232421875 71.00187683105469 88.95343017578125 C 71.57752990722656 88.53221893310547 72.17424774169922 88.08292388916016 72.58493804931641 87.49322509765625 C 72.15319061279297 87.1702880859375 71.84780883789062 86.63674926757812 71.54593658447266 86.12076568603516 C 71.19493103027344 85.48544311523438 70.82285308837891 84.83255767822266 70.20858001708984 84.44994354248047 C 69.76982116699219 84.47803497314453 69.35562133789062 84.82203674316406 68.99758911132812 85.14144897460938 C 68.72730255126953 85.36960601806641 68.49915313720703 85.57669830322266 68.28854370117188 85.57669830322266 C 75.66330718994141 78.10365295410156 81.86919403076172 72.38217163085938 87.14139556884766 67.952392578125 C 84.55795288085938 70.66220855712891 81.82707977294922 73.21405792236328 79.09971618652344 75.75890350341797 C 77.31657409667969 77.42620849609375 75.54747772216797 79.08648681640625 73.79241180419922 80.75379943847656 C 74.3856201171875 81.23819732666016 74.79981231689453 81.99989318847656 75.19646453857422 82.74754333496094 C 75.49833679199219 83.30565643310547 75.80371856689453 83.87429809570312 76.18630981445312 84.35166931152344 C 79.32436370849609 80.95387268066406 82.94680023193359 77.61574554443359 86.44638824462891 74.39697265625 C 90.22679138183594 70.91493225097656 94.13003540039062 67.32408142089844 97.45061492919922 63.73674774169922 C 95.79735565185547 64.98634338378906 94.29852294921875 66.43601989746094 92.84885406494141 67.84006500244141 C 91.44830322265625 69.19497680664062 89.99162292480469 70.60253143310547 88.32430267333984 71.74333190917969 C 90.94635772705078 68.85099029541016 93.84571838378906 66.17978668212891 96.65381622314453 63.5858039855957 L 96.89952850341797 63.3541374206543 C 96.14836120605469 62.21686553955078 95.43931579589844 61.02692413330078 94.85663604736328 59.75275802612305 C 93.1893310546875 61.22349548339844 91.47288513183594 62.62403106689453 89.80557250976562 63.99649429321289 C 81.59541320800781 70.69379425048828 74.49092864990234 76.47496032714844 66.24214172363281 84.44293212890625 C 66.56156158447266 83.27055358886719 67.34432220458984 82.49833679199219 68.10250091552734 81.75769805908203 C 68.39033508300781 81.46284484863281 68.69220733642578 81.16448211669922 68.96599578857422 80.85208892822266 M 73.32556915283203 81.66291809082031 C 73.36066436767578 81.97180938720703 73.04476165771484 82.20348358154297 72.76394653320312 82.40004730224609 C 72.39889526367188 82.66330718994141 72.18829345703125 82.831787109375 72.32518005371094 83.07398986816406 L 71.98822021484375 83.1617431640625 C 71.80918884277344 83.1617431640625 71.78112030029297 83.18280029296875 71.77759552001953 83.18982696533203 C 71.84780883789062 83.48117065429688 71.86536407470703 83.70931243896484 71.37042999267578 83.90940093994141 C 71.62316131591797 84.44293212890625 71.98822021484375 84.92382049560547 72.33221435546875 85.38716125488281 C 72.81660461425781 86.02951049804688 73.31153106689453 86.67888641357422 73.44140625 87.70383453369141 C 73.77134704589844 87.74946594238281 74.10832214355469 87.91092681884766 74.41721343994141 88.06537628173828 L 74.69100189208984 88.20227813720703 C 74.83140563964844 87.76350402832031 75.28070831298828 87.5142822265625 75.71245574951172 87.26857757568359 C 76.05293273925781 87.07200622558594 76.41094970703125 86.87194061279297 76.63560485839844 86.56655883789062 C 76.31266784667969 86.59113311767578 76.09505462646484 86.72099304199219 75.87741851806641 86.85790252685547 C 75.55449676513672 87.05796813964844 75.30175018310547 87.20539093017578 75.04201507568359 87.20539093017578 C 74.88756561279297 87.20539093017578 74.74365234375 87.14572143554688 74.61378479003906 87.02637481689453 C 74.84896087646484 86.49283599853516 75.30175018310547 86.24713897705078 75.74754333496094 86.01195526123047 L 76.10557556152344 85.81539154052734 C 75.21752166748047 84.66407775878906 74.30137634277344 83.23193359375 73.32556915283203 81.66291809082031 M 4.127080917358398 49.29611206054688 C 1.231233477592468 51.14594650268555 -0.12718266248703 56.75862884521484 1.438330411911011 60.61624526977539 C 11.54045295715332 63.65600967407227 21.35825729370117 67.26441192626953 30.8636589050293 70.760498046875 C 41.58005142211914 74.70234680175781 52.65447616577148 78.77058410644531 64.24137878417969 82.08763885498047 C 64.16064453125 81.87703704833984 64.07639312744141 81.62430572509766 63.99216461181641 81.37509155273438 C 63.7008171081543 80.49053955078125 63.37086868286133 79.49016571044922 62.88296508789062 79.49366760253906 C 62.74606704711914 79.43048858642578 62.61619186401367 79.36028289794922 62.58810424804688 79.34974670410156 C 62.71798324584961 79.49016571044922 62.80574035644531 79.70777893066406 62.76010513305664 79.98859405517578 C 61.82992553710938 78.45817565917969 61.82992553710938 77.24718475341797 61.88959884643555 76.46794891357422 L 62.10371780395508 76.69259643554688 C 62.2827262878418 77.20858001708984 62.45121765136719 77.68595123291016 62.90753936767578 77.88954162597656 C 62.68639373779297 77.65435791015625 62.72851181030273 77.42269134521484 62.76010513305664 77.24367523193359 C 62.80574035644531 77.047119140625 62.82328796386719 76.89617919921875 62.65129470825195 76.70311737060547 C 62.74606704711914 77.00148773193359 62.73904800415039 77.29281616210938 62.43717575073242 77.29281616210938 C 62.3002815246582 77.047119140625 62.2827262878418 76.81192779541016 62.26518249511719 76.59079742431641 C 62.21954727172852 76.19766998291016 62.17742538452148 75.77645111083984 62.49333953857422 75.67465972900391 C 62.58460235595703 75.81154632568359 62.58460235595703 75.89579010009766 62.58460235595703 75.98355102539062 C 62.58109283447266 76.22223663330078 62.58810424804688 76.38720703125 62.71448135375977 76.41178131103516 C 62.07562637329102 73.14737701416016 62.84434127807617 70.85175323486328 65.05220794677734 69.24762725830078 C 69.28191375732422 67.49607849121094 73.22377014160156 64.82136535644531 77.04277801513672 62.23791885375977 C 78.13442230224609 61.49728775024414 79.23661041259766 60.75314331054688 80.33175659179688 60.04409790039062 C 77.89926147460938 61.17435073852539 75.51236724853516 62.36077499389648 73.20272064208984 63.50507354736328 C 69.37667846679688 65.39351654052734 65.42779541015625 67.36269378662109 60.87517166137695 68.61931610107422 C 60.66807174682617 68.826416015625 60.43640518188477 69.06510162353516 60.21527481079102 69.29325103759766 C 59.55185699462891 70.00231170654297 58.86035919189453 70.73241424560547 57.74063873291016 71.01321411132812 C 50.22196197509766 68.36659240722656 43.26490783691406 65.02495574951172 36.52547836303711 61.80266952514648 C 26.57780265808105 57.03593063354492 16.28262329101562 52.10070037841797 4.127080917358398 49.29611206054688 M 65.03115844726562 79.74990081787109 L 65.25579833984375 79.78501129150391 C 65.42779541015625 79.87275695800781 65.58574676513672 79.91839599609375 65.70860290527344 79.91839599609375 L 65.77880859375 79.91839599609375 L 65.88762664794922 79.97104644775391 L 65.88762664794922 81.44880676269531 C 71.02292633056641 76.57675170898438 76.74091339111328 72.04869842529297 82.26583862304688 67.66807556152344 C 87.20457458496094 63.74376678466797 92.32232666015625 59.69659423828125 97.0855712890625 55.43531036376953 C 96.60818481445312 55.08079147338867 96.21856689453125 54.52268218994141 95.83946990966797 53.99616241455078 C 95.58673858642578 53.64514923095703 95.33400726318359 53.28009796142578 95.05319976806641 52.94663619995117 C 84.61762237548828 58.76290130615234 72.66917419433594 65.63571929931641 63.85526657104492 73.74760437011719 C 63.67624664306641 75.80453491210938 64.29753875732422 78.19491577148438 65.01009368896484 79.67618560791016 C 65.01009368896484 79.69725799560547 65.02062225341797 79.71831512451172 65.03115844726562 79.74990081787109 M 68.30609130859375 69.64778137207031 L 68.16920471191406 69.72500610351562 C 66.48433685302734 69.72500610351562 65.26632690429688 70.3006591796875 64.55026245117188 71.43794250488281 C 64.14659881591797 72.08380126953125 63.93599319458008 72.88060760498047 63.85526657104492 73.73004150390625 C 64.80300140380859 72.04869842529297 67.37590789794922 70.19887542724609 68.30609130859375 69.64778137207031 M 82.57472991943359 57.39044952392578 C 78.41874694824219 59.30697631835938 74.19255828857422 61.18137741088867 70.0751953125 63.01365280151367 C 67.12668609619141 64.32293701171875 64.18170166015625 65.63571929931641 61.25426483154297 66.96604156494141 C 59.68873977661133 66.99061584472656 58.80420303344727 67.52415466308594 58.5163688659668 68.58070373535156 C 60.21527481079102 67.69264221191406 62.11775207519531 66.836181640625 64.07991027832031 65.96216583251953 C 70.18751525878906 63.22426223754883 76.97257995605469 60.18450546264648 82.57472991943359 57.39044952392578 M 3.179349660873413 16.32205390930176 C 2.354471445083618 20.263916015625 2.768665552139282 23.99868202209473 4.37278938293457 26.2802619934082 C 5.380193710327148 27.70186042785645 6.787751197814941 28.52322959899902 8.570891380310059 28.71979331970215 C 20.64219093322754 39.88899612426758 32.50990295410156 50.60538864135742 45.38150787353516 59.14551162719727 L 45.10771942138672 58.66813278198242 C 43.60539245605469 56.03202819824219 42.05039978027344 53.30116271972656 42.18730163574219 49.04338073730469 C 38.0243034362793 45.56836700439453 33.77004241943359 41.91784286499023 29.49471092224121 38.23923492431641 C 20.74398422241211 30.73109436035156 11.69138813018799 22.96319770812988 3.179349660873413 16.32205390930176 M 45.42713928222656 48.93807983398438 C 44.56365203857422 51.56013870239258 45.86590576171875 55.49147033691406 46.91894149780273 58.22234725952148 C 57.44578170776367 53.38539886474609 68.98705291748047 49.25398635864258 80.13870239257812 45.25596618652344 C 85.01425933837891 43.51143646240234 89.88981628417969 41.7598876953125 94.71272277832031 39.95919799804688 C 93.32973480224609 38.43580627441406 92.48379516601562 33.78138732910156 93.19985198974609 31.89645195007324 C 86.45340728759766 34.80634307861328 79.15938568115234 37.31958389282227 72.10404205322266 39.74858856201172 C 63.76049041748047 42.63039779663086 55.14315032958984 45.5964469909668 47.25240325927734 49.09603881835938 C 47.09444808959961 49.12060928344727 46.95053100585938 49.12762832641602 46.83469772338867 49.12762832641602 C 46.51176834106445 49.12762832641602 46.24499893188477 49.07497406005859 45.99227142333984 49.02934265136719 C 45.80973815917969 48.98371124267578 45.62721633911133 48.95212554931641 45.42713928222656 48.93807983398438 M 94.44947052001953 37.38627624511719 C 94.54423522949219 37.88471603393555 94.79696655273438 38.22519683837891 95.05671691894531 38.58673858642578 C 95.36560821533203 39.01146697998047 95.695556640625 39.46427154541016 95.7236328125 40.19788360595703 C 89.06493377685547 43.1042594909668 81.99556732177734 45.65612030029297 75.16487121582031 48.13075256347656 C 67.239013671875 50.9950065612793 59.03937911987305 53.95052719116211 51.49262619018555 57.39044952392578 C 67.82170104980469 51.97082138061523 84.32276916503906 45.65962982177734 96.73104858398438 39.95919799804688 C 96.11326599121094 39.78720092773438 95.79033660888672 39.2115364074707 95.47090911865234 38.65694046020508 C 95.19009399414062 38.1514892578125 94.91281127929688 37.66357803344727 94.44947052001953 37.38627624511719 M 6.689468383789062 47.25673294067383 C 6.735099792480469 47.75516891479492 6.464820384979248 48.08863067626953 6.201561450958252 48.41156387329102 C 6.078707218170166 48.56249618530273 5.95585298538208 48.71694183349609 5.85405969619751 48.89596176147461 C 7.830256462097168 49.34876251220703 9.767843246459961 50.01568603515625 11.64575672149658 50.65452575683594 C 13.13755702972412 51.16349792480469 14.63286781311035 51.67948532104492 16.17732238769531 52.14281463623047 C 15.18395805358887 51.58470916748047 13.83256053924561 50.92831802368164 12.4074535369873 50.24384307861328 C 10.48039722442627 49.31365966796875 8.29359245300293 48.25009918212891 6.689468383789062 47.25673294067383 M 4.660619258880615 14.84780311584473 L 4.597436904907227 14.86184406280518 C 4.323647975921631 14.86184406280518 4.127080917358398 14.91449642181396 4.000717163085938 15.02331066131592 C 17.95694923400879 26.93314361572266 30.54774856567383 37.79695892333984 43.22278594970703 49.18027496337891 C 43.24384689331055 49.28558349609375 43.2508659362793 49.41545486450195 43.2508659362793 49.56288146972656 C 43.37372207641602 49.12060928344727 43.65803909301758 48.86085891723633 43.94235992431641 48.60812759399414 C 44.10733413696289 48.44666290283203 44.28635025024414 48.28168487548828 44.40921020507812 48.08512115478516 C 41.6186637878418 45.72983169555664 38.8000373840332 43.25870895385742 35.98141098022461 40.77354431152344 C 25.8547191619873 31.85432815551758 15.38754367828369 22.63324546813965 4.660619258880615 14.84780311584473 M 7.861847877502441 14.1914119720459 C 7.55646800994873 14.1914119720459 7.254597663879395 14.28969478607178 6.935176372528076 14.48275089263916 C 14.41523933410645 21.18356895446777 22.60083770751953 28.11254501342773 30.51615715026855 34.82389068603516 C 35.65847778320312 39.17643737792969 40.80080032348633 43.53600311279297 45.79570388793945 47.88504409790039 C 52.02615737915039 45.49816131591797 58.23556518554688 43.37454223632812 64.24839782714844 41.31761169433594 C 74.67695617675781 37.75483703613281 84.52635955810547 34.38161849975586 93.96856689453125 30.01152038574219 C 85.428466796875 24.59189605712891 77.08841705322266 18.62820243835449 69.02567291259766 12.85756587982178 C 63.47266387939453 8.891131401062012 57.73712539672852 4.780781745910645 51.98053359985352 0.8529589772224426 C 44.63385391235352 3.243350267410278 36.7220458984375 5.293259620666504 29.0734977722168 7.265946388244629 C 22.33406829833984 9.006965637207031 15.35946178436279 10.8041467666626 8.767458915710449 12.82246494293213 C 14.14847183227539 17.79981422424316 19.94017028808594 22.62271881103516 25.54231643676758 27.28415489196777 C 32.85038375854492 33.36719131469727 40.40415954589844 39.66434860229492 47.09444808959961 46.59683227539062 C 42.55586242675781 43.26923751831055 38.21735382080078 39.60467147827148 34.02276611328125 36.0594482421875 C 31.66747856140137 34.06921768188477 29.31218147277832 32.08248901367188 26.9253044128418 30.12735366821289 C 23.94521522521973 27.29819679260254 20.67378234863281 24.64805603027344 17.52520561218262 22.08917808532715 L 16.99166870117188 21.66094589233398 C 16.1983814239502 20.82202911376953 15.26469039916992 20.10245323181152 14.36960983276367 19.41095924377441 C 13.56930160522461 18.77913665771484 12.7409143447876 18.14380645751953 12.01431941986084 17.41721153259277 C 11.40004730224609 17.12938117980957 10.82087802886963 16.50107002258301 10.2803201675415 15.8832893371582 C 9.52564525604248 15.0443696975708 8.767458915710449 14.1914119720459 7.861847877502441 14.1914119720459 M 8.149678230285645 30.30636787414551 C 7.293209075927734 30.82937622070312 6.513961791992188 31.51735877990723 5.759286880493164 32.18778991699219 C 5.422314643859863 32.47913360595703 5.092363834381104 32.78801727294922 4.737842082977295 33.07585144042969 C 6.356006622314453 33.65502166748047 7.928540229797363 34.399169921875 9.465972900390625 35.12575912475586 C 12.35129165649414 36.48768997192383 15.07865333557129 37.77238845825195 17.85164642333984 38.57620620727539 C 16.39494895935059 37.39329528808594 14.99792098999023 36.15773391723633 13.59738349914551 34.92218017578125 C 11.84934329986572 33.37771987915039 10.03461170196533 31.78061485290527 8.149678230285645 30.30636787414551 M 94.41786956787109 34.60275268554688 C 94.26694488525391 36.48066329956055 95.24275207519531 37.18619918823242 96.27823638916016 37.92683792114258 C 96.45024108886719 38.05671310424805 96.62924957275391 38.18307495117188 96.80123138427734 38.31295013427734 L 97.44008636474609 37.97597885131836 C 98.41239166259766 37.54072189331055 99.40925598144531 37.08440399169922 100.220100402832 36.47364807128906 C 97.84024810791016 36.10859298706055 95.93423461914062 35.45922470092773 94.41786956787109 34.60275268554688 M 75.97921752929688 80.59935760498047 L 75.82126617431641 80.59935760498047 L 75.90901947021484 80.48703002929688 C 78.78730773925781 77.62628936767578 81.80952453613281 74.83222198486328 84.73345947265625 72.11539459228516 C 88.29270172119141 68.81939697265625 91.97483062744141 65.404052734375 95.42176055908203 61.88339996337891 C 92.143310546875 66.58344268798828 85.76192474365234 72.01711273193359 83.178466796875 74.13372039794922 C 82.61334228515625 75.08847808837891 81.90430450439453 75.90983581542969 81.33917236328125 76.51708984375 C 81.132080078125 76.67855072021484 80.90391540527344 76.7452392578125 80.630126953125 76.7452392578125 C 80.54588317871094 76.7452392578125 80.45462036132812 76.7452392578125 80.35984802246094 76.72418212890625 C 79.34542083740234 77.92112731933594 76.73739624023438 80.59935760498047 75.97921752929688 80.59935760498047 M 73.59935760498047 71.560791015625 L 73.51160430908203 71.45899963378906 C 77.06033325195312 68.07173919677734 81.29354095458984 64.74063873291016 85.38984680175781 61.5078239440918 C 88.63670349121094 58.94191360473633 92.00992584228516 56.28826522827148 95.05671691894531 53.59952163696289 C 91.32546234130859 57.51329803466797 86.61838531494141 61.18137741088867 82.062255859375 64.74063873291016 C 79.23310089111328 66.95552062988281 76.29512023925781 69.25113677978516 73.59935760498047 71.560791015625 M 57.11935043334961 67.67860412597656 C 56.98946762084961 67.45044708251953 56.88066101074219 67.16963958740234 56.75780868530273 66.77650451660156 C 57.04914093017578 67.03977203369141 57.16146469116211 67.32408142089844 57.23517608642578 67.62595367431641 L 57.11935043334961 67.67860412597656 Z M 68.24642181396484 59.23325729370117 L 68.18675231933594 59.11040878295898 C 72.37432098388672 57.06049728393555 76.80058288574219 55.14397430419922 81.08644104003906 53.30116271972656 C 86.83953094482422 50.81950759887695 92.78566741943359 48.25009918212891 98.2017822265625 45.30862045288086 C 91.30791473388672 49.73136901855469 81.82005310058594 53.63461685180664 72.64811706542969 57.4115104675293 L 68.24642181396484 59.23325729370117 Z M 60.87517166137695 49.28909301757812 L 60.83305358886719 49.16272735595703 C 63.66922760009766 48.09564971923828 66.51242065429688 47.03559494018555 69.34859466552734 45.96500778198242 C 76.28108215332031 43.37454223632812 83.45577239990234 40.68227767944336 90.40931701660156 37.94087600708008 C 80.30719757080078 42.94630813598633 66.38957214355469 47.53754806518555 60.87517166137695 49.28909301757812 M 90.46196746826172 38.0637321472168 L 90.55323791503906 37.8776969909668 C 90.90424346923828 37.70920944213867 91.24824523925781 37.55125427246094 91.57115936279297 37.38627624511719 C 91.65892028808594 37.52668380737305 91.65190124511719 37.69517135620117 91.46585845947266 37.69517135620117 L 90.87615966796875 37.9057731628418 L 90.46196746826172 38.0637321472168 Z" fill="#337ddc" stroke="#337ddc" stroke-width="1"/>
</svg>