<svg xmlns="http://www.w3.org/2000/svg" width="9" height="9" viewBox="1688.9130859375 23.52062606811523 9.446533203125 8.988803863525387" fill="none">
  <path d="M 1697.848388671875 28.99771118164062 C 1697.77099609375 28.55543518066406 1697.6455078125 28.13986968994141 1697.4541015625 27.73405075073242 C 1697.272216796875 27.34760665893555 1697.008056640625 27.00540161132812 1696.712158203125 26.69815063476562 C 1696.411865234375 26.38619613647461 1696.03173828125 26.17856597900391 1695.680908203125 25.93146896362305 C 1695.50732421875 25.80919647216797 1695.342041015625 25.66939926147461 1695.21533203125 25.49750518798828 C 1695.081298828125 25.31538009643555 1694.97998046875 25.11196517944336 1694.82177734375 24.94737243652344 C 1694.506591796875 24.61893844604492 1694.038818359375 24.4250373840332 1693.623291015625 24.25957870483398 C 1693.1796875 24.08291244506836 1692.72216796875 23.94453811645508 1692.25537109375 23.8436393737793 C 1691.72412109375 23.72878265380859 1691.1806640625 23.65771484375 1690.63916015625 23.61313247680664 C 1690.11279296875 23.56972122192383 1689.55078125 23.52062606811523 1689.0263671875 23.59518814086914 C 1688.9130859375 23.61128997802734 1688.9248046875 23.78754425048828 1689.0263671875 23.81256484985352 C 1689.462158203125 23.92012405395508 1689.92919921875 23.92565536499023 1690.375244140625 23.97154998779297 C 1690.83984375 24.01936721801758 1691.303955078125 24.06752395629883 1691.763916015625 24.15070343017578 C 1692.64013671875 24.30912780761719 1693.587158203125 24.55471801757812 1694.316650390625 25.08999633789062 C 1694.6689453125 25.34830093383789 1694.811767578125 25.78199768066406 1695.132080078125 26.07510375976562 C 1695.434814453125 26.35199737548828 1695.801513671875 26.54145812988281 1696.1201171875 26.79701995849609 C 1696.78076171875 27.3270263671875 1696.961181640625 28.19585037231445 1697.09130859375 28.99278259277344 C 1697.26513671875 30.05746078491211 1697.183837890625 31.18342590332031 1697.60546875 32.19765853881836 C 1697.68115234375 32.37948226928711 1697.847412109375 32.50942993164062 1698.054443359375 32.45250701904297 C 1698.246826171875 32.3996467590332 1698.359619140625 32.19483947753906 1698.309326171875 32.00364685058594 C 1698.048828125 31.01590347290039 1698.0234375 30.00008773803711 1697.848388671875 28.99771118164062" fill="#2e79d9" stroke="none" stroke-width="0"/>
</svg>