<svg xmlns="http://www.w3.org/2000/svg" width="3" height="3" viewBox="31.40372085571289 136.2166748046875 2.9893646240234375 2.630554199218693" fill="none">
  <path d="M 34.10929107666016 136.5739288330078 C 34.32605361938477 136.6133422851562 34.29975509643555 136.8009338378906 34.3117790222168 137.0869750976562 C 34.32799530029297 137.4707794189453 34.38951873779297 137.9584503173828 34.3117790222168 138.3284454345703 C 34.28694915771484 138.4468383789062 34.21123504638672 138.5215301513672 34.24428558349609 138.6657562255859 C 34.140869140625 138.8472290039062 33.76490783691406 138.8148803710938 33.44799041748047 138.8007507324219 C 32.88381958007812 138.7760772705078 32.25276947021484 138.7914428710938 31.82863426208496 138.6792602539062 C 31.75710487365723 138.6161193847656 31.65035247802734 138.5878601074219 31.5989933013916 138.5038452148438 C 31.68526458740234 137.8102722167969 31.40372085571289 137.0744171142578 31.68014335632324 136.5470123291016 C 31.74197578430176 136.5709838867188 31.69938468933105 136.6803894042969 31.70706367492676 136.73583984375 C 31.72529602050781 136.8682861328125 31.79271507263184 137.0022583007812 31.81513404846191 137.1542358398438 C 31.87991523742676 137.5945129394531 31.94547080993652 138.1181182861328 31.80148124694824 138.5442657470703 C 31.92475700378418 138.5878601074219 32.01195907592773 138.4981079101562 32.13896179199219 138.4769287109375 C 32.2509880065918 138.4583129882812 32.37077331542969 138.4925994873047 32.50320434570312 138.5038452148438 C 32.69258117675781 138.5199127197266 32.91508483886719 138.5176544189453 33.09708786010742 138.5176544189453 C 33.3309211730957 138.5176544189453 33.58282470703125 138.5362701416016 33.75846862792969 138.4769287109375 C 33.86770248413086 138.4400787353516 33.92240142822266 138.3309936523438 34.04179763793945 138.3419342041016 C 34.11542129516602 137.9821929931641 34.06266784667969 137.5704650878906 34.04179763793945 137.1946716308594 C 34.02822113037109 136.9509735107422 33.96723937988281 136.7252960205078 34.06879425048828 136.5877532958984 C 33.49717712402344 136.5575714111328 32.84611511230469 136.6232757568359 32.27395248413086 136.5877532958984 C 32.09566879272461 136.5765075683594 31.92972373962402 136.4918518066406 31.76090621948242 136.5470123291016 C 31.83018684387207 136.4491882324219 32.01265716552734 136.3798980712891 32.19280242919922 136.3446807861328 C 32.55789947509766 136.2728424072266 33.07489776611328 136.3087615966797 33.46141052246094 136.2904510498047 C 33.74791717529297 136.27734375 34.39308547973633 136.2166748046875 34.10929107666016 136.5739288330078" fill="#ff4d16" stroke="none" stroke-width="0"/>
</svg>