<svg xmlns="http://www.w3.org/2000/svg" width="1" height="2" viewBox="407.4685668945312 117.7959976196289 1 1.8590011596679972" fill="none">
  <path d="M 408.2599182128906 117.7959976196289 C 408.259033203125 117.9821319580078 408.0348205566406 118.0610961914062 408.2093811035156 118.098876953125 C 408.1640319824219 118.1871490478516 408.0963134765625 118.2934722900391 408.008056640625 118.2004089355469 C 407.9124450683594 118.3755264282227 408.0655822753906 118.3924560546875 408.1087036132812 118.5540313720703 C 408.2626953125 118.5529098510742 408.0348205566406 118.2362213134766 408.1594848632812 118.4026031494141 C 408.2085266113281 118.4009170532227 408.1983947753906 118.3405609130859 408.2093811035156 118.301643371582 C 408.3433532714844 118.3414077758789 408.0963134765625 118.5390930175781 408.3106689453125 118.5540313720703 C 408.2455139160156 118.6552810668945 408.0517883300781 118.494255065918 408.008056640625 118.5540313720703 C 407.8684387207031 118.5080718994141 408.1058654785156 118.3681945800781 407.9062194824219 118.3518371582031 C 407.8289489746094 118.5128707885742 407.8188171386719 118.8476028442383 408.1087036132812 118.8072738647461 C 408.2522888183594 118.9990463256836 408.008056640625 119.2999496459961 408.2093811035156 119.4637908935547 C 408.0948791503906 119.6549987792969 408.1196899414062 119.2895126342773 408.0579223632812 119.261604309082 C 407.8800354003906 119.4533615112305 407.5914916992188 119.0537567138672 407.7040405273438 119.565315246582 C 407.4685668945312 119.3679046630859 407.8083190917969 119.2429962158203 407.6532592773438 119.0094757080078 C 407.6690673828125 118.9406661987305 407.7807312011719 118.9668960571289 407.8557434082031 118.9584350585938 C 407.8512573242188 118.8783493041992 407.8800354003906 118.7658309936523 407.8058471679688 118.7565231323242 C 407.72998046875 118.7782363891602 407.8252868652344 118.8205413818359 407.8058471679688 118.907958984375 L 407.6532592773438 118.907958984375 C 407.6552429199219 118.8583221435547 407.7153015136719 118.8687591552734 407.7550964355469 118.8571929931641 C 407.7144775390625 118.763298034668 407.6707763671875 118.6719131469727 407.6532592773438 118.5540313720703 C 407.8343200683594 118.681510925293 407.6329650878906 118.4573135375977 407.8058471679688 118.4026031494141 C 407.6809387207031 118.0041198730469 407.8763427734375 118.0825271606445 408.2599182128906 117.7959976196289 M 407.8058471679688 119.2108306884766 C 407.8334655761719 119.0650253295898 407.8839416503906 119.2892303466797 407.9570007324219 119.261604309082 C 407.8943786621094 119.0985870361328 408.1205444335938 119.2232513427734 408.0579223632812 119.0593872070312 C 407.8994750976562 119.1169128417969 407.924560546875 119.0447235107422 407.8058471679688 119.1101455688477 C 407.8058471679688 119.0819549560547 407.764404296875 119.0523376464844 407.7550964355469 119.1101455688477 C 407.8495483398438 119.1225662231445 407.7257385253906 119.1933441162109 407.8058471679688 119.2108306884766" fill="#2777df" stroke="none" stroke-width="0"/>
</svg>