<svg xmlns="http://www.w3.org/2000/svg" width="4" height="5" viewBox="44.51439666748047 101.7239532470703 3.9639129638671946 5.031822204589901" fill="none">
  <path d="M 44.61911010742188 102.0548706054688 C 44.51439666748047 102.3146591186523 44.69584655761719 102.5736312866211 44.80695724487305 102.8022537231445 C 44.90367126464844 102.9988861083984 45.00198745727539 103.1947326660156 45.10351181030273 103.3897705078125 C 45.31053161621094 103.7886505126953 45.55753326416016 104.1651229858398 45.80612945556641 104.5392074584961 C 46.06750869750977 104.9332962036133 46.34408187866211 105.3121719360352 46.63823318481445 105.682258605957 C 46.77252578735352 105.8517303466797 46.90201568603516 106.0387802124023 47.05628967285156 106.1890563964844 C 47.13462448120117 106.2649841308594 47.22335052490234 106.3337326049805 47.30807876586914 106.4008636474609 C 47.44876480102539 106.5111846923828 47.59503555297852 106.5671234130859 47.76290512084961 106.6214904785156 C 48.17136383056641 106.7557754516602 48.47830963134766 106.3441162109375 48.40877151489258 105.9764175415039 C 48.31284332275391 105.4728393554688 47.95314788818359 105.1179275512695 47.63900375366211 104.7326431274414 C 47.36323547363281 104.39453125 47.08666229248047 104.0564193725586 46.81488800048828 103.715087890625 C 46.56550216674805 103.4009475708008 46.31849670410156 103.0580596923828 46.03953170776367 102.7127304077148 C 45.91642761230469 102.5600509643555 45.7949333190918 102.4073715209961 45.67663955688477 102.2515029907227 C 45.60948944091797 102.1635971069336 45.54393768310547 102.0748596191406 45.47760391235352 101.9869079589844 C 45.35529708862305 101.8270568847656 45.22581100463867 101.7679214477539 45.02597427368164 101.7455368041992 C 44.82853317260742 101.7239532470703 44.68386077880859 101.8949966430664 44.61911010742188 102.0548706054688" fill="#2473d8" stroke="none" stroke-width="0"/>
</svg>