<svg xmlns="http://www.w3.org/2000/svg" width="33" height="15" viewBox="26.90386581420898 16.95971298217773 33.413909912109375 14.685420989990238" fill="none">
  <path d="M 28.71676254272461 20.29055023193359 C 31.59517669677734 19.85331153869629 34.55352401733398 19.63189315795898 37.43593597412109 20.1530647277832 C 40.28397750854492 20.6678352355957 42.94496917724609 21.81728363037109 45.57638549804688 22.98111724853516 C 48.01196670532227 24.05862808227539 50.4427490234375 25.17769813537598 52.81838226318359 26.38150024414062 C 54.74398040771484 27.35749244689941 56.94696044921875 28.57008743286133 57.79585266113281 30.68193435668945 L 59.18750381469727 29.29109191894531 C 53.86151885986328 28.42460632324219 49.33087539672852 25.17849731445312 44.5284538269043 22.93875885009766 C 42.17839813232422 21.84206008911133 39.73722839355469 20.93001937866211 37.15776062011719 20.57351493835449 C 34.34889221191406 20.18503570556641 31.31061553955078 20.7861385345459 28.62563705444336 19.70543479919434 C 27.60887908935547 19.29697227478027 26.90386581420898 20.9859733581543 27.87905883789062 21.47756385803223 C 30.54644393920898 22.82364654541016 33.36970901489258 22.4207820892334 36.2529182434082 22.6773681640625 C 38.90431213378906 22.91317558288574 41.464599609375 23.88117408752441 43.85381317138672 25.00984001159668 C 48.7249755859375 27.31112861633301 53.27080535888672 30.25588607788086 58.58560562133789 31.47248077392578 C 59.34177780151367 31.64513397216797 60.31777572631836 30.93452453613281 59.97724533081055 30.08083343505859 C 59.02603530883789 27.69400978088379 57.11401748657227 26.10333061218262 54.88147354125977 24.92990303039551 C 52.24925994873047 23.54624938964844 49.45796966552734 22.40080451965332 46.71784210205078 21.24895668029785 C 40.97379684448242 18.83495712280273 34.54233169555664 16.95971298217773 28.47376251220703 19.40968132019043 C 27.92621994018555 19.63109970092773 28.13244247436523 20.3792724609375 28.71676254272461 20.29055023193359" fill="#2473d8" stroke="none" stroke-width="0"/>
</svg>