<svg xmlns="http://www.w3.org/2000/svg" width="5" height="2" viewBox="29.44707107543945 48.82699966430664 5.187034606933597 2.3358612060546875" fill="none">
  <path d="M 29.47997283935547 51.16286087036133 C 29.44707107543945 50.85270309448242 29.52739334106445 50.53359222412109 29.66601943969727 50.24762725830078 C 29.81069564819336 49.96263122558594 30.01948356628418 49.71126556396484 30.26431846618652 49.50465393066406 C 30.75350570678711 49.0916748046875 31.38301467895508 48.83401489257812 32.04058837890625 48.82699966430664 C 32.69840240478516 48.83401489257812 33.32766723632812 49.0916748046875 33.81710052490234 49.50465393066406 C 34.06169128417969 49.71126556396484 34.27072143554688 49.96263122558594 34.41539764404297 50.24762725830078 C 34.55378341674805 50.53359222412109 34.63410568237305 50.85270309448242 34.60120391845703 51.16286087036133 C 34.54338073730469 50.53794860839844 34.14902877807617 50.02843856811523 33.67847061157227 49.67957305908203 C 33.20113754272461 49.33288192749023 32.62001800537109 49.11369323730469 32.04058837890625 49.11344909667969 C 31.46115875244141 49.11369323730469 30.88003730773926 49.33288192749023 30.40270614624023 49.67957305908203 C 29.9321460723877 50.02843856811523 29.53779602050781 50.53794860839844 29.47997283935547 51.16286087036133" fill="#4f1c18" stroke="none" stroke-width="0"/>
</svg>