<svg xmlns="http://www.w3.org/2000/svg" width="1" height="1" viewBox="282.0541381835938 311.1830139160156 1 1" fill="none">
  <path d="M 282.2571411132812 311.1830139160156 C 282.2486877441406 311.3209228515625 282.4274597167969 311.3717041015625 282.5101318359375 311.6376342773438 C 282.4286193847656 311.6523132324219 282.4235229492188 311.5896606445312 282.3587341308594 311.5868530273438 C 282.4534606933594 311.68359375 282.3287963867188 311.6787719726562 282.3587341308594 311.8398132324219 C 282.4207153320312 311.7839660644531 282.4627380371094 311.7958068847656 282.4596252441406 311.8905944824219 C 282.2478637695312 311.950927734375 282.3699645996094 311.6773681640625 282.2571411132812 311.6376342773438 C 282.2013244628906 311.6339416503906 282.2486877441406 311.945556640625 282.3587341308594 311.9413757324219 C 282.3493957519531 311.998291015625 282.3079223632812 311.9692687988281 282.3079223632812 311.9413757324219 C 282.221923828125 311.9230041503906 282.2125854492188 311.9802551269531 282.207275390625 312.0419921875 C 282.1392822265625 312.0093383789062 282.1124877929688 311.9334411621094 282.1060180664062 311.8398132324219 C 282.3242492675781 311.8403930664062 282.0541381835938 311.4052429199219 282.2571411132812 311.1830139160156" fill="#2777df" stroke="none" stroke-width="0"/>
</svg>