<svg xmlns="http://www.w3.org/2000/svg" width="2" height="2" viewBox="485.5489807128906 232.3210144042969 1.9348449707031818 1.920730590820284" fill="none">
  <path d="M 486.220703125 232.4735717773438 C 486.2333984375 232.3266448974609 486.2471923828125 232.3650054931641 486.4733581542969 232.3210144042969 C 486.4451904296875 232.39404296875 486.3941345214844 232.4445037841797 486.3213806152344 232.4735717773438 C 486.3013610839844 232.593994140625 486.5520629882812 232.445068359375 486.4733581542969 232.6247406005859 C 486.56982421875 232.4735717773438 486.6180725097656 232.5877838134766 486.7765502929688 232.5234832763672 C 486.8160400390625 232.7789611816406 487.062744140625 232.8317108154297 487.1809692382812 232.8771209716797 C 487.1275939941406 233.1323547363281 487.2342224121094 233.2287902832031 487.4330444335938 233.2315979003906 C 487.3004760742188 233.4495697021484 487.4158325195312 233.6196441650391 487.4838256835938 233.8883972167969 C 487.2971496582031 233.8607635498047 487.3281555175781 234.0175628662109 487.3320922851562 234.0398406982422 C 487.2559204101562 234.1537475585938 487.1129760742188 233.8500366210938 487.1304626464844 234.1912536621094 C 486.713623046875 234.1283721923828 486.6273193359375 234.10498046875 486.220703125 234.2417449951172 C 486.0140075683594 233.6258392333984 485.5489807128906 232.7826538085938 486.1693420410156 232.3210144042969 C 486.0700988769531 232.4377288818359 486.1825866699219 232.3774108886719 486.220703125 232.4735717773438" fill="#2777df" stroke="none" stroke-width="0"/>
</svg>