<svg xmlns="http://www.w3.org/2000/svg" width="3" height="3" viewBox="78.11409759521484 134.5461730957031 2.97454833984375 2.678649902343807" fill="none">
  <path d="M 80.78406524658203 134.8921813964844 C 81.04396057128906 134.9547119140625 80.98429870605469 135.26318359375 80.99996948242188 135.6206817626953 C 81.01556396484375 135.9762268066406 81.08864593505859 136.5940856933594 80.91905212402344 136.8490295410156 C 81.00531768798828 137.2248229980469 80.39910125732422 137.1456298828125 80.08234405517578 137.1322021484375 C 79.55571746826172 137.1100158691406 78.86858367919922 137.1155242919922 78.50332641601562 137.0110168457031 C 78.46104431152344 136.9542236328125 78.30068206787109 136.9189147949219 78.27375793457031 136.8217926025391 C 78.25902557373047 136.7685852050781 78.28400421142578 136.6832427978516 78.28733825683594 136.60595703125 C 78.31387329101562 136.0028381347656 78.11409759521484 135.3167114257812 78.35491180419922 134.8783874511719 C 78.41209411621094 134.9203491210938 78.38245391845703 135.0264892578125 78.39533233642578 135.0945281982422 C 78.40976715087891 135.170166015625 78.45748138427734 135.2439422607422 78.47624969482422 135.3237762451172 C 78.58990478515625 135.809814453125 78.60014343261719 136.3975830078125 78.48990631103516 136.8759460449219 C 78.60309600830078 136.921875 78.69316864013672 136.8259887695312 78.81372833251953 136.8082885742188 C 78.92179870605469 136.7926177978516 79.03483581542969 136.8234252929688 79.17797088623047 136.8356018066406 C 79.49504852294922 136.8622131347656 79.86589050292969 136.852294921875 80.163330078125 136.8490295410156 C 80.40569305419922 136.8461608886719 80.53044891357422 136.7304077148438 80.71672058105469 136.6733856201172 C 80.84131622314453 136.189208984375 80.6761474609375 135.5697174072266 80.68964385986328 135.0945281982422 C 80.69158935546875 135.0249328613281 80.70352935791016 134.9714050292969 80.74363708496094 134.9188079833984 C 80.17357635498047 134.8834991455078 79.51560974121094 134.9630126953125 78.94872283935547 134.9188079833984 C 78.78711700439453 134.9066162109375 78.62838745117188 134.829345703125 78.43582916259766 134.8783874511719 C 78.69123077392578 134.5843505859375 79.55245971679688 134.6498260498047 80.14983367919922 134.6222076416016 C 80.36628723144531 134.6119689941406 80.78917694091797 134.5461730957031 80.85171508789062 134.7164611816406 C 80.87607574462891 134.7834930419922 80.85683441162109 134.8620147705078 80.78406524658203 134.8921813964844" fill="#ff4d16" stroke="none" stroke-width="0"/>
</svg>