<svg xmlns="http://www.w3.org/2000/svg" width="1" height="2" viewBox="371.8245239257812 16.17200088500977 1 1.5857219696044922" fill="none">
  <path d="M 372.4801940917969 16.77859497070312 C 372.3425903320312 16.78339004516602 372.3787231445312 16.69427299499512 372.2780151367188 16.77859497070312 C 372.30029296875 16.82399940490723 372.3226013183594 16.86883926391602 372.3795166015625 16.88011932373047 C 372.3577880859375 16.84148406982422 372.0780639648438 17.13730812072754 372.2780151367188 17.13251495361328 C 372.2633666992188 17.25010871887207 372.1412658691406 17.25010871887207 372.1262817382812 17.13251495361328 C 372.0473327636719 17.14999961853027 372.1702880859375 17.22134590148926 372.0755310058594 17.23403549194336 C 372.0775451660156 17.28254127502441 372.1375427246094 17.27267265319824 372.1773376464844 17.2839527130127 C 372.0867919921875 17.38519287109375 372.0400085449219 17.41649436950684 371.9241027832031 17.38519287109375 C 371.9311828613281 17.47909927368164 371.9576416015625 17.55411338806152 372.0250549316406 17.58766937255859 C 371.9000854492188 17.75772285461426 371.83837890625 17.44131088256836 371.8733520507812 17.2839527130127 C 372.1635437011719 17.44469451904297 371.8245239257812 16.9336986541748 372.1773376464844 17.03183746337891 C 372.0670776367188 16.92580223083496 372.1832275390625 16.86827278137207 372.2272644042969 16.77859497070312 C 371.9353942871094 16.81976890563965 372.5910339355469 16.61898231506348 372.2780151367188 16.42496109008789 C 372.3899841308594 16.30764579772949 372.3226013183594 16.28987693786621 372.3795166015625 16.17200088500977 C 372.4241027832031 16.20358276367188 372.4692077636719 16.23347663879395 372.4801940917969 16.17200088500977 C 372.4283142089844 16.40183448791504 372.5222473144531 16.50505065917969 372.4801940917969 16.77859497070312" fill="#2777df" stroke="none" stroke-width="0"/>
</svg>