<svg xmlns="http://www.w3.org/2000/svg" width="3" height="3" viewBox="32.56216430664062 93.09989929199219 2.9450607299804688 2.6609573364257812" fill="none">
  <path d="M 35.19092559814453 93.48206329345703 C 35.39783477783203 93.52853393554688 35.38138580322266 93.72481536865234 35.39341354370117 94.00852966308594 C 35.41311645507812 94.47828674316406 35.50722503662109 95.13687133789062 35.31241607666016 95.43897247314453 C 35.42273712158203 95.76085662841797 34.97175979614258 95.72044372558594 34.71845626831055 95.70895385742188 C 34.11595916748047 95.68164825439453 33.30950164794922 95.72400665283203 32.88311386108398 95.58738708496094 C 32.83020401000977 95.51872253417969 32.72694396972656 95.50080871582031 32.68078231811523 95.42547607421875 C 32.74711608886719 94.82173919677734 32.56216430664062 94.18424987792969 32.68078231811523 93.68440246582031 C 32.69645690917969 93.61798095703125 32.70002365112305 93.49681091308594 32.77504348754883 93.46864318847656 C 32.81507873535156 93.50611877441406 32.77985382080078 93.58082580566406 32.78870010375977 93.64397430419922 C 32.8080940246582 93.78347015380859 32.87202072143555 93.92839050292969 32.89653778076172 94.10279083251953 C 32.95394897460938 94.5093994140625 33.01779556274414 95.05355072021484 32.89653778076172 95.46589660644531 C 33.01616668701172 95.49281311035156 33.1177978515625 95.40049743652344 33.26109313964844 95.38505554199219 C 33.37754058837891 95.37256622314453 33.49740600585938 95.41453552246094 33.63883590698242 95.42547607421875 C 34.00113677978516 95.45339965820312 34.59626770019531 95.47776794433594 34.83995056152344 95.38505554199219 C 34.94670104980469 95.34432220458984 35.00891876220703 95.26255798339844 35.12342834472656 95.25006103515625 C 35.19651031494141 94.89636993408203 35.14391326904297 94.48503112792969 35.12342834472656 94.11628723144531 C 35.109619140625 93.8677978515625 35.06183242797852 93.62605285644531 35.1368522644043 93.49555969238281 C 34.51433944702148 93.46220397949219 33.86521911621094 93.561279296875 33.27458953857422 93.49555969238281 C 33.13059997558594 93.47950744628906 32.98699951171875 93.41091918945312 32.84269714355469 93.45513916015625 C 33.07644653320312 93.18803405761719 33.79500579833984 93.23869323730469 34.36763381958008 93.21208190917969 C 34.66523742675781 93.19827270507812 35.49217224121094 93.09989929199219 35.19092559814453 93.48206329345703" fill="#ff4d16" stroke="none" stroke-width="0"/>
</svg>