<svg xmlns="http://www.w3.org/2000/svg" width="3" height="1" viewBox="52.59977340698242 66.84481811523438 2.9636726379394602 1.0911102294921875" fill="none">
  <path d="M 52.68420791625977 67.50141906738281 C 52.87122344970703 67.30400085449219 53.0737190246582 67.17190551757812 53.30815124511719 67.05916595458984 C 53.53919982910156 66.94593811035156 53.80048370361328 66.88763427734375 54.06999969482422 66.86465454101562 C 54.33999633789062 66.84481811523438 54.6240234375 66.90045928955078 54.87007141113281 67.01852416992188 C 55.12289047241211 67.12932586669922 55.32417678833008 67.31343841552734 55.48191833496094 67.51351928710938 C 55.56344604492188 67.6168212890625 55.5457878112793 67.76681518554688 55.44248199462891 67.84835052490234 C 55.36917495727539 67.90641784667969 55.27215957641602 67.91415405273438 55.19280624389648 67.87665557861328 L 55.158935546875 67.86044311523438 C 54.97143936157227 67.77141571044922 54.80861663818359 67.67198181152344 54.63055419921875 67.63302612304688 C 54.45684814453125 67.58609771728516 54.28386688232422 67.55947875976562 54.10169219970703 67.56988525390625 C 53.91903305053711 67.56891632080078 53.73395538330078 67.61463928222656 53.54306793212891 67.66496276855469 C 53.35678100585938 67.71770477294922 53.15501022338867 67.79947662353516 52.9788818359375 67.87278747558594 L 52.94863891601562 67.88536834716797 C 52.82719039916992 67.93592834472656 52.68783569335938 67.87834930419922 52.63727569580078 67.75689697265625 C 52.59977340698242 67.66738891601562 52.62154769897461 67.56770324707031 52.68420791625977 67.50141906738281" fill="#f57b3f" stroke="none" stroke-width="0"/>
</svg>