<svg xmlns="http://www.w3.org/2000/svg" width="2" height="10" viewBox="277.8040161132812 314.22900390625 1.9452819824219318 9.681884765625" fill="none">
  <path d="M 279.2695922851562 314.4315185546875 C 279.2224731445312 314.4856262207031 279.0828857421875 314.4473266601562 279.1181640625 314.5826721191406 C 279.0338134765625 314.5321350097656 279.0631408691406 314.3683166503906 279.0169372558594 314.2797546386719 C 279.089111328125 314.2842712402344 279.1595764160156 314.2882690429688 279.1680603027344 314.22900390625 C 279.258544921875 314.2659606933594 279.1759643554688 314.3209533691406 279.1680603027344 314.3804321289062 C 279.2766418457031 314.4047241210938 279.2648010253906 314.308837890625 279.2695922851562 314.22900390625 C 279.3643493652344 314.3262939453125 279.4444274902344 314.38916015625 279.3197631835938 314.4822387695312 C 279.3995971679688 314.5205993652344 279.3956298828125 314.6427307128906 279.5216979980469 314.6337280273438 C 279.5502014160156 314.7730102539062 279.4402160644531 314.77978515625 279.57275390625 314.8857727050781 C 279.487548828125 315.0324401855469 279.4469604492188 314.7132263183594 279.2695922851562 314.78515625 C 279.2704467773438 314.8347473144531 279.3316040039062 314.8242797851562 279.3705444335938 314.8359069824219 C 279.3860473632812 314.9233093261719 279.1751098632812 315.0126953125 279.2188110351562 314.8359069824219 C 279.1173095703125 314.9552001953125 279.3567199707031 315.09814453125 279.1680603027344 315.2403259277344 C 279.1861267089844 315.3062438964844 279.2574462890625 315.3200378417969 279.2695922851562 315.3917236328125 C 279.31103515625 315.3547668457031 279.3307495117188 315.239990234375 279.2695922851562 315.1387023925781 C 279.3583984375 315.025390625 279.3290710449219 315.4156494140625 279.5216979980469 315.2403259277344 C 279.4799194335938 315.2987060546875 279.4556884765625 315.3756408691406 279.4717712402344 315.49267578125 C 279.3660583496094 315.5141296386719 279.3378601074219 315.4585266113281 279.2695922851562 315.4424743652344 C 279.3987121582031 315.609130859375 279.2619323730469 315.8463134765625 279.2695922851562 316.0487976074219 C 279.3671569824219 316.0281982421875 279.309326171875 315.8525085449219 279.4717712402344 315.8967895507812 L 279.4717712402344 316.0992431640625 L 279.3197631835938 316.0992431640625 C 279.3282470703125 316.158203125 279.4125671386719 316.1421203613281 279.4717712402344 316.1500549316406 C 279.398193359375 316.3626708984375 279.3316040039062 316.5899963378906 279.5216979980469 316.7563781738281 C 279.6584777832031 316.8505249023438 279.4348449707031 316.7160339355469 279.3197631835938 316.7563781738281 C 279.3155212402344 316.9131164550781 279.3428649902344 317.0366516113281 279.4213256835938 317.1100158691406 C 279.3770446777344 317.2591247558594 279.3454284667969 316.9932250976562 279.2188110351562 317.0595092773438 C 279.2608337402344 317.0005187988281 279.2859497070312 316.9241333007812 279.2695922851562 316.8065795898438 C 279.1328125 316.7712707519531 279.3059692382812 317.04541015625 279.1680603027344 317.009033203125 C 279.2574462890625 317.1559753417969 279.4410095214844 317.2087097167969 279.4717712402344 317.4131469726562 C 279.4094848632812 317.3564758300781 279.3677062988281 317.3694458007812 279.3705444335938 317.4638977050781 C 279.265380859375 317.4353942871094 279.2637023925781 317.3854675292969 279.3197631835938 317.3127746582031 C 279.1878051757812 317.2532348632812 279.1029357910156 317.4684143066406 279.1181640625 317.2620239257812 C 279.1277465820312 317.3933715820312 279.1068115234375 317.5087280273438 279.2695922851562 317.5146484375 C 279.4263916015625 317.5662536621094 279.1260375976562 317.5646057128906 279.1181640625 317.6156005859375 C 279.1260375976562 317.6748962402344 279.2100830078125 317.6581726074219 279.2695922851562 317.6664428710938 C 279.1990966796875 317.730712890625 279.2472839355469 317.914306640625 279.1181640625 317.9187927246094 C 279.1302795410156 318.0487976074219 279.2050170898438 317.8496704101562 279.3197631835938 317.9187927246094 C 279.2368469238281 318.1435852050781 279.4213256835938 318.1731567382812 279.3705444335938 318.5256958007812 C 279.267333984375 318.4176940917969 279.1708679199219 318.5400695800781 279.0676879882812 318.5758666992188 C 279.0518493652344 318.6785278320312 279.2137451171875 318.5659790039062 279.2188110351562 318.5256958007812 C 279.3609619140625 318.57470703125 279.1457824707031 318.66015625 279.2695922851562 318.7278747558594 C 279.3186340332031 318.7261352539062 279.3085021972656 318.6660766601562 279.3197631835938 318.6263427734375 C 279.3721923828125 318.6209411621094 279.421875 318.8445739746094 279.4717712402344 318.6773681640625 C 279.5676574707031 318.7188415527344 279.3186340332031 318.8542175292969 279.5216979980469 318.9300537109375 C 279.5044860839844 319.0089721679688 279.432861328125 318.8855285644531 279.4213256835938 318.980224609375 C 279.3522338867188 318.9650268554688 279.3789978027344 318.8542175292969 279.3705444335938 318.7783203125 C 279.2343444824219 318.7433471679688 279.2732238769531 318.8826293945312 279.2188110351562 318.9300537109375 C 279.2174377441406 319.0211181640625 279.472900390625 319.1051635742188 279.4717712402344 319.0309753417969 C 279.4624633789062 319.1556701660156 279.1277465820312 319.6547546386719 279.57275390625 319.5363464355469 C 279.5967102050781 319.7442321777344 279.4368286132812 319.4884338378906 279.4213256835938 319.6883850097656 C 279.4709167480469 319.7560424804688 279.5563659667969 319.7887573242188 279.6235046386719 319.8398132324219 C 279.5736083984375 319.9945983886719 279.4884338378906 319.7814331054688 279.4213256835938 319.7887573242188 C 279.46923828125 319.8922424316406 279.4841918945312 320.0295715332031 279.6235046386719 320.0420532226562 C 279.5794982910156 320.0826416015625 279.5933227539062 320.18017578125 279.5216979980469 320.1937255859375 C 279.5718688964844 320.3355712890625 279.6573486328125 320.1201171875 279.7241821289062 320.2444763183594 C 279.7492980957031 320.4032897949219 279.5690307617188 320.3586730957031 279.6235046386719 320.54736328125 L 279.4717712402344 320.54736328125 C 279.4368286132812 320.4111633300781 279.576171875 320.4500732421875 279.6235046386719 320.3956604003906 C 279.6099853515625 320.2766418457031 279.4884338378906 320.4534301757812 279.4213256835938 320.4466552734375 C 279.4151000976562 320.5369567871094 279.4830322265625 320.5527038574219 279.4717712402344 320.6486206054688 C 279.5123596191406 320.6209716796875 279.5538330078125 320.59619140625 279.6235046386719 320.5978393554688 C 279.5044860839844 320.7021789550781 279.7233581542969 320.8544311523438 279.4717712402344 320.8501892089844 C 279.472900390625 320.8016967773438 279.5340881347656 320.8110656738281 279.57275390625 320.80029296875 C 279.4909362792969 320.6457824707031 279.3102111816406 320.9480590820312 279.4213256835938 321.0025634765625 C 279.4570922851562 320.8324584960938 279.603759765625 320.9283752441406 279.5216979980469 321.2039184570312 C 279.4418640136719 321.1531677246094 279.3186340332031 321.15673828125 279.4213256835938 321.0524291992188 C 279.3798217773438 321.06201171875 279.3705444335938 321.1032409667969 279.3197631835938 321.1032409667969 C 279.3409423828125 321.1999206542969 279.4644775390625 321.1942443847656 279.4213256835938 321.3564147949219 C 279.5287475585938 321.2061462402344 279.5718688964844 321.6497497558594 279.5216979980469 321.7605590820312 C 279.4325561523438 321.7236022949219 279.5151977539062 321.6686096191406 279.5216979980469 321.6082763671875 C 279.4075012207031 321.5947570800781 279.3324584960938 321.6206665039062 279.3197631835938 321.7100830078125 C 279.3298950195312 321.7676086425781 279.3705444335938 321.7377319335938 279.3705444335938 321.7100830078125 C 279.398193359375 321.7850646972656 279.4213256835938 321.7698669433594 279.4717712402344 321.9119873046875 C 279.4263916015625 321.8719787597656 279.3575439453125 321.8578186035156 279.2695922851562 321.8615112304688 C 279.4418640136719 322.1246337890625 279.5078430175781 321.8888244628906 279.3705444335938 322.265625 C 279.4633483886719 322.1570739746094 279.4968566894531 322.1674499511719 279.6235046386719 322.2151184082031 C 279.5690307617188 322.2445068359375 279.4703979492188 322.2662048339844 279.3197631835938 322.3155517578125 C 279.3059692382812 322.5896606445312 279.2774658203125 322.5836791992188 279.3705444335938 322.77099609375 C 279.3298950195312 322.7441711425781 279.2884826660156 322.7179870605469 279.2188110351562 322.7205200195312 C 279.2791748046875 322.7952575683594 279.2627563476562 322.9466552734375 279.4213256835938 322.922119140625 C 279.3927917480469 323.027587890625 279.342041015625 323.0298461914062 279.2695922851562 322.9732055664062 C 279.2368469238281 323.0840148925781 279.4125671386719 323.134521484375 279.2188110351562 323.1246032714844 C 279.3169250488281 323.1917419433594 279.3739013671875 323.4353637695312 279.1680603027344 323.478271484375 C 279.1951293945312 323.4382019042969 279.2213134765625 323.3970336914062 279.2188110351562 323.3270874023438 C 279.143798828125 323.3702697753906 279.1105346679688 323.45458984375 279.1181640625 323.5800476074219 C 279.0287780761719 323.5073547363281 279.0031127929688 323.5335083007812 279.0169372558594 323.6807250976562 C 278.8558654785156 323.6159362792969 278.5442504882812 323.7929992675781 278.5115966796875 323.7819519042969 C 278.4272155761719 323.910888671875 278.3753662109375 323.5845642089844 278.2078247070312 323.6307983398438 C 278.2283935546875 323.7280883789062 278.40380859375 323.6702880859375 278.360107421875 323.8318786621094 C 278.2413940429688 323.8087768554688 278.0081481933594 323.7484130859375 277.8040161132812 323.8318786621094 C 277.8818054199219 322.5834350585938 277.9737548828125 320.9949340820312 278.360107421875 319.9912719726562 C 278.4092102050781 319.99267578125 278.3990478515625 320.0530090332031 278.4103088378906 320.0919494628906 C 278.6054382324219 319.4816589355469 278.5338439941406 319.0171813964844 278.6119079589844 318.3234558105469 C 278.8885803222656 318.370849609375 278.5958862304688 318.0299377441406 278.8143920898438 318.1717224121094 C 278.7704162597656 318.0242614746094 278.7388305664062 318.1147155761719 278.6119079589844 318.1213073730469 C 278.7509460449219 317.8812255859375 278.5673828125 317.6322631835938 278.8143920898438 317.5146484375 C 278.6692199707031 317.4664611816406 278.7817077636719 317.3468322753906 278.7140197753906 317.3127746582031 C 278.7509460449219 317.265380859375 278.8059997558594 317.2357788085938 278.8652038574219 317.211181640625 C 278.6931762695312 317.1596069335938 278.8143920898438 316.7292785644531 278.8143920898438 316.4024658203125 C 278.9340209960938 316.4686889648438 278.9117126464844 316.6756591796875 278.9658508300781 316.8065795898438 C 279.0211181640625 316.7947082519531 279.000244140625 316.7069702148438 279.0676879882812 316.7061157226562 C 279.0580749511719 316.6480712890625 279.0169372558594 316.677978515625 279.0169372558594 316.7061157226562 C 278.6776733398438 316.0273742675781 279.0538330078125 315.8840942382812 278.9658508300781 315.1387023925781 C 279.1491394042969 315.2273559570312 279.1491394042969 315.1054992675781 278.9658508300781 315.0888671875 C 278.97802734375 314.9989013671875 278.9151000976562 314.8352966308594 279.0676879882812 314.8857727050781 C 279.0752868652344 314.9449768066406 279.056396484375 314.9766235351562 279.0169372558594 314.9872741699219 C 279.0538330078125 315.0346984863281 279.1087951660156 315.0643310546875 279.1680603027344 315.0888671875 C 278.9960021972656 314.8818664550781 279.2627563476562 314.5341491699219 279.0169372558594 314.8359069824219 C 278.8386840820312 314.8206481933594 279.1951293945312 314.6990966796875 279.0169372558594 314.6845092773438 C 279.056396484375 314.6461181640625 279.3298950195312 314.5118408203125 279.2695922851562 314.6845092773438 C 279.4644775390625 314.5781555175781 279.1141967773438 314.5215148925781 279.2695922851562 314.4315185546875 M 279.0169372558594 315.79638671875 C 279.1646728515625 315.7484436035156 279.2044067382812 315.719970703125 279.2695922851562 315.6948547363281 C 279.2301025390625 315.6841430664062 279.2100830078125 315.6523132324219 279.2188110351562 315.5939331054688 C 279.0569458007812 315.5496826171875 279.1141967773438 315.7247314453125 279.0169372558594 315.745361328125 C 278.9971618652344 315.6588134765625 279.0919189453125 315.6159362792969 279.0169372558594 315.5939331054688 C 278.9582214355469 315.6689453125 278.9582214355469 315.7210998535156 279.0169372558594 315.79638671875" fill="#2777df" stroke="none" stroke-width="0"/>
</svg>