<svg xmlns="http://www.w3.org/2000/svg" width="10" height="17" viewBox="66.14835357666016 51.5680046081543 9.684768676757812 16.507129669189453" fill="none">
  <path d="M 69.01557922363281 55.02354431152344 C 70.09947204589844 54.41925048828125 72.02188110351562 53.27619552612305 73.12177276611328 54.47439575195312 C 74.23445129394531 55.68539428710938 73.85717010498047 58.02585601806641 73.38795471191406 59.41590881347656 C 72.86598968505859 60.96661376953125 71.87641906738281 62.33268737792969 70.78532409667969 63.53249359130859 C 69.727783203125 64.69553375244141 68.56234741210938 65.89134216308594 66.94209289550781 66.13753509521484 C 66.42411804199219 66.21666717529297 66.14835357666016 66.86171722412109 66.26986694335938 67.32135009765625 C 66.41374206542969 67.86968994140625 66.94289398193359 68.07513427734375 67.45367431640625 67.99359130859375 C 69.5615234375 67.65866851806641 71.18498229980469 65.98805236816406 72.50468444824219 64.42934417724609 C 73.92591094970703 62.75074768066406 75.12411499023438 60.80594635009766 75.49900817871094 58.60778045654297 C 75.83312225341797 56.65179443359375 75.68764495849609 53.81174468994141 73.74925231933594 52.68868255615234 C 71.81404876708984 51.5680046081543 69.64385986328125 52.53280258178711 68.14749145507812 53.89808654785156 C 67.53441619873047 54.45761871337891 68.31776428222656 55.41282653808594 69.01557922363281 55.02354431152344" fill="#2473d8" stroke="none" stroke-width="0"/>
</svg>