<svg xmlns="http://www.w3.org/2000/svg" width="49" height="49" viewBox="0.1342534720897675 0.05541494861245155 48.742871314287186 49.30592843517661" fill="none">
  <path d="M 4.269797801971436 11.43449878692627 C 5.832991123199463 8.909331321716309 7.850722789764404 6.86023998260498 10.14426040649414 5.181366443634033 C 12.55704116821289 3.250734329223633 15.34212398529053 1.787775754928589 18.37146949768066 0.9238359928131104 C 20.84922981262207 0.1105838939547539 23.29573249816895 -0.1207336410880089 25.72715759277344 0.05541494861245155 C 28.75842666625977 0.1828356385231018 31.64301681518555 0.894991397857666 34.27896118164062 2.083224296569824 C 36.42116165161133 2.970407962799072 38.44465255737305 4.152760982513428 40.25979995727539 5.594434261322021 C 40.28118515014648 5.588272571563721 40.30420684814453 5.588553428649902 40.32532119750977 5.605916023254395 C 44.47017669677734 8.992785453796387 48.18271255493164 13.14585876464844 48.6860466003418 18.80137634277344 C 48.87712478637695 20.94736862182617 48.76636505126953 23.26866340637207 48.42012405395508 25.58435821533203 C 48.19970321655273 29.73435401916504 46.95149993896484 33.60822296142578 44.93267440795898 36.94804382324219 C 43.32670593261719 40.45784759521484 41.15133285522461 44.04775619506836 37.76805114746094 45.65718078613281 C 32.7752571105957 48.0319709777832 26.49121284484863 49.36134338378906 21.00960540771484 48.53297424316406 C 18.85315132141113 48.20700073242188 16.4321403503418 47.58222198486328 14.44702339172363 46.64686584472656 C 12.69823265075684 45.82269287109375 11.24030590057373 44.49359130859375 9.858325958251953 43.10427474975586 C 8.277852058410645 41.79983520507812 6.863790512084961 40.29401397705078 5.655072212219238 38.62299728393555 C 2.878208160400391 35.22520446777344 0.6957129240036011 31.17182540893555 0.1342534720897675 26.82972717285156 C -0.5552318096160889 21.49597549438477 1.498686909675598 15.91046619415283 4.269797801971436 11.43449878692627 M 41.58256149291992 40.50350189208984 C 39.11906051635742 42.79119110107422 36.1143913269043 44.38380813598633 32.80075073242188 45.98147201538086 C 31.18930435180664 46.75860214233398 29.51727104187012 47.33773040771484 27.81891441345215 47.69480133056641 C 28.38668060302734 47.62282562255859 28.9536190032959 47.53517532348633 29.51973533630371 47.42959213256836 C 34.22112274169922 46.41890716552734 38.39860153198242 43.94638442993164 41.58256149291992 40.50350189208984 M 47.7613410949707 16.48932838439941 C 47.74159240722656 16.41622924804688 47.71939086914062 16.34425735473633 47.69883728027344 16.271728515625 C 47.72103881835938 16.34369659423828 47.73995208740234 16.41707038879395 47.7613410949707 16.48932838439941 M 47.62672424316406 16.04096794128418 C 47.36190032958984 15.16470813751221 47.02497482299805 14.31616878509521 46.61978530883789 13.49815368652344 C 47.00824356079102 14.31645011901855 47.34572982788086 15.16443061828613 47.62672424316406 16.04096794128418 M 16.01323890686035 46.19122695922852 C 10.97163391113281 43.63665390014648 6.981674194335938 38.95904159545898 3.972061157226562 34.21984481811523 C 3.721493721008301 33.82525634765625 3.467363595962524 33.43151092529297 3.215684413909912 33.0363655090332 C 5.55390739440918 38.99712753295898 10.19551944732666 43.76715087890625 16.01323890686035 46.19122695922852 M 3.048452854156494 31.59413528442383 C 5.86917781829834 36.41455459594727 9.367321968078613 41.10055923461914 13.93957901000977 44.33396530151367 C 18.50826644897461 47.56486129760742 24.90224456787109 48.68139266967773 30.16425704956055 46.68214797973633 C 35.37665557861328 44.7016716003418 41.02933120727539 41.84743881225586 44.06416320800781 36.92115783691406 C 44.27305221557617 36.5820198059082 44.46990203857422 36.23363876342773 44.6601676940918 35.88077926635742 C 46.44103240966797 31.76384353637695 47.17219161987305 27.69113922119141 47.63851547241211 23.08635711669922 C 47.7034912109375 22.44533157348633 47.72433090209961 21.81522941589355 47.72076416015625 21.1921272277832 C 46.9103889465332 14.8196907043457 43.614013671875 9.236703872680664 38.85724639892578 5.493338108062744 C 36.37455368041992 3.857312679290771 33.62265396118164 2.603268623352051 30.90144729614258 1.724205851554871 C 26.07423210144043 0.164352610707283 20.42594337463379 1.39459228515625 15.86410522460938 3.214607715606689 C 14.63345050811768 3.705528020858765 13.34988212585449 4.248535633087158 12.11402034759521 4.885359764099121 C 10.80467987060547 5.756860733032227 9.564709663391113 6.736181259155273 8.428359031677246 7.836478233337402 C 7.412088394165039 8.820556640625 6.470931053161621 9.915535926818848 5.616686344146729 11.08976650238037 C 4.999576091766357 12.24691009521484 4.48253059387207 13.46483039855957 4.01866626739502 14.6446590423584 C 3.064633846282959 17.07098007202148 2.135810375213623 19.54322242736816 1.66345751285553 22.02414321899414 C 1.595735430717468 22.75981903076172 1.55735969543457 23.50417709350586 1.55735969543457 24.25778961181641 C 1.55735969543457 26.21950340270996 1.796150207519531 28.12464904785156 2.23862624168396 29.9488697052002 C 2.461228847503662 30.49887657165527 2.728798151016235 31.04748153686523 3.048452854156494 31.59413528442383 M 39.61582183837891 43.70441436767578 C 40.51941299438477 42.89480972290039 41.30978393554688 41.89812088012695 42.01188659667969 40.83591461181641 C 40.13944625854492 42.87015914916992 37.92870330810547 44.57312774658203 35.47095489501953 45.85293197631836 C 36.9886474609375 45.36088943481445 38.47014999389648 44.7310676574707 39.61582183837891 43.70441436767578 M 1.898671746253967 30.76856231689453 C 1.809856295585632 30.59157371520996 1.722947716712952 30.41374588012695 1.642076730728149 30.23339080810547 C 1.804642081260681 30.74251556396484 1.985583543777466 31.2463207244873 2.18571400642395 31.74368476867676 C 2.08317494392395 31.42163467407227 1.988325595855713 31.09621810913086 1.898671746253967 30.76856231689453" fill="#267de8" stroke="none" stroke-width="0"/>
</svg>