<svg xmlns="http://www.w3.org/2000/svg" width="1" height="1" viewBox="408.4011840820312 110.6250152587891 1 1" fill="none">
  <path d="M 408.6507873535156 110.6250152587891 C 408.797119140625 110.6650466918945 408.7770690917969 110.8697891235352 408.8529357910156 110.9789123535156 C 408.9031677246094 110.7727737426758 408.8746643066406 110.9219589233398 409.0046691894531 110.8779678344727 C 409.1112670898438 110.8336944580078 408.9313659667969 111.1354446411133 409.0554504394531 110.9789123535156 C 409.1301574707031 111.0011978149414 409.035400390625 111.0443496704102 409.0554504394531 111.1306381225586 C 408.9657592773438 111.0201034545898 408.8797302246094 110.984001159668 408.9544372558594 111.1811294555664 C 408.8503723144531 111.1675872802734 408.8529357910156 111.0463333129883 408.8021545410156 110.9789123535156 C 408.7353820800781 111.0294036865234 408.7032165527344 111.1156997680664 408.600830078125 111.1306381225586 C 408.6222534179688 111.2270889282227 408.7094421386719 111.2581176757812 408.7017517089844 111.3833312988281 C 408.5983276367188 111.2950439453125 408.6025085449219 111.4211044311523 408.4993286132812 111.3328399658203 C 408.7178955078125 111.2155303955078 408.4011840820312 111.0305404663086 408.4485473632812 110.7764511108398 L 408.550048828125 110.7764511108398 C 408.5404663085938 110.8201599121094 408.56982421875 110.8246612548828 408.600830078125 110.8274841308594 C 408.5991821289062 110.876838684082 408.5387878417969 110.8664016723633 408.4993286132812 110.8779678344727 C 408.5105895996094 110.9510040283203 408.64990234375 110.8951644897461 408.6507873535156 110.9789123535156 C 408.7652587890625 110.9510040283203 408.5897827148438 110.8999633789062 408.7017517089844 110.8274841308594 C 408.664794921875 110.7801208496094 408.6093444824219 110.7507781982422 408.550048828125 110.7262496948242 C 408.5622253417969 110.6709747314453 408.64990234375 110.6918411254883 408.6507873535156 110.6250152587891" fill="#2777df" stroke="none" stroke-width="0"/>
</svg>