<svg xmlns="http://www.w3.org/2000/svg" width="3" height="2" viewBox="52.38400268554688 166.0119934082031 3.2963294982910085 1.6446533203125" fill="none">
  <path d="M 52.38400268554688 167.5543212890625 C 52.80738067626953 167.2927856445312 53.24237823486328 167.0571441650391 53.68487167358398 166.8369903564453 L 53.73180770874023 166.8135223388672 L 53.78382110595703 166.8415832519531 C 54.09204483032227 167.0080261230469 54.39639663696289 167.1812591552734 54.69663238525391 167.3612518310547 L 54.5190544128418 167.4507751464844 C 54.55655670166016 167.1234436035156 54.60034561157227 166.7968292236328 54.65357208251953 166.47119140625 L 54.66227722167969 166.4181976318359 L 54.70268249511719 166.4005432128906 C 55.02300262451172 166.2597351074219 55.3484001159668 166.1293334960938 55.68033218383789 166.0119934082031 C 55.38735198974609 166.2070007324219 55.08783721923828 166.389404296875 54.78300476074219 166.5609436035156 L 54.83211517333984 166.4902954101562 C 54.814697265625 166.8198089599609 54.787841796875 167.1483459472656 54.75494003295898 167.4761657714844 L 54.73679351806641 167.6566467285156 L 54.57711791992188 167.5659332275391 C 54.27276992797852 167.3931884765625 53.9722900390625 167.2136840820312 53.67567825317383 167.0271453857422 L 53.77462768554688 167.03173828125 C 53.31979370117188 167.2248077392578 52.85794830322266 167.4026184082031 52.38400268554688 167.5543212890625" fill="#89bfff" stroke="none" stroke-width="0"/>
</svg>