<svg xmlns="http://www.w3.org/2000/svg" width="1" height="1" viewBox="383.1900024414062 94.17154693603516 1 1.1880950927734375" fill="none">
  <path d="M 383.4937744140625 94.60133361816406 C 383.6849670410156 94.69862365722656 383.6091003417969 94.74600219726562 383.7966613769531 94.90421295166016 C 383.5600280761719 94.92056274414062 383.7484130859375 95.15265655517578 383.6951293945312 95.35964202880859 C 383.6477355957031 95.27251434326172 383.5084228515625 95.27645111083984 383.5439453125 95.10725402832031 C 383.5084228515625 95.35343933105469 383.2117309570312 94.93296813964844 383.1900024414062 94.70285034179688 C 383.3482666015625 94.76743316650391 383.2168273925781 94.80720520019531 383.2915649414062 94.95497131347656 C 383.3536376953125 94.89913177490234 383.3945007324219 94.91124725341797 383.3922119140625 95.00572967529297 C 383.5022277832031 95.01475524902344 383.5532531738281 94.96456146240234 383.5439453125 94.85429382324219 C 383.4945678710938 94.85569763183594 383.5050659179688 94.91605377197266 383.4937744140625 94.95497131347656 C 383.3448791503906 94.91238403320312 383.5588684082031 94.82805633544922 383.4937744140625 94.70285034179688 C 383.3851623535156 94.67860412597656 383.3973083496094 94.77476501464844 383.3922119140625 94.85429382324219 C 383.3191833496094 94.84272766113281 383.3750305175781 94.70342254638672 383.2915649414062 94.70285034179688 C 383.4069213867188 94.65012359619141 383.4317016601562 94.50630187988281 383.5439453125 94.44989013671875 C 383.5067443847656 94.40251922607422 383.4526062011719 94.37319183349609 383.3922119140625 94.34922790527344 C 383.4060668945312 94.17154693603516 383.5808715820312 94.47528076171875 383.5944213867188 94.29845428466797 C 383.5693359375 94.50798034667969 383.7131652832031 94.62248229980469 383.4937744140625 94.60133361816406" fill="#2777df" stroke="none" stroke-width="0"/>
</svg>