<svg xmlns="http://www.w3.org/2000/svg" width="2" height="1" viewBox="155.7530822753906 255.7926025390625 1.5662841796875 1.023651123046875" fill="none">
  <path d="M 156.4124298095703 255.9510803222656 C 156.502685546875 255.9369659423828 156.5156555175781 255.9990234375 156.4626159667969 256.0018615722656 C 156.4753265380859 256.0650024414062 156.5630187988281 256.0525817871094 156.5638732910156 256.0018615722656 C 156.6324005126953 256.017333984375 156.6056060791016 256.12841796875 156.6140747070312 256.2034606933594 C 156.6746978759766 256.1101379394531 156.9553070068359 255.9759216308594 156.8673095703125 255.9006195068359 C 156.9098968505859 255.8261566162109 156.9942016601562 255.7926025390625 157.1197052001953 255.7996520996094 C 157.1462097167969 255.8399658203125 157.1721649169922 255.8814086914062 157.169921875 255.9510803222656 C 157.3193664550781 256.0238342285156 157.0525970458984 255.9897308349609 157.1197052001953 255.8498687744141 C 157.0788269042969 255.8594512939453 157.0692138671875 255.9006195068359 157.0187377929688 255.9006195068359 C 157.0241088867188 256.0266723632812 157.1134948730469 256.0567932128906 157.0187377929688 256.1532287597656 C 156.9615173339844 256.1437072753906 156.9905548095703 256.102783203125 157.0187377929688 256.102783203125 C 157.0066070556641 255.9725036621094 156.9313049316406 256.1721801757812 156.8165588378906 256.102783203125 C 156.7263031005859 256.1645202636719 156.8061218261719 256.3955078125 156.5638732910156 256.3052673339844 C 156.5672302246094 256.4353332519531 156.7993469238281 256.3780212402344 156.6648254394531 256.5077514648438 C 156.4287719726562 256.2158508300781 156.4888458251953 256.8162536621094 156.2604217529297 256.5077514648438 C 156.2359008789062 256.6657104492188 156.4347076416016 256.6405639648438 156.3112182617188 256.7598571777344 C 156.1834411621094 256.7192077636719 156.1825866699219 256.5517272949219 156.1089782714844 256.4564514160156 C 155.9871673583984 256.4361267089844 155.9987182617188 256.5491638183594 155.8563232421875 256.5077514648438 C 155.7530822753906 256.2294006347656 155.9634857177734 256.3323364257812 155.957275390625 256.1532287597656 C 156.1188812255859 256.1087341308594 156.115478515625 256.2308044433594 156.1591796875 256.3052673339844 C 156.2319488525391 256.1667785644531 156.2866668701172 256.2466125488281 156.4124298095703 256.3052673339844 C 156.4493713378906 256.2418212890625 156.4581146240234 256.0979919433594 156.4124298095703 255.9510803222656" fill="#2777df" stroke="none" stroke-width="0"/>
</svg>