<svg xmlns="http://www.w3.org/2000/svg" width="24" height="26" viewBox="1.494999885559082 5.618000030517578 23.88261890411377 26.071376800537113" fill="none">
  <path d="M 1.494999885559082 16.52216339111328 C 1.544160842895508 16.53316879272461 1.776023864746094 14.59608554840088 1.931577205657959 14.63203907012939 C 2.037236452102661 14.65698719024658 1.966063261032104 16.95653915405273 2.138493061065674 16.99616241455078 L 3.029991388320923 13.13520240783691 C 3.342566251754761 13.20710945129395 2.733559131622314 17.45915222167969 2.781986236572266 17.47015953063965 L 4.128405570983887 11.63836574554443 C 4.316244125366211 11.68165683746338 3.409337043762207 17.94048881530762 3.426213026046753 17.94415855407715 C 3.904613733291626 18.05495452880859 4.972944259643555 10.08282947540283 5.227552890777588 10.14152908325195 C 5.816015243530273 10.27727127075195 4.069705963134766 18.41815567016602 4.069705963134766 18.41815567016602 L 6.325967788696289 8.644691467285156 L 4.713199138641357 18.89215469360352 C 5.160048484802246 18.9948787689209 7.424381732940674 7.147121429443359 7.424381732940674 7.147121429443359 C 7.813999652862549 7.237371921539307 5.356691837310791 19.36615180969238 5.356691837310791 19.36615180969238 L 8.523529052734375 5.650284767150879 C 8.523529052734375 5.650284767150879 5.490967273712158 19.72201919555664 6.000185489654541 19.84015083312988 C 6.579842567443848 19.97369194030762 9.283687591552734 5.618000030517578 9.283687591552734 5.618000030517578 C 9.283687591552734 5.618000030517578 6.042008399963379 20.17473793029785 6.643678188323975 20.31414985656738 C 7.446393489837646 20.49905204772949 9.924245834350586 6.090530872344971 9.927181243896484 6.091998100280762 C 10.45033931732178 6.212332248687744 6.252593040466309 20.54894638061523 7.287905216217041 20.78814697265625 C 7.287905216217041 20.78814697265625 9.958731651306152 6.42365026473999 10.57140731811523 6.565262794494629 C 11.14005851745605 6.696602821350098 7.549851417541504 21.17409706115723 7.931398391723633 21.26214599609375 C 8.85297966003418 21.47493171691895 10.05191707611084 6.769977569580078 11.21490001678467 7.038527488708496 C 11.73365783691406 7.158127784729004 8.574891090393066 21.73541069030762 8.574891090393066 21.73541069030762 C 9.228656768798828 21.88656234741211 11.85839366912842 7.511792182922363 11.85839366912842 7.511792182922363 C 12.11520385742188 7.570491790771484 9.218384742736816 22.20940780639648 9.218384742736816 22.20940780639648 C 10.30505847930908 22.46035003662109 12.50262069702148 7.985056400299072 12.50262069702148 7.985056400299072 C 12.50262069702148 7.985056400299072 9.545634269714355 22.61076736450195 9.86187744140625 22.68340682983398 C 10.17225074768066 22.75531578063965 12.46666717529297 8.301300048828125 13.14611434936523 8.458321571350098 C 13.14611434936523 8.458321571350098 9.334315299987793 22.88738822937012 10.50537014007568 23.15740585327148 C 10.50537014007568 23.15740585327148 13.76612663269043 8.925716400146484 13.7903413772583 8.931585311889648 C 14.06696128845215 8.995421409606934 10.02990436553955 23.37312698364258 11.14959716796875 23.63140296936035 C 11.14959716796875 23.63140296936035 13.50638103485107 9.190597534179688 14.43383312225342 9.404850006103516 L 11.79308986663818 24.10540199279785 C 11.79308986663818 24.10540199279785 15.06338500976562 9.875180244445801 15.07732677459717 9.878114700317383 C 15.07732677459717 9.878114700317383 11.36898612976074 24.33286285400391 12.43658351898193 24.57939910888672 C 12.47620582580566 24.58893966674805 15.72155380249023 10.35137939453125 15.72155380249023 10.35137939453125 C 16.2043571472168 10.46290874481201 13.08007717132568 25.05339813232422 13.08007717132568 25.05339813232422 C 13.08007717132568 25.05339813232422 15.73916435241699 10.68009662628174 16.36504745483398 10.82464408874512 C 17.4238395690918 11.06898021697998 13.7235689163208 25.52739715576172 13.7235689163208 25.52739715576172 C 14.10878562927246 25.61618041992188 17.00927352905273 11.29790878295898 17.00927352905273 11.29790878295898 C 17.17583274841309 11.33679676055908 14.06549453735352 25.93169021606445 14.36706256866455 26.00139427185059 C 15.00028324127197 26.14741134643555 17.65276718139648 11.77117347717285 17.65276718139648 11.77117347717285 C 17.84794235229492 11.81666564941406 15.01128959655762 26.47539329528809 15.01128959655762 26.47539329528809 C 15.72448921203613 26.64048767089844 18.29626083374023 12.24443817138672 18.29626083374023 12.24443817138672 C 18.29626083374023 12.24443817138672 14.75888252258301 26.74247741699219 15.65478229522705 26.94939041137695 L 18.94048690795898 12.71770191192627 C 19.08870315551758 12.75218772888184 15.82868003845215 27.31479644775391 16.29827690124512 27.42338943481445 C 16.99019813537598 27.58334732055664 19.58398056030273 13.19096755981445 19.58398056030273 13.19096755981445 C 19.58398056030273 13.19096755981445 16.3246898651123 27.75504112243652 16.94177055358887 27.89738845825195 C 17.67037773132324 28.06541442871094 20.22747230529785 13.66496467590332 20.22747230529785 13.66496467590332 C 20.55839157104492 13.74127388000488 17.58526229858398 28.37138557434082 17.58526229858398 28.37138557434082 C 18.7078914642334 28.63039779663086 20.31845855712891 14.01055812835693 20.87170028686523 14.13822937011719 C 21.38165092468262 14.25562858581543 18.22949028015137 28.84538459777832 18.22949028015137 28.84538459777832 C 18.31313705444336 28.86446189880371 20.80419731140137 14.44713497161865 21.51519393920898 14.61149501800537 C 21.51519393920898 14.61149501800537 18.3013973236084 29.18731117248535 18.87298393249512 29.31938171386719 C 19.96039009094238 29.57032585144043 22.15942192077637 15.08475971221924 22.15942192077637 15.08475971221924 C 22.15942192077637 15.08475971221924 19.13566398620605 29.70533180236816 19.51647567749023 29.79338455200195 C 20.17537879943848 29.94526672363281 22.80291366577148 15.55802440643311 22.80291366577148 15.55802440643311 C 22.80291366577148 15.55802440643311 19.11365127563477 30.02597808837891 20.15996932983398 30.26738166809082 C 21.19454765319824 30.50584602355957 22.42723655700684 15.79575729370117 23.44640731811523 16.03128814697266 C 23.44640731811523 16.03128814697266 19.73586463928223 30.49484062194824 20.8034610748291 30.74138069152832 C 20.8034610748291 30.74138069152832 23.6555233001709 16.40402984619141 24.09063339233398 16.50455284118652 C 25.02542114257812 16.72027397155762 21.09622573852539 31.13393211364746 21.44695472717285 31.21537780761719 C 22.56297874450684 31.47292137145996 24.73412704467773 16.97781753540039 24.73412704467773 16.97781753540039 C 24.73412704467773 16.97781753540039 21.61498260498047 31.57931327819824 22.09118270874023 31.68937683105469 C 22.09118270874023 31.68937683105469 24.92196464538574 17.34615707397461 25.37761878967285 17.45108222961426" fill="none" stroke="#2777df" stroke-width="0.30000001192092896"/>
</svg>