<svg xmlns="http://www.w3.org/2000/svg" width="1" height="3" viewBox="102.4246597290039 290.9299926757812 1.346290588378892 2.992919921875" fill="none">
  <path d="M 103.0236358642578 291.73876953125 C 103.0693283081055 291.6817932128906 103.1367263793945 291.742431640625 103.2255554199219 291.6383666992188 C 103.2461395263672 291.5159912109375 103.1336212158203 291.5275573730469 103.1756286621094 291.3851623535156 C 103.3502044677734 291.3228149414062 103.2565689086914 291.2261352539062 103.4277572631836 291.2337036132812 C 103.3908157348633 291.1866149902344 103.3360900878906 291.1569519042969 103.2760314941406 291.1321411132812 C 103.3417434692383 291.0331726074219 103.5213775634766 291.2108459472656 103.4785232543945 290.9299926757812 C 103.6674575805664 290.9638061523438 103.4407272338867 291.0980529785156 103.6299591064453 291.1321411132812 C 103.5402679443359 291.2444152832031 103.3967437744141 291.3033752441406 103.3769912719727 291.4858093261719 C 103.4990997314453 291.3890991210938 103.5783462524414 291.2483520507812 103.6807174682617 291.1321411132812 C 103.7709503173828 291.116943359375 103.6832504272461 291.327880859375 103.5791854858398 291.2841796875 C 103.5865173339844 291.3783264160156 103.6127471923828 291.4525146484375 103.6807174682617 291.4858093261719 C 103.6626586914062 291.5656127929688 103.5918884277344 291.4421081542969 103.5791854858398 291.536865234375 C 103.5061492919922 291.5145568847656 103.5842666625977 291.4928588867188 103.5791854858398 291.4359130859375 C 103.4201354980469 291.4993591308594 103.386589050293 291.8871154785156 103.1756286621094 291.73876953125 C 103.184944152832 291.7799377441406 103.2258453369141 291.7898254394531 103.2255554199219 291.8397521972656 C 103.2974624633789 291.8445434570312 103.3691024780273 291.8487548828125 103.3769912719727 291.7898254394531 C 103.455680847168 291.8013610839844 103.3473815917969 291.9773254394531 103.4785232543945 292.042236328125 C 103.4644088745117 292.1620483398438 103.3434295654297 291.9841003417969 103.2760314941406 291.9920043945312 C 103.3961639404297 292.2247009277344 103.1533660888672 292.32421875 103.3270721435547 292.5978088378906 C 103.2856292724609 292.5709838867188 103.2450103759766 292.5455932617188 103.1756286621094 292.5478210449219 C 103.2853393554688 292.6530456542969 103.1497039794922 292.691650390625 103.1756286621094 292.8507080078125 C 103.0405654907227 292.8733215332031 103.0086898803711 292.8938903808594 102.9226760864258 293.05322265625 C 102.9982528686523 292.9773559570312 103.1350326538086 292.9626770019531 103.1756286621094 292.8507080078125 C 103.2548828125 292.8684692382812 103.1308059692383 292.9398498535156 103.2255554199219 292.95166015625 C 103.1502685546875 292.9790344238281 103.1660461425781 293.0021667480469 103.0236358642578 293.05322265625 C 103.060302734375 293.1005859375 103.1152954101562 293.129638671875 103.1756286621094 293.1547241210938 C 103.1293869018555 293.2655944824219 103.0828628540039 293.5100402832031 102.9226760864258 293.3558349609375 C 102.9350814819336 293.2926635742188 103.0236358642578 293.3053588867188 103.0236358642578 293.3558349609375 C 103.0800399780273 293.3109741210938 103.0202560424805 293.2438354492188 103.1248931884766 293.1547241210938 C 102.9367828369141 293.1341552734375 102.9926223754883 293.3583068847656 102.7709655761719 293.3064575195312 C 102.7912750244141 293.4031982421875 103.0022048950195 293.3098449707031 102.9226760864258 293.5083312988281 C 102.6841049194336 293.2286071777344 102.9243774414062 293.6877136230469 102.6694412231445 293.6090087890625 C 102.6922836303711 293.6541442871094 102.7145538330078 293.6992797851562 102.7709655761719 293.709716796875 C 102.8682632446289 293.6891174316406 102.8107223510742 293.5142822265625 102.9734420776367 293.5582885742188 C 102.9604797363281 293.6310119628906 102.7599716186523 293.8792114257812 102.8716430664062 293.760498046875 C 102.9652709960938 293.8935852050781 102.6609802246094 293.9229125976562 102.5687637329102 293.8619995117188 C 102.4246597290039 293.8030700683594 102.650260925293 293.8030700683594 102.6694412231445 293.8619995117188 C 102.6231918334961 293.7734375 102.6714096069336 293.5904235839844 102.5179977416992 293.6090087890625 C 102.9068832397461 293.1744384765625 102.7814025878906 293.0213317871094 102.9226760864258 292.4971008300781 C 103.0177154541016 292.3566284179688 102.8899688720703 292.862548828125 103.1756286621094 292.6993103027344 C 103.0851135253906 292.5032958984375 102.9207077026367 292.3803100585938 102.9226760864258 292.0926818847656 C 103.0947036743164 292.0890197753906 103.0724258422852 292.2796936035156 103.0741119384766 292.4466247558594 C 103.1592788696289 292.3631591796875 103.1367263793945 292.1719360351562 103.2255554199219 292.0926818847656 C 103.0377426147461 292.2015686035156 103.1322174072266 292.1521911621094 102.9734420776367 292.042236328125 C 103.110221862793 291.9530944824219 103.1843872070312 291.822265625 103.0236358642578 291.73876953125" fill="#2777df" stroke="none" stroke-width="0"/>
</svg>