<svg xmlns="http://www.w3.org/2000/svg" width="1" height="1" viewBox="296.3243103027344 267.27099609375 1 1" fill="none">
  <path d="M 296.6443786621094 267.27099609375 C 296.7740783691406 267.2837219238281 296.5747375488281 267.358154296875 296.6443786621094 267.4732055664062 C 296.8826599121094 267.2839660644531 296.6510925292969 267.6694946289062 296.8465576171875 267.5236511230469 C 297.0016784667969 267.6026000976562 296.6220703125 267.563720703125 296.6946105957031 267.7261352539062 C 296.7306823730469 267.8547668457031 296.6381530761719 267.5958557128906 296.6443786621094 267.5236511230469 C 296.510986328125 267.6294250488281 296.61669921875 267.7371520996094 296.5428771972656 267.8268432617188 C 296.3243103027344 267.7543334960938 296.5961303710938 267.7142944335938 296.5428771972656 267.5236511230469 C 296.4678344726562 267.5953063964844 296.4342651367188 267.6849670410156 296.442138671875 267.4732055664062 L 296.5933227539062 267.4732055664062 C 296.5755310058594 267.4156188964844 296.50390625 267.3451538085938 296.4929504394531 267.4224548339844 C 296.3257446289062 267.3480224609375 296.6427001953125 267.3446044921875 296.6443786621094 267.27099609375" fill="#2777df" stroke="none" stroke-width="0"/>
</svg>