<svg xmlns="http://www.w3.org/2000/svg" width="38" height="16" viewBox="27.93087005615234 7.867351531982422 37.986907958984375 15.728561401367188" fill="none">
  <path d="M 29.33050918579102 17.68960571289062 C 34.81636428833008 15.19248104095459 40.99363708496094 16.25639724731445 46.56102752685547 17.85906982421875 C 52.51449203491211 19.57204818725586 58.39041519165039 21.5751838684082 64.31430816650391 23.38968276977539 C 64.40062713623047 22.74941635131836 64.48695373535156 22.10834503173828 64.57408905029297 21.46807861328125 C 61.83476638793945 21.68309783935547 59.41357040405273 20.86777496337891 56.93242645263672 19.77508163452148 C 54.48485565185547 18.69757461547852 52.07805252075195 17.57130432128906 49.54574966430664 16.69922637939453 C 44.44757080078125 14.94308567047119 39.10880279541016 13.9495096206665 33.72606658935547 13.6841287612915 C 33.87074661254883 14.22048568725586 34.01622009277344 14.75603771209717 34.16090393066406 15.29239559173584 C 35.06655120849609 14.74484920501709 35.97220611572266 14.19730377197266 36.8786506652832 13.65055656433105 C 37.75152969360352 13.1229944229126 37.1528205871582 11.89441299438477 36.21200561523438 12.06946754455566 C 34.24243927001953 12.43396472930908 32.3264274597168 12.97271919250488 30.45517730712891 13.68652725219727 C 30.73814010620117 14.17252254486084 31.02030563354492 14.65772151947021 31.30327224731445 15.14291858673096 C 32.96828842163086 13.69931602478027 35.01139831542969 12.76729011535645 37.20877456665039 12.53787994384766 L 36.60207366943359 11.07269477844238 C 35.17366790771484 12.61861419677734 33.71247482299805 14.13415813446045 32.25048446655273 15.64810276031494 C 31.4295654296875 16.49699401855469 32.65175247192383 17.67362213134766 33.53022766113281 16.92783737182617 C 36.7211799621582 14.21808624267578 40.0680046081543 11.34846496582031 44.43878555297852 11.07269477844238 C 44.1494255065918 10.85207748413086 43.8592643737793 10.63145923614502 43.56990432739258 10.41084289550781 C 43.66422653198242 10.30932712554932 43.64663314819336 10.32211685180664 43.51635360717773 10.45001029968262 C 43.39005279541016 10.57870483398438 43.24537658691406 10.68501472473145 43.08230209350586 10.76734733581543 C 42.81851959228516 10.95279312133789 42.54435729980469 11.12385177612305 42.27577590942383 11.30130386352539 C 41.68346405029297 11.69298076629639 41.09275817871094 12.0854549407959 40.50124359130859 12.47712993621826 C 39.32222366333008 13.25808048248291 38.08804702758789 13.9934720993042 36.96897506713867 14.85755634307861 C 37.36944198608398 15.37632656097412 37.7699089050293 15.89589595794678 38.17117691040039 16.41466522216797 C 40.77621841430664 13.66414546966553 43.84487915039062 10.86166858673096 47.64572525024414 10.03275585174561 C 47.33478546142578 9.499597549438477 47.02463912963867 8.966440200805664 46.71450042724609 8.433282852172852 C 44.48994064331055 10.74336624145508 41.95683670043945 12.41238403320312 39.24788665771484 14.08619499206543 L 40.53562164306641 15.75521183013916 C 42.8880729675293 13.71290588378906 45.88639068603516 11.55949115753174 49.09652709960938 11.35006427764893 C 48.85751724243164 10.7729434967041 48.61852264404297 10.19581985473633 48.3795166015625 9.619498252868652 C 47.11576080322266 11.15022945404053 45.48751449584961 12.16618824005127 43.80171203613281 13.17255306243896 C 42.96800231933594 13.67054080963135 42.11830520629883 14.24526405334473 41.13751602172852 14.39074230194092 C 40.7370491027832 14.44989490509033 40.28862380981445 14.4586877822876 39.90094757080078 14.31800365447998 C 39.68431854248047 14.23887062072754 39.44292449951172 14.11816787719727 39.3182258605957 13.91833400726318 C 39.24149703979492 13.79603481292725 39.23109817504883 13.53145599365234 39.16795349121094 13.49948310852051 C 39.24308776855469 12.92076301574707 39.31902694702148 12.342041015625 39.39416122436523 11.76332092285156 C 38.0001220703125 12.33484745025635 36.788330078125 13.11100387573242 35.7284049987793 14.18850994110107 C 35.32633590698242 14.59776973724365 35.35191345214844 15.42588520050049 35.92344665527344 15.69686031341553 C 37.64122009277344 16.51218414306641 39.69711685180664 15.63291454315186 41.43247604370117 15.22125339508057 C 43.58429336547852 14.71127796173096 45.72172546386719 14.25165748596191 47.79679489135742 13.48109817504883 C 48.47303771972656 13.2309045791626 48.45065689086914 12.02870082855225 47.61215209960938 12.11503124237061 C 45.78326416015625 12.30367469787598 44.04711151123047 12.68335819244385 42.2549934387207 13.09261894226074 C 41.37172698974609 13.29485130310059 40.4876594543457 13.49708461761475 39.60438919067383 13.69931602478027 C 38.84901428222656 13.87197399139404 37.64760971069336 14.39154148101807 36.89223480224609 14.03823661804199 L 37.08647918701172 15.54658603668213 C 37.89620590209961 14.71447277069092 38.82343673706055 14.0430326461792 39.89934539794922 13.59540271759033 C 40.57159042358398 13.31643199920654 40.94327926635742 12.25971031188965 40.12636184692383 11.85924053192139 C 38.65158081054688 11.13664150238037 37.080078125 12.25411319732666 37.21836853027344 13.88955783843994 C 37.36544418334961 15.64330577850342 39.09441375732422 16.68244171142578 40.72186279296875 16.74079132080078 C 42.58911895751953 16.80793762207031 44.29490661621094 15.62172222137451 45.77927017211914 14.63613796234131 C 47.37474822998047 13.57701683044434 48.86391830444336 12.42836952209473 49.97179412841797 10.84728145599365 C 50.54252624511719 10.03355693817139 49.60170364379883 9.246208190917969 48.82714462280273 9.358116149902344 C 45.10463333129883 9.897668838500977 42.28616714477539 12.05827713012695 39.24788665771484 14.08619499206543 C 38.09444427490234 14.85595798492432 39.08561706542969 16.48420715332031 40.32059860229492 15.92147350311279 C 43.29332733154297 14.56739521026611 45.93354415893555 12.22533893585205 48.06777191162109 9.786559104919434 C 48.65448379516602 9.11591625213623 48.1069450378418 7.867351531982422 47.13655090332031 8.18708610534668 C 43.05273056030273 9.533170700073242 40.00405502319336 12.31886100769043 36.76834106445312 15.01262760162354 C 35.89227294921875 15.74082279205322 37.0201301574707 17.13886642456055 37.97054672241211 16.56973648071289 C 39.73388290405273 15.51461315155029 41.38371658325195 14.21728706359863 43.06552124023438 13.03586673736572 C 44.20857238769531 12.23333072662354 45.93514633178711 11.35805892944336 45.21653747558594 9.716217994689941 C 45.10302734375 9.455634117126465 44.71934509277344 9.243010520935059 44.43878555297852 9.270188331604004 C 39.72828674316406 9.730607032775879 35.78914642333984 12.73691463470459 32.25048446655273 15.64810276031494 L 33.53022766113281 16.92783737182617 C 35.01859283447266 15.43387889862061 36.43422317504883 13.87916660308838 37.81547927856445 12.28608798980713 C 38.24231719970703 11.79449653625488 38.01451110839844 10.72178554534912 37.20877456665039 10.82170295715332 C 34.53739166259766 11.15103054046631 32.12419128417969 12.16139125823975 30.07069396972656 13.91114139556885 C 29.42482757568359 14.46108531951904 30.11226272583008 15.67687511444092 30.91879272460938 15.36673450469971 C 32.78764343261719 14.64893054962158 34.70365524291992 14.1069803237915 36.67162322998047 13.73768424987793 C 36.44940948486328 13.2109203338623 36.22719573974609 12.68335819244385 36.00497436523438 12.15659523010254 C 35.10012054443359 12.70494174957275 34.19527053833008 13.2532844543457 33.29042434692383 13.80243110656738 C 32.53904724121094 14.25725269317627 32.88036727905273 15.36913204193115 33.72606658935547 15.40989971160889 C 39.2047233581543 15.67367839813232 44.61703109741211 16.73919677734375 49.78315353393555 18.58806228637695 C 52.32664489746094 19.49851226806641 54.72865295410156 20.69751358032227 57.20659637451172 21.7606315612793 C 59.50309371948242 22.74461364746094 62.03859329223633 23.59591293334961 64.57408905029297 23.42485046386719 C 65.66278839111328 23.35131454467773 65.91777801513672 21.84376525878906 64.8338623046875 21.50244903564453 C 58.57346725463867 19.53048324584961 52.303466796875 17.38825988769531 45.94073867797852 15.76879978179932 C 40.22547149658203 14.31400680541992 34.07297134399414 13.7216968536377 28.67824935913086 16.57373428344727 C 27.93087005615234 16.96860885620117 28.58712387084961 18.02772521972656 29.33050918579102 17.68960571289062" fill="#2473d8" stroke="none" stroke-width="0"/>
</svg>