<svg xmlns="http://www.w3.org/2000/svg" width="1" height="1" viewBox="93.30574035644531 228.572265625 1 1" fill="none">
  <path d="M 93.66190338134766 228.7163543701172 C 93.50652313232422 228.7950134277344 93.74961853027344 228.8917541503906 93.81390380859375 228.9179840087891 C 93.74453735351562 228.9828338623047 93.72563934326172 229.2202911376953 93.86410522460938 229.2217407226562 C 93.80741882324219 229.2321319580078 93.59056091308594 229.2420196533203 93.56094360351562 229.1199035644531 C 93.52005004882812 229.1294860839844 93.51046752929688 229.1709289550781 93.459716796875 229.1709289550781 C 93.46055603027344 229.2716217041016 93.59789276123047 229.2355346679688 93.56094360351562 229.3728485107422 L 93.40922546386719 229.3728485107422 C 93.56208038330078 229.2251129150391 93.30574035644531 229.2620239257812 93.35848236083984 229.0700225830078 C 93.50454711914062 229.1466979980469 93.51696014404297 229.0680236816406 93.71266937255859 229.1199035644531 C 93.58436584472656 229.0296478271484 93.58999633789062 228.8046569824219 93.51046752929688 228.6656036376953 C 93.617919921875 228.572265625 93.69886016845703 228.7372436523438 93.81390380859375 228.7163543701172 C 93.80234527587891 228.7800903320312 93.66275787353516 228.7817687988281 93.66190338134766 228.7163543701172" fill="#2777df" stroke="none" stroke-width="0"/>
</svg>