<svg xmlns="http://www.w3.org/2000/svg" width="3" height="3" viewBox="7.306347846984863 8.780000686645508 3.0728597640991175 3.309794425964352" fill="none">
  <path d="M 7.928950309753418 11.74823093414307 C 8.038445472717285 11.83339405059814 8.147027969360352 11.90608692169189 8.273554801940918 11.96417999267578 C 8.350811004638672 12.0000696182251 8.428065299987793 12.02774715423584 8.509577751159668 12.05086326599121 C 8.589570999145508 12.07367420196533 8.675646781921387 12.07823753356934 8.75837516784668 12.08675384521484 C 8.804910659790039 12.08979511260986 8.850837707519531 12.08675384521484 8.896764755249023 12.07762908935547 C 8.979190826416016 12.06698322296143 9.036371231079102 12.05785846710205 9.111193656921387 12.02774715423584 C 9.219776153564453 11.98486137390137 9.313758850097656 11.93498134613037 9.407134056091309 11.86502647399902 C 9.496859550476074 11.79811191558838 9.580197334289551 11.72846126556396 9.658364295959473 11.64846897125244 C 9.747177124023438 11.55691814422607 9.82260799407959 11.44894409179688 9.893170356750488 11.34279441833496 C 9.960084915161133 11.2427282333374 10.01665782928467 11.13201713562012 10.06471347808838 11.02130508422852 C 10.15656757354736 10.80961322784424 10.24325180053711 10.6024866104126 10.27609920501709 10.37224197387695 C 10.2900915145874 10.27430534362793 10.3004322052002 10.17940902709961 10.301344871521 10.08268737792969 C 10.37920761108398 9.953118324279785 10.36126327514648 9.780967712402344 10.25176811218262 9.669343948364258 C 10.24538040161133 9.662956237792969 10.23899364471436 9.656265258789062 10.23260593414307 9.649574279785156 C 10.21770286560059 9.606992721557617 10.20067024230957 9.564714431762695 10.18059635162354 9.521829605102539 C 10.12645626068115 9.405947685241699 10.04980945587158 9.307097434997559 9.965559005737305 9.211593627929688 C 9.874009132385254 9.108181953430176 9.749001502990723 9.030622482299805 9.633120536804199 8.958234786987305 C 9.531533241271973 8.894969940185547 9.409263610839844 8.877938270568848 9.293989181518555 8.900444984436035 C 9.181756019592285 8.853300094604492 9.064048767089844 8.819235801696777 8.946950912475586 8.798857688903809 C 8.874258041381836 8.78638744354248 8.801260948181152 8.780000686645508 8.728872299194336 8.780000686645508 C 8.557330131530762 8.780000686645508 8.38822078704834 8.815281867980957 8.227627754211426 8.88341236114502 C 7.808504581451416 9.061646461486816 7.549366474151611 9.464648246765137 7.407326698303223 9.880730628967285 C 7.334938049316406 10.09120464324951 7.306347846984863 10.32083988189697 7.307868480682373 10.54195880889893 C 7.309693336486816 10.79531955718994 7.390294075012207 11.036208152771 7.502222537994385 11.25945663452148 C 7.599855899810791 11.45198631286621 7.760447978973389 11.61653327941895 7.928950309753418 11.74823093414307 M 8.836238861083984 11.23451614379883 C 8.840497016906738 11.23269176483154 8.844754219055176 11.23086643218994 8.849013328552246 11.22934627532959 L 8.847492218017578 11.23025798797607 C 8.843842506408691 11.23177909851074 8.839888572692871 11.23330020904541 8.836238861083984 11.23451614379883 M 8.847796440124512 11.23025798797607 L 8.84931755065918 11.22904205322266 L 8.88642406463623 11.21352958679199 C 8.873649597167969 11.21961307525635 8.860875129699707 11.22539234161377 8.847796440124512 11.23025798797607 M 8.087413787841797 10.23476505279541 C 8.1090087890625 10.1173620223999 8.139423370361328 10.00452041625977 8.181093215942383 9.893199920654297 C 8.220328330993652 9.81320858001709 8.264735221862793 9.737777709960938 8.315832138061523 9.665085792541504 C 8.34868049621582 9.627676010131836 8.382746696472168 9.593001365661621 8.419244766235352 9.559848785400391 C 8.453005790710449 9.53795051574707 8.487375259399414 9.517875671386719 8.522960662841797 9.499930381774902 C 8.564326286315918 9.486547470092773 8.605082511901855 9.475902557373047 8.647055625915527 9.467386245727539 C 8.703323364257812 9.46434497833252 8.75837516784668 9.463735580444336 8.814338684082031 9.467386245727539 C 8.844146728515625 9.473165512084961 8.873649597167969 9.480159759521484 8.902544021606445 9.487765312194824 C 8.920184135437012 9.579618453979492 8.963983535766602 9.665694236755371 9.036675453186035 9.731390953063965 C 9.106934547424316 9.794654846191406 9.173240661621094 9.860960006713867 9.234679222106934 9.932132720947266 C 9.253232955932617 9.960114479064941 9.270265579223633 9.988096237182617 9.286081314086914 10.01759910583496 C 9.293989181518555 10.04436492919922 9.300375938415527 10.07082557678223 9.306459426879883 10.09759140014648 C 9.310717582702637 10.1727180480957 9.309501647949219 10.24662590026855 9.304025650024414 10.32175159454346 C 9.270265579223633 10.48964500427246 9.217342376708984 10.65023803710938 9.157424926757812 10.81052684783936 C 9.11453914642334 10.90268516540527 9.066786766052246 10.99058532714844 9.00960636138916 11.07483577728271 C 8.971282958984375 11.11833000183105 8.930830001831055 11.15847873687744 8.887335777282715 11.19680118560791 C 8.863004684448242 11.21292114257812 8.838367462158203 11.22782421112061 8.812515258789062 11.24211978912354 C 8.793048858642578 11.2427282333374 8.77358341217041 11.2427282333374 8.753813743591309 11.24181652069092 C 8.716097831726074 11.23299598693848 8.679599761962891 11.22265434265137 8.643101692199707 11.21048736572266 C 8.569496154785156 11.17338180541992 8.500452995300293 11.13080024719238 8.433236122131348 11.08304786682129 C 8.368146896362305 11.02647495269775 8.307925224304199 10.96747016906738 8.251656532287598 10.90238094329834 C 8.207858085632324 10.83790016174316 8.169534683227539 10.7715950012207 8.135773658752441 10.70164012908936 C 8.113875389099121 10.63746356964111 8.096841812133789 10.57328701019287 8.084372520446777 10.50698184967041 C 8.078289031982422 10.41573619842529 8.079201698303223 10.32570648193359 8.087413787841797 10.23476505279541" fill="#2574da" stroke="none" stroke-width="0"/>
</svg>