<svg xmlns="http://www.w3.org/2000/svg" width="16" height="8" viewBox="7.734984397888184 0.003105765441432595 16.465466499328617 7.947224491974338" fill="none">
  <path d="M 7.910057067871094 7.629486560821533 C 8.049426078796387 5.820892810821533 9.526340484619141 3.797336101531982 10.81341075897217 2.590785980224609 C 12.08225727081299 1.400733709335327 14.06026077270508 0.9429836273193359 15.75164604187012 0.9309180378913879 C 17.83996200561523 0.9161440134048462 20.08636283874512 1.589595794677734 21.72554588317871 2.893162250518799 C 22.4758243560791 3.489788770675659 22.97543525695801 4.351117610931396 23.36546897888184 5.209491729736328 C 23.74984169006348 6.054569244384766 23.76338577270508 6.982628345489502 24.10392761230469 7.825489521026611 C 24.15415954589844 7.950330257415771 24.2004508972168 7.653617382049561 24.19995880126953 7.629486560821533 C 24.15366744995117 5.770906925201416 23.4944953918457 3.951971292495728 22.30099678039551 2.523071527481079 C 20.79010009765625 0.7137390971183777 17.97465515136719 0.08411698043346405 15.7452449798584 0.003105765441432595 C 11.74146842956543 -0.142172709107399 7.734984397888184 3.492005109786987 7.774135589599609 7.578022956848145 C 7.775612831115723 7.74226188659668 7.892820358276367 7.857746124267578 7.910057067871094 7.629486560821533" fill="#2777df" stroke="none" stroke-width="0"/>
</svg>