<svg xmlns="http://www.w3.org/2000/svg" width="1" height="1" viewBox="44.44518661499023 258.1310119628906 1 1" fill="none">
  <path d="M 44.59915542602539 258.1310119628906 C 44.70547866821289 258.1310119628906 44.78979873657227 258.406494140625 44.85211944580078 258.28271484375 C 44.86904144287109 258.3572082519531 44.97027969360352 258.4784545898438 44.90316009521484 258.6363830566406 C 44.83463668823242 258.6453552246094 44.80135726928711 258.3800354003906 44.75172424316406 258.5359802246094 C 44.6834831237793 258.5021362304688 44.6569709777832 258.4274291992188 44.64992141723633 258.3334655761719 C 44.71647644042969 258.3509521484375 44.73000717163086 258.4223327636719 44.80135726928711 258.4344177246094 C 44.80220413208008 258.2999267578125 44.64202499389648 258.324462890625 44.64992141723633 258.1823425292969 C 44.60508346557617 258.2046203613281 44.55967712402344 258.226318359375 44.54924392700195 258.28271484375 C 44.48748397827148 258.2607421875 44.44518661499023 258.2184448242188 44.44772720336914 258.1310119628906 C 44.49679565429688 258.1324462890625 44.48748397827148 258.193603515625 44.49848937988281 258.2322692871094 C 44.54389190673828 258.2099609375 44.5887336730957 258.1879577636719 44.59915542602539 258.1310119628906" fill="#2777df" stroke="none" stroke-width="0"/>
</svg>