<svg xmlns="http://www.w3.org/2000/svg" width="13" height="11" viewBox="0.02112657763063908 0.005242988932877779 12.7245857026428 10.626779868733141" fill="none">
  <path d="M 3.794577836990356 0.1414718180894852 C 3.825064897537231 0.156857967376709 3.845039844512939 0.1667786240577698 3.869789361953735 0.1792251914739609 C 3.868839025497437 0.1657421141862869 3.871526718139648 0.1535903215408325 3.866937875747681 0.1459531038999557 C 3.787399053573608 0.01404034253209829 3.66753888130188 -0.0133870504796505 3.523202180862427 0.005242988932877779 C 3.167709112167358 0.05094144493341446 2.831732511520386 0.155983105301857 2.498421192169189 0.2881799340248108 C 2.096094131469727 0.4477055370807648 1.680119514465332 0.5729415416717529 1.270143985748291 0.7131583094596863 C 0.9370294809341431 0.8269973397254944 0.6107010841369629 0.9541352391242981 0.3118981420993805 1.146255373954773 C 0.1599998027086258 1.243944048881531 0.09443686902523041 1.39871609210968 0.02112657763063908 1.545719623565674 C -0.03508270904421806 1.658215522766113 0.02542090974748135 1.775780320167542 0.1487228721380234 1.866125822067261 C 0.6953862309455872 2.266824007034302 1.189381122589111 2.726486682891846 1.662515640258789 3.210252046585083 C 2.064743757247925 3.621473073959351 2.465245485305786 4.034016609191895 2.857541084289551 4.454579830169678 C 2.916416645050049 4.517773151397705 2.97999095916748 4.576168060302734 3.061222791671753 4.61040210723877 C 3.090290069580078 4.622629165649414 3.124426126480103 4.635621547698975 3.148509502410889 4.608009338378906 C 3.172690868377686 4.580286502838135 3.155961513519287 4.548826694488525 3.138084888458252 4.522164821624756 C 3.112471342086792 4.484117031097412 3.085613250732422 4.447019577026367 3.050711631774902 4.397420406341553 C 3.127573251724243 4.39954137802124 3.157971620559692 4.445785045623779 3.192184925079346 4.485460758209229 C 3.237587690353394 4.537944316864014 3.277548551559448 4.58821964263916 3.321901321411133 4.480019092559814 C 3.33910059928894 4.437950134277344 3.404390811920166 4.44188404083252 3.434112310409546 4.392066478729248 C 3.519660472869873 4.248603820800781 3.530654191970825 4.106276512145996 3.456098318099976 3.958400726318359 C 3.280793905258179 3.610949039459229 3.061999797821045 3.291494369506836 2.818061828613281 2.989555597305298 C 2.601845979690552 2.721819877624512 2.367852210998535 2.469653844833374 2.12735652923584 2.223323345184326 C 2.06550931930542 2.159946441650391 1.979097247123718 2.120378255844116 1.934656381607056 2.016484022140503 C 2.046768665313721 2.050412178039551 2.149440288543701 2.076790571212769 2.248942852020264 2.112259864807129 C 2.752586841583252 2.292043924331665 3.271997451782227 2.421278715133667 3.778799295425415 2.590857982635498 C 5.109355449676514 3.035909175872803 6.344898223876953 3.665049076080322 7.465554237365723 4.510691165924072 C 8.059040069580078 4.958507061004639 8.62366771697998 5.442568302154541 9.149787902832031 5.968863010406494 C 9.983660697937012 6.803129196166992 10.75628471374512 7.690162181854248 11.42280673980713 8.665158271789551 C 11.70105743408203 9.072151184082031 11.96687030792236 9.488430976867676 12.0982141494751 9.972658157348633 C 12.13320541381836 10.10122585296631 12.15433788299561 10.23198127746582 12.16626930236816 10.36466884613037 C 12.17211627960205 10.42908477783203 12.16580009460449 10.50221920013428 12.23089408874512 10.54388332366943 C 12.29541683197021 10.58528804779053 12.36690235137939 10.63202285766602 12.40190315246582 10.51148509979248 C 12.42139530181885 10.44418621063232 12.49652194976807 10.47688961029053 12.53753185272217 10.42259311676025 C 12.69553661346436 10.21334934234619 12.72775077819824 9.972765922546387 12.73874092102051 9.726545333862305 C 12.74571228027344 9.571685791015625 12.71637630462646 9.418464660644531 12.69553661346436 9.263888359069824 C 12.57911968231201 8.400469779968262 12.10060882568359 7.710059642791748 11.63272094726562 7.020219326019287 C 11.09438228607178 6.226372718811035 10.46514129638672 5.503651142120361 9.78101634979248 4.830713748931885 C 8.730252265930176 3.79724645614624 7.559987545013428 2.931609392166138 6.223410606384277 2.297299146652222 C 5.335032939910889 1.875687122344971 4.414540767669678 1.547062158584595 3.462697744369507 1.304359912872314 C 3.338521957397461 1.272726535797119 3.21264123916626 1.239377021789551 3.085711717605591 1.22950804233551 C 2.903522968292236 1.215359449386597 2.725826025009155 1.186599373817444 2.551373481750488 1.133918166160583 C 2.529486656188965 1.127242565155029 2.500049114227295 1.129329800605774 2.496421575546265 1.100099205970764 C 2.492881059646606 1.070749282836914 2.521935939788818 1.063001394271851 2.542096853256226 1.055833697319031 C 2.791017293930054 0.9671380519866943 3.010860681533813 0.823456346988678 3.236724853515625 0.6910751461982727 C 3.280411958694458 0.6653738021850586 3.322667121887207 0.6361211538314819 3.378395080566406 0.645956814289093 C 3.401331424713135 0.6500762104988098 3.435927152633667 0.6507311463356018 3.440614700317383 0.6271283030509949 C 3.456961870193481 0.5449233651161194 3.500058650970459 0.5239005088806152 3.575105905532837 0.5530538558959961 C 3.580842971801758 0.5552493929862976 3.594129800796509 0.5517106652259827 3.59661078453064 0.5469250679016113 C 3.65491771697998 0.4350960552692413 3.797725200653076 0.3976374864578247 3.839302778244019 0.2721293270587921 C 3.855267286300659 0.2243435829877853 3.795430183410645 0.2014842629432678 3.794577836990356 0.1414718180894852 M 8.954115867614746 5.364177703857422 C 8.105983734130859 4.619766712188721 7.21798849105835 3.930973291397095 6.250553131103516 3.347694158554077 C 7.288053035736084 3.838539600372314 8.137420654296875 4.580755710601807 8.954115867614746 5.364177703857422 M 10.00632286071777 5.227675437927246 C 9.217929840087891 4.455258369445801 8.388920783996582 3.734153270721436 7.477399349212646 3.110944747924805 C 7.985348701477051 3.333182096481323 9.753983497619629 4.815514087677002 10.00632286071777 5.227675437927246 M 2.281342029571533 3.488315105438232 C 2.231252193450928 3.492325067520142 2.221417665481567 3.462133646011353 2.204217910766602 3.444628477096558 C 1.941343665122986 3.178508520126343 1.682687282562256 2.908008337020874 1.415911674499512 2.645899534225464 C 1.128484129905701 2.363539934158325 0.8209940195083618 2.103748798370361 0.5028718709945679 1.856454849243164 C 0.4791707694530487 1.838020920753479 0.4282175004482269 1.826067090034485 0.4521151781082153 1.779899716377258 C 0.4680798351764679 1.748832583427429 0.4921741187572479 1.774359464645386 0.5090894103050232 1.788313269615173 C 0.7440340518951416 1.982161045074463 0.9888350963592529 2.165410041809082 1.210689067840576 2.373101234436035 C 1.498203992843628 2.642270088195801 1.7687166929245 2.929599761962891 2.04353404045105 3.211979389190674 C 2.125739336013794 3.296368360519409 2.19781494140625 3.390615701675415 2.281342029571533 3.488315105438232 M 8.365306854248047 3.950455904006958 C 8.777851104736328 4.233774662017822 9.15110969543457 4.56289005279541 9.498003005981445 4.92294979095459 C 9.123105049133301 4.5956711769104 8.74946117401123 4.266850471496582 8.365306854248047 3.950455904006958 M 1.716146349906921 1.955106377601624 C 2.017243385314941 2.197797775268555 2.287472248077393 2.472408056259155 2.524612903594971 2.778969049453735 C 2.250855445861816 2.509035348892212 1.993728399276733 2.222941160202026 1.716146349906921 1.955106377601624 M 8.358901977539062 4.380800247192383 C 8.502082824707031 4.470642566680908 8.644801139831543 4.558005809783936 8.737802505493164 4.701674938201904 C 8.611539840698242 4.594709873199463 8.485254287719727 4.487743854522705 8.358901977539062 4.380800247192383 M 2.068382740020752 2.512663602828979 C 2.077747106552124 2.503681659698486 2.087024688720703 2.494611263275146 2.096389055252075 2.485520601272583 C 2.201825380325317 2.577482461929321 2.289187669754028 2.68653678894043 2.39203405380249 2.779547452926636 C 2.284117460250854 2.69054651260376 2.176201343536377 2.601654767990112 2.068382740020752 2.512663602828979" fill="#2777df" stroke="none" stroke-width="0"/>
</svg>