<svg xmlns="http://www.w3.org/2000/svg" width="8" height="1" viewBox="129.1880187988281 67.52383422851562 8.269149780273494 1" fill="none">
  <path d="M 129.1880187988281 67.78574371337891 C 129.3517150878906 67.5709228515625 129.783447265625 67.63632202148438 130.1327972412109 67.62383270263672 C 131.1982879638672 67.58597564697266 132.3092651367188 67.61933135986328 133.3714904785156 67.56999206542969 C 134.3640747070312 67.52383422851562 135.5105743408203 67.61297607421875 136.5295257568359 67.65106201171875 C 136.6701812744141 67.65626525878906 136.8348083496094 67.65401458740234 137.0560607910156 67.66456604003906 C 137.109130859375 67.66681671142578 137.4571685791016 67.64881896972656 137.4474639892578 67.799560546875 C 137.4355163574219 67.98358154296875 137.0025329589844 67.89094543457031 136.8672485351562 67.88031768798828 C 136.200439453125 67.82841491699219 135.4155426025391 67.82616424560547 134.7751770019531 67.82616424560547 C 133.7061920166016 67.82616424560547 132.628662109375 67.81266784667969 131.6847229003906 67.88031768798828 C 131.2784423828125 67.90956878662109 130.8192291259766 67.90723419189453 130.3891296386719 67.90723419189453 C 129.9608764648438 67.90723419189453 129.4928283691406 67.93873596191406 129.1880187988281 67.78574371337891" fill="#ff4d16" stroke="none" stroke-width="0"/>
</svg>