<svg xmlns="http://www.w3.org/2000/svg" width="85" height="70" viewBox="2.410939693450928 20.8640022277832 84.90042352676392 69.73626327514648" fill="none">
  <path d="M 3.810527324676514 90.24442291259766 C 3.324230194091797 90.07243347167969 2.932819843292236 89.60393524169922 2.748974084854126 88.95751190185547 C 2.535478353500366 88.19839477539062 2.410939693450928 86.54973602294922 4.148563861846924 84.15383148193359 C 15.16142177581787 69.06080627441406 31.06097030639648 55.95451736450195 51.37870788574219 45.17293930053711 C 57.45742034912109 41.92898559570312 63.76742935180664 38.59014129638672 70.47478485107422 36.50856018066406 C 71.73796844482422 36.10527038574219 72.80545806884766 36.22981262207031 74.05084991455078 36.35436248779297 C 74.76844024658203 36.43145751953125 75.50380706787109 36.50856018066406 76.29849243164062 36.49075317382812 C 76.74327850341797 36.467041015625 77.13468933105469 36.5203971862793 77.43121337890625 36.63309478759766 C 77.70401763916016 36.73390960693359 77.87005615234375 36.90589141845703 77.89971160888672 37.04822540283203 C 77.88191986083984 37.27357482910156 77.56761169433594 37.68277740478516 76.83222961425781 38.03860855102539 C 74.15166473388672 39.34923553466797 71.44145202636719 40.61241912841797 68.77867889404297 41.88746643066406 C 47.80857849121094 51.85063552856445 28.0305061340332 61.2563362121582 12.54016017913818 79.35609436035156 C 11.22359752655029 80.91580963134766 10.41705513000488 82.87286376953125 9.634235382080078 84.75875854492188 C 8.15162181854248 88.39412689208984 7.060415744781494 90.60026550292969 4.107050895690918 90.33338165283203 C 4.018091678619385 90.31559753417969 3.911343574523926 90.29186248779297 3.810527324676514 90.24442291259766 M 39.85583114624023 84.25466156005859 L 39.67198944091797 83.95220184326172 C 42.73802947998047 79.58739471435547 51.84128570556641 73.54425048828125 60.13206100463867 68.18312835693359 C 70.83059692382812 61.30379486083984 80.7166748046875 57.11094665527344 87.31136322021484 56.60093307495117 C 82.54327392578125 59.43569183349609 77.60912322998047 62.65000152587891 72.82324981689453 65.76348876953125 C 61.91120529174805 72.87411499023438 50.61367797851562 80.21601867675781 39.85583114624023 84.25466156005859 M 9.62237548828125 51.24573516845703 C 9.438529968261719 51.18642425537109 9.189450263977051 50.88397979736328 9.064911842346191 50.4510498046875 C 8.964095115661621 50.11894607543945 8.975953102111816 49.78091430664062 9.100493431091309 49.63858032226562 C 18.26897811889648 37.14903259277344 30.14768028259277 31.54475212097168 41.61124420166016 26.12430953979492 C 45.10429000854492 24.44599151611328 48.73965835571289 22.73208999633789 52.55293655395508 20.8640022277832 C 52.84352493286133 20.98260879516602 53.04516983032227 21.24947738647461 52.98585510253906 21.49262237548828 C 50.59589385986328 23.05825805664062 47.94497680664062 24.14353561401367 45.40080642700195 25.1932315826416 C 39.99222946166992 27.41714859008789 34.39981460571289 29.73002433776855 30.70514488220215 36.36027908325195 C 27.78736114501953 37.89627456665039 24.9348087310791 40.07868194580078 22.18901062011719 42.19585800170898 C 21.06815338134766 43.07355880737305 19.91764640808105 43.95719909667969 18.79678916931152 44.78747940063477 C 17.86570930480957 45.4398078918457 16.94055938720703 46.23449325561523 16.0035457611084 47.07070541381836 C 14.0227746963501 48.83795928955078 11.95304584503174 50.62302398681641 9.699471473693848 51.26944351196289 C 9.687610626220703 51.26944351196289 9.669817924499512 51.27539443969727 9.62237548828125 51.24573516845703" fill="#2574da" stroke="none" stroke-width="0"/>
</svg>