<svg xmlns="http://www.w3.org/2000/svg" width="50" height="44" viewBox="9.128437995910645 34.61423492431641 49.510958671569824 44.04429626464843" fill="none">
  <path d="M 9.504125595092773 35.62619781494141 C 9.128437995910645 39.6276741027832 9.129236221313477 43.66592407226562 9.165206909179688 47.68180084228516 C 9.199578285217285 51.56977844238281 9.360243797302246 55.48652648925781 10.18356132507324 59.29856491088867 C 10.90696144104004 62.65018081665039 12.1867036819458 65.98583221435547 14.2465934753418 68.74993896484375 C 16.29609489440918 71.50045776367188 19.00185203552246 73.61390686035156 22.10487937927246 75.06310272216797 C 28.67223930358887 78.13016510009766 36.36186218261719 78.65853118896484 43.31849670410156 76.6553955078125 C 46.54782104492188 75.72575378417969 49.93061065673828 74.28534698486328 52.20313262939453 71.71627807617188 C 54.52760314941406 69.08805847167969 55.71942138671875 65.45587158203125 56.56830596923828 62.11143112182617 C 58.63939666748047 53.95499801635742 58.14540100097656 45.44604873657227 57.61544036865234 37.13374328613281 C 57.51392364501953 35.54545211791992 55.03279113769531 35.53107070922852 55.12870025634766 37.13374328613281 C 55.5379638671875 43.98726272583008 55.97439575195312 50.97426223754883 54.87371063232422 57.78702163696289 C 54.33656311035156 61.11706924438477 53.48126983642578 64.53022766113281 51.95533752441406 67.55492401123047 C 50.50453948974609 70.43015289306641 48.09054565429688 72.21746826171875 45.13538360595703 73.38609313964844 C 38.80143737792969 75.89202117919922 31.6090030670166 75.97754669189453 25.20790863037109 73.66267395019531 C 22.20639610290527 72.57636260986328 19.38553428649902 70.89536285400391 17.23931503295898 68.50933837890625 C 15.14265251159668 66.178466796875 13.75500297546387 63.25448989868164 12.88692188262939 60.26416397094727 C 10.58323097229004 52.32675170898438 11.56881427764893 43.77624130249023 11.06363296508789 35.62619781494141 C 11.00128364562988 34.61423492431641 9.597648620605469 34.63261413574219 9.504125595092773 35.62619781494141" fill="#2473d8" stroke="none" stroke-width="0"/>
</svg>