<svg xmlns="http://www.w3.org/2000/svg" width="1" height="1" viewBox="264.1741638183594 283.5042419433594 1 1" fill="none">
  <path d="M 264.2311096191406 283.6317443847656 C 264.2646789550781 283.5042419433594 264.39892578125 283.8144226074219 264.433349609375 283.5815124511719 C 264.5021667480469 283.57421875 264.4121704101562 283.7868041992188 264.53369140625 283.6317443847656 C 264.6087341308594 283.6534118652344 264.5142822265625 283.6968688964844 264.53369140625 283.7837219238281 C 264.7629699707031 283.6040954589844 264.5633544921875 283.9221801757812 264.6358032226562 283.9856567382812 C 264.4840698242188 283.9221801757812 264.4719848632812 284.1951293945312 264.3825988769531 284.0865783691406 C 264.3238830566406 284.0787048339844 264.2923583984375 284.0978698730469 264.2818603515625 284.1373901367188 C 264.2266235351562 284.1246948242188 264.2475280761719 284.0369567871094 264.1801147460938 284.0364074707031 C 264.1741638183594 283.9453430175781 264.2423706054688 283.9297790527344 264.2311096191406 283.8341979980469 C 264.2759399414062 283.8565063476562 264.3214111328125 283.8784790039062 264.331787109375 283.9351501464844 C 264.5106201171875 283.9292602539062 264.2243347167969 283.7676696777344 264.3825988769531 283.7837219238281 C 264.3749389648438 283.7239379882812 264.2906188964844 283.7408447265625 264.2311096191406 283.7329711914062 C 264.2215576171875 283.6901245117188 264.2508850097656 283.6850280761719 264.2818603515625 283.6824645996094 C 264.2906188964844 283.6390380859375 264.2610473632812 283.6345520019531 264.2311096191406 283.6317443847656" fill="#2777df" stroke="none" stroke-width="0"/>
</svg>